<svg id="Grupo_157026" data-name="Grupo 157026" xmlns="http://www.w3.org/2000/svg" xmlns:xlink="http://www.w3.org/1999/xlink" width="329.219" height="224.333" viewBox="0 0 329.219 224.333">
  <defs>
    <clipPath id="clip-path">
      <rect id="Rectángulo_47072" data-name="Rectángulo 47072" width="329.219" height="224.333" fill="none"/>
    </clipPath>
  </defs>
  <g id="Grupo_157025" data-name="Grupo 157025" clip-path="url(#clip-path)">
    <path id="Trazado_222868" data-name="Trazado 222868" d="M46.284,44.081A9.374,9.374,0,0,0,44.186,42c5.091-1.219,18.4-2.819,18.4-2.819.522-.031,2.549-3.577,5.681-7.1.66,2.047.9,3.888,2.035,5.733.877,1.428,2.544,1.913,3.633,3.178-.85,1.293-1.7,3.527-2.628,4.763-2.594,3.448-6.252,4.4-10.077,5.567a7.97,7.97,0,0,1-6.553,2.848c-2.066-.05-4.639-1.323-7.816-2.119.936-3.017,1.34-5.326-.575-7.967" transform="translate(20.646 14.989)"/>
    <path id="Trazado_222869" data-name="Trazado 222869" d="M62.177,45.678s3.816.656,7.446,1.02,5.756,1.746,3.05,5.03-3.1,3.731-6.532,3.075a27.276,27.276,0,0,1-7.408-3.075Z" transform="translate(27.443 21.343)" fill="#723f3f"/>
    <path id="Trazado_222870" data-name="Trazado 222870" d="M55.109,11.314s4.377.2,8.325,6.309,6.2,10.8,7.708,13.062,3.2,6.022.751,7.8-7.528-2.356-9.856-4.609-6.727-6.123-6.727-6.123Z" transform="translate(25.75 5.287)" fill="#cfb8e0"/>
    <path id="Trazado_222871" data-name="Trazado 222871" d="M61.9,35.634A7.718,7.718,0,0,1,69.46,34.9a5.494,5.494,0,0,1,1.215.863,4.052,4.052,0,0,1,.161-.585c.458-1.222,1.031-4.786-2.051-9.655-1.838-2.9-5.228-.216-6.278,1.288l-1.188,1.6s.66,5.069.627,6.292c-.01.4-.019.688-.044.933" transform="translate(28.651 11.323)" fill="#cfb8e0"/>
    <path id="Trazado_222872" data-name="Trazado 222872" d="M83.786,29.428c-4.136-2.257-7.126-1.709-10.425.085a6.471,6.471,0,0,1-5.4.336c-1.809,4.77-4.563,9.528-9.245,11.606a14.5,14.5,0,0,1-14.847-1.916,28.521,28.521,0,0,1-.624,3c-.976,2.214-4.207,6.412-3.909,11.43.323,5.42,4.615,5.4,11.806,6.965,5.2,1.131,21.845,3.1,21.845,3.1A4.823,4.823,0,0,0,76.714,59a5.034,5.034,0,0,0-2.166-4.491,96.676,96.676,0,0,0,8.718-11.4c2.82-4.76,4.656-11.431.519-13.687" transform="translate(18.371 13.056)" fill="#5e2e2e"/>
    <path id="Trazado_222873" data-name="Trazado 222873" d="M60.934,50.138c3.671-2.541,5.937-8.6,5.559-12.586a35.342,35.342,0,0,1-.472-9.71c.629-5.064.876-8.969-3.246-14.954-.927-1.345-3.4-1.431-3.4-1.431L50.8,14.433a50,50,0,0,0-5.468,3.615c-1.539,1.287-.377,3.488-1.114,5.912-1.709,5.907-.076,8.663-1.03,17-.289,2.54-.5,4.384-.734,5.935,4.912,3.259,13.408,6.751,18.48,3.244" transform="translate(19.837 5.353)" fill="#f3e0fc"/>
    <path id="Trazado_222874" data-name="Trazado 222874" d="M50.02,11.9c-.062.2-1.731.145-2,1.711a3.242,3.242,0,0,1-1.142,2.151S49,17.869,50.837,19.7a10.241,10.241,0,0,0,4.05,2.443A9.133,9.133,0,0,1,57.16,20.93c.525-.007,1.793,1.215,1.793,1.215l1.177-3.193a1.934,1.934,0,0,0,2.276,0,10.591,10.591,0,0,0,1.863-1.928L59.8,11.9l-2.508.885Z" transform="translate(21.906 5.56)" fill="#dfc8ed"/>
    <path id="Trazado_222875" data-name="Trazado 222875" d="M50.564,8.914,48.548,15.6s7.3,3.2,9.093,4.75c.242-1.843,0-9.273,0-9.273Z" transform="translate(22.684 4.165)" fill="#f9b4af"/>
    <path id="Trazado_222876" data-name="Trazado 222876" d="M49.685,4.219a6.353,6.353,0,0,1,10.447.77c3.57,5.282.2,13.918-2.932,13.414-1.75-.282-5.693-1.877-7.421-4.7-1.944-3.175-1.505-7.685-.094-9.486" transform="translate(22.648 0.855)" fill="#ffd0ca"/>
    <path id="Trazado_222877" data-name="Trazado 222877" d="M62.364,9.472C61.355,9.153,60.355,8.1,59.19,7.2c-1.02,2.161-5.791,3.7-7.377,3.784a33.49,33.49,0,0,1-.882,4.257,8.524,8.524,0,0,1-4.2-8.448c.332-2.99,2.106-4.107,4.246-4.669,4.937-4.8,10.693-.257,11.832,1.9,1.2,2.28-.066,4.078-.442,5.448" transform="translate(21.805 0)" fill="#5e2e2e"/>
    <path id="Trazado_222878" data-name="Trazado 222878" d="M56.5,46.029,65.7,30.1a6.907,6.907,0,0,1,2.731-2.481l8.525-4.934c.4-.175.687-.188.848-.082l.007-.009.864.506-.722.654-.207-.2c-.022.04-.035.075-.059.116L68.487,39.6a6.907,6.907,0,0,1-2.731,2.481l-8.043,4.656-.426.892-.91-.522,0-.009c-.216-.145-.2-.516.117-1.064" transform="translate(26.278 10.528)" fill="#844f4f"/>
    <path id="Trazado_222879" data-name="Trazado 222879" d="M77.559,23.028l-8.525,4.934A6.908,6.908,0,0,0,66.3,30.444L57.1,46.377c-.55.952-.222,1.394.731.982l8.525-4.934a6.9,6.9,0,0,0,2.732-2.481l9.2-15.933c.549-.952.22-1.394-.732-.982" transform="translate(26.558 10.688)" fill="#723f3f"/>
    <path id="Trazado_222880" data-name="Trazado 222880" d="M57.379,37.09a8.234,8.234,0,0,1,4.265-1.723c-.038.2-1.13,1.954-1.13,1.954S65.283,35.7,67.2,36.255c1.613.468,1.055,2.714-2.7,5.1-1.051.668-3.583,1.444-7.33,1.592C55.5,43.011,51,42.5,51,42.5V38.489s5.019-.518,6.383-1.4" transform="translate(23.828 16.525)" fill="#ffd0ca"/>
    <path id="Trazado_222881" data-name="Trazado 222881" d="M70.072,28.718c1.007.493.106,4.849-1.925,6.208-1.706,1.14-3.8-.28-2.51-2.706s4.436-3.5,4.436-3.5" transform="translate(30.482 13.419)" fill="#ffd0ca"/>
    <path id="Trazado_222882" data-name="Trazado 222882" d="M60.923,53.649c.311-1.689.728-5.35-.431-6.969-.9-.352-1.89-.175-3.441-.175-.847,0-.351-1.35-2.111-2.455a42.521,42.521,0,0,0-4.453-2.29,45.065,45.065,0,0,0,2.032-12.39A23.9,23.9,0,0,0,48.31,15.393a8.685,8.685,0,0,0-6.268,8.068c-.351,4.066-1.482,13.979-1.825,19.793s4.058,6.309,6.042,7.357a98.464,98.464,0,0,0,13.026,5.266c.349-.7,1.461-1.278,1.637-2.229" transform="translate(18.783 7.192)" fill="#dfc8ed"/>
    <path id="Trazado_222883" data-name="Trazado 222883" d="M198.3,88.172c0-.037,0-.075,0-.112V84.969h-1.821a7.287,7.287,0,0,0-.772-.519l-38.1-22,2.164-1.25c2.271-1.312,3.5-2.976,3.659-4.587h.013v-.3c0-.084,0-.169,0-.254V53h-1.818a7.185,7.185,0,0,0-.77-.518L129.3,34.268c-3.853-2.224-10.646-1.943-15.1.627l-10.255,5.92L71.8,59.374,52.456,70.544a10.666,10.666,0,0,0-1.548,1.08H48.773v3.853h.009a4.464,4.464,0,0,0,2.59,3.783l76.663,44.261c3.853,2.224,10.646,1.943,15.1-.627l51.493-29.73c2.32-1.34,3.551-3.046,3.664-4.688h.013Z" transform="translate(22.789 15.311)" fill="#8bdae6"/>
    <path id="Trazado_222884" data-name="Trazado 222884" d="M195.707,82.12l-38.1-22,2.164-1.25c4.45-2.569,4.937-6.49,1.084-8.716L129.3,31.939c-3.853-2.224-10.646-1.943-15.1.627l-10.253,5.92L71.8,57.045,52.456,68.215c-4.449,2.569-4.937,6.49-1.084,8.715l76.663,44.26c3.853,2.226,10.646,1.944,15.1-.625l51.493-29.73c4.45-2.569,4.937-6.491,1.084-8.715" transform="translate(22.789 14.223)" fill="#e6f1ff"/>
    <path id="Trazado_222885" data-name="Trazado 222885" d="M149.315,77.1,117.607,58.8l2.92-1.684,31.707,18.305Z" transform="translate(54.953 26.686)" fill="#a991c1"/>
    <path id="Trazado_222886" data-name="Trazado 222886" d="M144.988,79.6,113.281,61.294l2.92-1.684,31.707,18.306Z" transform="translate(52.931 27.853)" fill="#a991c1"/>
    <path id="Trazado_222887" data-name="Trazado 222887" d="M138.818,83.163,107.111,64.856l2.92-1.684,31.707,18.305Z" transform="translate(50.048 29.517)" fill="#dfc8ed"/>
    <path id="Trazado_222888" data-name="Trazado 222888" d="M134.492,85.661,102.784,67.354l2.92-1.684,31.707,18.305Z" transform="translate(48.027 30.684)" fill="#dfc8ed"/>
    <path id="Trazado_222889" data-name="Trazado 222889" d="M130.165,88.159,98.458,69.852l2.92-1.684,31.707,18.305Z" transform="translate(46.005 31.852)" fill="#dfc8ed"/>
    <path id="Trazado_222890" data-name="Trazado 222890" d="M102.046,74.146l-1.927,2.773,2.676,2.169-4.948.169L94.7,81.71l-1.13-2.669-4.623-.653,4.248-1.818.292-2.857,3.756,1.545Z" transform="translate(41.561 34.443)" fill="#a991c1"/>
    <path id="Trazado_222891" data-name="Trazado 222891" d="M109.079,78.207l-1.927,2.773,2.676,2.169-4.948.169-3.149,2.453L100.6,83.1l-4.623-.651,4.248-1.818.292-2.857,3.756,1.545Z" transform="translate(44.847 36.34)" fill="#a991c1"/>
    <path id="Trazado_222892" data-name="Trazado 222892" d="M116.112,82.267l-1.927,2.773,2.676,2.169-4.948.169-3.149,2.453-1.13-2.67-4.623-.651,4.248-1.818.292-2.857,3.756,1.545Z" transform="translate(48.133 38.238)" fill="#a991c1"/>
    <path id="Trazado_222893" data-name="Trazado 222893" d="M141.61,61.079,103.727,39.207l-47.7,27.542L93.906,88.621Z" transform="translate(26.177 18.32)" fill="#fff"/>
    <path id="Trazado_222894" data-name="Trazado 222894" d="M75.741,68.261a51.428,51.428,0,0,0,11.61,3.915s-1.577-5.1.426-6.259l5.771-3.332-5.5-3.127-5.416-3.175s-3.768,2.174-5.771,3.332-10.843.245-10.843.245a22.815,22.815,0,0,0,6.782,6.7,3.812,3.812,0,0,0,.7.515c.227.132.459.254.69.38s.43.267.659.4a5.5,5.5,0,0,0,.891.4" transform="translate(30.847 26.298)" fill="#f7e7cf"/>
    <path id="Trazado_222895" data-name="Trazado 222895" d="M100.465,60.623c-5.647,3.26-15.952,5.36-20.065,2.986s-.475-8.324,5.171-11.584,13.56-3.979,17.673-1.605,2.868,6.943-2.779,10.2" transform="translate(36.743 22.905)" fill="#f7e7cf"/>
    <path id="Trazado_222896" data-name="Trazado 222896" d="M96.369,56.026s3.678,1.451.032,3.477-8.211-.031-8.211-.031Z" transform="translate(41.208 26.178)" fill="#f7e7cf"/>
    <path id="Trazado_222897" data-name="Trazado 222897" d="M87.431,51.281a5.194,5.194,0,0,0-6.022-.019C77.9,53.366,81.46,56,81.46,56Z" transform="translate(37.317 23.518)" fill="#f7e7cf"/>
    <path id="Trazado_222898" data-name="Trazado 222898" d="M97.873,60.65c-2.056.445-5.25,1.064-5.913.779-.481-.208-.4-2.509-2.4-3.662-2.125-1.224-6.333-1.3-6.714-1.6-.5-.383.578-2.227,1.347-3.414l-.4-.23c-1.34.977-3.671,2.713-5.62,4.34-2.921,2.437-3.764,4.9.4,6.953.028.015.114.065.139.081,3.564,2.4,7.823,1.916,12.046.229,2.817-1.125,5.824-2.471,7.517-3.244Z" transform="translate(35.378 24.542)"/>
    <path id="Trazado_222899" data-name="Trazado 222899" d="M86.724,59.467c.164-.4.233-2.326-.49-2.8l.007-.006-.023-.009-.013-.013-.013,0c-.825-.418-4.154-.379-4.852-.283a1.643,1.643,0,0,0-.109,3.009l.283.163c1.8,1.04,5.043.346,5.21-.063" transform="translate(37.514 26.304)" fill="#f7e7cf"/>
    <path id="Trazado_222900" data-name="Trazado 222900" d="M108.753,54.156c-.216-.715-2.113-2.744-4.855-4.345a26.533,26.533,0,0,0-7.948-3.047,9.247,9.247,0,0,0-5.711,1.378c-4.424,2.553-5.85,4.251-5.85,4.251,2.528,0,6.388-1.862,7.2-1.771,1.673.185,1.976,1.824,3.5,3.193a10.982,10.982,0,0,0,1.652.914c2.329.816,5.018,1.007,5.331,1.944.156.47-3.065,2.7-3.07,4.158a35.753,35.753,0,0,0,7.364-3.378c1.794-1.036,2.748-2.1,2.386-3.3" transform="translate(39.431 21.83)"/>
    <path id="Trazado_222901" data-name="Trazado 222901" d="M95.389,75.183c-.478-.738-1.017-1.539-1.532-2.232-2.437-3.287-2.64-5.154-2.64-5.154,0-.035-9.044-1.051-11.568-1.332-.489-1.457-2.248-6.679-2.308-6.679a48.942,48.942,0,0,1-8.928-1.524c-1.2-.3-2.585-.607-3.865-.883a11.458,11.458,0,0,0-7.677,1.149l-.39.224L74.35,69.068l.791.458L93.009,79.84l.389-.224c2.133-1.232,2.926-2.989,1.991-4.433" transform="translate(26.392 26.706)" fill="#f9c852"/>
    <path id="Trazado_222902" data-name="Trazado 222902" d="M210.676,136.145l-2.981-.585-76.28-44.041c-3.853-2.224-10.646-1.943-15.1.627l-51.493,29.73a10.808,10.808,0,0,0-1.354.924l-2.33.789v3.249h.009a4.476,4.476,0,0,0,2.591,3.753l38.1,22-2.164,1.25a10.552,10.552,0,0,0-1.486,1.024l-2.179.643v3.031c-.1,1.5.741,2.954,2.581,4.016l31.555,18.219c3.853,2.224,10.646,1.943,15.1-.627l10.253-5.92,32.148-18.559,19.347-11.17c2.418-1.4,3.656-3.193,3.673-4.9h.01Z" transform="translate(28.569 42.062)" fill="#8bdae6"/>
    <path id="Trazado_222903" data-name="Trazado 222903" d="M63.742,128.322l38.1,22-2.164,1.25c-4.45,2.569-4.937,6.49-1.084,8.715L130.15,178.5c3.853,2.224,10.646,1.943,15.1-.627l10.255-5.92L187.646,153.4l19.347-11.17c4.449-2.569,4.937-6.49,1.084-8.716l-76.663-44.26c-3.853-2.226-10.646-1.944-15.1.625l-51.493,29.73c-4.45,2.569-4.937,6.491-1.084,8.716" transform="translate(28.569 41.002)" fill="#e6f1ff"/>
    <path id="Trazado_222904" data-name="Trazado 222904" d="M97.447,135.706l37.883,21.871,47.7-27.54-37.883-21.872Z" transform="translate(45.533 50.54)" fill="#fff"/>
    <path id="Trazado_222905" data-name="Trazado 222905" d="M130.677,137.112l5.055-.446a44.8,44.8,0,0,1,5.656-3.922c2.22-1.031,4.843-.167,6.283-1,2.022-1.168.031-2.584,1.588-3.42,1.466-.788,2.371-.522,6.519-.572,3.162-.037,7.144-3.247,7.144-3.247L149.8,116.931s-29.455,16.38-28.912,16.693,9.787,3.488,9.787,3.488" transform="translate(56.483 54.637)"/>
    <path id="Trazado_222906" data-name="Trazado 222906" d="M116.606,130.291l.773-2.918a59.709,59.709,0,0,0,6.793-3.266c1.786-1.281.289-2.8,1.73-3.627,2.022-1.168,4.475-.018,5.923-.916,1.365-.847.905-1.37.99-3.765.066-1.825,5.627-4.124,5.627-4.124l13.117,7.574s-28.371,17.005-28.914,16.693-6.041-5.65-6.041-5.65" transform="translate(54.485 52.18)"/>
    <path id="Trazado_222907" data-name="Trazado 222907" d="M128.38,113.587c.9,1.406,2.871,4.152,2.871,4.152l9.787,5.649.786.455,9.787,5.65s4.757,1.139,7.191,1.658c2.863.61,8.25-2.345,8.25-2.345l-16.913-9.765-.786-.453-16.913-9.765s-5.118,3.111-4.06,4.763" transform="translate(59.919 50.849)" fill="#a991c1"/>
    <path id="Trazado_222908" data-name="Trazado 222908" d="M131.3,121.811c-1.02.588-2.039,1.222-2.942,1.8l8.12,4.688c1-.521,2.1-1.109,3.118-1.7,2.98-1.72,11.961.1,11.961.1s1.51-3.633-3.577-7.6a25.807,25.807,0,0,0-3.7-2.138,27.339,27.339,0,0,0-13.16-2.064s3.16,5.185.182,6.9" transform="translate(59.975 53.634)" fill="#f7e7cf"/>
    <path id="Trazado_222909" data-name="Trazado 222909" d="M122.135,124.1c5.426-3.133,15.328-5.15,19.28-2.868s.458,8-4.97,11.131-13.028,3.824-16.981,1.542-2.756-6.672,2.67-9.8" transform="translate(54.732 56.189)" fill="#f7e7cf"/>
    <path id="Trazado_222910" data-name="Trazado 222910" d="M116.6,124.584c-2.051,1.359-3.838,2.876-4.321,4.6-.468,1.671-.182,3.856,4.182,3.849-.712,3.187,1.21,6.052,8.311,6.71,8.016.742,16.771-4.55,19.161-8.466-6.639,1.994-13.082-.64-19.475-.514a4.611,4.611,0,0,0,.789-2.431,10.494,10.494,0,0,0-.458-2.914c-.361-1.5.847-4.076,4.861-5.517-4.981.015-11.185,3.445-13.05,4.682" transform="translate(52.388 56.025)"/>
    <path id="Trazado_222911" data-name="Trazado 222911" d="M73.541,110.328l31.707,18.307-2.92,1.684L70.621,112.014Z" transform="translate(32.998 51.551)" fill="#15616d"/>
    <path id="Trazado_222912" data-name="Trazado 222912" d="M77.868,107.83l31.707,18.307-2.92,1.684L74.948,109.516Z" transform="translate(35.02 50.384)" fill="#15616d"/>
    <path id="Trazado_222913" data-name="Trazado 222913" d="M84.038,104.268l31.707,18.307-2.92,1.684L81.118,105.954Z" transform="translate(37.903 48.72)" fill="#8bdae6"/>
    <path id="Trazado_222914" data-name="Trazado 222914" d="M88.364,101.77l31.707,18.307-2.92,1.684L85.445,103.456Z" transform="translate(39.924 47.553)" fill="#8bdae6"/>
    <path id="Trazado_222915" data-name="Trazado 222915" d="M92.691,99.272,124.4,117.579l-2.92,1.684L89.771,100.958Z" transform="translate(41.946 46.385)" fill="#dfc8ed"/>
    <path id="Trazado_222916" data-name="Trazado 222916" d="M114.193,109.465l1.927-2.773-2.676-2.169,4.948-.169,3.149-2.453,1.13,2.669,4.623.653-4.248,1.818-.292,2.857L119,108.353Z" transform="translate(53.007 47.614)" fill="#a991c1"/>
    <path id="Trazado_222917" data-name="Trazado 222917" d="M107.16,105.4l1.927-2.773-2.676-2.169,4.946-.169,3.15-2.453,1.13,2.67,4.623.651-4.248,1.818-.292,2.857-3.756-1.545Z" transform="translate(49.721 45.717)" fill="#a991c1"/>
    <path id="Trazado_222918" data-name="Trazado 222918" d="M100.127,101.344l1.926-2.773L99.378,96.4l4.948-.169,3.149-2.453,1.13,2.67,4.623.651-4.248,1.818-.292,2.857-3.756-1.545Z" transform="translate(46.435 43.819)" fill="#a991c1"/>
    <path id="Trazado_222919" data-name="Trazado 222919" d="M122.464,120.244h2.981l76.28-44.04c3.853-2.226,10.646-1.944,15.1.625l51.495,29.73a11.02,11.02,0,0,1,1.354.924H272v4.038h-.009a4.476,4.476,0,0,1-2.591,3.753l-38.1,22,2.164,1.25a10.677,10.677,0,0,1,1.486,1.024h2.179v3.674c.1,1.505-.741,2.955-2.581,4.017L202.99,165.456c-3.853,2.224-10.645,1.943-15.1-.626l-10.253-5.92L145.5,140.35l-19.349-11.17c-2.418-1.4-3.656-3.193-3.673-4.9h-.01Z" transform="translate(57.222 34.905)" fill="#8bdae6"/>
    <path id="Trazado_222920" data-name="Trazado 222920" d="M269.4,112.683l-38.1,22,2.164,1.25c4.449,2.569,4.937,6.49,1.084,8.715L202.99,162.865c-3.853,2.224-10.646,1.943-15.1-.627l-10.255-5.92-32.146-18.559-19.347-11.17c-4.449-2.569-4.937-6.49-1.084-8.715l76.663-44.26c3.853-2.226,10.646-1.944,15.1.625l51.493,29.73c4.45,2.569,4.937,6.491,1.084,8.716" transform="translate(57.222 33.695)" fill="#e6f1ff"/>
    <path id="Trazado_222921" data-name="Trazado 222921" d="M223.006,94.689,191.3,113l2.92,1.684,31.707-18.305Z" transform="translate(89.385 44.244)" fill="#15616d"/>
    <path id="Trazado_222922" data-name="Trazado 222922" d="M218.679,92.191,186.972,110.5l2.92,1.684L221.6,93.877Z" transform="translate(87.364 43.077)" fill="#15616d"/>
    <path id="Trazado_222923" data-name="Trazado 222923" d="M212.509,88.629,180.8,106.935l2.92,1.684,31.707-18.305Z" transform="translate(84.481 41.412)" fill="#8bdae6"/>
    <path id="Trazado_222924" data-name="Trazado 222924" d="M208.183,86.131l-31.707,18.307,2.92,1.684L211.1,87.816Z" transform="translate(82.459 40.245)" fill="#8bdae6"/>
    <path id="Trazado_222925" data-name="Trazado 222925" d="M203.856,83.633,172.149,101.94l2.92,1.684,31.707-18.305Z" transform="translate(80.437 39.078)" fill="#8bdae6"/>
    <path id="Trazado_222926" data-name="Trazado 222926" d="M175.737,93.826l-1.927-2.773,2.676-2.169-4.948-.169-3.149-2.453-1.13,2.669-4.623.653,4.248,1.818.292,2.857,3.756-1.545Z" transform="translate(75.993 40.306)" fill="#dfc8ed"/>
    <path id="Trazado_222927" data-name="Trazado 222927" d="M182.77,89.765l-1.927-2.773,2.676-2.169-4.948-.169L175.423,82.2l-1.13,2.67-4.623.651,4.248,1.819.292,2.855,3.756-1.545Z" transform="translate(79.279 38.409)" fill="#15616d" opacity="0.73"/>
    <path id="Trazado_222928" data-name="Trazado 222928" d="M189.8,85.7l-1.927-2.773,2.676-2.169-4.946-.169-3.15-2.453-1.13,2.669-4.623.653,4.248,1.818.292,2.857L185,84.592Z" transform="translate(82.566 36.512)" fill="#15616d"/>
    <path id="Trazado_222929" data-name="Trazado 222929" d="M215.3,120.082l-37.883,21.872-47.7-27.542L167.6,92.54Z" transform="translate(60.61 43.24)" fill="#fff"/>
    <path id="Trazado_222930" data-name="Trazado 222930" d="M149.431,102.226a51.429,51.429,0,0,1,11.61-3.915s-1.577,5.1.425,6.259l5.771,3.332-5.5,3.127-5.416,3.175s-3.768-2.174-5.771-3.332-10.842-.245-10.842-.245a22.8,22.8,0,0,1,6.78-6.7,3.811,3.811,0,0,1,.7-.515c.227-.132.459-.254.69-.38s.43-.267.659-.4a5.508,5.508,0,0,1,.891-.4" transform="translate(65.28 45.936)" fill="#f7e7cf"/>
    <path id="Trazado_222931" data-name="Trazado 222931" d="M174.157,109.772c-5.647-3.26-15.952-5.36-20.065-2.986s-.477,8.324,5.171,11.584,13.56,3.979,17.673,1.605,2.868-6.943-2.779-10.2" transform="translate(71.176 49.421)" fill="#f7e7cf"/>
    <path id="Trazado_222932" data-name="Trazado 222932" d="M170.061,110.79s3.678-1.451.032-3.477-8.211.031-8.211.031Z" transform="translate(75.64 49.726)" fill="#f7e7cf"/>
    <path id="Trazado_222933" data-name="Trazado 222933" d="M161.122,115.951a5.194,5.194,0,0,1-6.022.019c-3.507-2.1.051-4.741.051-4.741Z" transform="translate(71.749 51.972)" fill="#f7e7cf"/>
    <path id="Trazado_222934" data-name="Trazado 222934" d="M171.564,108.922c-2.054-.445-5.25-1.064-5.913-.779-.481.208-.4,2.509-2.4,3.662-2.125,1.224-6.333,1.3-6.714,1.6-.5.383.578,2.227,1.347,3.414l-.4.23c-1.34-.977-3.671-2.713-5.62-4.34-2.921-2.437-3.763-4.9.4-6.953.028-.015.116-.065.139-.081,3.564-2.4,7.825-1.916,12.046-.229,2.817,1.125,5.824,2.471,7.517,3.244Z" transform="translate(69.811 48.607)"/>
    <path id="Trazado_222935" data-name="Trazado 222935" d="M160.416,107.162c.164.4.233,2.326-.49,2.8l.007.006-.023.009-.013.013-.012,0c-.826.417-4.155.379-4.854.283a1.643,1.643,0,0,1-.11-3.009l.285-.163c1.8-1.04,5.043-.346,5.21.063" transform="translate(71.946 49.788)" fill="#f7e7cf"/>
    <path id="Trazado_222936" data-name="Trazado 222936" d="M182.444,115.763c-.216.715-2.113,2.744-4.855,4.345a26.533,26.533,0,0,1-7.948,3.048,9.256,9.256,0,0,1-5.711-1.376c-4.424-2.554-5.85-4.252-5.85-4.252,2.528,0,6.388,1.862,7.2,1.771,1.673-.185,1.976-1.824,3.5-3.193a10.985,10.985,0,0,1,1.652-.914c2.329-.816,5.018-1.007,5.331-1.944.157-.47-3.065-2.7-3.07-4.158a35.854,35.854,0,0,1,7.364,3.378c1.794,1.036,2.748,2.1,2.386,3.3" transform="translate(73.864 50.972)"/>
    <path id="Trazado_222937" data-name="Trazado 222937" d="M169.08,97.466c-.478.738-1.017,1.539-1.53,2.232-2.439,3.287-2.641,5.154-2.641,5.154,0,.035-9.044,1.051-11.568,1.332-.489,1.457-2.248,6.679-2.308,6.679a48.943,48.943,0,0,0-8.928,1.524c-1.2.3-2.585.607-3.865.883a11.458,11.458,0,0,1-7.677-1.149l-.389-.225,17.867-10.316.791-.458L166.7,92.809l.389.224c2.133,1.232,2.926,2.989,1.991,4.433" transform="translate(60.825 43.366)" fill="#a991c1"/>
    <path id="Trazado_222938" data-name="Trazado 222938" d="M26.25,123.118c0-.037,0-.075,0-.112v-3.092h1.821a7.286,7.286,0,0,1,.772-.519l38.1-22-2.166-1.25c-2.271-1.312-3.5-2.976-3.659-4.587h-.013v-.3c0-.085,0-.17,0-.255V87.951h1.818a7.189,7.189,0,0,1,.77-.518L95.251,69.214c3.853-2.224,10.648-1.943,15.1.627l10.255,5.92L152.747,94.32l19.347,11.17a10.667,10.667,0,0,1,1.548,1.08h2.135v3.853h-.009a4.464,4.464,0,0,1-2.59,3.783L96.516,158.467c-3.853,2.224-10.646,1.943-15.094-.626l-51.495-29.73c-2.32-1.34-3.552-3.045-3.664-4.688H26.25Z" transform="translate(12.265 31.639)" fill="#8bdae6"/>
    <path id="Trazado_222939" data-name="Trazado 222939" d="M28.848,116.775l38.1-22-2.164-1.25c-4.45-2.568-4.937-6.49-1.084-8.714L95.256,66.594c3.853-2.224,10.646-1.943,15.1.627l10.253,5.92L152.752,91.7,172.1,102.87c4.449,2.569,4.937,6.49,1.084,8.716l-76.663,44.26c-3.853,2.226-10.646,1.944-15.1-.625l-51.493-29.73c-4.45-2.569-4.937-6.491-1.084-8.715" transform="translate(12.265 30.415)" fill="#e6f1ff"/>
    <path id="Trazado_222940" data-name="Trazado 222940" d="M62.58,95.735l37.883-21.872,47.7,27.542-37.883,21.872Z" transform="translate(29.241 34.513)" fill="#fff"/>
    <path id="Trazado_222941" data-name="Trazado 222941" d="M112.049,103.344c-5.75,2.76-16.077,4.151-16.077,4.151a48.607,48.607,0,0,0,1.9-5.162c.411-1.681-2.466-4.261-4.559-5.468l-4.167-2.406,4.472-2.582.009,0L98.1,89.289l4.167,2.406c2.092,1.208,6.559,2.868,9.474,2.632s8.939-1.1,8.939-1.1-2.409,5.963-7.19,9.282a2.22,2.22,0,0,1-.377.276c-.1.056-.208.107-.308.161s-.183.122-.28.178a3.179,3.179,0,0,1-.477.219" transform="translate(41.655 41.721)" fill="#f7e7cf"/>
    <path id="Trazado_222942" data-name="Trazado 222942" d="M83.528,94.311c5.426,3.133,15.328,5.15,19.28,2.868s.458-8-4.97-11.131-13.028-3.824-16.981-1.542-2.756,6.672,2.67,9.8" transform="translate(36.693 38.858)" fill="#dfc8ed"/>
    <path id="Trazado_222943" data-name="Trazado 222943" d="M82.2,89.893s-3.535,1.4-.031,3.341,7.889-.028,7.889-.028Z" transform="translate(37.67 42.003)" fill="#f7e7cf"/>
    <path id="Trazado_222944" data-name="Trazado 222944" d="M90.1,85.334a4.987,4.987,0,0,1,5.785-.018c3.37,2.022-.048,4.554-.048,4.554Z" transform="translate(42.098 39.446)" fill="#dfc8ed"/>
    <path id="Trazado_222945" data-name="Trazado 222945" d="M99.662,86.892l-7.98-.43s-1.626,1.742-4.129,4.808c-2.6,3.182-.5,4.864-.5,4.864s-12.658-1.978-12.416-8.058c.172-4.29,4.158-7.611,13.6-6.334,5.76-1.849,12.683,3.428,11.426,5.15" transform="translate(34.871 38.014)"/>
    <path id="Trazado_222946" data-name="Trazado 222946" d="M93.631,113.244c-1.72-1.243-2.309-2.5-1.253-3.978s3.808-5.737,3.808-5.737c6.325,1.689,12.6-1.168,14.272-2.025,1.485-.967,6.432-4.588,3.505-8.24,0,0,7.38-1.589,9.938-2.2a10.074,10.074,0,0,1,6.89.723c2.154.993,3.7,1.718,3.7,1.718L115.977,104.2l-.857.494L96.608,115.38s-1.257-.892-2.977-2.136" transform="translate(42.918 42.409)" fill="#f9c852"/>
    <path id="Trazado_222947" data-name="Trazado 222947" d="M38.647,111.758,70.354,93.451l-2.92-1.684L35.727,110.072Z" transform="translate(16.694 42.879)" fill="#15616d"/>
    <path id="Trazado_222948" data-name="Trazado 222948" d="M42.973,114.256,74.681,95.949l-2.92-1.684L40.053,112.57Z" transform="translate(18.715 44.046)" fill="#15616d"/>
    <path id="Trazado_222949" data-name="Trazado 222949" d="M49.144,117.818,80.851,99.511l-2.92-1.684L46.224,116.133Z" transform="translate(21.598 45.71)" fill="#8bdae6"/>
    <path id="Trazado_222950" data-name="Trazado 222950" d="M53.47,120.316l31.707-18.307-2.92-1.684L50.55,118.63Z" transform="translate(23.62 46.877)" fill="#8bdae6"/>
    <path id="Trazado_222951" data-name="Trazado 222951" d="M57.8,122.814,89.5,104.507l-2.92-1.684L54.877,121.128Z" transform="translate(25.641 48.045)" fill="#8bdae6"/>
    <path id="Trazado_222952" data-name="Trazado 222952" d="M79.3,108.8l1.927,2.773-2.676,2.169,4.948.169,3.149,2.453,1.13-2.669,4.623-.653-4.248-1.818-.292-2.857L84.1,109.914Z" transform="translate(36.703 50.636)" fill="#15616d" opacity="0.73"/>
    <path id="Trazado_222953" data-name="Trazado 222953" d="M72.266,112.862l1.927,2.773L71.516,117.8l4.948.169,3.149,2.453,1.13-2.669,4.623-.653-4.248-1.818-.292-2.857-3.756,1.545Z" transform="translate(33.416 52.533)" fill="#15616d" opacity="0.73"/>
    <path id="Trazado_222954" data-name="Trazado 222954" d="M65.233,116.922l1.927,2.773-2.676,2.169,4.948.169,3.149,2.453,1.13-2.669,4.623-.653-4.248-1.818-.292-2.857-3.756,1.545Z" transform="translate(30.13 54.43)" fill="#15616d"/>
    <path id="Trazado_222955" data-name="Trazado 222955" d="M86.182,87.458c0-.037,0-.075,0-.112V84.255H88a7.285,7.285,0,0,1,.772-.519l38.1-22-2.164-1.25c-2.273-1.312-3.5-2.976-3.659-4.587h-.013v-.3c0-.085,0-.17,0-.255V52.291h1.818a7.186,7.186,0,0,1,.77-.518l31.555-18.219c3.853-2.224,10.646-1.943,15.1.627l10.255,5.92L212.679,58.66l19.347,11.17a10.568,10.568,0,0,1,1.546,1.08h2.136v3.853H235.7a4.464,4.464,0,0,1-2.59,3.783l-76.663,44.261c-3.853,2.224-10.646,1.943-15.1-.627L89.859,92.451c-2.32-1.34-3.552-3.046-3.664-4.688h-.013Z" transform="translate(40.269 14.977)" fill="#8bdae6"/>
    <path id="Trazado_222956" data-name="Trazado 222956" d="M88.779,81.006l38.1-22-2.164-1.25c-4.449-2.569-4.937-6.49-1.084-8.715l31.555-18.217c3.853-2.224,10.646-1.943,15.1.627l10.255,5.92,32.146,18.559L232.03,67.1c4.449,2.569,4.937,6.49,1.084,8.714l-76.663,44.261c-3.853,2.226-10.646,1.944-15.1-.625L89.863,89.722c-4.45-2.569-4.937-6.491-1.084-8.716" transform="translate(40.268 13.702)" fill="#e6f1ff"/>
    <path id="Trazado_222957" data-name="Trazado 222957" d="M122.485,59.981l37.883-21.872,47.7,27.542L170.188,87.523Z" transform="translate(57.232 17.807)" fill="#fff"/>
    <path id="Trazado_222958" data-name="Trazado 222958" d="M155.715,49.266l5.055.446a44.8,44.8,0,0,0,5.656,3.922c2.22,1.031,4.842.167,6.283,1,2.022,1.168.031,2.584,1.586,3.42,1.467.788,2.373.522,6.52.572,3.162.037,7.144,3.247,7.144,3.247l-13.119,7.574s-29.455-16.38-28.912-16.693,9.787-3.488,9.787-3.488" transform="translate(68.182 23.02)"/>
    <path id="Trazado_222959" data-name="Trazado 222959" d="M141.644,57.39l.773,2.918a59.892,59.892,0,0,1,6.793,3.265c1.786,1.282.289,2.8,1.73,3.629,2.022,1.166,4.475.018,5.923.916,1.365.847.905,1.369.99,3.765.066,1.825,5.627,4.124,5.627,4.124L176.6,68.432s-28.371-17.006-28.912-16.693-6.042,5.65-6.042,5.65" transform="translate(66.184 24.174)"/>
    <path id="Trazado_222960" data-name="Trazado 222960" d="M153.418,73.5c.9-1.4,2.871-4.152,2.871-4.152l9.787-5.649.786-.455,9.787-5.65s4.757-1.139,7.191-1.658c2.863-.61,8.25,2.345,8.25,2.345l-16.913,9.765-.786.455-16.913,9.765s-5.118-3.112-4.06-4.764" transform="translate(71.618 26.098)" fill="#f9c852"/>
    <path id="Trazado_222961" data-name="Trazado 222961" d="M156.336,62.443c-1.02-.59-2.039-1.222-2.942-1.8l8.12-4.688c1,.521,2.1,1.109,3.118,1.7,2.98,1.72,11.961-.1,11.961-.1s1.51,3.633-3.577,7.6a25.745,25.745,0,0,1-3.7,2.138,27.333,27.333,0,0,1-13.158,2.064s3.16-5.185.182-6.9" transform="translate(71.674 26.145)" fill="#f7e7cf"/>
    <path id="Trazado_222962" data-name="Trazado 222962" d="M147.172,60.626c5.426,3.133,15.328,5.15,19.28,2.868s.458-8-4.97-11.131S148.455,48.54,144.5,50.821s-2.755,6.672,2.67,9.8" transform="translate(66.431 23.118)" fill="#f7e7cf"/>
    <path id="Trazado_222963" data-name="Trazado 222963" d="M141.64,61.707c-2.051-1.359-3.838-2.876-4.321-4.6-.468-1.671-.183-3.854,4.182-3.849-.713-3.187,1.21-6.052,8.311-6.71,8.016-.742,16.771,4.55,19.161,8.466-6.639-1.994-13.082.64-19.476.514a4.6,4.6,0,0,1,.791,2.431,10.494,10.494,0,0,1-.458,2.914c-.361,1.5.847,4.076,4.861,5.517-4.981-.015-11.185-3.445-13.05-4.682" transform="translate(64.086 21.717)"/>
    <path id="Trazado_222964" data-name="Trazado 222964" d="M98.579,75.989l31.707-18.307L127.366,56,95.659,74.3Z" transform="translate(44.697 26.165)" fill="#a991c1"/>
    <path id="Trazado_222965" data-name="Trazado 222965" d="M102.905,78.487,134.613,60.18l-2.92-1.684L99.985,76.8Z" transform="translate(46.719 27.332)" fill="#a991c1"/>
    <path id="Trazado_222966" data-name="Trazado 222966" d="M109.076,82.049l31.707-18.307-2.92-1.684L106.156,80.363Z" transform="translate(49.602 28.997)" fill="#dfc8ed"/>
    <path id="Trazado_222967" data-name="Trazado 222967" d="M113.4,84.547,145.109,66.24l-2.92-1.684L110.482,82.861Z" transform="translate(51.623 30.164)" fill="#dfc8ed"/>
    <path id="Trazado_222968" data-name="Trazado 222968" d="M117.728,87.045l31.707-18.307-2.92-1.684L114.809,85.359Z" transform="translate(53.645 31.331)" fill="#dfc8ed"/>
    <path id="Trazado_222969" data-name="Trazado 222969" d="M139.231,73.032l1.926,2.773-2.676,2.169,4.948.169,3.149,2.453,1.13-2.669,4.623-.653-4.248-1.819-.292-2.855-3.756,1.545Z" transform="translate(64.706 33.922)" fill="#dfc8ed"/>
    <path id="Trazado_222970" data-name="Trazado 222970" d="M132.2,77.093l1.926,2.773-2.676,2.169,4.946.169,3.15,2.453,1.13-2.669,4.623-.653-4.248-1.818-.292-2.857L137,78.2Z" transform="translate(61.42 35.82)" fill="#a991c1"/>
    <path id="Trazado_222971" data-name="Trazado 222971" d="M125.165,81.153l1.926,2.773-2.676,2.169,4.948.169,3.149,2.453,1.13-2.669,4.623-.653-4.248-1.818-.292-2.857-3.756,1.545Z" transform="translate(58.134 37.717)" fill="#a991c1"/>
    <path id="Trazado_222972" data-name="Trazado 222972" d="M221.173,103.656l-2.981-.585L141.912,59.03c-3.853-2.224-10.646-1.943-15.1.627L75.322,89.386a10.9,10.9,0,0,0-1.353.924l-2.33.789v3.247h.009A4.476,4.476,0,0,0,74.239,98.1l38.1,22-2.164,1.25a10.548,10.548,0,0,0-1.486,1.024l-2.179.508v3.166c-.1,1.5.741,2.954,2.581,4.016l31.555,18.219c3.853,2.224,10.645,1.943,15.1-.627L166,141.736l32.146-18.559,19.349-11.17c2.418-1.4,3.656-3.193,3.673-4.9h.01Z" transform="translate(33.474 26.881)" fill="#8bdae6"/>
    <path id="Trazado_222973" data-name="Trazado 222973" d="M74.238,95.834l38.1,22-2.164,1.25c-4.449,2.569-4.937,6.49-1.084,8.715l31.555,18.217c3.854,2.224,10.646,1.943,15.1-.626L166,139.469l32.146-18.559,19.347-11.17c4.449-2.569,4.939-6.49,1.084-8.715l-76.661-44.26c-3.854-2.226-10.648-1.944-15.1.625L75.322,87.119c-4.45,2.569-4.937,6.491-1.084,8.716" transform="translate(33.473 25.822)" fill="#e6f1ff"/>
    <path id="Trazado_222974" data-name="Trazado 222974" d="M107.971,103.233,145.854,125.1l47.7-27.54L155.675,75.691Z" transform="translate(50.45 35.367)" fill="#fff"/>
    <path id="Trazado_222975" data-name="Trazado 222975" d="M157.44,85.685c-5.75-2.758-16.077-4.151-16.077-4.151a48.61,48.61,0,0,1,1.9,5.162c.411,1.681-2.466,4.261-4.559,5.468l-4.167,2.406,4.472,2.582.009.006,4.472,2.581,4.167-2.406c2.092-1.208,6.559-2.868,9.474-2.632s8.939,1.1,8.939,1.1-2.409-5.963-7.19-9.282a2.22,2.22,0,0,0-.377-.276c-.1-.056-.208-.107-.308-.161s-.183-.122-.28-.178a3.183,3.183,0,0,0-.477-.219" transform="translate(62.864 38.097)" fill="#f7e7cf"/>
    <path id="Trazado_222976" data-name="Trazado 222976" d="M128.919,93.7c5.426-3.133,15.328-5.15,19.28-2.868s.458,8-4.97,11.131-13.028,3.824-16.981,1.542-2.756-6.672,2.67-9.8" transform="translate(57.902 41.982)" fill="#f7e7cf"/>
    <path id="Trazado_222977" data-name="Trazado 222977" d="M127.59,94.675s-3.535-1.4-.031-3.341,7.888.029,7.888.029Z" transform="translate(58.879 42.276)" fill="#f7e7cf"/>
    <path id="Trazado_222978" data-name="Trazado 222978" d="M135.488,99.633a4.989,4.989,0,0,0,5.787.018c3.369-2.022-.05-4.554-.05-4.554Z" transform="translate(63.308 44.434)" fill="#f7e7cf"/>
    <path id="Trazado_222979" data-name="Trazado 222979" d="M145.053,101.045l-7.98.43s-1.626-1.742-4.129-4.808c-2.6-3.182-.5-4.864-.5-4.864s-12.658,1.978-12.416,8.058c.172,4.29,4.158,7.611,13.6,6.334,5.76,1.849,12.683-3.428,11.425-5.15" transform="translate(56.08 42.896)"/>
    <path id="Trazado_222980" data-name="Trazado 222980" d="M139.022,77.827c-1.72,1.244-2.309,2.5-1.253,3.979s3.808,5.736,3.808,5.736c6.325-1.689,12.6,1.168,14.272,2.025,1.483.967,6.432,4.588,3.505,8.24,0,0,7.379,1.589,9.938,2.2a10.074,10.074,0,0,0,6.89-.723c2.154-.993,3.7-1.718,3.7-1.718L161.368,86.874l-.857-.494L142,75.691s-1.257.892-2.977,2.136" transform="translate(64.127 35.367)" fill="#f9c852"/>
    <path id="Trazado_222981" data-name="Trazado 222981" d="M84.038,77.839l31.707,18.307-2.92,1.684L81.118,79.525Z" transform="translate(37.903 36.371)" fill="#15616d"/>
    <path id="Trazado_222982" data-name="Trazado 222982" d="M88.364,75.342l31.707,18.307-2.92,1.684L85.445,77.027Z" transform="translate(39.924 35.204)" fill="#15616d"/>
    <path id="Trazado_222983" data-name="Trazado 222983" d="M94.535,71.779l31.707,18.307-2.92,1.684L91.615,73.465Z" transform="translate(42.808 33.539)" fill="#8bdae6"/>
    <path id="Trazado_222984" data-name="Trazado 222984" d="M98.861,69.281l31.707,18.307-2.92,1.684L95.941,70.967Z" transform="translate(44.829 32.372)" fill="#dfc8ed"/>
    <path id="Trazado_222985" data-name="Trazado 222985" d="M103.188,66.783,134.895,85.09l-2.92,1.684L100.268,68.469Z" transform="translate(46.851 31.205)" fill="#dfc8ed"/>
    <path id="Trazado_222986" data-name="Trazado 222986" d="M124.69,76.976l1.926-2.773-2.676-2.169,4.946-.169,3.15-2.453,1.13,2.669,4.623.653-4.248,1.818-.292,2.857-3.756-1.545Z" transform="translate(57.912 32.433)" fill="#15616d" opacity="0.73"/>
    <path id="Trazado_222987" data-name="Trazado 222987" d="M117.657,72.916l1.926-2.773-2.676-2.169,4.948-.169L125,65.352l1.13,2.67,4.623.651-4.248,1.819-.292,2.855L122.461,71.8Z" transform="translate(54.626 30.536)" fill="#15616d"/>
    <path id="Trazado_222988" data-name="Trazado 222988" d="M110.624,68.855l1.926-2.773-2.676-2.169,4.946-.169,3.15-2.453,1.13,2.669,4.623.653-4.248,1.818-.292,2.857-3.756-1.545Z" transform="translate(51.339 28.639)" fill="#a991c1"/>
    <path id="Trazado_222989" data-name="Trazado 222989" d="M115.534,79.827s3.326,3.388,4.136,4.568.521,2.71-1.4,4.46-3.121.494-4.678-1.213-5.69-4.94-6.5-6.287,8.441-1.527,8.441-1.527" transform="translate(50.016 37.3)" fill="#723f3f"/>
    <path id="Trazado_222990" data-name="Trazado 222990" d="M134.452,70.477s5.331,4.852,7.2,11.358a14.279,14.279,0,0,1-.054,9.429c-.471,1.406-3.524,3.75-7.391,3.75-4.9-.464-3.263-3.121-6.221-4.827-3.872-2.233-6.424-5.941-9.047-7.128-2.337-1.056-5.113,1.758-8.974,1.486-3.143-.22-7.793-2.811-9.448-4.149a13.394,13.394,0,0,1-3.969-5.121c-.9-1.847-1.824-3.331-1.177-4.995.715-1.837,1.451-3.268,3.686-3.744,8.638-1.847,19.724-.808,19.724-.808s14,3.683,15.67,4.75" transform="translate(44.461 30.576)" fill="#5e2e2e"/>
    <path id="Trazado_222991" data-name="Trazado 222991" d="M114.414,44.837s-3.8-.426-7.16,6.384c-1.976,4.006-3.249,8.437-5.149,11.264-3.072,1.158-4.46,1.186-5.9,2.226,1.57,2.365,3.85,5.3,4.237,8.206,6.292-2.271,9.86-3.824,10.68-7.812,3.482-7.509,4.211-18.832,4.211-18.832Z" transform="translate(44.95 20.948)" fill="#6464e2"/>
    <path id="Trazado_222992" data-name="Trazado 222992" d="M128.175,79.448s-5.628.367-8.745.455-5.678.009-5.678.009-4.513-4.352-6.792-6.393-4.487-3.611-4.487-3.611,6.061,1.683,7.2,2.568c.8-1.827,2.157-4.452,2.157-4.452l10.811,3.14a40.985,40.985,0,0,0-3.906,2.553c-1.285,1.136-.709,2.05-.709,2.05s7.329,1.853,10.153,3.681" transform="translate(47.881 31.785)" fill="#5e2e2e"/>
    <path id="Trazado_222993" data-name="Trazado 222993" d="M110.656,44.994s-2.343.913-4.958,10.174c-.855,3.027.527,12.388.555,19.3a5.029,5.029,0,0,0-2.01,1.752s4.013,8.716,15.791,7.041a53.288,53.288,0,0,1,12.469-.314s.351-1.266-1.178-3.375c-1.228-1.7.6-1.971.471-2.832-.17-1.156-.863-1.407-1.325-3.212-1.752-6.839-.654-17.008-2.154-20.662-1.187-2.89-7.294-5.1-7.294-5.1s-5.2-4.8-10.366-2.773" transform="translate(48.708 20.79)" fill="#7b78ef"/>
    <path id="Trazado_222994" data-name="Trazado 222994" d="M110.214,46.832l-.333,4.854a13.048,13.048,0,0,0,2.279,2.346c1.753-.547,5.824-4.323,5.824-4.323l-1.356-7.536Z" transform="translate(51.343 19.706)" fill="#f9b4af"/>
    <path id="Trazado_222995" data-name="Trazado 222995" d="M120.116,38.661a6.38,6.38,0,0,0-10.4-1.588c-4.678,4.371-2.836,13.172.609,13.778a9.813,9.813,0,0,0,7.571-2.926c2.615-2.672,3.2-7.185,2.218-9.264" transform="translate(49.954 16.369)" fill="#ffd0ca"/>
    <path id="Trazado_222996" data-name="Trazado 222996" d="M110.9,46.628l.434,3.934-3.2,1.3s-.367-4.2,2.761-5.238" transform="translate(50.524 21.787)" fill="#fbf3ff"/>
    <path id="Trazado_222997" data-name="Trazado 222997" d="M117.5,46.251a8.917,8.917,0,0,1-3.287,3.143,21.932,21.932,0,0,1-3.9,1.344l1.2,3.609a29.83,29.83,0,0,0,5.675-3.024s2.48-2.94.305-5.072" transform="translate(51.546 21.611)" fill="#fbf3ff"/>
    <path id="Trazado_222998" data-name="Trazado 222998" d="M113.961,76.8l-9.2-15.933a6.9,6.9,0,0,0-2.732-2.481l-8.523-4.934c-.4-.175-.687-.188-.848-.082l-.007-.009-.864.506.72.654.208-.2c.022.04.035.075.059.116l9.2,15.933a6.891,6.891,0,0,0,2.732,2.481l8.042,4.656.426.892.91-.522,0-.009c.216-.145.2-.516-.117-1.064" transform="translate(42.888 24.906)" fill="#844f4f"/>
    <path id="Trazado_222999" data-name="Trazado 222999" d="M91.943,54.781l9.2,15.933a6.9,6.9,0,0,0,2.732,2.481l8.523,4.934c.952.412,1.282-.029.732-.982l-9.2-15.933a6.891,6.891,0,0,0-2.732-2.481L92.675,53.8c-.952-.412-1.282.029-.732.982" transform="translate(42.836 25.066)" fill="#723f3f"/>
    <path id="Trazado_223000" data-name="Trazado 223000" d="M111.37,67.86a8.234,8.234,0,0,0-4.265-1.723c.038.2,1.13,1.954,1.13,1.954s-4.769-1.626-6.688-1.067c-1.611.468-1.053,2.714,2.7,5.1,1.049.668,3.582,1.444,7.33,1.592,1.671.066,6.174-.443,6.174-.443V69.259s-5.019-.518-6.383-1.4" transform="translate(47.051 30.903)" fill="#ffd0ca"/>
    <path id="Trazado_223001" data-name="Trazado 223001" d="M111.133,77.465c1.131-.151.943,2.079.943,4.174,5.65.993,13.236-.619,16.4-4.452,1.193-1.447,2.484-1.784,2.641-3.8.433-5.589-1.1-12.554-1.8-15.628-1.69-7.414-3.639-8.284-6.666-9.349-1.6.519-5.152,2.468-4.063,8.444,1.36,7.468,1.8,9.794,3.15,13.474-2.685,1.152-6.3,2.51-7.58,3.571-1.935,1.6-3.025,2.433-3.025,3.562" transform="translate(51.928 22.621)" fill="#6464e2"/>
    <path id="Trazado_223002" data-name="Trazado 223002" d="M119.51,36.324c-2.174-4.324-7.259-3.9-9.831-.829-2.478,2.958-2.373,2.965-4.264,4.067,4.182,4.4,9.543,2.205,11.45,1.523-.913,2.657.245,5.185.606,5.146.578-1.114,1.149-1.274,1.613-.643.524.715-.068,2.858-.068,2.858a8.189,8.189,0,0,0,3.762-5.134c.5-2.223.748-5.736-3.269-6.989" transform="translate(49.256 15.482)" fill="#5e2e2e"/>
    <path id="Trazado_223003" data-name="Trazado 223003" d="M110.289,76.419s-3.758-1.137-5.577-1.827a4.646,4.646,0,0,0-3.954.324,36.214,36.214,0,0,0-5.736.967c-2.114.684-2.879,1.884-3.392,4.342-.464,2.217,5.078,2.559,8.016,2.317s6.541,1.26,8.517.5,2.126-6.62,2.126-6.62" transform="translate(42.802 34.714)" fill="#723f3f"/>
    <path id="Trazado_223004" data-name="Trazado 223004" d="M131.821,79.963s-6.9-1.667-11.942-2.559-11.989-2.965-14.611-3.112a8.688,8.688,0,0,0-4.29,5.322c-.656,2.154.794,5.234.794,5.234s10.771.713,14.872,2.211,12.026,4.154,14.922,3.816c3.744-1.519.255-10.912.255-10.912" transform="translate(47.103 34.713)" fill="#5e2e2e"/>
    <path id="Trazado_223005" data-name="Trazado 223005" d="M110.258,68.511l2.521-1.693s1.255.562,1.605,2.792a11.112,11.112,0,0,1,0,3.793l-3.505-.208a9.572,9.572,0,0,0-.621-4.683" transform="translate(51.519 31.221)" fill="#fff"/>
    <path id="Trazado_223006" data-name="Trazado 223006" d="M94.917,59.488c-1.007.493-.106,4.849,1.925,6.208,1.708,1.14,3.8-.28,2.51-2.706s-4.436-3.5-4.436-3.5" transform="translate(44.157 27.796)" fill="#ffd0ca"/>
    <path id="Trazado_223007" data-name="Trazado 223007" d="M29.242,110.07c-3.372,2.876-1.435,9-1.435,9s9.794,1.043,10.354-1.551a20.311,20.311,0,0,0-.279-6.647s-5.269-3.681-8.641-.8" transform="translate(12.734 50.917)" fill="#c8eef3"/>
    <path id="Trazado_223008" data-name="Trazado 223008" d="M39.489,127.557s6,2.647,11.257,5.13a10.345,10.345,0,0,1,7.011,5.936l-5.824,3.448s-12.083-2.227-13.34-6.41a11.609,11.609,0,0,1,.9-8.1" transform="translate(17.848 59.602)" fill="#5e2e2e"/>
    <path id="Trazado_223009" data-name="Trazado 223009" d="M44.569,134.407s-.954-2.8,3.244-2.974,6.27.643,8.875-.638,3.4-.167,4.188,1.651-.226,6.242-2.885,6.246-13.566-.657-13.422-4.284" transform="translate(20.781 60.857)" fill="#f3e0fc"/>
    <path id="Trazado_223010" data-name="Trazado 223010" d="M58.465,132.064c-2.609.041-8.156.3-11.971.644-1.736.158-5.521.246-5.521.246s-5.822,2.27-3.9,4.886,6.513,6.013,10.47,5.58,14.09-5.58,14.09-5.58l4.591-2.692s-4.917-3.128-7.759-3.084" transform="translate(17.14 61.708)" fill="#5e2e2e"/>
    <path id="Trazado_223011" data-name="Trazado 223011" d="M55.264,133.081a40.258,40.258,0,0,0-6.946.527,48.771,48.771,0,0,1-7.153.88l1.6,3.435s.628,1.108,5.22,0a13.874,13.874,0,0,0,7.282-4.842" transform="translate(19.235 62.183)" fill="#5e2e2e"/>
    <path id="Trazado_223012" data-name="Trazado 223012" d="M61.624,135.4c-3.053.847-7.652,1.973-11.791,2.957C46.109,127.3,31.87,128.132,31.87,128.132s-1.86,7.132-3.382,11.669c-2.772,8.259,1.118,11.773,5.19,14.031,2.26,1.252,4.324,3.91,12.313,2.7s20.188-6.82,22.6-9.679c2.813-3.337,5.247-7.784,1.9-9.854a15.07,15.07,0,0,0-1.8-.961,10.258,10.258,0,0,0-7.063-.632" transform="translate(12.874 59.864)" fill="#5e2e2e"/>
    <path id="Trazado_223013" data-name="Trazado 223013" d="M38.513,99.1a5.52,5.52,0,0,0-7.872,2.692c-.967,2.044.4,7.542.616,11.4a9.392,9.392,0,0,1-.869,4.911l2.67,1.1a8.063,8.063,0,0,0,5.454,0l-.087-4.748A13.132,13.132,0,0,0,41.3,114.2c1.142-.477,2.38-1.941,1.667-7.562-.8-6.344-3.684-7.006-4.456-7.542" transform="translate(14.157 45.945)" fill="#ffd0ca"/>
    <path id="Trazado_223014" data-name="Trazado 223014" d="M34.441,97.614c-2.645.879-5.843,1.564-5.832,7.766.007,4.716,2.8,6.284,4.5,10.454a20.423,20.423,0,0,0,7.267-6.343c1.592-1.665,3.379-2.314,3.583-4.493a7.1,7.1,0,0,0-9.521-7.385" transform="translate(13.368 45.407)" fill="#723f3f"/>
    <path id="Trazado_223015" data-name="Trazado 223015" d="M36.212,105.038a2.9,2.9,0,0,0,1.648,3.546l.737-3.546s-1.668-2.857-2.384,0" transform="translate(16.864 48.487)" fill="#ffd0ca"/>
    <path id="Trazado_223016" data-name="Trazado 223016" d="M32.242,97.708l-1.748,5.766s3.407-.263,3.5-2.883-1.748-2.883-1.748-2.883" transform="translate(14.249 45.655)" fill="#c8eef3"/>
    <path id="Trazado_223017" data-name="Trazado 223017" d="M28.14,97.145c-2.122,4.229,1.73,5.178-.286,8.591-1.343,2.276-4.606,2.465-4.606,2.465s1.753,3.766,6.4,1.582c4.262-2,7.144-6.921,6.315-11.125s-6.4-4.358-7.825-1.513" transform="translate(10.863 44.492)" fill="#5e2e2e"/>
    <path id="Trazado_223018" data-name="Trazado 223018" d="M39.294,111.961c-2.412-.672-6.187-.4-7.046-1.227-1.937.9-2.873,2.261-4.014,4.458s-.848,5.837.869,12.451c1.394,5.375,1.771,8.286,1.743,11.412,0,.37-.5,2.5-.555,2.945,3.564,3.888,12.252,4.163,17.055.4,0-2.1-1.287-10.284.092-14.5,2.283-6.972-4.091-13.535-4.091-13.535a8.366,8.366,0,0,0-4.054-2.4" transform="translate(12.874 51.741)" fill="#8bdae6"/>
    <path id="Trazado_223019" data-name="Trazado 223019" d="M37.352,111.585a13.887,13.887,0,0,1-6.928-1.692l-.389,1.985a9.255,9.255,0,0,0,5.6,2.057,40.4,40.4,0,0,0,4.967-.5,3.607,3.607,0,0,0-3.25-1.855" transform="translate(14.034 51.348)" fill="#fff"/>
    <path id="Trazado_223020" data-name="Trazado 223020" d="M40.544,124.518c-1.008-1.444-2.066-2.852-3.058-4.308,2.066-2.917,7.034-5.232,8.366-6.82,1.52-1.811,2.791-1.84,4.166-.307s-.28,2.754-.9,3.074c-.395.2-1.372.012-2.532.362-.788.238-2.552,2.241-5.153,6.815a9.122,9.122,0,0,1-.888,1.183" transform="translate(17.516 52.323)" fill="#ffd0ca"/>
    <path id="Trazado_223021" data-name="Trazado 223021" d="M60.53,110.926l-11.037-6.372a1.449,1.449,0,0,0-1.375-.112l-.817.449-.034.792c0,.013-.007.023-.009.037l-4.064,23.048a3.374,3.374,0,0,0,1.45,3.293l11.035,6.372c.041.023.082.034.123.054l-.01,0,.591.43.775-.43v-.007a1.7,1.7,0,0,0,.756-1.218L61.98,114.22a3.379,3.379,0,0,0-1.45-3.294" transform="translate(20.163 48.743)" fill="#512626"/>
    <path id="Trazado_223022" data-name="Trazado 223022" d="M55.147,138.729l-11.038-6.372a3.381,3.381,0,0,1-1.45-3.293l4.066-23.048a1.442,1.442,0,0,1,2.235-1.166L60,111.223a3.379,3.379,0,0,1,1.448,3.293l-4.063,23.048a1.443,1.443,0,0,1-2.236,1.166" transform="translate(19.914 48.88)" fill="#723f3f"/>
    <path id="Trazado_223023" data-name="Trazado 223023" d="M55.653,137.173,43.4,130.1l4.349-24.662L60,112.511Z" transform="translate(20.281 49.267)" fill="#fff"/>
    <path id="Trazado_223024" data-name="Trazado 223024" d="M49.225,113.4l-3.018-1.743.924-5.245,3.018,1.742Z" transform="translate(21.59 49.722)" fill="#dfc8ed"/>
    <path id="Trazado_223025" data-name="Trazado 223025" d="M52.99,124.424l-3.018-1.743.924-5.245,3.018,1.742Z" transform="translate(23.35 54.873)" fill="#dfc8ed"/>
    <path id="Trazado_223026" data-name="Trazado 223026" d="M50.949,108.764l-.126.716,4.647,2.682.126-.716Z" transform="translate(23.747 50.821)" fill="#dfc8ed"/>
    <path id="Trazado_223027" data-name="Trazado 223027" d="M50.78,109.722l-.126.716L55.3,113.12l.126-.716Z" transform="translate(23.669 51.268)" fill="#dfc8ed"/>
    <path id="Trazado_223028" data-name="Trazado 223028" d="M50.611,110.68l-.126.716,4.647,2.682.126-.716Z" transform="translate(23.59 51.716)" fill="#dfc8ed"/>
    <path id="Trazado_223029" data-name="Trazado 223029" d="M50.443,111.638l-.126.716,4.645,2.682.128-.716Z" transform="translate(23.511 52.164)" fill="#dfc8ed"/>
    <path id="Trazado_223030" data-name="Trazado 223030" d="M46.15,110.536l-.126.716,10.621,6.132.126-.716Z" transform="translate(21.505 51.648)" fill="#dfc8ed"/>
    <path id="Trazado_223031" data-name="Trazado 223031" d="M45.981,111.494l-.126.716,10.621,6.132.126-.716Z" transform="translate(21.426 52.096)" fill="#dfc8ed"/>
    <path id="Trazado_223032" data-name="Trazado 223032" d="M45.812,112.452l-.126.716L56.308,119.3l.126-.716Z" transform="translate(21.347 52.544)" fill="#dfc8ed"/>
    <path id="Trazado_223033" data-name="Trazado 223033" d="M45.643,113.41l-.126.716,10.621,6.132.126-.716Z" transform="translate(21.268 52.991)" fill="#dfc8ed"/>
    <path id="Trazado_223034" data-name="Trazado 223034" d="M44.734,118.567l-.126.716,10.621,6.132.126-.716Z" transform="translate(20.843 55.401)" fill="#dfc8ed"/>
    <path id="Trazado_223035" data-name="Trazado 223035" d="M44.565,119.524l-.126.716,10.621,6.132.126-.716Z" transform="translate(20.764 55.848)" fill="#dfc8ed"/>
    <path id="Trazado_223036" data-name="Trazado 223036" d="M44.4,120.482l-.126.716,10.621,6.132.126-.716Z" transform="translate(20.686 56.296)" fill="#dfc8ed"/>
    <path id="Trazado_223037" data-name="Trazado 223037" d="M44.227,121.44l-.126.716,10.621,6.132.126-.716Z" transform="translate(20.607 56.744)" fill="#dfc8ed"/>
    <path id="Trazado_223038" data-name="Trazado 223038" d="M52.4,118.57l-6.961-4.019-.126.716,6.961,4.019Z" transform="translate(21.174 53.525)" fill="#dfc8ed"/>
    <path id="Trazado_223039" data-name="Trazado 223039" d="M52.234,119.528l-6.961-4.019-.126.716,6.961,4.019Z" transform="translate(21.095 53.972)" fill="#dfc8ed"/>
    <path id="Trazado_223040" data-name="Trazado 223040" d="M52.065,120.486,45.1,116.467l-.126.716,6.961,4.019Z" transform="translate(21.016 54.42)" fill="#dfc8ed"/>
    <path id="Trazado_223041" data-name="Trazado 223041" d="M51.9,121.444l-6.961-4.019-.126.716,6.961,4.019Z" transform="translate(20.937 54.867)" fill="#dfc8ed"/>
    <path id="Trazado_223042" data-name="Trazado 223042" d="M50.577,105.006l1.282-.757.693.417-.85,1.274Z" transform="translate(23.632 48.711)" fill="#dfc8ed"/>
    <path id="Trazado_223043" data-name="Trazado 223043" d="M55.055,107.511c-.515-.3-1.011-1.008-.974-1.216s.365-.54.189-1.067a1.724,1.724,0,0,0-.762-.832s-.574-.364-.888-.12-.151.861-.188,1.068-.668.267-1.183-.029l-1.023-.591-1.282.757.748,2.268,4.556,2.629.662-1.076.867.5.3-1.7Z" transform="translate(22.87 48.684)" fill="#dfc8ed"/>
    <path id="Trazado_223044" data-name="Trazado 223044" d="M53.943,108.027c-.515-.3-1.011-1.008-.974-1.216s.365-.54.189-1.067a1.724,1.724,0,0,0-.762-.832s-.574-.364-.888-.12-.151.861-.188,1.068-.668.267-1.183-.029l-1.023-.591-.534,3.025,5.851,3.378.533-3.024Z" transform="translate(22.7 48.925)" fill="#cfb8e0"/>
    <path id="Trazado_223045" data-name="Trazado 223045" d="M53.851,108.423l.233.135.3-1.7-1.282.757-.533,3.025.213-.126.282-1.657Z" transform="translate(24.564 49.929)" fill="#b89fce"/>
    <path id="Trazado_223046" data-name="Trazado 223046" d="M52.909,108.725l-3.219-1.859a.48.48,0,0,1-.207-.468.205.205,0,0,1,.318-.166l3.219,1.859a.48.48,0,0,1,.207.468.205.205,0,0,1-.318.166" transform="translate(23.118 49.621)" fill="#b89fce"/>
    <path id="Trazado_223047" data-name="Trazado 223047" d="M48.1,130.306s4.62-4.827,5.254-6.01a8.607,8.607,0,0,0,.751-3.488c.164-1.369-1-3.276-.455-3.634,1.417-.927,1.532,1.8,2.059,2.508s1.737.462,1.737.462a24.287,24.287,0,0,1,1.677-3.891c1.384,1.271,1.124,2.194.417,4.254a18.947,18.947,0,0,1-2.819,4.735c-.872,1.09-1.869,4.284-3.4,6.793s-2.034,4.317-4.221,4.38a4.031,4.031,0,0,1-2.717-3.574c-.072-1.237,1.712-2.534,1.712-2.534" transform="translate(21.675 54.32)" fill="#ffd0ca"/>
    <path id="Trazado_223048" data-name="Trazado 223048" d="M43.154,115.064l.051-1.3a30.269,30.269,0,0,1,3.122-2.255c1.039-.56,1.649-.442,1.307.635-.269.842-1.256,1.284-1.8,1.513s-1.281,2.949-2.015,2.811-.663-1.406-.663-1.406" transform="translate(20.163 51.95)" fill="#ffd0ca"/>
    <path id="Trazado_223049" data-name="Trazado 223049" d="M46.66,120.267l6.51,7.333s.772,6.94-1.552,6.939c-1.723,0-4.267-2.233-6.4-4.882s-4.2-4.75-4.2-4.75Z" transform="translate(19.165 56.195)" fill="#ffd0ca"/>
    <path id="Trazado_223050" data-name="Trazado 223050" d="M45.255,115.153c-2.43-2.434-5.747-2.422-7.454-.163-2.123,2.81-2.075,6.468-.913,7.847a25.8,25.8,0,0,0,6.892,5.583l5.466-3.587s-1.635-7.319-3.991-9.679" transform="translate(16.864 52.945)" fill="#c8eef3"/>
    <path id="Trazado_223051" data-name="Trazado 223051" d="M47.966,121.784l-1.237-1.99a8.812,8.812,0,0,1-2.39,3.09A23.986,23.986,0,0,1,40.681,125l1.711,1.422a11.308,11.308,0,0,0,3.759-2.352,21.6,21.6,0,0,0,1.815-2.29" transform="translate(19.008 55.974)" fill="#fff"/>
    <path id="Trazado_223052" data-name="Trazado 223052" d="M207.41,54.361c1.008-1.444,2.066-2.852,3.058-4.308-2.066-2.917-7.034-5.232-8.366-6.82-1.52-1.811-2.791-1.84-4.166-.307s.28,2.754.9,3.074c.395.2,1.372.012,2.532.362.788.238,2.552,2.241,5.153,6.815a9.122,9.122,0,0,0,.888,1.183" transform="translate(92.238 19.542)" fill="#ffd0ca"/>
    <path id="Trazado_223053" data-name="Trazado 223053" d="M189.273,40.769,200.308,34.4a1.452,1.452,0,0,1,1.376-.112l.816.449.034.792a.347.347,0,0,0,.01.037l4.063,23.048a3.372,3.372,0,0,1-1.45,3.293l-11.034,6.372c-.041.023-.082.034-.123.054l.009,0-.591.43-.775-.43v-.007a1.713,1.713,0,0,1-.756-1.216l-4.064-23.048a3.377,3.377,0,0,1,1.451-3.294" transform="translate(87.742 15.961)" fill="#512626"/>
    <path id="Trazado_223054" data-name="Trazado 223054" d="M194.656,68.572,205.693,62.2a3.38,3.38,0,0,0,1.45-3.293L203.078,35.86a1.443,1.443,0,0,0-2.236-1.166l-11.037,6.372a3.377,3.377,0,0,0-1.448,3.293l4.063,23.048a1.443,1.443,0,0,0,2.236,1.166" transform="translate(87.992 16.099)" fill="#723f3f"/>
    <path id="Trazado_223055" data-name="Trazado 223055" d="M193.427,67.016l12.249-7.072-4.349-24.662-12.249,7.072Z" transform="translate(88.348 16.486)" fill="#fff"/>
    <path id="Trazado_223056" data-name="Trazado 223056" d="M195.825,43.245l3.018-1.743-.924-5.245L194.9,38Z" transform="translate(91.068 16.941)" fill="#dfc8ed"/>
    <path id="Trazado_223057" data-name="Trazado 223057" d="M192.059,54.267l3.018-1.743-.924-5.245-3.018,1.743Z" transform="translate(89.309 22.091)" fill="#dfc8ed"/>
    <path id="Trazado_223058" data-name="Trazado 223058" d="M194.365,38.607l.126.716-4.647,2.682-.126-.716Z" transform="translate(88.647 18.039)" fill="#dfc8ed"/>
    <path id="Trazado_223059" data-name="Trazado 223059" d="M194.533,39.565l.126.716-4.647,2.682-.126-.716Z" transform="translate(88.726 18.487)" fill="#dfc8ed"/>
    <path id="Trazado_223060" data-name="Trazado 223060" d="M194.7,40.523l.126.716-4.647,2.682-.126-.716Z" transform="translate(88.805 18.935)" fill="#dfc8ed"/>
    <path id="Trazado_223061" data-name="Trazado 223061" d="M194.871,41.481,195,42.2l-4.647,2.682-.125-.716Z" transform="translate(88.884 19.382)" fill="#dfc8ed"/>
    <path id="Trazado_223062" data-name="Trazado 223062" d="M201.066,40.379l.126.716-10.621,6.132-.126-.716Z" transform="translate(88.986 18.867)" fill="#dfc8ed"/>
    <path id="Trazado_223063" data-name="Trazado 223063" d="M201.235,41.337l.126.716L190.74,48.184l-.126-.716Z" transform="translate(89.065 19.315)" fill="#dfc8ed"/>
    <path id="Trazado_223064" data-name="Trazado 223064" d="M201.4,42.295l.126.716-10.621,6.132-.126-.716Z" transform="translate(89.144 19.762)" fill="#dfc8ed"/>
    <path id="Trazado_223065" data-name="Trazado 223065" d="M201.573,43.253l.126.716L191.078,50.1l-.126-.716Z" transform="translate(89.223 20.21)" fill="#dfc8ed"/>
    <path id="Trazado_223066" data-name="Trazado 223066" d="M202.482,48.41l.126.716-10.621,6.132-.126-.716Z" transform="translate(89.648 22.62)" fill="#dfc8ed"/>
    <path id="Trazado_223067" data-name="Trazado 223067" d="M202.651,49.368l.126.716-10.621,6.132-.126-.716Z" transform="translate(89.727 23.067)" fill="#dfc8ed"/>
    <path id="Trazado_223068" data-name="Trazado 223068" d="M202.82,50.325l.126.716-10.621,6.132-.126-.716Z" transform="translate(89.806 23.515)" fill="#dfc8ed"/>
    <path id="Trazado_223069" data-name="Trazado 223069" d="M202.989,51.283l.126.716-10.621,6.132-.126-.716Z" transform="translate(89.885 23.962)" fill="#dfc8ed"/>
    <path id="Trazado_223070" data-name="Trazado 223070" d="M193.648,48.413l6.961-4.019.126.716-6.961,4.019Z" transform="translate(90.483 20.743)" fill="#dfc8ed"/>
    <path id="Trazado_223071" data-name="Trazado 223071" d="M193.817,49.371l6.961-4.019.126.716-6.961,4.019Z" transform="translate(90.562 21.191)" fill="#dfc8ed"/>
    <path id="Trazado_223072" data-name="Trazado 223072" d="M193.986,50.329l6.961-4.019.126.716-6.961,4.019Z" transform="translate(90.641 21.639)" fill="#dfc8ed"/>
    <path id="Trazado_223073" data-name="Trazado 223073" d="M194.155,51.287l6.961-4.019.126.716L194.281,52Z" transform="translate(90.72 22.086)" fill="#dfc8ed"/>
    <path id="Trazado_223074" data-name="Trazado 223074" d="M193.846,34.849l-1.282-.757-.693.417.848,1.274Z" transform="translate(89.653 15.93)" fill="#dfc8ed"/>
    <path id="Trazado_223075" data-name="Trazado 223075" d="M191.01,37.354c.515-.3,1.011-1.008.974-1.216s-.365-.54-.189-1.067a1.724,1.724,0,0,1,.762-.832s.574-.364.888-.12.151.861.188,1.068.668.267,1.183-.029l1.023-.591,1.282.757-.748,2.268-4.556,2.629-.662-1.076-.867.5-.3-1.7Z" transform="translate(88.773 15.903)" fill="#dfc8ed"/>
    <path id="Trazado_223076" data-name="Trazado 223076" d="M191.884,37.87c.515-.3,1.011-1.008.974-1.216s-.365-.54-.189-1.067a1.724,1.724,0,0,1,.762-.832s.574-.364.888-.12.151.861.188,1.068.668.267,1.183-.029l1.023-.591.534,3.025-5.851,3.378-.533-3.024Z" transform="translate(89.181 16.144)" fill="#cfb8e0"/>
    <path id="Trazado_223077" data-name="Trazado 223077" d="M190.521,38.266l-.233.135-.3-1.7,1.282.757.533,3.025-.213-.126-.282-1.657Z" transform="translate(88.773 17.148)" fill="#b89fce"/>
    <path id="Trazado_223078" data-name="Trazado 223078" d="M192.08,38.568l3.219-1.859a.481.481,0,0,0,.207-.468.205.205,0,0,0-.318-.166l-3.219,1.859a.48.48,0,0,0-.207.468.205.205,0,0,0,.318.166" transform="translate(89.599 16.84)" fill="#b89fce"/>
    <path id="Trazado_223079" data-name="Trazado 223079" d="M208.584,59.667s-5.872,4.047-9.914,6.8a47.25,47.25,0,0,1-5.348,3.357l5.348,3.166s11.094-2.045,12.249-5.887-2.334-7.44-2.334-7.44" transform="translate(90.331 27.88)" fill="#5e2e2e"/>
    <path id="Trazado_223080" data-name="Trazado 223080" d="M195.591,63.806c2.4.037,7.489.273,10.991.591,1.595.145,5.071.226,5.071.226s5.345,2.085,3.582,4.485-5.981,5.523-9.615,5.125-12.938-5.125-12.938-5.125l-4.215-2.471s4.516-2.873,7.125-2.832" transform="translate(88.062 29.814)" fill="#5e2e2e"/>
    <path id="Trazado_223081" data-name="Trazado 223081" d="M216.169,44.871c2.626,2.468,3.97,8.987-.3,12.714s-5.847-12.074-5.847-12.074c1.62-.773,2.983-3.611,6.146-.64" transform="translate(98.135 20.347)" fill="#f79826"/>
    <path id="Trazado_223082" data-name="Trazado 223082" d="M207.523,32.585a5.307,5.307,0,0,1,7.568,2.59c.932,1.965-.384,7.251-.591,10.963a9.04,9.04,0,0,0,.835,4.722l-2.568,1.059a7.755,7.755,0,0,1-5.244,0l.084-4.566a5.883,5.883,0,0,1-2.383-.522c-1.165-1.067-2.525-2.9-1.985-6.993.8-6.1,3.542-6.738,4.284-7.253" transform="translate(94.908 14.88)" fill="#ffd0ca"/>
    <path id="Trazado_223083" data-name="Trazado 223083" d="M194.014,64.739a36.9,36.9,0,0,1,6.378.484,44.852,44.852,0,0,0,6.567.808l-1.466,3.153s-.577,1.017-4.792,0a12.737,12.737,0,0,1-6.688-4.446" transform="translate(90.654 30.25)" fill="#5e2e2e"/>
    <path id="Trazado_223084" data-name="Trazado 223084" d="M197.081,64.845c6.24,1.731,19.509,4.73,19.509,4.73s9.52-4.855,10.918-.691c2.544,7.584-1.027,10.811-4.766,12.884-2.075,1.15-3.97,3.59-11.305,2.475s-18.537-6.261-20.751-8.889c-2.582-3.062-4.818-7.146-1.745-9.047a13.873,13.873,0,0,1,1.654-.882,9.411,9.411,0,0,1,6.487-.581" transform="translate(87.588 30.144)" fill="#5e2e2e"/>
    <path id="Trazado_223085" data-name="Trazado 223085" d="M201.639,59.631c-1.514-3.235-.458-8.815.506-10.925s6.427-3.686,6.427-3.686l7.9-.933s4.736,1.532,4.736,8.623c0,4.284-.709,7.624-1.382,13-.188,1.5-.725,5.031,1.8,11.509a8.527,8.527,0,0,1,.368,1.431c-1.282,3.583-8.359,7.181-11.678,7.126a12.656,12.656,0,0,1-6.892-1.89c-1.949-1.385-2.723-2.167-1.833-5.868.279-1.156,3.146-11.778.048-18.389" transform="translate(93.862 20.6)" fill="#fab234"/>
    <path id="Trazado_223086" data-name="Trazado 223086" d="M206.8,44.139a7.619,7.619,0,0,0,4.978,0l2.635-.943.875,1.868s-.395,1.285-3,2.116a9.489,9.489,0,0,1-7.536-.594c-.018-1.69,2.051-2.446,2.051-2.446" transform="translate(95.672 20.184)" fill="#f79826"/>
    <path id="Trazado_223087" data-name="Trazado 223087" d="M211.538,30.407c3.606,0,6.8,2.618,6.8,10.467,0,1.605-1.483,4.327-2.866,5.744A5.1,5.1,0,0,0,213.8,49.07c-2.8-.327-5.436-4.733-6.968-6.336s-3.369-2.756-4.406-4.541c-.145-1.561-.018-4.782,2.76-4.911,1.122-1.367,2.1-2.876,6.355-2.876" transform="translate(94.565 14.208)" fill="#5e2e2e"/>
    <path id="Trazado_223088" data-name="Trazado 223088" d="M206.585,38.3A2.793,2.793,0,0,1,205,41.708l-.709-3.41s1.6-2.747,2.293,0" transform="translate(95.457 17.324)" fill="#ffd0ca"/>
    <path id="Trazado_223089" data-name="Trazado 223089" d="M206.512,48.425a4.626,4.626,0,0,0-3.8,1.388c-1.416,1.549-7,8.212-8.038,9.445-.062,1.579,1.208,3.931,2.295,5.345,3.14-.327,7.144-5.191,8.762-7.536,1.931-2.8,5.112-5.108.781-8.642" transform="translate(90.961 22.615)" fill="#ffd0ca"/>
    <path id="Trazado_223090" data-name="Trazado 223090" d="M203.156,62.175c2.351-2.888,4.967-5.794,5.771-9.3.954-4.161-.515-5.612-.515-5.612-2.453-1.778-5.592-1.4-8.4,2.954-.945,1.467-2.185,3.356-3.334,5.232a10.609,10.609,0,0,0,6.474,6.73" transform="translate(91.901 21.616)" fill="#f79826"/>
    <path id="Trazado_223091" data-name="Trazado 223091" d="M217.917,51.665c-1.122-3.072-5.423-5.581-5.567-8.821a2.288,2.288,0,0,1,.23-1,19.185,19.185,0,0,1-3.535,1.165c1.122,1.373.926,8.168,3.3,13.064,2.644,5.445,1.1,6.438,1.1,6.438s7.536-2.433,4.462-10.844" transform="translate(97.678 19.551)" fill="#5e2e2e"/>
    <path id="Trazado_223092" data-name="Trazado 223092" d="M213.4,40.934s.07,2.475-.318,2.892a4.454,4.454,0,0,1-3.2.919,3.683,3.683,0,0,1-1.6-2.106,14.405,14.405,0,0,0,5.125-1.7" transform="translate(97.32 19.127)" fill="#fab234"/>
    <path id="Trazado_223093" data-name="Trazado 223093" d="M200.064,60.149s-4.62-4.827-5.254-6.008a8.619,8.619,0,0,1-.751-3.489c-.166-1.369,1-3.276.455-3.634-1.417-.927-1.532,1.8-2.059,2.508s-1.737.462-1.737.462A24.344,24.344,0,0,0,189.04,46.1c-1.384,1.271-1.124,2.194-.417,4.254a18.939,18.939,0,0,0,2.819,4.736c.872,1.09,1.869,4.283,3.4,6.792s1.68,3.837,3.866,3.9,2.7-.663,2.769-1.9-1.409-3.731-1.409-3.731" transform="translate(87.866 21.539)" fill="#ffd0ca"/>
    <path id="Trazado_223094" data-name="Trazado 223094" d="M202.1,44.907l-.053-1.3a30.2,30.2,0,0,0-3.121-2.255c-1.039-.56-1.649-.442-1.307.635.268.842,1.256,1.284,1.8,1.513s1.281,2.949,2.015,2.811.663-1.406.663-1.406" transform="translate(92.293 19.168)" fill="#ffd0ca"/>
    <path id="Trazado_223095" data-name="Trazado 223095" d="M14.491,70.4c-1.008-1.444-2.066-2.852-3.058-4.308,2.066-2.917,7.034-5.232,8.366-6.82,1.52-1.811,2.791-1.84,4.166-.307s-.28,2.754-.9,3.074c-.395.2-1.372.012-2.532.362-.788.238-2.552,2.241-5.153,6.815a9.12,9.12,0,0,1-.888,1.183" transform="translate(5.342 27.035)" fill="#ffd0ca"/>
    <path id="Trazado_223096" data-name="Trazado 223096" d="M34.477,56.8,23.44,50.432a1.449,1.449,0,0,0-1.375-.112l-.817.449-.034.792c0,.013-.007.023-.009.037L17.141,74.646a3.372,3.372,0,0,0,1.45,3.293l11.035,6.372c.041.023.082.034.123.054l-.01,0,.591.43.775-.43v-.007a1.708,1.708,0,0,0,.756-1.218L35.927,60.1a3.379,3.379,0,0,0-1.45-3.294" transform="translate(7.99 23.454)" fill="#512626"/>
    <path id="Trazado_223097" data-name="Trazado 223097" d="M29.092,84.608,18.056,78.236a3.378,3.378,0,0,1-1.45-3.293L20.67,51.9a1.443,1.443,0,0,1,2.236-1.166L33.943,57.1a3.38,3.38,0,0,1,1.45,3.293L31.329,83.442a1.443,1.443,0,0,1-2.236,1.166" transform="translate(7.74 23.592)" fill="#723f3f"/>
    <path id="Trazado_223098" data-name="Trazado 223098" d="M29.6,83.052,17.351,75.979,21.7,51.318,33.948,58.39Z" transform="translate(8.107 23.979)" fill="#fff"/>
    <path id="Trazado_223099" data-name="Trazado 223099" d="M23.171,59.281l-3.018-1.743.924-5.245,3.02,1.742Z" transform="translate(9.417 24.434)" fill="#dfc8ed"/>
    <path id="Trazado_223100" data-name="Trazado 223100" d="M26.937,70.3,23.919,68.56l.924-5.245,3.018,1.743Z" transform="translate(11.176 29.584)" fill="#dfc8ed"/>
    <path id="Trazado_223101" data-name="Trazado 223101" d="M24.9,54.643l-.126.716,4.645,2.682.126-.716Z" transform="translate(11.574 25.532)" fill="#dfc8ed"/>
    <path id="Trazado_223102" data-name="Trazado 223102" d="M24.727,55.6l-.126.716L29.246,59l.126-.716Z" transform="translate(11.495 25.98)" fill="#dfc8ed"/>
    <path id="Trazado_223103" data-name="Trazado 223103" d="M24.558,56.559l-.126.716,4.645,2.682.126-.716Z" transform="translate(11.416 26.428)" fill="#dfc8ed"/>
    <path id="Trazado_223104" data-name="Trazado 223104" d="M24.389,57.517l-.126.716,4.645,2.682.126-.716Z" transform="translate(11.337 26.875)" fill="#dfc8ed"/>
    <path id="Trazado_223105" data-name="Trazado 223105" d="M20.1,56.415l-.126.716,10.621,6.132.126-.716Z" transform="translate(9.331 26.36)" fill="#dfc8ed"/>
    <path id="Trazado_223106" data-name="Trazado 223106" d="M19.928,57.373l-.126.716L30.423,64.22l.126-.716Z" transform="translate(9.252 26.808)" fill="#dfc8ed"/>
    <path id="Trazado_223107" data-name="Trazado 223107" d="M19.759,58.331l-.126.716,10.621,6.132.126-.716Z" transform="translate(9.173 27.255)" fill="#dfc8ed"/>
    <path id="Trazado_223108" data-name="Trazado 223108" d="M19.59,59.289,19.464,60l10.621,6.132.126-.716Z" transform="translate(9.095 27.703)" fill="#dfc8ed"/>
    <path id="Trazado_223109" data-name="Trazado 223109" d="M18.681,64.446l-.126.716,10.621,6.132.126-.716Z" transform="translate(8.67 30.113)" fill="#dfc8ed"/>
    <path id="Trazado_223110" data-name="Trazado 223110" d="M18.512,65.4l-.126.716,10.621,6.132.126-.716Z" transform="translate(8.591 30.56)" fill="#dfc8ed"/>
    <path id="Trazado_223111" data-name="Trazado 223111" d="M18.343,66.361l-.126.716,10.621,6.132.126-.716Z" transform="translate(8.512 31.008)" fill="#dfc8ed"/>
    <path id="Trazado_223112" data-name="Trazado 223112" d="M18.174,67.319l-.126.716,10.621,6.132.126-.716Z" transform="translate(8.433 31.455)" fill="#dfc8ed"/>
    <path id="Trazado_223113" data-name="Trazado 223113" d="M26.349,64.449,19.389,60.43l-.126.716,6.961,4.019Z" transform="translate(9 28.236)" fill="#dfc8ed"/>
    <path id="Trazado_223114" data-name="Trazado 223114" d="M26.18,65.407,19.22,61.388l-.126.716,6.961,4.019Z" transform="translate(8.922 28.684)" fill="#dfc8ed"/>
    <path id="Trazado_223115" data-name="Trazado 223115" d="M26.011,66.365l-6.961-4.019-.126.716,6.961,4.019Z" transform="translate(8.843 29.131)" fill="#dfc8ed"/>
    <path id="Trazado_223116" data-name="Trazado 223116" d="M25.842,67.323,18.882,63.3l-.126.716,6.961,4.019Z" transform="translate(8.764 29.579)" fill="#dfc8ed"/>
    <path id="Trazado_223117" data-name="Trazado 223117" d="M24.524,50.885l1.282-.757.693.417-.848,1.274Z" transform="translate(11.459 23.423)" fill="#dfc8ed"/>
    <path id="Trazado_223118" data-name="Trazado 223118" d="M29,53.39c-.515-.3-1.011-1.008-.974-1.215s.365-.541.189-1.068a1.724,1.724,0,0,0-.762-.832s-.574-.364-.888-.12-.151.861-.188,1.068-.668.267-1.183-.029L24.174,50.6l-1.282.757.748,2.268L28.2,56.257l.66-1.075.869.5.3-1.7Z" transform="translate(10.696 23.396)" fill="#dfc8ed"/>
    <path id="Trazado_223119" data-name="Trazado 223119" d="M27.889,53.906c-.515-.3-1.011-1.008-.974-1.216s.365-.54.189-1.067a1.724,1.724,0,0,0-.762-.832s-.574-.364-.888-.12-.151.86-.188,1.068-.668.267-1.183-.029l-1.023-.591-.534,3.025,5.851,3.378.533-3.025Z" transform="translate(10.526 23.637)" fill="#cfb8e0"/>
    <path id="Trazado_223120" data-name="Trazado 223120" d="M27.8,54.3l.233.135.3-1.7-1.282.757-.533,3.025.213-.126.282-1.657Z" transform="translate(12.39 24.641)" fill="#b89fce"/>
    <path id="Trazado_223121" data-name="Trazado 223121" d="M26.856,54.6l-3.219-1.859a.481.481,0,0,1-.207-.468.205.205,0,0,1,.318-.166l3.219,1.859a.477.477,0,0,1,.207.468.205.205,0,0,1-.318.166" transform="translate(10.945 24.333)" fill="#b89fce"/>
    <path id="Trazado_223122" data-name="Trazado 223122" d="M21.952,76.185s4.62-4.827,5.254-6.01a8.606,8.606,0,0,0,.751-3.488c.166-1.369-1-3.276-.455-3.634,1.417-.927,1.532,1.8,2.059,2.508s1.737.462,1.737.462a24.287,24.287,0,0,1,1.677-3.891c1.384,1.271,1.124,2.194.417,4.254a18.947,18.947,0,0,1-2.819,4.735c-.872,1.09-1.869,4.284-3.4,6.793s-1.68,3.837-3.868,3.9-2.7-.662-2.767-1.9,1.409-3.73,1.409-3.73" transform="translate(9.598 29.032)" fill="#ffd0ca"/>
    <path id="Trazado_223123" data-name="Trazado 223123" d="M17.1,60.943l.053-1.3a30.2,30.2,0,0,1,3.121-2.255c1.039-.56,1.649-.442,1.307.635-.269.842-1.256,1.284-1.8,1.513s-1.281,2.949-2.015,2.811-.663-1.406-.663-1.406" transform="translate(7.989 26.661)" fill="#ffd0ca"/>
    <path id="Trazado_223124" data-name="Trazado 223124" d="M26.118,81.2c.313-.719-.078-1.359.148-2.106a17.64,17.64,0,0,0,.621-5.108c-1.965-2.1-10.224-10.79-12.194-10.535-1.536.2-1.718,3.174-.784,6.559.722,2.613,4.455,6.716,7.911,9.471h0a24.737,24.737,0,0,0,4.3,1.717" transform="translate(6.232 29.644)" fill="#ffd0ca"/>
    <path id="Trazado_223125" data-name="Trazado 223125" d="M3.8,89.742s.654-.39,1.323-.82c.851-.547,2.314.474,1.478,1.021-.817.536-1.232.81-1.232.81Z" transform="translate(1.773 41.476)" fill="#e4e6ea"/>
    <path id="Trazado_223126" data-name="Trazado 223126" d="M14.35,116.76c-1.081-.676-6.554,2.512-6.554,2.512l-7.06,2.37v5.049s2.769,3.681,6.493,1.172c2.22-1.5,6.114-3.824,7.352-6.366s.85-4.06-.232-4.736" transform="translate(0.343 54.513)" fill="#723f3f"/>
    <path id="Trazado_223127" data-name="Trazado 223127" d="M25.986,122.421c-1.083-.676-6.556,2.512-6.556,2.512l-7.553,2.537.578,5.69a4.874,4.874,0,0,0,6.409.365c2.218-1.5,6.114-3.825,7.352-6.368s.85-4.06-.23-4.736" transform="translate(5.55 57.158)" fill="#723f3f"/>
    <path id="Trazado_223128" data-name="Trazado 223128" d="M4.956,79.452A38.946,38.946,0,0,0,1.367,92.646c-.244,3.247,1.541,21.5,1.541,21.5a41.475,41.475,0,0,0-1.488,7C.59,126.951.016,141.477,0,140.93c0,0,1.877,2.559,4.4,2.6,3.058.056,5.442-3.664,5.442-3.664s3.381-20.054,3.582-25.162c.125-3.2-.288-14.712-.288-14.712s3.276,15.265,3.025,19.162.5,26.838.707,28.443c.65,2.336,2.552,2.992,4.593,3.445,2.584.575,5.975-4.218,5.975-4.218s-.2-26.038,0-30.135c.34-6.993-3.077-34.39-3.077-34.39Z" transform="translate(0 37.124)" fill="#7b78ef"/>
    <path id="Trazado_223129" data-name="Trazado 223129" d="M9.73,70.37c.326-.258-1.033-4.59-1.033-4.59l1.083-9.759s-5.278.241-6.736,4.092c-.541,1.431-1.235,7.732.779,11.82A6.776,6.776,0,0,0,9.73,70.37" transform="translate(1.156 26.177)" fill="#f79826"/>
    <path id="Trazado_223130" data-name="Trazado 223130" d="M14.092,46.887A5.424,5.424,0,0,0,6.36,49.531c-.948,2.009.395,7.407.606,11.2a9.215,9.215,0,0,1-.854,4.823l2.623,1.081a7.919,7.919,0,0,0,5.357,0l-.087-4.663s2.823-.42,3.319-.873c1.188-1.09,1.818-4.334,1.266-8.517-.82-6.227-3.742-5.166-4.5-5.693" transform="translate(2.815 21.556)" fill="#ffd0ca"/>
    <path id="Trazado_223131" data-name="Trazado 223131" d="M23.34,76.507c1.475-3.423-.594-9.458-1.6-11.66s-5.634-3.586-5.634-3.586L6.471,58.35A15.442,15.442,0,0,0,1.5,71.676c.292,3.118.289,14.94-.067,23.588.844,3.357,11.285,5.6,15.667,4.422,1.357-.364,5.806-.913,7.22-3.608.411-1.837-.649-3.382-1.15-6.818-.634-4.34-.732-10.652.172-12.752" transform="translate(0.663 27.264)" fill="#fab234"/>
    <path id="Trazado_223132" data-name="Trazado 223132" d="M14.417,60.329a50.349,50.349,0,0,1-7.6-2.64c-1.542-.792-2.48,2.64-2.48,2.64a10.641,10.641,0,0,0,4.482,3.1c2.665.848,5.039.134,7.662-1.161.016-1.725-2.061-1.944-2.061-1.944" transform="translate(2.025 26.9)" fill="#f79826"/>
    <path id="Trazado_223133" data-name="Trazado 223133" d="M25.505,70.525c-3.021-3.6-6.409-8.162-10.134-8.983-2.5-.552-4.154,4.233-2.684,7.977A25.647,25.647,0,0,0,17.8,77.7c3.131-.817,6.909-3.973,7.709-7.179" transform="translate(5.67 28.736)" fill="#f79826"/>
    <path id="Trazado_223134" data-name="Trazado 223134" d="M9.03,45.376a1.612,1.612,0,0,0-2.33,1.26c-.882-.387-1.794.7-1.5,1.457-1.213-.129-1.605,1.3-.867,2.258-1.454.571-1.224,1.68-.446,2.648-1.042.869-1.042,2.041.288,2.475a1.074,1.074,0,0,0,.4,1.969A1.16,1.16,0,0,0,5.378,59.4a1.569,1.569,0,0,0,.779,2.5c-.216.993.392,1.814,1.219,1.643a1.377,1.377,0,0,0,2.6.409c.669.428,1.792.421,1.971-.638,1.081.569,2.406-1.313,1.808-2.283,1.3-.738,1.7-1.269.916-2.311,1.6-.12,1.957-1.012,1.385-2.205.916.4,1.557.175,1.924-1.252a1.45,1.45,0,0,0,1.159-2.4,1.121,1.121,0,0,0,.348-2.083c.911-.261,1.259-2.3-.263-2.4.7-1.639-.172-2.248-1.321-2-.023-1.328-.852-1.937-2.242-1.143-.691-1.271-3.146-2.009-3.552-.446a1.711,1.711,0,0,0-3.081.583" transform="translate(1.467 20.517)" fill="#5e2e2e"/>
  </g>
</svg>
