<svg xmlns="http://www.w3.org/2000/svg" width="151.338" height="159.525" viewBox="0 0 151.338 159.525">
  <g id="Grupo_159085" data-name="Grupo 159085" transform="translate(-17.693 -11.909)">
    <g id="Grupo_159086" data-name="Grupo 159086" transform="translate(0 -0.235)">
      <path id="Trazado_226275" data-name="Trazado 226275" d="M297.911,74.527l-9.46,9.514,9.46,9.471c0-.695-.005-1.531,0-2.367.016-2.212.257-2.47,2.423-2.476,4.12-.011,8.24,0,12.359,0h2.486V79.7c-.587-.035-1.068-.088-1.549-.089-4.489-.006-8.978-.043-13.466.016-1.666.022-2.39-.624-2.266-2.294.067-.9.012-1.811.012-2.8" transform="translate(-146.15 -37.435)" fill="#3c2e61"/>
      <path id="Trazado_226276" data-name="Trazado 226276" d="M43.092,183.437c-5.653.044-7.228.044-7.228-5.207q0-74.512,0-149.024c0-3.3.67-5.25,3.882-5.247q58.144.049,116.287,0c4.414,0,5.769,1.332,5.77,5.68,0,7.014.045,14.029-.051,21.042a5.17,5.17,0,0,1-1.155,2.861,35.828,35.828,0,0,1-3.484,3.554,1.712,1.712,0,0,0-.011,2.838c1.282,1.241,2.6,2.459,3.755,3.81a3.763,3.763,0,0,1,.909,2.226q.065,56.3.033,112.6c0,3.3-1.672,4.914-5.052,4.915q-40.609.008-81.217,0c-1.216,0-27.062-.014-32.436-.036M97.571,41.283H92.956q-21.968,0-43.936.01A5.876,5.876,0,0,0,42.985,47a6.051,6.051,0,0,0,5.731,6.074c.612.044,1.23.021,1.845.021h59.074c11.814,0,23.63.031,35.444-.041a9.061,9.061,0,0,0,4.036-.955,5.653,5.653,0,0,0,2.6-6.526,5.95,5.95,0,0,0-5.967-4.29q-24.091-.015-48.182,0m-.116,22.156H54.442c-1.969,0-3.941-.063-5.907.024a5.8,5.8,0,0,0-5.327,7.266c.751,2.9,3.066,4.523,6.546,4.524q47.721.007,95.441,0c.369,0,.74.008,1.107-.021a5.917,5.917,0,0,0,5.567-6.523c-.242-3.055-2.828-5.266-6.233-5.268q-24.091-.014-48.182,0m-.049,21.417H50.36c-.615,0-1.234-.034-1.844.027a3.7,3.7,0,0,0-3.277,3.24A3.561,3.561,0,0,0,47.586,91.9a8.11,8.11,0,0,0,2.531.332q47.322.024,94.643,0a8.243,8.243,0,0,0,2.706-.374A3.484,3.484,0,0,0,149.644,88a3.562,3.562,0,0,0-3.166-3.1,16.866,16.866,0,0,0-1.843-.036H97.405M82.685,99.627H53.729c-1.6,0-3.2-.035-4.8.014a3.7,3.7,0,0,0-3.723,3.571,3.785,3.785,0,0,0,3.379,3.755,12.451,12.451,0,0,0,1.658.046q32.461,0,64.921-.016a8.337,8.337,0,0,0,2.877-.428,3.639,3.639,0,0,0-1.058-6.9,12.377,12.377,0,0,0-1.842-.043q-16.23,0-32.461,0m43.8,17.725c-6.331,0-12.663-.008-18.994.012a6.639,6.639,0,0,0-2.165.273A3.552,3.552,0,0,0,103.1,121.8c.347,1.794,1.872,2.926,4.125,2.929q19.086.024,38.172,0c2.7,0,4.3-1.464,4.271-3.767s-1.6-3.606-4.375-3.61q-9.405-.013-18.81,0m-57.794,0c-6.394,0-12.789-.024-19.182.027a5.213,5.213,0,0,0-2.609.633A3.3,3.3,0,0,0,45.4,122c.52,1.8,1.862,2.731,4.09,2.734q19.09.022,38.179,0c2.6,0,4.349-1.6,4.3-3.8-.052-2.153-1.724-3.572-4.277-3.577q-9.5-.017-19,0m-.11,50.95H86.854c.431,0,.961.153,1.271-.041a11.692,11.692,0,0,0,1.614-1.444,14.4,14.4,0,0,0-1.595-1.439c-.254-.173-.719-.039-1.088-.039H50.14c-.431,0-.963-.145-1.269.054-.551.358-1.34.932-1.333,1.4.008.5.76,1.1,1.318,1.442.362.221.959.062,1.451.062q9.137,0,18.273,0m.183-35.073c-6.336,0-12.672.009-19.007-.008-1.119,0-2.289.055-2.27,1.471.018,1.369,1.168,1.5,2.3,1.5q18.823-.013,37.646,0c1.131,0,2.273-.141,2.267-1.525-.006-1.418-1.181-1.452-2.293-1.449-6.213.017-12.425.008-18.638.008m-.029,10.709H53.417A36.359,36.359,0,0,0,49,144c-.56.069-1.038.808-1.554,1.242a11,11,0,0,0,1.472,1.595c.279.209.835.056,1.265.056q18.454,0,36.908,0c1.192,0,2.61.1,2.6-1.55-.01-1.548-1.373-1.417-2.5-1.416q-9.227.01-18.454,0M68.6,154.647c-6.274,0-12.549.009-18.823-.008-1.112,0-2.293.035-2.292,1.45,0,1.37,1.143,1.525,2.276,1.524q18.823-.013,37.646,0c1.125,0,2.276-.121,2.288-1.5.012-1.418-1.152-1.474-2.271-1.47-6.275.018-12.549.008-18.823.008M126.431,168.3q9.126,0,18.253,0c.551,0,1.214.139,1.624-.114.493-.3,1.074-.968,1.054-1.454-.019-.468-.681-1.053-1.2-1.315a3.934,3.934,0,0,0-1.636-.077q-15.672,0-31.344,0c-2.089,0-4.186-.093-6.264.069-.584.045-1.11.841-1.663,1.293a12.808,12.808,0,0,0,1.652,1.564c.3.2.837.038,1.267.038h18.253m-.093-35.072q-9.4,0-18.8,0c-1.086,0-2.265-.033-2.244,1.469.02,1.452,1.176,1.5,2.271,1.5q18.8,0,37.606,0c1.108,0,2.252-.077,2.247-1.52,0-1.483-1.187-1.446-2.274-1.445q-9.4.012-18.8,0m.018,10.709q-9.4,0-18.8,0c-1.079,0-2.267-.051-2.262,1.451.005,1.451,1.153,1.513,2.254,1.513q18.8,0,37.606,0c1.1,0,2.255-.059,2.265-1.5.01-1.483-1.164-1.465-2.257-1.463q-9.4.013-18.8,0m0,10.709q-9.4,0-18.8,0c-1.081,0-2.267-.046-2.258,1.455.009,1.452,1.159,1.509,2.258,1.508q18.8,0,37.606,0c1.1,0,2.254-.064,2.26-1.507.006-1.483-1.17-1.46-2.26-1.459q-9.4.013-18.8,0" transform="translate(-18.171 -11.812)" fill="#fdd6e4"/>
      <path id="Trazado_226277" data-name="Trazado 226277" d="M297.911,74.527c0,.991.055,1.9-.012,2.8-.124,1.67.6,2.316,2.266,2.294,4.488-.059,8.978-.022,13.466-.016.48,0,.961.054,1.549.089v8.971h-2.486c-4.12,0-8.24-.007-12.359,0-2.166.006-2.406.264-2.423,2.476-.006.836,0,1.672,0,2.367l-9.46-9.471,9.46-9.514" transform="translate(-146.15 -37.435)" fill="#f5739c"/>
      <path id="Trazado_226278" data-name="Trazado 226278" d="M104.881,59.076q24.091,0,48.182,0a5.95,5.95,0,0,1,5.967,4.29,5.652,5.652,0,0,1-2.6,6.525,9.059,9.059,0,0,1-4.036.955c-11.814.072-23.629.041-35.444.041H57.872c-.615,0-1.233.023-1.846-.021A6.051,6.051,0,0,1,50.3,64.8a5.877,5.877,0,0,1,6.035-5.713q21.968-.032,43.936-.01h4.615" transform="translate(-25.481 -29.604)" fill="#0189ee"/>
      <path id="Trazado_226279" data-name="Trazado 226279" d="M104.8,103.969q24.091,0,48.182,0c3.405,0,5.991,2.213,6.233,5.268a5.917,5.917,0,0,1-5.567,6.524c-.368.03-.738.021-1.108.021q-47.72,0-95.44,0c-3.481,0-5.8-1.62-6.546-4.524a5.8,5.8,0,0,1,5.327-7.266c1.965-.088,3.937-.024,5.906-.024H104.8" transform="translate(-25.521 -52.341)" fill="#0189ee"/>
      <path id="Trazado_226280" data-name="Trazado 226280" d="M107.007,147.4q23.615,0,47.229,0a16.872,16.872,0,0,1,1.843.036,3.562,3.562,0,0,1,3.166,3.1,3.483,3.483,0,0,1-2.178,3.856,8.231,8.231,0,0,1-2.706.375q-47.321.027-94.643,0a8.109,8.109,0,0,1-2.531-.332,3.561,3.561,0,0,1-2.345-3.773,3.7,3.7,0,0,1,3.277-3.24c.609-.061,1.228-.027,1.844-.027h47.045" transform="translate(-27.773 -74.351)" fill="#3b2d61"/>
      <path id="Trazado_226281" data-name="Trazado 226281" d="M92.285,177.333q16.23,0,32.461,0a12.306,12.306,0,0,1,1.842.043,3.639,3.639,0,0,1,1.059,6.9,8.339,8.339,0,0,1-2.877.429q-32.461.033-64.922.015a12.365,12.365,0,0,1-1.657-.046,3.785,3.785,0,0,1-3.379-3.755,3.7,3.7,0,0,1,3.723-3.571c1.6-.048,3.2-.013,4.8-.014H92.285" transform="translate(-27.77 -89.517)" fill="#3b2d61"/>
      <path id="Trazado_226282" data-name="Trazado 226282" d="M195.459,213.273q9.4,0,18.81,0c2.779,0,4.349,1.313,4.375,3.609s-1.576,3.764-4.271,3.768q-19.087.025-38.172,0c-2.254,0-3.778-1.135-4.125-2.929a3.552,3.552,0,0,1,2.225-4.166,6.638,6.638,0,0,1,2.165-.273c6.331-.02,12.662-.011,18.994-.011" transform="translate(-87.146 -107.732)" fill="#3c2d61"/>
      <path id="Trazado_226283" data-name="Trazado 226283" d="M78.3,213.269q9.5,0,19,0c2.553,0,4.224,1.423,4.277,3.577.054,2.2-1.7,3.795-4.3,3.8q-19.09.027-38.179,0c-2.228,0-3.57-.937-4.09-2.734a3.3,3.3,0,0,1,1.5-3.986,5.223,5.223,0,0,1,2.609-.633c6.394-.051,12.788-.027,19.182-.027" transform="translate(-27.786 -107.728)" fill="#3c2d61"/>
      <path id="Trazado_226284" data-name="Trazado 226284" d="M80.57,313.456q-9.137,0-18.273,0c-.492,0-1.09.159-1.451-.062-.558-.341-1.31-.941-1.318-1.442-.007-.473.783-1.046,1.333-1.4.306-.2.839-.054,1.269-.054H99.046c.369,0,.834-.134,1.088.039a14.314,14.314,0,0,1,1.595,1.439,11.73,11.73,0,0,1-1.614,1.444c-.31.194-.84.041-1.271.041H80.57" transform="translate(-30.161 -156.965)" fill="#3f3163"/>
      <path id="Trazado_226285" data-name="Trazado 226285" d="M80.7,245.448c6.213,0,12.426.009,18.638-.008,1.113,0,2.287.032,2.293,1.449.006,1.384-1.137,1.525-2.267,1.525q-18.823-.013-37.646,0c-1.128,0-2.278-.134-2.3-1.5-.019-1.416,1.151-1.474,2.27-1.471,6.336.017,12.672.008,19.008.008" transform="translate(-30.107 -124.031)" fill="#3e2f62"/>
      <path id="Trazado_226286" data-name="Trazado 226286" d="M80.626,267.129q9.227,0,18.454,0c1.125,0,2.488-.132,2.5,1.416.01,1.647-1.407,1.55-2.6,1.55q-18.454,0-36.908,0c-.431,0-.986.153-1.265-.056a10.95,10.95,0,0,1-1.472-1.6c.516-.434.993-1.173,1.553-1.242a36.375,36.375,0,0,1,4.422-.066H80.626" transform="translate(-30.063 -135.003)" fill="#3e2f62"/>
      <path id="Trazado_226287" data-name="Trazado 226287" d="M80.535,288.863c6.274,0,12.549.01,18.823-.008,1.119,0,2.284.052,2.272,1.471-.012,1.383-1.163,1.5-2.288,1.5q-18.823-.013-37.646,0c-1.133,0-2.275-.153-2.276-1.523,0-1.416,1.18-1.453,2.292-1.45,6.274.017,12.549.008,18.823.008" transform="translate(-30.106 -146.028)" fill="#3e2f62"/>
      <path id="Trazado_226288" data-name="Trazado 226288" d="M197.7,313.459H179.45c-.43,0-.972.162-1.267-.038a12.909,12.909,0,0,1-1.652-1.564c.553-.452,1.078-1.248,1.663-1.294,2.077-.161,4.175-.068,6.264-.069q15.672,0,31.344,0a3.923,3.923,0,0,1,1.635.076c.517.262,1.179.847,1.2,1.315.02.485-.562,1.15-1.055,1.454-.41.252-1.072.113-1.624.114q-9.126.007-18.253,0" transform="translate(-89.442 -156.969)" fill="#3f3063"/>
      <path id="Trazado_226289" data-name="Trazado 226289" d="M197.643,245.454q9.4,0,18.8,0c1.087,0,2.269-.038,2.274,1.445,0,1.443-1.14,1.521-2.247,1.52q-18.8-.005-37.606,0c-1.095,0-2.251-.043-2.271-1.5-.021-1.5,1.159-1.47,2.244-1.469q9.4.009,18.8,0" transform="translate(-89.476 -124.036)" fill="#3d2f62"/>
      <path id="Trazado_226290" data-name="Trazado 226290" d="M197.66,267.162q9.4,0,18.8,0c1.092,0,2.266-.02,2.256,1.463-.01,1.444-1.162,1.5-2.264,1.5q-18.8-.005-37.606,0c-1.1,0-2.249-.061-2.254-1.513-.005-1.5,1.183-1.452,2.262-1.451q9.4.007,18.8,0" transform="translate(-89.475 -135.035)" fill="#3d2f62"/>
      <path id="Trazado_226291" data-name="Trazado 226291" d="M197.656,288.869q9.4,0,18.8,0c1.091,0,2.267-.025,2.26,1.459-.006,1.443-1.157,1.508-2.26,1.507q-18.8-.006-37.606,0c-1.1,0-2.249-.057-2.258-1.508-.009-1.5,1.177-1.456,2.258-1.456q9.4.008,18.8,0" transform="translate(-89.475 -146.034)" fill="#3d2f62"/>
    </g>
  </g>
</svg>
