<svg xmlns="http://www.w3.org/2000/svg" xmlns:xlink="http://www.w3.org/1999/xlink" width="259.74" height="271.258" viewBox="0 0 259.74 271.258">
  <defs>
    <clipPath id="clip-path">
      <rect id="Rectángulo_48090" data-name="Rectángulo 48090" width="187.877" height="211.691" fill="none"/>
    </clipPath>
    <clipPath id="clip-path-3">
      <rect id="Rectángulo_48127" data-name="Rectángulo 48127" width="32.205" height="41.633" transform="matrix(0.908, -0.419, 0.419, 0.908, 0, 13.508)" fill="none"/>
    </clipPath>
  </defs>
  <g id="Grupo_159097" data-name="Grupo 159097" transform="translate(89.465) rotate(25)">
    <g id="Grupo_159098" data-name="Grupo 159098">
      <rect id="Rectángulo_48091" data-name="Rectángulo 48091" width="125.377" height="168.446" transform="translate(0 58.777) rotate(-24.798)" fill="#fff4e9"/>
      <g id="Grupo_159093" data-name="Grupo 159093">
        <g id="Grupo_159092" data-name="Grupo 159092" clip-path="url(#clip-path)">
          <path id="Trazado_226292" data-name="Trazado 226292" d="M51.389,132.639a5.8,5.8,0,1,1,2.833-7.7,5.81,5.81,0,0,1-2.833,7.7m-4.307-9.321a4.464,4.464,0,1,0,5.924,2.18,4.469,4.469,0,0,0-5.924-2.18" transform="translate(-6.033 -16.998)" fill="#f7d4aa"/>
          <path id="Trazado_226293" data-name="Trazado 226293" d="M50.186,128.973a.67.67,0,0,1-.518.019l-3.454-1.3a.67.67,0,0,1,.474-1.254l2.869,1.083L53,120.034a.67.67,0,1,1,1.218.561l-3.7,8.05a.666.666,0,0,1-.328.329" transform="translate(-6.401 -16.729)" fill="#ff931d"/>
          <rect id="Rectángulo_48092" data-name="Rectángulo 48092" width="83.785" height="1.741" transform="matrix(0.908, -0.419, 0.419, 0.908, 52.619, 100.96)" fill="#ff931d"/>
          <rect id="Rectángulo_48093" data-name="Rectángulo 48093" width="56.947" height="1.74" transform="matrix(0.908, -0.419, 0.419, 0.908, 78.491, 92.97)" fill="#ff931d"/>
          <rect id="Rectángulo_48094" data-name="Rectángulo 48094" width="51.693" height="1.74" transform="matrix(0.908, -0.419, 0.419, 0.908, 55.635, 107.489)" fill="#ff931d"/>
          <rect id="Rectángulo_48095" data-name="Rectángulo 48095" width="23.728" height="1.74" transform="translate(54.132 104.235) rotate(-24.797)" fill="#ff931d"/>
          <rect id="Rectángulo_48096" data-name="Rectángulo 48096" width="29.55" height="1.74" transform="translate(104.873 84.749) rotate(-24.797)" fill="#ff931d"/>
          <path id="Trazado_226294" data-name="Trazado 226294" d="M61.357,154.215a5.8,5.8,0,1,1,2.833-7.7,5.81,5.81,0,0,1-2.833,7.7m-4.307-9.321a4.464,4.464,0,1,0,5.924,2.18,4.469,4.469,0,0,0-5.924-2.18" transform="translate(-7.427 -20.014)" fill="#f7d4aa"/>
          <path id="Trazado_226295" data-name="Trazado 226295" d="M60.154,150.548a.67.67,0,0,1-.518.019l-3.454-1.3a.67.67,0,0,1,.474-1.254l2.869,1.083,3.442-7.484a.67.67,0,1,1,1.218.561l-3.7,8.05a.666.666,0,0,1-.328.329" transform="translate(-7.795 -19.745)" fill="#ff931d"/>
          <rect id="Rectángulo_48097" data-name="Rectángulo 48097" width="83.784" height="1.74" transform="translate(61.197 119.526) rotate(-24.791)" fill="#ff931d"/>
          <rect id="Rectángulo_48098" data-name="Rectángulo 48098" width="56.947" height="1.74" transform="matrix(0.908, -0.419, 0.419, 0.908, 87.066, 111.528)" fill="#ff931d"/>
          <rect id="Rectángulo_48099" data-name="Rectángulo 48099" width="51.692" height="1.74" transform="translate(64.217 126.063) rotate(-24.817)" fill="#ff931d"/>
          <rect id="Rectángulo_48100" data-name="Rectángulo 48100" width="23.728" height="1.74" transform="translate(62.706 122.793) rotate(-24.797)" fill="#ff931d"/>
          <rect id="Rectángulo_48101" data-name="Rectángulo 48101" width="29.55" height="1.74" transform="translate(113.447 103.308) rotate(-24.797)" fill="#ff931d"/>
          <path id="Trazado_226296" data-name="Trazado 226296" d="M71.325,175.79a5.8,5.8,0,1,1,2.833-7.7,5.81,5.81,0,0,1-2.833,7.7m-4.307-9.321a4.464,4.464,0,1,0,5.924,2.18,4.468,4.468,0,0,0-5.924-2.18" transform="translate(-8.821 -23.031)" fill="#f7d4aa"/>
          <path id="Trazado_226297" data-name="Trazado 226297" d="M70.123,172.124a.672.672,0,0,1-.519.019l-3.454-1.3a.67.67,0,0,1,.474-1.254l2.869,1.083,3.442-7.484a.67.67,0,0,1,1.218.561l-3.7,8.05a.669.669,0,0,1-.327.328" transform="translate(-9.189 -22.762)" fill="#ff931d"/>
          <rect id="Rectángulo_48102" data-name="Rectángulo 48102" width="83.784" height="1.741" transform="translate(69.776 138.094) rotate(-24.805)" fill="#ff931d"/>
          <rect id="Rectángulo_48103" data-name="Rectángulo 48103" width="56.947" height="1.74" transform="translate(95.643 130.092) rotate(-24.791)" fill="#ff931d"/>
          <rect id="Rectángulo_48104" data-name="Rectángulo 48104" width="51.693" height="1.74" transform="matrix(0.908, -0.419, 0.419, 0.908, 72.784, 144.606)" fill="#ff931d"/>
          <rect id="Rectángulo_48105" data-name="Rectángulo 48105" width="23.728" height="1.74" transform="translate(71.281 141.352) rotate(-24.797)" fill="#ff931d"/>
          <rect id="Rectángulo_48106" data-name="Rectángulo 48106" width="29.55" height="1.74" transform="translate(122.022 121.867) rotate(-24.797)" fill="#ff931d"/>
          <rect id="Rectángulo_48107" data-name="Rectángulo 48107" width="76.183" height="2.153" transform="translate(84.864 152.627) rotate(-24.798)" fill="#d83e3a"/>
          <rect id="Rectángulo_48108" data-name="Rectángulo 48108" width="102.341" height="2.154" transform="translate(63.326 168.377) rotate(-24.798)" fill="#d83e3a"/>
          <rect id="Rectángulo_48109" data-name="Rectángulo 48109" width="60.449" height="2.154" transform="matrix(0.908, -0.419, 0.419, 0.908, 65.533, 173.156)" fill="#d83e3a"/>
          <rect id="Rectángulo_48110" data-name="Rectángulo 48110" width="102.341" height="2.154" transform="translate(67.741 177.934) rotate(-24.798)" fill="#d83e3a"/>
          <rect id="Rectángulo_48111" data-name="Rectángulo 48111" width="45.716" height="2.154" transform="translate(121.352 158.963) rotate(-24.798)" fill="#d83e3a"/>
          <rect id="Rectángulo_48112" data-name="Rectángulo 48112" width="102.341" height="2.154" transform="translate(72.157 187.491) rotate(-24.798)" fill="#d83e3a"/>
          <rect id="Rectángulo_48113" data-name="Rectángulo 48113" width="74.41" height="2.153" transform="translate(74.365 192.27) rotate(-24.798)" fill="#d83e3a"/>
          <rect id="Rectángulo_48114" data-name="Rectángulo 48114" width="23.384" height="2.154" transform="translate(146.041 159.154) rotate(-24.798)" fill="#d83e3a"/>
          <rect id="Rectángulo_48115" data-name="Rectángulo 48115" width="48.968" height="2.153" transform="matrix(0.908, -0.419, 0.419, 0.908, 69.949, 182.713)" fill="#d83e3a"/>
          <rect id="Rectángulo_48116" data-name="Rectángulo 48116" width="37.342" height="2.153" transform="translate(124.54 145.894) rotate(-24.798)" fill="#d83e3a"/>
          <rect id="Rectángulo_48117" data-name="Rectángulo 48117" width="53.118" height="3.23" transform="translate(49.995 52.542) rotate(-24.798)" fill="#ffc82e"/>
          <rect id="Rectángulo_48118" data-name="Rectángulo 48118" width="65.48" height="3.23" transform="translate(55.383 64.205) rotate(-24.798)" fill="#ffc82e"/>
          <rect id="Rectángulo_48119" data-name="Rectángulo 48119" width="32.6" height="3.23" transform="translate(52.83 58.679) rotate(-24.798)" fill="#ffc82e"/>
          <rect id="Rectángulo_48120" data-name="Rectángulo 48120" width="32.6" height="3.23" transform="translate(86.008 43.349) rotate(-24.797)" fill="#ffc82e"/>
          <rect id="Rectángulo_48121" data-name="Rectángulo 48121" width="18.105" height="3.23" transform="matrix(0.908, -0.419, 0.419, 0.908, 57.936, 69.731)" fill="#ffc82e"/>
          <rect id="Rectángulo_48122" data-name="Rectángulo 48122" width="18.105" height="3.23" transform="matrix(0.908, -0.419, 0.419, 0.908, 106.827, 53.848)" fill="#ffc82e"/>
          <rect id="Rectángulo_48123" data-name="Rectángulo 48123" width="45.462" height="3.23" transform="translate(60.49 75.257) rotate(-24.798)" fill="#ffc82e"/>
          <rect id="Rectángulo_48124" data-name="Rectángulo 48124" width="47.375" height="3.23" transform="translate(77.702 60.599) rotate(-24.798)" fill="#ffc82e"/>
          <rect id="Rectángulo_48125" data-name="Rectángulo 48125" width="32.204" height="41.633" transform="matrix(0.908, -0.419, 0.419, 0.908, 11.084, 63.15)" fill="#385d93"/>
        </g>
      </g>
      <g id="Grupo_159095" data-name="Grupo 159095" transform="translate(11.084 49.643)">
        <g id="Grupo_159094" data-name="Grupo 159094" clip-path="url(#clip-path-3)">
          <path id="Trazado_226298" data-name="Trazado 226298" d="M53.491,93.474c4.381-.544,11.06,9.2,11.06,9.2s-.852,3.294-5.233,5.286Z" transform="translate(-18.564 -62.709)" fill="#d83e3a"/>
          <path id="Trazado_226299" data-name="Trazado 226299" d="M50.585,143.961s.963-.125,2.513-.415c.261-.047.534-.1.828-.158,5.6-1.112,16.637-3.983,20.494-9.881.082-.12.158-.242.233-.368l-.56-.963c-.215-.377-.492-.858-.824-1.427-.4-.689-.877-1.512-1.418-2.444-.263-.451-.54-.932-.831-1.433-.444-.761-.922-1.578-1.424-2.437-.268-.461-.549-.94-.829-1.429-.464-.784-.94-1.6-1.433-2.437-.086-.148-.173-.3-.261-.446-.19-.324-.379-.653-.575-.979q-.7-1.2-1.429-2.439c-.274-.473-.557-.947-.837-1.426-.476-.81-.957-1.627-1.44-2.442-.28-.476-.56-.945-.838-1.417-.129-.219-.258-.44-.389-.653l-1.058-1.787-.363-.606c-.158-.274-.319-.544-.482-.816-.008-.015-.016-.025-.023-.04-.231-.383-.462-.761-.68-1.136-.172-.282-.343-.574-.514-.852-.081-.137-.163-.273-.242-.405-.145-.244-.292-.483-.434-.729-.124-.2-.248-.4-.366-.6l-.052-.081c-.028-.052-.06-.1-.09-.156-.231-.383-.459-.758-.686-1.129-.172-.274-.33-.557-.5-.828-.064-.108-.132-.214-.194-.322-.294-.477-.581-.95-.86-1.406-.52-.849-1.024-1.66-1.5-2.42-.3-.488-.592-.954-.875-1.4-.56-.895-1.076-1.7-1.536-2.4-.035-.057-.075-.112-.11-.169l-.75.09-.4.045-2.565.3-1.056.122-.177.022-.963.115-5.043,2.33-.284.268-.679.63-.49.455-2.295,2.136-.036.04-.55.506.014.04a.292.292,0,0,0,.009.037c.083.268.382,1.233.844,2.709.147.477.315,1.008.494,1.584.255.811.542,1.718.852,2.7.121.383.245.779.372,1.183.042.132.083.259.123.4.112.352.229.714.344,1.082.109.324.216.655.319.987.065.208.132.415.2.625s.14.443.215.665c.093.3.194.606.286.915a.19.19,0,0,1,.015.044c.135.422.276.856.414,1.292l.005.011c.1.311.2.618.3.927.044.135.084.273.129.408.1.3.2.6.293.913.073.218.148.44.219.662.023.081.052.163.077.248.261.8.528,1.619.8,2.438q.257.781.518,1.569c.292.889.593,1.786.889,2.674.175.528.348,1.052.526,1.574q.455,1.342.9,2.659c.181.53.36,1.055.539,1.572.312.9.621,1.791.924,2.654.186.532.372,1.055.557,1.564.329.919.651,1.8.96,2.642.2.539.4,1.061.588,1.559.365.958.711,1.836,1.033,2.622.233.565.458,1.083.666,1.541.022.049.04.1.066.143.125.291.251.553.368.787" transform="translate(-16.079 -62.713)" fill="#d83e3a"/>
          <path id="Trazado_226300" data-name="Trazado 226300" d="M35.051,101.685c-2.324,2.157-4.132,16.877-4.132,16.877s6.11,2.655,10.735,3.076l-.048-5.722Z" transform="translate(-15.408 -63.86)" fill="#d83e3a"/>
          <path id="Trazado_226301" data-name="Trazado 226301" d="M26.512,79.436a5.317,5.317,0,0,1-.744-2.075,2.319,2.319,0,0,1,.708-1.989.941.941,0,0,1-.631-.92.894.894,0,0,1,.727-.816,12.257,12.257,0,0,1,9.54-7.352,4.012,4.012,0,0,1,1.69.06,1.817,1.817,0,0,1,1.232,1.116,2.9,2.9,0,0,1,3.582.471,3,3,0,0,1,.267,3.655,1.95,1.95,0,0,1,.867,1.572,4.773,4.773,0,0,1-.329,1.816,19.955,19.955,0,0,1-5.2,8.1,19.583,19.583,0,0,1-1.877,1.561q-.485.355-.993.678c-.246.157-.675.541-.967.567a3.347,3.347,0,0,1-1.147-.416q-.555-.235-1.088-.519a14.078,14.078,0,0,1-5.638-5.5" transform="translate(-14.686 -58.902)"/>
          <path id="Trazado_226302" data-name="Trazado 226302" d="M45.955,79.083a6.8,6.8,0,0,1-.172,5.117,21,21,0,0,1-1.133,2.04c-.851,1.441-1.28,2.478.045,5.345a3.082,3.082,0,0,1-5.153,2.381,27.5,27.5,0,0,0-5.275-7.757c-.372-.38-.637-.622-.741-.713-.036-.032-.05-.046-.05-.046s-.27-.616-.639-1.535l-.139-.348c-.857-2.156-2.11-5.58-2.015-7.035.358-5.337,9.211-7.666,11.417-4.569a25.558,25.558,0,0,1,3.856,7.121" transform="translate(-15.374 -59.51)" fill="#fea384"/>
          <path id="Trazado_226303" data-name="Trazado 226303" d="M41.987,71.132a3.351,3.351,0,0,1-1.164,1.362,14.306,14.306,0,0,1-7.84,2.968A.781.781,0,0,1,32.6,76.9a5.113,5.113,0,0,1,1.057,3.015,4.673,4.673,0,0,1-1.017,2.876,1.263,1.263,0,0,1-.779.536c-.523.062-.927-.428-1.221-.864-1.07-1.59-2.164-3.3-2.217-5.217a6.449,6.449,0,0,1,2.39-4.921A11.789,11.789,0,0,1,35.9,69.979a9.715,9.715,0,0,1,3.276-.28,4.538,4.538,0,0,1,2.808,1.432" transform="translate(-15.059 -59.382)"/>
          <path id="Trazado_226304" data-name="Trazado 226304" d="M43.23,77.924a1.892,1.892,0,0,1,2.185-.883.38.38,0,0,1,.249.412.276.276,0,0,1-.353.23,1.36,1.36,0,0,0-1.034.118,1.388,1.388,0,0,0-.407.343c-.1.126-.175.3-.36.28a.293.293,0,0,1-.128-.044.378.378,0,0,1-.151-.457" transform="translate(-17.124 -60.404)"/>
          <path id="Trazado_226305" data-name="Trazado 226305" d="M40.461,79.175a2.421,2.421,0,0,0-2.4,1.237.341.341,0,0,0,.6.314,1.7,1.7,0,0,1,.893-.766,1.844,1.844,0,0,1,.594-.121c.179-.006.377.037.5-.123a.331.331,0,0,0,.063-.132.343.343,0,0,0-.257-.408" transform="translate(-16.401 -60.711)"/>
          <path id="Trazado_226306" data-name="Trazado 226306" d="M44.515,84.267a2.048,2.048,0,0,0,.772-.617.3.3,0,1,0-.479-.367,1.586,1.586,0,0,1-1.834.467.3.3,0,1,0-.293.528,2.164,2.164,0,0,0,1.834-.011" transform="translate(-17.03 -61.271)" fill="#c16b5b"/>
          <path id="Trazado_226307" data-name="Trazado 226307" d="M44.6,82.178a.075.075,0,0,0,.043-.08c-.077-.508-.3-.589-.472-.569a.73.73,0,0,0-.489.37.075.075,0,0,0,.022.1.077.077,0,0,0,.1-.022.587.587,0,0,1,.38-.3c.155-.019.258.129.3.441a.076.076,0,0,0,.086.063.081.081,0,0,0,.021-.006" transform="translate(-17.191 -61.042)" fill="#c16b5b"/>
          <path id="Trazado_226308" data-name="Trazado 226308" d="M40.053,82.027a.552.552,0,1,0,.269-.732.551.551,0,0,0-.269.732" transform="translate(-16.678 -61.002)"/>
          <path id="Trazado_226309" data-name="Trazado 226309" d="M40.566,81.679a.2.2,0,1,0,.1-.268.2.2,0,0,0-.1.268" transform="translate(-16.754 -61.023)" fill="#fff"/>
          <path id="Trazado_226310" data-name="Trazado 226310" d="M44.553,79.948a.552.552,0,1,0,.269-.732.551.551,0,0,0-.269.732" transform="translate(-17.307 -60.712)"/>
          <path id="Trazado_226311" data-name="Trazado 226311" d="M45.066,79.6a.2.2,0,1,0,.1-.268.2.2,0,0,0-.1.268" transform="translate(-17.383 -60.732)" fill="#fff"/>
          <path id="Trazado_226312" data-name="Trazado 226312" d="M31.7,88.457a1.775,1.775,0,1,0,1.473-3.128A1.775,1.775,0,1,0,31.7,88.457" transform="translate(-15.326 -61.538)" fill="#fea384"/>
          <path id="Trazado_226313" data-name="Trazado 226313" d="M31.212,86.264a1.331,1.331,0,0,1,1.073-.471,1.085,1.085,0,0,1,.553.128.666.666,0,0,1,.343.514.938.938,0,0,1-.133.479.9.9,0,0,0-.1.288.339.339,0,0,0,.6.253.151.151,0,0,1,.231.2.628.628,0,0,1-.215.162.639.639,0,0,1-.913-.638,1.157,1.157,0,0,1,.134-.392.685.685,0,0,0,.1-.327.364.364,0,0,0-.192-.273.65.65,0,0,0-.152-.057.615.615,0,0,0-.33.317.539.539,0,0,0,.065.457.15.15,0,0,1-.04.209.143.143,0,0,1-.021.013.152.152,0,0,1-.188-.052.836.836,0,0,1-.1-.718.686.686,0,0,1,.14-.235.954.954,0,0,0-.6.331.585.585,0,0,0,.032.767.151.151,0,1,1-.2.23.883.883,0,0,1-.076-1.18" transform="translate(-15.422 -61.638)" fill="#c16b5b"/>
          <path id="Trazado_226314" data-name="Trazado 226314" d="M40.058,97.334l-.148-1.72L44.3,97.936,43.2,101.1Z" transform="translate(-16.665 -63.012)" fill="#ad2727"/>
          <path id="Trazado_226315" data-name="Trazado 226315" d="M47.3,93.908,46.086,92.68l-1.075,4.845,3.122,1.218Z" transform="translate(-17.378 -62.601)" fill="#ad2727"/>
        </g>
      </g>
    </g>
  </g>
</svg>
