<svg xmlns="http://www.w3.org/2000/svg" width="15.016" height="237.611" viewBox="0 0 15.016 237.611">
  <g id="Grupo_159132" data-name="Grupo 159132" transform="translate(-283.646 -229.52)">
    <g id="Grupo_154548" data-name="Grupo 154548" transform="translate(284.646 230.52)">
      <g id="Grupo_151761" data-name="Grupo 151761">
        <circle id="Elipse_5384" data-name="Elipse 5384" cx="1.612" cy="1.612" r="1.612" fill="#ff7d00"/>
        <path id="Elipse_5384_-_Contorno" data-name="Elipse 5384 - Contorno" d="M1.612-1A2.612,2.612,0,1,1-1,1.612,2.615,2.615,0,0,1,1.612-1Zm0,3.224A.612.612,0,1,0,1,1.612.613.613,0,0,0,1.612,2.224Z" fill="#ff7d00"/>
        <circle id="Elipse_5385" data-name="Elipse 5385" cx="1.612" cy="1.612" r="1.612" transform="translate(0 6.985)" fill="#ff7d00"/>
        <path id="Elipse_5385_-_Contorno" data-name="Elipse 5385 - Contorno" d="M1.612-1A2.612,2.612,0,1,1-1,1.612,2.615,2.615,0,0,1,1.612-1Zm0,3.224A.612.612,0,1,0,1,1.612.613.613,0,0,0,1.612,2.224Z" transform="translate(0 6.985)" fill="#ff7d00"/>
        <circle id="Elipse_5386" data-name="Elipse 5386" cx="1.612" cy="1.612" r="1.612" transform="translate(0 13.97)" fill="#ff7d00"/>
        <path id="Elipse_5386_-_Contorno" data-name="Elipse 5386 - Contorno" d="M1.612-1A2.612,2.612,0,1,1-1,1.612,2.615,2.615,0,0,1,1.612-1Zm0,3.224A.612.612,0,1,0,1,1.612.613.613,0,0,0,1.612,2.224Z" transform="translate(0 13.97)" fill="#ff7d00"/>
        <circle id="Elipse_5387" data-name="Elipse 5387" cx="1.612" cy="1.612" r="1.612" transform="translate(0 20.954)" fill="#ff7d00"/>
        <path id="Elipse_5387_-_Contorno" data-name="Elipse 5387 - Contorno" d="M1.612-1A2.612,2.612,0,1,1-1,1.612,2.615,2.615,0,0,1,1.612-1Zm0,3.224A.612.612,0,1,0,1,1.612.613.613,0,0,0,1.612,2.224Z" transform="translate(0 20.954)" fill="#ff7d00"/>
        <circle id="Elipse_5388" data-name="Elipse 5388" cx="1.612" cy="1.612" r="1.612" transform="translate(0 27.939)" fill="#ff7d00"/>
        <path id="Elipse_5388_-_Contorno" data-name="Elipse 5388 - Contorno" d="M1.612-1A2.612,2.612,0,1,1-1,1.612,2.615,2.615,0,0,1,1.612-1Zm0,3.224A.612.612,0,1,0,1,1.612.613.613,0,0,0,1.612,2.224Z" transform="translate(0 27.939)" fill="#ff7d00"/>
        <path id="Trazado_204501" data-name="Trazado 204501" d="M31.563,76.913A1.612,1.612,0,1,1,33.174,75.3,1.612,1.612,0,0,1,31.563,76.913Z" transform="translate(-29.951 -38.766)" fill="#ff7d00"/>
        <path id="Trazado_204501_-_Contorno" data-name="Trazado 204501 - Contorno" d="M31.563,77.913A2.612,2.612,0,1,1,34.174,75.3,2.615,2.615,0,0,1,31.563,77.913Zm0-3.223a.612.612,0,1,0,.612.612A.612.612,0,0,0,31.563,74.69Z" transform="translate(-29.951 -38.766)" fill="#ff7d00"/>
        <path id="Trazado_204502" data-name="Trazado 204502" d="M31.563,84.576a1.612,1.612,0,1,1,1.612-1.613A1.612,1.612,0,0,1,31.563,84.576Z" transform="translate(-29.951 -39.443)" fill="#ff7d00"/>
        <path id="Trazado_204502_-_Contorno" data-name="Trazado 204502 - Contorno" d="M31.563,85.576a2.612,2.612,0,1,1,2.612-2.613A2.615,2.615,0,0,1,31.563,85.576Zm0-3.224a.612.612,0,1,0,.612.612A.612.612,0,0,0,31.563,82.352Z" transform="translate(-29.951 -39.443)" fill="#ff7d00"/>
        <path id="Trazado_204503" data-name="Trazado 204503" d="M31.563,92.238a1.612,1.612,0,1,1,1.612-1.612A1.612,1.612,0,0,1,31.563,92.238Z" transform="translate(-29.951 -40.121)" fill="#ff7d00"/>
        <path id="Trazado_204503_-_Contorno" data-name="Trazado 204503 - Contorno" d="M31.563,93.238a2.612,2.612,0,1,1,2.612-2.612A2.615,2.615,0,0,1,31.563,93.238Zm0-3.223a.612.612,0,1,0,.612.612A.612.612,0,0,0,31.563,90.015Z" transform="translate(-29.951 -40.121)" fill="#ff7d00"/>
        <path id="Trazado_204504" data-name="Trazado 204504" d="M31.563,99.9a1.612,1.612,0,1,1,1.612-1.613A1.612,1.612,0,0,1,31.563,99.9Z" transform="translate(-29.951 -40.799)" fill="#ff7d00"/>
        <path id="Trazado_204504_-_Contorno" data-name="Trazado 204504 - Contorno" d="M31.563,100.9a2.612,2.612,0,1,1,2.612-2.613A2.615,2.615,0,0,1,31.563,100.9Zm0-3.224a.612.612,0,1,0,.612.612A.612.612,0,0,0,31.563,97.677Z" transform="translate(-29.951 -40.799)" fill="#ff7d00"/>
        <path id="Trazado_204505" data-name="Trazado 204505" d="M31.563,107.563a1.612,1.612,0,1,1,1.612-1.612A1.612,1.612,0,0,1,31.563,107.563Z" transform="translate(-29.951 -41.477)" fill="#ff7d00"/>
        <path id="Trazado_204505_-_Contorno" data-name="Trazado 204505 - Contorno" d="M31.563,108.563a2.612,2.612,0,1,1,2.612-2.612A2.615,2.615,0,0,1,31.563,108.563Zm0-3.223a.612.612,0,1,0,.612.612A.612.612,0,0,0,31.563,105.34Z" transform="translate(-29.951 -41.477)" fill="#ff7d00"/>
        <path id="Trazado_204506" data-name="Trazado 204506" d="M31.563,115.226a1.612,1.612,0,1,1,1.612-1.613A1.612,1.612,0,0,1,31.563,115.226Z" transform="translate(-29.951 -42.154)" fill="#ff7d00"/>
        <path id="Trazado_204506_-_Contorno" data-name="Trazado 204506 - Contorno" d="M31.563,116.226a2.612,2.612,0,1,1,2.612-2.613A2.615,2.615,0,0,1,31.563,116.226Zm0-3.224a.612.612,0,1,0,.612.612A.612.612,0,0,0,31.563,113Z" transform="translate(-29.951 -42.154)" fill="#ff7d00"/>
        <path id="Trazado_204507" data-name="Trazado 204507" d="M31.563,122.888a1.612,1.612,0,1,1,1.612-1.612A1.612,1.612,0,0,1,31.563,122.888Z" transform="translate(-29.951 -42.832)" fill="#ff7d00"/>
        <path id="Trazado_204507_-_Contorno" data-name="Trazado 204507 - Contorno" d="M31.563,123.888a2.612,2.612,0,1,1,2.612-2.612A2.615,2.615,0,0,1,31.563,123.888Zm0-3.223a.612.612,0,1,0,.612.612A.612.612,0,0,0,31.563,120.665Z" transform="translate(-29.951 -42.832)" fill="#ff7d00"/>
        <path id="Trazado_204508" data-name="Trazado 204508" d="M31.563,130.551a1.612,1.612,0,1,1,1.612-1.613A1.612,1.612,0,0,1,31.563,130.551Z" transform="translate(-29.951 -43.51)" fill="#ff7d00"/>
        <path id="Trazado_204508_-_Contorno" data-name="Trazado 204508 - Contorno" d="M31.563,131.551a2.612,2.612,0,1,1,2.612-2.613A2.615,2.615,0,0,1,31.563,131.551Zm0-3.224a.612.612,0,1,0,.612.612A.612.612,0,0,0,31.563,128.327Z" transform="translate(-29.951 -43.51)" fill="#ff7d00"/>
        <circle id="Elipse_5389" data-name="Elipse 5389" cx="1.612" cy="1.612" r="1.612" transform="translate(0 90.802)" fill="#ff7d00"/>
        <path id="Elipse_5389_-_Contorno" data-name="Elipse 5389 - Contorno" d="M1.612-1A2.612,2.612,0,1,1-1,1.612,2.615,2.615,0,0,1,1.612-1Zm0,3.224A.612.612,0,1,0,1,1.612.613.613,0,0,0,1.612,2.224Z" transform="translate(0 90.802)" fill="#ff7d00"/>
        <circle id="Elipse_5390" data-name="Elipse 5390" cx="1.612" cy="1.612" r="1.612" transform="translate(0 97.787)" fill="#ff7d00"/>
        <path id="Elipse_5390_-_Contorno" data-name="Elipse 5390 - Contorno" d="M1.612-1A2.612,2.612,0,1,1-1,1.612,2.615,2.615,0,0,1,1.612-1Zm0,3.224A.612.612,0,1,0,1,1.612.613.613,0,0,0,1.612,2.224Z" transform="translate(0 97.787)" fill="#ff7d00"/>
        <circle id="Elipse_5391" data-name="Elipse 5391" cx="1.612" cy="1.612" r="1.612" transform="translate(0 104.772)" fill="#ff7d00"/>
        <path id="Elipse_5391_-_Contorno" data-name="Elipse 5391 - Contorno" d="M1.612-1A2.612,2.612,0,1,1-1,1.612,2.615,2.615,0,0,1,1.612-1Zm0,3.224A.612.612,0,1,0,1,1.612.613.613,0,0,0,1.612,2.224Z" transform="translate(0 104.772)" fill="#ff7d00"/>
        <circle id="Elipse_5392" data-name="Elipse 5392" cx="1.612" cy="1.612" r="1.612" transform="translate(0 111.756)" fill="#ff7d00"/>
        <path id="Elipse_5392_-_Contorno" data-name="Elipse 5392 - Contorno" d="M1.612-1A2.612,2.612,0,1,1-1,1.612,2.615,2.615,0,0,1,1.612-1Zm0,3.224A.612.612,0,1,0,1,1.612.613.613,0,0,0,1.612,2.224Z" transform="translate(0 111.756)" fill="#ff7d00"/>
        <circle id="Elipse_5393" data-name="Elipse 5393" cx="1.612" cy="1.612" r="1.612" transform="translate(0 118.741)" fill="#ff7d00"/>
        <path id="Elipse_5393_-_Contorno" data-name="Elipse 5393 - Contorno" d="M1.612-1A2.612,2.612,0,1,1-1,1.612,2.615,2.615,0,0,1,1.612-1Zm0,3.224A.612.612,0,1,0,1,1.612.613.613,0,0,0,1.612,2.224Z" transform="translate(0 118.741)" fill="#ff7d00"/>
        <path id="Trazado_204509" data-name="Trazado 204509" d="M31.563,176.526a1.612,1.612,0,1,1,1.612-1.613A1.612,1.612,0,0,1,31.563,176.526Z" transform="translate(-29.951 -47.576)" fill="#ff7d00"/>
        <path id="Trazado_204509_-_Contorno" data-name="Trazado 204509 - Contorno" d="M31.563,177.526a2.612,2.612,0,1,1,2.612-2.613A2.615,2.615,0,0,1,31.563,177.526Zm0-3.224a.612.612,0,1,0,.612.612A.612.612,0,0,0,31.563,174.3Z" transform="translate(-29.951 -47.576)" fill="#ff7d00"/>
        <path id="Trazado_204510" data-name="Trazado 204510" d="M31.563,184.188a1.612,1.612,0,1,1,1.612-1.612A1.612,1.612,0,0,1,31.563,184.188Z" transform="translate(-29.951 -48.254)" fill="#ff7d00"/>
        <path id="Trazado_204510_-_Contorno" data-name="Trazado 204510 - Contorno" d="M31.563,185.188a2.612,2.612,0,1,1,2.612-2.612A2.615,2.615,0,0,1,31.563,185.188Zm0-3.223a.612.612,0,1,0,.612.612A.612.612,0,0,0,31.563,181.965Z" transform="translate(-29.951 -48.254)" fill="#ff7d00"/>
        <path id="Trazado_204511" data-name="Trazado 204511" d="M31.563,191.851a1.612,1.612,0,1,1,1.612-1.613A1.612,1.612,0,0,1,31.563,191.851Z" transform="translate(-29.951 -48.932)" fill="#ff7d00"/>
        <path id="Trazado_204511_-_Contorno" data-name="Trazado 204511 - Contorno" d="M31.563,192.851a2.612,2.612,0,1,1,2.612-2.613A2.615,2.615,0,0,1,31.563,192.851Zm0-3.224a.612.612,0,1,0,.612.612A.612.612,0,0,0,31.563,189.627Z" transform="translate(-29.951 -48.932)" fill="#ff7d00"/>
        <path id="Trazado_204512" data-name="Trazado 204512" d="M31.563,199.513a1.612,1.612,0,1,1,1.612-1.612A1.612,1.612,0,0,1,31.563,199.513Z" transform="translate(-29.951 -49.609)" fill="#ff7d00"/>
        <path id="Trazado_204512_-_Contorno" data-name="Trazado 204512 - Contorno" d="M31.563,200.513a2.612,2.612,0,1,1,2.612-2.612A2.615,2.615,0,0,1,31.563,200.513Zm0-3.223a.612.612,0,1,0,.612.612A.612.612,0,0,0,31.563,197.29Z" transform="translate(-29.951 -49.609)" fill="#ff7d00"/>
        <path id="Trazado_204513" data-name="Trazado 204513" d="M31.563,207.176a1.612,1.612,0,1,1,1.612-1.613A1.612,1.612,0,0,1,31.563,207.176Z" transform="translate(-29.951 -50.287)" fill="#ff7d00"/>
        <path id="Trazado_204513_-_Contorno" data-name="Trazado 204513 - Contorno" d="M31.563,208.176a2.612,2.612,0,1,1,2.612-2.613A2.615,2.615,0,0,1,31.563,208.176Zm0-3.224a.612.612,0,1,0,.612.612A.612.612,0,0,0,31.563,204.952Z" transform="translate(-29.951 -50.287)" fill="#ff7d00"/>
        <path id="Trazado_204514" data-name="Trazado 204514" d="M31.563,214.838a1.612,1.612,0,1,1,1.612-1.612A1.612,1.612,0,0,1,31.563,214.838Z" transform="translate(-29.951 -50.965)" fill="#ff7d00"/>
        <path id="Trazado_204514_-_Contorno" data-name="Trazado 204514 - Contorno" d="M31.563,215.838a2.612,2.612,0,1,1,2.612-2.612A2.615,2.615,0,0,1,31.563,215.838Zm0-3.223a.612.612,0,1,0,.612.612A.612.612,0,0,0,31.563,212.615Z" transform="translate(-29.951 -50.965)" fill="#ff7d00"/>
        <path id="Trazado_204515" data-name="Trazado 204515" d="M31.563,222.5a1.612,1.612,0,1,1,1.612-1.613A1.612,1.612,0,0,1,31.563,222.5Z" transform="translate(-29.951 -51.642)" fill="#ff7d00"/>
        <path id="Trazado_204515_-_Contorno" data-name="Trazado 204515 - Contorno" d="M31.563,223.5a2.612,2.612,0,1,1,2.612-2.613A2.615,2.615,0,0,1,31.563,223.5Zm0-3.224a.612.612,0,1,0,.612.612A.612.612,0,0,0,31.563,220.277Z" transform="translate(-29.951 -51.642)" fill="#ff7d00"/>
        <path id="Trazado_204516" data-name="Trazado 204516" d="M31.563,230.163a1.612,1.612,0,1,1,1.612-1.612A1.611,1.611,0,0,1,31.563,230.163Z" transform="translate(-29.951 -52.32)" fill="#ff7d00"/>
        <path id="Trazado_204516_-_Contorno" data-name="Trazado 204516 - Contorno" d="M31.563,231.163a2.612,2.612,0,1,1,2.612-2.612A2.615,2.615,0,0,1,31.563,231.163Zm0-3.223a.612.612,0,1,0,.612.612A.612.612,0,0,0,31.563,227.94Z" transform="translate(-29.951 -52.32)" fill="#ff7d00"/>
        <circle id="Elipse_5394" data-name="Elipse 5394" cx="1.612" cy="1.612" r="1.612" transform="translate(0 181.604)" fill="#ff7d00"/>
        <path id="Elipse_5394_-_Contorno" data-name="Elipse 5394 - Contorno" d="M1.612-1A2.612,2.612,0,1,1-1,1.612,2.615,2.615,0,0,1,1.612-1Zm0,3.224A.612.612,0,1,0,1,1.612.613.613,0,0,0,1.612,2.224Z" transform="translate(0 181.604)" fill="#ff7d00"/>
        <circle id="Elipse_5395" data-name="Elipse 5395" cx="1.612" cy="1.612" r="1.612" transform="translate(0 188.589)" fill="#ff7d00"/>
        <path id="Elipse_5395_-_Contorno" data-name="Elipse 5395 - Contorno" d="M1.612-1A2.612,2.612,0,1,1-1,1.612,2.615,2.615,0,0,1,1.612-1Zm0,3.224A.612.612,0,1,0,1,1.612.613.613,0,0,0,1.612,2.224Z" transform="translate(0 188.589)" fill="#ff7d00"/>
        <circle id="Elipse_5396" data-name="Elipse 5396" cx="1.612" cy="1.612" r="1.612" transform="translate(0 195.574)" fill="#ff7d00"/>
        <path id="Elipse_5396_-_Contorno" data-name="Elipse 5396 - Contorno" d="M1.612-1A2.612,2.612,0,1,1-1,1.612,2.615,2.615,0,0,1,1.612-1Zm0,3.224A.612.612,0,1,0,1,1.612.613.613,0,0,0,1.612,2.224Z" transform="translate(0 195.574)" fill="#ff7d00"/>
        <circle id="Elipse_5397" data-name="Elipse 5397" cx="1.612" cy="1.612" r="1.612" transform="translate(0 202.559)" fill="#ff7d00"/>
        <path id="Elipse_5397_-_Contorno" data-name="Elipse 5397 - Contorno" d="M1.612-1A2.612,2.612,0,1,1-1,1.612,2.615,2.615,0,0,1,1.612-1Zm0,3.224A.612.612,0,1,0,1,1.612.613.613,0,0,0,1.612,2.224Z" transform="translate(0 202.559)" fill="#ff7d00"/>
      </g>
    </g>
    <path id="Línea_491" data-name="Línea 491" d="M1.5,201.687h-3V0h3Z" transform="translate(297.162 265.443)" fill="#f7e7cf"/>
  </g>
</svg>
