<svg xmlns="http://www.w3.org/2000/svg" width="106" height="106" viewBox="0 0 106 106">
  <g id="Grupo_159135" data-name="Grupo 159135" transform="translate(-433.638 -3714)">
    <circle id="Elipse_5572" data-name="Elipse 5572" cx="53" cy="53" r="53" transform="translate(433.638 3714)" fill="#ff7d00"/>
    <path id="Trazado_226323" data-name="Trazado 226323" d="M7.754-16.973h3.105q3.691,0,3.691-3.613a3.124,3.124,0,0,0-.879-2.295,3.333,3.333,0,0,0-2.48-.889,3.568,3.568,0,0,0-2.275.762,2.324,2.324,0,0,0-.967,1.895H1.367a6.738,6.738,0,0,1,1.25-4,8.255,8.255,0,0,1,3.467-2.744,11.853,11.853,0,0,1,4.873-.986,11.646,11.646,0,0,1,7.461,2.168,7.207,7.207,0,0,1,2.715,5.957,6.007,6.007,0,0,1-1.123,3.467,8,8,0,0,1-3.271,2.646,7.646,7.646,0,0,1,3.555,2.49,6.558,6.558,0,0,1,1.289,4.131,7.338,7.338,0,0,1-2.93,6.094,12.161,12.161,0,0,1-7.7,2.285A12.611,12.611,0,0,1,5.771-.674,8.124,8.124,0,0,1,2.148-3.623,7.667,7.667,0,0,1,.918-7.91H7.539A2.964,2.964,0,0,0,8.594-5.645a3.723,3.723,0,0,0,2.6.957,3.9,3.9,0,0,0,2.773-.967A3.231,3.231,0,0,0,15-8.125a3.778,3.778,0,0,0-1.074-3.047,4.491,4.491,0,0,0-2.969-.9h-3.2Z" transform="translate(474.638 3781)" fill="#fff"/>
  </g>
</svg>
