<svg id="Grupo_156900" data-name="Grupo 156900" xmlns="http://www.w3.org/2000/svg" xmlns:xlink="http://www.w3.org/1999/xlink" width="363.082" height="361.29" viewBox="0 0 363.082 361.29">
  <defs>
    <clipPath id="clip-path">
      <rect id="Rectángulo_46881" data-name="Rectángulo 46881" width="363.082" height="361.29" fill="none"/>
    </clipPath>
  </defs>
  <g id="Grupo_156895" data-name="Grupo 156895">
    <g id="Grupo_156894" data-name="Grupo 156894" clip-path="url(#clip-path)">
      <path id="Trazado_222237" data-name="Trazado 222237" d="M362.775,134.354A134.354,134.354,0,1,1,228.421,0,134.354,134.354,0,0,1,362.775,134.354" transform="translate(-13.197)" fill="#c8eef3"/>
      <path id="Trazado_222238" data-name="Trazado 222238" d="M146.551,223.742a22.434,22.434,0,0,1,0,11.891l-6.057-1.615a16.283,16.283,0,0,1-1.667,4.027l5.427,3.137-.782,1.284c-.286.414-.591.815-.891,1.216l-.451.6c-.166.191-.338.375-.5.566l-1.012,1.107-1.113,1.012c-.184.171-.369.343-.56.5l-.6.452c-.407.3-.8.61-1.215.891l-1.285.782-3.136-5.427a16.223,16.223,0,0,1-4.028,1.667l1.616,6.058a22.462,22.462,0,0,1-11.892,0l1.616-6.058a16.223,16.223,0,0,1-4.028-1.667l-3.136,5.427-1.285-.782c-.414-.28-.814-.592-1.215-.891l-.6-.452c-.191-.159-.376-.331-.567-.5l-1.106-1.012-1.012-1.107c-.172-.191-.344-.375-.5-.566l-.451-.6c-.3-.4-.611-.8-.891-1.216l-.783-1.284,5.427-3.137a16.25,16.25,0,0,1-1.667-4.027l-6.057,1.615a22.435,22.435,0,0,1,0-11.891l6.057,1.615a16.25,16.25,0,0,1,1.667-4.027l-5.427-3.137.783-1.284c.279-.414.591-.808.891-1.216l.451-.6c.159-.191.331-.375.5-.56l1.012-1.113,1.106-1.012c.191-.165.376-.337.567-.5l.6-.452c.4-.3.8-.6,1.215-.891l1.285-.782,3.136,5.427a16.225,16.225,0,0,1,4.028-1.667l-1.616-6.058a22.461,22.461,0,0,1,11.892,0l-1.616,6.058a16.225,16.225,0,0,1,4.028,1.667l3.136-5.427,1.285.782c.414.286.808.592,1.215.891l.6.452c.191.165.376.337.56.5l1.113,1.012,1.012,1.113c.165.185.337.369.5.56l.451.6c.3.408.6.8.891,1.216l.782,1.284-5.427,3.137a16.283,16.283,0,0,1,1.667,4.027Zm-10.708,5.993a12.069,12.069,0,1,0-12.069,12.07,12.067,12.067,0,0,0,12.069-12.07" transform="translate(-14.218 -28.995)" fill="#9abbc0"/>
      <path id="Trazado_222239" data-name="Trazado 222239" d="M184.218,197.688a12.1,12.1,0,0,1-1.257,3.014l4.072,2.354-.589.962c-.215.31-.438.613-.668.915l-.334.445-.382.43-.756.827-.836.755c-.135.136-.278.263-.421.382l-.445.334c-.31.23-.6.461-.915.668l-.962.589-2.354-4.072a12.1,12.1,0,0,1-3.014,1.257l1.209,4.541a16.947,16.947,0,0,1-8.914,0l1.209-4.541a12.3,12.3,0,0,1-3.023-1.257l-2.345,4.072-.963-.589c-.309-.207-.612-.438-.914-.668l-.445-.334c-.144-.119-.286-.246-.43-.382l-.827-.755-.763-.827c-.127-.144-.254-.286-.374-.43l-.342-.445c-.223-.3-.453-.6-.668-.915l-.58-.962,4.064-2.354A12.412,12.412,0,0,1,160,197.688l-4.541,1.209a16.95,16.95,0,0,1,0-8.915l4.541,1.21a12.617,12.617,0,0,1,1.248-3.023l-4.064-2.345.58-.971c.215-.31.445-.6.668-.907l.342-.445c.119-.143.247-.286.374-.421l.763-.835.827-.763c.144-.12.286-.247.43-.374l.445-.342c.3-.223.6-.453.914-.668l.963-.58,2.345,4.064a12.616,12.616,0,0,1,3.023-1.248l-1.209-4.541a16.737,16.737,0,0,1,8.914,0l-1.209,4.541a12.411,12.411,0,0,1,3.014,1.248l2.354-4.064.962.58c.31.215.6.445.915.668l.445.342.421.374.836.763.756.835c.127.135.254.279.382.421l.334.445c.23.3.453.6.668.907l.589.971-4.072,2.345a12.3,12.3,0,0,1,1.257,3.023l4.541-1.21a16.95,16.95,0,0,1,0,8.915Z" transform="translate(-21.726 -24.857)" fill="#efe8f9"/>
      <path id="Trazado_222240" data-name="Trazado 222240" d="M135.228,178.92a13.072,13.072,0,0,1,0,6.918l-3.524-.94a9.488,9.488,0,0,1-.971,2.343l3.158,1.825-.455.748c-.167.241-.345.474-.518.707l-.263.348c-.1.111-.2.218-.292.329l-.589.644-.647.589c-.107.1-.215.2-.326.292l-.348.263c-.236.174-.466.355-.707.518l-.748.455-1.825-3.158a9.456,9.456,0,0,1-2.343.971l.94,3.524a13.072,13.072,0,0,1-6.918,0l.941-3.524a9.448,9.448,0,0,1-2.344-.971l-1.825,3.158-.747-.455c-.241-.163-.475-.345-.708-.518l-.348-.263c-.111-.092-.218-.193-.329-.292l-.644-.589-.589-.644c-.1-.111-.2-.218-.292-.329l-.263-.348c-.174-.233-.355-.466-.518-.707l-.456-.748,3.158-1.825a9.453,9.453,0,0,1-.97-2.343l-3.524.94a13.049,13.049,0,0,1,0-6.918l3.524.941a9.445,9.445,0,0,1,.97-2.344l-3.158-1.825.456-.747c.162-.241.344-.47.518-.708l.263-.348c.093-.111.193-.218.292-.325l.589-.648.644-.589c.111-.1.218-.2.329-.292l.348-.262c.233-.175.467-.352.708-.518l.747-.456,1.825,3.158a9.445,9.445,0,0,1,2.344-.97l-.941-3.524a13.048,13.048,0,0,1,6.918,0l-.94,3.524a9.452,9.452,0,0,1,2.343.97L129,170.8l.748.456c.241.167.47.344.707.518l.348.262c.111.1.218.2.326.292l.647.589.589.648c.1.107.2.214.292.325l.263.348c.174.237.352.467.518.708l.455.747-3.158,1.825a9.48,9.48,0,0,1,.971,2.344ZM129,182.407a7.022,7.022,0,1,0-7.022,7.022A7.021,7.021,0,0,0,129,182.407" transform="translate(-15.281 -23.708)" fill="#9abbc0"/>
      <path id="Trazado_222241" data-name="Trazado 222241" d="M409.337,107.2l.121,2.571-.121,2.577-.076,1.285c-.032.426-.114.846-.171,1.272l-.395,2.552c-.166.846-.408,1.673-.611,2.513l-7.177-1.921a31.765,31.765,0,0,1-3.2,7.711l6.438,3.723-1.342,2.208c-.484.706-1.012,1.387-1.527,2.074l-.776,1.031c-.273.331-.573.643-.859.961l-1.738,1.9L396,139.4c-.318.286-.636.579-.961.853l-1.031.782c-.693.509-1.368,1.037-2.081,1.521l-2.2,1.349L386,137.458a31.621,31.621,0,0,1-7.7,3.2l1.915,7.177c-.834.21-1.661.452-2.507.617l-2.552.395c-.426.057-.852.133-1.278.172l-1.285.07-2.571.121-2.571-.121-1.285-.07c-.432-.039-.852-.115-1.278-.172l-2.552-.395c-.846-.165-1.673-.408-2.513-.617l1.922-7.177a31.683,31.683,0,0,1-7.712-3.2l-3.722,6.445-2.208-1.349c-.706-.484-1.387-1.012-2.074-1.521L345,140.251c-.331-.273-.643-.567-.961-.853l-1.9-1.743-1.743-1.9c-.286-.318-.579-.63-.853-.961l-.776-1.031c-.515-.687-1.043-1.368-1.527-2.074l-1.349-2.208,6.445-3.723a31.8,31.8,0,0,1-3.2-7.711l-7.176,1.921c-.211-.84-.452-1.667-.611-2.513l-.4-2.552c-.051-.426-.133-.846-.172-1.272l-.07-1.285-.121-2.577.121-2.571.07-1.285c.039-.426.121-.853.172-1.278l.4-2.552c.159-.84.4-1.673.611-2.507l7.183,1.921a31.51,31.51,0,0,1,3.194-7.711l-6.445-3.729,1.349-2.2c.484-.707,1.012-1.388,1.527-2.081l.776-1.025c.273-.331.567-.642.853-.967l1.743-1.9,1.9-1.737c.318-.286.63-.579.961-.859l1.031-.776c.687-.509,1.368-1.037,2.074-1.527l2.208-1.342,3.722,6.438a31.907,31.907,0,0,1,7.712-3.194L359.819,71.7c.84-.2,1.667-.445,2.513-.611l2.552-.395c.426-.057.846-.139,1.278-.171l1.285-.07,2.571-.121,2.571.121,1.285.07c.426.032.852.114,1.278.171l2.552.395c.846.166,1.673.408,2.507.611L378.3,78.887A31.607,31.607,0,0,1,386,82.08l3.729-6.438,2.2,1.342c.713.49,1.388,1.018,2.081,1.527l1.031.776c.325.28.643.573.961.859l1.9,1.737,1.738,1.9c.286.325.585.636.859.967l.776,1.025c.515.693,1.043,1.374,1.527,2.081l1.342,2.2-6.438,3.729A31.515,31.515,0,0,1,400.9,101.5l7.183-1.921c.2.834.445,1.667.611,2.507l.395,2.552c.057.426.139.852.171,1.278Zm-21.366,2.571a17.952,17.952,0,1,0-17.952,17.952,17.951,17.951,0,0,0,17.952-17.952" transform="translate(-46.376 -9.867)" fill="#9abbc0"/>
      <path id="Trazado_222242" data-name="Trazado 222242" d="M331.024,67.545a22.435,22.435,0,0,1,0,11.891l-6.057-1.615a16.284,16.284,0,0,1-1.667,4.027l5.426,3.137-.782,1.284c-.286.414-.591.815-.891,1.216l-.451.6c-.166.191-.338.375-.5.566l-1.012,1.107-1.113,1.012c-.184.171-.369.343-.56.5l-.6.452c-.407.3-.8.61-1.215.891l-1.285.782-3.136-5.427a16.225,16.225,0,0,1-4.028,1.667l1.616,6.058a22.461,22.461,0,0,1-11.892,0l1.616-6.058a16.224,16.224,0,0,1-4.028-1.667l-3.136,5.427-1.285-.782c-.414-.28-.814-.592-1.215-.891l-.6-.452c-.191-.159-.376-.331-.567-.5l-1.106-1.012-1.012-1.107c-.172-.191-.344-.375-.5-.566l-.451-.6c-.3-.4-.611-.8-.891-1.216l-.783-1.284,5.427-3.137a16.252,16.252,0,0,1-1.667-4.027l-6.057,1.615a22.434,22.434,0,0,1,0-11.891l6.057,1.615a16.252,16.252,0,0,1,1.667-4.027L288.917,62l.783-1.284c.279-.414.591-.808.891-1.216l.451-.6c.159-.191.331-.375.5-.56l1.012-1.113,1.106-1.012c.191-.165.376-.337.567-.5l.6-.452c.4-.3.8-.6,1.215-.891l1.285-.782,3.136,5.427a16.224,16.224,0,0,1,4.028-1.667l-1.616-6.058a22.461,22.461,0,0,1,11.892,0l-1.616,6.058a16.225,16.225,0,0,1,4.028,1.667l3.136-5.427,1.285.782c.413.286.808.592,1.215.891l.6.452c.191.165.376.337.56.5l1.113,1.012,1.012,1.113c.165.185.337.369.5.56l.451.6c.3.408.6.8.891,1.216L328.726,62,323.3,65.133a16.284,16.284,0,0,1,1.667,4.027Zm-10.708,5.993a12.07,12.07,0,1,0-12.07,12.069,12.067,12.067,0,0,0,12.07-12.069" transform="translate(-40.097 -7.083)" fill="#9abbc0"/>
      <path id="Trazado_222243" data-name="Trazado 222243" d="M368.69,41.49a12.1,12.1,0,0,1-1.257,3.014l4.072,2.354-.589.962c-.215.31-.438.613-.668.915l-.334.445-.382.43-.756.827-.836.755c-.135.136-.278.263-.421.382l-.445.334c-.31.23-.6.461-.915.668l-.962.589-2.354-4.072a12.1,12.1,0,0,1-3.014,1.257l1.209,4.541a16.947,16.947,0,0,1-8.914,0l1.209-4.541a12.3,12.3,0,0,1-3.023-1.257l-2.345,4.072L347,52.576c-.31-.207-.612-.438-.914-.668l-.445-.334c-.144-.119-.286-.246-.43-.382l-.827-.755-.763-.827c-.127-.144-.254-.286-.374-.43l-.342-.445c-.223-.3-.453-.6-.668-.915l-.58-.962,4.064-2.354a12.409,12.409,0,0,1-1.248-3.014L339.934,42.7a16.95,16.95,0,0,1,0-8.915l4.541,1.21a12.613,12.613,0,0,1,1.248-3.023l-4.064-2.345.58-.971c.215-.31.445-.6.668-.906l.342-.446c.12-.143.247-.286.374-.421l.763-.835.827-.763c.144-.12.286-.247.43-.374l.445-.342c.3-.223.6-.453.914-.668l.963-.58,2.345,4.064a12.615,12.615,0,0,1,3.023-1.248l-1.209-4.541a16.738,16.738,0,0,1,8.914,0l-1.209,4.541a12.411,12.411,0,0,1,3.014,1.248l2.354-4.064.962.58c.31.215.6.445.915.668l.445.342.421.374.836.763.756.835c.127.135.254.279.382.421l.334.446c.23.3.453.6.668.906l.589.971-4.072,2.345a12.3,12.3,0,0,1,1.257,3.023l4.541-1.21a16.95,16.95,0,0,1,0,8.915Z" transform="translate(-47.605 -2.944)" fill="#9abbc0"/>
      <path id="Trazado_222244" data-name="Trazado 222244" d="M319.7,22.723a13.073,13.073,0,0,1,0,6.918l-3.524-.94a9.487,9.487,0,0,1-.971,2.343l3.158,1.825-.455.748c-.167.241-.345.474-.518.707l-.263.348c-.1.111-.2.218-.292.329l-.589.644-.647.589c-.107.1-.215.2-.326.292l-.348.263c-.236.174-.466.355-.707.518l-.748.455L311.645,34.6a9.455,9.455,0,0,1-2.343.971l.94,3.524a13.072,13.072,0,0,1-6.918,0l.941-3.524a9.449,9.449,0,0,1-2.344-.971L300.1,37.762l-.747-.455c-.241-.163-.475-.345-.708-.518l-.348-.263c-.111-.093-.218-.193-.329-.292l-.644-.589L296.73,35c-.1-.111-.2-.218-.292-.329l-.263-.348c-.174-.233-.355-.466-.518-.707l-.456-.748,3.158-1.825a9.455,9.455,0,0,1-.97-2.343l-3.524.94a13.048,13.048,0,0,1,0-6.918l3.524.941a9.447,9.447,0,0,1,.97-2.344L295.2,19.494l.456-.747c.162-.241.344-.47.518-.708l.263-.348c.093-.111.193-.218.292-.325l.589-.648.644-.589c.111-.1.218-.2.329-.292l.348-.262c.233-.175.467-.352.708-.518l.747-.456,1.825,3.158a9.447,9.447,0,0,1,2.344-.97l-.941-3.524a13.049,13.049,0,0,1,6.918,0l-.94,3.524a9.453,9.453,0,0,1,2.343.97L313.47,14.6l.748.456c.241.166.47.344.707.518l.348.262c.111.1.218.2.326.292l.647.589.589.648c.1.107.2.214.292.325l.263.348c.174.237.352.467.518.708l.455.747-3.158,1.825a9.48,9.48,0,0,1,.971,2.344Zm-6.23,3.487a7.022,7.022,0,1,0-7.022,7.022,7.021,7.021,0,0,0,7.022-7.022" transform="translate(-41.16 -1.795)" fill="#9abbc0"/>
      <path id="Trazado_222245" data-name="Trazado 222245" d="M135.2,365.337c-6.3-12.6-16.208-22.277-28.121-27.414-11.561-4.994-24.964-5.691-38.12-2.028,5.378,12.449,14.35,22.267,25.436,27.69,12.148,5.946,26.754,6.557,40.805,1.752" transform="translate(-9.674 -46.798)" fill="#fc8"/>
      <path id="Trazado_222246" data-name="Trazado 222246" d="M80.761,344.6c-.417-.133-.245-.793.175-.659q9.972,3.208,19.791,6.871l-6.211-9.371c-.242-.366.348-.708.59-.343l6.71,10.125q9.522,3.58,18.88,7.577c.45.193.9.393,1.347.586l-9.216-11.7c-.269-.34.206-.832.477-.487l9.982,12.676a.469.469,0,0,1,.036.072q4.152,1.808,8.273,3.687c.4.184.061.776-.336.593q-4.149-1.9-8.337-3.719-7.267,2.1-14.533,4.2a.341.341,0,0,1-.174-.659l13.73-3.969q-5.041-2.181-10.134-4.237-5.018-2.025-10.084-3.93a66.678,66.678,0,0,1-9.349,3.946c-.416.139-.591-.52-.175-.66a65.475,65.475,0,0,0,8.644-3.611q-4.377-1.636-8.785-3.19-5.626-1.97-11.3-3.8" transform="translate(-11.296 -47.831)" fill="#fff"/>
      <path id="Trazado_222247" data-name="Trazado 222247" d="M121.715,341.257c3.423,3.149,7,6.124,10.63,9.032q2.773,2.219,5.586,4.409c.462.362.927.736,1.4,1.1a1.624,1.624,0,0,0,1.116.44c.444-.052,6.144-7.248,8.664-10.617a73.177,73.177,0,0,0,6.467-10.143,50.422,50.422,0,0,0,2.4-5.391,22.012,22.012,0,0,0,1.579-5.862,5.3,5.3,0,0,0-1.746-4.66c-1.624-1.281-3.6-.671-5.2.336a40.049,40.049,0,0,0-8.567,7.557,63.447,63.447,0,0,0,.7-31.363,21.5,21.5,0,0,0-2.122-6.127,2.232,2.232,0,0,0-1.8-1.371,2.3,2.3,0,0,0-1.785,1.278,12.812,12.812,0,0,0-1.088,2.73q-.542,1.586-1.006,3.193a83.754,83.754,0,0,0-2.309,10.235,144.6,144.6,0,0,0-2.932-19.363,54.813,54.813,0,0,0-7.375-17.794c-1.578-2.357-3.495-5.091-6.33-6.009a3.114,3.114,0,0,0-3.57.862,5.328,5.328,0,0,0-.725,3.405,78.884,78.884,0,0,0,1.274,10.415c.635,3.564,1.455,7.091,2.4,10.575,1.7,6.326,3.788,12.534,5.911,18.719a33.326,33.326,0,0,0-8.913-7.8,15.316,15.316,0,0,0-5.58-2.187,4.069,4.069,0,0,0-2.794.25,1.954,1.954,0,0,0-.671,1.91,10.148,10.148,0,0,0,.814,2.6c.367.92.777,1.823,1.221,2.7a43.276,43.276,0,0,0,3.153,5.19c4.415,6.312,10.036,11.693,14.28,18.117a58.968,58.968,0,0,0-5.424-3.157c-1.1-.562-2.228-1.093-3.368-1.58a7.694,7.694,0,0,0-3.416-.855,3.107,3.107,0,0,0-2.859,3.423,10.422,10.422,0,0,0,2.326,5.669,48.3,48.3,0,0,0,4.576,5.188c1.642,1.7,3.344,3.346,5.089,4.949" transform="translate(-14.772 -36.847)" fill="#0ab1cb"/>
      <path id="Trazado_222248" data-name="Trazado 222248" d="M113.6,308.338c-.289-.3.18-.742.468-.444l16.666,17.236,3.677,3.8q-.62-3.042-1.228-6.087c-2.06-10.314-4.082-20.644-6.7-30.835-1.466-5.7-3.121-11.357-5.062-16.917-.137-.39.492-.535.628-.146a255.106,255.106,0,0,1,8.219,30.4c1.722,7.985,3.255,16.008,4.89,24.011a142.89,142.89,0,0,0,5.765-20.817q.622-3.165,1.1-6.356c.061-.4.706-.385.644.026a143.541,143.541,0,0,1-5.095,22.048q-.963,3.043-2.063,6.042a.337.337,0,0,1-.119.153c.4,1.948.8,3.9,1.219,5.841q1.2,5.561,2.559,11.086,5.687-7.007,11.17-14.177,1.581-2.07,3.144-4.152c.248-.329.8.008.548.34q-5.544,7.384-11.306,14.6-1.626,2.035-3.269,4.055a.448.448,0,0,1-.1.089c.449,1.792.908,3.581,1.394,5.363.109.4-.518.547-.628.147q-.8-2.927-1.526-5.873a155.269,155.269,0,0,0-13.587-11.4q-2.045-1.524-4.14-2.982c-.34-.236,0-.785.34-.547a156.841,156.841,0,0,1,14.335,11.268q1.4,1.243,2.775,2.524c-1.338-5.482-2.529-11-3.663-16.528L118.3,313.2l-4.7-4.858" transform="translate(-15.924 -38.54)" fill="#fff"/>
      <path id="Trazado_222249" data-name="Trazado 222249" d="M147.442,361.922c-.894-14.057,2.8-27.407,10.513-37.839,7.479-10.132,18.712-17.477,31.925-20.929,1.615,13.464-1.2,26.463-8.054,36.727-7.508,11.249-19.824,19.126-34.385,22.041" transform="translate(-20.666 -42.529)" fill="#fc8"/>
      <path id="Trazado_222250" data-name="Trazado 222250" d="M185.469,316.729c.293-.326-.188-.81-.482-.482q-7,7.789-13.648,15.894.326-5.611.653-11.224c.026-.438-.657-.437-.683,0q-.352,6.064-.706,12.126-6.428,7.884-12.5,16.047c-.292.394-.579.791-.869,1.186q1.038-7.376,2.077-14.753c.06-.429-.6-.615-.658-.181q-1.126,7.989-2.25,15.978a.362.362,0,0,0,.005.081q-2.681,3.651-5.3,7.349c-.253.359.338.7.589.344q2.628-3.732,5.335-7.407l14.674-3.68a.341.341,0,0,0-.181-.658l-13.864,3.477q3.261-4.419,6.628-8.76,3.318-4.275,6.738-8.468a66.984,66.984,0,0,0,10.065-1.293c.43-.089.248-.747-.181-.659a65.6,65.6,0,0,1-9.288,1.228q2.961-3.617,5.99-7.175,3.87-4.535,7.857-8.968" transform="translate(-21.19 -44.351)" fill="#fff"/>
      <path id="Trazado_222251" data-name="Trazado 222251" d="M333.229,363.026c6.3-12.6,16.208-22.277,28.121-27.414,11.561-4.994,24.964-5.691,38.12-2.028-5.378,12.449-14.35,22.267-25.436,27.69-12.148,5.946-26.754,6.557-40.805,1.752" transform="translate(-46.748 -46.474)" fill="#fc8"/>
      <path id="Trazado_222252" data-name="Trazado 222252" d="M390.116,342.293c.417-.134.245-.794-.175-.659q-9.972,3.208-19.791,6.871l6.211-9.371c.242-.366-.348-.708-.59-.343q-3.355,5.061-6.71,10.125-9.522,3.58-18.88,7.578c-.45.193-.9.393-1.347.586l9.216-11.7c.269-.341-.206-.832-.477-.487l-9.982,12.677a.463.463,0,0,0-.036.072q-4.152,1.808-8.273,3.687c-.4.184-.061.776.336.594q4.149-1.9,8.337-3.719l14.533,4.2a.342.342,0,0,0,.174-.66l-13.73-3.969q5.041-2.179,10.134-4.237,5.018-2.025,10.084-3.93a66.67,66.67,0,0,0,9.349,3.946c.416.14.591-.52.175-.659a65.6,65.6,0,0,1-8.644-3.612q4.377-1.636,8.785-3.189,5.626-1.972,11.3-3.8" transform="translate(-47.572 -47.506)" fill="#fff"/>
      <path id="Trazado_222253" data-name="Trazado 222253" d="M348.668,338.946c-3.423,3.149-7,6.124-10.63,9.032q-2.773,2.219-5.586,4.409c-.462.362-.927.736-1.4,1.1a1.624,1.624,0,0,1-1.116.44c-.444-.052-6.144-7.248-8.664-10.617a73.179,73.179,0,0,1-6.467-10.143,50.412,50.412,0,0,1-2.4-5.391,22.012,22.012,0,0,1-1.579-5.862,5.3,5.3,0,0,1,1.746-4.66c1.624-1.281,3.6-.671,5.2.336a40.051,40.051,0,0,1,8.567,7.557,63.447,63.447,0,0,1-.7-31.363,21.5,21.5,0,0,1,2.122-6.127,2.232,2.232,0,0,1,1.8-1.371,2.3,2.3,0,0,1,1.785,1.278,12.809,12.809,0,0,1,1.088,2.73q.542,1.586,1.006,3.193a83.765,83.765,0,0,1,2.309,10.235,144.594,144.594,0,0,1,2.932-19.363,54.813,54.813,0,0,1,7.375-17.794c1.578-2.357,3.495-5.091,6.33-6.009a3.114,3.114,0,0,1,3.57.862,5.329,5.329,0,0,1,.725,3.405,78.88,78.88,0,0,1-1.274,10.415c-.635,3.564-1.455,7.091-2.4,10.575-1.7,6.326-3.788,12.534-5.91,18.719a33.326,33.326,0,0,1,8.913-7.8,15.317,15.317,0,0,1,5.58-2.187,4.069,4.069,0,0,1,2.794.25,1.954,1.954,0,0,1,.671,1.91,10.146,10.146,0,0,1-.814,2.6c-.367.92-.777,1.823-1.221,2.7a43.274,43.274,0,0,1-3.153,5.19c-4.415,6.312-10.036,11.693-14.28,18.117a58.963,58.963,0,0,1,5.424-3.157c1.1-.562,2.228-1.093,3.367-1.58a7.694,7.694,0,0,1,3.417-.855,3.107,3.107,0,0,1,2.859,3.423,10.422,10.422,0,0,1-2.326,5.669A48.294,48.294,0,0,1,353.757,334c-1.642,1.7-3.344,3.346-5.089,4.949" transform="translate(-43.603 -36.523)" fill="#0ab1cb"/>
      <path id="Trazado_222254" data-name="Trazado 222254" d="M359.016,306.027c.289-.3-.18-.742-.468-.444L341.883,322.82l-3.677,3.8q.62-3.042,1.228-6.087c2.06-10.314,4.082-20.644,6.7-30.835,1.466-5.7,3.121-11.357,5.062-16.917.137-.39-.492-.535-.628-.146a255.111,255.111,0,0,0-8.219,30.4c-1.722,7.985-3.255,16.008-4.89,24.011a142.887,142.887,0,0,1-5.765-20.817q-.622-3.165-1.1-6.356c-.061-.4-.706-.385-.644.026a143.524,143.524,0,0,0,5.095,22.048q.963,3.043,2.063,6.042a.337.337,0,0,0,.119.153c-.4,1.948-.8,3.9-1.219,5.841q-1.2,5.561-2.559,11.086-5.687-7.008-11.17-14.178-1.581-2.07-3.144-4.152c-.248-.329-.8.008-.548.34q5.544,7.384,11.306,14.6,1.626,2.035,3.269,4.055a.43.43,0,0,0,.1.089c-.449,1.792-.908,3.581-1.394,5.363-.109.4.518.547.628.147q.8-2.927,1.526-5.873a155.26,155.26,0,0,1,13.587-11.4q2.045-1.524,4.14-2.982c.34-.236,0-.785-.34-.547A156.837,156.837,0,0,0,337.079,341.8q-1.4,1.243-2.775,2.524c1.338-5.482,2.529-11,3.663-16.528l16.352-16.911,4.7-4.858" transform="translate(-44.686 -38.216)" fill="#fff"/>
      <path id="Trazado_222255" data-name="Trazado 222255" d="M324.779,359.611c.894-14.057-2.8-27.407-10.513-37.839-7.479-10.132-18.712-17.478-31.925-20.93-1.615,13.465,1.2,26.464,8.054,36.728,7.508,11.249,19.824,19.126,34.385,22.041" transform="translate(-39.547 -42.205)" fill="#fc8"/>
      <path id="Trazado_222256" data-name="Trazado 222256" d="M288.139,314.419c-.293-.326.188-.81.482-.482q7,7.789,13.648,15.894-.326-5.611-.653-11.224c-.026-.438.657-.437.683,0q.352,6.064.706,12.126,6.429,7.884,12.5,16.047c.292.393.579.791.869,1.186q-1.038-7.376-2.077-14.753c-.06-.429.6-.615.658-.181q1.126,7.989,2.25,15.978a.365.365,0,0,1-.005.081q2.681,3.651,5.3,7.349c.253.359-.338.7-.589.344q-2.628-3.732-5.335-7.407l-14.674-3.68a.341.341,0,0,1,.181-.658l13.864,3.477q-3.261-4.419-6.628-8.76-3.318-4.275-6.738-8.468a66.981,66.981,0,0,1-10.066-1.293c-.43-.089-.248-.747.181-.659a65.6,65.6,0,0,0,9.288,1.228q-2.961-3.617-5.99-7.175-3.87-4.535-7.857-8.968" transform="translate(-40.41 -44.026)" fill="#fff"/>
      <path id="Trazado_222257" data-name="Trazado 222257" d="M342.469,373.683c0,5.335-51.042,9.659-114.006,9.659s-114.006-4.324-114.006-9.659,51.042-9.659,114.006-9.659,114.006,4.324,114.006,9.659" transform="translate(-16.057 -51.068)" fill="#c3c3e2"/>
      <path id="Trazado_222258" data-name="Trazado 222258" d="M140.64,407.435c0,5.335-31.484,9.659-70.32,9.659S0,412.769,0,407.435s31.484-9.659,70.32-9.659,70.32,4.324,70.32,9.659" transform="translate(0 -55.803)" fill="#c3c3e2"/>
      <path id="Trazado_222259" data-name="Trazado 222259" d="M66.021,255.489c-.058,1.518-3.358,86.246-8.968,104.584H40.465s-4.207-56.721,4.05-76.14c-10.41-33.088-10.732-56.144-8.852-70.309,6.031.908,41.28,5.825,60.459-.156l.009.016s4.512,103.471-1.691,147.811H75.4s-2.442-42.962,0-67.273Zm-.784-3.2L58.58,224.925l-14.066-4.256Z" transform="translate(-4.878 -29.947)" fill="#29273a"/>
      <path id="Trazado_222260" data-name="Trazado 222260" d="M112.062,407.887H92.115l-2.293-12.918-2.145,12.918H85.383l-1.377-22.471H98.417l3.786,10.93c9.215,1.188,9.858,11.541,9.858,11.541" transform="translate(-11.785 -54.069)" fill="#ffad36"/>
      <path id="Trazado_222261" data-name="Trazado 222261" d="M70.857,407.688H50.9L48.617,394.77l-2.145,12.918H44.178L42.727,384H56.792L61,396.147c9.207,1.188,9.858,11.541,9.858,11.541" transform="translate(-5.994 -53.87)" fill="#ffad36"/>
      <path id="Trazado_222262" data-name="Trazado 222262" d="M66.826,253.463,46.1,221.844,60.169,226.1Z" transform="translate(-6.468 -31.122)" fill="#11111c"/>
      <path id="Trazado_222263" data-name="Trazado 222263" d="M90.424,64.277a97.332,97.332,0,0,1-2.252,11.5c-.033.149-.058.289-.1.438A62.167,62.167,0,0,1,84.245,87.64c-.684,1.517-1.37,3.226-3.283,3.307-1.889.083-3.283-1.344-4.784-2.252a.41.41,0,0,1-.157-.181l-.189-.1c.429-1.493.941-2.979,1.411-4.454,1.146-3.588,2.1-7.474,1.2-11.079l.033-.009a9.916,9.916,0,0,1-.4-3.547,4.654,4.654,0,0,1,1.048-2.871,2.984,2.984,0,0,1,5.163,2.038,36.4,36.4,0,0,0,6.146-4.216" transform="translate(-10.638 -9.017)" fill="#fcb6bf"/>
      <path id="Trazado_222264" data-name="Trazado 222264" d="M89.871,50.248c-.66-.932-2.054-.726-3.193-.659-2.92.181-5.725-1.213-8.059-2.978-1.882-1.43-3.568-3.1-5.392-4.6a20.36,20.36,0,0,0-2.054-3.092,8.356,8.356,0,0,0-4.716-3.009,7.246,7.246,0,0,0-5.548,1.161,7.38,7.38,0,0,0-3,5.112.33.33,0,0,0,.071.261,14.588,14.588,0,0,0-7.976.229,9.809,9.809,0,0,0-5.891,6.588c-1.128,3.535-.886,7.3-1.6,10.911A22.316,22.316,0,0,1,37.9,69.521c-4.3,5.48-10.191,9.733-13.559,15.937A17.9,17.9,0,0,0,22,95.035a13.863,13.863,0,0,0,3.8,8.33c2.036,2.307,4.476,4.323,6.03,7.018,1.435,2.489,1.845,5.868,4.216,7.679a7.637,7.637,0,0,0,1.908,2.661c2.64,2.3,6.732,1.98,9.949.569s5.972-3.7,9.165-5.164c2.244-1.031,4.677-1.633,6.946-2.615a10.79,10.79,0,0,0,5.585-4.66c1.321-2.59.916-5.717.083-8.505s-2.062-5.477-2.359-8.373a20.2,20.2,0,0,1,.957-7.557c.429-1.492.941-2.978,1.411-4.454,1.147-3.588,2.1-7.474,1.2-11.079l.034-.008a9.921,9.921,0,0,1-.4-3.547,4.665,4.665,0,0,1,1.048-2.871,2.985,2.985,0,0,1,5.164,2.038,36.335,36.335,0,0,0,6.145-4.215,36.825,36.825,0,0,0,6.419-7.02c.618-.9,1.212-2.121.585-3.012M49.8,45.4a17.245,17.245,0,0,0-4.348,8.34c-.775,3.077-1.1,6.261-1.8,9.355a39.344,39.344,0,0,1-8.975,17.472c-2.566,2.871-5.568,5.387-7.664,8.62S23.86,96.7,25.625,100.123c1.658,3.209,5.337,4.917,7.226,7.994,1.287,2.1,1.667,4.7,2.269,7.127l.33,1.015c-.074-.1-.15-.2-.218-.306A30.446,30.446,0,0,1,33.2,111.3c-1.2-2.752-3.348-4.856-5.4-6.983-2.093-2.172-4.057-4.483-4.729-7.5a15.469,15.469,0,0,1,1.287-9.563c2.814-6.244,8.456-10.531,12.836-15.6a28.766,28.766,0,0,0,5.174-8.078c1.351-3.411,1.325-7.047,1.793-10.634.4-3.052,1.36-6.392,3.935-8.326a10.163,10.163,0,0,1,6.467-1.776A10,10,0,0,0,49.8,45.4m13.925-7.053a6.667,6.667,0,0,0-4.89,3.282A6.42,6.42,0,0,1,66.8,36.841a8.6,8.6,0,0,1,4.678,3.841,11.449,11.449,0,0,0-7.749-2.338" transform="translate(-3.082 -5.019)" fill="#29273a"/>
      <path id="Trazado_222265" data-name="Trazado 222265" d="M69.77,96.63c-.316-3,.1-6.3,2.179-8.629.353-.4-.229-.98-.584-.583-2.153,2.415-2.723,5.754-2.451,8.894.334,3.841,1.839,7.452,2.522,11.228.095.522.891.3.8-.219-.653-3.6-2.081-7.043-2.462-10.691" transform="translate(-9.659 -12.245)" fill="#fff"/>
      <path id="Trazado_222266" data-name="Trazado 222266" d="M69.929,115.18a5.554,5.554,0,0,1-2.945,4.636c-.47.248-.053.959.416.713a6.393,6.393,0,0,0,3.355-5.348c.021-.531-.8-.53-.825,0" transform="translate(-9.368 -16.103)" fill="#fff"/>
      <path id="Trazado_222267" data-name="Trazado 222267" d="M32.758,96.945A11.773,11.773,0,0,0,30.2,109.1c.186.493.984.279.8-.219a10.959,10.959,0,0,1,2.344-11.356c.371-.38-.211-.965-.583-.583" transform="translate(-4.137 -13.583)" fill="#fff"/>
      <path id="Trazado_222268" data-name="Trazado 222268" d="M38.361,92.606a.415.415,0,0,0-.564-.148l-2.9,2.217a.425.425,0,0,0-.148.564.415.415,0,0,0,.564.148l2.9-2.217a.425.425,0,0,0,.148-.564" transform="translate(-4.866 -12.962)" fill="#fff"/>
      <path id="Trazado_222269" data-name="Trazado 222269" d="M38.3,96.431a.416.416,0,0,0-.564-.148,10.486,10.486,0,0,0-2.9,2.9.412.412,0,1,0,.712.416,9.6,9.6,0,0,1,2.6-2.6.422.422,0,0,0,.148-.564" transform="translate(-4.879 -13.499)" fill="#fff"/>
      <path id="Trazado_222270" data-name="Trazado 222270" d="M81.494,71.793a2.668,2.668,0,0,0,1.067-.316,2.124,2.124,0,0,0,.713-.788,2.473,2.473,0,0,0-1.937-3.425,1.607,1.607,0,0,0-1.943,1.525c-.025.53.8.53.825,0a.774.774,0,0,1,.488-.694,1.3,1.3,0,0,1,.958.143,1.7,1.7,0,0,1,1.04,1.4,1.293,1.293,0,0,1-.928,1.285c-.377.086-.744.048-1.028.363a1.1,1.1,0,0,0-.222,1.016c.264.981,1.4,1.068,2.231.987a.424.424,0,0,0,.413-.412.416.416,0,0,0-.413-.413,1.872,1.872,0,0,1-1.237-.127c-.187-.128-.346-.487-.028-.548" transform="translate(-11.138 -9.431)" fill="#f490a2"/>
      <path id="Trazado_222271" data-name="Trazado 222271" d="M88.743,85.745c1.287.1,2.467,4.331,2.467,4.331a1.6,1.6,0,0,1,2.442-1.147c1.732.916,2.195,10.543,2.277,12.712l-4.719,1.048-.273.19c-1-1.5-1.781-2.607-2.194-3.094-1.2-1.419-4.414-1.914-7.383-2.038V97.74a26.313,26.313,0,0,1-1.394-5.585c-.494-4.818,2.326-4.3,2.326-4.3s-.758-6.854.24-9.263a1.24,1.24,0,0,1,.726-.809c1.361-.346,2.615,4.175,3.292,7.185.338,1.468.528,2.582.528,2.582s.388-1.914,1.666-1.806" transform="translate(-11.21 -10.91)" fill="#fcb6bf"/>
      <path id="Trazado_222272" data-name="Trazado 222272" d="M108.017,156.7a4.8,4.8,0,0,1-3.3,1.7c-2.937.329-5.981-1.1-8.3-2.772a26.332,26.332,0,0,1-3.712-3.324c.718,2.4,1.37,4.858,1.955,7.342.413,1.715.792,3.44,1.147,5.156a261.761,261.761,0,0,1,4.355,31.339,33.619,33.619,0,0,1-4.042,1.542c-19.179,5.981-54.428,1.064-60.458.156l-.892-.14c0-14.139,12.192-42.533,12.192-42.533l-9.132-27.973a7.641,7.641,0,0,0,1.914,2.673c2.64,2.3,6.732,1.98,9.949.569s5.972-3.7,9.165-5.163c2.244-1.032,4.678-1.633,6.946-2.615A10.788,10.788,0,0,0,71.39,118c1.321-2.59.916-5.716.083-8.5s-2.062-5.478-2.359-8.374A49.345,49.345,0,0,1,75.028,101c2.969.124,6.179.619,7.383,2.038.413.487,1.2,1.592,2.194,3.093l.273-.19L89.6,104.9l.784-.174s6.1,12.407,11.219,25.408a156.428,156.428,0,0,1,5.188,15.005q.471,1.5.892,3.019a38.286,38.286,0,0,1,1.088,4.71,4.984,4.984,0,0,1-.751,3.836" transform="translate(-4.878 -14.164)" fill="#15616d"/>
      <path id="Trazado_222273" data-name="Trazado 222273" d="M127.59,163.209c.438.643-.083,1.493-.619,2.07a24.756,24.756,0,0,1-21.39,7.523c-.354-1.715-.733-3.44-1.146-5.156a6.962,6.962,0,0,1,3.5-2.2c-.1-.354-.2-.717-.289-1.072,2.6,1.831,5.148,2.994,7.491,3.077,2.813.107,3.522-2.772,2.945-7.259a16.811,16.811,0,0,1,2.194-1.7,1.814,1.814,0,0,1,1.806-.363,1.7,1.7,0,0,1,.594,1.617,8.068,8.068,0,0,1-1.93,4.883,16.3,16.3,0,0,1,5.032-1.815c.643-.123,1.443-.148,1.815.4" transform="translate(-14.651 -22.165)" fill="#fcb6bf"/>
      <path id="Trazado_222274" data-name="Trazado 222274" d="M118.484,160.274c.578,4.488-.132,7.367-2.945,7.259-2.343-.083-4.892-1.246-7.49-3.077-.206-.743-.413-1.477-.61-2.219a1.378,1.378,0,0,1,.115-1.345,1.2,1.2,0,0,1,1.246-.075,4.429,4.429,0,0,1,2.524,2.5,9.569,9.569,0,0,1,1.345-3.729,2.006,2.006,0,0,1,1-.941c.874-.289,1.732.594,1.972,1.476a24.05,24.05,0,0,0,.512,2.714,16.352,16.352,0,0,1,2.334-2.565" transform="translate(-15.056 -22.249)" fill="#fcb6bf"/>
      <path id="Trazado_222275" data-name="Trazado 222275" d="M110.565,137.435Q104.6,125.672,97.87,114.314q-1.92-3.242-3.9-6.448c-.279-.451-.993-.037-.713.416q6.933,11.222,13.125,22.879,1.768,3.33,3.472,6.69c.241.474.953.057.713-.416" transform="translate(-13.074 -15.105)" fill="#29273a"/>
      <path id="Trazado_222276" data-name="Trazado 222276" d="M97.41,156.164Q88.68,147.707,80.3,138.9q-2.353-2.475-4.678-4.978c-.362-.389-.944.194-.583.584q8.273,8.9,16.905,17.464,2.426,2.405,4.879,4.781c.381.369.965-.213.583-.584" transform="translate(-10.512 -18.769)" fill="#29273a"/>
      <path id="Trazado_222277" data-name="Trazado 222277" d="M81.6,145.282l-9.444-5.412a.413.413,0,0,0-.416.712L81.188,146a.413.413,0,0,0,.416-.713" transform="translate(-10.037 -19.614)" fill="#29273a"/>
      <path id="Trazado_222278" data-name="Trazado 222278" d="M56.963,167.89l-4.885-8.413a.413.413,0,0,0-.713.417l4.885,8.412a.413.413,0,0,0,.713-.416" transform="translate(-7.198 -22.345)" fill="#29273a"/>
      <path id="Trazado_222279" data-name="Trazado 222279" d="M54.471,171.9a19.814,19.814,0,0,1-3.452-4.961c-.234-.477-.946-.059-.713.416a20.547,20.547,0,0,0,3.582,5.128c.367.385.949-.2.583-.583" transform="translate(-7.051 -23.39)" fill="#29273a"/>
      <path id="Trazado_222280" data-name="Trazado 222280" d="M98.954,107.788a1.2,1.2,0,0,0-1.354.568,1.12,1.12,0,0,0,.175,1.225,1.065,1.065,0,0,0,1.27.494,1.137,1.137,0,0,0,.818-1.15,1.261,1.261,0,0,0-.909-1.137" transform="translate(-13.677 -15.116)" fill="#fff"/>
      <path id="Trazado_222281" data-name="Trazado 222281" d="M87.374,86.767a41.2,41.2,0,0,0-1.462-4.437,14.444,14.444,0,0,0-1.878-3.687,2.378,2.378,0,0,0-1.408-1.066,1.014,1.014,0,0,0-1.13.816,7.774,7.774,0,0,0-.055,2.058q.037,1.134.18,2.26a25.491,25.491,0,0,0,1.064,4.736.385.385,0,0,0-.3.117,8.466,8.466,0,0,0-2.245,3.771.413.413,0,0,0,.8.219,7.627,7.627,0,0,1,2.033-3.406.408.408,0,0,0,.086-.126c.284.087.65-.119.528-.478a24.663,24.663,0,0,1-1.134-4.832c-.1-.78-.159-1.566-.182-2.351q-.015-.544-.008-1.089c0-.3-.083-1.069.444-.815a2.711,2.711,0,0,1,.8.842,7.944,7.944,0,0,1,.566.906,19.877,19.877,0,0,1,.947,2.091,41.075,41.075,0,0,1,1.565,4.692.413.413,0,0,0,.8-.219" transform="translate(-11.24 -10.882)" fill="#29273a"/>
      <path id="Trazado_222282" data-name="Trazado 222282" d="M112.055,165.226a.422.422,0,0,0-.413.413,7.443,7.443,0,0,1-.788,2.7.422.422,0,0,0,.149.564.416.416,0,0,0,.564-.148,8.447,8.447,0,0,0,.9-3.111.416.416,0,0,0-.413-.413" transform="translate(-15.544 -23.179)" fill="#29273a"/>
      <path id="Trazado_222283" data-name="Trazado 222283" d="M117,164.924a.416.416,0,0,0-.564.148,23.623,23.623,0,0,1-2.281,3.678.415.415,0,0,0,.149.565.423.423,0,0,0,.564-.148,23.588,23.588,0,0,0,2.28-3.679.422.422,0,0,0-.148-.564" transform="translate(-16.006 -23.129)" fill="#29273a"/>
      <path id="Trazado_222284" data-name="Trazado 222284" d="M123.585,165.437a.42.42,0,0,0-.583,0l-3.9,3.443a.412.412,0,0,0,.583.584l3.9-3.444a.416.416,0,0,0,0-.583" transform="translate(-16.692 -23.192)" fill="#29273a"/>
      <path id="Trazado_222285" data-name="Trazado 222285" d="M98.106,206.057a96.249,96.249,0,0,1-23.237,3.937,232.774,232.774,0,0,1-23.811-.142q-7.05-.324-14.09-.839c-.53-.039-.527.787,0,.825,8.221.6,16.463,1.054,24.7,1.194a145.118,145.118,0,0,0,23.684-1.262,85.57,85.57,0,0,0,12.968-2.918c.506-.157.29-.953-.219-.8" transform="translate(-5.131 -28.904)" fill="#a981e2"/>
      <path id="Trazado_222286" data-name="Trazado 222286" d="M97.855,198.185a176.841,176.841,0,0,1-23.29,3.631,177.723,177.723,0,0,1-23.477.506q-6.637-.3-13.24-1.091c-.525-.063-.52.763,0,.825a177.628,177.628,0,0,0,23.65,1.249,178.411,178.411,0,0,0,23.419-1.881q6.624-.972,13.158-2.445c.518-.116.3-.911-.218-.8" transform="translate(-5.254 -27.801)" fill="#a981e2"/>
      <path id="Trazado_222287" data-name="Trazado 222287" d="M229.128,148.6a6.393,6.393,0,0,1-3.914-.927c-.27-.138-.54-.285-.811-.424l-.015-.008c-.988-.518-1.968-1.051-2.949-1.59q-3.821-2.108-7.542-4.432a165.888,165.888,0,0,1-13.687-9.557l-8.322,25.368s5.141,6.547,9.14,21.253a177.038,177.038,0,0,1-31.567,3.412c-10.839.085-17.726-1.3-21.5-2.409a207.167,207.167,0,0,1,7.218-40.143,9.077,9.077,0,0,1-4.029-4.863q-5.374,4.272-10.754,8.546c-1.775,1.413-3.76,2.919-6.06,3.3a5.671,5.671,0,0,1-5.482-2.131c-3.018-3.821-1.3-9.249.572-13.193,3.343-7.057,9.164-12.283,15.317-16.923,3.913-3.767,8.245-7.4,11.734-8.924a39.183,39.183,0,0,1,10.514-3.042l3.327,14.559,4.671-4.222.015.015a8.635,8.635,0,0,0,7.813.177l.054-.07,3.975,3.3,4.733-14.506c4.1.687,12.615,2.354,15.478,4.794,2.417,2.062,6.107,6.925,8.492,10.221,1.467,1.691,2.91,3.4,4.307,5.142q2.734,3.4,5.311,6.916a58.736,58.736,0,0,1,4.547,7,21.978,21.978,0,0,1,2.7,7.79c.232,2.285-.726,5.126-3.288,5.574" transform="translate(-17.846 -14.192)" fill="#ffad36"/>
      <path id="Trazado_222288" data-name="Trazado 222288" d="M197.709,100.749s.88.124,2.27.355l-4.733,14.506-3.975-3.3-4.184-3.466Z" transform="translate(-26.246 -14.134)" fill="#fff"/>
      <path id="Trazado_222289" data-name="Trazado 222289" d="M172.767,194.446v.008c-7.1,5.952-14.112,6.493-18.242,6.1a16.373,16.373,0,0,1-3.744-.718q.161-3.9.486-7.8c3.776,1.112,10.661,2.494,21.5,2.409" transform="translate(-21.153 -26.941)" fill="#fff"/>
      <path id="Trazado_222290" data-name="Trazado 222290" d="M210.933,205.623l-1.135.155c-1.228.084-2.424.123-3.59.123-20.041,0-29.853-11.61-29.853-11.61v-.008a177.121,177.121,0,0,0,31.567-3.412,123.376,123.376,0,0,1,3.011,14.753" transform="translate(-24.741 -26.777)" fill="#fff"/>
      <path id="Trazado_222291" data-name="Trazado 222291" d="M190.666,113.635l-.054.07a8.63,8.63,0,0,1-7.812-.178l-.016-.015,3.7-3.343Z" transform="translate(-25.642 -15.455)" fill="#fff"/>
      <path id="Trazado_222292" data-name="Trazado 222292" d="M185.177,109l-3.7,3.343-4.671,4.223L173.481,102a18.7,18.7,0,0,1,3.612-.177Z" transform="translate(-24.337 -14.281)" fill="#fff"/>
      <path id="Trazado_222293" data-name="Trazado 222293" d="M171.448,111.824q-.9-.905-1.727-1.884-.2-.237-.395-.48c-.069-.085-.137-.171-.2-.257l-.036-.046c.031.04.051.068-.007-.008l-.008-.011c-.013-.016-.026-.034-.04-.05l.034.042c-.26-.343-.516-.689-.763-1.042a1.237,1.237,0,0,0-.692-.532,1.158,1.158,0,0,0-1.308,1.7,31.555,31.555,0,0,0,3.508,4.2,1.158,1.158,0,1,0,1.638-1.638" transform="translate(-23.307 -15.083)" fill="#f48b00"/>
      <path id="Trazado_222294" data-name="Trazado 222294" d="M169.564,109.421l-.021-.027.006.008.015.019" transform="translate(-23.785 -15.347)" fill="#f48b00"/>
      <path id="Trazado_222295" data-name="Trazado 222295" d="M161.958,113.666a1.181,1.181,0,0,0-1.584.415l-1.933,3.22a1.159,1.159,0,0,0,2,1.168q.963-1.609,1.93-3.219a1.171,1.171,0,0,0-.414-1.584" transform="translate(-22.206 -15.925)" fill="#f48b00"/>
      <path id="Trazado_222296" data-name="Trazado 222296" d="M148.881,126.02a1.264,1.264,0,0,0-.34-.818,1.156,1.156,0,0,0-1.637,0,1.11,1.11,0,0,0-.34.818q.268,2.146.537,4.293a1.267,1.267,0,0,0,.339.818,1.159,1.159,0,0,0,1.638,0,1.113,1.113,0,0,0,.34-.818q-.27-2.147-.537-4.293" transform="translate(-20.561 -17.517)" fill="#f48b00"/>
      <path id="Trazado_222297" data-name="Trazado 222297" d="M171.487,137.692l-3-2.368a1.259,1.259,0,0,0-.819-.34,1.177,1.177,0,0,0-.818.34,1.165,1.165,0,0,0-.34.818,1.119,1.119,0,0,0,.34.819l3,2.368a1.263,1.263,0,0,0,.819.339,1.158,1.158,0,0,0,1.158-1.158,1.119,1.119,0,0,0-.34-.818" transform="translate(-23.359 -18.937)" fill="#f48b00"/>
      <path id="Trazado_222298" data-name="Trazado 222298" d="M183.036,124.955a1.183,1.183,0,0,0-1.584-.415l-4.614,2.467a1.168,1.168,0,0,0-.415,1.584,1.183,1.183,0,0,0,1.584.416l4.614-2.468a1.168,1.168,0,0,0,.415-1.584" transform="translate(-24.728 -17.451)" fill="#f48b00"/>
      <path id="Trazado_222299" data-name="Trazado 222299" d="M167.816,121.4a1.239,1.239,0,0,0-.34-.818,1.157,1.157,0,0,0-1.976.818q.153,1.825.308,3.649a1.238,1.238,0,0,0,.339.819,1.159,1.159,0,0,0,1.977-.819q-.155-1.825-.308-3.649" transform="translate(-23.217 -16.869)" fill="#f48b00"/>
      <path id="Trazado_222300" data-name="Trazado 222300" d="M162.4,134.2a1.158,1.158,0,0,0-2.117-.277l-1.717,3.649a1.249,1.249,0,0,0-.117.892,1.158,1.158,0,0,0,2.117.277l1.717-3.649a1.249,1.249,0,0,0,.117-.892" transform="translate(-22.223 -18.71)" fill="#f48b00"/>
      <path id="Trazado_222301" data-name="Trazado 222301" d="M171.382,148.937a1.188,1.188,0,0,0-1.584-.415l-4.186,2.038a1.165,1.165,0,0,0-.414,1.584,1.187,1.187,0,0,0,1.584.415l4.186-2.038a1.166,1.166,0,0,0,.415-1.584" transform="translate(-23.153 -20.816)" fill="#f48b00"/>
      <path id="Trazado_222302" data-name="Trazado 222302" d="M182.127,142.032l-1.489-2.476a1.211,1.211,0,0,0-.692-.532,1.188,1.188,0,0,0-.892.117,1.169,1.169,0,0,0-.532.692,1.2,1.2,0,0,0,.116.892l1.49,2.476a1.205,1.205,0,0,0,.692.532,1.189,1.189,0,0,0,.892-.117,1.17,1.17,0,0,0,.532-.692,1.2,1.2,0,0,0-.117-.892" transform="translate(-25.039 -19.498)" fill="#f48b00"/>
      <path id="Trazado_222303" data-name="Trazado 222303" d="M194.522,131.088a1.176,1.176,0,0,0-1.425-.809l-4.507,1.394a1.158,1.158,0,1,0,.616,2.233l4.507-1.393a1.176,1.176,0,0,0,.809-1.425" transform="translate(-26.337 -18.27)" fill="#f48b00"/>
      <path id="Trazado_222304" data-name="Trazado 222304" d="M200.746,126.286l-2.361-3.219a1.254,1.254,0,0,0-.692-.532,1.185,1.185,0,0,0-.892.116,1.173,1.173,0,0,0-.532.692,1.128,1.128,0,0,0,.117.892l2.361,3.22a1.262,1.262,0,0,0,.692.532,1.189,1.189,0,0,0,.892-.117,1.173,1.173,0,0,0,.532-.692,1.135,1.135,0,0,0-.117-.892" transform="translate(-27.529 -17.185)" fill="#f48b00"/>
      <path id="Trazado_222305" data-name="Trazado 222305" d="M191.558,119.447a1.18,1.18,0,0,0-.692-.532,1.159,1.159,0,0,0-1.425.809l-.536,2.253a1.214,1.214,0,0,0,.117.892,1.158,1.158,0,0,0,2.117-.277l.536-2.253a1.218,1.218,0,0,0-.117-.892" transform="translate(-26.496 -16.677)" fill="#f48b00"/>
      <path id="Trazado_222306" data-name="Trazado 222306" d="M209.029,114.729a1.176,1.176,0,0,0-1.425-.809l-2.79.859a1.211,1.211,0,0,0-.692.532,1.158,1.158,0,0,0,1.308,1.7l2.79-.858a1.215,1.215,0,0,0,.692-.532,1.181,1.181,0,0,0,.117-.892" transform="translate(-28.614 -15.975)" fill="#f48b00"/>
      <path id="Trazado_222307" data-name="Trazado 222307" d="M216.4,109.725a1.13,1.13,0,0,0-.532-.692l-3.541-1.609a1.253,1.253,0,0,0-.892-.117,1.183,1.183,0,0,0-.692.532,1.17,1.17,0,0,0-.117.892,1.13,1.13,0,0,0,.532.692l3.541,1.609a1.254,1.254,0,0,0,.892.117,1.159,1.159,0,0,0,.809-1.425" transform="translate(-29.541 -15.048)" fill="#f48b00"/>
      <path id="Trazado_222308" data-name="Trazado 222308" d="M224.584,120.4l-1.609-3.326a1.172,1.172,0,0,0-.692-.532,1.184,1.184,0,0,0-.892.116,1.169,1.169,0,0,0-.532.693,1.292,1.292,0,0,0,.117.892l1.609,3.327a1.169,1.169,0,0,0,.692.532,1.189,1.189,0,0,0,.892-.117,1.173,1.173,0,0,0,.532-.692,1.294,1.294,0,0,0-.117-.892" transform="translate(-30.979 -16.344)" fill="#f48b00"/>
      <path id="Trazado_222309" data-name="Trazado 222309" d="M216.36,124.814a1.158,1.158,0,0,0-2.117.277q-.375,1.985-.751,3.97a1.244,1.244,0,0,0,.117.892,1.158,1.158,0,0,0,2.117-.277q.375-1.985.751-3.97a1.244,1.244,0,0,0-.117-.892" transform="translate(-29.946 -17.431)" fill="#f48b00"/>
      <path id="Trazado_222310" data-name="Trazado 222310" d="M227.279,135.1l-3.434.215a1.228,1.228,0,0,0-.819.339,1.159,1.159,0,0,0,.819,1.977l3.434-.215a1.221,1.221,0,0,0,.818-.34,1.157,1.157,0,0,0-.818-1.976" transform="translate(-31.24 -18.953)" fill="#f48b00"/>
      <path id="Trazado_222311" data-name="Trazado 222311" d="M230.957,130.02q-.375-1.716-.751-3.434a1.166,1.166,0,0,0-1.425-.809,1.184,1.184,0,0,0-.808,1.425l.751,3.434a1.167,1.167,0,0,0,1.425.809,1.185,1.185,0,0,0,.809-1.425" transform="translate(-31.977 -17.639)" fill="#f48b00"/>
      <path id="Trazado_222312" data-name="Trazado 222312" d="M205,141.752l-1.16-5.8a1.166,1.166,0,0,0-1.425-.808,1.187,1.187,0,0,0-.809,1.425q.58,2.9,1.16,5.8a1.165,1.165,0,0,0,1.425.81,1.188,1.188,0,0,0,.809-1.425" transform="translate(-28.28 -18.953)" fill="#f48b00"/>
      <path id="Trazado_222313" data-name="Trazado 222313" d="M195.726,144.189a1.158,1.158,0,0,0-2.117-.277,28.162,28.162,0,0,1-2.468,4.293,1.165,1.165,0,0,0,.416,1.584,1.188,1.188,0,0,0,1.584-.415,28.31,28.31,0,0,0,2.467-4.293,1.249,1.249,0,0,0,.117-.892" transform="translate(-26.792 -20.111)" fill="#f48b00"/>
      <path id="Trazado_222314" data-name="Trazado 222314" d="M200.511,157.754l-1.5-2.361a1.217,1.217,0,0,0-.692-.532,1.18,1.18,0,0,0-.892.117,1.164,1.164,0,0,0-.532.692,1.18,1.18,0,0,0,.116.892l1.5,2.361a1.221,1.221,0,0,0,.692.532,1.189,1.189,0,0,0,.892-.117,1.158,1.158,0,0,0,.415-1.584" transform="translate(-27.617 -21.72)" fill="#f48b00"/>
      <path id="Trazado_222315" data-name="Trazado 222315" d="M191.851,160.86a1.175,1.175,0,0,0-1.425.809q-.417,2.041-.832,4.083a1.158,1.158,0,1,0,2.234.616q.415-2.041.832-4.083a1.182,1.182,0,0,0-.809-1.425" transform="translate(-26.594 -22.563)" fill="#f48b00"/>
      <path id="Trazado_222316" data-name="Trazado 222316" d="M183.072,160.8l-1.288-2.79a1.158,1.158,0,0,0-.692-.532,1.159,1.159,0,0,0-1.425.809l-.041.308a1.156,1.156,0,0,0,.158.585l1.288,2.79a1.167,1.167,0,0,0,.692.532,1.189,1.189,0,0,0,.892-.117,1.173,1.173,0,0,0,.532-.692l.041-.308a1.154,1.154,0,0,0-.158-.585" transform="translate(-25.199 -22.088)" fill="#f48b00"/>
      <path id="Trazado_222317" data-name="Trazado 222317" d="M172.845,163.391l-4.614-1.4a1.158,1.158,0,0,0-.616,2.234l4.614,1.4a1.17,1.17,0,0,0,1.425-.809,1.182,1.182,0,0,0-.809-1.425" transform="translate(-23.396 -22.72)" fill="#f48b00"/>
      <path id="Trazado_222318" data-name="Trazado 222318" d="M160.109,168.624a1.183,1.183,0,0,0-.692-.532,1.168,1.168,0,0,0-.892.117,1.336,1.336,0,0,0-.532.692,2.968,2.968,0,0,1-.229.564c.063-.148.077-.182.043-.1l-.046.1c-.04.093-.082.186-.123.279q-.226.5-.473,1-.5,1-1.1,1.958a1.159,1.159,0,0,0,2,1.169,27.3,27.3,0,0,0,2.155-4.354,1.163,1.163,0,0,0-.117-.892" transform="translate(-21.873 -23.576)" fill="#f48b00"/>
      <path id="Trazado_222319" data-name="Trazado 222319" d="M167.908,178.378l-.859-3.862a1.166,1.166,0,0,0-1.424-.809,1.184,1.184,0,0,0-.809,1.425q.429,1.932.858,3.863a1.168,1.168,0,0,0,1.425.809,1.185,1.185,0,0,0,.809-1.425" transform="translate(-23.117 -24.363)" fill="#f48b00"/>
      <path id="Trazado_222320" data-name="Trazado 222320" d="M163,189.746l-2.134-2.372a1.158,1.158,0,0,0-1.976.819,1.259,1.259,0,0,0,.339.818l2.134,2.372a1.159,1.159,0,0,0,1.638,0,1.166,1.166,0,0,0,.34-.819,1.266,1.266,0,0,0-.34-.818" transform="translate(-22.291 -26.239)" fill="#f48b00"/>
      <path id="Trazado_222321" data-name="Trazado 222321" d="M180.729,180.36a1.18,1.18,0,0,0-1.584-.415l-4.185,2.361a1.158,1.158,0,0,0,1.169,2l4.185-2.361a1.171,1.171,0,0,0,.415-1.584" transform="translate(-24.464 -25.223)" fill="#f48b00"/>
      <path id="Trazado_222322" data-name="Trazado 222322" d="M190.858,176.616q-1.879-1.932-3.756-3.863a1.158,1.158,0,0,0-1.638,1.638q1.879,1.931,3.755,3.863a1.158,1.158,0,0,0,1.639-1.638" transform="translate(-25.972 -24.188)" fill="#f48b00"/>
      <path id="Trazado_222323" data-name="Trazado 222323" d="M192.991,187a1.183,1.183,0,0,0-1.425-.809l-6.223,1.5a1.168,1.168,0,0,0-.809,1.425,1.182,1.182,0,0,0,1.425.808l6.223-1.5a1.169,1.169,0,0,0,.809-1.425" transform="translate(-25.882 -26.115)" fill="#f48b00"/>
      <path id="Trazado_222324" data-name="Trazado 222324" d="M204.134,183.07l-1.394-4.185a1.158,1.158,0,1,0-2.234.616q.7,2.093,1.394,4.185a1.158,1.158,0,1,0,2.234-.616" transform="translate(-28.121 -24.975)" fill="#f48b00"/>
      <path id="Trazado_222325" data-name="Trazado 222325" d="M159.674,120.845a83.414,83.414,0,0,0-5.858,14.03c-.15.475.6.678.744.205a82.345,82.345,0,0,1,5.781-13.847c.233-.438-.433-.83-.666-.389" transform="translate(-21.576 -16.926)" fill="#29273a"/>
      <path id="Trazado_222326" data-name="Trazado 222326" d="M211.278,131.813l-2.068-8.255a.386.386,0,0,0-.745.205l2.068,8.255a.386.386,0,0,0,.745-.205" transform="translate(-29.243 -17.295)" fill="#29273a"/>
      <path id="Trazado_222327" data-name="Trazado 222327" d="M208.99,132.032l-2.79-4.078a.4.4,0,0,0-.528-.138.389.389,0,0,0-.139.528l2.791,4.078a.4.4,0,0,0,.528.138.389.389,0,0,0,.138-.528" transform="translate(-28.826 -17.924)" fill="#29273a"/>
      <path id="Trazado_222328" data-name="Trazado 222328" d="M193.648,116.665a33.159,33.159,0,0,0-7.51-6.408.33.33,0,0,0-.339-.021.321.321,0,0,0-.341.023,37.86,37.86,0,0,0-8.118,7.264c-.316.379.227.928.546.546a37.155,37.155,0,0,1,7.916-7.11,32.47,32.47,0,0,1,7.3,6.252c.326.376.87-.172.546-.546" transform="translate(-24.865 -15.459)" fill="#29273a"/>
      <path id="Trazado_222329" data-name="Trazado 222329" d="M209.523,226.2c-.132,23.137-1.057,82.187-1.057,82.187H185.29l-7.751-101.927-22.4-5.5v-.008c4.13.394,11.14-.146,18.242-6.1,0,0,9.812,11.611,29.854,11.611,1.165,0,2.362-.039,3.589-.124l1.135-.154a160.886,160.886,0,0,1,1.567,20.018" transform="translate(-21.764 -27.335)" fill="#15616d"/>
      <path id="Trazado_222330" data-name="Trazado 222330" d="M176.685,207.336,172.2,310.552H151.811c-5.365-47.107-1.273-109.446-1.273-109.446Z" transform="translate(-20.909 -28.213)" fill="#15616d"/>
      <path id="Trazado_222331" data-name="Trazado 222331" d="M176.928,207.336l-.479,10.947-25.668-17.177a16.373,16.373,0,0,0,3.744.718v.008Z" transform="translate(-21.153 -28.213)" fill="#29273a"/>
      <path id="Trazado_222332" data-name="Trazado 222332" d="M214.816,363.869c.107,5.1-5.906,10.731-5.906,10.731h-5.683s-5.851-4.832-5.905-7.836S199.792,354,199.792,354h11.372s3.543,4.778,3.652,9.874" transform="translate(-27.682 -49.661)" fill="#29273a"/>
      <path id="Trazado_222333" data-name="Trazado 222333" d="M167.061,355.621l-.316,12.768H136.158c-.695-8.53,18.566-12.768,18.566-12.768Z" transform="translate(-19.099 -49.889)" fill="#29273a"/>
      <path id="Trazado_222334" data-name="Trazado 222334" d="M170.518,328.412l-.757,23.392H157.425l-2.038-23.392Z" transform="translate(-21.799 -46.072)" fill="#fcb6bf"/>
      <path id="Trazado_222335" data-name="Trazado 222335" d="M211.73,326.912,210.657,350.2H199.285L193.7,326.912Z" transform="translate(-27.174 -45.862)" fill="#fcb6bf"/>
      <path id="Trazado_222336" data-name="Trazado 222336" d="M213.734,232.894q-.289-10.7-.808-21.392c-.024-.5-.8-.5-.772,0q.923,19.049,1.118,38.126t-.347,38.141q-.3,10.7-.836,21.391c-.025.5.747.5.772,0q.949-19.048,1.169-38.125t-.3-38.142" transform="translate(-29.754 -29.619)" fill="#29273a"/>
      <path id="Trazado_222337" data-name="Trazado 222337" d="M197.4,68.615c0,.186-.008.363-.023.549a8.756,8.756,0,0,1-4.223,6.739,11.383,11.383,0,0,1-.571,2.91v.008a12.338,12.338,0,0,1-23.338.525c-1.15-3.142-.988-6.616-.494-9.928.3-1.992.71-3.984,1-5.975.046-.317.092-.634.123-.958.046-.324.085-.648.108-.972.046-.417.077-.834.1-1.251a21.89,21.89,0,0,1,14.189-7.967,16.186,16.186,0,0,0,7.033,13.9,7.069,7.069,0,0,1,1.56-1.05,3.265,3.265,0,0,1,2.941-.046,3.87,3.87,0,0,1,1.59,3.521" transform="translate(-23.621 -7.336)" fill="#fcb6bf"/>
      <path id="Trazado_222338" data-name="Trazado 222338" d="M189.55,89.325a12.429,12.429,0,0,0,4.392-6.176c-.038.417-1.382,12.931-15.872,13.194l.595-5.1a12.528,12.528,0,0,0,10.885-1.915" transform="translate(-24.981 -11.665)" fill="#29273a"/>
      <path id="Trazado_222339" data-name="Trazado 222339" d="M206.565,44.7a9.155,9.155,0,0,0-.718-1.3,8.523,8.523,0,0,0-5.04-5.79,7.089,7.089,0,0,0-9.087,3.551,6.41,6.41,0,0,0-.247,4.123c-.178-.023-.363-.054-.541-.077a20.065,20.065,0,0,0-8.53-1.228c-.2.015-.394.039-.595.054a52.425,52.425,0,0,0-8.939-.093A13.943,13.943,0,0,0,166,45.926a7.118,7.118,0,0,0-3,6.091,9.764,9.764,0,0,0,3.466,6.855c.417.5,2.177,1.026,2.656,1.482.046-.324.085-.648.107-.972.046-.417.077-.834.1-1.251a21.89,21.89,0,0,1,14.19-7.967,16.185,16.185,0,0,0,7.032,13.9,7.089,7.089,0,0,1,1.56-1.05,3.265,3.265,0,0,1,2.942-.046,3.868,3.868,0,0,1,1.59,3.521c0,.185-.008.363-.022.548a8.762,8.762,0,0,1-4.223,6.739,11.384,11.384,0,0,1-.572,2.91v.008l1.282,7.751a5.768,5.768,0,0,0,4.863-2.463,10.978,10.978,0,0,0,1.845-5.666c.162-2.007.031-4.022.155-6.037.054-.9.162-1.8.285-2.7.456-3.257,1.181-6.5.857-9.727l.371-.039a4.91,4.91,0,0,0,3.35-1.521,8.56,8.56,0,0,0,1.9-3.235,11.589,11.589,0,0,0-.17-8.353m-39.456,4.331a6.012,6.012,0,0,0-3.127,2.47,2.58,2.58,0,0,0-.193.533,6.309,6.309,0,0,1,2.6-5.443,13.229,13.229,0,0,1,6.477-1.884,48.345,48.345,0,0,1,5.581-.108,58.949,58.949,0,0,0-11.34,4.432m33.134-9.6a7.4,7.4,0,0,0-7.48,3.018,5.666,5.666,0,0,0-.726,1.606,5.585,5.585,0,0,1,.208-2.077,5.765,5.765,0,0,1,3.1-3.5,7.011,7.011,0,0,1,8.708,2.7c.07.108.124.217.185.317a8.461,8.461,0,0,0-4-2.062" transform="translate(-22.867 -5.205)" fill="#29273a"/>
      <path id="Trazado_222340" data-name="Trazado 222340" d="M188.731,73.343A3.123,3.123,0,1,1,185.6,76.47a3.129,3.129,0,0,1,3.127-3.127" transform="translate(-26.038 -10.289)" fill="#f490a2"/>
      <path id="Trazado_222341" data-name="Trazado 222341" d="M178,70.712l1.259,6.223c-5.041,3.18-6.925,1.3-5.474-.147A47.343,47.343,0,0,0,178,70.712" transform="translate(-24.313 -9.92)" fill="#f490a2"/>
      <path id="Trazado_222342" data-name="Trazado 222342" d="M195.17,90.9l1.22,7.381-10.623,8.1-8.083-7.172.332-2.864c14.49-.263,15.833-12.777,15.872-13.194Z" transform="translate(-24.927 -11.665)" fill="#fcb6bf"/>
      <path id="Trazado_222343" data-name="Trazado 222343" d="M175.382,63.381a1.107,1.107,0,0,0-1.327-.753,23.518,23.518,0,0,0-3.5.932,1.153,1.153,0,0,0-.645.5,1.08,1.08,0,0,0,1.218,1.585,23.5,23.5,0,0,1,3.505-.932,1.087,1.087,0,0,0,.644-.5,1.1,1.1,0,0,0,.109-.831" transform="translate(-23.815 -8.783)" fill="#29273a"/>
      <path id="Trazado_222344" data-name="Trazado 222344" d="M189.435,63.165a34.106,34.106,0,0,0-4.748-1.229,1.079,1.079,0,1,0-.365,2.126q1.114.2,2.213.479.526.133,1.049.285c.174.051.349.1.52.156-.257-.086.061.02.113.037l.3.1a1.177,1.177,0,0,0,.837.034,1.078,1.078,0,0,0,.08-1.987" transform="translate(-25.733 -8.687)" fill="#29273a"/>
      <path id="Trazado_222345" data-name="Trazado 222345" d="M173.124,50.634a.4.4,0,0,0-.528-.138,22.293,22.293,0,0,0-3.118,1.652.386.386,0,0,0,.39.666,22.417,22.417,0,0,1,3.117-1.652.39.39,0,0,0,.138-.529" transform="translate(-23.749 -7.078)" fill="#fff"/>
      <path id="Trazado_222346" data-name="Trazado 222346" d="M211.89,47.22c-.2-.452-.868-.06-.666.389a8.183,8.183,0,0,1-1.176,8.434c-.317.378.226.927.546.545a8.986,8.986,0,0,0,1.3-9.368" transform="translate(-29.454 -6.596)" fill="#fff"/>
      <path id="Trazado_222347" data-name="Trazado 222347" d="M208.944,53.745a.394.394,0,0,0-.386.386,4.035,4.035,0,0,1-1.4,2.675.39.39,0,0,0,0,.546.4.4,0,0,0,.546,0,4.8,4.8,0,0,0,1.626-3.221.389.389,0,0,0-.386-.386" transform="translate(-29.046 -7.54)" fill="#fff"/>
      <path id="Trazado_222348" data-name="Trazado 222348" d="M174.469,68.7a1.4,1.4,0,1,1-1.377-1.643,1.528,1.528,0,0,1,1.377,1.643" transform="translate(-24.089 -9.407)" fill="#29273a"/>
      <path id="Trazado_222349" data-name="Trazado 222349" d="M187.642,68.129a1.4,1.4,0,1,1-1.377-1.643,1.528,1.528,0,0,1,1.377,1.643" transform="translate(-25.937 -9.327)" fill="#29273a"/>
      <path id="Trazado_222350" data-name="Trazado 222350" d="M183.479,83.258a2.262,2.262,0,0,0-1.047-1.435,1.5,1.5,0,0,0-1.672.168,2.129,2.129,0,0,0-.7,1.635.125.125,0,0,0,0,.018,2.043,2.043,0,0,0,.576,2,1.837,1.837,0,0,0,1.524.469,1.752,1.752,0,0,0,1.227-.984,2.654,2.654,0,0,0,.1-1.873" transform="translate(-25.252 -11.454)" fill="#f490a2"/>
      <path id="Trazado_222351" data-name="Trazado 222351" d="M183.176,82.068a8.573,8.573,0,0,1-3.8,2.156.386.386,0,0,0,.2.744,9.35,9.35,0,0,0,4.142-2.354c.356-.348-.19-.894-.546-.546" transform="translate(-25.126 -11.497)" fill="#29273a"/>
      <path id="Trazado_222352" data-name="Trazado 222352" d="M199.175,69.1c.467.173.668-.573.205-.745a1.472,1.472,0,0,0-1.794,1.042,7.562,7.562,0,0,0-.43,2.925,3.025,3.025,0,0,0,.175,1.294c.227.4.567.218.917.293.511.11.5.75.336,1.125a3.38,3.38,0,0,1-.957,1.079c-.376.326.173.87.546.546a3.012,3.012,0,0,0,1.294-2.052,1.4,1.4,0,0,0-1.219-1.476.815.815,0,0,0-.242.009c-.011-.086-.039-.2-.043-.244-.012-.119-.021-.239-.028-.359a8.364,8.364,0,0,1,.045-1.437c.067-.557.269-2.343,1.193-2" transform="translate(-27.658 -9.579)" fill="#f490a2"/>
      <path id="Trazado_222353" data-name="Trazado 222353" d="M167.392,54.423a.4.4,0,0,0-.528.138,3.9,3.9,0,0,0-.125,4.367c.271.414.94.028.666-.389a3.155,3.155,0,0,1,.125-3.588.388.388,0,0,0-.138-.528" transform="translate(-23.306 -7.628)" fill="#fff"/>
      <path id="Trazado_222354" data-name="Trazado 222354" d="M144.2,152.837h74.891V32.853H144.2ZM211.81,95.146H150.7V37.269H211.81Z" transform="translate(-20.229 -4.609)" fill="#fff"/>
    </g>
  </g>
  <text id="CV" transform="translate(131.185 104.916)" fill="#ffad36" font-size="13" font-family="Montserrat-ExtraBold, Montserrat" font-weight="800"><tspan x="0" y="0" letter-spacing="-0.001em">C</tspan><tspan y="0">V</tspan></text>
  <g id="Grupo_156897" data-name="Grupo 156897">
    <g id="Grupo_156896" data-name="Grupo 156896" clip-path="url(#clip-path)">
      <rect id="Rectángulo_46882" data-name="Rectángulo 46882" width="34.621" height="3.077" transform="translate(156.36 96.117)" fill="#b3b3ec"/>
      <rect id="Rectángulo_46883" data-name="Rectángulo 46883" width="34.621" height="3.077" transform="translate(156.36 101.847)" fill="#b3b3ec"/>
      <path id="Trazado_222355" data-name="Trazado 222355" d="M165.154,137.144H155.12V127.11h10.034Zm-8.942-1.092h7.849V128.2h-7.849Z" transform="translate(-21.762 -17.832)" fill="#b3b3ec"/>
      <path id="Trazado_222356" data-name="Trazado 222356" d="M165.154,151.954H155.12V141.92h10.034Zm-8.942-1.093h7.849v-7.849h-7.849Z" transform="translate(-21.762 -19.91)" fill="#b3b3ec"/>
      <path id="Trazado_222357" data-name="Trazado 222357" d="M165.154,166.208H155.12V156.174h10.034Zm-8.942-1.093h7.849v-7.849h-7.849Z" transform="translate(-21.762 -21.909)" fill="#b3b3ec"/>
      <rect id="Rectángulo_46884" data-name="Rectángulo 46884" width="45.646" height="1.485" transform="translate(145.309 110.837)" fill="#b3b3ec"/>
      <rect id="Rectángulo_46885" data-name="Rectángulo 46885" width="35.793" height="1.485" transform="translate(145.309 113.552)" fill="#b3b3ec"/>
      <rect id="Rectángulo_46886" data-name="Rectángulo 46886" width="45.646" height="1.485" transform="translate(145.309 124.165)" fill="#b3b3ec"/>
      <rect id="Rectángulo_46887" data-name="Rectángulo 46887" width="35.793" height="1.485" transform="translate(145.309 126.881)" fill="#b3b3ec"/>
      <rect id="Rectángulo_46888" data-name="Rectángulo 46888" width="45.646" height="1.485" transform="translate(145.309 136.751)" fill="#b3b3ec"/>
      <rect id="Rectángulo_46889" data-name="Rectángulo 46889" width="35.793" height="1.485" transform="translate(145.309 139.468)" fill="#b3b3ec"/>
      <path id="Trazado_222358" data-name="Trazado 222358" d="M160.73,134.969l-3.409-3.41,1.7-1.7,1.711,1.71,4.882-4.882,1.7,1.7Z" transform="translate(-22.07 -17.773)" fill="#ffc257"/>
      <path id="Trazado_222359" data-name="Trazado 222359" d="M160.73,150.2l-3.409-3.41,1.7-1.7,1.711,1.71,4.882-4.882,1.7,1.7Z" transform="translate(-22.07 -19.91)" fill="#ffc257"/>
      <path id="Trazado_222360" data-name="Trazado 222360" d="M160.73,163.694l-3.409-3.41,1.7-1.7,1.711,1.71,4.882-4.882,1.7,1.7Z" transform="translate(-22.07 -21.803)" fill="#ffc257"/>
      <path id="Trazado_222361" data-name="Trazado 222361" d="M250.322,144.158c-1.081,3.15-3.937,5.9-7.265,5.9a6.936,6.936,0,0,1-3.93-1.3A10.13,10.13,0,0,1,235.9,145c-1.374-2.748-1.691-5.891-1.984-8.956q-.73-7.63-1.459-15.27c-.093-.988-.193-1.976-.285-2.972l10.685-5.828c3.126,7.241,6.076,14.582,7.565,22.3.633,3.273.988,6.732-.1,9.882" transform="translate(-32.571 -15.709)" fill="#ffad36"/>
      <path id="Trazado_222362" data-name="Trazado 222362" d="M240.194,109.008l1.29-.51c.432,1,.872,1.992,1.3,2.988L232.1,117.314c-.154-1.644-.316-3.3-.47-4.941l.393-.154Z" transform="translate(-32.494 -15.221)" fill="#fff"/>
      <path id="Trazado_222363" data-name="Trazado 222363" d="M229.3,102.216a21.258,21.258,0,0,1-4.694.262,1.4,1.4,0,0,1-1.158-.463c-.293-.463.031-1.074.394-1.5a9.7,9.7,0,0,1,1.406-1.351,18.9,18.9,0,0,1-3.351-.355,1.234,1.234,0,0,1-.687-.293.877.877,0,0,1-.077-.965,2.386,2.386,0,0,1,.7-.741,17.123,17.123,0,0,1,1.891-1.273,10.9,10.9,0,0,1-1.66-.263,1.113,1.113,0,0,1-.648-.347.768.768,0,0,1-.015-.8,1.918,1.918,0,0,1,.579-.617A12.773,12.773,0,0,1,226,91.384c-.587.1-2.455-.408-2.6-.794a1.266,1.266,0,0,1,.278-1.235,3.067,3.067,0,0,1,1.1-.733,14.485,14.485,0,0,1,6.137-1.3,6.167,6.167,0,0,1,4.439,1.474c1.119,1.143,1.389,2.841,1.606,4.416q.868,6.414,1.744,12.823l-8.175,3.212a9.344,9.344,0,0,1-1.443-6,4.354,4.354,0,0,1,.216-1.034" transform="translate(-31.008 -12.251)" fill="#fcb6bf"/>
      <path id="Trazado_222364" data-name="Trazado 222364" d="M238.079,123.288a1.177,1.177,0,0,0-1.425.809,15.284,15.284,0,0,0-.411,4.814,1.158,1.158,0,1,0,2.316,0,14.251,14.251,0,0,1,0-2.226q.021-.257.05-.512c0-.033.008-.064.012-.1.014-.092.027-.183.042-.275.061-.366.138-.73.226-1.09a1.176,1.176,0,0,0-.809-1.425" transform="translate(-33.136 -17.291)" fill="#f48b00"/>
      <path id="Trazado_222365" data-name="Trazado 222365" d="M249.086,129.368a27.119,27.119,0,0,0-3.326-3.541,1.224,1.224,0,0,0-.819-.339,1.158,1.158,0,0,0-.818,1.976,27.12,27.12,0,0,1,3.326,3.541,1.159,1.159,0,0,0,.819.339,1.158,1.158,0,0,0,1.158-1.158,1.358,1.358,0,0,0-.34-.818" transform="translate(-34.201 -17.604)" fill="#f48b00"/>
      <path id="Trazado_222366" data-name="Trazado 222366" d="M242.95,136.14a1.182,1.182,0,0,0-1.425.809l-1.073,3.648a1.159,1.159,0,0,0,2.234.616l1.073-3.649a1.17,1.17,0,0,0-.809-1.425" transform="translate(-33.727 -19.094)" fill="#f48b00"/>
      <path id="Trazado_222367" data-name="Trazado 222367" d="M244.032,149.641l-2.258-2.356a1.157,1.157,0,0,0-1.638,0,1.165,1.165,0,0,0-.34.818,1.232,1.232,0,0,0,.34.819l2.258,2.356a1.159,1.159,0,0,0,1.638,0,1.166,1.166,0,0,0,.34-.819,1.232,1.232,0,0,0-.34-.818" transform="translate(-33.641 -20.615)" fill="#f48b00"/>
      <path id="Trazado_222368" data-name="Trazado 222368" d="M232.288,99.166l-5.744,1.058c-.487.089-.281.834.205.745l5.744-1.058c.487-.09.281-.834-.205-.745" transform="translate(-31.742 -13.911)" fill="#29273a"/>
      <path id="Trazado_222369" data-name="Trazado 222369" d="M230.609,94.637l-5.75,1.3c-.484.11-.279.855.205.745l5.75-1.3c.484-.11.279-.855-.205-.745" transform="translate(-31.506 -13.275)" fill="#29273a"/>
      <path id="Trazado_222370" data-name="Trazado 222370" d="M230.895,90.764q-2.186.211-4.345.632c-.487.1-.281.839.205.745q2.054-.4,4.139-.6a.4.4,0,0,0,.386-.386.389.389,0,0,0-.386-.386" transform="translate(-31.743 -12.733)" fill="#29273a"/>
      <path id="Trazado_222371" data-name="Trazado 222371" d="M140.131,114.966l-.417,4.3q-.753,7.967-1.521,15.934c-.293,3.065-.61,6.207-1.984,8.955a10.354,10.354,0,0,1-2.038,2.795c-.008.008-.015.008-.015.015l-2.046,1.474a6.638,6.638,0,0,1-3.049.772c-3.335,0-6.192-2.749-7.272-5.9s-.733-6.609-.1-9.882c1.59-8.252,4.849-16.065,8.207-23.793Z" transform="translate(-16.988 -15.381)" fill="#ffad36"/>
      <path id="Trazado_222372" data-name="Trazado 222372" d="M133.908,154.53l2.046-1.474a8.853,8.853,0,0,1-2.046,1.474" transform="translate(-18.786 -21.472)" fill="#ffad36"/>
      <path id="Trazado_222373" data-name="Trazado 222373" d="M150.314,92.907a1.927,1.927,0,0,1,.579.617.787.787,0,0,1-.007.8,1.131,1.131,0,0,1-.657.347,10.645,10.645,0,0,1-1.652.263,17.407,17.407,0,0,1,1.891,1.273,2.367,2.367,0,0,1,.695.741.863.863,0,0,1-.077.965,1.234,1.234,0,0,1-.687.293,18.722,18.722,0,0,1-3.35.355,9.754,9.754,0,0,1,1.413,1.351c.355.424.687,1.034.386,1.5a1.419,1.419,0,0,1-1.15.463,21.275,21.275,0,0,1-4.7-.262,4.335,4.335,0,0,1,.224,1.034,9.4,9.4,0,0,1-1.452,6l-8.175-3.212q.879-6.416,1.752-12.823c.217-1.583.487-3.274,1.6-4.416a6.142,6.142,0,0,1,4.446-1.474,14.6,14.6,0,0,1,6.137,1.29,3.232,3.232,0,0,1,1.1.741,1.252,1.252,0,0,1,.286,1.235c-.147.363-2.54.648-3.4.563-.093-.023-.186-.046-.279-.062a.672.672,0,0,0,.279.062,12.786,12.786,0,0,1,4.809,2.355" transform="translate(-18.742 -12.166)" fill="#fcb6bf"/>
      <path id="Trazado_222374" data-name="Trazado 222374" d="M141.452,111.618l.394.155c-.093.98-.186,1.968-.278,2.949l-10.237-5.327c.216-.5.432-1,.656-1.5l1.289.509Z" transform="translate(-18.424 -15.137)" fill="#fff"/>
      <path id="Trazado_222375" data-name="Trazado 222375" d="M136.044,120.173l-2.894-3.437a1.158,1.158,0,0,0-1.976.819,1.3,1.3,0,0,0,.34.818l2.893,3.437a1.158,1.158,0,0,0,1.977-.819,1.3,1.3,0,0,0-.34-.818" transform="translate(-18.402 -16.329)" fill="#f48b00"/>
      <path id="Trazado_222376" data-name="Trazado 222376" d="M134.6,128.961a1.158,1.158,0,0,0-2.117-.277q-.751,1.341-1.5,2.683a1.2,1.2,0,0,0-.117.892,1.158,1.158,0,0,0,2.117.277l1.5-2.682a1.206,1.206,0,0,0,.117-.892" transform="translate(-18.353 -17.974)" fill="#f48b00"/>
      <path id="Trazado_222377" data-name="Trazado 222377" d="M128.518,140.077q-.643-1.878-1.288-3.755a1.158,1.158,0,1,0-2.233.616l1.287,3.755a1.158,1.158,0,0,0,2.234-.616" transform="translate(-17.528 -19.004)" fill="#f48b00"/>
      <path id="Trazado_222378" data-name="Trazado 222378" d="M134.7,145.547a1.165,1.165,0,0,0-.818-.34l-.309.042a1.155,1.155,0,0,0-.511.3l-2.9,2.361a1.162,1.162,0,0,0-.339.818,1.156,1.156,0,0,0,1.158,1.158l.308-.041a1.155,1.155,0,0,0,.511-.3l2.9-2.361a1.16,1.16,0,0,0,.34-.819,1.177,1.177,0,0,0-.34-.818" transform="translate(-18.213 -20.371)" fill="#f48b00"/>
      <path id="Trazado_222379" data-name="Trazado 222379" d="M142.473,122.907c-.025-.494-.8-.5-.772,0a52.615,52.615,0,0,1-3.566,21.8c-.181.463.565.663.745.2a53.171,53.171,0,0,0,3.594-22" transform="translate(-19.375 -17.19)" fill="#29273a"/>
      <path id="Trazado_222380" data-name="Trazado 222380" d="M147.995,99.845l-5.836-1.626a.386.386,0,0,0-.205.745l5.836,1.626a.386.386,0,0,0,.205-.745" transform="translate(-19.876 -13.777)" fill="#29273a"/>
      <path id="Trazado_222381" data-name="Trazado 222381" d="M150.21,95.978q-3.37-.678-6.676-1.633a.386.386,0,0,0-.205.745q3.3.954,6.676,1.633c.486.1.693-.646.205-.745" transform="translate(-20.069 -13.233)" fill="#29273a"/>
      <path id="Trazado_222382" data-name="Trazado 222382" d="M147.246,90.677,143.776,90a.4.4,0,0,0-.475.27.388.388,0,0,0,.27.475l3.47.675a.4.4,0,0,0,.475-.27.39.39,0,0,0-.27-.475" transform="translate(-20.102 -12.625)" fill="#29273a"/>
      <path id="Trazado_222383" data-name="Trazado 222383" d="M343.314,334.268H321.8L305.44,232.449l-4.3,101.819H279.362c-.178-8.886-1.536-111.36-1.992-137.972,5.474,2.224,30.247,2.108,30.247,2.108,9.179-.394,21.824-1.359,28.24-2.108Z" transform="translate(-38.912 -27.538)" fill="#ffad36"/>
      <path id="Trazado_222384" data-name="Trazado 222384" d="M306.829,228.151,293.5,206.264c.039-2.115.124-4.755.239-7.812,2.3.186,4.826.332,7.551.417Z" transform="translate(-41.174 -27.84)" fill="#29273a"/>
      <path id="Trazado_222385" data-name="Trazado 222385" d="M348.043,356.782s2.355,14.374-.579,16.451c-7.658,5.42-19.563,1.22-19.6-2.865s2.509-13.587,2.509-13.587Z" transform="translate(-45.995 -50.052)" fill="#29273a"/>
      <path id="Trazado_222386" data-name="Trazado 222386" d="M297.05,356.782l-.857,12.375H254.058c1.358-8.839,22.033-12.375,22.033-12.375Z" transform="translate(-35.641 -50.052)" fill="#29273a"/>
      <path id="Trazado_222387" data-name="Trazado 222387" d="M344.084,274.856q-1.968-20.233-4.223-40.437-1.27-11.383-2.632-22.756c-.058-.487-.83-.493-.772,0q2.415,20.184,4.546,40.4t3.972,40.461c.692,7.6,1.353,30.651,1.985,38.261.041.492.813.5.772,0-1.121-13.506-2.337-42.443-3.649-55.932" transform="translate(-47.201 -29.642)" fill="#f48b00"/>
      <path id="Trazado_222388" data-name="Trazado 222388" d="M301.326,182.806c-2.725-.085-5.249-.231-7.55-.417,1.073-28.263,5.01-91.837,5.319-96.8,2.215.015,3.76.147,3.76.147s2.432,8.337,8.515,9.086S324.1,83.952,324.1,83.952s.278-.008.78.008l.548,97.851a163.557,163.557,0,0,1-24.1,1" transform="translate(-41.213 -11.777)" fill="#e9e2f2"/>
      <path id="Trazado_222389" data-name="Trazado 222389" d="M329.369,107.4l-26.337-.068-7.429-.019a.386.386,0,0,0,0,.772l26.336.068,7.43.019a.386.386,0,0,0,0-.772" transform="translate(-41.417 -15.054)" fill="#29273a"/>
      <path id="Trazado_222390" data-name="Trazado 222390" d="M324.966,116.228l-27.123,3.7-7.64,1.043c-.49.066-.282.811.2.745l27.124-3.7,7.64-1.043c.49-.067.281-.811-.205-.745" transform="translate(-40.673 -16.305)" fill="#29273a"/>
      <path id="Trazado_222391" data-name="Trazado 222391" d="M330.761,132.924l-30.019-.684-8.466-.193a.386.386,0,0,0,0,.772l30.019.684,8.467.193a.386.386,0,0,0,0-.772" transform="translate(-40.951 -18.524)" fill="#29273a"/>
      <path id="Trazado_222392" data-name="Trazado 222392" d="M328.354,142.031,301.116,144.7l-7.673.751c-.49.047-.5.82,0,.771l27.238-2.665,7.673-.751c.49-.048.5-.82,0-.772" transform="translate(-41.115 -19.925)" fill="#29273a"/>
      <path id="Trazado_222393" data-name="Trazado 222393" d="M328.019,156.61q-13.614.521-27.242.029-3.835-.139-7.667-.36c-.5-.028-.5.744,0,.772q13.6.779,27.237.546,3.836-.067,7.672-.215c.5-.019.5-.791,0-.772" transform="translate(-41.068 -21.924)" fill="#29273a"/>
      <path id="Trazado_222394" data-name="Trazado 222394" d="M327.767,164.325,301.81,165.93l-7.375.457c-.493.031-.5.8,0,.772l25.957-1.605,7.375-.456c.494-.03.5-.8,0-.772" transform="translate(-41.254 -23.053)" fill="#29273a"/>
      <path id="Trazado_222395" data-name="Trazado 222395" d="M327.277,180.283l-27.561-.655-7.779-.185a.386.386,0,0,0,0,.772l27.561.655,7.779.185a.386.386,0,0,0,0-.772" transform="translate(-40.903 -25.174)" fill="#29273a"/>
      <path id="Trazado_222396" data-name="Trazado 222396" d="M326.877,187.534l-28.723,2.5-8.042.7c-.492.043-.5.815,0,.772l28.722-2.5,8.043-.7c.491-.043.5-.815,0-.772" transform="translate(-40.647 -26.309)" fill="#29273a"/>
      <path id="Trazado_222397" data-name="Trazado 222397" d="M327.834,97.6,303.75,98.615l-6.812.286c-.5.021-.5.794,0,.772l24.085-1.014,6.812-.286c.5-.021.5-.793,0-.772" transform="translate(-41.605 -13.692)" fill="#29273a"/>
      <path id="Trazado_222398" data-name="Trazado 222398" d="M366.331,134.626c-.849,2.27-2.7,4.423-5.342,4.161a8.305,8.305,0,0,1-3.829-1.629,38.649,38.649,0,0,1-3.312-2.609,57.239,57.239,0,0,1-6.029-6.137,125.806,125.806,0,0,1-8.508-11.472l7.388,71.5a30.9,30.9,0,0,1-3.389,1.05,40.836,40.836,0,0,1-12.762,1.15l-.046-8.824-.548-97.851c3.312.085,16.443,1.166,23.6,12.738,1.1,1.775,2.315,3.952,3.589,6.369q1.818,3.011,3.4,6.137a86.5,86.5,0,0,1,3.536,8.044,51.056,51.056,0,0,1,2.625,8.607,16.5,16.5,0,0,1-.378,8.77" transform="translate(-46.289 -11.779)" fill="#15616d"/>
      <path id="Trazado_222399" data-name="Trazado 222399" d="M293.879,85.855c-.309,4.964-4.246,68.538-5.319,96.8-.116,3.057-.2,5.7-.239,7.812,0,0-8.392,1.39-13.865-.834a8.667,8.667,0,0,1-2.787-1.76l7.01-63.2a34.5,34.5,0,0,1-8.623,8.8,7.676,7.676,0,0,1-6.609,1.5,9.044,9.044,0,0,1-5.2-4.308c-2.3-4.068-1.876-9.125-.672-13.455a33.923,33.923,0,0,1,9.735-15.765c4.693-5.5,9.928-10.754,13.5-13.154,3.158-2.116,9.156-2.463,13.07-2.44" transform="translate(-35.997 -12.044)" fill="#15616d"/>
      <path id="Trazado_222400" data-name="Trazado 222400" d="M291.642,120.448c-.292-3.539-.56-7.083-.745-10.63a76.4,76.4,0,0,1,.013-9.95,34.311,34.311,0,0,1,2.517-10.909c.194-.451-.47-.845-.666-.389-2.669,6.2-2.982,13.031-2.71,19.689.3,7.3.953,14.613,1.734,21.879q.668,6.217,1.579,12.4c.073.49.817.282.745-.2-1.077-7.265-1.865-14.57-2.466-21.888" transform="translate(-40.68 -12.397)" fill="#29273a"/>
      <path id="Trazado_222401" data-name="Trazado 222401" d="M334.075,85.717c-.31-.389-.852.161-.546.546a14.145,14.145,0,0,1,2.619,8.919,90.364,90.364,0,0,1-1.057,10.743q-1.309,10.759-2.617,21.518L331,139.589c-.059.492.713.487.772,0q1.339-11,2.675-22,.669-5.5,1.338-11a108.236,108.236,0,0,0,1.135-10.938c.066-3.514-.607-7.13-2.841-9.938" transform="translate(-46.435 -12.006)" fill="#29273a"/>
      <path id="Trazado_222402" data-name="Trazado 222402" d="M341.5,104.026a122.33,122.33,0,0,0-.908,13.378.386.386,0,0,0,.772,0,122.315,122.315,0,0,1,.908-13.378c.06-.492-.712-.487-.772,0" transform="translate(-47.781 -14.542)" fill="#29273a"/>
      <path id="Trazado_222403" data-name="Trazado 222403" d="M343.723,113.837l-1.365,4.29c-.151.475.594.678.745.205l1.365-4.29c.151-.475-.594-.677-.744-.205" transform="translate(-48.026 -15.932)" fill="#29273a"/>
      <path id="Trazado_222404" data-name="Trazado 222404" d="M282.1,105.19a.386.386,0,0,0-.772,0,179.184,179.184,0,0,0,.5,19.242c.04.491.812.5.772,0a179.184,179.184,0,0,1-.5-19.242" transform="translate(-39.458 -14.705)" fill="#29273a"/>
      <path id="Trazado_222405" data-name="Trazado 222405" d="M323.091,64.986h.039C321.238,85.12,305.018,79.4,305.018,79.4l.556-3.474.193-.486a12.464,12.464,0,0,0,1.952.6,13.07,13.07,0,0,0,11.665-3.3,12.747,12.747,0,0,0,3.705-7.751" transform="translate(-42.79 -9.117)" fill="#29273a"/>
      <path id="Trazado_222406" data-name="Trazado 222406" d="M325.581,80.946s-6.655,11.626-12.731,10.869-8.515-9.086-8.515-9.086l.586-3.674s16.22,5.721,18.112-14.413H323a12.878,12.878,0,0,0,.031-2.116Z" transform="translate(-42.695 -8.772)" fill="#fcb6bf"/>
      <path id="Trazado_222407" data-name="Trazado 222407" d="M322.681,59.441v.008l.008.04a13.045,13.045,0,0,1-3.864,10.2,13.515,13.515,0,0,1-12.062,3.417,12.936,12.936,0,0,1-2.02-.622,13.993,13.993,0,0,1-7.655-7.4c-1.493-3.481-1.517-7.408-1.294-11.184.216-3.656.639-7.345.088-10.96a19.439,19.439,0,0,0,3.784.2c4.869-.207,9.6-1.628,14.321-2.874a2.573,2.573,0,0,1,2.411.184,2.548,2.548,0,0,1,.591,1.174q1.558,5.113,3.106,10.225l.127-.04a6.044,6.044,0,0,1,1.956-3.345,2.917,2.917,0,0,1,3.632-.032,2.532,2.532,0,0,1,.63.974,5,5,0,0,1,.3,1.613,10.1,10.1,0,0,1-4.063,8.422" transform="translate(-41.482 -5.62)" fill="#fcb6bf"/>
      <path id="Trazado_222408" data-name="Trazado 222408" d="M294.708,41.234a10.036,10.036,0,0,1-6.291-3.177c-.878-1.045-1.477-2.554-.83-3.752.735-1.381,2.6-1.58,4.159-1.58,2.427,0,4.957.032,7.121-1.046,1.74-.854,3.1-2.362,4.853-3.169a7,7,0,0,1,5.772.024,30.467,30.467,0,0,0,3.656,1.964,9.072,9.072,0,0,0,3.823.08,11.671,11.671,0,0,1,3.832-.112,3.625,3.625,0,0,1,2.866,2.283c.574,1.916-1.086,4.064-.279,5.892.5,1.134,1.772,1.684,2.626,2.578a4.236,4.236,0,0,1-.751,6.482,2.534,2.534,0,0,0-.631-.974,2.915,2.915,0,0,0-3.631.033,6.034,6.034,0,0,0-1.956,3.344l-.128.04q-1.557-5.113-3.105-10.226a2.565,2.565,0,0,0-.591-1.174,2.575,2.575,0,0,0-2.411-.184c-4.718,1.246-9.452,2.667-14.322,2.874a19.434,19.434,0,0,1-3.784-.2" transform="translate(-40.307 -3.914)" fill="#29273a"/>
      <path id="Trazado_222409" data-name="Trazado 222409" d="M305.33,55.258a7.3,7.3,0,0,1-3.392,8.789,3.486,3.486,0,0,1-1.829.5,1.707,1.707,0,0,1-1.517-1.006,1.81,1.81,0,0,1,.248-1.58,5.971,5.971,0,0,1,1.142-1.2,46.45,46.45,0,0,0,5.348-5.508" transform="translate(-41.876 -7.752)" fill="#f490a2"/>
      <path id="Trazado_222410" data-name="Trazado 222410" d="M312.675,65.057a9.168,9.168,0,0,1-4.416,3.657.411.411,0,0,0-.279.492.4.4,0,0,0,.491.279,10.07,10.07,0,0,0,4.893-4.024c.273-.437-.417-.837-.69-.4" transform="translate(-43.204 -9.101)" fill="#29273a"/>
      <path id="Trazado_222411" data-name="Trazado 222411" d="M303.5,47.579a1.21,1.21,0,0,0-.55-.715,1.383,1.383,0,0,0-.922-.121,20.959,20.959,0,0,0-3.927,1.009,1.282,1.282,0,0,0-.715.55,1.2,1.2,0,0,0,1.351,1.759,20.993,20.993,0,0,1,3.927-1.009,1.2,1.2,0,0,0,.716-.55,1.226,1.226,0,0,0,.12-.922" transform="translate(-41.696 -6.554)" fill="#29273a"/>
      <path id="Trazado_222412" data-name="Trazado 222412" d="M317,46.715a29.911,29.911,0,0,0-4.9-.675,1.2,1.2,0,0,0-1.2,1.2,1.225,1.225,0,0,0,1.2,1.2c.386.021.771.049,1.155.085q.266.026.531.056l.266.032.089.012c.746.11,1.488.241,2.224.4A1.2,1.2,0,1,0,317,46.715" transform="translate(-43.616 -6.459)" fill="#29273a"/>
      <path id="Trazado_222413" data-name="Trazado 222413" d="M298.978,40.53a10.688,10.688,0,0,1-8.17-3.484c-.346-.381-.91.186-.565.565a11.475,11.475,0,0,0,8.735,3.717c.512-.015.515-.813,0-.8" transform="translate(-40.703 -5.179)" fill="#fff"/>
      <path id="Trazado_222414" data-name="Trazado 222414" d="M301.937,39.3a5.4,5.4,0,0,1-3.58-.377.411.411,0,0,0-.546.144.4.4,0,0,0,.143.546,6.284,6.284,0,0,0,4.2.457c.5-.119.288-.889-.212-.769" transform="translate(-41.772 -5.454)" fill="#fff"/>
      <path id="Trazado_222415" data-name="Trazado 222415" d="M327.7,34.558a.409.409,0,0,0-.491-.279.4.4,0,0,0-.279.491,4.323,4.323,0,0,1-.536,4.017.4.4,0,0,0,.143.546.408.408,0,0,0,.546-.143,5.07,5.07,0,0,0,.616-4.633" transform="translate(-45.782 -4.807)" fill="#fff"/>
      <path id="Trazado_222416" data-name="Trazado 222416" d="M325.594,37.122a.41.41,0,0,0-.4-.4c-.194.009-.426.177-.4.4a2.864,2.864,0,0,1,.021.478c0,.043-.005.085-.009.128,0,.021-.009.16-.005.052a1.141,1.141,0,0,1-.041.22,2.609,2.609,0,0,1-.142.445l-.015.032c-.018.039-.038.077-.058.114-.04.076-.083.149-.129.221a.4.4,0,0,0,.143.546.407.407,0,0,0,.546-.144,3.193,3.193,0,0,0,.487-2.093" transform="translate(-45.504 -5.152)" fill="#fff"/>
      <path id="Trazado_222417" data-name="Trazado 222417" d="M302.217,52.811a1.446,1.446,0,1,1-1.424-1.7,1.58,1.58,0,0,1,1.424,1.7" transform="translate(-41.998 -7.17)" fill="#29273a"/>
      <path id="Trazado_222418" data-name="Trazado 222418" d="M314.182,52.22a1.446,1.446,0,1,1-1.424-1.7,1.58,1.58,0,0,1,1.424,1.7" transform="translate(-43.677 -7.088)" fill="#29273a"/>
      <path id="Trazado_222419" data-name="Trazado 222419" d="M327.605,51.763c.217-.331.65-.665,1.069-.485.467.2.873-.487.4-.689-1.278-.551-2.226.574-2.565,1.7a5.287,5.287,0,0,0,.368,3.876.4.4,0,0,0,.729-.1c.038-.132.251-.073.329,0,.216.187.113.625.044.852a2.48,2.48,0,0,1-1,1.319c-.424.286-.025.977.4.689a2.956,2.956,0,0,0,1.431-2.8,1.1,1.1,0,0,0-.968-.918,1.031,1.031,0,0,0-.476.08A4.392,4.392,0,0,1,327.161,53a3.332,3.332,0,0,1,.444-1.236" transform="translate(-45.776 -7.077)" fill="#f490a2"/>
      <path id="Trazado_222420" data-name="Trazado 222420" d="M321.871,59.569a2.829,2.829,0,1,1-2.829-2.829,2.829,2.829,0,0,1,2.829,2.829" transform="translate(-44.361 -7.96)" fill="#f490a2"/>
      <path id="Trazado_222421" data-name="Trazado 222421" d="M271.995,143.284h74.891V23.3H271.995Zm67.612-57.691H278.5V27.716h61.111Z" transform="translate(-38.158 -3.269)" fill="#fff"/>
    </g>
  </g>
  <text id="CV-2" data-name="CV" transform="translate(241.053 96.703)" fill="#ffad36" font-size="13" font-family="Montserrat-ExtraBold, Montserrat" font-weight="800"><tspan x="0" y="0" letter-spacing="-0.001em">C</tspan><tspan y="0">V</tspan></text>
  <g id="Grupo_156899" data-name="Grupo 156899">
    <g id="Grupo_156898" data-name="Grupo 156898" clip-path="url(#clip-path)">
      <rect id="Rectángulo_46891" data-name="Rectángulo 46891" width="34.621" height="3.077" transform="translate(266.229 87.905)" fill="#b3b3ec"/>
      <rect id="Rectángulo_46892" data-name="Rectángulo 46892" width="34.621" height="3.077" transform="translate(266.229 93.635)" fill="#b3b3ec"/>
      <path id="Trazado_222422" data-name="Trazado 222422" d="M292.951,127.591H282.917V117.557h10.034Zm-8.942-1.092h7.849V118.65h-7.849Z" transform="translate(-39.69 -16.492)" fill="#b3b3ec"/>
      <path id="Trazado_222423" data-name="Trazado 222423" d="M292.951,142.4H282.917V132.367h10.034Zm-8.942-1.093h7.849v-7.849h-7.849Z" transform="translate(-39.69 -18.57)" fill="#b3b3ec"/>
      <path id="Trazado_222424" data-name="Trazado 222424" d="M292.951,156.654H282.917V146.62h10.034Zm-8.942-1.092h7.849v-7.849h-7.849Z" transform="translate(-39.69 -20.569)" fill="#b3b3ec"/>
      <rect id="Rectángulo_46893" data-name="Rectángulo 46893" width="45.646" height="1.485" transform="translate(255.178 102.624)" fill="#b3b3ec"/>
      <rect id="Rectángulo_46894" data-name="Rectángulo 46894" width="35.793" height="1.485" transform="translate(255.178 105.34)" fill="#b3b3ec"/>
      <rect id="Rectángulo_46895" data-name="Rectángulo 46895" width="45.646" height="1.485" transform="translate(255.178 115.952)" fill="#b3b3ec"/>
      <rect id="Rectángulo_46896" data-name="Rectángulo 46896" width="35.793" height="1.485" transform="translate(255.178 118.668)" fill="#b3b3ec"/>
      <rect id="Rectángulo_46897" data-name="Rectángulo 46897" width="45.646" height="1.485" transform="translate(255.178 128.538)" fill="#b3b3ec"/>
      <rect id="Rectángulo_46898" data-name="Rectángulo 46898" width="35.793" height="1.485" transform="translate(255.178 131.255)" fill="#b3b3ec"/>
      <path id="Trazado_222425" data-name="Trazado 222425" d="M288.527,125.416l-3.409-3.41,1.7-1.7,1.711,1.71,4.882-4.882,1.7,1.7Z" transform="translate(-39.999 -16.433)" fill="#ffc257"/>
      <path id="Trazado_222426" data-name="Trazado 222426" d="M288.527,140.646l-3.409-3.41,1.7-1.7,1.711,1.71,4.882-4.882,1.7,1.7Z" transform="translate(-39.999 -18.569)" fill="#ffc257"/>
      <path id="Trazado_222427" data-name="Trazado 222427" d="M288.527,154.141l-3.409-3.41,1.7-1.7,1.711,1.71,4.882-4.882,1.7,1.7Z" transform="translate(-39.999 -20.463)" fill="#ffc257"/>
      <path id="Trazado_222428" data-name="Trazado 222428" d="M267.023,133.705a5.6,5.6,0,0,1-1.545,1.13h-.008a7.372,7.372,0,0,1-3.3.777,9.121,9.121,0,0,1-6.526-2.735c-2.432-2.52-3.178-6.2-3.542-9.686a68.108,68.108,0,0,1,4.814-33.014c.431.173.854.338,1.284.511q3.955,1.571,7.9,3.133c0,.063.009.117.013.179q.4,4.769.806,9.53.909,10.763,1.828,21.525c.252,3.024.379,6.457-1.725,8.651" transform="translate(-35.316 -12.651)" fill="#15616d"/>
      <path id="Trazado_222429" data-name="Trazado 222429" d="M267.155,91.359q-3.943-1.571-7.9-3.134l.045-.113q1.135-4.792,2.389-9.547a9.471,9.471,0,0,1,1.805-4.06,6.453,6.453,0,0,1,4.753-1.881,19.213,19.213,0,0,1,5.165.921,4.322,4.322,0,0,1,1.681.726,1.481,1.481,0,0,1,.512,1.647.97.97,0,0,1-1.248.451l-.071.158a21.657,21.657,0,0,1,3.87,2.265,2.584,2.584,0,0,1,.845.863.985.985,0,0,1-.107,1.131,1.383,1.383,0,0,1-1.014.272,21.584,21.584,0,0,1-3.517-.288,16.455,16.455,0,0,1,1.59,1.611c.34.391.679.922.45,1.388a1.124,1.124,0,0,1-1.3.41c-.32-.082-.621-.23-.932-.327a14.525,14.525,0,0,1,1.792,1.979c.2.267.387.649.171.9a.777.777,0,0,1-.644.155q-2.99-.226-5.942-.727a6.032,6.032,0,0,1-2.234,5.265,1.29,1.29,0,0,0-.158-.064" transform="translate(-36.37 -10.188)" fill="#fcb6bf"/>
      <path id="Trazado_222430" data-name="Trazado 222430" d="M270.041,106.77c-.074-.491-.83-.33-.756.161a144.584,144.584,0,0,1,1.61,22.713c0,.5.766.544.77.046a145.972,145.972,0,0,0-1.625-22.92" transform="translate(-37.777 -14.937)" fill="#29273a"/>
      <path id="Trazado_222431" data-name="Trazado 222431" d="M274.468,85.115a27.153,27.153,0,0,0-6.184-2.265c-.48-.111-.733.619-.249.731a26.388,26.388,0,0,1,6,2.177c.438.224.871-.417.43-.642" transform="translate(-37.566 -11.621)" fill="#29273a"/>
      <path id="Trazado_222432" data-name="Trazado 222432" d="M275.81,81.593a50.789,50.789,0,0,0-5.536-1.781c-.479-.125-.731.605-.249.731a50.786,50.786,0,0,1,5.536,1.781c.464.18.712-.552.249-.731" transform="translate(-37.845 -11.195)" fill="#29273a"/>
      <path id="Trazado_222433" data-name="Trazado 222433" d="M276.462,77.138,270.774,76.1a.388.388,0,0,0-.408.362.394.394,0,0,0,.362.408l5.688,1.043a.388.388,0,0,0,.408-.362.4.4,0,0,0-.362-.408" transform="translate(-37.929 -10.675)" fill="#29273a"/>
      <path id="Trazado_222434" data-name="Trazado 222434" d="M362.988,98.35l-.155.046a6.018,6.018,0,0,1-1.922-5.381c-1.983.216-3.975.332-5.975.363a.757.757,0,0,1-.633-.185c-.2-.263.008-.641.224-.888a14.991,14.991,0,0,1,1.9-1.868c-.316.085-.625.208-.941.27a1.123,1.123,0,0,1-1.274-.487c-.193-.478.178-.988.541-1.366a15.484,15.484,0,0,1,1.682-1.505,22.4,22.4,0,0,1-3.528.077,1.429,1.429,0,0,1-1-.332.987.987,0,0,1-.046-1.135,2.629,2.629,0,0,1,.9-.818,21.6,21.6,0,0,1,3.991-2.031,20.833,20.833,0,0,1,3.714-1.088l-.317-2.285a12.7,12.7,0,0,1,2.865-.155,6.43,6.43,0,0,1,4.632,2.154,9.509,9.509,0,0,1,1.56,4.161q.972,4.828,1.814,9.68l.039.116q-4.042,1.321-8.075,2.656" transform="translate(-49.34 -11.161)" fill="#fcb6bf"/>
      <path id="Trazado_222435" data-name="Trazado 222435" d="M357.3,82.987a.968.968,0,0,1-1.22-.533,1.47,1.47,0,0,1,.61-1.605,4.333,4.333,0,0,1,1.721-.634c.78-.169,1.56-.332,2.347-.448l.316,2.285a20.9,20.9,0,0,0-3.713,1.089Z" transform="translate(-49.945 -11.19)" fill="#fcb6bf"/>
      <path id="Trazado_222436" data-name="Trazado 222436" d="M376.261,131.067c-.572,3.451-1.536,7.079-4.115,9.449a8.563,8.563,0,0,1-1.112.865,9.036,9.036,0,0,1-5.559,1.474,7.366,7.366,0,0,1-2.107-.44c-.95-.617-1.93-1.343-2.926-2.13-1.628-2.293-1.32-5.512-.91-8.353q1.309-8.952,2.609-17.918.937-6.474,1.876-12.939l.023-.162q4.03-1.331,8.075-2.656c.44-.146.873-.285,1.312-.432a68.1,68.1,0,0,1,2.834,33.242" transform="translate(-50.392 -13.724)" fill="#15616d"/>
      <path id="Trazado_222437" data-name="Trazado 222437" d="M361.5,118.323a121.974,121.974,0,0,0-1.487,16.764.386.386,0,0,0,.771,0,120.468,120.468,0,0,1,1.461-16.559c.077-.487-.667-.7-.745-.205" transform="translate(-50.505 -16.56)" fill="#29273a"/>
      <path id="Trazado_222438" data-name="Trazado 222438" d="M364.66,89.5a32.771,32.771,0,0,0-6.545,1.553c-.467.163-.267.909.2.745a31.808,31.808,0,0,1,6.34-1.525.4.4,0,0,0,.385-.386.388.388,0,0,0-.385-.386" transform="translate(-50.202 -12.556)" fill="#29273a"/>
      <path id="Trazado_222439" data-name="Trazado 222439" d="M363.618,86.129a18.715,18.715,0,0,0-6.1,1.55c-.453.2-.061.867.389.667a17.585,17.585,0,0,1,5.707-1.445c.492-.04.5-.812,0-.772" transform="translate(-50.128 -12.083)" fill="#29273a"/>
      <path id="Trazado_222440" data-name="Trazado 222440" d="M362.333,81.8l-4.72,1.026c-.486.106-.28.849.205.745l4.72-1.026c.485-.106.279-.85-.205-.745" transform="translate(-50.13 -11.475)" fill="#29273a"/>
    </g>
  </g>
</svg>
