<svg id="Grupo_157186" data-name="Grupo 157186" xmlns="http://www.w3.org/2000/svg" xmlns:xlink="http://www.w3.org/1999/xlink" width="246.856" height="197.251" viewBox="0 0 246.856 197.251">
  <defs>
    <clipPath id="clip-path">
      <rect id="Rectángulo_47003" data-name="Rectángulo 47003" width="246.856" height="197.251" fill="none"/>
    </clipPath>
  </defs>
  <g id="Grupo_156945" data-name="Grupo 156945" transform="translate(0 0)" clip-path="url(#clip-path)">
    <path id="Trazado_222575" data-name="Trazado 222575" d="M9.885,9.474v60.4S36.8,88.983,76.524,88.983s66.635-19.109,66.635-19.109V9.474Z" transform="translate(26.354 24.417)" fill="#002541"/>
    <path id="Trazado_222576" data-name="Trazado 222576" d="M6.276,7.871A3.792,3.792,0,0,0,2.438,11.62V45.535A3.791,3.791,0,0,0,6.276,49.28a3.8,3.8,0,0,0,3.842-3.745V11.62A3.8,3.8,0,0,0,6.276,7.871" transform="translate(6.5 20.286)" fill="#fdc00e"/>
    <path id="Trazado_222577" data-name="Trazado 222577" d="M102.878,0,0,30.177,102.878,64.088,205.752,30.177Z" transform="translate(-0.001 0.001)" fill="#004592"/>
    <path id="Trazado_222578" data-name="Trazado 222578" d="M180.212,25.789H25v105H149.226l30.986-30.234Z" transform="translate(66.644 66.463)" fill="#4fc2d9"/>
    <rect id="Rectángulo_46998" data-name="Rectángulo 46998" width="77.608" height="105" transform="translate(91.641 92.251)" fill="#96e0f4"/>
    <path id="Trazado_222579" data-name="Trazado 222579" d="M58.883,76.921l30.986-30.23H58.883Z" transform="translate(156.988 120.33)" fill="#1490bd"/>
    <path id="Trazado_222580" data-name="Trazado 222580" d="M46.924,38.59l-15.893,42.6,12.285-5.548,12.63-33.85Z" transform="translate(82.732 99.453)" fill="#fca710"/>
    <path id="Trazado_222581" data-name="Trazado 222581" d="M43.451,38.59l15.893,42.6L47.055,75.645,34.429,41.795Z" transform="translate(91.791 99.453)" fill="#f28b0f"/>
    <path id="Trazado_222582" data-name="Trazado 222582" d="M56.533,32.1h0a3.422,3.422,0,0,0,5.107,1.334A3.375,3.375,0,0,1,67,36.454,3.339,3.339,0,0,0,70.743,40.1a3.305,3.305,0,0,1,3.1,5.237,3.263,3.263,0,0,0,1.367,4.983,3.268,3.268,0,0,1,0,6.045,3.259,3.259,0,0,0-1.367,4.979,3.305,3.305,0,0,1-3.1,5.237A3.342,3.342,0,0,0,67,70.226a3.375,3.375,0,0,1-5.363,3.023,3.423,3.423,0,0,0-5.107,1.338,3.415,3.415,0,0,1-6.2,0,3.423,3.423,0,0,0-5.107-1.338,3.375,3.375,0,0,1-5.363-3.023,3.341,3.341,0,0,0-3.736-3.645,3.306,3.306,0,0,1-3.1-5.237,3.259,3.259,0,0,0-1.367-4.979,3.268,3.268,0,0,1,0-6.045,3.263,3.263,0,0,0,1.367-4.983,3.306,3.306,0,0,1,3.1-5.237,3.338,3.338,0,0,0,3.736-3.645,3.375,3.375,0,0,1,5.363-3.023A3.422,3.422,0,0,0,50.338,32.1a3.415,3.415,0,0,1,6.2,0" transform="translate(79.013 77.626)" fill="#fdc00e"/>
    <path id="Trazado_222583" data-name="Trazado 222583" d="M57.9,50.318a3.264,3.264,0,0,1-1.367-4.983,3.3,3.3,0,0,0-3.1-5.237A3.335,3.335,0,0,1,49.7,36.453a3.38,3.38,0,0,0-5.367-3.023A3.422,3.422,0,0,1,39.226,32.1a3.334,3.334,0,0,0-3.1-1.975V76.563a3.343,3.343,0,0,0,3.1-1.978v0a3.424,3.424,0,0,1,5.107-1.334A3.378,3.378,0,0,0,49.7,70.224a3.338,3.338,0,0,1,3.736-3.645,3.3,3.3,0,0,0,3.1-5.237A3.261,3.261,0,0,1,57.9,56.363a3.268,3.268,0,0,0,0-6.045" transform="translate(96.321 77.627)" fill="#f99c1d"/>
    <rect id="Rectángulo_46999" data-name="Rectángulo 46999" width="51.527" height="4.328" transform="translate(182.978 115.019)" fill="#1490bd"/>
    <rect id="Rectángulo_47000" data-name="Rectángulo 47000" width="51.527" height="4.328" transform="translate(182.978 126.373)" fill="#1490bd"/>
    <rect id="Rectángulo_47001" data-name="Rectángulo 47001" width="51.527" height="4.328" transform="translate(182.978 137.734)" fill="#1490bd"/>
    <rect id="Rectángulo_47002" data-name="Rectángulo 47002" width="51.527" height="4.328" transform="translate(182.978 149.092)" fill="#1490bd"/>
  </g>
</svg>
