<svg id="Grupo_157198" data-name="Grupo 157198" xmlns="http://www.w3.org/2000/svg" xmlns:xlink="http://www.w3.org/1999/xlink" width="144.723" height="174.992" viewBox="0 0 144.723 174.992">
  <defs>
    <clipPath id="clip-path">
      <rect id="Rectángulo_46914" data-name="Rectángulo 46914" width="144.721" height="174.992" fill="none"/>
    </clipPath>
  </defs>
  <path id="Trazado_222441" data-name="Trazado 222441" d="M7.816,0V164.251h98.93l22.376-22.376V0Z" transform="translate(15.602 0.001)" fill="#96e0f4"/>
  <path id="Trazado_222442" data-name="Trazado 222442" d="M40.834,47.351V69.727L63.207,47.351Z" transform="translate(81.514 94.524)" fill="#1490bd"/>
  <rect id="Rectángulo_46900" data-name="Rectángulo 46900" width="33.905" height="33.905" transform="translate(38.487 15.823)" fill="#f99c1d"/>
  <rect id="Rectángulo_46901" data-name="Rectángulo 46901" width="16.953" height="33.905" transform="translate(38.487 15.823)" fill="#fdc00e"/>
  <g id="Grupo_156902" data-name="Grupo 156902" transform="translate(0 0)">
    <g id="Grupo_156901" data-name="Grupo 156901" clip-path="url(#clip-path)">
      <path id="Trazado_222443" data-name="Trazado 222443" d="M18.5,23.463a8.292,8.292,0,1,0,0-16.584Z" transform="translate(36.936 13.733)" fill="#002541"/>
      <path id="Trazado_222444" data-name="Trazado 222444" d="M24.027,23.463a8.292,8.292,0,0,1,0-16.584Z" transform="translate(31.413 13.733)" fill="#004592"/>
      <path id="Trazado_222445" data-name="Trazado 222445" d="M24.154,20.8V12.447A8.484,8.484,0,0,0,15.672,20.8Z" transform="translate(31.285 24.848)" fill="#004592"/>
      <path id="Trazado_222446" data-name="Trazado 222446" d="M26.985,20.8A8.484,8.484,0,0,0,18.5,12.447V20.8Z" transform="translate(36.936 24.848)" fill="#002541"/>
      <rect id="Rectángulo_46902" data-name="Rectángulo 46902" width="39.859" height="3.158" transform="translate(91.676 18.334)" fill="#1490bd"/>
      <rect id="Rectángulo_46903" data-name="Rectángulo 46903" width="39.859" height="3.158" transform="translate(91.676 26.622)" fill="#1490bd"/>
      <rect id="Rectángulo_46904" data-name="Rectángulo 46904" width="39.859" height="3.158" transform="translate(91.676 34.906)" fill="#1490bd"/>
      <rect id="Rectángulo_46905" data-name="Rectángulo 46905" width="39.859" height="3.158" transform="translate(91.676 43.194)" fill="#1490bd"/>
      <rect id="Rectángulo_46906" data-name="Rectángulo 46906" width="93.552" height="3.158" transform="translate(38.487 62.532)" fill="#1490bd"/>
      <rect id="Rectángulo_46907" data-name="Rectángulo 46907" width="93.552" height="3.158" transform="translate(38.487 70.816)" fill="#1490bd"/>
      <rect id="Rectángulo_46910" data-name="Rectángulo 46910" width="93.644" height="3.158" transform="translate(38.394 90.674)" fill="#1490bd"/>
      <rect id="Rectángulo_46911" data-name="Rectángulo 46911" width="93.644" height="3.158" transform="translate(38.394 98.961)" fill="#1490bd"/>
      <rect id="Rectángulo_46912" data-name="Rectángulo 46912" width="93.644" height="3.158" transform="translate(38.394 117.246)" fill="#1490bd"/>
      <rect id="Rectángulo_46913" data-name="Rectángulo 46913" width="93.644" height="3.158" transform="translate(38.394 125.533)" fill="#1490bd"/>
      <path id="Trazado_222447" data-name="Trazado 222447" d="M31.087,7.7a1.579,1.579,0,1,1-1.579-1.579A1.579,1.579,0,0,1,31.087,7.7" transform="translate(55.753 12.216)" fill="#004592"/>
      <path id="Trazado_222448" data-name="Trazado 222448" d="M31.087,10.464a1.579,1.579,0,1,1-1.579-1.579,1.579,1.579,0,0,1,1.579,1.579" transform="translate(55.753 17.737)" fill="#004592"/>
      <path id="Trazado_222449" data-name="Trazado 222449" d="M31.087,13.229a1.579,1.579,0,1,1-1.579-1.579,1.579,1.579,0,0,1,1.579,1.579" transform="translate(55.753 23.257)" fill="#004592"/>
      <path id="Trazado_222450" data-name="Trazado 222450" d="M31.087,16a1.579,1.579,0,1,1-1.579-1.579A1.579,1.579,0,0,1,31.087,16" transform="translate(55.753 28.778)" fill="#004592"/>
    </g>
  </g>
</svg>
