<svg xmlns="http://www.w3.org/2000/svg" xmlns:xlink="http://www.w3.org/1999/xlink" width="206.965" height="262.564" viewBox="0 0 206.965 262.564">
  <defs>
    <clipPath id="clip-path">
      <rect id="Rectángulo_47153" data-name="Rectángulo 47153" width="168.063" height="214.505" fill="none"/>
    </clipPath>
  </defs>
  <g id="Grupo_159131" data-name="Grupo 159131" transform="translate(-277.264 -4778.248)">
    <path id="Trazado_226321" data-name="Trazado 226321" d="M78.2,13.568H73.349v3.059h5.73V19H70.264V6.2H79.1V8.585H73.349v2.7H78.2ZM83.324,19H80.354V5.5h2.971Zm10.327-2.109a1.317,1.317,0,0,0,.967-.338,1.241,1.241,0,0,0,.334-.945h2.777a3.288,3.288,0,0,1-1.121,2.566,4.168,4.168,0,0,1-2.887,1,4.22,4.22,0,0,1-3.27-1.3,5.125,5.125,0,0,1-1.2-3.6v-.123a5.792,5.792,0,0,1,.532-2.544,3.872,3.872,0,0,1,1.534-1.7A4.573,4.573,0,0,1,93.7,9.314a4.116,4.116,0,0,1,2.944,1.028,3.647,3.647,0,0,1,1.09,2.786H94.952A1.626,1.626,0,0,0,94.592,12a1.244,1.244,0,0,0-.967-.4q-1.151,0-1.345,1.468a10.357,10.357,0,0,0-.062,1.283,4.068,4.068,0,0,0,.343,1.986A1.187,1.187,0,0,0,93.651,16.891Zm11,1.081a3.054,3.054,0,0,1-2.54,1.2,3,3,0,0,1-2.369-.91,3.826,3.826,0,0,1-.8-2.615V9.49H101.9v6.179a1.065,1.065,0,0,0,1.187,1.222,1.548,1.548,0,0,0,1.45-.729V9.49h2.979V19h-2.777Zm10.239-5.8-.976-.07a1.752,1.752,0,0,0-1.793.879V19h-2.962V9.49h2.777l.1,1.222a2.294,2.294,0,0,1,2.083-1.4,2.888,2.888,0,0,1,.826.105Zm6.82,0-.976-.07a1.752,1.752,0,0,0-1.793.879V19h-2.962V9.49h2.777l.1,1.222a2.294,2.294,0,0,1,2.083-1.4,2.888,2.888,0,0,1,.826.105ZM126,19h-2.979V9.49H126ZM124.9,5.676h3.129l-2.443,2.76-2.417,0Zm7.031,11.215a1.317,1.317,0,0,0,.967-.338,1.241,1.241,0,0,0,.334-.945h2.777a3.288,3.288,0,0,1-1.121,2.566,4.168,4.168,0,0,1-2.887,1,4.22,4.22,0,0,1-3.27-1.3,5.125,5.125,0,0,1-1.2-3.6v-.123a5.792,5.792,0,0,1,.532-2.544,3.872,3.872,0,0,1,1.534-1.7,4.573,4.573,0,0,1,2.373-.593,4.116,4.116,0,0,1,2.944,1.028,3.647,3.647,0,0,1,1.09,2.786h-2.777a1.626,1.626,0,0,0-.36-1.134,1.244,1.244,0,0,0-.967-.4q-1.151,0-1.345,1.468a10.357,10.357,0,0,0-.062,1.283,4.068,4.068,0,0,0,.343,1.986A1.187,1.187,0,0,0,131.928,16.891Zm11,1.081a3.054,3.054,0,0,1-2.54,1.2,3,3,0,0,1-2.369-.91,3.826,3.826,0,0,1-.8-2.615V9.49h2.962v6.179a1.065,1.065,0,0,0,1.187,1.222,1.548,1.548,0,0,0,1.45-.729V9.49h2.979V19h-2.777ZM150.534,19h-2.971V5.5h2.971Zm7.488-1.028a3.054,3.054,0,0,1-2.54,1.2,3,3,0,0,1-2.369-.91,3.826,3.826,0,0,1-.8-2.615V9.49h2.962v6.179a1.065,1.065,0,0,0,1.187,1.222,1.548,1.548,0,0,0,1.45-.729V9.49h2.979V19H158.11Zm7.286-8.481.1,1.116a3.27,3.27,0,0,1,2.716-1.292,2.407,2.407,0,0,1,2.435,1.433,3.165,3.165,0,0,1,2.795-1.433q2.892,0,2.971,3.5V19h-2.971V13a1.813,1.813,0,0,0-.246-1.063,1.048,1.048,0,0,0-.9-.334,1.4,1.4,0,0,0-1.31.782l.009.123V19h-2.971V13.015a1.906,1.906,0,0,0-.237-1.081,1.045,1.045,0,0,0-.905-.334,1.42,1.42,0,0,0-1.3.782V19h-2.962V9.49Zm21.208,7.4a1.317,1.317,0,0,0,.967-.338,1.241,1.241,0,0,0,.334-.945h2.777a3.288,3.288,0,0,1-1.121,2.566,4.168,4.168,0,0,1-2.887,1,4.22,4.22,0,0,1-3.27-1.3,5.125,5.125,0,0,1-1.2-3.6v-.123a5.792,5.792,0,0,1,.532-2.544,3.872,3.872,0,0,1,1.534-1.7,4.573,4.573,0,0,1,2.373-.593,4.116,4.116,0,0,1,2.944,1.028,3.647,3.647,0,0,1,1.09,2.786h-2.777a1.626,1.626,0,0,0-.36-1.134,1.244,1.244,0,0,0-.967-.4q-1.151,0-1.345,1.468a10.357,10.357,0,0,0-.062,1.283,4.068,4.068,0,0,0,.343,1.986A1.187,1.187,0,0,0,186.517,16.891Zm11.083-4.72-.976-.07a1.752,1.752,0,0,0-1.793.879V19h-2.962V9.49h2.777l.1,1.222a2.294,2.294,0,0,1,2.083-1.4,2.888,2.888,0,0,1,.826.105Zm.378,1.986a5.613,5.613,0,0,1,.554-2.536,3.96,3.96,0,0,1,1.591-1.709,4.791,4.791,0,0,1,2.435-.6,4.373,4.373,0,0,1,3.366,1.323,5.076,5.076,0,0,1,1.23,3.6v.105a4.925,4.925,0,0,1-1.235,3.529,4.384,4.384,0,0,1-3.344,1.305,4.434,4.434,0,0,1-3.261-1.217,4.761,4.761,0,0,1-1.327-3.3Zm2.962.185a3.538,3.538,0,0,0,.413,1.934,1.376,1.376,0,0,0,1.222.615q1.582,0,1.617-2.435v-.3q0-2.558-1.635-2.558-1.485,0-1.608,2.206ZM211.179,9.49l.1,1.116a3.225,3.225,0,0,1,2.716-1.292,2.713,2.713,0,0,1,2.219.888,4.226,4.226,0,0,1,.76,2.672V19H214V13a1.6,1.6,0,0,0-.29-1.059,1.342,1.342,0,0,0-1.055-.338,1.413,1.413,0,0,0-1.292.686V19H208.4V9.49Zm7.058,4.667a5.613,5.613,0,0,1,.554-2.536,3.96,3.96,0,0,1,1.591-1.709,4.791,4.791,0,0,1,2.435-.6,4.373,4.373,0,0,1,3.366,1.323,5.076,5.076,0,0,1,1.23,3.6v.105a4.925,4.925,0,0,1-1.235,3.529,4.384,4.384,0,0,1-3.344,1.305,4.434,4.434,0,0,1-3.261-1.217,4.761,4.761,0,0,1-1.327-3.3Zm2.962.185a3.538,3.538,0,0,0,.413,1.934,1.376,1.376,0,0,0,1.222.615q1.582,0,1.617-2.435v-.3q0-2.558-1.635-2.558-1.485,0-1.608,2.206ZM231.842,19h-2.971V5.5h2.971Zm1.45-4.843a5.613,5.613,0,0,1,.554-2.536,3.96,3.96,0,0,1,1.591-1.709,4.791,4.791,0,0,1,2.435-.6,4.373,4.373,0,0,1,3.366,1.323,5.076,5.076,0,0,1,1.23,3.6v.105a4.925,4.925,0,0,1-1.235,3.529,4.384,4.384,0,0,1-3.344,1.305,4.434,4.434,0,0,1-3.261-1.217,4.761,4.761,0,0,1-1.327-3.3Zm2.962.185a3.538,3.538,0,0,0,.413,1.934,1.376,1.376,0,0,0,1.222.615q1.582,0,1.617-2.435v-.3q0-2.558-1.635-2.558-1.485,0-1.608,2.206ZM238.275,5.5H241.4l-2.443,2.76-2.417,0Zm5.15,8.675a6.421,6.421,0,0,1,.475-2.549,3.821,3.821,0,0,1,1.362-1.709,3.591,3.591,0,0,1,2.065-.6,2.855,2.855,0,0,1,2.32,1l.105-.826h2.689V18.64a4.009,4.009,0,0,1-.584,2.184,3.75,3.75,0,0,1-1.692,1.424,6.219,6.219,0,0,1-2.566.5,5.365,5.365,0,0,1-2.026-.4,3.657,3.657,0,0,1-1.5-1.028l1.239-1.74a2.716,2.716,0,0,0,2.18.976,1.764,1.764,0,0,0,1.969-2.021v-.3a2.781,2.781,0,0,1-2.153.94,3.437,3.437,0,0,1-2.812-1.332,5.517,5.517,0,0,1-1.072-3.564Zm2.971.185a3.383,3.383,0,0,0,.439,1.85,1.387,1.387,0,0,0,1.23.681,1.573,1.573,0,0,0,1.4-.642v-4a1.534,1.534,0,0,0-1.38-.65,1.4,1.4,0,0,0-1.239.708A3.858,3.858,0,0,0,246.4,14.359ZM257.251,19H254.28V9.49h2.971ZM254.1,7.038A1.322,1.322,0,0,1,254.562,6a1.943,1.943,0,0,1,2.373,0,1.322,1.322,0,0,1,.457,1.037,1.322,1.322,0,0,1-.457,1.037,1.943,1.943,0,0,1-2.373,0A1.322,1.322,0,0,1,254.1,7.038Zm8.991,9.853a1.317,1.317,0,0,0,.967-.338,1.241,1.241,0,0,0,.334-.945h2.777a3.288,3.288,0,0,1-1.121,2.566,4.168,4.168,0,0,1-2.887,1,4.22,4.22,0,0,1-3.27-1.3,5.125,5.125,0,0,1-1.2-3.6v-.123a5.792,5.792,0,0,1,.532-2.544,3.872,3.872,0,0,1,1.534-1.7,4.573,4.573,0,0,1,2.373-.593,4.116,4.116,0,0,1,2.944,1.028,3.647,3.647,0,0,1,1.09,2.786H264.4a1.626,1.626,0,0,0-.36-1.134,1.244,1.244,0,0,0-.967-.4q-1.151,0-1.345,1.468a10.357,10.357,0,0,0-.062,1.283,4.068,4.068,0,0,0,.343,1.986A1.187,1.187,0,0,0,263.1,16.891Zm4.957-2.733a5.613,5.613,0,0,1,.554-2.536A3.96,3.96,0,0,1,270.2,9.912a4.791,4.791,0,0,1,2.435-.6A4.373,4.373,0,0,1,276,10.637a5.076,5.076,0,0,1,1.23,3.6v.105a4.925,4.925,0,0,1-1.235,3.529,4.384,4.384,0,0,1-3.344,1.305,4.434,4.434,0,0,1-3.261-1.217,4.761,4.761,0,0,1-1.327-3.3Zm2.962.185a3.538,3.538,0,0,0,.413,1.934,1.376,1.376,0,0,0,1.222.615q1.582,0,1.617-2.435v-.3q0-2.558-1.635-2.558-1.485,0-1.608,2.206Z" transform="translate(207 5018.068)" fill="#12263f"/>
    <g id="Grupo_157163" data-name="Grupo 157163" transform="translate(295.969 4778.248)">
      <g id="Grupo_157162" data-name="Grupo 157162" clip-path="url(#clip-path)">
        <path id="Trazado_223822" data-name="Trazado 223822" d="M206.807,0h61.885c.64.575,1.255,1.182,1.926,1.719,2.969,2.378,3.915,5.615,3.922,9.233q.034,17.556.035,35.112l-1.4,4.794c-2.134-6.161-4.041-11.752-6.014-17.319-.876-2.472-2.508-3.417-4.375-2.7-1.964.752-2.582,2.359-1.724,4.868q4.083,11.943,8.244,23.859c.98,2.8,2.29,3.549,5.241,3.2q0,9.569,0,19.139c-.835.026-1.669.075-2.5.075q-23.31.007-46.62.008a9.338,9.338,0,0,0-2.284.132,3.207,3.207,0,0,0,.009,6.27,10.21,10.21,0,0,0,2.282.145q15.679.012,31.359.01c5.921.009,11.841.062,17.762.094q0,6.588,0,13.176c-.9.032-1.806.091-2.709.091q-23.712.008-47.424.011c-2.435,0-3.812,1.195-3.805,3.172s1.409,3.177,3.8,3.21c1.532.021,3.064,0,4.6,0l45.54.071q0,16.486.006,32.973c-.9.033-1.807.094-2.71.094q-23.624.01-47.248.013c-2.557,0-3.981,1.219-3.988,3.271s1.426,3.264,3.981,3.27c7.944.019,15.889,0,23.833.01q13.064.022,26.128.076,0,6.592,0,13.184c-.834.03-1.667.087-2.5.088q-23.4.008-46.8.006a9.614,9.614,0,0,0-2.082.078,3.174,3.174,0,0,0,0,6.221,11.139,11.139,0,0,0,2.29.087q18.176.006,36.353.007c4.245,0,8.49.064,12.736.1,0,11.741.045,23.483-.04,35.223a17.765,17.765,0,0,1-.986,5.447c-.975,2.893-3.414,4.4-6.075,5.568l-.839.421H207.643l-.854-.426c.016-.905.046-1.811.046-2.716q0-104.427,0-208.855c0-.836-.018-1.672-.028-2.508m24.612,46.885a9.635,9.635,0,0,1,14.6-8.343c2.221,1.272,4.073.856,5.057-.91.943-1.692.314-3.353-1.773-4.679-7.454-4.735-17.667-2.083-22.283,5.787A16.153,16.153,0,0,0,233.453,61c6.273,3.265,13.721,2.234,17.828-2.466,1.421-1.626,1.464-3.54.109-4.851s-3.093-1.291-4.627.24c-2.836,2.83-6.085,3.169-9.585,1.643-3.746-1.635-5.548-4.663-5.761-8.683m7.375,141.269c4.878,0,9.755.015,14.632-.006,2.382-.01,3.847-1.214,3.927-3.139.082-1.969-1.46-3.374-3.918-3.381q-14.422-.045-28.846,0c-2.572.007-3.985,1.227-3.99,3.273s1.417,3.242,3.981,3.251c4.738.017,9.476,0,14.214,0m.215-66.476c-4.871,0-9.743-.015-14.614.006-2.391.011-3.79,1.229-3.793,3.211,0,1.885,1.291,3.209,3.589,3.225q14.717.1,29.435.015c2.338-.012,3.79-1.465,3.722-3.348-.069-1.908-1.545-3.1-3.934-3.1-4.8-.016-9.6,0-14.4,0" transform="translate(-133.661)" fill="#f3fafe"/>
        <path id="Trazado_223823" data-name="Trazado 223823" d="M73.145,0c.01.836.029,1.672.029,2.508q0,104.427,0,208.855c0,.905-.03,1.811-.046,2.716q-31.878,0-63.756,0a10.63,10.63,0,0,1-2.683-.226A8.834,8.834,0,0,1,0,204.971Q0,107.978.034,10.986C0,7.288-.335.233,7.08,0ZM21.654,63.152c7.311,7.908,22.611,7.912,30.148.006,5.325-4.8,7.537-10.837,7.154-17.92A22.256,22.256,0,0,0,35.5,24.389c-6.529.329-11.922,3.279-16.23,8.311-7.426,8.673-6.345,23.219,2.388,30.453m14.958,87.415c6.123,0,12.246.016,18.369-.007,2.7-.01,4.181-1.361,4.274-4.038.1-2.78.1-5.569,0-8.348-.108-2.872-1.654-4.275-4.522-4.328-1.322-.024-2.644,0-3.966,0q-15.969,0-31.938.008c-3.21.006-4.612,1.419-4.631,4.555-.016,2.644-.027,5.289,0,7.932.034,2.794,1.465,4.218,4.249,4.226,6.054.016,12.107,0,18.161,0M36.6,116.3c6.122,0,12.245.015,18.368-.006,2.778-.01,4.221-1.394,4.3-4.2.075-2.642.065-5.288,0-7.931-.068-2.921-1.649-4.491-4.552-4.574-1.877-.053-3.757-.011-5.636-.011q-15.132,0-30.265.008c-3.143.006-4.6,1.487-4.618,4.587-.014,2.644-.031,5.288.006,7.931.04,2.92,1.307,4.182,4.235,4.193,6.053.023,12.106.007,18.159.006m.128,68.544c5.991,0,11.982.009,17.973,0,2.963-.007,4.413-1.275,4.549-4.231.128-2.781.133-5.577-.007-8.357-.139-2.754-1.7-4.084-4.5-4.131-1.393-.023-2.786,0-4.18,0q-15.883,0-31.767.008c-3.116.006-4.568,1.417-4.6,4.382-.024,2.577-.015,5.155,0,7.733.016,3.231,1.352,4.592,4.553,4.6,5.991.014,11.982,0,17.973,0" transform="translate(0)" fill="#0ab1cb"/>
        <path id="Trazado_223824" data-name="Trazado 223824" d="M378.3,214.084c2.661-1.167,5.1-2.675,6.075-5.568a17.774,17.774,0,0,0,.986-5.447c.085-11.74.041-23.482.039-35.223,3.123-.035,6.246-.056,9.369-.111,2.386-.042,3.716-1.258,3.663-3.293-.051-1.937-1.346-3.046-3.661-3.083-3.123-.049-6.247-.067-9.37-.1q0-6.592,0-13.184c2.991-.026,5.983-.047,8.974-.08,2.621-.029,4.007-1.118,4.063-3.172.058-2.158-1.36-3.35-4.06-3.386-2.99-.04-5.981-.065-8.972-.1L385.4,108.37c3.124-.024,6.248-.031,9.372-.078,2.377-.036,3.712-1.272,3.657-3.315-.054-1.963-1.3-3.021-3.659-3.06-3.123-.052-6.246-.073-9.369-.106l0-13.176c3.06-.031,6.121-.045,9.18-.1,2.525-.045,3.906-1.283,3.851-3.383-.052-1.987-1.418-3.131-3.854-3.168-3.061-.046-6.122-.058-9.183-.084q0-9.569,0-19.139c.769-.856,1.9-1.585,2.25-2.587,2.887-8.339,5.631-16.728,8.412-25.1a3.074,3.074,0,0,0-1.31-3.819c-1.9-1.282-4.018-.412-4.887,2.039-1.505,4.249-2.958,8.516-4.434,12.775q-.015-17.556-.035-35.112c-.007-3.618-.954-6.856-3.922-9.233C380.8,1.181,380.189.575,379.548,0h25.925c4.13,1.853,7.108,4.567,7.108,9.509q0,97.591-.008,195.181a9.285,9.285,0,0,1-9.407,9.4q-12.434.009-24.868,0" transform="translate(-244.518)" fill="#e3f4fd"/>
        <path id="Trazado_223825" data-name="Trazado 223825" d="M378.707,0h0Z" transform="translate(-244.513)" fill="#e3f4fd"/>
        <path id="Trazado_223826" data-name="Trazado 223826" d="M299.8,231.593c3.061.027,6.122.038,9.182.084,2.435.037,3.8,1.181,3.854,3.168.055,2.1-1.326,3.337-3.851,3.383-3.06.055-6.12.069-9.18.1-5.921-.033-11.841-.086-17.762-.094q-15.679-.023-31.359-.01a10.209,10.209,0,0,1-2.282-.145,3.207,3.207,0,0,1-.009-6.27,9.334,9.334,0,0,1,2.284-.132q23.31-.01,46.62-.008c.834,0,1.669-.049,2.5-.075" transform="translate(-158.921 -149.694)" fill="#467496"/>
        <path id="Trazado_223827" data-name="Trazado 223827" d="M299.788,399.686c2.991.031,5.981.055,8.972.1,2.7.036,4.119,1.228,4.06,3.386-.056,2.054-1.442,3.143-4.063,3.172-2.991.033-5.982.054-8.974.08q-13.063-.039-26.127-.076c-7.944-.013-15.889.008-23.833-.01-2.555-.006-3.988-1.222-3.981-3.27s1.431-3.268,3.989-3.271q23.624-.023,47.248-.013c.9,0,1.806-.062,2.71-.094" transform="translate(-158.904 -258.343)" fill="#467496"/>
        <path id="Trazado_223828" data-name="Trazado 223828" d="M299.789,287.895c3.123.034,6.246.055,9.369.106,2.363.039,3.6,1.1,3.659,3.06.056,2.044-1.279,3.279-3.657,3.315-3.124.047-6.248.054-9.372.078l-45.54-.071c-1.532,0-3.064.016-4.6,0-2.393-.033-3.795-1.229-3.8-3.21s1.37-3.17,3.805-3.172q23.712-.02,47.425-.011c.9,0,1.806-.059,2.71-.091" transform="translate(-158.909 -186.085)" fill="#407093"/>
        <path id="Trazado_223829" data-name="Trazado 223829" d="M299.818,456.009c3.124.031,6.247.05,9.37.1,2.316.036,3.611,1.146,3.662,3.083.053,2.034-1.276,3.251-3.663,3.293-3.123.055-6.246.075-9.369.111-4.245-.034-8.49-.093-12.735-.1q-18.176-.02-36.353-.008a11.166,11.166,0,0,1-2.29-.087,3.174,3.174,0,0,1,0-6.221,9.611,9.611,0,0,1,2.082-.078q23.4,0,46.8-.006c.833,0,1.667-.057,2.5-.088" transform="translate(-158.94 -294.749)" fill="#407093"/>
        <path id="Trazado_223830" data-name="Trazado 223830" d="M264.495,102.815c.213,4.021,2.015,7.049,5.761,8.683,3.5,1.527,6.748,1.188,9.585-1.643,1.534-1.531,3.275-1.547,4.627-.24s1.312,3.225-.109,4.851c-4.108,4.7-11.556,5.73-17.828,2.466A16.153,16.153,0,0,1,260.1,94.671c4.616-7.869,14.829-10.522,22.282-5.787,2.087,1.326,2.716,2.987,1.773,4.679-.984,1.766-2.836,2.182-5.057.91a9.635,9.635,0,0,0-14.6,8.343" transform="translate(-166.738 -55.931)" fill="#e9bc6d"/>
        <path id="Trazado_223831" data-name="Trazado 223831" d="M373.078,102c1.475-4.26,2.928-8.527,4.434-12.775.868-2.451,2.983-3.321,4.887-2.039a3.075,3.075,0,0,1,1.31,3.819c-2.78,8.376-5.525,16.765-8.412,25.1-.347,1-1.481,1.731-2.251,2.587-2.951.353-4.261-.394-5.241-3.2q-4.165-11.914-8.244-23.859c-.858-2.509-.239-4.116,1.724-4.868,1.867-.714,3.5.231,4.375,2.7,1.973,5.567,3.879,11.158,6.014,17.319l1.4-4.794" transform="translate(-232.165 -55.938)" fill="#e9bc6d"/>
        <path id="Trazado_223832" data-name="Trazado 223832" d="M264.033,520.089c-4.738,0-9.476.012-14.214,0-2.565-.009-3.987-1.194-3.981-3.251s1.418-3.266,3.99-3.273q14.423-.038,28.846,0c2.458.008,4,1.413,3.918,3.381-.08,1.925-1.545,3.129-3.927,3.139-4.877.021-9.755.006-14.632.006" transform="translate(-158.901 -331.935)" fill="#467496"/>
        <path id="Trazado_223833" data-name="Trazado 223833" d="M264.255,344.069c4.8,0,9.6-.011,14.4,0,2.389.008,3.866,1.2,3.934,3.1.068,1.883-1.384,3.335-3.722,3.348q-14.717.079-29.435-.015c-2.3-.016-3.592-1.34-3.589-3.225,0-1.982,1.4-3.2,3.793-3.211,4.871-.022,9.743-.006,14.614-.006" transform="translate(-158.908 -222.391)" fill="#417093"/>
        <path id="Trazado_223834" data-name="Trazado 223834" d="M47.846,107.675c-8.733-7.235-9.814-21.781-2.388-30.454,4.309-5.032,9.7-7.982,16.23-8.311a22.257,22.257,0,0,1,23.46,20.85c.383,7.083-1.83,13.12-7.154,17.919A16.638,16.638,0,0,0,67.563,97.205c.381-.4.769-.789,1.14-1.2A7.914,7.914,0,1,0,56.841,85.533c-2.911,3.389-2.384,7.867,1.374,11.672a16.173,16.173,0,0,0-10.369,10.47" transform="translate(-26.193 -44.522)" fill="#fddf7d"/>
        <path id="Trazado_223835" data-name="Trazado 223835" d="M62.535,395.185c-6.054,0-12.107.011-18.161,0-2.784-.007-4.216-1.432-4.249-4.226-.032-2.643-.02-5.288,0-7.932.019-3.136,1.421-4.549,4.631-4.555q15.969-.031,31.938-.008c1.322,0,2.644-.019,3.966,0,2.868.052,4.413,1.456,4.522,4.328.1,2.779.1,5.568,0,8.348-.093,2.677-1.571,4.028-4.274,4.038-6.123.023-12.246.007-18.369.007" transform="translate(-25.923 -244.618)" fill="#fddf7d"/>
        <path id="Trazado_223836" data-name="Trazado 223836" d="M62.516,298.272c-6.053,0-12.106.017-18.159-.007-2.928-.011-4.194-1.273-4.235-4.193-.037-2.643-.02-5.288-.006-7.931.017-3.1,1.475-4.581,4.618-4.587q15.132-.031,30.265-.008c1.879,0,3.758-.042,5.636.011,2.9.082,4.484,1.653,4.552,4.574.062,2.642.071,5.289,0,7.931-.08,2.81-1.523,4.194-4.3,4.2-6.122.022-12.245.007-18.368.007" transform="translate(-25.919 -181.971)" fill="#fddf7d"/>
        <path id="Trazado_223837" data-name="Trazado 223837" d="M62.652,492.113c-5.991,0-11.982.01-17.973,0-3.2-.007-4.537-1.368-4.553-4.6-.012-2.578-.021-5.155,0-7.733.027-2.965,1.48-4.377,4.6-4.382q15.883-.03,31.767-.008c1.393,0,2.787-.019,4.18,0,2.8.047,4.359,1.377,4.5,4.132.14,2.779.135,5.576.007,8.356-.136,2.956-1.586,4.224-4.549,4.231-5.991.013-11.982,0-17.973,0" transform="translate(-25.928 -307.269)" fill="#fddf7d"/>
        <path id="Trazado_223838" data-name="Trazado 223838" d="M80.95,148.975a16.636,16.636,0,0,1,10.432,10.475c-7.536,7.906-22.837,7.9-30.148-.006A16.174,16.174,0,0,1,71.6,148.975a8.937,8.937,0,0,0,9.348,0" transform="translate(-39.579 -96.292)" fill="#417092"/>
        <path id="Trazado_223839" data-name="Trazado 223839" d="M93.982,122.519a8.937,8.937,0,0,1-9.348,0c-3.758-3.805-4.285-8.283-1.374-11.672a7.914,7.914,0,1,1,11.862,10.475c-.371.407-.759.8-1.14,1.2" transform="translate(-52.611 -69.836)" fill="#385f7d"/>
      </g>
    </g>
  </g>
</svg>
