<svg xmlns="http://www.w3.org/2000/svg" xmlns:xlink="http://www.w3.org/1999/xlink" width="205.054" height="287.243" viewBox="0 0 205.054 287.243">
  <defs>
    <clipPath id="clip-path">
      <rect id="Rect치ngulo_47154" data-name="Rect치ngulo 47154" width="197.634" height="221" fill="none"/>
    </clipPath>
  </defs>
  <g id="Grupo_159132" data-name="Grupo 159132" transform="translate(-1121.146 -4775)">
    <path id="Trazado_226322" data-name="Trazado 226322" d="M45.728,13.568H40.876v3.059h5.73V19H37.792V6.2h8.833V8.585H40.876v2.7h4.852ZM50.852,19H47.881V5.5h2.971Zm10.327-2.109a1.317,1.317,0,0,0,.967-.338,1.241,1.241,0,0,0,.334-.945h2.777a3.288,3.288,0,0,1-1.121,2.566,4.168,4.168,0,0,1-2.887,1,4.22,4.22,0,0,1-3.27-1.3,5.125,5.125,0,0,1-1.2-3.6v-.123a5.792,5.792,0,0,1,.532-2.544,3.872,3.872,0,0,1,1.534-1.7,4.573,4.573,0,0,1,2.373-.593,4.116,4.116,0,0,1,2.944,1.028,3.647,3.647,0,0,1,1.09,2.786H62.48A1.626,1.626,0,0,0,62.12,12a1.244,1.244,0,0,0-.967-.4q-1.151,0-1.345,1.468a10.357,10.357,0,0,0-.062,1.283,4.068,4.068,0,0,0,.343,1.986A1.187,1.187,0,0,0,61.179,16.891Zm11,1.081a3.054,3.054,0,0,1-2.54,1.2,3,3,0,0,1-2.369-.91,3.826,3.826,0,0,1-.8-2.615V9.49h2.962v6.179a1.065,1.065,0,0,0,1.187,1.222,1.548,1.548,0,0,0,1.45-.729V9.49H75.04V19H72.262Zm10.239-5.8-.976-.07a1.752,1.752,0,0,0-1.793.879V19H76.683V9.49H79.46l.1,1.222a2.294,2.294,0,0,1,2.083-1.4,2.888,2.888,0,0,1,.826.105Zm6.82,0-.976-.07a1.752,1.752,0,0,0-1.793.879V19H83.5V9.49h2.777l.1,1.222a2.294,2.294,0,0,1,2.083-1.4,2.888,2.888,0,0,1,.826.105ZM93.532,19H90.552V9.49h2.979ZM92.424,5.676h3.129L93.11,8.436l-2.417,0Zm7.031,11.215a1.317,1.317,0,0,0,.967-.338,1.241,1.241,0,0,0,.334-.945h2.777a3.288,3.288,0,0,1-1.121,2.566,4.168,4.168,0,0,1-2.887,1,4.22,4.22,0,0,1-3.27-1.3,5.125,5.125,0,0,1-1.2-3.6v-.123a5.792,5.792,0,0,1,.532-2.544,3.872,3.872,0,0,1,1.534-1.7A4.573,4.573,0,0,1,99.5,9.314a4.116,4.116,0,0,1,2.944,1.028,3.647,3.647,0,0,1,1.09,2.786h-2.777A1.626,1.626,0,0,0,100.4,12a1.244,1.244,0,0,0-.967-.4q-1.151,0-1.345,1.468a10.357,10.357,0,0,0-.062,1.283,4.068,4.068,0,0,0,.343,1.986A1.187,1.187,0,0,0,99.456,16.891Zm11,1.081a3.054,3.054,0,0,1-2.54,1.2,3,3,0,0,1-2.369-.91,3.826,3.826,0,0,1-.8-2.615V9.49H107.7v6.179a1.065,1.065,0,0,0,1.187,1.222,1.548,1.548,0,0,0,1.45-.729V9.49h2.979V19h-2.777ZM118.062,19h-2.971V5.5h2.971Zm7.488-1.028a3.054,3.054,0,0,1-2.54,1.2,3,3,0,0,1-2.369-.91,3.826,3.826,0,0,1-.8-2.615V9.49H122.8v6.179a1.065,1.065,0,0,0,1.187,1.222,1.548,1.548,0,0,0,1.45-.729V9.49h2.979V19h-2.777Zm7.286-8.481.1,1.116a3.27,3.27,0,0,1,2.716-1.292,2.407,2.407,0,0,1,2.435,1.433,3.165,3.165,0,0,1,2.795-1.433q2.892,0,2.971,3.5V19h-2.971V13a1.813,1.813,0,0,0-.246-1.063,1.048,1.048,0,0,0-.9-.334,1.4,1.4,0,0,0-1.31.782l.009.123V19h-2.971V13.015a1.906,1.906,0,0,0-.237-1.081,1.045,1.045,0,0,0-.905-.334,1.42,1.42,0,0,0-1.3.782V19h-2.962V9.49Zm21.208,7.4a1.317,1.317,0,0,0,.967-.338,1.241,1.241,0,0,0,.334-.945h2.777A3.288,3.288,0,0,1,157,18.174a4.168,4.168,0,0,1-2.887,1,4.22,4.22,0,0,1-3.27-1.3,5.125,5.125,0,0,1-1.2-3.6v-.123a5.792,5.792,0,0,1,.532-2.544,3.872,3.872,0,0,1,1.534-1.7,4.573,4.573,0,0,1,2.373-.593,4.116,4.116,0,0,1,2.944,1.028,3.647,3.647,0,0,1,1.09,2.786h-2.777a1.626,1.626,0,0,0-.36-1.134,1.244,1.244,0,0,0-.967-.4q-1.151,0-1.345,1.468a10.357,10.357,0,0,0-.062,1.283,4.068,4.068,0,0,0,.343,1.986A1.187,1.187,0,0,0,154.044,16.891ZM159,14.157a5.613,5.613,0,0,1,.554-2.536,3.96,3.96,0,0,1,1.591-1.709,4.791,4.791,0,0,1,2.435-.6,4.373,4.373,0,0,1,3.366,1.323,5.076,5.076,0,0,1,1.23,3.6v.105a4.925,4.925,0,0,1-1.235,3.529,4.384,4.384,0,0,1-3.344,1.305,4.434,4.434,0,0,1-3.261-1.217,4.761,4.761,0,0,1-1.327-3.3Zm2.962.185a3.538,3.538,0,0,0,.413,1.934,1.376,1.376,0,0,0,1.222.615q1.582,0,1.617-2.435v-.3q0-2.558-1.635-2.558-1.485,0-1.608,2.206ZM172.282,9.49l.1,1.116a3.27,3.27,0,0,1,2.716-1.292,2.407,2.407,0,0,1,2.435,1.433,3.165,3.165,0,0,1,2.795-1.433q2.892,0,2.971,3.5V19h-2.971V13a1.813,1.813,0,0,0-.246-1.063,1.048,1.048,0,0,0-.9-.334,1.4,1.4,0,0,0-1.31.782l.009.123V19H174.91V13.015a1.906,1.906,0,0,0-.237-1.081,1.045,1.045,0,0,0-.905-.334,1.42,1.42,0,0,0-1.3.782V19H169.5V9.49Zm21.533,4.834a5.8,5.8,0,0,1-.967,3.595,3.238,3.238,0,0,1-2.725,1.257,2.81,2.81,0,0,1-2.338-1.151l-.123.976h-2.654V5.5h2.962v4.755a2.711,2.711,0,0,1,2.136-.94,3.239,3.239,0,0,1,2.742,1.274,5.826,5.826,0,0,1,.967,3.586Zm-2.971-.189a3.866,3.866,0,0,0-.365-1.952,1.229,1.229,0,0,0-1.121-.584,1.418,1.418,0,0,0-1.389.763v3.773a1.426,1.426,0,0,0,1.406.755,1.258,1.258,0,0,0,1.327-1.018A7.309,7.309,0,0,0,190.844,14.135Zm7.4,4.865h-2.971V9.49h2.971ZM195.1,7.038A1.322,1.322,0,0,1,195.555,6a1.943,1.943,0,0,1,2.373,0,1.322,1.322,0,0,1,.457,1.037,1.322,1.322,0,0,1-.457,1.037,1.943,1.943,0,0,1-2.373,0A1.322,1.322,0,0,1,195.1,7.038Zm7.69,2.452.1,1.116A3.225,3.225,0,0,1,205.6,9.314a2.713,2.713,0,0,1,2.219.888,4.226,4.226,0,0,1,.76,2.672V19H205.61V13a1.6,1.6,0,0,0-.29-1.059,1.342,1.342,0,0,0-1.055-.338,1.413,1.413,0,0,0-1.292.686V19h-2.962V9.49ZM215.577,19a3.344,3.344,0,0,1-.281-.853,2.754,2.754,0,0,1-2.285,1.028,3.374,3.374,0,0,1-2.285-.813,2.588,2.588,0,0,1-.94-2.043,2.66,2.66,0,0,1,1.143-2.338,5.821,5.821,0,0,1,3.322-.791h.914v-.5q0-1.316-1.134-1.316a.927.927,0,0,0-1.055,1.042h-2.962a2.655,2.655,0,0,1,1.173-2.239,4.931,4.931,0,0,1,2.993-.86,4.323,4.323,0,0,1,2.874.888,3.086,3.086,0,0,1,1.081,2.435v4.21a4.311,4.311,0,0,0,.4,2V19Zm-1.854-1.934a1.652,1.652,0,0,0,.918-.237,1.487,1.487,0,0,0,.523-.536V14.772H214.3q-1.547,0-1.547,1.389a.848.848,0,0,0,.272.655A.986.986,0,0,0,213.722,17.066Zm5.678-2.892a5.809,5.809,0,0,1,.976-3.56,3.211,3.211,0,0,1,2.725-1.3,2.731,2.731,0,0,1,2.145,1V5.5h2.971V19h-2.663l-.149-1.02a2.8,2.8,0,0,1-2.32,1.2,3.205,3.205,0,0,1-2.689-1.3A5.993,5.993,0,0,1,219.4,14.175Zm2.962.185q0,2.531,1.477,2.531a1.458,1.458,0,0,0,1.406-.826V12.443a1.419,1.419,0,0,0-1.389-.844q-1.371,0-1.485,2.215Zm7.163-.2a5.613,5.613,0,0,1,.554-2.536,3.96,3.96,0,0,1,1.591-1.709,4.791,4.791,0,0,1,2.435-.6,4.373,4.373,0,0,1,3.366,1.323,5.076,5.076,0,0,1,1.23,3.6v.105a4.925,4.925,0,0,1-1.235,3.529,4.384,4.384,0,0,1-3.344,1.305,4.434,4.434,0,0,1-3.261-1.217,4.761,4.761,0,0,1-1.327-3.3Zm2.962.185a3.538,3.538,0,0,0,.413,1.934,1.376,1.376,0,0,0,1.222.615q1.582,0,1.617-2.435v-.3q0-2.558-1.635-2.558-1.485,0-1.608,2.206ZM108.293,39.157a5.613,5.613,0,0,1,.554-2.536,3.96,3.96,0,0,1,1.591-1.709,4.791,4.791,0,0,1,2.435-.6,4.373,4.373,0,0,1,3.366,1.323,5.076,5.076,0,0,1,1.23,3.6v.105a4.925,4.925,0,0,1-1.235,3.529,4.384,4.384,0,0,1-3.344,1.305,4.434,4.434,0,0,1-3.261-1.217,4.761,4.761,0,0,1-1.327-3.3Zm2.962.185a3.538,3.538,0,0,0,.413,1.934,1.376,1.376,0,0,0,1.222.615q1.582,0,1.617-2.435v-.3q0-2.558-1.635-2.558-1.485,0-1.608,2.206Zm14.8-4.852.1,1.116a3.27,3.27,0,0,1,2.716-1.292,2.407,2.407,0,0,1,2.435,1.433,3.165,3.165,0,0,1,2.795-1.433q2.892,0,2.971,3.5V44H134.1V38a1.813,1.813,0,0,0-.246-1.063,1.048,1.048,0,0,0-.9-.334,1.4,1.4,0,0,0-1.31.782l.009.123V44h-2.971V38.015a1.906,1.906,0,0,0-.237-1.081,1.045,1.045,0,0,0-.905-.334,1.42,1.42,0,0,0-1.3.782V44h-2.962V34.49ZM141.885,44h-2.971V34.49h2.971Zm-3.146-11.962A1.322,1.322,0,0,1,139.2,31a1.943,1.943,0,0,1,2.373,0,1.405,1.405,0,0,1,0,2.074,1.943,1.943,0,0,1-2.373,0A1.322,1.322,0,0,1,138.738,32.038Zm8.824,5.071,1.38-2.619h3.076l-2.5,4.632L152.142,44h-3.094l-1.494-2.812L146.086,44h-3.111l2.637-4.878-2.5-4.632h3.111Zm8.859-4.983V34.49h1.564v2.057h-1.564V40.9a1.111,1.111,0,0,0,.193.747,1.037,1.037,0,0,0,.765.211,4.345,4.345,0,0,0,.738-.053v2.118a5.466,5.466,0,0,1-1.67.255,3.1,3.1,0,0,1-2.259-.721,2.954,2.954,0,0,1-.729-2.188v-4.72h-1.213V34.49h1.213V32.126Zm2.092,7.031a5.613,5.613,0,0,1,.554-2.536,3.96,3.96,0,0,1,1.591-1.709,4.791,4.791,0,0,1,2.435-.6,4.373,4.373,0,0,1,3.366,1.323,5.076,5.076,0,0,1,1.23,3.6v.105a4.925,4.925,0,0,1-1.235,3.529,4.384,4.384,0,0,1-3.344,1.305,4.434,4.434,0,0,1-3.261-1.217,4.761,4.761,0,0,1-1.327-3.3Zm2.962.185a3.538,3.538,0,0,0,.413,1.934,1.376,1.376,0,0,0,1.222.615q1.582,0,1.617-2.435v-.3q0-2.558-1.635-2.558-1.485,0-1.608,2.206Z" transform="translate(1087.5 5018.068)" fill="#12263f"/>
    <g id="Grupo_157165" data-name="Grupo 157165" transform="translate(4.605 5.15)">
      <rect id="Rect치ngulo_47155" data-name="Rect치ngulo 47155" width="161" height="193" transform="translate(1134.436 4783.85)" fill="#fff"/>
      <g id="Grupo_157164" data-name="Grupo 157164" transform="translate(1116.541 4769.85)">
        <g id="Grupo_157164-2" data-name="Grupo 157164" transform="translate(0 0)" clip-path="url(#clip-path)">
          <path id="Trazado_223840" data-name="Trazado 223840" d="M44.141,38.556c.141-6.517-.142-6.235,6.691-6.194,1.588.009,3.178-.049,4.766-.076l7.389.03.139-.046.125.075a14.948,14.948,0,0,0,2.495.42q31.919.035,63.838,0a14.485,14.485,0,0,0,2.489-.431l.672-.054.8-.013q17.035.051,34.07.1,17.632.025,35.265.006c3.166,0,3.7.557,3.71,3.782q.018,5.154.028,10.308-.042,9.494-.084,18.988c-1.034-.021-2.067-.062-3.1-.062q-77.948,0-155.9-.007c-1.112,0-2.224-.069-3.337-.1q-.033-13.358-.064-26.719M104.312,48.8c.166,3.994,1.52,7.26,5.149,9.169a10.7,10.7,0,0,0,10.91-.449c.65-.38.772-1.673,1.138-2.545a11.221,11.221,0,0,0-2.622-.827c-.65-.047-1.319.563-2.012.665-2.559.379-5.138.619-7.028-1.726-1.738-2.155-1.661-4.635-.813-7.043.883-2.506,3.06-3.437,5.507-3.411,1.382.015,2.745.74,4.142.875A9.886,9.886,0,0,0,121.425,43c-.335-.948-.391-2.37-1.053-2.764a10.771,10.771,0,0,0-11.132-.379c-3.519,1.89-4.734,5.19-4.928,8.945m30,3.753-.657-.042c-1.611-3.986-3.13-8.015-4.909-11.924-.378-.831-1.706-1.223-2.6-1.817-.4,1-1.38,2.229-1.1,2.975q2.982,7.959,6.444,15.733a2.752,2.752,0,0,0,5.106-.032q3.381-7.668,6.306-15.534c.3-.8-.581-2.035-.916-3.068a12.292,12.292,0,0,0-2.71,1.633,7.252,7.252,0,0,0-1.042,2.392q-1.963,4.842-3.925,9.683" transform="translate(-26.621 -19.381)" fill="#64b1fe"/>
          <path id="Trazado_223841" data-name="Trazado 223841" d="M466.651,95.477c-1.713,7.825-3.487,15.638-5.123,23.479-2.593,12.426-5.095,24.87-7.631,37.308a6.224,6.224,0,0,0-.064.716,12.408,12.408,0,0,1-.462-2.368q-.063-33.907-.07-67.814.042-9.495.084-18.988c4.9.93,9.8,1.838,14.7,2.8,2.9.569,3.282,1.232,2.706,4.088-.976,4.838-1.915,9.684-2.869,14.526l-1.269,6.254" transform="translate(-273.383 -40.732)" fill="#06367a"/>
          <path id="Trazado_223842" data-name="Trazado 223842" d="M2.925,331.613q4.431-21.168,8.861-42.336c1.744-8.347,3.463-16.7,5.227-25.041.083-.391.487-.713.741-1.066-.034,4.964-.094,9.929-.1,14.893q-.015,35.333,0,70.666v3.247l-5.676-1.065c-3.126-.585-6.248-1.186-9.378-1.749C.5,348.783-.382,347.818.154,345.488c1.056-4.594,1.862-9.246,2.771-13.875" transform="translate(0 -158.079)" fill="#0a3f9c"/>
          <path id="Trazado_223843" data-name="Trazado 223843" d="M90.187,152.862a69.584,69.584,0,0,1,.556-8.078c1.039-5.724,4.433-9.132,10.091-9.919a30.285,30.285,0,0,1,8.99.027c6.931,1.147,11.921,7.58,12.524,15.495.084,1.1.317,2.189.481,3.284q.45,8.737.9,17.471l-2.391,3.914c-2.852-2.394-6.289-1.252-9.482-1.588l-1.358-4.26c2.651-1.877,5.573-3.515,6.231-7.15.742-1.559,1.318-3.1,3.051-4.087.72-.408,1.117-2.348.822-3.337-.271-.905-1.673-1.468-2.577-2.182-.461-.34-.924-.974-1.383-.972a10.809,10.809,0,0,1-7.321-2.936,2.162,2.162,0,0,0-1.861-.244c-4.049,1.642-8.167,2.373-12.481,1.2l-.893,2.761-.9.28c-2.688,2.01-2.689,4.135,0,6.107l2.21,3.909c.989,3.223,3.674,4.854,6.174,6.659l-1.271,4.244c-3.164.365-6.57-.785-9.423,1.523-.658-2.063-1.867-4.125-1.867-6.188,0-5.14.555-10.279.887-15.419l-.02.028.32-.537" transform="translate(-53.675 -80.816)" fill="#233762"/>
          <path id="Trazado_223844" data-name="Trazado 223844" d="M89.9,233.51c2.854-2.308,6.26-1.158,9.424-1.523q.045.527.089,1.053c.944,3,3.127,4.817,5.743,4.792a5.437,5.437,0,0,0,5.242-4.279q.245-.777.491-1.553c3.192.336,6.63-.806,9.482,1.588a10.948,10.948,0,0,1,2.351,7.562c-.053,1.669.047,3.342.078,5.014l-6.183,5.033q0-2.821,0-5.642l-1.142-.022c-.741,1.995-.231,4.157-.347,6.236a22.514,22.514,0,0,1-20.066-.06c-.1-2.06.469-4.233-.381-6.164l-1.18.082v5.27l-6.1-4.925c.028-1.187.127-2.378.071-3.561-.153-3.243.157-6.339,2.434-8.9" transform="translate(-52.706 -139.348)" fill="#fdd36b"/>
          <path id="Trazado_223845" data-name="Trazado 223845" d="M230.691,521h69.847c-.808,3.846-1.544,7.493-2.35,11.124-.408,1.839-1.689,2.018-3.315,1.7q-19.856-3.925-39.728-7.771c-3.191-.617-6.411-1.084-9.618-1.62a9.5,9.5,0,0,0-1.287-.48q-6.771-1.491-13.549-2.949" transform="translate(-139.128 -312.951)" fill="#093984"/>
          <path id="Trazado_223846" data-name="Trazado 223846" d="M289.018,181.65c.019.159.051.317.056.476.183,5.045.015,5.217-5.082,5.217H221.317c-4.457,0-5.345-1.158-4.378-5.706l72.08.013" transform="translate(-130.622 -109.104)" fill="#f9927d"/>
          <path id="Trazado_223847" data-name="Trazado 223847" d="M217.264,169.517c-.013-.88-.3-1.9.035-2.6a5.677,5.677,0,0,1,2.1-2.106c.456-.291,1.241-.061,1.878-.061H284.8c4.458,0,4.787.347,4.561,4.788l-72.094-.015" transform="translate(-130.953 -98.906)" fill="#f7a796"/>
          <path id="Trazado_223848" data-name="Trazado 223848" d="M231.128,327.073q-22.441,0-44.881-.013c-1.088,0-2.54.489-2.458-1.571.071-1.791,1.232-1.75,2.487-1.749q45,.009,90-.007c1.227,0,2.139.031,2.165,1.706.027,1.787-1.047,1.638-2.193,1.638q-22.56-.007-45.12,0" transform="translate(-110.839 -194.457)" fill="#c8d6ef"/>
          <path id="Trazado_223849" data-name="Trazado 223849" d="M92.067,9.662c.561-2.476,1.167-4.942,1.668-7.431C94.086.491,95.03-.263,96.763.081q10.708,2.125,21.412,4.272,0,4.255,0,8.51l-26.286.1-.125-.075-.138.046q.221-1.636.44-3.272" transform="translate(-55.26 0)" fill="#093e95"/>
          <path id="Trazado_223850" data-name="Trazado 223850" d="M296.013,228.765V231.8c-.82.058-1.514.15-2.208.15q-37.492.011-74.983-.012c-.978,0-2.443.552-2.37-1.382.057-1.533.9-1.962,2.356-1.96q37.969.05,75.938.032c.314,0,.628.064,1.268.134" transform="translate(-130.539 -137.314)" fill="#c0cfed"/>
          <path id="Trazado_223851" data-name="Trazado 223851" d="M296.016,211.569h-2.427q-37.224,0-74.449-.031c-.925,0-2.533.734-2.523-1.16.009-1.673,1.115-2.186,2.751-2.183q37.224.057,74.448-.007c2.324,0,2.749,1.019,2.2,3.381" transform="translate(-130.64 -125.053)" fill="#bbcceb"/>
          <path id="Trazado_223852" data-name="Trazado 223852" d="M157.561,452.877H73.728c-.632-2.485-.427-2.76,2.186-2.761q25.665-.013,51.329,0c9.47,0,18.941.04,28.41-.032,2.026-.015,2.587.712,1.908,2.8" transform="translate(-44.283 -270.35)" fill="#cad7f0"/>
          <path id="Trazado_223853" data-name="Trazado 223853" d="M157.528,432.38c-.809.037-1.513.1-2.217.1q-39.751.007-79.5,0c-.4,0-.877.139-1.176-.035-.512-.3-1.279-.8-1.267-1.2a2.324,2.324,0,0,1,1.078-1.529c.4-.258,1.082-.1,1.638-.1q39.631,0,79.263-.03c1.9,0,3,.335,2.182,2.791" transform="translate(-44.247 -258.03)" fill="#cad7f0"/>
          <path id="Trazado_223854" data-name="Trazado 223854" d="M135.776,357.3c-.269,7.381-7.89,14.532-15.744,14.773-1.583.18-1.96-.6-1.979-2.095-.058-4.734-.271-9.467-.424-14.2l1.173-1.228,7.415,1.046,9.559,1.7" transform="translate(-70.941 -212.967)" fill="#59a9f1"/>
          <path id="Trazado_223855" data-name="Trazado 223855" d="M158.515,19.411q0-4.255,0-8.51,15.509,2.965,31.017,5.929,6.183,1.181,12.368,2.354a.217.217,0,0,0-.175.262l-.673.054-42.536-.089" transform="translate(-95.599 -6.548)" fill="#0b3d90"/>
          <path id="Trazado_223856" data-name="Trazado 223856" d="M80.261,203.3c-2.277,2.562-2.587,5.657-2.434,8.9.056,1.183-.043,2.374-.071,3.561-9.071-8.907-8.277-26.638,1.526-34.068-.332,5.139-.885,10.279-.887,15.419,0,2.062,1.208,4.125,1.866,6.188" transform="translate(-43.07 -109.139)" fill="#59a9f1"/>
          <path id="Trazado_223857" data-name="Trazado 223857" d="M216.441,249.839c-.235-1.981,1.082-1.95,2.441-1.949q15.276.017,30.552.006,22.2,0,44.4-.011c1.377,0,2.681-.071,2.244,1.96l-79.634-.006" transform="translate(-130.518 -148.897)" fill="#cedbf1"/>
          <path id="Trazado_223858" data-name="Trazado 223858" d="M217.46,176.825l72.094.015q0,.96-.009,1.92l-72.08-.013q0-.961-.005-1.922" transform="translate(-131.149 -106.214)" fill="#f69a88"/>
          <path id="Trazado_223859" data-name="Trazado 223859" d="M184.819,347.9c.127-.472.119-1.191.415-1.357a3.663,3.663,0,0,1,1.638-.092q44.789,0,89.578.023c1.016,0,2.619-.688,2.565,1.424l-94.2,0" transform="translate(-111.463 -208.055)" fill="#e2eaf8"/>
          <path id="Trazado_223860" data-name="Trazado 223860" d="M84.66,321.094l5.395-4.811a34.7,34.7,0,0,1,.482,4.007c.054,6.717.031,13.434.036,20.151l-3.486,4.132L84.84,342.3a8.1,8.1,0,0,0,.441-1.829q.051-8.85-.008-17.7a5.419,5.419,0,0,0-.614-1.677" transform="translate(-51.058 -189.982)" fill="#fbc562"/>
          <path id="Trazado_223861" data-name="Trazado 223861" d="M98.77,337.228c0-6.717.018-13.434-.036-20.151a34.7,34.7,0,0,0-.482-4.007l5.769-2.136c0,5.592-.034,11.185.018,16.777a17.207,17.207,0,0,0,.555,3.01l-5.825,6.506" transform="translate(-59.255 -186.769)" fill="#fab95b"/>
          <path id="Trazado_223862" data-name="Trazado 223862" d="M216.445,252.778l79.634.006c.219,1.787-1.09,1.408-2.045,1.411-6.04.02-12.081.01-18.121.01q-28.613,0-57.226-.024c-.929,0-2.484.646-2.243-1.4" transform="translate(-130.521 -151.837)" fill="#b1c4e8"/>
          <path id="Trazado_223863" data-name="Trazado 223863" d="M148.814,338.618l-9.559-1.7q0-4.279-.007-8.559l4.841-4.906a17.15,17.15,0,0,1,5.157,13.4,9.467,9.467,0,0,1-.431,1.773" transform="translate(-83.98 -194.287)" fill="#093984"/>
          <path id="Trazado_223864" data-name="Trazado 223864" d="M94.26,365.273l5.824-6.507,1.349-1.143c.153,4.733.366,9.466.424,14.2.019,1.5.4,2.274,1.979,2.094A14.824,14.824,0,0,1,90.774,369.4q1.743-2.062,3.486-4.129" transform="translate(-54.745 -214.814)" fill="#60adf7"/>
          <path id="Trazado_223865" data-name="Trazado 223865" d="M212.86,369.516V372.7H184.11c-.3-1.627-.456-3.148,1.685-3.162,8.912-.059,17.824-.025,27.065-.025" transform="translate(-110.93 -221.952)" fill="#c8d6ef"/>
          <path id="Trazado_223866" data-name="Trazado 223866" d="M337.989,477.252l2.973-.142,6.6-.083,5.288.545.07,1.088a8.177,8.177,0,0,1-2.374.777q-22.619.055-45.239-.046c-.738,0-1.473-.734-2.21-1.125a7.347,7.347,0,0,1,2.291-1.025c2.371-.155,4.757-.092,7.136-.113l6.42-.05,3.348-.038,6.068.137,3.377.109,6.247-.034" transform="translate(-182.799 -286.537)" fill="#093984"/>
          <path id="Trazado_223867" data-name="Trazado 223867" d="M114.692,329.465l-1.349,1.143a17.229,17.229,0,0,1-.555-3.01c-.052-5.592-.021-11.185-.018-16.777l5.255-.075q.251,7.2.5,14.391l-2.66,3.1-1.173,1.229" transform="translate(-68.004 -186.656)" fill="#f8ae53"/>
          <path id="Trazado_223868" data-name="Trazado 223868" d="M361.763,392.377,375.9,376.9l.717.465a6.707,6.707,0,0,1-1.692-.276c-.377-.163-.894-.681-.855-.973.06-.449.505-1.159.856-1.2,2.154-.271,4.327-.386,6.494-.553a50.985,50.985,0,0,1-.3,5.322c-.12.79-.859,1.484-1.318,2.221l-1.615-2.155-14.712,13.881-1.71-1.255" transform="translate(-218.177 -224.869)" fill="#0b3d90"/>
          <path id="Trazado_223869" data-name="Trazado 223869" d="M184.819,350.205l94.2,0q-.007.483-.015.965l-94.16-.044q-.011-.459-.022-.919" transform="translate(-111.463 -210.357)" fill="#c8d6ef"/>
          <path id="Trazado_223870" data-name="Trazado 223870" d="M184.874,352.51l94.16.044c-.616.308-1.232.883-1.848.883q-45.236.066-90.472,0c-.613,0-1.226-.6-1.839-.925" transform="translate(-111.496 -211.743)" fill="#b5c7e9"/>
          <path id="Trazado_223871" data-name="Trazado 223871" d="M294.4,372.708H268.83c-.425-2.643-.052-3.182,2.249-3.187q10.482-.022,20.965,0c2.47.005,2.767.413,2.354,3.187" transform="translate(-162.038 -221.954)" fill="#c8d6ef"/>
          <path id="Trazado_223872" data-name="Trazado 223872" d="M172.9,242.683c-.031-1.672-.131-3.345-.078-5.014a10.949,10.949,0,0,0-2.352-7.561l2.391-3.914,6.612.006a22.621,22.621,0,0,1-6.574,16.484" transform="translate(-102.809 -135.868)" fill="#59a9f1"/>
          <path id="Trazado_223873" data-name="Trazado 223873" d="M181.742,199.919l-6.612-.006q-.449-8.735-.9-17.471c5.221,4.643,7.489,10.571,7.511,17.477" transform="translate(-105.078 -109.588)" fill="#60adf7"/>
          <path id="Trazado_223874" data-name="Trazado 223874" d="M126.528,325.137q-.25-7.2-.5-14.391a16.1,16.1,0,0,1,10.088,5.073l-4.841,4.906-4.747,4.412" transform="translate(-76.007 -186.656)" fill="#f6a14c"/>
          <path id="Trazado_223875" data-name="Trazado 223875" d="M329.914,419.473l1.71,1.255c-3.5,3.44-7.017,6.868-10.5,10.327a1.767,1.767,0,0,1-2.871-.019c-.844-.828-1.767-1.573-2.734-2.423-1.444,1.632-2.68,3.207-4.116,4.568a7.37,7.37,0,0,1-2.449.99,8.465,8.465,0,0,1,.841-2.57c1.193-1.593,2.68-2.961,3.9-4.537,1.186-1.534,2.239-1.5,3.509-.166.709.744,1.537,1.373,2.434,2.162l10.277-9.589" transform="translate(-186.328 -251.965)" fill="#093984"/>
          <path id="Trazado_223876" data-name="Trazado 223876" d="M79.142,328.33a5.419,5.419,0,0,1,.614,1.677q.068,8.849.008,17.7a8.1,8.1,0,0,1-.441,1.829c-5.011-6.119-5.091-15.478-.18-21.206" transform="translate(-45.54 -197.218)" fill="#fdd36b"/>
          <path id="Trazado_223877" data-name="Trazado 223877" d="M381.507,461.811l-6.246.034q.13-5.251.258-10.5l5.892-.024q.048,5.245.1,10.49" transform="translate(-226.318 -271.096)" fill="#59a9f1"/>
          <path id="Trazado_223878" data-name="Trazado 223878" d="M381.593,437.069l-5.893.024c-.059-2.624-.206-5.252-.106-7.871a2.212,2.212,0,0,1,1.484-1.505,29.723,29.723,0,0,1,4.515-.072Z" transform="translate(-226.498 -256.844)" fill="#64b1fe"/>
          <path id="Trazado_223879" data-name="Trazado 223879" d="M333.275,467.871l-6.42.05c.1-2.03.208-4.06.318-6.223h6.1Z" transform="translate(-197.124 -277.329)" fill="#60adf7"/>
          <path id="Trazado_223880" data-name="Trazado 223880" d="M282.338,273.218c-.445.46-.885,1.316-1.334,1.32q-12.867.119-25.735,0c-.45,0-.892-.862-1.34-1.322l28.408,0" transform="translate(-153.144 -164.113)" fill="#b1c4e8"/>
          <path id="Trazado_223881" data-name="Trazado 223881" d="M399.612,414.3a6.641,6.641,0,0,1-.181-.936c-.285-5.487.132-5.842,6.074-4.911v5.828l-5.893.018" transform="translate(-240.855 -245.105)" fill="#fdd36b"/>
          <path id="Trazado_223882" data-name="Trazado 223882" d="M221.153,472.023c.527-.486,1.048-1.39,1.581-1.4q11.3-.139,22.607,0c.534.006,1.058.908,1.586,1.393l-25.775,0" transform="translate(-133.376 -282.65)" fill="#e2eaf8"/>
          <path id="Trazado_223883" data-name="Trazado 223883" d="M221.153,474.223l25.775,0c-.529.476-1.054,1.358-1.589,1.365q-11.3.135-22.6,0c-.535-.006-1.061-.887-1.59-1.361" transform="translate(-133.376 -284.85)" fill="#c0cfed"/>
          <path id="Trazado_223884" data-name="Trazado 223884" d="M405.092,468.827l-6.6.083q.317-2.755.632-5.509l5.847-.026.124,5.452" transform="translate(-240.326 -278.336)" fill="#eb8d44"/>
          <path id="Trazado_223885" data-name="Trazado 223885" d="M399.986,423.66l5.893-.018q0,2.883-.008,5.766l-5.859,0q-.013-2.875-.026-5.75" transform="translate(-241.229 -254.47)" fill="#fab95b"/>
          <path id="Trazado_223886" data-name="Trazado 223886" d="M227.071,271.677c-3.222,0-6.06.071-8.887-.062-.542-.025-1.559-1.041-1.474-1.27.276-.746.924-1.863,1.494-1.9,2.818-.194,5.656-.089,8.712-.089.053,1.13.1,2.037.156,3.323" transform="translate(-130.693 -161.175)" fill="#c0cfed"/>
          <path id="Trazado_223887" data-name="Trazado 223887" d="M152.535,472.019c.522-.487,1.039-1.389,1.568-1.4,6.632-.1,13.266-.083,19.9-.038.771.005,2.21-.334,1.492,1.418l-22.959.017" transform="translate(-91.993 -282.646)" fill="#e2eaf8"/>
          <path id="Trazado_223888" data-name="Trazado 223888" d="M152.535,474.2l22.959-.017c-.536.48-1.067,1.368-1.611,1.376q-9.876.144-19.754,0c-.538-.008-1.063-.886-1.594-1.36" transform="translate(-91.993 -284.831)" fill="#c0cfed"/>
          <path id="Trazado_223889" data-name="Trazado 223889" d="M400.051,438.083l5.859,0q0,2.644,0,5.288l-5.86,0q0-2.644,0-5.288" transform="translate(-241.268 -263.143)" fill="#f8ae53"/>
          <path id="Trazado_223890" data-name="Trazado 223890" d="M400.056,451.324l5.86,0q0,2.407,0,4.813l-5.847.026q0-2.418-.01-4.837" transform="translate(-241.271 -271.096)" fill="#f6a14c"/>
          <path id="Trazado_223891" data-name="Trazado 223891" d="M253.851,269.311c.587-.329,1.171-.94,1.76-.944q12.481-.093,24.963,0c.587,0,1.169.617,1.754.946l-28.477,0" transform="translate(-153.096 -161.172)" fill="#cedbf1"/>
          <path id="Trazado_223892" data-name="Trazado 223892" d="M253.851,270.8l28.477,0c-.012.322-.023.643-.036.965l-28.409,0q-.015-.482-.032-.964" transform="translate(-153.096 -162.663)" fill="#c0cfed"/>
          <path id="Trazado_223893" data-name="Trazado 223893" d="M357.533,472.6l-6.068-.137q.1-1.517.2-3.033l5.823-.025q.024,1.6.049,3.194" transform="translate(-211.966 -281.958)" fill="#eb8d44"/>
          <path id="Trazado_223894" data-name="Trazado 223894" d="M357.75,465.061l-5.823.025q-.01-1.439-.021-2.878l5.848-.033q0,1.444-.005,2.886" transform="translate(-212.233 -277.615)" fill="#f6a14c"/>
          <path id="Trazado_223895" data-name="Trazado 223895" d="M351.523,450.866c-.057-.851-.114-1.7-.183-2.739h6.09v2.72l-5.906.019" transform="translate(-211.891 -269.177)" fill="#fdd36b"/>
          <path id="Trazado_223896" data-name="Trazado 223896" d="M351.8,454.958l5.906-.019q-.008,1.445-.016,2.889l-5.848.033q-.02-1.452-.042-2.9" transform="translate(-212.17 -273.269)" fill="#fab95b"/>
          <path id="Trazado_223897" data-name="Trazado 223897" d="M157.162,272.143c.116-2.079-.394-4.241.347-6.236l1.141.021q0,2.822,0,5.643l-1.49.572" transform="translate(-94.745 -159.723)" fill="#eb8d44"/>
          <path id="Trazado_223898" data-name="Trazado 223898" d="M102.77,271.29v-5.27l1.181-.082c.85,1.931.283,4.1.381,6.164l-1.562-.812" transform="translate(-61.98 -159.741)" fill="#eb8d44"/>
          <path id="Trazado_223899" data-name="Trazado 223899" d="M91.5,180.419l-.32.537.32-.537" transform="translate(-54.993 -108.373)" fill="#59a9f1"/>
          <path id="Trazado_223900" data-name="Trazado 223900" d="M267.378,31.9a.217.217,0,0,1,.175-.262l.628.249-.8.013" transform="translate(-161.252 -19.007)" fill="#84bffa"/>
          <path id="Trazado_223901" data-name="Trazado 223901" d="M195.741,58.166c.195-3.754,1.409-7.055,4.928-8.945A10.772,10.772,0,0,1,211.8,49.6c.661.394.717,1.817,1.053,2.764a9.872,9.872,0,0,1-2.743.512c-1.4-.135-2.76-.861-4.142-.875-2.447-.026-4.624.9-5.507,3.41-.848,2.407-.925,4.888.813,7.043,1.89,2.344,4.469,2.105,7.028,1.726.692-.1,1.362-.712,2.012-.666a11.24,11.24,0,0,1,2.622.827c-.366.872-.488,2.165-1.138,2.545a10.7,10.7,0,0,1-10.91.45c-3.629-1.909-4.983-5.175-5.149-9.169" transform="translate(-118.05 -28.743)" fill="#f9fbfe"/>
          <path id="Trazado_223902" data-name="Trazado 223902" d="M257.167,62.349q1.963-4.842,3.925-9.683a7.252,7.252,0,0,1,1.042-2.392,12.293,12.293,0,0,1,2.71-1.633c.335,1.034,1.212,2.272.916,3.068q-2.92,7.856-6.306,15.534a2.752,2.752,0,0,1-5.106.032q-3.471-7.757-6.444-15.733c-.28-.747.7-1.972,1.1-2.975.89.594,2.218.987,2.6,1.817,1.779,3.909,3.3,7.937,4.909,11.924l.657.042" transform="translate(-149.48 -29.173)" fill="#f9fbfe"/>
          <path id="Trazado_223903" data-name="Trazado 223903" d="M118.577,32.211l42.536.089a14.475,14.475,0,0,1-2.489.431q-31.919.036-63.838,0a14.935,14.935,0,0,1-2.494-.419l26.285-.1" transform="translate(-55.661 -19.348)" fill="#84bffa"/>
          <path id="Trazado_223904" data-name="Trazado 223904" d="M101.81,172.786l.893-2.761c4.314,1.176,8.431.445,12.481-1.2a2.164,2.164,0,0,1,1.861.244,10.811,10.811,0,0,0,7.321,2.937c.459,0,.922.631,1.383.971a23.258,23.258,0,0,0,.024,3.1c.292,2.151-.578,2.713-2.652,2.654-5.065-.147-10.136-.048-15.2-.048-5.917,0-5.917,0-6.107-5.9m17.318.5c-.72,1.178-1.371,1.764-1.313,2.268.072.622.732,1.176,1.139,1.76.371-.441,1.026-.869,1.047-1.325a9.779,9.779,0,0,0-.873-2.7m-8.837,2.395-1.732-1.593c-.347.535-1.01,1.1-.959,1.6.059.572.746,1.079,1.16,1.613l1.532-1.618" transform="translate(-61.401 -101.345)" fill="#f4a393"/>
          <path id="Trazado_223905" data-name="Trazado 223905" d="M100.431,178.9c.19,5.9.19,5.9,6.107,5.9,5.068,0,10.14-.1,15.2.048,2.075.06,2.944-.5,2.653-2.654a23.317,23.317,0,0,1-.025-3.1c.9.714,2.306,1.276,2.577,2.182.3.989-.1,2.929-.822,3.337-1.734.983-2.31,2.529-3.051,4.087l-6.8-.049h-7.726l-6.816.544-2.209-3.909q0-3.053,0-6.107l.9-.28" transform="translate(-60.022 -107.461)" fill="#f69a88"/>
          <path id="Trazado_223906" data-name="Trazado 223906" d="M119.632,203.321l6.8.049c-.658,3.635-3.58,5.274-6.231,7.151l-8.936,0c-2.5-1.8-5.185-3.436-6.174-6.659l6.815-.543a3.718,3.718,0,0,0,3.726,3.052,3.916,3.916,0,0,0,4-3.053" transform="translate(-63.38 -122.129)" fill="#f9927d"/>
          <path id="Trazado_223907" data-name="Trazado 223907" d="M118.717,221.355l8.936,0,1.357,4.26q-.245.777-.491,1.553a11.107,11.107,0,0,0-2.209-.491c-2.924-.056-5.85-.022-8.775-.021l-.088-1.053q.635-2.122,1.27-4.244" transform="translate(-70.832 -132.959)" fill="#f69a88"/>
          <path id="Trazado_223908" data-name="Trazado 223908" d="M96.47,179.6q0,3.053,0,6.107c-2.685-1.971-2.684-4.1,0-6.107" transform="translate(-56.964 -107.883)" fill="#f9927d"/>
          <path id="Trazado_223909" data-name="Trazado 223909" d="M117.669,234.609c2.925,0,5.851-.035,8.775.021a11.105,11.105,0,0,1,2.209.491,5.437,5.437,0,0,1-5.241,4.279c-2.616.025-4.8-1.8-5.743-4.792" transform="translate(-70.965 -140.916)" fill="#f9927d"/>
          <path id="Trazado_223910" data-name="Trazado 223910" d="M123.246,340.146l4.747-4.412q0,4.28.008,8.559l-7.415-1.046,2.66-3.1" transform="translate(-72.725 -201.666)" fill="#0b3d90"/>
          <path id="Trazado_223911" data-name="Trazado 223911" d="M143.443,180.159a9.784,9.784,0,0,1,.873,2.7c-.02.457-.676.885-1.047,1.325-.406-.583-1.066-1.137-1.138-1.76-.058-.5.593-1.091,1.313-2.268" transform="translate(-85.716 -108.216)" fill="#233762"/>
          <path id="Trazado_223912" data-name="Trazado 223912" d="M119.085,183.759l-1.532,1.618c-.414-.535-1.1-1.041-1.16-1.613-.051-.494.612-1.063.959-1.6l1.732,1.593" transform="translate(-70.194 -109.422)" fill="#233762"/>
          <path id="Trazado_223913" data-name="Trazado 223913" d="M129.988,203.321a3.916,3.916,0,0,1-4,3.053,3.718,3.718,0,0,1-3.726-3.052h7.726" transform="translate(-73.735 -122.129)" fill="#f9fbfe"/>
        </g>
      </g>
    </g>
  </g>
</svg>
