<svg id="Grupo_157402" data-name="Grupo 157402" xmlns="http://www.w3.org/2000/svg" xmlns:xlink="http://www.w3.org/1999/xlink" width="378.199" height="334.372" viewBox="0 0 378.199 334.372">
  <defs>
    <clipPath id="clip-path">
      <rect id="Rectángulo_47352" data-name="Rectángulo 47352" width="378.199" height="334.372" fill="none"/>
    </clipPath>
    <clipPath id="clip-path-3">
      <rect id="Rectángulo_47309" data-name="Rectángulo 47309" width="364.346" height="245.201" transform="translate(13.852 64.302)" fill="none"/>
    </clipPath>
    <clipPath id="clip-path-4">
      <rect id="Rectángulo_47310" data-name="Rectángulo 47310" width="55.787" height="43.413" transform="translate(307.69 252.311)" fill="none"/>
    </clipPath>
    <clipPath id="clip-path-5">
      <path id="Trazado_225139" data-name="Trazado 225139" d="M302.613,76.983s-31.808,3.029-50.965,4.5L302.46,226.2l67.211-38.764.033-.02.119-.069v0a3.746,3.746,0,0,0,1.372-3.318V42.576a10.251,10.251,0,0,0-1.167-4.515Z" fill="none"/>
    </clipPath>
    <radialGradient id="radial-gradient" cx="0.234" cy="0.38" r="0.644" gradientTransform="matrix(1.574, 0, 0, -1, 1.208, 3.15)" gradientUnits="objectBoundingBox">
      <stop offset="0" stop-color="#396caa"/>
      <stop offset="1" stop-color="#274f89"/>
    </radialGradient>
    <clipPath id="clip-path-6">
      <path id="Trazado_225140" data-name="Trazado 225140" d="M306.236,0a2.121,2.121,0,0,0-1,.265h0L237.751,39.195l3.18,11.766L257.85,99.149l3.185,1.839L370.03,38.06a8.314,8.314,0,0,0-3-3.437L307.924.5a3.356,3.356,0,0,0-1.6-.5Z" fill="none"/>
    </clipPath>
    <linearGradient id="linear-gradient" x1="-1.46" y1="2.216" x2="-1.453" y2="2.216" gradientUnits="objectBoundingBox">
      <stop offset="0" stop-color="#d4ecff"/>
      <stop offset="0.238" stop-color="#d0e9fd"/>
      <stop offset="0.46" stop-color="#c5e2f9"/>
      <stop offset="0.675" stop-color="#b2d5f1"/>
      <stop offset="0.884" stop-color="#97c3e7"/>
      <stop offset="1" stop-color="#86b8e0"/>
    </linearGradient>
    <clipPath id="clip-path-8">
      <path id="Trazado_225144" data-name="Trazado 225144" d="M240.573,49.4V180.767c0,2.679,1.629,5.792,3.638,6.952l51.671,29.832c2.009,1.16,3.638-.072,3.638-2.751V83.438c0-2.68-1.629-5.793-3.638-6.953L244.211,46.654a2.907,2.907,0,0,0-1.444-.437c-1.291,0-2.194,1.192-2.194,3.187" fill="none"/>
    </clipPath>
    <linearGradient id="linear-gradient-2" x1="-1.751" y1="1.411" x2="-1.743" y2="1.411" gradientUnits="objectBoundingBox">
      <stop offset="0" stop-color="#3919bb"/>
      <stop offset="1" stop-color="#6507fa"/>
    </linearGradient>
    <clipPath id="clip-path-11">
      <rect id="Rectángulo_47315" data-name="Rectángulo 47315" width="44.32" height="33.794" transform="translate(252.468 64.439)" fill="none"/>
    </clipPath>
    <clipPath id="clip-path-12">
      <rect id="Rectángulo_47316" data-name="Rectángulo 47316" width="44.32" height="33.794" transform="translate(252.468 91.191)" fill="none"/>
    </clipPath>
    <clipPath id="clip-path-13">
      <rect id="Rectángulo_47317" data-name="Rectángulo 47317" width="44.32" height="33.793" transform="translate(252.468 118.193)" fill="none"/>
    </clipPath>
    <clipPath id="clip-path-14">
      <rect id="Rectángulo_47318" data-name="Rectángulo 47318" width="44.32" height="33.794" transform="translate(252.468 145.443)" fill="none"/>
    </clipPath>
    <clipPath id="clip-path-15">
      <rect id="Rectángulo_47319" data-name="Rectángulo 47319" width="44.32" height="33.793" transform="translate(252.468 172.154)" fill="none"/>
    </clipPath>
    <clipPath id="clip-path-16">
      <rect id="Rectángulo_47320" data-name="Rectángulo 47320" width="4.211" height="19.445" transform="translate(246.046 56.163)" fill="none"/>
    </clipPath>
    <clipPath id="clip-path-17">
      <rect id="Rectángulo_47321" data-name="Rectángulo 47321" width="4.211" height="19.444" transform="translate(246.046 83.082)" fill="none"/>
    </clipPath>
    <clipPath id="clip-path-18">
      <rect id="Rectángulo_47322" data-name="Rectángulo 47322" width="4.211" height="19.445" transform="translate(246.046 110)" fill="none"/>
    </clipPath>
    <clipPath id="clip-path-19">
      <rect id="Rectángulo_47323" data-name="Rectángulo 47323" width="4.211" height="19.445" transform="translate(246.046 136.918)" fill="none"/>
    </clipPath>
    <clipPath id="clip-path-20">
      <rect id="Rectángulo_47324" data-name="Rectángulo 47324" width="4.211" height="19.445" transform="translate(246.046 163.836)" fill="none"/>
    </clipPath>
    <clipPath id="clip-path-21">
      <path id="Trazado_225208" data-name="Trazado 225208" d="M109.1,200.009v29.4a3.384,3.384,0,0,0,2,2.781,10.647,10.647,0,0,0,9.634,0,3.384,3.384,0,0,0,1.995-2.781v-29.4Z" fill="none"/>
    </clipPath>
    <radialGradient id="radial-gradient-2" cx="-0.062" cy="0.829" r="0.378" gradientTransform="matrix(2.475, 0, 0, -1, 11.81, 7.97)" gradientUnits="objectBoundingBox">
      <stop offset="0" stop-color="#699dd1"/>
      <stop offset="0.266" stop-color="#6296cb"/>
      <stop offset="0.642" stop-color="#5083bd"/>
      <stop offset="1" stop-color="#396caa"/>
    </radialGradient>
    <clipPath id="clip-path-23">
      <path id="Trazado_225210" data-name="Trazado 225210" d="M104.878,159.035v46.11c0,1.63,1.077,3.262,3.233,4.506a17.25,17.25,0,0,0,15.61,0c2.156-1.244,3.234-2.876,3.233-4.506v-46.11Z" fill="none"/>
    </clipPath>
    <radialGradient id="radial-gradient-3" cx="-0.169" cy="1.041" r="0.379" gradientTransform="matrix(2.405, 0, 0, -1, 6.677, 6.603)" xlink:href="#radial-gradient-2"/>
    <clipPath id="clip-path-25">
      <path id="Trazado_225213" data-name="Trazado 225213" d="M151.911,224.752v29.4a3.383,3.383,0,0,0,2,2.781,10.641,10.641,0,0,0,9.634,0,3.383,3.383,0,0,0,2-2.781v-29.4Z" fill="none"/>
    </clipPath>
    <radialGradient id="radial-gradient-4" cx="-0.062" cy="0.829" r="0.378" gradientTransform="matrix(2.475, 0, 0, -1, 16.445, 6.502)" xlink:href="#radial-gradient-2"/>
    <clipPath id="clip-path-27">
      <path id="Trazado_225215" data-name="Trazado 225215" d="M147.685,183.779v46.109c0,1.631,1.078,3.262,3.233,4.507a17.252,17.252,0,0,0,15.611,0c2.155-1.244,3.233-2.876,3.233-4.507V183.779Z" fill="none"/>
    </clipPath>
    <radialGradient id="radial-gradient-5" cx="-0.169" cy="1.041" r="0.379" gradientTransform="matrix(2.405, 0, 0, -1, 9.402, 5.672)" xlink:href="#radial-gradient-2"/>
    <clipPath id="clip-path-29">
      <path id="Trazado_225218" data-name="Trazado 225218" d="M116.019,93.254V93.24l-.269.154c-.142.08-.284.16-.422.243l-17.28,10.206,5.741,4.535c-5.155,2.253-8.412,8.034-8.412,16.578,0,15.758,11.063,34.92,24.71,42.8l84.243,60.156,2.6,17.53,18.2-10.721.049-.028.109-.065,0,0c3.277-1.972,5.3-6.091,5.3-11.927,0-11.832-8.307-26.22-18.555-32.137a18.453,18.453,0,0,0-6.34-2.35c-2.954-15.527-13.759-32.017-26.642-39.456a26.1,26.1,0,0,0-10.9-3.69c-1.759-18.821-14.845-40.21-30.737-49.384-4.961-2.865-9.648-4.22-13.8-4.22a16.082,16.082,0,0,0-7.588,1.795" fill="none"/>
    </clipPath>
    <radialGradient id="radial-gradient-6" cx="0.5" cy="0.5" r="0.471" gradientTransform="matrix(1.139, 0, 0, -1, 0.098, 3.155)" xlink:href="#radial-gradient-2"/>
    <clipPath id="clip-path-31">
      <path id="Trazado_225223" data-name="Trazado 225223" d="M88.322,124.23c0,.67.02,1.345.052,2.023-12.5-5.8-22.263.735-22.263,15.539,0,15.757,11.063,34.918,24.71,42.8L193.89,244.1c10.247,5.916,18.554,1.12,18.554-10.713s-8.307-26.221-18.554-32.137a18.444,18.444,0,0,0-6.341-2.35c-2.955-15.528-13.759-32.018-26.643-39.456a26.068,26.068,0,0,0-10.9-3.689c-1.759-18.822-14.846-40.211-30.737-49.386-4.966-2.867-9.661-4.226-13.82-4.226-10.154,0-17.125,8.092-17.125,22.091" fill="none"/>
    </clipPath>
    <linearGradient id="linear-gradient-4" x1="-0.452" y1="1.57" x2="-0.445" y2="1.57" xlink:href="#linear-gradient"/>
    <clipPath id="clip-path-33">
      <path id="Trazado_225226" data-name="Trazado 225226" d="M99.976,108.684c-4.175,2.41-6.473,7.931-6.473,15.546,0,.591.017,1.185.045,1.785l.394,8.53-7.748-3.592a15.5,15.5,0,0,0-6.4-1.617,7.524,7.524,0,0,0-4.109,1.1c-2.793,1.784-4.395,5.923-4.395,11.356,0,13.845,10.129,31.39,22.119,38.313L196.48,239.61c3.238,1.869,6.133,2.342,7.94,1.3s2.845-3.787,2.845-7.527c0-9.992-7.312-22.654-15.966-27.651a13.353,13.353,0,0,0-4.553-1.719l-3.6-.564-.682-3.585c-2.725-14.32-12.878-29.433-24.144-35.938a20.944,20.944,0,0,0-8.709-3.01l-4.354-.336-.407-4.348c-1.613-17.258-13.986-37.192-28.169-45.38-4.074-2.353-7.9-3.545-11.207-3.545a10.839,10.839,0,0,0-5.494,1.377" fill="none"/>
    </clipPath>
    <radialGradient id="radial-gradient-7" cx="1.002" cy="0.904" r="1.088" gradientTransform="matrix(0.99, 0, 0, -1, -0.005, 3.373)" gradientUnits="objectBoundingBox">
      <stop offset="0" stop-color="#173d7a"/>
      <stop offset="1" stop-color="#274f89"/>
    </radialGradient>
    <clipPath id="clip-path-35">
      <path id="Trazado_225237" data-name="Trazado 225237" d="M24.309,204.557v26.084L46.9,217.6V191.514Z" fill="none"/>
    </clipPath>
    <radialGradient id="radial-gradient-8" cx="-0.095" cy="0.312" r="0.86" gradientTransform="matrix(1.732, 0, 0, -1, 0.788, 7.302)" gradientUnits="objectBoundingBox">
      <stop offset="0" stop-color="#274f89"/>
      <stop offset="1" stop-color="#173d7a"/>
    </radialGradient>
    <clipPath id="clip-path-36">
      <path id="Trazado_225238" data-name="Trazado 225238" d="M1.719,191.514l22.59,13.043L46.9,191.515l-22.59-13.043Z" fill="none"/>
    </clipPath>
    <linearGradient id="linear-gradient-5" x1="-0.038" y1="5.977" x2="-0.016" y2="5.977" xlink:href="#linear-gradient"/>
    <clipPath id="clip-path-37">
      <path id="Trazado_225239" data-name="Trazado 225239" d="M1.719,217.6l22.59,13.043V204.557L1.719,191.514Z" fill="none"/>
    </clipPath>
    <radialGradient id="radial-gradient-9" cx="-1.237" cy="-0.578" r="1.555" gradientTransform="matrix(1.732, 0, 0, -1, 0.056, 7.302)" xlink:href="#radial-gradient-2"/>
    <clipPath id="clip-path-39">
      <path id="Trazado_225243" data-name="Trazado 225243" d="M257.2,273.523v26.084l22.59-13.043V260.48Z" fill="none"/>
    </clipPath>
    <radialGradient id="radial-gradient-10" cx="-0.095" cy="0.312" r="0.86" gradientTransform="matrix(1.732, 0, 0, -1, 8.335, 3.777)" xlink:href="#radial-gradient-8"/>
    <clipPath id="clip-path-40">
      <path id="Trazado_225244" data-name="Trazado 225244" d="M234.614,260.48l22.59,13.043,22.589-13.042L257.2,247.438Z" fill="none"/>
    </clipPath>
    <linearGradient id="linear-gradient-6" x1="-5.193" y1="3.333" x2="-5.171" y2="3.333" xlink:href="#linear-gradient"/>
    <clipPath id="clip-path-41">
      <path id="Trazado_225245" data-name="Trazado 225245" d="M234.614,286.564l22.59,13.043V273.523l-22.59-13.043Z" fill="none"/>
    </clipPath>
    <radialGradient id="radial-gradient-11" cx="-1.237" cy="-0.578" r="1.555" gradientTransform="matrix(1.732, 0, 0, -1, 7.603, 3.777)" xlink:href="#radial-gradient-2"/>
    <clipPath id="clip-path-43">
      <path id="Trazado_225249" data-name="Trazado 225249" d="M198.413,99.306V125.39L221,112.348V86.264Z" fill="none"/>
    </clipPath>
    <radialGradient id="radial-gradient-12" cx="-0.095" cy="0.312" r="0.861" gradientTransform="matrix(1.732, 0, 0, -1, 6.429, 12.683)" xlink:href="#radial-gradient-8"/>
    <clipPath id="clip-path-44">
      <path id="Trazado_225250" data-name="Trazado 225250" d="M175.823,86.264l22.59,13.042L221,86.265l-22.59-13.043Z" fill="none"/>
    </clipPath>
    <linearGradient id="linear-gradient-7" x1="-3.892" y1="10.012" x2="-3.87" y2="10.012" xlink:href="#linear-gradient"/>
    <clipPath id="clip-path-45">
      <path id="Trazado_225251" data-name="Trazado 225251" d="M175.823,112.348l22.59,13.042V99.306l-22.59-13.042Z" fill="none"/>
    </clipPath>
    <radialGradient id="radial-gradient-13" cx="-1.237" cy="-0.578" r="1.555" gradientTransform="matrix(1.732, 0, 0, -1, 5.697, 12.683)" xlink:href="#radial-gradient-2"/>
  </defs>
  <g id="Grupo_157401" data-name="Grupo 157401" clip-path="url(#clip-path)">
    <g id="Grupo_157306" data-name="Grupo 157306">
      <g id="Grupo_157305" data-name="Grupo 157305" clip-path="url(#clip-path)">
        <g id="Grupo_157301" data-name="Grupo 157301" opacity="0.4">
          <g id="Grupo_157300" data-name="Grupo 157300">
            <g id="Grupo_157299" data-name="Grupo 157299" clip-path="url(#clip-path-3)">
              <path id="Trazado_225054" data-name="Trazado 225054" d="M346.909,100.43,315.625,82.366,346.909,64.3l31.284,18.063ZM317.84,82.366,346.909,99.15l29.07-16.783-29.07-16.783Z" fill="#fff"/>
              <path id="Trazado_225055" data-name="Trazado 225055" d="M286.555,100.428l-.276-.16-31.009-17.9L286.554,64.3l.277.16,31.009,17.9Zm-29.07-18.062,29.07,16.783,29.07-16.783L286.554,65.583Z" fill="#fff"/>
              <path id="Trazado_225056" data-name="Trazado 225056" d="M316.732,117.851,285.448,99.789l31.284-18.062L348.017,99.79ZM287.663,99.789l29.069,16.783L345.8,99.79l-29.07-16.784Z" fill="#fff"/>
              <path id="Trazado_225057" data-name="Trazado 225057" d="M346.91,135.274l-.276-.16-31.009-17.9L346.909,99.15l.277.161,31.008,17.9Zm-29.07-18.062,29.07,16.783,29.07-16.782L346.909,100.43Z" fill="#fff"/>
              <path id="Trazado_225058" data-name="Trazado 225058" d="M226.2,100.427l-.276-.16-31.009-17.9L226.2,64.3l.277.161,31.008,17.9Zm-29.07-18.062L226.2,99.148l29.07-16.782L226.2,65.583Z" fill="#fff"/>
              <path id="Trazado_225059" data-name="Trazado 225059" d="M256.379,117.852,225.094,99.788l31.284-18.061.277.16,31.008,17.9Zm-29.07-18.064,29.07,16.784,29.07-16.783L256.378,83.006Z" fill="#fff"/>
              <path id="Trazado_225060" data-name="Trazado 225060" d="M286.556,135.274l-.276-.16-31.009-17.9L286.555,99.15l31.285,18.062Zm-29.07-18.062,29.07,16.783,29.069-16.783-29.07-16.783Z" fill="#fff"/>
              <path id="Trazado_225061" data-name="Trazado 225061" d="M316.733,152.7l-31.284-18.062,31.283-18.062.277.16,31.009,17.9Zm-29.069-18.062,29.069,16.783,29.07-16.783-29.071-16.783Z" fill="#fff"/>
              <path id="Trazado_225062" data-name="Trazado 225062" d="M346.911,170.12l-.276-.16-31.009-17.9L346.91,134,378.2,152.059Zm-29.07-18.062,29.07,16.783,29.07-16.782L346.91,135.275Z" fill="#fff"/>
              <path id="Trazado_225063" data-name="Trazado 225063" d="M165.846,100.427l-.276-.16-31.009-17.9L165.845,64.3l.277.16,31.008,17.9Zm-29.07-18.062,29.07,16.783,29.07-16.783L165.845,65.582Z" fill="#fff"/>
              <path id="Trazado_225064" data-name="Trazado 225064" d="M196.024,117.85l-.276-.16-31.009-17.9,31.284-18.062.277.16,31.008,17.9Zm-29.07-18.062,29.07,16.783,29.07-16.783L196.023,83Z" fill="#fff"/>
              <path id="Trazado_225065" data-name="Trazado 225065" d="M226.2,135.273l-.276-.16-31.009-17.9L226.2,99.149l31.285,18.063Zm-29.07-18.062,29.07,16.783,29.07-16.782L226.2,100.428Z" fill="#fff"/>
              <path id="Trazado_225066" data-name="Trazado 225066" d="M256.379,152.7l-31.285-18.063,31.284-18.062.277.161,31.009,17.9Zm-29.07-18.063,29.07,16.784,29.07-16.783-29.071-16.783Z" fill="#fff"/>
              <path id="Trazado_225067" data-name="Trazado 225067" d="M286.556,170.12l-31.284-18.062L286.556,134l31.284,18.062Zm-29.069-18.062,29.069,16.783,29.07-16.783-29.07-16.783Z" fill="#fff"/>
              <path id="Trazado_225068" data-name="Trazado 225068" d="M316.734,187.542l-.276-.16-31.009-17.9,31.284-18.062.277.16,31.008,17.9Zm-29.07-18.062,29.07,16.783L345.8,169.48,316.733,152.7Z" fill="#fff"/>
              <path id="Trazado_225069" data-name="Trazado 225069" d="M346.912,204.965l-.276-.16-31.009-17.9,31.284-18.062.277.16L378.2,186.9ZM317.842,186.9l29.07,16.783,29.07-16.783L346.911,170.12Z" fill="#fff"/>
              <path id="Trazado_225070" data-name="Trazado 225070" d="M105.492,100.426l-.276-.16-31.009-17.9L105.491,64.3l.277.161,31.008,17.9ZM76.422,82.364l29.07,16.783,29.07-16.782L105.491,65.582Z" fill="#fff"/>
              <path id="Trazado_225071" data-name="Trazado 225071" d="M135.67,117.851,104.385,99.787l31.284-18.061.277.16,31.008,17.9ZM106.6,99.787l29.07,16.784,29.07-16.783L135.669,83Z" fill="#fff"/>
              <path id="Trazado_225072" data-name="Trazado 225072" d="M165.847,135.273l-.276-.16-31.009-17.9,31.284-18.062.277.16,31.009,17.9Zm-29.07-18.062,29.07,16.783,29.07-16.783-29.071-16.783Z" fill="#fff"/>
              <path id="Trazado_225073" data-name="Trazado 225073" d="M196.025,152.7l-.276-.16-31.009-17.9,31.284-18.062.277.16,31.008,17.9Zm-29.07-18.062,29.07,16.783,29.07-16.783-29.071-16.783Z" fill="#fff"/>
              <path id="Trazado_225074" data-name="Trazado 225074" d="M226.2,170.119l-.276-.16-31.009-17.9L226.2,133.995l31.286,18.063Zm-29.07-18.062L226.2,168.84l29.07-16.782L226.2,135.274Z" fill="#fff"/>
              <path id="Trazado_225075" data-name="Trazado 225075" d="M256.379,187.541,225.1,169.479l31.284-18.062,31.285,18.063Zm-29.068-18.062,29.068,16.783,29.07-16.782L256.379,152.7Z" fill="#fff"/>
              <path id="Trazado_225076" data-name="Trazado 225076" d="M286.557,204.965,255.272,186.9l31.284-18.062.277.161,31.008,17.9ZM257.487,186.9l29.07,16.784,29.07-16.783L286.556,170.12Z" fill="#fff"/>
              <path id="Trazado_225077" data-name="Trazado 225077" d="M316.735,222.388l-.276-.16-31.009-17.9,31.284-18.062.277.16,31.008,17.9Zm-29.07-18.062,29.07,16.783,29.07-16.783-29.071-16.783Z" fill="#fff"/>
              <path id="Trazado_225078" data-name="Trazado 225078" d="M346.913,239.811l-.276-.16-31.009-17.9,31.284-18.062.277.16,31.008,17.9Zm-29.07-18.062,29.07,16.783,29.07-16.783-29.071-16.783Z" fill="#fff"/>
              <path id="Trazado_225079" data-name="Trazado 225079" d="M45.137,100.426l-.276-.16-31.009-17.9L45.136,64.3l.277.161,31.009,17.9ZM16.067,82.364l29.07,16.783,29.07-16.783L45.136,65.581Z" fill="#fff"/>
              <path id="Trazado_225080" data-name="Trazado 225080" d="M75.315,117.849l-.276-.16L44.03,99.787,75.314,81.725l.277.16,31.009,17.9ZM46.245,99.787l29.07,16.783,29.07-16.783L75.314,83Z" fill="#fff"/>
              <path id="Trazado_225081" data-name="Trazado 225081" d="M105.493,135.272l-.276-.16-31.009-17.9,31.284-18.062,31.285,18.063ZM76.423,117.21l29.07,16.783,29.07-16.782-29.071-16.784Z" fill="#fff"/>
              <path id="Trazado_225082" data-name="Trazado 225082" d="M135.671,152.7l-31.285-18.064,31.284-18.061.277.16,31.008,17.9ZM106.6,134.633l29.07,16.784,29.07-16.783L135.67,117.851Z" fill="#fff"/>
              <path id="Trazado_225083" data-name="Trazado 225083" d="M165.848,170.119l-.276-.16-31.009-17.9,31.284-18.062.277.16,31.008,17.9Zm-29.07-18.062,29.07,16.783,29.07-16.783-29.071-16.783Z" fill="#fff"/>
              <path id="Trazado_225084" data-name="Trazado 225084" d="M196.026,187.541l-.276-.16-31.009-17.9,31.284-18.062.277.16,31.009,17.9Zm-29.07-18.062,29.07,16.783,29.07-16.783L196.025,152.7Z" fill="#fff"/>
              <path id="Trazado_225085" data-name="Trazado 225085" d="M226.2,204.964l-.276-.16-31.009-17.9L226.2,168.84,257.488,186.9ZM197.134,186.9l29.07,16.783L255.273,186.9,226.2,170.119Z" fill="#fff"/>
              <path id="Trazado_225086" data-name="Trazado 225086" d="M256.38,222.387,225.1,204.325l31.283-18.062,31.286,18.063Zm-29.069-18.062,29.069,16.783,29.07-16.782-29.071-16.784Z" fill="#fff"/>
              <path id="Trazado_225087" data-name="Trazado 225087" d="M286.558,239.812l-31.285-18.064,31.284-18.061.277.16,31.008,17.9Zm-29.07-18.064,29.07,16.784,29.07-16.783-29.071-16.783Z" fill="#fff"/>
              <path id="Trazado_225088" data-name="Trazado 225088" d="M316.736,257.234l-.276-.16-31.009-17.9,31.284-18.062.277.16,31.009,17.9Zm-29.07-18.062,29.07,16.783,29.07-16.783-29.071-16.783Z" fill="#fff"/>
              <path id="Trazado_225089" data-name="Trazado 225089" d="M346.914,274.657l-.276-.16-31.009-17.9,31.284-18.062.277.16L378.2,256.6ZM317.844,256.6l29.07,16.783,29.07-16.783-29.071-16.783Z" fill="#fff"/>
              <path id="Trazado_225090" data-name="Trazado 225090" d="M45.138,135.272l-.276-.16-31.009-17.9L45.137,99.148l.277.16,31.009,17.9ZM16.068,117.21l29.07,16.783,29.07-16.783L45.137,100.427Z" fill="#fff"/>
              <path id="Trazado_225091" data-name="Trazado 225091" d="M75.316,152.7l-.276-.16-31.009-17.9,31.284-18.062.277.16,31.008,17.9Zm-29.07-18.062,29.07,16.783,29.07-16.783L75.315,117.85Z" fill="#fff"/>
              <path id="Trazado_225092" data-name="Trazado 225092" d="M105.494,170.118l-.276-.16-31.009-17.9,31.284-18.062,31.286,18.063Zm-29.07-18.062,29.07,16.783,29.07-16.782-29.071-16.784Z" fill="#fff"/>
              <path id="Trazado_225093" data-name="Trazado 225093" d="M135.671,187.541l-.276-.16-31.009-17.9,31.285-18.062.276.161,31.008,17.9ZM106.6,169.479l29.069,16.783,29.071-16.782L135.671,152.7Z" fill="#fff"/>
              <path id="Trazado_225094" data-name="Trazado 225094" d="M165.849,204.965,134.564,186.9l31.284-18.061.277.16,31.009,17.9ZM136.779,186.9l29.07,16.784,29.07-16.783-29.071-16.783Z" fill="#fff"/>
              <path id="Trazado_225095" data-name="Trazado 225095" d="M196.027,222.387l-.276-.16-31.009-17.9,31.284-18.062.277.16,31.008,17.9Zm-29.07-18.062,29.07,16.783,29.07-16.783-29.071-16.783Z" fill="#fff"/>
              <path id="Trazado_225096" data-name="Trazado 225096" d="M226.2,239.81,194.92,221.748,226.2,203.686l31.285,18.062Zm-29.069-18.062L226.2,238.531l29.07-16.783L226.2,204.965Z" fill="#fff"/>
              <path id="Trazado_225097" data-name="Trazado 225097" d="M256.381,257.233l-.276-.16-31.009-17.9,31.284-18.062,31.285,18.063Zm-29.07-18.062,29.07,16.783,29.07-16.782L256.38,222.388Z" fill="#fff"/>
              <path id="Trazado_225098" data-name="Trazado 225098" d="M286.559,274.656l-.276-.16-31.009-17.9,31.284-18.061.277.16,31.008,17.9Zm-29.07-18.062,29.07,16.783,29.07-16.782-29.071-16.783Z" fill="#fff"/>
              <path id="Trazado_225099" data-name="Trazado 225099" d="M316.737,292.08l-31.285-18.063,31.284-18.062.277.161,31.009,17.9Zm-29.07-18.063,29.07,16.784,29.07-16.783-29.071-16.783Z" fill="#fff"/>
              <path id="Trazado_225100" data-name="Trazado 225100" d="M346.915,309.5l-.276-.16-31.009-17.9,31.284-18.062.277.16,31.008,17.9Zm-29.07-18.062,29.07,16.783,29.07-16.783-29.071-16.783Z" fill="#fff"/>
              <path id="Trazado_225101" data-name="Trazado 225101" d="M45.139,170.118,13.854,152.055l31.284-18.062.277.161,31.008,17.9Zm-29.07-18.063,29.07,16.784,29.07-16.783L45.138,135.273Z" fill="#fff"/>
              <path id="Trazado_225102" data-name="Trazado 225102" d="M75.317,187.541l-.276-.16-31.009-17.9,31.284-18.062.277.16,31.008,17.9Zm-29.07-18.062,29.07,16.783,29.07-16.783L75.316,152.7Z" fill="#fff"/>
              <path id="Trazado_225103" data-name="Trazado 225103" d="M105.5,204.963l-.276-.16L74.21,186.9l31.284-18.062.277.16,31.008,17.9ZM76.425,186.9l29.07,16.783,29.07-16.783-29.071-16.783Z" fill="#fff"/>
              <path id="Trazado_225104" data-name="Trazado 225104" d="M135.673,222.386l-.277-.16-31.009-17.9,31.284-18.062,31.285,18.063ZM106.6,204.324l29.07,16.783,29.069-16.782-29.071-16.784Z" fill="#fff"/>
              <path id="Trazado_225105" data-name="Trazado 225105" d="M165.85,239.809l-.276-.16-31.009-17.9,31.284-18.061.277.16,31.008,17.9Zm-29.07-18.062,29.07,16.783,29.07-16.782-29.071-16.783Z" fill="#fff"/>
              <path id="Trazado_225106" data-name="Trazado 225106" d="M196.027,257.233,164.743,239.17l31.284-18.062,31.285,18.063ZM166.958,239.17l29.069,16.784,29.07-16.783-29.07-16.783Z" fill="#fff"/>
              <path id="Trazado_225107" data-name="Trazado 225107" d="M226.205,274.656l-.276-.16-31.009-17.9L226.2,238.532l.277.16,31.008,17.9Zm-29.07-18.062,29.07,16.783,29.07-16.783L226.2,239.811Z" fill="#fff"/>
              <path id="Trazado_225108" data-name="Trazado 225108" d="M256.382,292.079l-.276-.16-31.009-17.9,31.285-18.062.276.16,31.008,17.9Zm-29.069-18.062L256.382,290.8l29.07-16.783-29.07-16.783Z" fill="#fff"/>
              <path id="Trazado_225109" data-name="Trazado 225109" d="M286.56,309.5l-.276-.16-31.009-17.9,31.284-18.062,31.285,18.063Zm-29.07-18.062,29.07,16.783,29.07-16.782-29.071-16.784Z" fill="#fff"/>
              <path id="Trazado_225110" data-name="Trazado 225110" d="M45.14,204.963,13.855,186.9l31.284-18.062.277.161,31.009,17.9ZM16.07,186.9l29.07,16.784L74.21,186.9,45.139,170.118Z" fill="#fff"/>
              <path id="Trazado_225111" data-name="Trazado 225111" d="M75.318,222.386l-.276-.16-31.009-17.9,31.284-18.062.277.16,31.009,17.9Zm-29.07-18.062,29.07,16.783,29.07-16.783L75.317,187.541Z" fill="#fff"/>
              <path id="Trazado_225112" data-name="Trazado 225112" d="M105.5,239.809l-.276-.16-31.009-17.9L105.5,203.685l.277.16,31.009,17.9Zm-29.07-18.062L105.5,238.53l29.07-16.783L105.5,204.964Z" fill="#fff"/>
              <path id="Trazado_225113" data-name="Trazado 225113" d="M135.673,257.232l-.276-.16-31.009-17.9,31.285-18.062.276.16,31.008,17.9ZM106.6,239.17l29.069,16.783,29.07-16.783-29.07-16.783Z" fill="#fff"/>
              <path id="Trazado_225114" data-name="Trazado 225114" d="M165.851,274.655l-.276-.16-31.009-17.9,31.284-18.062,31.285,18.063Zm-29.07-18.062,29.07,16.783,29.069-16.782L165.85,239.81Z" fill="#fff"/>
              <path id="Trazado_225115" data-name="Trazado 225115" d="M196.028,292.079l-31.284-18.063,31.283-18.062.277.161,31.009,17.9Zm-29.069-18.063L196.028,290.8l29.07-16.783-29.071-16.783Z" fill="#fff"/>
              <path id="Trazado_225116" data-name="Trazado 225116" d="M226.206,309.5l-.276-.16-31.009-17.9,31.284-18.062.277.16,31.009,17.9Zm-29.07-18.062,29.07,16.783,29.07-16.783-29.071-16.783Z" fill="#fff"/>
              <path id="Trazado_225117" data-name="Trazado 225117" d="M45.141,239.808l-.276-.16-31.009-17.9L45.14,203.685l.277.16,31.008,17.9Zm-29.07-18.062,29.07,16.783,29.07-16.782L45.14,204.964Z" fill="#fff"/>
              <path id="Trazado_225118" data-name="Trazado 225118" d="M75.319,257.233,44.034,239.169l31.284-18.061.277.16,31.008,17.9Zm-29.07-18.064,29.07,16.784,29.07-16.783L75.318,222.387Z" fill="#fff"/>
              <path id="Trazado_225119" data-name="Trazado 225119" d="M105.5,274.655l-.276-.16-31.009-17.9L105.5,238.531l.277.16,31.009,17.9Zm-29.07-18.062,29.07,16.783,29.07-16.783L105.5,239.81Z" fill="#fff"/>
              <path id="Trazado_225120" data-name="Trazado 225120" d="M135.674,292.078l-.276-.16-31.009-17.9,31.284-18.062.278.16,31.007,17.9ZM106.6,274.016l29.07,16.783,29.07-16.783-29.071-16.783Z" fill="#fff"/>
              <path id="Trazado_225121" data-name="Trazado 225121" d="M165.851,309.5l-31.284-18.063,31.284-18.062,31.285,18.063Zm-29.069-18.063,29.069,16.783,29.07-16.782-29.07-16.784Z" fill="#fff"/>
              <path id="Trazado_225122" data-name="Trazado 225122" d="M45.142,274.654l-.276-.16-31.009-17.9L45.141,238.53l31.285,18.063Zm-29.07-18.062,29.07,16.783,29.07-16.782L45.141,239.809Z" fill="#fff"/>
              <path id="Trazado_225123" data-name="Trazado 225123" d="M75.32,292.077l-.276-.16-31.009-17.9,31.284-18.061.277.16,31.009,17.9ZM46.25,274.015,75.32,290.8l29.07-16.782L75.319,257.233Z" fill="#fff"/>
              <path id="Trazado_225124" data-name="Trazado 225124" d="M105.5,309.5,74.213,291.437,105.5,273.375l.277.161,31.008,17.9Zm-29.07-18.064,29.07,16.784,29.07-16.783L105.5,274.655Z" fill="#fff"/>
              <path id="Trazado_225125" data-name="Trazado 225125" d="M45.143,309.5l-.276-.16-31.009-17.9,31.284-18.062.277.16,31.009,17.9Zm-29.07-18.062,29.07,16.783,29.07-16.783L45.142,274.654Z" fill="#fff"/>
            </g>
          </g>
        </g>
        <path id="Trazado_225126" data-name="Trazado 225126" d="M192.48,43.7a10.634,10.634,0,0,0-1.705,1.249c-.236-7.672-5.777-10.723-12.6-6.786-5.554,3.207-10.259,10.072-11.946,16.8a7.527,7.527,0,0,0-4.712,1.171c-4.971,2.87-9,9.85-9,15.591s4.031,8.067,9,5.2l30.96-17.875a14.688,14.688,0,0,0,6.646-11.511c0-4.238-2.975-5.956-6.646-3.837" fill="#fff"/>
        <path id="Trazado_225127" data-name="Trazado 225127" d="M106.642,321.253a6.454,6.454,0,0,1-2.919,5.056c-1.612.931-2.919.176-2.919-1.685a6.451,6.451,0,0,1,2.919-5.056c1.612-.931,2.919-.176,2.919,1.685" fill="#fff"/>
        <path id="Trazado_225128" data-name="Trazado 225128" d="M116.1,315.79a6.454,6.454,0,0,1-2.919,5.056c-1.612.931-2.919.176-2.919-1.685a6.452,6.452,0,0,1,2.919-5.056c1.612-.931,2.919-.176,2.919,1.685" fill="#fff"/>
        <path id="Trazado_225129" data-name="Trazado 225129" d="M125.566,310.327a6.452,6.452,0,0,1-2.919,5.056c-1.612.931-2.919.176-2.919-1.685a6.451,6.451,0,0,1,2.919-5.056c1.612-.931,2.919-.176,2.919,1.685" fill="#fff"/>
        <path id="Trazado_225130" data-name="Trazado 225130" d="M135.028,304.864a6.452,6.452,0,0,1-2.919,5.056c-1.612.931-2.919.176-2.919-1.685a6.452,6.452,0,0,1,2.919-5.056c1.612-.931,2.919-.176,2.919,1.685" fill="#fff"/>
        <path id="Trazado_225131" data-name="Trazado 225131" d="M225.1,27.649a6.452,6.452,0,0,1-2.919,5.056c-1.612.931-2.919.176-2.919-1.685a6.452,6.452,0,0,1,2.919-5.056c1.612-.931,2.919-.176,2.919,1.685" fill="#fff"/>
        <path id="Trazado_225132" data-name="Trazado 225132" d="M233.151,23a6.452,6.452,0,0,1-2.919,5.056c-1.612.931-2.919.176-2.919-1.685a6.452,6.452,0,0,1,2.919-5.056c1.612-.931,2.919-.176,2.919,1.685" fill="#fff"/>
        <path id="Trazado_225133" data-name="Trazado 225133" d="M225.1,18.351a6.452,6.452,0,0,1-2.919,5.056c-1.612.931-2.919.176-2.919-1.685a6.452,6.452,0,0,1,2.919-5.056c1.612-.931,2.919-.176,2.919,1.685" fill="#fff"/>
        <path id="Trazado_225134" data-name="Trazado 225134" d="M233.151,13.7a6.452,6.452,0,0,1-2.919,5.056c-1.612.931-2.919.176-2.919-1.685a6.452,6.452,0,0,1,2.919-5.056c1.612-.931,2.919-.176,2.919,1.685" fill="#fff"/>
        <path id="Trazado_225135" data-name="Trazado 225135" d="M83.949,270.835a11.16,11.16,0,0,0-2.852,2.451c-.134-5.623-4.168-7.869-9.136-5a16.627,16.627,0,0,0-4.392,3.832c-2.212-3.866-6.794-4.764-12.1-1.7-7.467,4.311-13.52,14.8-13.52,23.418a16.1,16.1,0,0,0,.135,2.016,5.1,5.1,0,0,0-3.786.764,14.3,14.3,0,0,0-6.469,11.2c0,4.125,2.9,5.8,6.469,3.735L83.949,285.2a13.746,13.746,0,0,0,6.219-10.772c0-3.967-2.784-5.574-6.219-3.591" fill="#fff"/>
        <g id="Grupo_157304" data-name="Grupo 157304" opacity="0.4">
          <g id="Grupo_157303" data-name="Grupo 157303">
            <g id="Grupo_157302" data-name="Grupo 157302" clip-path="url(#clip-path-4)">
              <path id="Trazado_225136" data-name="Trazado 225136" d="M357.53,255.942a10.694,10.694,0,0,0-2.727,2.343c-.128-5.376-3.985-7.524-8.736-4.781a15.9,15.9,0,0,0-4.2,3.664c-2.115-3.7-6.5-4.555-11.573-1.624-7.14,4.123-12.928,14.148-12.928,22.392a15.494,15.494,0,0,0,.129,1.928,4.873,4.873,0,0,0-3.62.73,13.674,13.674,0,0,0-6.186,10.714c0,3.945,2.77,5.544,6.186,3.571l43.654-25.2a13.145,13.145,0,0,0,5.947-10.3c0-3.792-2.662-5.329-5.947-3.433" fill="#fff"/>
            </g>
          </g>
        </g>
        <path id="Trazado_225137" data-name="Trazado 225137" d="M298.431,253.049,240.495,219.6c-2.123-1.226-1.857-3.367.6-4.783L302.5,179.273c2.452-1.416,6.16-1.57,8.284-.344l57.935,33.449c2.124,1.226,1.857,3.367-.594,4.783l-61.407,35.545c-2.451,1.415-6.16,1.569-8.283.343" fill="#7dc3ea"/>
        <path id="Trazado_225138" data-name="Trazado 225138" d="M302.038,242.058a9.074,9.074,0,0,1-4.465-1.049l-57.935-33.45a4.163,4.163,0,0,1-2.293-3.564,5.05,5.05,0,0,1,2.887-4.192l61.4-35.544c2.971-1.717,7.366-1.868,10-.344l57.934,33.449a4.167,4.167,0,0,1,2.293,3.565,5.057,5.057,0,0,1-2.888,4.192l-61.4,35.544a11.325,11.325,0,0,1-5.537,1.393m-2.748-4.024c1.592.919,4.659.758,6.566-.343l61.4-35.544c.859-.5,1.171-1,1.171-1.218,0-.129-.178-.361-.575-.59l-57.935-33.45c-1.59-.918-4.659-.759-6.568.343l-61.4,35.544c-.86.5-1.172,1-1.172,1.219,0,.129.178.36.575.59Z" fill="#fff"/>
      </g>
    </g>
    <g id="Grupo_157308" data-name="Grupo 157308">
      <g id="Grupo_157307" data-name="Grupo 157307" clip-path="url(#clip-path-5)">
        <rect id="Rectángulo_47312" data-name="Rectángulo 47312" width="119.546" height="188.136" transform="translate(251.648 38.061)" fill="url(#radial-gradient)"/>
      </g>
    </g>
    <g id="Grupo_157310" data-name="Grupo 157310">
      <g id="Grupo_157309" data-name="Grupo 157309" clip-path="url(#clip-path-6)">
        <rect id="Rectángulo_47313" data-name="Rectángulo 47313" width="155.068" height="165.508" transform="translate(192.879 73.648) rotate(-58.647)" fill="url(#linear-gradient)"/>
      </g>
    </g>
    <g id="Grupo_157312" data-name="Grupo 157312">
      <g id="Grupo_157311" data-name="Grupo 157311" clip-path="url(#clip-path)">
        <path id="Trazado_225141" data-name="Trazado 225141" d="M299.6,226.066,240.492,191.94c-2.3-1.327-4.162-4.887-4.162-7.952V42.543c0-3.065,1.864-4.474,4.162-3.147L299.6,73.522c2.3,1.327,4.162,4.887,4.162,7.952V222.92c0,3.064-1.863,4.473-4.162,3.146" fill="#5793ce"/>
        <path id="Trazado_225142" data-name="Trazado 225142" d="M300.867,72.811,241.76,38.685a2.458,2.458,0,0,0-3.275.241,3.077,3.077,0,0,1,2.007.47L299.6,73.522c2.3,1.327,4.162,4.887,4.162,7.952V222.92a4.323,4.323,0,0,1-.888,2.9c1.284-.2,2.155-1.522,2.155-3.616V80.763c0-3.064-1.863-6.625-4.162-7.952" fill="#fff"/>
      </g>
    </g>
    <g id="Grupo_157314" data-name="Grupo 157314">
      <g id="Grupo_157313" data-name="Grupo 157313" clip-path="url(#clip-path-8)">
        <path id="Trazado_225143" data-name="Trazado 225143" d="M210.068,21.6,299.52,46.217,330.025,243.33l-89.452-24.619Z" fill="url(#linear-gradient-2)"/>
      </g>
    </g>
    <g id="Grupo_157316" data-name="Grupo 157316">
      <g id="Grupo_157315" data-name="Grupo 157315" clip-path="url(#clip-path-8)">
        <path id="Trazado_225145" data-name="Trazado 225145" d="M210.068,21.6,299.52,46.217,330.025,243.33l-89.452-24.619Z" fill="url(#linear-gradient-2)"/>
      </g>
    </g>
    <g id="Grupo_157348" data-name="Grupo 157348">
      <g id="Grupo_157347" data-name="Grupo 157347" clip-path="url(#clip-path)">
        <path id="Trazado_225147" data-name="Trazado 225147" d="M295.882,217.551l-51.671-29.832c-2.009-1.16-3.638-4.273-3.638-6.952V49.4c0-2.679,1.629-3.911,3.638-2.75l51.671,29.832c2.009,1.16,3.638,4.272,3.638,6.952V214.8c0,2.68-1.629,3.911-3.638,2.751" fill="#173d7a"/>
        <path id="Trazado_225148" data-name="Trazado 225148" d="M297.57,216.558,245.9,186.726c-2.009-1.16-3.638-4.273-3.638-6.952V48.411a4.207,4.207,0,0,1,.522-2.193c-1.3-.01-2.211,1.183-2.211,3.186V180.767c0,2.679,1.629,5.792,3.639,6.952l51.671,29.832c1.324.765,2.479.485,3.116-.557a2.932,2.932,0,0,1-1.428-.436" fill="#396caa"/>
        <path id="Trazado_225149" data-name="Trazado 225149" d="M295.882,157.24l-19.2-11.088-30.631,17.685L299.52,194.71V164.192c0-2.679-1.629-5.792-3.638-6.952" fill="#173d7a"/>
        <path id="Trazado_225150" data-name="Trazado 225150" d="M295.882,130.322l-19.2-11.088-30.631,17.685,53.474,30.873V137.274c0-2.679-1.629-5.792-3.638-6.952" fill="#173d7a"/>
        <path id="Trazado_225151" data-name="Trazado 225151" d="M295.882,103.4l-19.2-11.088L246.046,110l53.474,30.873V110.356c0-2.679-1.629-5.792-3.638-6.952" fill="#173d7a"/>
        <path id="Trazado_225152" data-name="Trazado 225152" d="M295.882,76.485,276.677,65.4,246.046,83.082l53.474,30.873V83.437c0-2.679-1.629-5.792-3.638-6.952" fill="#173d7a"/>
        <path id="Trazado_225153" data-name="Trazado 225153" d="M295.882,76.485,253.364,51.937l-7.318,4.226L299.52,87.036v-3.6c0-2.679-1.629-5.792-3.638-6.952" fill="#173d7a"/>
        <path id="Trazado_225154" data-name="Trazado 225154" d="M299.52,87.037,246.046,56.163V73.177l53.474,30.874Z" fill="#5793ce"/>
        <path id="Trazado_225155" data-name="Trazado 225155" d="M299.52,113.955,246.046,83.081V100.1l53.474,30.874Z" fill="#5793ce"/>
        <path id="Trazado_225156" data-name="Trazado 225156" d="M299.52,140.874,246.046,110v17.014l53.474,30.874Z" fill="#5793ce"/>
        <path id="Trazado_225157" data-name="Trazado 225157" d="M299.52,167.792l-53.474-30.874v17.014l53.474,30.874Z" fill="#5793ce"/>
        <path id="Trazado_225158" data-name="Trazado 225158" d="M299.52,194.71l-53.474-30.874V180.85l53.474,30.874Z" fill="#5793ce"/>
        <path id="Trazado_225159" data-name="Trazado 225159" d="M294.8,97.988,254.527,74.734a4.931,4.931,0,0,1-2.06-3.935V66.243c0-1.516.922-2.213,2.06-1.556L294.8,87.941a4.933,4.933,0,0,1,2.058,3.934v4.556c0,1.517-.922,2.214-2.058,1.557" fill="#173d7a"/>
        <g id="Grupo_157319" data-name="Grupo 157319" opacity="0.3">
          <g id="Grupo_157318" data-name="Grupo 157318">
            <g id="Grupo_157317" data-name="Grupo 157317" clip-path="url(#clip-path-11)">
              <path id="Trazado_225160" data-name="Trazado 225160" d="M256.563,73.861a4.93,4.93,0,0,1-2.06-3.934V65.37a2.967,2.967,0,0,1,.075-.654l-.052-.03c-1.137-.657-2.059.04-2.059,1.557V70.8a4.931,4.931,0,0,0,2.059,3.934L294.8,97.987a1.232,1.232,0,0,0,1.983-.9Z" fill="#06033e"/>
            </g>
          </g>
        </g>
        <path id="Trazado_225161" data-name="Trazado 225161" d="M282.165,85.5,257.927,71.506a1.734,1.734,0,0,1-.724-1.384c0-.533.324-.778.724-.547l24.238,13.993a1.735,1.735,0,0,1,.724,1.384c0,.534-.324.779-.724.548" fill="#fff"/>
        <path id="Trazado_225162" data-name="Trazado 225162" d="M294.8,124.74l-40.278-23.254a4.931,4.931,0,0,1-2.06-3.935V93c0-1.516.922-2.213,2.06-1.556L294.8,114.693a4.933,4.933,0,0,1,2.058,3.934v4.556c0,1.517-.922,2.213-2.058,1.557" fill="#173d7a"/>
        <g id="Grupo_157322" data-name="Grupo 157322" opacity="0.3">
          <g id="Grupo_157321" data-name="Grupo 157321">
            <g id="Grupo_157320" data-name="Grupo 157320" clip-path="url(#clip-path-12)">
              <path id="Trazado_225163" data-name="Trazado 225163" d="M256.563,100.613a4.93,4.93,0,0,1-2.06-3.934V92.122a2.975,2.975,0,0,1,.075-.654l-.052-.03c-1.137-.656-2.059.04-2.059,1.557v4.556a4.931,4.931,0,0,0,2.059,3.934L294.8,124.739a1.232,1.232,0,0,0,1.983-.9Z" fill="#06033e"/>
            </g>
          </g>
        </g>
        <path id="Trazado_225164" data-name="Trazado 225164" d="M282.165,112.252,257.927,98.259a1.737,1.737,0,0,1-.724-1.385c0-.533.324-.778.724-.547l24.238,13.993a1.735,1.735,0,0,1,.724,1.384c0,.534-.324.779-.724.548" fill="#fff"/>
        <path id="Trazado_225165" data-name="Trazado 225165" d="M294.8,151.741l-40.278-23.254a4.931,4.931,0,0,1-2.06-3.935V120c0-1.516.922-2.213,2.06-1.556L294.8,141.694a4.933,4.933,0,0,1,2.058,3.934v4.556c0,1.517-.922,2.213-2.058,1.557" fill="#173d7a"/>
        <g id="Grupo_157325" data-name="Grupo 157325" opacity="0.3">
          <g id="Grupo_157324" data-name="Grupo 157324">
            <g id="Grupo_157323" data-name="Grupo 157323" clip-path="url(#clip-path-13)">
              <path id="Trazado_225166" data-name="Trazado 225166" d="M256.563,127.614a4.93,4.93,0,0,1-2.06-3.934v-4.556a2.977,2.977,0,0,1,.075-.655l-.052-.03c-1.137-.656-2.059.04-2.059,1.557v4.556a4.931,4.931,0,0,0,2.059,3.934L294.8,151.74a1.232,1.232,0,0,0,1.983-.9Z" fill="#06033e"/>
            </g>
          </g>
        </g>
        <path id="Trazado_225167" data-name="Trazado 225167" d="M282.165,139.253,257.927,125.26a1.737,1.737,0,0,1-.724-1.385c0-.533.324-.778.724-.547l24.238,13.993a1.735,1.735,0,0,1,.724,1.384c0,.534-.324.779-.724.548" fill="#d4ecff"/>
        <path id="Trazado_225168" data-name="Trazado 225168" d="M294.8,178.992l-40.278-23.254a4.931,4.931,0,0,1-2.06-3.935v-4.556c0-1.516.922-2.213,2.06-1.556L294.8,168.945a4.933,4.933,0,0,1,2.058,3.934v4.556c0,1.517-.922,2.214-2.058,1.557" fill="#173d7a"/>
        <g id="Grupo_157328" data-name="Grupo 157328" opacity="0.3">
          <g id="Grupo_157327" data-name="Grupo 157327">
            <g id="Grupo_157326" data-name="Grupo 157326" clip-path="url(#clip-path-14)">
              <path id="Trazado_225169" data-name="Trazado 225169" d="M256.563,154.865a4.93,4.93,0,0,1-2.06-3.934v-4.557a2.967,2.967,0,0,1,.075-.654l-.052-.03c-1.137-.656-2.059.04-2.059,1.557V151.8a4.931,4.931,0,0,0,2.059,3.934L294.8,178.991a1.232,1.232,0,0,0,1.983-.9Z" fill="#06033e"/>
            </g>
          </g>
        </g>
        <path id="Trazado_225170" data-name="Trazado 225170" d="M282.165,166.5l-24.238-13.994a1.734,1.734,0,0,1-.724-1.384c0-.533.324-.778.724-.547l24.238,13.993a1.735,1.735,0,0,1,.724,1.384c0,.534-.324.779-.724.548" fill="#ff2c9c"/>
        <path id="Trazado_225171" data-name="Trazado 225171" d="M294.8,205.7l-40.278-23.254a4.931,4.931,0,0,1-2.06-3.935v-4.556c0-1.516.922-2.213,2.06-1.556L294.8,195.655a4.933,4.933,0,0,1,2.058,3.934v4.556c0,1.517-.922,2.214-2.058,1.557" fill="#173d7a"/>
        <g id="Grupo_157331" data-name="Grupo 157331" opacity="0.3">
          <g id="Grupo_157330" data-name="Grupo 157330">
            <g id="Grupo_157329" data-name="Grupo 157329" clip-path="url(#clip-path-15)">
              <path id="Trazado_225172" data-name="Trazado 225172" d="M256.563,181.576a4.93,4.93,0,0,1-2.06-3.934v-4.557a2.967,2.967,0,0,1,.075-.654l-.052-.03c-1.137-.657-2.059.04-2.059,1.557v4.556a4.931,4.931,0,0,0,2.059,3.934L294.8,205.7a1.232,1.232,0,0,0,1.983-.9Z" fill="#06033e"/>
            </g>
          </g>
        </g>
        <path id="Trazado_225173" data-name="Trazado 225173" d="M282.165,193.214,257.927,179.22a1.734,1.734,0,0,1-.724-1.384c0-.533.324-.778.724-.547l24.238,13.993a1.735,1.735,0,0,1,.724,1.384c0,.534-.324.779-.724.548" fill="#d4ecff"/>
        <g id="Grupo_157334" data-name="Grupo 157334" opacity="0.5">
          <g id="Grupo_157333" data-name="Grupo 157333">
            <g id="Grupo_157332" data-name="Grupo 157332" clip-path="url(#clip-path-16)">
              <path id="Trazado_225174" data-name="Trazado 225174" d="M246.046,56.163l4.211,2.431V75.608l-4.211-2.431Z" fill="#173d7a"/>
            </g>
          </g>
        </g>
        <g id="Grupo_157337" data-name="Grupo 157337" opacity="0.5">
          <g id="Grupo_157336" data-name="Grupo 157336">
            <g id="Grupo_157335" data-name="Grupo 157335" clip-path="url(#clip-path-17)">
              <path id="Trazado_225175" data-name="Trazado 225175" d="M246.046,83.082l4.211,2.431v17.014l-4.211-2.431Z" fill="#173d7a"/>
            </g>
          </g>
        </g>
        <g id="Grupo_157340" data-name="Grupo 157340" opacity="0.5">
          <g id="Grupo_157339" data-name="Grupo 157339">
            <g id="Grupo_157338" data-name="Grupo 157338" clip-path="url(#clip-path-18)">
              <path id="Trazado_225176" data-name="Trazado 225176" d="M246.046,110l4.211,2.431v17.014l-4.211-2.431Z" fill="#173d7a"/>
            </g>
          </g>
        </g>
        <g id="Grupo_157343" data-name="Grupo 157343" opacity="0.5">
          <g id="Grupo_157342" data-name="Grupo 157342">
            <g id="Grupo_157341" data-name="Grupo 157341" clip-path="url(#clip-path-19)">
              <path id="Trazado_225177" data-name="Trazado 225177" d="M246.046,136.918l4.211,2.431v17.014l-4.211-2.431Z" fill="#173d7a"/>
            </g>
          </g>
        </g>
        <g id="Grupo_157346" data-name="Grupo 157346" opacity="0.5">
          <g id="Grupo_157345" data-name="Grupo 157345">
            <g id="Grupo_157344" data-name="Grupo 157344" clip-path="url(#clip-path-20)">
              <path id="Trazado_225178" data-name="Trazado 225178" d="M246.046,163.836l4.211,2.431v17.014l-4.211-2.431Z" fill="#173d7a"/>
            </g>
          </g>
        </g>
        <path id="Trazado_225179" data-name="Trazado 225179" d="M286.94,87.18c0,.544-.382.764-.853.492a1.886,1.886,0,0,1-.852-1.476c0-.544.382-.764.852-.493a1.885,1.885,0,0,1,.853,1.477" fill="#d4ecff"/>
        <path id="Trazado_225180" data-name="Trazado 225180" d="M290.555,89.266c0,.544-.382.764-.853.492a1.886,1.886,0,0,1-.852-1.476c0-.544.382-.765.852-.493a1.885,1.885,0,0,1,.853,1.477" fill="#ff2c9c"/>
        <path id="Trazado_225181" data-name="Trazado 225181" d="M294.169,91.353c0,.544-.382.764-.853.492a1.886,1.886,0,0,1-.852-1.476c0-.544.382-.765.852-.493a1.885,1.885,0,0,1,.853,1.477" fill="#d4ecff"/>
        <path id="Trazado_225182" data-name="Trazado 225182" d="M286.94,114.084c0,.544-.382.764-.853.492a1.886,1.886,0,0,1-.852-1.476c0-.544.382-.765.852-.493a1.885,1.885,0,0,1,.853,1.477" fill="#ff2c9c"/>
        <path id="Trazado_225183" data-name="Trazado 225183" d="M290.555,116.171c0,.544-.382.764-.853.492a1.886,1.886,0,0,1-.852-1.476c0-.544.382-.765.852-.493a1.885,1.885,0,0,1,.853,1.477" fill="#d4ecff"/>
        <path id="Trazado_225184" data-name="Trazado 225184" d="M294.169,118.258c0,.544-.382.764-.853.492a1.886,1.886,0,0,1-.852-1.476c0-.544.382-.765.852-.493a1.885,1.885,0,0,1,.853,1.477" fill="#fff"/>
        <path id="Trazado_225185" data-name="Trazado 225185" d="M286.94,141.192c0,.544-.382.764-.853.492a1.886,1.886,0,0,1-.852-1.476c0-.544.382-.765.852-.493a1.885,1.885,0,0,1,.853,1.477" fill="#fff"/>
        <path id="Trazado_225186" data-name="Trazado 225186" d="M290.555,143.279c0,.544-.382.764-.853.492a1.886,1.886,0,0,1-.852-1.476c0-.544.382-.764.852-.493a1.885,1.885,0,0,1,.853,1.477" fill="#ff2c9c"/>
        <path id="Trazado_225187" data-name="Trazado 225187" d="M294.169,145.366c0,.544-.382.764-.853.492a1.887,1.887,0,0,1-.852-1.477c0-.543.382-.764.852-.492a1.885,1.885,0,0,1,.853,1.477" fill="#fff"/>
        <path id="Trazado_225188" data-name="Trazado 225188" d="M286.94,167.9c0,.544-.382.764-.853.492a1.886,1.886,0,0,1-.852-1.476c0-.544.382-.765.852-.493a1.885,1.885,0,0,1,.853,1.477" fill="#fff"/>
        <path id="Trazado_225189" data-name="Trazado 225189" d="M290.555,169.992c0,.544-.382.764-.853.492a1.886,1.886,0,0,1-.852-1.477c0-.543.382-.764.852-.492a1.885,1.885,0,0,1,.853,1.477" fill="#d4ecff"/>
        <path id="Trazado_225190" data-name="Trazado 225190" d="M294.169,172.079c0,.544-.382.764-.853.492a1.886,1.886,0,0,1-.852-1.476c0-.544.382-.765.852-.493a1.885,1.885,0,0,1,.853,1.477" fill="#d4ecff"/>
        <path id="Trazado_225191" data-name="Trazado 225191" d="M286.94,194.982c0,.544-.382.764-.853.492a1.886,1.886,0,0,1-.852-1.476c0-.544.382-.765.852-.493a1.885,1.885,0,0,1,.853,1.477" fill="#fff"/>
        <path id="Trazado_225192" data-name="Trazado 225192" d="M290.555,197.069c0,.544-.382.764-.853.492a1.886,1.886,0,0,1-.852-1.476c0-.544.382-.765.852-.493a1.885,1.885,0,0,1,.853,1.477" fill="#ff2c9c"/>
        <path id="Trazado_225193" data-name="Trazado 225193" d="M294.169,199.156c0,.544-.382.764-.853.492a1.886,1.886,0,0,1-.852-1.476c0-.544.382-.765.852-.493a1.885,1.885,0,0,1,.853,1.477" fill="#d4ecff"/>
        <path id="Trazado_225194" data-name="Trazado 225194" d="M312.665,206.946V86.5l.249-.143L363.251,57.3V177.741l-.25.143Zm1-119.866V205.219l48.592-28.054V59.026Z" fill="#173d7a"/>
        <path id="Trazado_225195" data-name="Trazado 225195" d="M350.175,111.49l-22.57,13.031c-1.516.875-2.745-.054-2.745-2.075V109.932a6.576,6.576,0,0,1,2.745-5.246l22.57-13.031c1.516-.875,2.745.054,2.745,2.076v12.514a6.574,6.574,0,0,1-2.745,5.245" fill="#173d7a"/>
        <path id="Trazado_225196" data-name="Trazado 225196" d="M350.722,91.413a3.624,3.624,0,0,1,.2,1.255v12.514a6.571,6.571,0,0,1-2.746,5.245l-22.57,13.031a2.64,2.64,0,0,1-.547.243,1.6,1.6,0,0,0,2.541.82l22.57-13.031a6.572,6.572,0,0,0,2.745-5.245V93.731c0-1.771-.943-2.7-2.2-2.318" fill="#5793ce"/>
        <path id="Trazado_225197" data-name="Trazado 225197" d="M346.052,103.953c.417-.241.755-.046.755.436v2.851a1.669,1.669,0,0,1-.755,1.308c-.417.241-.755.046-.755-.436v-2.851a1.67,1.67,0,0,1,.755-1.308" fill="#fff"/>
        <path id="Trazado_225198" data-name="Trazado 225198" d="M342.814,106.179c.417-.241.755-.046.755.436v2.494a1.671,1.671,0,0,1-.755,1.309c-.417.241-.755.046-.755-.436v-2.5a1.67,1.67,0,0,1,.755-1.308" fill="#d4ecff"/>
        <path id="Trazado_225199" data-name="Trazado 225199" d="M339.577,105.265c.416-.241.754-.046.754.436v5.277a1.672,1.672,0,0,1-.754,1.309c-.418.241-.755.046-.755-.436v-5.277a1.668,1.668,0,0,1,.755-1.309" fill="#ff2c9c"/>
        <path id="Trazado_225200" data-name="Trazado 225200" d="M336.339,104.094c.417-.241.755-.046.755.436v8.318a1.671,1.671,0,0,1-.755,1.309c-.417.241-.755.046-.755-.436V105.4a1.671,1.671,0,0,1,.755-1.309" fill="#d4ecff"/>
        <path id="Trazado_225201" data-name="Trazado 225201" d="M333.1,106.835c.417-.241.755-.046.755.436v7.446a1.671,1.671,0,0,1-.755,1.309c-.417.241-.756.045-.756-.437v-7.445a1.672,1.672,0,0,1,.756-1.309" fill="#d4ecff"/>
        <path id="Trazado_225202" data-name="Trazado 225202" d="M329.863,112.107c.417-.241.755-.046.755.436v4.044a1.671,1.671,0,0,1-.755,1.309c-.417.241-.756.045-.756-.437v-4.043a1.672,1.672,0,0,1,.756-1.309" fill="#fff"/>
        <path id="Trazado_225203" data-name="Trazado 225203" d="M345.309,102.513c0,.474.333.666.743.429a1.643,1.643,0,0,0,.743-1.287c0-.474-.333-.666-.743-.429a1.643,1.643,0,0,0-.743,1.287" fill="#ff2c9c"/>
        <path id="Trazado_225204" data-name="Trazado 225204" d="M345.309,99.834c0,.474.333.666.743.429a1.643,1.643,0,0,0,.743-1.287c0-.474-.333-.666-.743-.429a1.643,1.643,0,0,0-.743,1.287" fill="#fff"/>
        <path id="Trazado_225205" data-name="Trazado 225205" d="M175.388,317.444,63.907,253.155,96.4,234.4l111.482,64.289Z" fill="#7dc3ea"/>
        <path id="Trazado_225206" data-name="Trazado 225206" d="M175.389,302.65a1.717,1.717,0,0,1-.858-.23L63.049,238.132a1.717,1.717,0,0,1,0-2.975L95.537,216.4a1.718,1.718,0,0,1,1.717,0l111.482,64.289a1.718,1.718,0,0,1,0,2.976l-32.489,18.756a1.705,1.705,0,0,1-.858.231M67.344,236.643,175.388,298.95l29.053-16.774L96.4,219.87Z" fill="#fff"/>
        <path id="Trazado_225207" data-name="Trazado 225207" d="M115.916,249.835a1.378,1.378,0,0,1-1.378-1.378V204.941a1.378,1.378,0,0,1,2.756,0v43.516a1.378,1.378,0,0,1-1.378,1.378" fill="#396caa"/>
      </g>
    </g>
    <g id="Grupo_157350" data-name="Grupo 157350">
      <g id="Grupo_157349" data-name="Grupo 157349" clip-path="url(#clip-path-21)">
        <rect id="Rectángulo_47326" data-name="Rectángulo 47326" width="13.624" height="33.716" transform="translate(109.104 200.009)" fill="url(#radial-gradient-2)"/>
      </g>
    </g>
    <g id="Grupo_157352" data-name="Grupo 157352">
      <g id="Grupo_157351" data-name="Grupo 157351" clip-path="url(#clip-path)">
        <path id="Trazado_225209" data-name="Trazado 225209" d="M109.1,204.845v9.949a17.622,17.622,0,0,0,13.624,0v-9.95a17.626,17.626,0,0,0-13.624,0" fill="#396caa"/>
      </g>
    </g>
    <g id="Grupo_157354" data-name="Grupo 157354">
      <g id="Grupo_157353" data-name="Grupo 157353" clip-path="url(#clip-path-23)">
        <rect id="Rectángulo_47328" data-name="Rectángulo 47328" width="22.077" height="53.105" transform="translate(104.878 159.035)" fill="url(#radial-gradient-3)"/>
      </g>
    </g>
    <g id="Grupo_157356" data-name="Grupo 157356">
      <g id="Grupo_157355" data-name="Grupo 157355" clip-path="url(#clip-path)">
        <path id="Trazado_225211" data-name="Trazado 225211" d="M114,224.938c0,1.352-.949,1.9-2.12,1.224a4.684,4.684,0,0,1-2.121-3.673c0-1.352.949-1.9,2.121-1.224a4.689,4.689,0,0,1,2.12,3.673" fill="#d4ecff"/>
        <path id="Trazado_225212" data-name="Trazado 225212" d="M158.724,274.579a1.378,1.378,0,0,1-1.378-1.378V229.684a1.378,1.378,0,0,1,2.756,0V273.2a1.378,1.378,0,0,1-1.378,1.378" fill="#396caa"/>
      </g>
    </g>
    <g id="Grupo_157358" data-name="Grupo 157358">
      <g id="Grupo_157357" data-name="Grupo 157357" clip-path="url(#clip-path-25)">
        <rect id="Rectángulo_47330" data-name="Rectángulo 47330" width="13.624" height="33.717" transform="translate(151.911 224.752)" fill="url(#radial-gradient-4)"/>
      </g>
    </g>
    <g id="Grupo_157360" data-name="Grupo 157360">
      <g id="Grupo_157359" data-name="Grupo 157359" clip-path="url(#clip-path)">
        <path id="Trazado_225214" data-name="Trazado 225214" d="M151.911,229.589v9.949a17.622,17.622,0,0,0,13.624,0v-9.95a17.626,17.626,0,0,0-13.624,0" fill="#396caa"/>
      </g>
    </g>
    <g id="Grupo_157362" data-name="Grupo 157362">
      <g id="Grupo_157361" data-name="Grupo 157361" clip-path="url(#clip-path-27)">
        <rect id="Rectángulo_47332" data-name="Rectángulo 47332" width="22.077" height="53.105" transform="translate(147.685 183.779)" fill="url(#radial-gradient-5)"/>
      </g>
    </g>
    <g id="Grupo_157364" data-name="Grupo 157364">
      <g id="Grupo_157363" data-name="Grupo 157363" clip-path="url(#clip-path)">
        <path id="Trazado_225216" data-name="Trazado 225216" d="M156.812,249.682c0,1.352-.949,1.9-2.12,1.224a4.684,4.684,0,0,1-2.121-3.673c0-1.352.949-1.9,2.121-1.224a4.687,4.687,0,0,1,2.12,3.673" fill="#d4ecff"/>
        <path id="Trazado_225217" data-name="Trazado 225217" d="M73.606,125.658l29.305-16.86s-1.1,16.825-1.1,16.86-16.834,5.214-16.834,5.214Z" fill="#5793ce"/>
      </g>
    </g>
    <g id="Grupo_157366" data-name="Grupo 157366">
      <g id="Grupo_157365" data-name="Grupo 157365" clip-path="url(#clip-path-29)">
        <rect id="Rectángulo_47334" data-name="Rectángulo 47334" width="135.208" height="153.981" transform="translate(95.378 91.459)" fill="url(#radial-gradient-6)"/>
      </g>
    </g>
    <g id="Grupo_157368" data-name="Grupo 157368">
      <g id="Grupo_157367" data-name="Grupo 157367" clip-path="url(#clip-path)">
        <path id="Trazado_225219" data-name="Trazado 225219" d="M96.231,118.018l39.661-23.173c-7.7-4.015-14.656-4.346-19.873-1.592v-.014l-.27.155c-.142.079-.282.16-.422.243l-17.28,10.206,5.742,4.535c-3.6,1.575-6.274,4.878-7.559,9.64" fill="#5793ce"/>
        <path id="Trazado_225220" data-name="Trazado 225220" d="M169.475,186.188l28.937-16.982c-4.963-8.584-11.8-16.084-19.364-20.453q-1.5-.867-2.963-1.524l-36.808,21.525Z" fill="#5793ce"/>
        <path id="Trazado_225221" data-name="Trazado 225221" d="M106.2,105.739l12.9,7.446,23.617-13.91a46.655,46.655,0,0,0-5.306-3.6,33.086,33.086,0,0,0-8.253-3.467Z" fill="#d4ecff"/>
        <path id="Trazado_225222" data-name="Trazado 225222" d="M195.221,164.21l-23.1,13.609,8.033,8.96,20.967-12.38a67.287,67.287,0,0,0-5.9-10.189" fill="#d4ecff"/>
      </g>
    </g>
    <g id="Grupo_157370" data-name="Grupo 157370">
      <g id="Grupo_157369" data-name="Grupo 157369" clip-path="url(#clip-path-31)">
        <rect id="Rectángulo_47336" data-name="Rectángulo 47336" width="146.333" height="147.874" transform="translate(66.111 102.138)" fill="url(#linear-gradient-4)"/>
      </g>
    </g>
    <g id="Grupo_157372" data-name="Grupo 157372">
      <g id="Grupo_157371" data-name="Grupo 157371" clip-path="url(#clip-path)">
        <path id="Trazado_225224" data-name="Trazado 225224" d="M88.373,126.253c-.031-.678-.051-1.354-.051-2.023,0-.028,0-.056,0-.084-6.9-2.684-12.837-1.516-16.561,2.792,4.045-3.33,9.928-3.784,16.61-.685" fill="#fff"/>
        <path id="Trazado_225225" data-name="Trazado 225225" d="M195.4,199.775a18.46,18.46,0,0,0-6.34-2.35c-2.955-15.528-13.76-32.018-26.643-39.456a26.082,26.082,0,0,0-10.9-3.689c-1.759-18.821-14.846-40.211-30.737-49.386-10.647-6.147-20.037-5.358-25.605.882,5.673-4.848,14.356-5.034,24.1.589,15.892,9.175,28.978,30.564,30.737,49.385a26.085,26.085,0,0,1,10.9,3.69c12.884,7.438,23.688,23.928,26.643,39.456a18.453,18.453,0,0,1,6.34,2.35c10.248,5.916,18.555,20.3,18.555,32.137,0,4.27-1.094,7.607-2.958,9.871,2.779-2.141,4.467-6.023,4.467-11.342,0-11.832-8.307-26.221-18.555-32.137" fill="#fff"/>
      </g>
    </g>
    <g id="Grupo_157374" data-name="Grupo 157374">
      <g id="Grupo_157373" data-name="Grupo 157373" clip-path="url(#clip-path-33)">
        <rect id="Rectángulo_47338" data-name="Rectángulo 47338" width="135.973" height="134.645" transform="translate(71.292 107.307)" fill="url(#radial-gradient-7)"/>
      </g>
    </g>
    <g id="Grupo_157376" data-name="Grupo 157376">
      <g id="Grupo_157375" data-name="Grupo 157375" clip-path="url(#clip-path)">
        <path id="Trazado_225227" data-name="Trazado 225227" d="M137.634,195.55l2.719-1.365-2.677-2.028Z" fill="#5793ce"/>
        <path id="Trazado_225228" data-name="Trazado 225228" d="M129.468,158.821l2.639-1.335.048,1.382Z" fill="#5793ce"/>
        <path id="Trazado_225229" data-name="Trazado 225229" d="M145.39,186.964l2.755-1.385-5.3-5.043Z" fill="#5793ce"/>
        <path id="Trazado_225230" data-name="Trazado 225230" d="M139.557,194.1l-12.872-7.581a2.74,2.74,0,0,1-1.179-2.165l.042-14.9,15.238,8.975-.042,14.9c0,.811-.534,1.156-1.187.771" fill="#5793ce"/>
        <path id="Trazado_225231" data-name="Trazado 225231" d="M132.08,157.5l-13.9,8.946c-.59.38-.113,1.795.783,2.323l14.2,8.363,14.2,8.362c.9.528,1.379-.322.793-1.394l-13.806-25.266c-.6-1.091-1.665-1.721-2.265-1.334" fill="#5793ce"/>
        <path id="Trazado_225232" data-name="Trazado 225232" d="M136.8,195.487l-12.872-7.581a2.74,2.74,0,0,1-1.179-2.165l.042-14.9,15.238,8.975-.042,14.9c0,.811-.534,1.156-1.187.771" fill="#d4ecff"/>
        <path id="Trazado_225233" data-name="Trazado 225233" d="M129.319,158.893l-13.9,8.946c-.59.38-.113,1.795.783,2.323l14.2,8.363,14.2,8.362c.9.528,1.379-.322.793-1.394l-13.806-25.266c-.6-1.091-1.665-1.721-2.265-1.334" fill="#d4ecff"/>
        <path id="Trazado_225234" data-name="Trazado 225234" d="M193.292,334.372a1.412,1.412,0,0,1-1.412-1.412V314.873a1.411,1.411,0,0,1,.706-1.223l15.665-9.044a1.412,1.412,0,0,1,2.118,1.223v18.087a1.411,1.411,0,0,1-.706,1.223L194,334.183a1.423,1.423,0,0,1-.706.189m1.412-18.684v14.827l12.841-7.415V308.274Zm14.253,8.228h0Z" fill="#fff"/>
        <path id="Trazado_225235" data-name="Trazado 225235" d="M24.309,250.626,1.718,237.583l22.59-13.042L46.9,237.584Z" fill="#7dc3ea"/>
        <path id="Trazado_225236" data-name="Trazado 225236" d="M24.308,242.55a1.708,1.708,0,0,1-.858-.231L.859,229.276a1.717,1.717,0,0,1,0-2.974L23.45,213.26a1.716,1.716,0,0,1,1.717,0L47.757,226.3a1.717,1.717,0,0,1,0,2.974l-22.59,13.043a1.712,1.712,0,0,1-.859.231M5.152,227.789l19.156,11.06,19.156-11.06L24.308,216.73Z" fill="#fff"/>
      </g>
    </g>
    <g id="Grupo_157378" data-name="Grupo 157378">
      <g id="Grupo_157377" data-name="Grupo 157377" clip-path="url(#clip-path-35)">
        <rect id="Rectángulo_47340" data-name="Rectángulo 47340" width="22.59" height="39.127" transform="translate(24.309 191.514)" fill="url(#radial-gradient-8)"/>
      </g>
    </g>
    <g id="Grupo_157380" data-name="Grupo 157380">
      <g id="Grupo_157379" data-name="Grupo 157379" clip-path="url(#clip-path-36)">
        <rect id="Rectángulo_47341" data-name="Rectángulo 47341" width="45.179" height="26.085" transform="translate(1.719 178.472)" fill="url(#linear-gradient-5)"/>
      </g>
    </g>
    <g id="Grupo_157382" data-name="Grupo 157382">
      <g id="Grupo_157381" data-name="Grupo 157381" clip-path="url(#clip-path-37)">
        <rect id="Rectángulo_47342" data-name="Rectángulo 47342" width="22.59" height="39.127" transform="translate(1.719 191.514)" fill="url(#radial-gradient-9)"/>
      </g>
    </g>
    <g id="Grupo_157384" data-name="Grupo 157384">
      <g id="Grupo_157383" data-name="Grupo 157383" clip-path="url(#clip-path)">
        <path id="Trazado_225240" data-name="Trazado 225240" d="M16.173,216.549,9.855,212.9v-7.295l6.318,3.647Z" fill="#fff"/>
        <path id="Trazado_225241" data-name="Trazado 225241" d="M257.2,319.592l-22.591-13.043,22.59-13.042,22.591,13.043Z" fill="#7dc3ea"/>
        <path id="Trazado_225242" data-name="Trazado 225242" d="M257.2,311.516a1.705,1.705,0,0,1-.858-.231l-22.591-13.043a1.717,1.717,0,0,1,0-2.974l22.59-13.042a1.716,1.716,0,0,1,1.717,0l22.591,13.043a1.717,1.717,0,0,1,0,2.974l-22.59,13.042a1.712,1.712,0,0,1-.859.231m-19.156-14.761,19.156,11.06,19.156-11.059L257.2,285.7Z" fill="#fff"/>
      </g>
    </g>
    <g id="Grupo_157386" data-name="Grupo 157386">
      <g id="Grupo_157385" data-name="Grupo 157385" clip-path="url(#clip-path-39)">
        <rect id="Rectángulo_47344" data-name="Rectángulo 47344" width="22.59" height="39.127" transform="translate(257.204 260.48)" fill="url(#radial-gradient-10)"/>
      </g>
    </g>
    <g id="Grupo_157388" data-name="Grupo 157388">
      <g id="Grupo_157387" data-name="Grupo 157387" clip-path="url(#clip-path-40)">
        <rect id="Rectángulo_47345" data-name="Rectángulo 47345" width="45.179" height="26.085" transform="translate(234.614 247.438)" fill="url(#linear-gradient-6)"/>
      </g>
    </g>
    <g id="Grupo_157390" data-name="Grupo 157390">
      <g id="Grupo_157389" data-name="Grupo 157389" clip-path="url(#clip-path-41)">
        <rect id="Rectángulo_47346" data-name="Rectángulo 47346" width="22.59" height="39.127" transform="translate(234.614 260.48)" fill="url(#radial-gradient-11)"/>
      </g>
    </g>
    <g id="Grupo_157392" data-name="Grupo 157392">
      <g id="Grupo_157391" data-name="Grupo 157391" clip-path="url(#clip-path)">
        <path id="Trazado_225246" data-name="Trazado 225246" d="M249.068,285.515l-6.318-3.648v-7.295l6.318,3.647Z" fill="#fff"/>
        <path id="Trazado_225247" data-name="Trazado 225247" d="M198.413,145.376l-22.59-13.043,22.589-13.042L221,132.334Z" fill="#7dc3ea"/>
        <path id="Trazado_225248" data-name="Trazado 225248" d="M198.413,137.3a1.705,1.705,0,0,1-.858-.231l-22.591-13.042a1.717,1.717,0,0,1,0-2.974l22.59-13.042a1.716,1.716,0,0,1,1.717,0l22.591,13.042a1.717,1.717,0,0,1,0,2.974l-22.59,13.042a1.712,1.712,0,0,1-.859.231m-19.155-14.76L198.413,133.6l19.155-11.059L198.412,111.48Z" fill="#fff"/>
      </g>
    </g>
    <g id="Grupo_157394" data-name="Grupo 157394">
      <g id="Grupo_157393" data-name="Grupo 157393" clip-path="url(#clip-path-43)">
        <rect id="Rectángulo_47348" data-name="Rectángulo 47348" width="22.59" height="39.126" transform="translate(198.413 86.264)" fill="url(#radial-gradient-12)"/>
      </g>
    </g>
    <g id="Grupo_157396" data-name="Grupo 157396">
      <g id="Grupo_157395" data-name="Grupo 157395" clip-path="url(#clip-path-44)">
        <rect id="Rectángulo_47349" data-name="Rectángulo 47349" width="45.179" height="26.084" transform="translate(175.823 73.222)" fill="url(#linear-gradient-7)"/>
      </g>
    </g>
    <g id="Grupo_157398" data-name="Grupo 157398">
      <g id="Grupo_157397" data-name="Grupo 157397" clip-path="url(#clip-path-45)">
        <rect id="Rectángulo_47350" data-name="Rectángulo 47350" width="22.59" height="39.126" transform="translate(175.823 86.264)" fill="url(#radial-gradient-13)"/>
      </g>
    </g>
    <g id="Grupo_157400" data-name="Grupo 157400">
      <g id="Grupo_157399" data-name="Grupo 157399" clip-path="url(#clip-path)">
        <path id="Trazado_225252" data-name="Trazado 225252" d="M190.277,111.3l-6.318-3.648v-7.295L190.277,104Z" fill="#fff"/>
      </g>
    </g>
  </g>
</svg>
