<svg id="Grupo_157295" data-name="Grupo 157295" xmlns="http://www.w3.org/2000/svg" xmlns:xlink="http://www.w3.org/1999/xlink" width="369.788" height="293.004" viewBox="0 0 369.788 293.004">
  <defs>
    <clipPath id="clip-path">
      <rect id="Rectángulo_47264" data-name="Rectángulo 47264" width="369.788" height="293.004" fill="none"/>
    </clipPath>
    <clipPath id="clip-path-2">
      <rect id="Rectángulo_47265" data-name="Rectángulo 47265" width="40.916" height="46.433" fill="none"/>
    </clipPath>
    <clipPath id="clip-path-8">
      <rect id="Rectángulo_47304" data-name="Rectángulo 47304" width="181.606" height="164.602" fill="none"/>
    </clipPath>
  </defs>
  <g id="Grupo_157280" data-name="Grupo 157280">
    <g id="Grupo_157279" data-name="Grupo 157279" clip-path="url(#clip-path)">
      <path id="Trazado_224921" data-name="Trazado 224921" d="M278.351,10.283A10.283,10.283,0,0,0,268.068,0H10.283A10.283,10.283,0,0,0,0,10.283v8.741H278.351Z" fill="#6bc5ff"/>
      <path id="Trazado_224922" data-name="Trazado 224922" d="M0,33.532v201.69A10.283,10.283,0,0,0,10.284,245.5H268.068a10.283,10.283,0,0,0,10.283-10.283V33.532Z" transform="translate(0 -14.508)" fill="#b9f3ff"/>
      <path id="Trazado_224923" data-name="Trazado 224923" d="M29.152,14.123A4.456,4.456,0,1,1,24.7,9.667a4.456,4.456,0,0,1,4.456,4.456" transform="translate(-8.757 -4.182)" fill="#c36b65"/>
      <path id="Trazado_224924" data-name="Trazado 224924" d="M52.111,14.123a4.456,4.456,0,1,1-4.456-4.456,4.456,4.456,0,0,1,4.456,4.456" transform="translate(-18.69 -4.182)" fill="#f4d071"/>
      <path id="Trazado_224925" data-name="Trazado 224925" d="M75.07,14.123a4.456,4.456,0,1,1-4.456-4.456,4.456,4.456,0,0,1,4.456,4.456" transform="translate(-28.624 -4.182)" fill="#52969e"/>
      <path id="Trazado_224926" data-name="Trazado 224926" d="M471.567,243.334h0a3.4,3.4,0,0,1-3.4-3.4V45.055a3.4,3.4,0,0,1,6.808,0V239.93a3.4,3.4,0,0,1-3.4,3.4" transform="translate(-202.553 -18.021)" fill="#96e4ff"/>
      <path id="Trazado_224927" data-name="Trazado 224927" d="M471.567,73.192h0a3.4,3.4,0,0,1-3.4-3.4V45.055a3.4,3.4,0,0,1,6.808,0V69.788a3.4,3.4,0,0,1-3.4,3.4" transform="translate(-202.553 -18.021)" fill="#6bc5ff"/>
      <rect id="Rectángulo_47250" data-name="Rectángulo 47250" width="45.515" height="9.114" transform="translate(70.432 29.634)" fill="#6bc5ff"/>
      <rect id="Rectángulo_47251" data-name="Rectángulo 47251" width="31.491" height="9.114" transform="translate(121.4 29.634)" fill="#6bc5ff"/>
      <path id="Trazado_224928" data-name="Trazado 224928" d="M128.742,127.312l1.422,2.88,3.178.462-2.3,2.242.543,3.166-2.843-1.495-2.843,1.495.543-3.166-2.3-2.242,3.179-.462Z" transform="translate(-53.711 -55.082)" fill="#f4d071"/>
      <path id="Trazado_224929" data-name="Trazado 224929" d="M154.327,127.312l1.421,2.88,3.179.462-2.3,2.242.543,3.166-2.843-1.495-2.843,1.495.543-3.166-2.3-2.242,3.179-.462Z" transform="translate(-64.78 -55.082)" fill="#f4d071"/>
      <path id="Trazado_224930" data-name="Trazado 224930" d="M179.911,127.312l1.421,2.88,3.179.462-2.3,2.242.543,3.166-2.843-1.495-2.843,1.495.543-3.166-2.3-2.242,3.179-.462Z" transform="translate(-75.849 -55.082)" fill="#f4d071"/>
      <path id="Trazado_224931" data-name="Trazado 224931" d="M205.5,127.312l1.421,2.88,3.179.462-2.3,2.242.543,3.166-2.843-1.495-2.843,1.495.543-3.166-2.3-2.242,3.179-.462Z" transform="translate(-86.918 -55.082)" fill="#6bc5ff"/>
      <path id="Trazado_224932" data-name="Trazado 224932" d="M231.079,127.312l1.422,2.88,3.178.462-2.3,2.242.543,3.166-2.843-1.495-2.843,1.495.543-3.166-2.3-2.242,3.179-.462Z" transform="translate(-97.988 -55.082)" fill="#6bc5ff"/>
      <rect id="Rectángulo_47252" data-name="Rectángulo 47252" width="45.515" height="3.615" transform="translate(70.432 50.823)" fill="#96e4ff"/>
      <rect id="Rectángulo_47253" data-name="Rectángulo 47253" width="85.108" height="3.615" transform="translate(121.884 50.822)" fill="#96e4ff"/>
      <rect id="Rectángulo_47254" data-name="Rectángulo 47254" width="41.007" height="3.615" transform="translate(70.432 64.756)" fill="#96e4ff"/>
      <rect id="Rectángulo_47255" data-name="Rectángulo 47255" width="35.069" height="3.615" transform="translate(117.377 64.756)" fill="#96e4ff"/>
      <rect id="Rectángulo_47256" data-name="Rectángulo 47256" width="27.692" height="3.615" transform="translate(70.432 57.429)" fill="#96e4ff"/>
      <rect id="Rectángulo_47257" data-name="Rectángulo 47257" width="75.531" height="3.615" transform="translate(131.461 57.429)" fill="#96e4ff"/>
      <rect id="Rectángulo_47258" data-name="Rectángulo 47258" width="21.461" height="3.615" transform="translate(104.062 57.429)" fill="#96e4ff"/>
      <rect id="Rectángulo_47259" data-name="Rectángulo 47259" width="59.867" height="3.615" transform="translate(147.125 44.215)" fill="#96e4ff"/>
      <rect id="Rectángulo_47260" data-name="Rectángulo 47260" width="20.273" height="3.615" transform="translate(70.432 44.216)" fill="#96e4ff"/>
      <rect id="Rectángulo_47261" data-name="Rectángulo 47261" width="44.545" height="3.615" transform="translate(96.643 44.216)" fill="#96e4ff"/>
      <path id="Trazado_224933" data-name="Trazado 224933" d="M257.683,106.4H19.1a5.715,5.715,0,0,1-5.709-5.709V46.36A5.715,5.715,0,0,1,19.1,40.651H257.683a5.715,5.715,0,0,1,5.709,5.709v54.331a5.715,5.715,0,0,1-5.709,5.709M19.1,41.786a4.58,4.58,0,0,0-4.574,4.575v54.331a4.58,4.58,0,0,0,4.574,4.574H257.683a4.58,4.58,0,0,0,4.574-4.574V46.36a4.58,4.58,0,0,0-4.574-4.575Z" transform="translate(-5.793 -17.588)" fill="#fff"/>
      <rect id="Rectángulo_47262" data-name="Rectángulo 47262" width="47.634" height="53.151" transform="translate(15.939 29.634)" fill="#fff"/>
      <rect id="Rectángulo_47263" data-name="Rectángulo 47263" width="40.916" height="46.433" transform="translate(19.298 32.992)" fill="#52969e"/>
    </g>
  </g>
  <g id="Grupo_157282" data-name="Grupo 157282" transform="translate(19.298 32.993)">
    <g id="Grupo_157281" data-name="Grupo 157281" clip-path="url(#clip-path-2)">
      <path id="Trazado_224934" data-name="Trazado 224934" d="M66.9,107.557c-.384,0-3.113.146-4.157.952V111.2H71.06v-2.691c-1.043-.806-3.772-.952-4.156-.952" transform="translate(-46.446 -79.528)" fill="#e4e4e0"/>
      <path id="Trazado_224935" data-name="Trazado 224935" d="M40.581,116.168a10.652,10.652,0,0,0-6.421,7.375l-1.388,5.684H51.558L48.323,113.1Z" transform="translate(-33.477 -81.925)" fill="#495375"/>
      <path id="Trazado_224936" data-name="Trazado 224936" d="M70.251,112.29l-.356.511a5,5,0,0,1-8.2,0l-.356-.511-1.155.458,3.234,16.129h4.754l3.234-16.129Z" transform="translate(-45.337 -81.576)" fill="#e4e4e0"/>
      <path id="Trazado_224937" data-name="Trazado 224937" d="M91.662,123.543a10.652,10.652,0,0,0-6.421-7.375L77.5,113.1l-3.234,16.129H93.049Z" transform="translate(-51.429 -81.925)" fill="#495375"/>
      <path id="Trazado_224938" data-name="Trazado 224938" d="M70.035,106.431a4.03,4.03,0,0,1-3.192,1.861h-.334a4.028,4.028,0,0,1-3.192-1.861l-.232-.318v3.161l-.865.343.356.511a5,5,0,0,0,8.2,0l.356-.511-.865-.343v-3.161Z" transform="translate(-46.218 -78.903)" fill="#f0bf9c"/>
      <path id="Trazado_224939" data-name="Trazado 224939" d="M67.168,105.1H67.5a4.031,4.031,0,0,0,3.192-1.861l.231-.318V98.724H63.744v4.193l.231.318a4.031,4.031,0,0,0,3.192,1.861" transform="translate(-46.877 -75.706)" fill="#3c3247"/>
      <path id="Trazado_224940" data-name="Trazado 224940" d="M57.481,113.1,54.3,118.014a1.465,1.465,0,0,0,.622,2.128l1.24.566-1.933,2.568a1.465,1.465,0,0,0,.052,1.827l3.492,4.123h2.939Z" transform="translate(-42.635 -81.925)" fill="#797c99"/>
      <path id="Trazado_224941" data-name="Trazado 224941" d="M65.795,113.619s-3.5-2.076-4.157-4.383l-1.455,2.191a10.3,10.3,0,0,0,3.506,6.341Z" transform="translate(-45.337 -80.254)" fill="#fff"/>
      <path id="Trazado_224942" data-name="Trazado 224942" d="M68.982,116.961l-1.431,2.82.68,1.085h1.5l.68-1.085Z" transform="translate(-48.525 -83.596)" fill="#a34262"/>
      <path id="Trazado_224943" data-name="Trazado 224943" d="M69.24,123.843h-1.5l-1.327,10.033h4.156Z" transform="translate(-48.031 -86.574)" fill="#cc6164"/>
      <path id="Trazado_224944" data-name="Trazado 224944" d="M77.5,113.1l3.178,4.916a1.465,1.465,0,0,1-.622,2.128l-1.24.566,1.933,2.568a1.465,1.465,0,0,1-.052,1.827L77.2,129.227H74.264Z" transform="translate(-51.429 -81.925)" fill="#797c99"/>
      <path id="Trazado_224945" data-name="Trazado 224945" d="M70.074,113.619s3.5-2.076,4.156-4.383l1.455,2.191a10.3,10.3,0,0,1-3.506,6.341Z" transform="translate(-49.616 -80.254)" fill="#fff"/>
      <path id="Trazado_224946" data-name="Trazado 224946" d="M53.881,89.993a2.5,2.5,0,1,1-2.5-2.5,2.5,2.5,0,0,1,2.5,2.5" transform="translate(-40.443 -70.845)" fill="#eba588"/>
      <path id="Trazado_224947" data-name="Trazado 224947" d="M53.615,90.846a1.386,1.386,0,1,1-1.386-1.386,1.386,1.386,0,0,1,1.386,1.386" transform="translate(-41.296 -71.698)" fill="#e78882"/>
      <path id="Trazado_224948" data-name="Trazado 224948" d="M83.3,89.993a2.5,2.5,0,1,0,2.5-2.5,2.5,2.5,0,0,0-2.5,2.5" transform="translate(-55.339 -70.845)" fill="#eba588"/>
      <path id="Trazado_224949" data-name="Trazado 224949" d="M85.274,90.846A1.386,1.386,0,1,0,86.66,89.46a1.386,1.386,0,0,0-1.386,1.386" transform="translate(-56.193 -71.698)" fill="#e78882"/>
      <path id="Trazado_224950" data-name="Trazado 224950" d="M63.665,65.534A8.965,8.965,0,0,0,54.7,74.5v3.68a13.65,13.65,0,0,0,4.081,9.734,6.967,6.967,0,0,0,9.769,0,13.65,13.65,0,0,0,4.081-9.734V74.5a8.965,8.965,0,0,0-8.965-8.965" transform="translate(-42.964 -61.346)" fill="#f0bf9c"/>
      <path id="Trazado_224951" data-name="Trazado 224951" d="M79.623,72.226c.54,4.239,3.38,9.836,3.38,9.836.691-2.511,1.619-8.057,1.041-10.6a4.428,4.428,0,0,0-1.672-2.759,2.112,2.112,0,0,0-2.832.276c-.541.775-.036,2.306.083,3.244" transform="translate(-53.606 -62.541)" fill="#8c404c"/>
      <path id="Trazado_224952" data-name="Trazado 224952" d="M57.62,72.226c-.54,4.239-3.38,9.836-3.38,9.836-.691-2.511-1.62-8.057-1.041-10.6a4.431,4.431,0,0,1,1.672-2.759,2.112,2.112,0,0,1,2.832.276c.541.775.036,2.306-.083,3.244" transform="translate(-42.237 -62.541)" fill="#8c404c"/>
      <path id="Trazado_224953" data-name="Trazado 224953" d="M67.214,68.208a7.019,7.019,0,0,1-2.661,4.472,12.158,12.158,0,0,1-4.811,2.2,19.488,19.488,0,0,1-11.726-.843c1.1-.33,1.768-1.6,2.142-2.685s.469-2.239.771-3.343a9.136,9.136,0,0,1,13.106-5.647,6.256,6.256,0,0,1,3.179,5.843" transform="translate(-40.073 -59.518)" fill="#8c404c"/>
      <path id="Trazado_224954" data-name="Trazado 224954" d="M63.528,88.069a.758.758,0,1,1-.758-.758.758.758,0,0,1,.758.758" transform="translate(-46.128 -70.768)" fill="#422c4f"/>
      <path id="Trazado_224955" data-name="Trazado 224955" d="M76.32,88.069a.758.758,0,1,0,.758-.758.758.758,0,0,0-.758.758" transform="translate(-52.319 -70.768)" fill="#422c4f"/>
      <path id="Trazado_224956" data-name="Trazado 224956" d="M76.209,83.2a2.838,2.838,0,0,0-2.3,1.055l4.522.138A2.838,2.838,0,0,0,76.209,83.2" transform="translate(-51.278 -68.991)" fill="#8c404c"/>
      <path id="Trazado_224957" data-name="Trazado 224957" d="M70.845,94.38a5.08,5.08,0,0,0-2.587.068,1.439,1.439,0,0,0,1.254.785,1.632,1.632,0,0,0,1.332-.853" transform="translate(-48.83 -73.768)" fill="#eba588"/>
      <path id="Trazado_224958" data-name="Trazado 224958" d="M71.446,97.711a29.185,29.185,0,0,1-7.011.827,3.794,3.794,0,0,0,3.711,2.343,4.094,4.094,0,0,0,3.3-3.17" transform="translate(-47.176 -75.268)" fill="#fff"/>
      <path id="Trazado_224959" data-name="Trazado 224959" d="M68.535,73.09a18.345,18.345,0,0,1-2.5,2.1,16.024,16.024,0,0,1-6.68,2.691A18.364,18.364,0,0,1,56.1,78.1a9.328,9.328,0,0,0,3.32.485,11.067,11.067,0,0,0,7.054-2.842,9.329,9.329,0,0,0,2.057-2.651" transform="translate(-43.572 -64.616)" fill="#a64f5a"/>
      <path id="Trazado_224960" data-name="Trazado 224960" d="M65.323,73.91a18.694,18.694,0,0,1-10.785,1.822,9.023,9.023,0,0,0,2.583.705,10.659,10.659,0,0,0,5.994-1.012,9.05,9.05,0,0,0,2.208-1.515" transform="translate(-42.894 -64.97)" fill="#a64f5a"/>
      <path id="Trazado_224961" data-name="Trazado 224961" d="M68.86,65.218A20.7,20.7,0,0,1,62.3,70.452a9.314,9.314,0,0,0,6.555-5.234" transform="translate(-46.255 -61.21)" fill="#a64f5a"/>
    </g>
  </g>
  <g id="Grupo_157284" data-name="Grupo 157284">
    <g id="Grupo_157283" data-name="Grupo 157283" clip-path="url(#clip-path)">
      <path id="Trazado_224962" data-name="Trazado 224962" d="M410.3,103.6H393.886a4.8,4.8,0,0,1-4.8-4.8V82.391a4.8,4.8,0,0,1,4.8-4.8H410.3a4.8,4.8,0,0,1,4.8,4.8V98.8a4.8,4.8,0,0,1-4.8,4.8" transform="translate(-168.341 -33.571)" fill="#cc6164"/>
      <path id="Trazado_224963" data-name="Trazado 224963" d="M408.969,94.666l4.279-4.279a1.986,1.986,0,0,0-2.808-2.808l-4.279,4.279-4.279-4.279a1.986,1.986,0,0,0-2.808,2.808l4.279,4.279-4.279,4.279a1.986,1.986,0,0,0,2.808,2.808l4.279-4.279,4.279,4.279a1.986,1.986,0,0,0,2.808-2.808Z" transform="translate(-172.41 -37.64)" fill="#e8916a"/>
      <rect id="Rectángulo_47266" data-name="Rectángulo 47266" width="46.193" height="9.114" transform="translate(70.432 98.168)" fill="#6bc5ff"/>
      <rect id="Rectángulo_47267" data-name="Rectángulo 47267" width="22.551" height="9.114" transform="translate(121.606 98.168)" fill="#6bc5ff"/>
      <rect id="Rectángulo_47268" data-name="Rectángulo 47268" width="32.967" height="9.114" transform="translate(148.77 98.168)" fill="#6bc5ff"/>
      <path id="Trazado_224964" data-name="Trazado 224964" d="M128.742,248.112l1.422,2.88,3.178.462-2.3,2.242.543,3.166-2.843-1.495-2.843,1.495.543-3.166-2.3-2.242,3.179-.462Z" transform="translate(-53.711 -107.347)" fill="#f4d071"/>
      <path id="Trazado_224965" data-name="Trazado 224965" d="M154.327,248.112l1.421,2.88,3.179.462-2.3,2.242.543,3.166-2.843-1.495-2.843,1.495.543-3.166-2.3-2.242,3.179-.462Z" transform="translate(-64.78 -107.347)" fill="#f4d071"/>
      <path id="Trazado_224966" data-name="Trazado 224966" d="M179.911,248.112l1.421,2.88,3.179.462-2.3,2.242.543,3.166-2.843-1.495-2.843,1.495.543-3.166-2.3-2.242,3.179-.462Z" transform="translate(-75.849 -107.347)" fill="#f4d071"/>
      <path id="Trazado_224967" data-name="Trazado 224967" d="M205.5,248.112l1.421,2.88,3.179.462-2.3,2.242.543,3.166-2.843-1.495-2.843,1.495.543-3.166-2.3-2.242,3.179-.462Z" transform="translate(-86.918 -107.347)" fill="#f4d071"/>
      <path id="Trazado_224968" data-name="Trazado 224968" d="M231.079,248.112l1.422,2.88,3.178.462-2.3,2.242.543,3.166-2.843-1.495-2.843,1.495.543-3.166-2.3-2.242,3.179-.462Z" transform="translate(-97.988 -107.347)" fill="#f4d071"/>
      <rect id="Rectángulo_47269" data-name="Rectángulo 47269" width="67.787" height="3.615" transform="translate(70.432 119.357)" fill="#96e4ff"/>
      <rect id="Rectángulo_47270" data-name="Rectángulo 47270" width="62.836" height="3.615" transform="translate(144.156 119.357)" fill="#96e4ff"/>
      <rect id="Rectángulo_47271" data-name="Rectángulo 47271" width="48.484" height="3.615" transform="translate(70.432 133.291)" fill="#96e4ff"/>
      <rect id="Rectángulo_47272" data-name="Rectángulo 47272" width="50.721" height="3.615" transform="translate(124.853 133.291)" fill="#96e4ff"/>
      <rect id="Rectángulo_47273" data-name="Rectángulo 47273" width="38.038" height="3.615" transform="translate(70.432 125.964)" fill="#96e4ff"/>
      <rect id="Rectángulo_47274" data-name="Rectángulo 47274" width="48.164" height="3.615" transform="translate(158.829 125.964)" fill="#96e4ff"/>
      <rect id="Rectángulo_47275" data-name="Rectángulo 47275" width="38.483" height="3.615" transform="translate(114.408 125.964)" fill="#96e4ff"/>
      <rect id="Rectángulo_47276" data-name="Rectángulo 47276" width="29.933" height="3.615" transform="translate(177.059 112.751)" fill="#96e4ff"/>
      <path id="Trazado_224969" data-name="Trazado 224969" d="M165.15,202.349h59.682v-3.615H124.143v3.615H165.15Z" transform="translate(-53.711 -85.983)" fill="#96e4ff"/>
      <path id="Trazado_224970" data-name="Trazado 224970" d="M410.3,224.4H393.886a4.8,4.8,0,0,1-4.8-4.8V203.191a4.8,4.8,0,0,1,4.8-4.8H410.3a4.8,4.8,0,0,1,4.8,4.8V219.6a4.8,4.8,0,0,1-4.8,4.8" transform="translate(-168.341 -85.835)" fill="#52969e"/>
      <path id="Trazado_224971" data-name="Trazado 224971" d="M257.683,227.2H19.1a5.716,5.716,0,0,1-5.709-5.71v-54.33A5.715,5.715,0,0,1,19.1,161.45H257.683a5.715,5.715,0,0,1,5.709,5.709v54.33a5.715,5.715,0,0,1-5.709,5.71M19.1,162.585a4.58,4.58,0,0,0-4.574,4.574v54.33a4.58,4.58,0,0,0,4.574,4.575H257.683a4.58,4.58,0,0,0,4.574-4.575v-54.33a4.58,4.58,0,0,0-4.574-4.574Z" transform="translate(-5.793 -69.852)" fill="#fff"/>
      <rect id="Rectángulo_47277" data-name="Rectángulo 47277" width="47.634" height="53.151" transform="translate(15.939 98.168)" fill="#fff"/>
      <rect id="Rectángulo_47278" data-name="Rectángulo 47278" width="40.916" height="46.433" transform="translate(19.298 101.527)" fill="#f4d071"/>
    </g>
  </g>
  <g id="Grupo_157286" data-name="Grupo 157286" transform="translate(19.298 101.527)">
    <g id="Grupo_157285" data-name="Grupo 157285" clip-path="url(#clip-path-2)">
      <path id="Trazado_224972" data-name="Trazado 224972" d="M66.9,228.356c-.384,0-3.113.146-4.157.952V232H71.06v-2.691c-1.043-.806-3.772-.952-4.156-.952" transform="translate(-46.446 -200.327)" fill="#e4e4e0"/>
      <path id="Trazado_224973" data-name="Trazado 224973" d="M40.581,236.967a10.652,10.652,0,0,0-6.421,7.375l-1.388,5.684H51.558L48.323,233.9Z" transform="translate(-33.477 -202.724)" fill="#56438c"/>
      <path id="Trazado_224974" data-name="Trazado 224974" d="M70.251,233.09l-.356.511a5,5,0,0,1-8.2,0l-.356-.511-1.155.458,3.234,16.129h4.754l3.234-16.129Z" transform="translate(-45.337 -202.375)" fill="#e4e4e0"/>
      <path id="Trazado_224975" data-name="Trazado 224975" d="M91.662,244.342a10.652,10.652,0,0,0-6.421-7.374L77.5,233.9l-3.234,16.129H93.049Z" transform="translate(-51.429 -202.725)" fill="#56438c"/>
      <path id="Trazado_224976" data-name="Trazado 224976" d="M70.035,227.231a4.03,4.03,0,0,1-3.192,1.861h-.334a4.028,4.028,0,0,1-3.192-1.861l-.232-.318v3.161l-.865.343.356.511a5,5,0,0,0,8.2,0l.356-.511-.865-.343v-3.161Z" transform="translate(-46.218 -199.703)" fill="#bd6c67"/>
      <path id="Trazado_224977" data-name="Trazado 224977" d="M67.168,225.9H67.5a4.031,4.031,0,0,0,3.192-1.861l.231-.318v-4.193H63.744v4.193l.231.318a4.031,4.031,0,0,0,3.192,1.861" transform="translate(-46.877 -196.505)" fill="#3c3247"/>
      <path id="Trazado_224978" data-name="Trazado 224978" d="M57.481,233.9,54.3,238.813a1.465,1.465,0,0,0,.622,2.128l1.24.566-1.933,2.568a1.465,1.465,0,0,0,.052,1.827l3.492,4.123h2.939Z" transform="translate(-42.635 -202.724)" fill="#6c6fc3"/>
      <path id="Trazado_224979" data-name="Trazado 224979" d="M65.795,234.418s-3.5-2.076-4.157-4.383l-1.455,2.191a10.3,10.3,0,0,0,3.506,6.341Z" transform="translate(-45.337 -201.053)" fill="#fff"/>
      <path id="Trazado_224980" data-name="Trazado 224980" d="M68.982,237.76l-1.431,2.82.68,1.085h1.5l.68-1.085Z" transform="translate(-48.525 -204.396)" fill="#a34262"/>
      <path id="Trazado_224981" data-name="Trazado 224981" d="M69.24,244.642h-1.5l-1.327,10.033h4.156Z" transform="translate(-48.031 -207.373)" fill="#cc6164"/>
      <path id="Trazado_224982" data-name="Trazado 224982" d="M77.5,233.9l3.178,4.916a1.465,1.465,0,0,1-.622,2.128l-1.24.566,1.933,2.568a1.465,1.465,0,0,1-.052,1.827L77.2,250.026H74.264Z" transform="translate(-51.429 -202.724)" fill="#6c6fc3"/>
      <path id="Trazado_224983" data-name="Trazado 224983" d="M70.074,234.418s3.5-2.076,4.156-4.383l1.455,2.191a10.3,10.3,0,0,1-3.506,6.341Z" transform="translate(-49.616 -201.053)" fill="#fff"/>
      <path id="Trazado_224984" data-name="Trazado 224984" d="M73.1,185.79a12.759,12.759,0,1,1-12.76-12.759A12.759,12.759,0,0,1,73.1,185.79" transform="translate(-39.886 -176.39)" fill="#422c4f"/>
      <path id="Trazado_224985" data-name="Trazado 224985" d="M54.406,211.455a2.361,2.361,0,1,1-2.361-2.361,2.361,2.361,0,0,1,2.361,2.361" transform="translate(-40.794 -191.993)" fill="#a64f5a"/>
      <path id="Trazado_224986" data-name="Trazado 224986" d="M54.156,212.259a1.306,1.306,0,1,1-1.307-1.307,1.307,1.307,0,0,1,1.307,1.307" transform="translate(-41.599 -192.797)" fill="#8c404c"/>
      <path id="Trazado_224987" data-name="Trazado 224987" d="M82.141,211.455a2.361,2.361,0,1,0,2.361-2.361,2.361,2.361,0,0,0-2.361,2.361" transform="translate(-54.837 -191.993)" fill="#a64f5a"/>
      <path id="Trazado_224988" data-name="Trazado 224988" d="M84,212.259a1.307,1.307,0,1,0,1.307-1.307A1.307,1.307,0,0,0,84,212.259" transform="translate(-55.641 -192.797)" fill="#8c404c"/>
      <path id="Trazado_224989" data-name="Trazado 224989" d="M63.629,193.95c-4.668,0-8.451.633-8.451,5.3v3.469a12.869,12.869,0,0,0,3.847,9.176,6.567,6.567,0,0,0,9.209,0,12.869,12.869,0,0,0,3.847-9.176V199.25c0-4.667-3.784-5.3-8.451-5.3" transform="translate(-43.171 -185.441)" fill="#bd6c67"/>
      <path id="Trazado_224990" data-name="Trazado 224990" d="M63.5,209.641a.714.714,0,1,1-.714-.714.715.715,0,0,1,.714.714" transform="translate(-46.154 -191.921)" fill="#422c4f"/>
      <path id="Trazado_224991" data-name="Trazado 224991" d="M75.559,209.641a.714.714,0,1,0,.714-.714.715.715,0,0,0-.714.714" transform="translate(-51.989 -191.921)" fill="#422c4f"/>
      <path id="Trazado_224992" data-name="Trazado 224992" d="M61.062,203.768a2.749,2.749,0,0,0-2.126,1.509,39.431,39.431,0,0,1,4.563-.582,2.748,2.748,0,0,0-2.437-.927" transform="translate(-44.797 -189.679)" fill="#422c4f"/>
      <path id="Trazado_224993" data-name="Trazado 224993" d="M75.607,203.768a2.748,2.748,0,0,1,2.126,1.509,39.431,39.431,0,0,0-4.563-.582,2.748,2.748,0,0,1,2.437-.927" transform="translate(-50.956 -189.679)" fill="#422c4f"/>
      <path id="Trazado_224994" data-name="Trazado 224994" d="M70.683,215.532a19.194,19.194,0,0,0-4.686.124,3.365,3.365,0,0,0,2.346,1.027,3.484,3.484,0,0,0,2.34-1.151" transform="translate(-47.852 -194.74)" fill="#a64f5a"/>
      <path id="Trazado_224995" data-name="Trazado 224995" d="M62.071,213.528a3.781,3.781,0,0,0,2.947-2.3,19.549,19.549,0,0,0-2.947,2.3" transform="translate(-46.154 -192.917)" fill="#b56361"/>
      <path id="Trazado_224996" data-name="Trazado 224996" d="M75.83,213.528a3.781,3.781,0,0,1-2.947-2.3,19.547,19.547,0,0,1,2.947,2.3" transform="translate(-50.831 -192.917)" fill="#b56361"/>
      <path id="Trazado_224997" data-name="Trazado 224997" d="M70.74,219.613a16.847,16.847,0,0,1-5.608.639,3.4,3.4,0,0,0,2.968,1.36,3.5,3.5,0,0,0,2.64-2" transform="translate(-47.478 -196.544)" fill="#fff"/>
      <path id="Trazado_224998" data-name="Trazado 224998" d="M70.618,224.136l-2.908.141a2.477,2.477,0,0,0,1.473.469,2.522,2.522,0,0,0,1.435-.609" transform="translate(-48.593 -198.501)" fill="#a64f5a"/>
    </g>
  </g>
  <g id="Grupo_157288" data-name="Grupo 157288">
    <g id="Grupo_157287" data-name="Grupo 157287" clip-path="url(#clip-path)">
      <path id="Trazado_224999" data-name="Trazado 224999" d="M405.011,223.492a9.177,9.177,0,1,1,9.177-9.177,9.188,9.188,0,0,1-9.177,9.177m0-14.383a5.206,5.206,0,1,0,5.206,5.205,5.211,5.211,0,0,0-5.206-5.205" transform="translate(-171.26 -88.754)" fill="#cfe88b"/>
      <rect id="Rectángulo_47281" data-name="Rectángulo 47281" width="29.03" height="9.114" transform="translate(70.431 166.703)" fill="#6bc5ff"/>
      <rect id="Rectángulo_47282" data-name="Rectángulo 47282" width="29.03" height="9.114" transform="translate(104.4 166.703)" fill="#6bc5ff"/>
      <path id="Trazado_225000" data-name="Trazado 225000" d="M128.742,368.911l1.422,2.88,3.178.462-2.3,2.242.543,3.166-2.843-1.495L125.9,377.66l.543-3.166-2.3-2.242,3.179-.462Z" transform="translate(-53.711 -159.611)" fill="#f4d071"/>
      <path id="Trazado_225001" data-name="Trazado 225001" d="M154.327,368.911l1.421,2.88,3.179.462-2.3,2.242.543,3.166-2.843-1.495-2.843,1.495.543-3.166-2.3-2.242,3.179-.462Z" transform="translate(-64.78 -159.611)" fill="#f4d071"/>
      <path id="Trazado_225002" data-name="Trazado 225002" d="M179.911,368.911l1.421,2.88,3.179.462-2.3,2.242.543,3.166-2.843-1.495-2.843,1.495.543-3.166-2.3-2.242,3.179-.462Z" transform="translate(-75.849 -159.611)" fill="#f4d071"/>
      <path id="Trazado_225003" data-name="Trazado 225003" d="M205.5,368.911l1.421,2.88,3.179.462-2.3,2.242.543,3.166-2.843-1.495-2.843,1.495.543-3.166-2.3-2.242,3.179-.462Z" transform="translate(-86.918 -159.611)" fill="#f4d071"/>
      <path id="Trazado_225004" data-name="Trazado 225004" d="M231.079,368.911l1.422,2.88,3.178.462-2.3,2.242.543,3.166-2.843-1.495-2.843,1.495.543-3.166-2.3-2.242,3.179-.462Z" transform="translate(-97.988 -159.611)" fill="#6bc5ff"/>
      <rect id="Rectángulo_47283" data-name="Rectángulo 47283" width="21.273" height="3.615" transform="translate(70.432 187.892)" fill="#96e4ff"/>
      <rect id="Rectángulo_47284" data-name="Rectángulo 47284" width="50.344" height="3.615" transform="translate(70.432 201.825)" fill="#96e4ff"/>
      <rect id="Rectángulo_47285" data-name="Rectángulo 47285" width="46.184" height="3.615" transform="translate(160.808 181.285)" fill="#96e4ff"/>
      <rect id="Rectángulo_47286" data-name="Rectángulo 47286" width="33.956" height="3.615" transform="translate(70.432 181.285)" fill="#96e4ff"/>
      <rect id="Rectángulo_47287" data-name="Rectángulo 47287" width="44.545" height="3.615" transform="translate(110.325 181.285)" fill="#96e4ff"/>
      <rect id="Rectángulo_47288" data-name="Rectángulo 47288" width="27.692" height="3.615" transform="translate(70.432 194.499)" fill="#96e4ff"/>
      <rect id="Rectángulo_47289" data-name="Rectángulo 47289" width="36.111" height="3.615" transform="translate(131.461 194.499)" fill="#96e4ff"/>
      <rect id="Rectángulo_47290" data-name="Rectángulo 47290" width="33.482" height="3.615" transform="translate(173.51 194.499)" fill="#96e4ff"/>
      <rect id="Rectángulo_47291" data-name="Rectángulo 47291" width="21.461" height="3.615" transform="translate(104.062 194.499)" fill="#96e4ff"/>
      <rect id="Rectángulo_47292" data-name="Rectángulo 47292" width="39.436" height="3.615" transform="translate(97.642 187.892)" fill="#96e4ff"/>
      <rect id="Rectángulo_47293" data-name="Rectángulo 47293" width="34.06" height="3.615" transform="translate(143.016 187.892)" fill="#96e4ff"/>
      <rect id="Rectángulo_47294" data-name="Rectángulo 47294" width="23.979" height="3.615" transform="translate(183.013 187.892)" fill="#96e4ff"/>
      <path id="Trazado_225005" data-name="Trazado 225005" d="M410.3,345.2H393.886a4.8,4.8,0,0,1-4.8-4.8V323.99a4.8,4.8,0,0,1,4.8-4.8H410.3a4.8,4.8,0,0,1,4.8,4.8V340.4a4.8,4.8,0,0,1-4.8,4.8" transform="translate(-168.341 -138.1)" fill="#cc6164"/>
      <path id="Trazado_225006" data-name="Trazado 225006" d="M257.683,348H19.1a5.715,5.715,0,0,1-5.709-5.709V287.958a5.716,5.716,0,0,1,5.709-5.709H257.683a5.715,5.715,0,0,1,5.709,5.709v54.331A5.715,5.715,0,0,1,257.683,348M19.1,283.384a4.58,4.58,0,0,0-4.574,4.575v54.331a4.58,4.58,0,0,0,4.574,4.574H257.683a4.58,4.58,0,0,0,4.574-4.574V287.958a4.58,4.58,0,0,0-4.574-4.575Z" transform="translate(-5.793 -122.117)" fill="#fff"/>
      <rect id="Rectángulo_47295" data-name="Rectángulo 47295" width="47.634" height="53.151" transform="translate(15.939 166.703)" fill="#fff"/>
      <rect id="Rectángulo_47296" data-name="Rectángulo 47296" width="40.916" height="46.433" transform="translate(19.298 170.062)" fill="#6ca8bf"/>
    </g>
  </g>
  <g id="Grupo_157290" data-name="Grupo 157290" transform="translate(19.298 170.062)">
    <g id="Grupo_157289" data-name="Grupo 157289" clip-path="url(#clip-path-2)">
      <path id="Trazado_225007" data-name="Trazado 225007" d="M72.923,317.423l-.882-1.653a26.623,26.623,0,0,1-2.129-5.284l-.478-1.691a10.473,10.473,0,0,0-10.077-7.622H56.62a10.472,10.472,0,0,0-10.077,7.622l-.479,1.691a26.589,26.589,0,0,1-2.129,5.284l-.882,1.653A7.875,7.875,0,0,0,48.213,328.8l9.775,2.281,9.776-2.281a7.875,7.875,0,0,0,5.159-11.376" transform="translate(-37.522 -300.366)" fill="#8c404c"/>
      <path id="Trazado_225008" data-name="Trazado 225008" d="M72.091,325.323l-.623-1.3a22.159,22.159,0,0,1-1.5-4.14l-.338-1.325a7.556,7.556,0,0,0-7.12-5.971H60.573a7.556,7.556,0,0,0-7.12,5.971l-.338,1.325a22.24,22.24,0,0,1-1.5,4.14l-.624,1.3c-1.721,3.577.084,7.991,3.645,8.912l6.907,1.787,6.907-1.787c3.561-.921,5.366-5.335,3.645-8.912" transform="translate(-41.073 -305.307)" fill="#472948"/>
      <path id="Trazado_225009" data-name="Trazado 225009" d="M48.369,336.867a4.224,4.224,0,0,1-1.221-2.511,6.623,6.623,0,0,1,.4-3.1,32.483,32.483,0,0,1,1.332-3.017,12.149,12.149,0,0,0,1-2.816c-.426.776-.972,1.607-1.552,2.514a14.868,14.868,0,0,0-1.573,3.044,5.917,5.917,0,0,0-.225,3.509,3.643,3.643,0,0,0,1.839,2.382" transform="translate(-39.355 -310.856)" fill="#a64f5a"/>
      <path id="Trazado_225010" data-name="Trazado 225010" d="M89.024,336.867a4.223,4.223,0,0,0,1.221-2.511,6.623,6.623,0,0,0-.4-3.1,32.482,32.482,0,0,0-1.332-3.017,12.148,12.148,0,0,1-1-2.816c.426.776.972,1.607,1.552,2.514a14.867,14.867,0,0,1,1.573,3.044,5.917,5.917,0,0,1,.225,3.509,3.643,3.643,0,0,1-1.839,2.382" transform="translate(-57.161 -310.856)" fill="#a64f5a"/>
      <path id="Trazado_225011" data-name="Trazado 225011" d="M66.9,349.155c-.384,0-3.113.146-4.157.952V352.8H71.06v-2.691c-1.043-.806-3.772-.952-4.156-.952" transform="translate(-46.446 -321.126)" fill="#e4e4e0"/>
      <path id="Trazado_225012" data-name="Trazado 225012" d="M40.581,357.766a10.651,10.651,0,0,0-6.421,7.375l-1.388,5.684H51.558L48.323,354.7Z" transform="translate(-33.477 -323.523)" fill="#a59b95"/>
      <path id="Trazado_225013" data-name="Trazado 225013" d="M70.251,353.889l-.356.511a5,5,0,0,1-8.2,0l-.356-.511-1.155.458,3.234,16.129h4.754l3.234-16.129Z" transform="translate(-45.337 -323.174)" fill="#e4e4e0"/>
      <path id="Trazado_225014" data-name="Trazado 225014" d="M91.662,365.141a10.652,10.652,0,0,0-6.421-7.375L77.5,354.7l-3.234,16.13H93.049Z" transform="translate(-51.429 -323.523)" fill="#a59b95"/>
      <path id="Trazado_225015" data-name="Trazado 225015" d="M70.035,348.03a4.03,4.03,0,0,1-3.192,1.861h-.334a4.028,4.028,0,0,1-3.192-1.861l-.232-.318v3.161l-.865.343.356.511a5,5,0,0,0,8.2,0l.356-.511-.865-.343v-3.161Z" transform="translate(-46.218 -320.502)" fill="#eba588"/>
      <path id="Trazado_225016" data-name="Trazado 225016" d="M67.168,346.695H67.5a4.031,4.031,0,0,0,3.192-1.861l.231-.318v-4.192H63.744v4.192l.231.318a4.031,4.031,0,0,0,3.192,1.861" transform="translate(-46.877 -317.305)" fill="#3c3247"/>
      <path id="Trazado_225017" data-name="Trazado 225017" d="M57.481,354.7,54.3,359.613a1.465,1.465,0,0,0,.622,2.128l1.24.566-1.933,2.568a1.465,1.465,0,0,0,.052,1.827l3.492,4.123h2.939Z" transform="translate(-42.635 -323.523)" fill="#d4cfbe"/>
      <path id="Trazado_225018" data-name="Trazado 225018" d="M77.5,354.7l3.178,4.917a1.465,1.465,0,0,1-.622,2.128l-1.24.566,1.933,2.568a1.465,1.465,0,0,1-.052,1.827L77.2,370.825H74.264Z" transform="translate(-51.429 -323.523)" fill="#d4cfbe"/>
      <path id="Trazado_225019" data-name="Trazado 225019" d="M65.788,355.216s-3.5-2.076-4.157-4.383l-1.455,2.192a20.9,20.9,0,0,0,1.3,7.429,1.27,1.27,0,0,0,2.389.01Z" transform="translate(-45.33 -321.852)" fill="#fff"/>
      <path id="Trazado_225020" data-name="Trazado 225020" d="M70.074,355.216s3.5-2.076,4.156-4.383l1.455,2.192a20.9,20.9,0,0,1-1.3,7.429,1.27,1.27,0,0,1-2.389.01Z" transform="translate(-49.616 -321.852)" fill="#fff"/>
      <path id="Trazado_225021" data-name="Trazado 225021" d="M63.284,306.762a8.857,8.857,0,0,0-8.857,8.857v3.636a13.488,13.488,0,0,0,4.032,9.617,6.884,6.884,0,0,0,9.652,0,13.488,13.488,0,0,0,4.031-9.617v-3.636a8.857,8.857,0,0,0-8.857-8.857" transform="translate(-42.846 -302.784)" fill="#eba588"/>
      <path id="Trazado_225022" data-name="Trazado 225022" d="M63.149,329.027a.749.749,0,1,1-.749-.749.749.749,0,0,1,.749.749" transform="translate(-45.972 -312.093)" fill="#422c4f"/>
      <path id="Trazado_225023" data-name="Trazado 225023" d="M75.788,329.027a.749.749,0,1,0,.749-.749.749.749,0,0,0-.749.749" transform="translate(-52.088 -312.093)" fill="#422c4f"/>
      <path id="Trazado_225024" data-name="Trazado 225024" d="M70.378,335.262a5.024,5.024,0,0,0-2.556.067,1.424,1.424,0,0,0,1.24.776,1.613,1.613,0,0,0,1.316-.842" transform="translate(-48.642 -315.057)" fill="#e78882"/>
      <path id="Trazado_225025" data-name="Trazado 225025" d="M70.694,338.931a12.055,12.055,0,0,1-5.107.02,2.777,2.777,0,0,0,2.518,2.191,2.883,2.883,0,0,0,2.589-2.211" transform="translate(-47.675 -316.702)" fill="#fff"/>
      <path id="Trazado_225026" data-name="Trazado 225026" d="M63.514,331.28a8.39,8.39,0,0,0-3.643.962,4.958,4.958,0,0,0,3.643-.962" transform="translate(-45.202 -313.392)" fill="#e78882"/>
      <path id="Trazado_225027" data-name="Trazado 225027" d="M73.721,331.28a8.39,8.39,0,0,1,3.643.962,4.958,4.958,0,0,1-3.643-.962" transform="translate(-51.194 -313.392)" fill="#e78882"/>
      <path id="Trazado_225028" data-name="Trazado 225028" d="M70.284,343.515l-2.107.114a1.464,1.464,0,0,0,1.07.509,1.528,1.528,0,0,0,1.037-.623" transform="translate(-48.795 -318.686)" fill="#e78882"/>
      <path id="Trazado_225029" data-name="Trazado 225029" d="M72.055,312.744a7.793,7.793,0,0,0-7.018-7.19,24.165,24.165,0,0,0-4.673,0,7.794,7.794,0,0,0-7.019,7.19l-.315,4.327H72.37Z" transform="translate(-42.242 -302.213)" fill="#8c404c"/>
      <path id="Trazado_225030" data-name="Trazado 225030" d="M79.959,314.2a9.325,9.325,0,0,0-1.9-5.4,13.331,13.331,0,0,1,1.085,4.93l.189,4.8h.843Z" transform="translate(-53.07 -303.663)" fill="#a64f5a"/>
      <path id="Trazado_225031" data-name="Trazado 225031" d="M60.477,308.794a9.326,9.326,0,0,0-1.9,5.4l-.216,4.327H59.2l.189-4.8a13.337,13.337,0,0,1,1.085-4.93" transform="translate(-44.548 -303.663)" fill="#a64f5a"/>
      <path id="Trazado_225032" data-name="Trazado 225032" d="M71.578,321.506,72,315.691l.818,5.815Z" transform="translate(-50.267 -306.647)" fill="#a64f5a"/>
    </g>
  </g>
  <g id="Grupo_157292" data-name="Grupo 157292">
    <g id="Grupo_157291" data-name="Grupo 157291" clip-path="url(#clip-path)">
      <path id="Trazado_225033" data-name="Trazado 225033" d="M408.969,336.975l4.279-4.279a1.986,1.986,0,0,0-2.808-2.808l-4.279,4.279-4.279-4.279a1.986,1.986,0,1,0-2.808,2.808l4.279,4.279-4.279,4.279a1.986,1.986,0,0,0,2.808,2.808l4.279-4.279,4.279,4.279a1.986,1.986,0,0,0,2.808-2.808Z" transform="translate(-172.41 -142.476)" fill="#e8916a"/>
    </g>
  </g>
  <g id="Grupo_157294" data-name="Grupo 157294" transform="translate(170.324 92.732)">
    <g id="Grupo_157293" data-name="Grupo 157293" clip-path="url(#clip-path-8)">
      <path id="Trazado_225034" data-name="Trazado 225034" d="M511.71,355.033l-27.233-31.2L460.529,274.7a102.361,102.361,0,0,0-24.291-31.909h0a6.911,6.911,0,0,0-10.515,8.71l2.019,3.4-9.572-7.585a9.142,9.142,0,0,0-13.215,12.337l4.915,7.162L398.4,257.1a9.462,9.462,0,0,0-14.066,12.348l6.533,10.131L341.931,229.1a8.095,8.095,0,0,0-12.062,10.78l62.58,76.009L376.4,306.241l-8.009-6.562a18.175,18.175,0,0,0-24.046.889l34.745,32.155a51.055,51.055,0,0,0,25.574,12.767l33.86,6.139,33.757,39.43Z" transform="translate(-312.246 -190.788)" fill="#f0bf9c"/>
      <path id="Trazado_225035" data-name="Trazado 225035" d="M347.076,236.492a25.12,25.12,0,0,1-8.856,6.455,16.737,16.737,0,0,1-3.013-3.9,5.41,5.41,0,0,1-.281-4.663,4.744,4.744,0,0,1,3.775-2.514,7.025,7.025,0,0,1,4.488,1.2,16.653,16.653,0,0,1,3.887,3.42" transform="translate(-315.055 -193.038)" fill="#ffdfca"/>
      <path id="Trazado_225036" data-name="Trazado 225036" d="M362.046,359.9c5.243-4.585,11.673-2.221,14.794,1.656a23.245,23.245,0,0,1-6.7,5.837Z" transform="translate(-326.965 -247.354)" fill="#ffdfca"/>
      <rect id="Rectángulo_47300" data-name="Rectángulo 47300" width="11.067" height="0.567" transform="matrix(0.76, -0.65, 0.65, 0.76, 43.632, 72.841)" fill="#e78882"/>
      <path id="Trazado_225037" data-name="Trazado 225037" d="M377.275,282.408l-.4-.4a14.3,14.3,0,0,1,4.58-3.03l.215.525a13.714,13.714,0,0,0-4.4,2.908" transform="translate(-333.382 -213.433)" fill="#e78882"/>
      <rect id="Rectángulo_47301" data-name="Rectángulo 47301" width="4.255" height="0.567" transform="matrix(0.8, -0.6, 0.6, 0.8, 47.536, 73.035)" fill="#e78882"/>
      <rect id="Rectángulo_47302" data-name="Rectángulo 47302" width="9.34" height="0.567" transform="translate(68.082 96.875) rotate(-41.758)" fill="#e78882"/>
      <rect id="Rectángulo_47303" data-name="Rectángulo 47303" width="3.61" height="0.567" transform="translate(71.066 97.05) rotate(-45.811)" fill="#e78882"/>
      <path id="Trazado_225038" data-name="Trazado 225038" d="M440.624,322.1a.281.281,0,0,1-.2-.085L419.181,300.4a.284.284,0,1,1,.4-.4l21.24,21.62a.284.284,0,0,1-.2.483" transform="translate(-351.65 -222.493)" fill="#e78882"/>
      <path id="Trazado_225039" data-name="Trazado 225039" d="M472.438,297.827a.283.283,0,0,1-.183-.067l-20.589-17.433a.284.284,0,1,1,.366-.433l20.589,17.432a.284.284,0,0,1-.183.5" transform="translate(-365.696 -213.801)" fill="#e78882"/>
      <path id="Trazado_225040" data-name="Trazado 225040" d="M503.275,276.281a.283.283,0,0,1-.176-.061l-13.586-10.767a.284.284,0,0,1,.352-.444l13.586,10.766a.284.284,0,0,1-.177.506" transform="translate(-382.068 -207.363)" fill="#e78882"/>
      <path id="Trazado_225041" data-name="Trazado 225041" d="M437.863,379.763a.282.282,0,0,1-.219-.1l-17.53-21.292a.283.283,0,1,1,.437-.36l17.53,21.292a.283.283,0,0,1-.039.4.279.279,0,0,1-.18.065" transform="translate(-352.061 -247.581)" fill="#e78882"/>
      <path id="Trazado_225042" data-name="Trazado 225042" d="M397.872,389.125a.283.283,0,0,1-.173-.508l6.9-5.291a.284.284,0,1,1,.346.45l-6.9,5.29a.278.278,0,0,1-.173.058" transform="translate(-342.343 -258.555)" fill="#e78882"/>
      <path id="Trazado_225043" data-name="Trazado 225043" d="M397.153,387.615a.284.284,0,0,1-.243-.431,14.826,14.826,0,0,1,2.945-3.5.283.283,0,1,1,.372.428,14.212,14.212,0,0,0-2.832,3.363.285.285,0,0,1-.243.136" transform="translate(-342.032 -258.707)" fill="#e78882"/>
      <path id="Trazado_225044" data-name="Trazado 225044" d="M403.177,392.206a.284.284,0,0,1-.2-.487l2.415-2.336a.284.284,0,0,1,.395.407l-2.415,2.336a.283.283,0,0,1-.2.08" transform="translate(-344.638 -261.166)" fill="#e78882"/>
      <path id="Trazado_225045" data-name="Trazado 225045" d="M431.6,288.7a.28.28,0,0,1-.163-.052.283.283,0,0,1-.069-.395,18.674,18.674,0,0,1,6.86-5.937.284.284,0,0,1,.256.507,18.107,18.107,0,0,0-6.652,5.756.282.282,0,0,1-.232.121" transform="translate(-356.938 -214.864)" fill="#e78882"/>
      <path id="Trazado_225046" data-name="Trazado 225046" d="M431.411,284.6a.284.284,0,0,1-.207-.478,16.29,16.29,0,0,1,4.719-3.5.284.284,0,0,1,.251.509,15.734,15.734,0,0,0-4.555,3.383.284.284,0,0,1-.207.09" transform="translate(-356.854 -214.131)" fill="#e78882"/>
      <path id="Trazado_225047" data-name="Trazado 225047" d="M466.426,272.345a.274.274,0,0,1-.157-.047.283.283,0,0,1-.08-.393,18.23,18.23,0,0,1,6.742-6.082.284.284,0,1,1,.263.5,17.67,17.67,0,0,0-6.532,5.892.284.284,0,0,1-.237.127" transform="translate(-372.003 -207.729)" fill="#e78882"/>
      <path id="Trazado_225048" data-name="Trazado 225048" d="M466.742,267.186a.284.284,0,0,1-.195-.49l3.285-3.1a.284.284,0,0,1,.389.413l-3.285,3.1a.283.283,0,0,1-.195.077" transform="translate(-372.14 -206.747)" fill="#e78882"/>
      <path id="Trazado_225049" data-name="Trazado 225049" d="M502.729,261.414a.284.284,0,0,1-.176-.506,28.948,28.948,0,0,1,5.627-3.488.284.284,0,0,1,.242.513,28.408,28.408,0,0,0-5.516,3.42.28.28,0,0,1-.176.061" transform="translate(-387.71 -204.095)" fill="#e78882"/>
      <path id="Trazado_225050" data-name="Trazado 225050" d="M504.632,257.628a.284.284,0,0,1-.186-.5l1.784-1.548a.284.284,0,0,1,.373.429l-1.784,1.548a.284.284,0,0,1-.186.069" transform="translate(-388.533 -203.281)" fill="#e78882"/>
      <path id="Trazado_225051" data-name="Trazado 225051" d="M344.591,248.657a.284.284,0,0,1-.109-.545,16.651,16.651,0,0,0,5.318-3.574.284.284,0,1,1,.4.4,17.2,17.2,0,0,1-5.5,3.7.283.283,0,0,1-.109.022" transform="translate(-319.291 -198.497)" fill="#e78882"/>
    </g>
  </g>
</svg>
