<svg xmlns="http://www.w3.org/2000/svg" width="106" height="106" viewBox="0 0 106 106">
  <g id="Grupo_159134" data-name="Grupo 159134" transform="translate(-433.638 -3511)">
    <circle id="Elipse_5571" data-name="Elipse 5571" cx="53" cy="53" r="53" transform="translate(433.638 3511)" fill="#ff7d00"/>
    <path id="Trazado_226322" data-name="Trazado 226322" d="M21.582,0H1.738V-4.3l9.141-9.609q3.379-3.848,3.379-6.113a4.252,4.252,0,0,0-.8-2.793,2.859,2.859,0,0,0-2.324-.957A2.9,2.9,0,0,0,8.691-22.49,5.258,5.258,0,0,0,7.754-19.3h-6.6a9.339,9.339,0,0,1,1.309-4.834A9.177,9.177,0,0,1,6.094-27.6a10.791,10.791,0,0,1,5.2-1.25q4.609,0,7.1,2.129a7.6,7.6,0,0,1,2.49,6.113,8.877,8.877,0,0,1-.625,3.271,14.347,14.347,0,0,1-1.943,3.34,48.954,48.954,0,0,1-4.248,4.678L10.391-5.078H21.582Z" transform="translate(474.638 3578)" fill="#fff"/>
  </g>
</svg>
