<svg xmlns="http://www.w3.org/2000/svg" width="106" height="106" viewBox="0 0 106 106">
  <g id="Grupo_159137" data-name="Grupo 159137" transform="translate(-433.638 -4102)">
    <circle id="Elipse_5574" data-name="Elipse 5574" cx="53" cy="53" r="53" transform="translate(433.638 4102)" fill="#ff7d00"/>
    <path id="Trazado_226325" data-name="Trazado 226325" d="M2.129-13.891,3.867-28.437H20.488v5.117H9.219l-.645,5.649A7.763,7.763,0,0,1,10.42-18.4a8.421,8.421,0,0,1,2.236-.314A8.343,8.343,0,0,1,19.17-16.2,10.11,10.11,0,0,1,21.445-9.16a10.092,10.092,0,0,1-1.221,4.951A8.39,8.39,0,0,1,16.8-.8,10.822,10.822,0,0,1,11.582.391a11.644,11.644,0,0,1-5.02-1.1A9.005,9.005,0,0,1,2.891-3.737,7.35,7.35,0,0,1,1.582-8.079h6.6a3.734,3.734,0,0,0,1,2.475,3.162,3.162,0,0,0,2.363.916q3.32,0,3.32-4.912,0-4.541-4.062-4.541a4.054,4.054,0,0,0-3.437,1.481Z" transform="translate(474.638 4169)" fill="#fff"/>
  </g>
</svg>
