<svg xmlns="http://www.w3.org/2000/svg" width="106" height="106" viewBox="0 0 106 106">
  <g id="Grupo_159138" data-name="Grupo 159138" transform="translate(-433.638 -4285)">
    <circle id="Elipse_5575" data-name="Elipse 5575" cx="53" cy="53" r="53" transform="translate(433.638 4285)" fill="#ff7d00"/>
    <path id="Trazado_226326" data-name="Trazado 226326" d="M17.637-28.848v5.176h-.293A9.882,9.882,0,0,0,11.279-21.9a7.463,7.463,0,0,0-2.92,4.912,7.7,7.7,0,0,1,5.625-2.187,7.179,7.179,0,0,1,5.879,2.7,10.871,10.871,0,0,1,2.188,7.07,9.955,9.955,0,0,1-1.279,4.98A9.128,9.128,0,0,1,17.2-.889,10.271,10.271,0,0,1,12.109.391,10.615,10.615,0,0,1,6.7-.986,9.467,9.467,0,0,1,2.988-4.922a12.959,12.959,0,0,1-1.367-5.9v-2.637a16.417,16.417,0,0,1,1.885-7.9,13.664,13.664,0,0,1,5.381-5.5,15.384,15.384,0,0,1,7.754-1.992ZM11.7-14.141a3.766,3.766,0,0,0-2.187.605A3.844,3.844,0,0,0,8.2-12.051v1.973q0,5.391,3.73,5.391a3.026,3.026,0,0,0,2.51-1.348,5.492,5.492,0,0,0,1.006-3.379,5.391,5.391,0,0,0-1.025-3.408A3.28,3.28,0,0,0,11.7-14.141Z" transform="translate(474.638 4352)" fill="#fff"/>
  </g>
</svg>
