<svg id="Grupo_157099" data-name="Grupo 157099" xmlns="http://www.w3.org/2000/svg" xmlns:xlink="http://www.w3.org/1999/xlink" width="475.845" height="353.008" viewBox="0 0 475.845 353.008">
  <defs>
    <clipPath id="clip-path">
      <rect id="Rectángulo_47123" data-name="Rectángulo 47123" width="475.845" height="353.008" fill="none"/>
    </clipPath>
    <clipPath id="clip-path-3">
      <rect id="Rectángulo_47119" data-name="Rectángulo 47119" width="208.866" height="72.523" fill="none"/>
    </clipPath>
    <clipPath id="clip-path-4">
      <rect id="Rectángulo_47120" data-name="Rectángulo 47120" width="208.865" height="72.522" fill="none"/>
    </clipPath>
  </defs>
  <g id="Grupo_157098" data-name="Grupo 157098" clip-path="url(#clip-path)">
    <g id="Grupo_157097" data-name="Grupo 157097">
      <g id="Grupo_157096" data-name="Grupo 157096" clip-path="url(#clip-path)">
        <path id="Trazado_223655" data-name="Trazado 223655" d="M55.654,72.8S99.068,34.809,152.43,52.9,247.4,153.293,298.952,156.006s99.489-25.325,140.19-.9S487.077,285.343,409.295,296.2s-121.2-28.038-154.662-26.229S139.768,312.476,75.552,294.387s-122.1-142.9-19.9-221.591" transform="translate(0 -6.482)" fill="#c8eef3" opacity="0.25"/>
        <g id="Grupo_157092" data-name="Grupo 157092" transform="translate(157.157)" opacity="0.46">
          <g id="Grupo_157091" data-name="Grupo 157091">
            <g id="Grupo_157090" data-name="Grupo 157090" clip-path="url(#clip-path-3)">
              <path id="Trazado_223656" data-name="Trazado 223656" d="M370.244,72.523H184.667a2.98,2.98,0,0,1-2.884-3.731L199.107,2.23A2.98,2.98,0,0,1,201.991,0H387.568a2.98,2.98,0,0,1,2.884,3.731L373.128,70.293a2.98,2.98,0,0,1-2.884,2.23" transform="translate(-181.685 0)" fill="#bfd9ff"/>
              <line id="Línea_550" data-name="Línea 550" x2="64.574" transform="translate(28.434 14.24)" fill="none" stroke="#a9c2ff" stroke-linecap="round" stroke-linejoin="round" stroke-width="3.446"/>
              <line id="Línea_551" data-name="Línea 551" x2="64.574" transform="translate(23.467 44.043)" fill="none" stroke="#a9c2ff" stroke-linecap="round" stroke-linejoin="round" stroke-width="3.446"/>
              <line id="Línea_552" data-name="Línea 552" x2="64.574" transform="translate(50.621 32.784)" fill="none" stroke="#a9c2ff" stroke-linecap="round" stroke-linejoin="round" stroke-width="3.446"/>
              <line id="Línea_553" data-name="Línea 553" x2="19.372" transform="translate(26.778 24.174)" fill="none" stroke="#a9c2ff" stroke-linecap="round" stroke-linejoin="round" stroke-width="3.446"/>
              <line id="Línea_554" data-name="Línea 554" x2="19.372" transform="translate(24.129 32.784)" fill="none" stroke="#a9c2ff" stroke-linecap="round" stroke-linejoin="round" stroke-width="3.446"/>
              <line id="Línea_555" data-name="Línea 555" x2="23.015" transform="translate(103.274 14.24)" fill="none" stroke="#a9c2ff" stroke-linecap="round" stroke-linejoin="round" stroke-width="3.446"/>
              <path id="Trazado_223657" data-name="Trazado 223657" d="M308.71,66.077H274.342a.265.265,0,0,1-.256-.331l1.539-5.91a.264.264,0,0,1,.256-.2h34.367a.264.264,0,0,1,.256.331l-1.538,5.91A.265.265,0,0,1,308.71,66.077Z" transform="translate(-194.158 -8.051)" fill="none" stroke="#84aee5" stroke-miterlimit="10" stroke-width="1.149"/>
              <path id="Trazado_223658" data-name="Trazado 223658" d="M259.324,66.077H224.956a.265.265,0,0,1-.256-.331l1.539-5.91a.264.264,0,0,1,.256-.2h34.367a.264.264,0,0,1,.256.331l-1.538,5.91A.265.265,0,0,1,259.324,66.077Z" transform="translate(-187.491 -8.051)" fill="none" stroke="#84aee5" stroke-miterlimit="10" stroke-width="1.149"/>
              <path id="Trazado_223659" data-name="Trazado 223659" d="M376.707,51.472c-1.761-2.347-8.909-4.052-10.883-6.4-1.009-1.2-1.009-3.426-.767-5.32a7.341,7.341,0,0,0,1.635-1.316,31.68,31.68,0,0,0,1.932-3.408,1.1,1.1,0,0,0,.823.343c.938-.028,4.51-4.89,3.589-6.017-.527-.644-1.377-.086-2.009.511.945-2.164,1.611-3.824,1.611-3.824H372.6c.09-.273.173-.548.242-.826,1.417-5.685-2.041-10.293-7.726-10.293s-11.441,4.608-12.858,10.293c-.069.278-.124.553-.17.826h-.035s-.163,1.66-.3,3.824c-.335-.6-.907-1.156-1.754-.511-1.483,1.127-.336,5.989.588,6.017a1.768,1.768,0,0,0,.993-.343,20.921,20.921,0,0,0,.234,3.408,4.172,4.172,0,0,0,1.316,1.615,11.569,11.569,0,0,1-3.307,5.02c-3.145,2.347-11.143,4.053-14.074,6.4-2.637,2.111-4.989,8.275-5.436,9.492H377.41c.161-1.218.882-7.382-.7-9.492" transform="translate(-201.751 -2.015)" fill="#8dbcf8"/>
            </g>
          </g>
        </g>
        <path id="Trazado_223660" data-name="Trazado 223660" d="M332.918,133.776H147.341a2.98,2.98,0,0,1-2.884-3.731l17.324-66.561a2.98,2.98,0,0,1,2.884-2.23H350.242a2.981,2.981,0,0,1,2.885,3.731L335.8,131.546A2.982,2.982,0,0,1,332.918,133.776Z" transform="translate(-19.489 -8.27)" fill="none" stroke="#7094d8" stroke-miterlimit="10" stroke-width="1.149"/>
        <path id="Trazado_223661" data-name="Trazado 223661" d="M328.9,128.034H143.321a2.98,2.98,0,0,1-2.884-3.731l17.324-66.562a2.98,2.98,0,0,1,2.884-2.229H346.222a2.981,2.981,0,0,1,2.885,3.731L331.783,125.8a2.982,2.982,0,0,1-2.885,2.23" transform="translate(-18.947 -7.494)" fill="#a5c5ff"/>
        <line id="Línea_556" data-name="Línea 556" x2="92.888" transform="translate(182.61 120.539)" fill="none" stroke="#7094d8" stroke-miterlimit="10" stroke-width="1.149"/>
        <line id="Línea_557" data-name="Línea 557" x2="78.483" transform="translate(156.78 48.017)" fill="none" stroke="#7094d8" stroke-miterlimit="10" stroke-width="1.149"/>
        <path id="Trazado_223662" data-name="Trazado 223662" d="M334.071,120.193H292.346a2.628,2.628,0,0,1-2.611-3.477l10.527-42.221a4.75,4.75,0,0,1,4.344-3.477h41.726a2.627,2.627,0,0,1,2.61,3.477l-10.527,42.221a4.75,4.75,0,0,1-4.344,3.477" transform="translate(-39.101 -9.588)" fill="#b7deff"/>
        <path id="Trazado_223663" data-name="Trazado 223663" d="M314.132,125.378l3.651-14.645L311.8,108.2s-11.158,4.084-12.107,5.07c-.8.826-4.8,9.369-6.077,12.11Z" transform="translate(-39.639 -14.607)" fill="#023f61"/>
        <path id="Trazado_223664" data-name="Trazado 223664" d="M338.016,125.378c.093-2.741.346-11.284-.038-12.11-.458-.986-9.579-5.07-9.579-5.07l-7.25,2.534L317.5,125.378Z" transform="translate(-42.864 -14.607)" fill="#023f61"/>
        <path id="Trazado_223665" data-name="Trazado 223665" d="M320.487,126.081l5.72-12.674-12.286.7-1.2,11.97Z" transform="translate(-42.219 -15.311)" fill="#bebecf"/>
        <path id="Trazado_223666" data-name="Trazado 223666" d="M316.434,105.017l-2.675,1.689L312,110.931l-.454,5.774,3.766-1.549,2.924,3.521,3.905-3.239,2.4,2.252,3.621-7.744-.638-4.788-1.514-.7Z" transform="translate(-42.061 -14.102)" fill="#dee0e8"/>
        <path id="Trazado_223667" data-name="Trazado 223667" d="M317.609,92.11a1.7,1.7,0,0,0-2.741-.683c-1.842,1.358.314,6.6,1.649,5.026s1.092-4.342,1.092-4.342" transform="translate(-42.413 -12.28)" fill="#fb8e74"/>
        <path id="Trazado_223668" data-name="Trazado 223668" d="M333.19,91.957s1.751-2.164,3.072-.951-3.022,6.757-3.736,5.274.663-4.322.663-4.322" transform="translate(-44.865 -12.236)" fill="#fb8e74"/>
        <path id="Trazado_223669" data-name="Trazado 223669" d="M326.8,108.273l1.885-10-10.908.945-2.409,9.39s1.907,4.444,3.95,6.416c0,0,6.345-5.481,7.482-6.754" transform="translate(-42.576 -13.268)" fill="#fb8877"/>
        <path id="Trazado_223670" data-name="Trazado 223670" d="M336,85.918c-.406,1.216-1.408,1.52-1.483,2.229a7.015,7.015,0,0,1-1.22,3.243,5.644,5.644,0,0,1-1.051.912s-9.359,2.634-14.112-1.014a8.147,8.147,0,0,1,.015-3.04c.323-1.638-.472-1.925.451-2.735a3.047,3.047,0,0,0,1.224-2.432,3.856,3.856,0,0,1,1.042-2.938c.948-.912,1.8-.608,2.721-1.419,0,0,1.365-2.291,3.168-2.552s5.6-1.216,7.865,1.564,1.22,5.213,1.872,6.082-.491,2.1-.491,2.1" transform="translate(-42.932 -10.234)" fill="#713336"/>
        <path id="Trazado_223671" data-name="Trazado 223671" d="M317.879,88.8s-4.416,12.165,3.9,13.076c7.35.171,9.959-8.8,11.01-13.4s.4-9.415-5.481-9.258-8.784,6.853-9.431,9.578" transform="translate(-42.757 -10.695)" fill="#fba990"/>
        <path id="Trazado_223672" data-name="Trazado 223672" d="M320.2,84.257a2.23,2.23,0,0,1,.04,1.958c-.5.983-1.873,1.362-2.078,2.66s-.805,4-1.173,4.114-.107-2.635-.046-3.578a15.933,15.933,0,0,1,2.727-7.324c1.962-2.479,3.174-3.526,6.667-4.093s6.139.9,7.111,3.032-.583,7.559-.583,7.559.233-2.58-.631-3.185-1.579-1.054-1.435-1.407-2.765.929-5.67-.005-3.846-.509-4.329-.21a2.017,2.017,0,0,0-.6.48" transform="translate(-42.769 -10.513)" fill="#713336"/>
        <path id="Trazado_223673" data-name="Trazado 223673" d="M310.584,112.105c-.07.282-4.059,9.787-4.059,9.787l3.5,1.76-.984,1.971" transform="translate(-41.383 -15.135)" fill="none" stroke="#022755" stroke-miterlimit="10" stroke-width="0.488"/>
        <path id="Trazado_223674" data-name="Trazado 223674" d="M330.349,112.105c-.07.282-.821,9.787-.821,9.787l-4.381,1.76v1.971" transform="translate(-43.897 -15.135)" fill="none" stroke="#022755" stroke-miterlimit="10" stroke-width="0.488"/>
        <path id="Trazado_223675" data-name="Trazado 223675" d="M334.071,120.193H292.346a2.628,2.628,0,0,1-2.611-3.477l10.527-42.221a4.75,4.75,0,0,1,4.344-3.477h41.726a2.627,2.627,0,0,1,2.61,3.477l-10.527,42.221A4.75,4.75,0,0,1,334.071,120.193Z" transform="translate(-39.101 -9.588)" fill="none" stroke="#fff" stroke-miterlimit="10" stroke-width="1.149"/>
        <line id="Línea_558" data-name="Línea 558" x2="64.574" transform="translate(149.826 63.913)" fill="none" stroke="#73a5ff" stroke-linecap="round" stroke-linejoin="round" stroke-width="3.446"/>
        <line id="Línea_559" data-name="Línea 559" x2="64.574" transform="translate(144.859 93.716)" fill="none" stroke="#73a5ff" stroke-linecap="round" stroke-linejoin="round" stroke-width="3.446"/>
        <line id="Línea_560" data-name="Línea 560" x2="64.574" transform="translate(172.013 82.457)" fill="none" stroke="#73a5ff" stroke-linecap="round" stroke-linejoin="round" stroke-width="3.446"/>
        <line id="Línea_561" data-name="Línea 561" x2="19.372" transform="translate(148.17 73.847)" fill="none" stroke="#73a5ff" stroke-linecap="round" stroke-linejoin="round" stroke-width="3.446"/>
        <line id="Línea_562" data-name="Línea 562" x2="19.372" transform="translate(145.521 82.457)" fill="none" stroke="#73a5ff" stroke-linecap="round" stroke-linejoin="round" stroke-width="3.446"/>
        <line id="Línea_563" data-name="Línea 563" x2="23.015" transform="translate(224.666 63.913)" fill="none" stroke="#73a5ff" stroke-linecap="round" stroke-linejoin="round" stroke-width="3.446"/>
        <path id="Trazado_223676" data-name="Trazado 223676" d="M267.364,123.5H233a.265.265,0,0,1-.256-.331l1.539-5.91a.264.264,0,0,1,.256-.2H268.9a.264.264,0,0,1,.256.331l-1.538,5.91A.265.265,0,0,1,267.364,123.5Z" transform="translate(-31.42 -15.804)" fill="none" stroke="#7094d8" stroke-miterlimit="10" stroke-width="1.149"/>
        <path id="Trazado_223677" data-name="Trazado 223677" d="M217.978,123.5H183.61a.265.265,0,0,1-.256-.331l1.538-5.91a.266.266,0,0,1,.257-.2h34.367a.264.264,0,0,1,.256.331l-1.538,5.91A.265.265,0,0,1,217.978,123.5Z" transform="translate(-24.753 -15.804)" fill="none" stroke="#7094d8" stroke-miterlimit="10" stroke-width="1.149"/>
        <line id="Línea_564" data-name="Línea 564" x2="40.235" transform="translate(232.779 40.566)" fill="none" stroke="#7094d8" stroke-miterlimit="10" stroke-width="1.149"/>
        <path id="Trazado_223678" data-name="Trazado 223678" d="M331.2,237.908H145.618a2.98,2.98,0,0,1-2.884-3.731l17.324-66.561a2.98,2.98,0,0,1,2.884-2.23H348.519a2.981,2.981,0,0,1,2.885,3.731l-17.325,66.561a2.98,2.98,0,0,1-2.884,2.23" transform="translate(-19.257 -22.328)" fill="#bfd9ff"/>
        <line id="Línea_565" data-name="Línea 565" x2="64.574" transform="translate(151.813 157.297)" fill="none" stroke="#a9c2ff" stroke-linecap="round" stroke-linejoin="round" stroke-width="3.446"/>
        <line id="Línea_566" data-name="Línea 566" x2="64.574" transform="translate(146.846 187.101)" fill="none" stroke="#a9c2ff" stroke-linecap="round" stroke-linejoin="round" stroke-width="3.446"/>
        <line id="Línea_567" data-name="Línea 567" x2="64.574" transform="translate(174 175.842)" fill="none" stroke="#a9c2ff" stroke-linecap="round" stroke-linejoin="round" stroke-width="3.446"/>
        <line id="Línea_568" data-name="Línea 568" x2="19.372" transform="translate(150.157 167.232)" fill="none" stroke="#a9c2ff" stroke-linecap="round" stroke-linejoin="round" stroke-width="3.446"/>
        <line id="Línea_569" data-name="Línea 569" x2="19.372" transform="translate(147.508 175.842)" fill="none" stroke="#a9c2ff" stroke-linecap="round" stroke-linejoin="round" stroke-width="3.446"/>
        <line id="Línea_570" data-name="Línea 570" x2="23.015" transform="translate(226.653 157.297)" fill="none" stroke="#a9c2ff" stroke-linecap="round" stroke-linejoin="round" stroke-width="3.446"/>
        <path id="Trazado_223679" data-name="Trazado 223679" d="M269.661,231.462H235.293a.265.265,0,0,1-.256-.331l1.539-5.91a.264.264,0,0,1,.256-.2H271.2a.264.264,0,0,1,.256.331l-1.538,5.91A.265.265,0,0,1,269.661,231.462Z" transform="translate(-31.73 -30.379)" fill="none" stroke="#84aee5" stroke-miterlimit="10" stroke-width="1.149"/>
        <path id="Trazado_223680" data-name="Trazado 223680" d="M220.275,231.462H185.907a.265.265,0,0,1-.256-.331l1.539-5.91a.264.264,0,0,1,.256-.2h34.367a.264.264,0,0,1,.256.331l-1.538,5.91A.265.265,0,0,1,220.275,231.462Z" transform="translate(-25.063 -30.379)" fill="none" stroke="#84aee5" stroke-miterlimit="10" stroke-width="1.149"/>
        <path id="Trazado_223681" data-name="Trazado 223681" d="M337.657,216.857c-1.761-2.347-8.909-4.053-10.883-6.4-1.009-1.2-1.009-3.426-.767-5.32a7.34,7.34,0,0,0,1.635-1.316,31.664,31.664,0,0,0,1.932-3.408,1.1,1.1,0,0,0,.823.343c.938-.028,4.51-4.89,3.589-6.017-.527-.644-1.377-.086-2.009.511.945-2.164,1.611-3.824,1.611-3.824h-.036c.09-.273.173-.548.242-.827,1.417-5.684-2.041-10.292-7.726-10.292s-11.441,4.608-12.858,10.292c-.069.279-.124.554-.17.827H313s-.163,1.66-.3,3.824c-.335-.6-.907-1.156-1.754-.511-1.483,1.127-.336,5.989.588,6.017a1.774,1.774,0,0,0,.993-.343,20.927,20.927,0,0,0,.234,3.408,4.179,4.179,0,0,0,1.317,1.615,11.574,11.574,0,0,1-3.307,5.02c-3.145,2.346-11.143,4.053-14.074,6.4-2.636,2.111-4.989,8.275-5.436,9.492H338.36c.161-1.218.882-7.382-.7-9.492" transform="translate(-39.322 -24.343)" fill="#8dbcf8"/>
        <g id="Grupo_157095" data-name="Grupo 157095" transform="translate(104.173 231.806)" opacity="0.46">
          <g id="Grupo_157094" data-name="Grupo 157094">
            <g id="Grupo_157093" data-name="Grupo 157093" clip-path="url(#clip-path-4)">
              <path id="Trazado_223682" data-name="Trazado 223682" d="M308.991,340.508H123.413a2.981,2.981,0,0,1-2.884-3.731l17.324-66.561a2.98,2.98,0,0,1,2.884-2.23H326.314a2.98,2.98,0,0,1,2.885,3.731l-17.324,66.561a2.98,2.98,0,0,1-2.884,2.23" transform="translate(-120.432 -267.986)" fill="#bfd9ff"/>
              <line id="Línea_571" data-name="Línea 571" x2="64.574" transform="translate(28.433 14.239)" fill="none" stroke="#a9c2ff" stroke-linecap="round" stroke-linejoin="round" stroke-width="3.446"/>
              <line id="Línea_572" data-name="Línea 572" x2="64.574" transform="translate(23.466 44.043)" fill="none" stroke="#a9c2ff" stroke-linecap="round" stroke-linejoin="round" stroke-width="3.446"/>
              <line id="Línea_573" data-name="Línea 573" x2="64.574" transform="translate(50.62 32.784)" fill="none" stroke="#a9c2ff" stroke-linecap="round" stroke-linejoin="round" stroke-width="3.446"/>
              <line id="Línea_574" data-name="Línea 574" x2="19.372" transform="translate(26.777 24.174)" fill="none" stroke="#a9c2ff" stroke-linecap="round" stroke-linejoin="round" stroke-width="3.446"/>
              <line id="Línea_575" data-name="Línea 575" x2="19.372" transform="translate(24.128 32.784)" fill="none" stroke="#a9c2ff" stroke-linecap="round" stroke-linejoin="round" stroke-width="3.446"/>
              <line id="Línea_576" data-name="Línea 576" x2="23.015" transform="translate(103.273 14.239)" fill="none" stroke="#a9c2ff" stroke-linecap="round" stroke-linejoin="round" stroke-width="3.446"/>
              <path id="Trazado_223683" data-name="Trazado 223683" d="M247.457,334.062H213.089a.265.265,0,0,1-.256-.331l1.539-5.91a.264.264,0,0,1,.256-.2h34.367a.264.264,0,0,1,.256.331l-1.538,5.91A.265.265,0,0,1,247.457,334.062Z" transform="translate(-132.905 -276.037)" fill="none" stroke="#84aee5" stroke-miterlimit="10" stroke-width="1.149"/>
              <path id="Trazado_223684" data-name="Trazado 223684" d="M198.071,334.062H163.7a.265.265,0,0,1-.256-.331l1.539-5.91a.264.264,0,0,1,.256-.2h34.367a.264.264,0,0,1,.256.331l-1.538,5.91A.265.265,0,0,1,198.071,334.062Z" transform="translate(-126.238 -276.037)" fill="none" stroke="#84aee5" stroke-miterlimit="10" stroke-width="1.149"/>
              <path id="Trazado_223685" data-name="Trazado 223685" d="M315.453,319.457c-1.761-2.347-8.909-4.053-10.883-6.4-1.009-1.2-1.009-3.426-.767-5.32a7.341,7.341,0,0,0,1.635-1.316,31.672,31.672,0,0,0,1.932-3.408,1.1,1.1,0,0,0,.822.343c.939-.028,4.511-4.89,3.59-6.017-.527-.644-1.377-.086-2.009.511.945-2.164,1.611-3.824,1.611-3.824h-.036c.09-.273.173-.548.242-.827,1.417-5.684-2.041-10.292-7.726-10.292S292.421,287.516,291,293.2c-.069.279-.124.554-.17.827H290.8s-.163,1.66-.3,3.824c-.335-.6-.906-1.156-1.754-.511-1.483,1.127-.336,5.989.588,6.017a1.768,1.768,0,0,0,.993-.343,20.921,20.921,0,0,0,.234,3.408,4.178,4.178,0,0,0,1.317,1.615,11.574,11.574,0,0,1-3.307,5.02c-3.145,2.346-11.143,4.052-14.074,6.4-2.637,2.111-4.989,8.275-5.436,9.492h47.094c.161-1.218.882-7.382-.7-9.492" transform="translate(-140.498 -270.001)" fill="#8dbcf8"/>
            </g>
          </g>
        </g>
        <line id="Línea_577" data-name="Línea 577" x2="33.115" transform="translate(255.629 304.66)" fill="none" stroke="#7094d8" stroke-miterlimit="10" stroke-width="1.149"/>
        <line id="Línea_578" data-name="Línea 578" x2="78.814" transform="translate(143.037 215.911)" fill="none" stroke="#7094d8" stroke-miterlimit="10" stroke-width="1.149"/>
        <line id="Línea_579" data-name="Línea 579" x2="19.206" transform="translate(239.899 215.911)" fill="none" stroke="#7094d8" stroke-miterlimit="10" stroke-width="1.149"/>
        <path id="Trazado_223686" data-name="Trazado 223686" d="M373.242,165.769H379.9a2.909,2.909,0,0,1,2.781,3.765l-2.815,9.15" transform="translate(-50.39 -22.38)" fill="none" stroke="#7094d8" stroke-miterlimit="10" stroke-width="1.149"/>
        <path id="Trazado_223687" data-name="Trazado 223687" d="M128.768,29.454h-3.4a1.166,1.166,0,0,1-1.159-1.544l.847-3.4a2.109,2.109,0,0,1,1.929-1.543h3.4a1.166,1.166,0,0,1,1.158,1.543l-.846,3.4a2.109,2.109,0,0,1-1.929,1.544" transform="translate(-16.763 -3.101)" fill="#bfd9ff"/>
        <path id="Trazado_223688" data-name="Trazado 223688" d="M125.9,40.965h-3.4a1.166,1.166,0,0,1-1.159-1.544l.847-3.4a2.109,2.109,0,0,1,1.929-1.543h3.4a1.166,1.166,0,0,1,1.158,1.543l-.846,3.4a2.109,2.109,0,0,1-1.929,1.544" transform="translate(-16.375 -4.655)" fill="#edf4ff"/>
        <path id="Trazado_223689" data-name="Trazado 223689" d="M138.39,40.965h-3.4a1.166,1.166,0,0,1-1.159-1.544l.847-3.4a2.109,2.109,0,0,1,1.929-1.543h3.4a1.166,1.166,0,0,1,1.158,1.543l-.847,3.4a2.107,2.107,0,0,1-1.928,1.544" transform="translate(-18.062 -4.655)" fill="#bfd9ff"/>
        <path id="Trazado_223690" data-name="Trazado 223690" d="M150.882,40.965h-3.4a1.166,1.166,0,0,1-1.159-1.544l.847-3.4a2.109,2.109,0,0,1,1.929-1.543h3.4a1.165,1.165,0,0,1,1.158,1.543l-.846,3.4a2.109,2.109,0,0,1-1.929,1.544" transform="translate(-19.748 -4.655)" fill="#edf4ff"/>
        <path id="Trazado_223691" data-name="Trazado 223691" d="M122.961,52.743h-3.4a1.166,1.166,0,0,1-1.159-1.544l.847-3.4a2.109,2.109,0,0,1,1.929-1.543h3.4a1.166,1.166,0,0,1,1.158,1.543l-.847,3.4a2.107,2.107,0,0,1-1.928,1.544" transform="translate(-15.979 -6.245)" fill="#edf4ff"/>
        <path id="Trazado_223692" data-name="Trazado 223692" d="M119.824,65.325h-3.4a1.166,1.166,0,0,1-1.159-1.544l.847-3.4a2.109,2.109,0,0,1,1.929-1.543h3.4a1.166,1.166,0,0,1,1.158,1.543l-.846,3.4a2.109,2.109,0,0,1-1.929,1.544" transform="translate(-15.555 -7.944)" fill="#edf4ff"/>
        <path id="Trazado_223693" data-name="Trazado 223693" d="M135.453,52.743h-3.4A1.166,1.166,0,0,1,130.9,51.2l.847-3.4a2.109,2.109,0,0,1,1.929-1.543h3.4a1.166,1.166,0,0,1,1.158,1.543l-.846,3.4a2.109,2.109,0,0,1-1.929,1.544" transform="translate(-17.665 -6.245)" fill="#edf4ff"/>
        <path id="Trazado_223694" data-name="Trazado 223694" d="M129.98,74.694h-3.4a1.166,1.166,0,0,1-1.159-1.544l.847-3.4a2.109,2.109,0,0,1,1.929-1.543h3.4a1.166,1.166,0,0,1,1.158,1.543l-.847,3.4a2.107,2.107,0,0,1-1.928,1.544" transform="translate(-16.927 -9.209)" fill="#bfd9ff"/>
        <path id="Trazado_223695" data-name="Trazado 223695" d="M188.577,7.6h0l-.05,0c-.052,0-.1-.01-.155-.014v0c-.35-.022-.7-.037-1.063-.037-10.069,0-20.262,8.073-22.944,18.1l-.119.479h-.005c-.012.05-.021.1-.032.15l-.077.307h.01c-2.21,10.163,4.31,18.251,14.75,17.828,9.519-.385,19.119-7.983,21.976-17.4,3.1-10.213-2.541-18.731-12.29-19.414m6.945,19.068c-2.009,6.694-8.871,12.1-15.624,12.312-7.261.231-11.791-5.4-10.293-12.49l.209-.842h-.008c1.932-7.021,9.081-12.657,16.145-12.657.367,0,.723.019,1.073.048,6.749.571,10.634,6.511,8.5,13.628" transform="translate(-22.102 -1.019)" fill="#ebedfc"/>
        <path id="Trazado_223696" data-name="Trazado 223696" d="M187.584,10.812h0A2.051,2.051,0,0,0,189,13.452c5.506,1.457,8.443,6.9,6.525,13.29-2.009,6.7-8.87,12.1-15.624,12.313-6.623.21-10.977-4.458-10.556-10.657a2,2,0,0,0-2.122-2.2,3.665,3.665,0,0,0-3.476,3.178c-.6,8.845,5.658,15.491,15.146,15.106,9.519-.385,19.12-7.982,21.977-17.4,2.758-9.09-1.406-16.841-9.229-18.917a3.6,3.6,0,0,0-4.053,2.641" transform="translate(-22.101 -1.092)" fill="#a5c5ff"/>
        <path id="Trazado_223697" data-name="Trazado 223697" d="M241.6,5.454v0l-.048,0-.193-.011c-.338-.021-.679-.035-1.028-.035-10.184,0-20.5,8.256-23.037,18.439s3.659,18.44,13.842,18.44c.348,0,.7-.015,1.043-.035l.2-.01.054,0v0c9.695-.655,19.2-8.549,21.7-18.228.014-.054.03-.106.044-.161C256.6,14.09,251.021,6.112,241.6,5.454M233.408,36.8l-.051,0c-.215.014-.429.023-.644.027-.074,0-.147.005-.221.005-7.179,0-11.548-5.819-9.758-13s9.061-13,16.239-13c.074,0,.145,0,.218.005.214,0,.425.013.633.027l.055,0c6.634.47,10.564,6.09,8.852,12.961-.013.054-.03.107-.044.161-1.778,6.8-8.462,12.34-15.279,12.8" transform="translate(-29.259 -0.729)" fill="#fff"/>
        <path id="Trazado_223698" data-name="Trazado 223698" d="M250.282,29.176A18.216,18.216,0,0,1,237.416,39.5a3.806,3.806,0,0,0-2.926,2.68,2.1,2.1,0,0,0,2.581,2.672A25.833,25.833,0,0,0,255.4,30.144c.733-1.681-.156-3.238-1.865-3.238h0a3.763,3.763,0,0,0-3.248,2.27" transform="translate(-31.646 -3.632)" fill="#bfd9ff"/>
        <path id="Trazado_223699" data-name="Trazado 223699" d="M183.523,79.476H149.155a.265.265,0,0,1-.256-.331l1.539-5.91a.264.264,0,0,1,.256-.2h34.367a.264.264,0,0,1,.256.331l-1.538,5.91a.265.265,0,0,1-.256.2" transform="translate(-20.101 -9.86)" fill="#edf4ff"/>
        <path id="Trazado_223700" data-name="Trazado 223700" d="M375.709,98.114c-2.1,8.428-10.636,15.258-19.064,15.258s-13.555-6.831-11.454-15.258,10.636-15.259,19.064-15.259,13.555,6.832,11.454,15.259" transform="translate(-46.539 -11.186)" fill="#73a5ff"/>
        <path id="Trazado_223701" data-name="Trazado 223701" d="M387.657,118.793a5.7,5.7,0,0,1-5.218,4.176,3.155,3.155,0,0,1-3.135-4.176,5.7,5.7,0,0,1,5.218-4.176,3.155,3.155,0,0,1,3.135,4.176" transform="translate(-51.191 -15.474)" fill="#73a5ff"/>
        <path id="Trazado_223702" data-name="Trazado 223702" d="M357.513,107.352a1.446,1.446,0,0,1-1.189-.549l-3.944-5.253a2.007,2.007,0,0,1,.662-2.653,1.862,1.862,0,0,1,2.653,0l2.948,3.926,10.53-8.429a1.864,1.864,0,0,1,2.653,0,2.006,2.006,0,0,1-.662,2.653L358.976,106.8a2.384,2.384,0,0,1-1.464.549" transform="translate(-47.536 -12.669)" fill="#fff"/>
        <path id="Trazado_223703" data-name="Trazado 223703" d="M529.8,400.934c0,3.018-29.133,5.464-65.071,5.464s-65.072-2.446-65.072-5.464,29.134-5.464,65.072-5.464,65.071,2.446,65.071,5.464" transform="translate(-53.956 -53.391)" fill="#bfd9ff"/>
        <path id="Trazado_223704" data-name="Trazado 223704" d="M477.309,65.465s-1.656,3.311-2.649,10.6,1.656,49.341,1.656,49.341l28.478-2.98L491.88,67.452Z" transform="translate(-64.052 -8.838)" fill="#024470"/>
        <path id="Trazado_223705" data-name="Trazado 223705" d="M456.681,270.857l-9.934,49.176,19.372.5s4.967-43.712,2.98-43.712-12.418-5.961-12.418-5.961" transform="translate(-60.313 -36.567)" fill="#45242c"/>
        <path id="Trazado_223706" data-name="Trazado 223706" d="M508.7,392.677s-7.285,7.616-10.266,9.272c.663,1.325,11.259,1.325,15.233-.662s6.954-6.623,6.954-6.623l-.331,4.968h1.987s1.987-6.955,1.987-8.61-1.987-3.974-1.987-3.974Z" transform="translate(-67.291 -52.254)" fill="#713336"/>
        <path id="Trazado_223707" data-name="Trazado 223707" d="M506.852,278.751l7.285,89.411,8.61-.663s9.935-65.567,5.961-88.086-21.856-.663-21.856-.663" transform="translate(-68.428 -36.348)" fill="#ff8d68"/>
        <path id="Trazado_223708" data-name="Trazado 223708" d="M514.162,383.5s-2.65,6.955-6.292,10.266,5.629,3.311,9.6,0,4.305-5.3,5.63-5.961-.331-4.968-.331-4.968Z" transform="translate(-68.453 -51.685)" fill="#ff8d68"/>
        <path id="Trazado_223709" data-name="Trazado 223709" d="M439.347,391.312s-8.465,6.28-11.682,7.41c.43,1.417,10.875,3.2,15.127,1.914s7.971-5.356,7.971-5.356L449.6,400.12l1.959.335s3.13-6.519,3.41-8.152-1.289-4.251-1.289-4.251Z" transform="translate(-57.737 -52.389)" fill="#713336"/>
        <path id="Trazado_223710" data-name="Trazado 223710" d="M455.643,278.436l-7.89,89.359,8.6.8s20.845-62.956,20.724-85.821-21.432-4.337-21.432-4.337" transform="translate(-60.449 -36.634)" fill="#ff8d68"/>
        <path id="Trazado_223711" data-name="Trazado 223711" d="M446.351,382.848s-3.783,6.408-7.932,9.058,4.991,4.213,9.466,1.619,5.136-4.5,6.554-4.927.51-4.952.51-4.952Z" transform="translate(-59.047 -51.687)" fill="#ff8d68"/>
        <path id="Trazado_223712" data-name="Trazado 223712" d="M418.928,114.782l-17.119-3.372s-.26,2.335,1.3,2.853l1.556.519s3.891,9.338,5.706,10.376,12.715,5.534,12.715,5.534l2.848-10.981Z" transform="translate(-54.244 -15.041)" fill="#ff7759"/>
        <path id="Trazado_223713" data-name="Trazado 223713" d="M433.106,128.261s-.165-1.159-2.457-5.8a48.091,48.091,0,0,1-3.112-7.262s-8.041-3.112-9.338-4.669a5.739,5.739,0,0,0-2.075-1.816s-1.556,2.854.778,4.929,4.41,3.631,4.41,3.631-.26,5.966.519,8.819a7.6,7.6,0,0,0,3.117,4.237Z" transform="translate(-56.11 -14.676)" fill="#ff8d68"/>
        <path id="Trazado_223714" data-name="Trazado 223714" d="M461.22,140.813S449.63,159.358,449.3,157.7s-14.9-27.155-14.9-27.155l-7.993,2.727s11.966,37.341,19.583,43.3c0,0,.663.994,2.981.662s20.2-18.875,20.2-18.875Z" transform="translate(-57.567 -17.625)" fill="#ff8d68"/>
        <path id="Trazado_223715" data-name="Trazado 223715" d="M475.949,116.957s-6.209,2.483-9.19,6.788-11.59,23.843-11.59,23.843a26.577,26.577,0,0,0,15.233,11.26l14.571-26.823Z" transform="translate(-61.45 -15.79)" fill="#f9c852"/>
        <path id="Trazado_223716" data-name="Trazado 223716" d="M468.428,189.919s.5,7.948.5,10.928c0,0-11.921,57.62-12.418,71.032s9.438,40.732,9.438,40.732,42.719-.994,56.627-3.975l1.49-28.81s1.987-50.17,0-64.574S513.63,193.4,513.63,193.4l-2.483-6.955Z" transform="translate(-61.628 -25.171)" fill="#713336"/>
        <path id="Trazado_223717" data-name="Trazado 223717" d="M505.323,112.937s11.177,5.216,14.653,10.679,13.909,35.019,13.909,35.019-11.673,4.223-21.857,4.223c0,0,.994,9.437,1.987,12.418s-2.483,4.222-2.483,4.222-24.339,6.706-42.47,2.733c0,0-2.235-.5-2.235-1.49s.248-3.477.248-3.477-1.739-16.889-2.235-19.869-5.961-11.094-5.464-14.323,8.941-18.213,8.941-18.213,5.712-6.705,8.2-8.444,8.693-1.739,8.693-1.739Z" transform="translate(-62.014 -15.247)" fill="#f9c852"/>
        <path id="Trazado_223718" data-name="Trazado 223718" d="M487.389,100.783c.009.389,1.425,8.819-3.243,14.784-4.669,6.1,13.748,5.836,18.026-.388,3.892-5.577,3.5-6.485,3.5-6.485s-3.113-10.116-2.206-16.731c-.259-5.966-16.341-2.334-16.081,8.819" transform="translate(-65.261 -12.031)" fill="#ff8d68"/>
        <path id="Trazado_223719" data-name="Trazado 223719" d="M486.322,61.629s-5.369,1.374-8.411,9.619-1.014,25.764,1.014,27.824,8.188,1.273,16.729-1.546c9.024-2.978,12.074-12.361,13.687-18.55,3.089-11.851-7.217-24.046-23.018-17.347" transform="translate(-64.311 -8.063)" fill="#ff8d68"/>
        <path id="Trazado_223720" data-name="Trazado 223720" d="M475.822,70.464s4.967,11.921,23.843,12.584l4.388,21.07s8.036,3.86,11.176,5.588c0,0,3.643-38.248-4.967-47.52s-23.843-6.955-29.8-1.656-4.636,9.934-4.636,9.934" transform="translate(-64.222 -7.546)" fill="#024470"/>
        <path id="Trazado_223721" data-name="Trazado 223721" d="M508.074,112.317l-4.222-3.974s-3.726,10.68-16.889,11.425a9.084,9.084,0,0,1-.745-6.706l-2.235,1.739s-4.719,6.706-4.223,8.693S486.55,122,486.55,122s7.45,4.47,10.431,4.719,10.6-13.66,11.094-14.4" transform="translate(-64.765 -14.627)" fill="#fff"/>
        <path id="Trazado_223722" data-name="Trazado 223722" d="M503.506,86.566s1.991-3.284,3.983-2.074-1.268,8.642-3.983,8.815-1.267-4.84,0-6.741" transform="translate(-67.768 -11.371)" fill="#ff7759"/>
        <line id="Línea_580" data-name="Línea 580" x2="7.616" y2="27.155" transform="translate(440.411 119.215)" fill="none" stroke="#bb524f" stroke-miterlimit="10" stroke-width="1.149"/>
        <path id="Trazado_223723" data-name="Trazado 223723" d="M503.694,139.64a17.956,17.956,0,0,0,7.451,8.692" transform="translate(-68.001 -18.852)" fill="none" stroke="#bb524f" stroke-miterlimit="10" stroke-width="1.149"/>
        <path id="Trazado_223724" data-name="Trazado 223724" d="M513.743,131.012s.993-6.955,8.941-7.451" transform="translate(-69.358 -16.681)" fill="none" stroke="#bb524f" stroke-miterlimit="10" stroke-width="1.149"/>
        <path id="Trazado_223725" data-name="Trazado 223725" d="M467.41,128.729S459.3,142.058,459.38,145.2s5.3,12.087,5.3,12.087l6.457,16.888" transform="translate(-62.019 -17.379)" fill="none" stroke="#bb524f" stroke-miterlimit="10" stroke-width="1.149"/>
        <line id="Línea_581" data-name="Línea 581" y1="9.934" x2="8.692" transform="translate(433.457 156.801)" fill="none" stroke="#bb524f" stroke-miterlimit="10" stroke-width="1.149"/>
        <path id="Trazado_223726" data-name="Trazado 223726" d="M415.3,118.225l-10.187-2.917a13.213,13.213,0,0,0,1.577,2.917c.663.663,7.782,3.146,7.782,3.146" transform="translate(-54.692 -15.567)" fill="none" stroke="#e66657" stroke-miterlimit="10" stroke-width="1.026"/>
        <path id="Trazado_223727" data-name="Trazado 223727" d="M406.932,118.68a18.006,18.006,0,0,0,1.49,3.477c.5.5,6.788,2.318,6.788,2.318" transform="translate(-54.938 -16.022)" fill="none" stroke="#e66657" stroke-miterlimit="10" stroke-width="1.026"/>
        <path id="Trazado_223728" data-name="Trazado 223728" d="M418.608,115.808l3.108,2.42,2.356-.6" transform="translate(-56.514 -15.635)" fill="none" stroke="#e66657" stroke-miterlimit="10" stroke-width="1.026"/>
        <path id="Trazado_223729" data-name="Trazado 223729" d="M489.242,104.718a15.66,15.66,0,0,0,9.6-7.285" transform="translate(-66.05 -13.154)" fill="none" stroke="#e66657" stroke-miterlimit="10" stroke-width="1.026"/>
        <path id="Trazado_223730" data-name="Trazado 223730" d="M482.744,89.01,481.585,95.3l2.152.5" transform="translate(-65.017 -12.017)" fill="none" stroke="#e66657" stroke-miterlimit="10" stroke-width="1.026"/>
        <path id="Trazado_223731" data-name="Trazado 223731" d="M482.542,99.931A10.2,10.2,0,0,0,489,98.772" transform="translate(-65.146 -13.335)" fill="none" stroke="#e66657" stroke-miterlimit="10" stroke-width="1.026"/>
        <path id="Trazado_223732" data-name="Trazado 223732" d="M495.177,92.264a3.063,3.063,0,1,1-3.063-3.062,3.063,3.063,0,0,1,3.063,3.062" transform="translate(-66.025 -12.043)" fill="#fa6157"/>
        <path id="Trazado_223733" data-name="Trazado 223733" d="M489.009,87.841a.745.745,0,1,1-.745-.745.745.745,0,0,1,.745.745" transform="translate(-65.818 -11.758)" fill="#024470"/>
        <path id="Trazado_223734" data-name="Trazado 223734" d="M479.725,87.841a.745.745,0,1,1-.745-.745.745.745,0,0,1,.745.745" transform="translate(-64.564 -11.758)" fill="#024470"/>
        <path id="Trazado_223735" data-name="Trazado 223735" d="M473.833,200.891s13.66,4.222,26.575-1.242" transform="translate(-63.97 -26.954)" fill="none" stroke="#562525" stroke-miterlimit="10" stroke-width="1.149"/>
        <path id="Trazado_223736" data-name="Trazado 223736" d="M478.522,206.422s6.955,2.318,18.213-1.987" transform="translate(-64.603 -27.6)" fill="none" stroke="#562525" stroke-miterlimit="10" stroke-width="1.149"/>
        <rect id="Rectángulo_47121" data-name="Rectángulo 47121" width="30.3" height="40.235" transform="translate(384.696 190.417) rotate(-30.001)" fill="#fff"/>
        <path id="Trazado_223737" data-name="Trazado 223737" d="M500.578,217.183s-4.139,4.553-5.381,5.547-9.686,1.738-9.686,1.738-3.726,6.21-4.719,5.962-.746-.994-.746-.994-.248-11.177.5-12.418,12.915-4.719,12.915-4.719l1.49-1.739Z" transform="translate(-64.804 -28.427)" fill="#ff8d68"/>
        <path id="Trazado_223738" data-name="Trazado 223738" d="M535.363,167.109c.331.993,2.981,8.775,4.305,12.749s-28.479,24.837-33.115,28.479l-3.643,2.981-5.629-6.623,26.161-26.161-3.809-8.61Z" transform="translate(-67.136 -22.561)" fill="#ff8d68"/>
        <line id="Línea_582" data-name="Línea 582" y1="6.955" x2="1.573" transform="translate(415.989 195.048)" fill="none" stroke="#e66657" stroke-miterlimit="10" stroke-width="1.026"/>
        <line id="Línea_583" data-name="Línea 583" y1="3.974" x2="1.822" transform="translate(415.078 191.737)" fill="none" stroke="#e66657" stroke-miterlimit="10" stroke-width="1.026"/>
        <path id="Trazado_223739" data-name="Trazado 223739" d="M480.524,218.026l-.663,13.412h2.153l3.477-5.961" transform="translate(-64.784 -29.435)" fill="none" stroke="#e66657" stroke-miterlimit="10" stroke-width="1.026"/>
        <path id="Trazado_223740" data-name="Trazado 223740" d="M145.433,400.934c0,3.018-29.133,5.464-65.071,5.464s-65.072-2.446-65.072-5.464,29.134-5.464,65.072-5.464,65.071,2.446,65.071,5.464" transform="translate(-2.064 -53.391)" fill="#bfd9ff"/>
        <path id="Trazado_223741" data-name="Trazado 223741" d="M59.942,381.107s1.381-2.958,6.508-2.169,5.719,1.775,6.311,4.339,2.366,5.325,3.549,5.917,5.522,3.55,9.072,4.142,3.944,2.76,3.156,3.746-14.2,1.775-17.157,1.38c0,0-10.058-.2-12.425-.986s.789-15.382.986-16.368" transform="translate(-7.841 -51.141)" fill="#2d2737"/>
        <path id="Trazado_223742" data-name="Trazado 223742" d="M53.369,299.486a9.714,9.714,0,0,1,7.125-10.908c8.625-2.742,10.257,1.244,12.869,8.693s-2.244,71.084-2.244,71.084-9.932,1.7-12.479.192c0,0-7.566-41.425-7.039-52.793s1.769-16.268,1.769-16.268" transform="translate(-6.963 -38.842)" fill="#3d4776"/>
        <path id="Trazado_223743" data-name="Trazado 223743" d="M58.523,378.028s11.241-.986,14.791-1.578l-.2,5.128s-8.875,1.578-14.4.789Z" transform="translate(-7.901 -50.823)" fill="#51598d"/>
        <path id="Trazado_223744" data-name="Trazado 223744" d="M52.614,116.994s-7.1.394-11.439,16.566-7.1,35.893-5.521,41.021S54.192,193.512,60.5,193.512s6.705-4.733,5.522-8.678-13.411-14.593-13.411-14.593,9.861-31.554,9.466-39.837-5.128-13.41-9.466-13.41" transform="translate(-4.753 -15.795)" fill="#f9c852"/>
        <path id="Trazado_223745" data-name="Trazado 223745" d="M157.92,110.616l-1.177.12,2.639-5.225s6.708-.423,7.784,2.41l-3.076,6.824Z" transform="translate(-21.161 -14.241)" fill="#ff8d68"/>
        <path id="Trazado_223746" data-name="Trazado 223746" d="M162.462,93.266s-.262-5.34,1.638-6.1,4.027.72,4.027.72,3.074-.314,4.055,1a5.9,5.9,0,0,1,.9,3.3,3.086,3.086,0,0,1,2.185,2.037c.45,1.649-.355,4.838-.355,4.838s-2.009,2.464-4.33,1.853-8.122-7.645-8.122-7.645" transform="translate(-21.932 -11.739)" fill="#ff7759"/>
        <path id="Trazado_223747" data-name="Trazado 223747" d="M158.352,96.2s-.712-6.988.041-7.912,8.453-11.575,8.453-11.575a3.887,3.887,0,0,1,.678,3.886c-.919,2.071-4.544,8.352-4.544,8.352l-.018,5.368a11.794,11.794,0,0,1-4.61,1.882" transform="translate(-21.337 -10.356)" fill="#ff7759"/>
        <path id="Trazado_223748" data-name="Trazado 223748" d="M158.9,103.574s-1.84-11.223-.585-12.763,7.409-.642,8.584-.2,4.426,4.633,4.877,6.282-2.614,7.609-4.456,8.928-7.353-.1-8.42-2.249" transform="translate(-21.314 -12.143)" fill="#ff8d68"/>
        <path id="Trazado_223749" data-name="Trazado 223749" d="M154.052,113.566l2.367-4.339s5.522-.986,8.283,3.353c.789,1.578.394,1.578.394,1.578l-1.775,3.55Z" transform="translate(-20.798 -14.733)" fill="#dee0e8"/>
        <path id="Trazado_223750" data-name="Trazado 223750" d="M85.1,59.043s5.835,1.493,9.14,10.453,1.1,28-1.1,30.238-8.9,1.384-18.179-1.68C65.155,94.816,61.841,84.62,60.088,77.894,56.732,65.015,67.931,51.763,85.1,59.043" transform="translate(-8.032 -7.691)" fill="#ff8d68"/>
        <path id="Trazado_223751" data-name="Trazado 223751" d="M64.906,113.8l4.733-16.96s9.466-2.761,15.382,3.55l1.972,2.76v11.044a63.168,63.168,0,0,1-22.088-.394" transform="translate(-8.763 -12.992)" fill="#ff8d68"/>
        <path id="Trazado_223752" data-name="Trazado 223752" d="M49.385,221.3a156.215,156.215,0,0,0,0,44.372c3.55,23.666,10.65,26.032,17.157,26.032s8.283-18.932,9.466-27.215S81.925,227.81,73.05,221.3s-18.932-7.1-23.665,0" transform="translate(-6.454 -29.188)" fill="#3d4776"/>
        <path id="Trazado_223753" data-name="Trazado 223753" d="M78.043,249.185s-7.1-18.932,5.325-27.215,21.89-7.1,24.849,6.508,3.55,60.347-.592,69.813-18.932-5.324-29.582-49.106" transform="translate(-10.264 -29.264)" fill="#3d4776"/>
        <path id="Trazado_223754" data-name="Trazado 223754" d="M96.129,59.243a8.536,8.536,0,0,1,1.12,7.839c-1.68,4.2-7.839,5.879-7.839,5.879a6.741,6.741,0,0,1,0,6.719l-1.4,2.24s1.96,4.48,1.4,5.6-2.52.84-2.52.84-2.24-6.16-3.08-5.6-3.079,3.36-3.079,5.879.84,4.48.279,6.16S71.77,96.48,68.13,95.92s-9.239-11.76-10.639-16.8c0,0-1.96-7,.84-12.879,0,0-.561-5.039,4.2-10.079s19.878-3.36,22.4-1.4c0,0-.28-2.8,2.52-2.239a13.4,13.4,0,0,1,8.679,6.719" transform="translate(-7.672 -7.081)" fill="#c53a45"/>
        <path id="Trazado_223755" data-name="Trazado 223755" d="M91.757,89.382s-.84-3.64-3.919-1.96.56,10.359,3.079,9.8,1.4-6.44.84-7.839" transform="translate(-11.699 -11.743)" fill="#ff7759"/>
        <path id="Trazado_223756" data-name="Trazado 223756" d="M62.011,115.559s1.321-4.643,2.5-5.038,15.778-1.972,23.666,2.761c3.549,2.761,3.155,4.733,3.155,4.733s-23.547-4.519-29.325-2.457" transform="translate(-8.372 -14.844)" fill="#dee0e8"/>
        <path id="Trazado_223757" data-name="Trazado 223757" d="M56.651,114.794s24.454-1.578,41.809,5.917c7.889,3.944,25.934,21.792,25.934,21.792l14.2-29.582s7.987-2.86,11.143,4.635c0,0-8.973,34.907-16.468,45.95-4.733,3.944-27.314-8.874-27.314-8.874s3.55,45.753,2.367,66.263c-1.578,3.944-32.343,5.917-37.864,5.522s-24.85-6.705-25.244-7.889,2.761-48.514,1.972-54.036-3.156-32.737-2.367-36.681,4.339-11.439,11.833-13.016" transform="translate(-6.029 -15.173)" fill="#f9c852"/>
        <path id="Trazado_223758" data-name="Trazado 223758" d="M88.327,382.475s1.381-2.958,6.508-2.169,5.718,1.775,6.311,4.339,2.366,5.325,3.549,5.917,5.522,3.55,9.072,4.141,3.944,2.761,3.156,3.747-14.2,1.775-17.157,1.381c0,0-10.058-.2-12.425-.986s.789-15.382.986-16.368" transform="translate(-11.673 -51.325)" fill="#3e3343"/>
        <path id="Trazado_223759" data-name="Trazado 223759" d="M90.711,301.174a9.714,9.714,0,0,1,8.283-10.058c8.874-1.775,10.057,2.367,11.832,10.058S100.77,371.58,100.77,371.58s-10.058.591-12.425-1.183c0,0-2.958-42.007-1.183-53.248s3.55-15.974,3.55-15.974" transform="translate(-11.691 -39.247)" fill="#3d4776"/>
        <path id="Trazado_223760" data-name="Trazado 223760" d="M87.675,383.266s7.692,2.169,14.2.986l.592-4.536-14.988-.986Z" transform="translate(-11.81 -51.131)" fill="#51598d"/>
        <path id="Trazado_223761" data-name="Trazado 223761" d="M75.622,249.116s8.283,26.624,14.495,39.64" transform="translate(-10.209 -33.632)" fill="none" stroke="#2a2e59" stroke-miterlimit="10" stroke-width="1.026"/>
        <path id="Trazado_223762" data-name="Trazado 223762" d="M95.116,300.893s5.028-2.958,10.057,0" transform="translate(-12.841 -40.445)" fill="none" stroke="#2a2e59" stroke-miterlimit="10" stroke-width="1.026"/>
        <path id="Trazado_223763" data-name="Trazado 223763" d="M94.09,304.773s4.141-2.367,11.241,2.662" transform="translate(-12.703 -41.071)" fill="none" stroke="#2a2e59" stroke-miterlimit="10" stroke-width="1.026"/>
        <path id="Trazado_223764" data-name="Trazado 223764" d="M58.181,296.8s3.254-2.958,10.65.3" transform="translate(-7.855 -39.904)" fill="none" stroke="#2a2e59" stroke-miterlimit="10" stroke-width="1.026"/>
        <path id="Trazado_223765" data-name="Trazado 223765" d="M60.917,300.293a8.9,8.9,0,0,1,9.17,1.183" transform="translate(-8.224 -40.437)" fill="none" stroke="#2a2e59" stroke-miterlimit="10" stroke-width="1.026"/>
        <line id="Línea_584" data-name="Línea 584" x1="1.775" y2="60.347" transform="translate(61.863 264.59)" fill="none" stroke="#2a2e59" stroke-miterlimit="10" stroke-width="1.026"/>
        <path id="Trazado_223766" data-name="Trazado 223766" d="M101.841,247.037s6.705,3.944,9.467-2.367" transform="translate(-13.749 -33.032)" fill="none" stroke="#2a2e59" stroke-miterlimit="10" stroke-width="1.026"/>
        <path id="Trazado_223767" data-name="Trazado 223767" d="M109.593,248.318s3.155,24.454,2.367,40.626" transform="translate(-14.796 -33.524)" fill="none" stroke="#2a2e59" stroke-miterlimit="10" stroke-width="1.026"/>
        <line id="Línea_585" data-name="Línea 585" x2="3.155" y2="33.921" transform="translate(38.789 122.893)" fill="none" stroke="#524b81" stroke-miterlimit="10" stroke-width="1.026"/>
        <path id="Trazado_223768" data-name="Trazado 223768" d="M107.427,155.753s23.37,16.861,34.315,13.607" transform="translate(-14.503 -21.027)" fill="none" stroke="#524b81" stroke-miterlimit="10" stroke-width="1.026"/>
        <path id="Trazado_223769" data-name="Trazado 223769" d="M139.574,150.965a9.757,9.757,0,0,1,4.437,8.875" transform="translate(-18.843 -20.381)" fill="none" stroke="#524b81" stroke-miterlimit="10" stroke-width="1.026"/>
        <path id="Trazado_223770" data-name="Trazado 223770" d="M138.206,148.2a7.121,7.121,0,0,1,7.987,3.55" transform="translate(-18.659 -19.98)" fill="none" stroke="#524b81" stroke-miterlimit="10" stroke-width="1.026"/>
        <path id="Trazado_223771" data-name="Trazado 223771" d="M105.31,124.632s-12.424,6.508-4.142,21.595" transform="translate(-13.274 -16.826)" fill="none" stroke="#524b81" stroke-miterlimit="10" stroke-width="1.026"/>
        <path id="Trazado_223772" data-name="Trazado 223772" d="M86.053,101.889s2.071,5.325,9.023,4.437" transform="translate(-11.618 -13.756)" fill="none" stroke="#e66657" stroke-miterlimit="10" stroke-width="1.026"/>
        <path id="Trazado_223773" data-name="Trazado 223773" d="M163.456,88.913l2.317-2.071a3.561,3.561,0,0,1,2.489,1.031" transform="translate(-22.067 -11.724)" fill="none" stroke="#e66657" stroke-miterlimit="10" stroke-width="1.026"/>
        <path id="Trazado_223774" data-name="Trazado 223774" d="M166.648,89.335a38.109,38.109,0,0,1,3.3-1.923s3.008.74,3.451,2.317a4,4,0,0,1,.1,2.416" transform="translate(-22.498 -11.801)" fill="none" stroke="#e66657" stroke-miterlimit="10" stroke-width="1.026"/>
        <path id="Trazado_223775" data-name="Trazado 223775" d="M171.151,92.94c.148-.049,4.191.2,4.191.2a3.54,3.54,0,0,1,1.43,2.909,15.058,15.058,0,0,1-.682,3.82,5.017,5.017,0,0,1-3.9,2" transform="translate(-23.106 -12.547)" fill="none" stroke="#e66657" stroke-miterlimit="10" stroke-width="1.026"/>
        <path id="Trazado_223776" data-name="Trazado 223776" d="M173.15,97.729A2.449,2.449,0,0,1,173,99.948c-.641,1.43-1.417,5.174-4.209,6.926" transform="translate(-22.788 -13.194)" fill="none" stroke="#e66657" stroke-miterlimit="10" stroke-width="1.026"/>
        <path id="Trazado_223777" data-name="Trazado 223777" d="M74.764,67.317C69,64.507,61.6,67.909,61.6,67.909a7.665,7.665,0,0,1,5.029-5.177" transform="translate(-8.316 -8.469)" fill="none" stroke="#a03a45" stroke-miterlimit="10" stroke-width="1.368"/>
        <path id="Trazado_223778" data-name="Trazado 223778" d="M61.943,71.452s1.479-.148,3.4,2.81" transform="translate(-8.363 -9.646)" fill="none" stroke="#a03a45" stroke-miterlimit="10" stroke-width="1.368"/>
        <path id="Trazado_223779" data-name="Trazado 223779" d="M91.354,56.12s7.3,1.183,7.494,8.48" transform="translate(-12.333 -7.577)" fill="none" stroke="#a03a45" stroke-miterlimit="10" stroke-width="1.368"/>
      </g>
    </g>
  </g>
</svg>
