<svg xmlns="http://www.w3.org/2000/svg" xmlns:xlink="http://www.w3.org/1999/xlink" width="1373.167" height="506" viewBox="0 0 1373.167 506">
  <defs>
    <linearGradient id="linear-gradient" x1="0.5" x2="0.5" y2="1" gradientUnits="objectBoundingBox">
      <stop offset="0" stop-color="#338491"/>
      <stop offset="1" stop-color="#1a4249"/>
    </linearGradient>
    <clipPath id="clip-path">
      <rect id="Rect치ngulo_46410" data-name="Rect치ngulo 46410" width="1373" height="506" rx="49" transform="translate(108.333 134)" fill="none"/>
    </clipPath>
  </defs>
  <g id="Grupo_159131" data-name="Grupo 159131" transform="translate(-108.333 -134)">
    <rect id="Rect치ngulo_45467" data-name="Rect치ngulo 45467" width="1373" height="505" rx="48" transform="translate(108.5 134.996)" fill="url(#linear-gradient)"/>
    <g id="Grupo_154682" data-name="Grupo 154682" transform="translate(108.132 109.449)">
      <g id="Grupo_151759" data-name="Grupo 151759">
        <circle id="Elipse_5358" data-name="Elipse 5358" cx="2.186" cy="2.186" r="2.186" transform="translate(45.924 446.637)" fill="#15616d"/>
        <circle id="Elipse_5359" data-name="Elipse 5359" cx="2.186" cy="2.186" r="2.186" transform="translate(45.868 454.251)" fill="#15616d"/>
        <circle id="Elipse_5360" data-name="Elipse 5360" cx="2.186" cy="2.186" r="2.186" transform="translate(45.868 461.584)" fill="#15616d"/>
        <circle id="Elipse_5361" data-name="Elipse 5361" cx="2.186" cy="2.186" r="2.186" transform="translate(45.868 468.918)" fill="#15616d"/>
        <circle id="Elipse_5362" data-name="Elipse 5362" cx="2.186" cy="2.186" r="2.186" transform="translate(45.868 476.252)" fill="#15616d"/>
        <circle id="Elipse_5363" data-name="Elipse 5363" cx="2.186" cy="2.186" r="2.186" transform="translate(53.202 446.917)" fill="#15616d"/>
        <circle id="Elipse_5364" data-name="Elipse 5364" cx="2.186" cy="2.186" r="2.186" transform="translate(53.202 454.251)" fill="#15616d"/>
        <circle id="Elipse_5365" data-name="Elipse 5365" cx="2.186" cy="2.186" r="2.186" transform="translate(53.202 461.584)" fill="#15616d"/>
        <circle id="Elipse_5366" data-name="Elipse 5366" cx="2.186" cy="2.186" r="2.186" transform="translate(53.202 468.918)" fill="#15616d"/>
        <circle id="Elipse_5367" data-name="Elipse 5367" cx="2.186" cy="2.186" r="2.186" transform="translate(53.202 476.252)" fill="#15616d"/>
        <circle id="Elipse_5368" data-name="Elipse 5368" cx="2.186" cy="2.186" r="2.186" transform="translate(45.868 446.917)" fill="#15616d"/>
        <circle id="Elipse_5369" data-name="Elipse 5369" cx="2.186" cy="2.186" r="2.186" transform="translate(60.535 454.251)" fill="#15616d"/>
        <circle id="Elipse_5370" data-name="Elipse 5370" cx="2.186" cy="2.186" r="2.186" transform="translate(60.535 461.584)" fill="#15616d"/>
        <circle id="Elipse_5371" data-name="Elipse 5371" cx="2.186" cy="2.186" r="2.186" transform="translate(60.535 468.918)" fill="#15616d"/>
        <circle id="Elipse_5372" data-name="Elipse 5372" cx="2.186" cy="2.186" r="2.186" transform="translate(60.535 476.252)" fill="#15616d"/>
        <circle id="Elipse_5373" data-name="Elipse 5373" cx="2.186" cy="2.186" r="2.186" transform="translate(67.869 446.917)" fill="#15616d"/>
        <circle id="Elipse_5374" data-name="Elipse 5374" cx="2.186" cy="2.186" r="2.186" transform="translate(67.869 454.251)" fill="#15616d"/>
        <circle id="Elipse_5375" data-name="Elipse 5375" cx="2.186" cy="2.186" r="2.186" transform="translate(67.869 461.584)" fill="#15616d"/>
        <circle id="Elipse_5376" data-name="Elipse 5376" cx="2.186" cy="2.186" r="2.186" transform="translate(67.869 468.918)" fill="#15616d"/>
        <circle id="Elipse_5377" data-name="Elipse 5377" cx="2.186" cy="2.186" r="2.186" transform="translate(67.869 476.252)" fill="#15616d"/>
        <circle id="Elipse_5378" data-name="Elipse 5378" cx="2.186" cy="2.186" r="2.186" transform="translate(60.535 446.917)" fill="#15616d"/>
        <circle id="Elipse_5379" data-name="Elipse 5379" cx="2.186" cy="2.186" r="2.186" transform="translate(75.202 446.917)" fill="#15616d"/>
        <circle id="Elipse_5380" data-name="Elipse 5380" cx="2.186" cy="2.186" r="2.186" transform="translate(75.202 454.251)" fill="#15616d"/>
        <circle id="Elipse_5381" data-name="Elipse 5381" cx="2.186" cy="2.186" r="2.186" transform="translate(75.202 461.584)" fill="#15616d"/>
        <circle id="Elipse_5382" data-name="Elipse 5382" cx="2.186" cy="2.186" r="2.186" transform="translate(75.202 476.252)" fill="#15616d"/>
        <circle id="Elipse_5383" data-name="Elipse 5383" cx="2.186" cy="2.186" r="2.186" transform="translate(75.202 468.918)" fill="#15616d"/>
      </g>
    </g>
    <g id="Enmascarar_grupo_80002" data-name="Enmascarar grupo 80002" clip-path="url(#clip-path)">
      <g id="Grupo_154650" data-name="Grupo 154650" transform="translate(107.929 526.354) rotate(-45)" opacity="0.05">
        <g id="Grupo_154646" data-name="Grupo 154646" transform="translate(244.123 -228.331)">
          <path id="Trazado_204397" data-name="Trazado 204397" d="M1005.372,136.152a49.268,49.268,0,0,0,.309-5.49c0-.979-.033-1.951-.09-2.916l-9.072-2.935a39.855,39.855,0,0,0-3.212-10.87l6.016-7.4a49.016,49.016,0,0,0-4.765-6.927l-9.073,2.96a40.288,40.288,0,0,0-8.981-6.9l.516-9.533a48.557,48.557,0,0,0-7.92-2.807l-5.6,7.731a40.368,40.368,0,0,0-11.326-.3l-5.187-8.017a48.445,48.445,0,0,0-8.058,2.381l.012,9.546a40.233,40.233,0,0,0-9.334,6.421l-8.9-3.434a49.109,49.109,0,0,0-5.126,6.665l5.617,7.711a39.843,39.843,0,0,0-3.787,10.683l-9.213,2.452a49.313,49.313,0,0,0-.309,5.49c0,.98.033,1.952.089,2.917l9.071,2.935a39.848,39.848,0,0,0,3.213,10.869l-6.015,7.4a49.007,49.007,0,0,0,4.765,6.927l9.073-2.96a40.306,40.306,0,0,0,8.981,6.9l-.517,9.532a48.566,48.566,0,0,0,7.92,2.808l5.6-7.732a40.339,40.339,0,0,0,11.326.3l5.187,8.017a48.5,48.5,0,0,0,8.058-2.381l-.011-9.546a40.251,40.251,0,0,0,9.334-6.421l8.9,3.434A49.046,49.046,0,0,0,997.99,157l-5.617-7.711a39.869,39.869,0,0,0,3.787-10.683Zm-48.588,13.689a19.179,19.179,0,1,1,19.178-19.179A19.179,19.179,0,0,1,956.784,149.841Z" transform="translate(-907.887 -82.748)" fill="#e6f1ff"/>
          <g id="Grupo_151711" data-name="Grupo 151711" transform="translate(74.338 36.411)">
            <g id="Grupo_151710" data-name="Grupo 151710">
              <path id="Trazado_204398" data-name="Trazado 204398" d="M1013.241,167.376a.718.718,0,0,1-.551-1.176,32.441,32.441,0,0,0,5.717-31.251.717.717,0,0,1,1.355-.467,33.878,33.878,0,0,1-5.97,32.635A.714.714,0,0,1,1013.241,167.376Z" transform="translate(-1012.524 -133.999)" fill="#e6f1ff"/>
            </g>
          </g>
          <g id="Grupo_151713" data-name="Grupo 151713" transform="translate(60.163 16.065)">
            <g id="Grupo_151712" data-name="Grupo 151712">
              <path id="Trazado_204399" data-name="Trazado 204399" d="M1004.687,113.817a.715.715,0,0,1-.491-.195,32.187,32.187,0,0,0-11.151-6.871.717.717,0,1,1,.489-1.348,33.623,33.623,0,0,1,11.645,7.175.716.716,0,0,1-.491,1.238Z" transform="translate(-992.572 -105.361)" fill="#e6f1ff"/>
            </g>
          </g>
          <g id="Grupo_151715" data-name="Grupo 151715" transform="translate(40.742 14.089)">
            <g id="Grupo_151714" data-name="Grupo 151714">
              <path id="Trazado_204400" data-name="Trazado 204400" d="M965.951,105.019a.717.717,0,0,1-.175-1.412,33.928,33.928,0,0,1,8.3-1.027.717.717,0,1,1,0,1.434,32.537,32.537,0,0,0-7.953.983A.718.718,0,0,1,965.951,105.019Z" transform="translate(-965.235 -102.58)" fill="#e6f1ff"/>
            </g>
          </g>
        </g>
        <g id="Grupo_154647" data-name="Grupo 154647" transform="matrix(0.946, 0.326, -0.326, 0.946, 207.044, -178.859)">
          <path id="Trazado_204401" data-name="Trazado 204401" d="M67.522,36.99a34.1,34.1,0,0,0,.214-3.8c0-.678-.022-1.351-.062-2.02l-6.283-2.033a27.605,27.605,0,0,0-2.225-7.529l4.167-5.127a33.961,33.961,0,0,0-3.3-4.8l-6.284,2.05A27.924,27.924,0,0,0,47.527,8.95l.357-6.6A33.63,33.63,0,0,0,42.4.4l-3.88,5.355a27.951,27.951,0,0,0-7.845-.206L27.081,0A33.64,33.64,0,0,0,21.5,1.649l.008,6.613a27.854,27.854,0,0,0-6.465,4.447L8.878,10.33a34.038,34.038,0,0,0-3.551,4.616l3.891,5.341a27.616,27.616,0,0,0-2.623,7.4l-6.382,1.7A34.268,34.268,0,0,0,0,33.187c0,.678.022,1.352.061,2.02l6.284,2.033a27.6,27.6,0,0,0,2.224,7.529L4.4,49.9a33.961,33.961,0,0,0,3.3,4.8l6.285-2.05a27.914,27.914,0,0,0,6.221,4.782l-.357,6.6a33.59,33.59,0,0,0,5.486,1.944l3.88-5.355a27.981,27.981,0,0,0,7.845.205l3.593,5.553a33.635,33.635,0,0,0,5.581-1.649l-.009-6.613a27.842,27.842,0,0,0,6.466-4.447l6.165,2.379a33.981,33.981,0,0,0,3.55-4.616l-3.89-5.341a27.614,27.614,0,0,0,2.623-7.4ZM33.868,46.471A13.284,13.284,0,1,1,47.152,33.187,13.283,13.283,0,0,1,33.868,46.471Z" transform="translate(0 0)" fill="#e6f1ff"/>
          <g id="Grupo_151718" data-name="Grupo 151718" transform="translate(51.269 24.999)">
            <g id="Grupo_151717" data-name="Grupo 151717" transform="translate(0 0)">
              <path id="Trazado_204402" data-name="Trazado 204402" d="M.717,23.559a.716.716,0,0,1-.551-1.175,22.241,22.241,0,0,0,5.126-14.2A22.176,22.176,0,0,0,4.087.951.717.717,0,1,1,5.442.484a23.622,23.622,0,0,1,1.283,7.7A23.68,23.68,0,0,1,1.268,23.3.717.717,0,0,1,.717,23.559Z" fill="#e6f1ff"/>
            </g>
          </g>
          <g id="Grupo_151720" data-name="Grupo 151720" transform="translate(41.451 10.907)">
            <g id="Grupo_151719" data-name="Grupo 151719" transform="translate(0 0)">
              <path id="Trazado_204403" data-name="Trazado 204403" d="M8.612,6.3A.711.711,0,0,1,8.121,6.1,22.094,22.094,0,0,0,.473,1.391.717.717,0,1,1,.962.043,23.52,23.52,0,0,1,9.1,5.06.716.716,0,0,1,8.612,6.3Z" fill="#e6f1ff"/>
            </g>
          </g>
          <g id="Grupo_151722" data-name="Grupo 151722" transform="translate(27.999 9.538)">
            <g id="Grupo_151721" data-name="Grupo 151721" transform="translate(0 0)">
              <path id="Trazado_204404" data-name="Trazado 204404" d="M.716,2.13A.717.717,0,0,1,.542.718,23.727,23.727,0,0,1,6.347,0a.717.717,0,0,1,0,1.434,22.3,22.3,0,0,0-5.455.675A.75.75,0,0,1,.716,2.13Z" fill="#e6f1ff"/>
            </g>
          </g>
        </g>
        <path id="Trazado_218042" data-name="Trazado 218042" d="M1067.837,199.356q0-.556-.03-1.1l4.707-3.78a25.064,25.064,0,0,0-1.71-5.409l-6.079-.46a20.223,20.223,0,0,0-5.261-5.583l-.02-6.057a25.094,25.094,0,0,0-5.39-2.079l-4.154,4.472a20.188,20.188,0,0,0-7.471.585l-4.763-3.773a25.271,25.271,0,0,0-5.039,2.923l.9,6.005a20.143,20.143,0,0,0-4.243,6.193l-5.927,1.373a25.252,25.252,0,0,0-.875,5.713l5.22,3.018a19.986,19.986,0,0,0,2.233,7.376l-2.614,5.474a25.4,25.4,0,0,0,3.841,4.179l5.6-2.192a19.992,19.992,0,0,0,7.38,2.928l2.638,5.432c.315.011.63.019.947.019a25.4,25.4,0,0,0,4.628-.424l1.779-5.754a20.078,20.078,0,0,0,6.945-4.032l5.883,1.322a25.32,25.32,0,0,0,3.134-4.629l-3.409-5.009A20.091,20.091,0,0,0,1067.837,199.356ZM1047.5,208.22a8.474,8.474,0,1,1,8.473-8.474A8.474,8.474,0,0,1,1047.5,208.22Z" transform="translate(-696.945 -337.758)" fill="#e6f1ff"/>
      </g>
      <g id="Grupo_154676" data-name="Grupo 154676" transform="translate(1160.271 -102.001) rotate(67)" opacity="0.05">
        <g id="Grupo_154646-2" data-name="Grupo 154646" transform="translate(355.077 -228.331)">
          <path id="Trazado_204397-2" data-name="Trazado 204397" d="M1189.673,237.116a142.464,142.464,0,0,0,.894-15.87c0-2.83-.1-5.639-.259-8.43l-26.221-8.483a115.208,115.208,0,0,0-9.284-31.419l17.388-21.394a141.713,141.713,0,0,0-13.774-20.022l-26.226,8.557A116.439,116.439,0,0,0,1106.23,120.1l1.493-27.555a140.369,140.369,0,0,0-22.893-8.114l-16.195,22.347a116.687,116.687,0,0,0-32.737-.856L1020.9,82.748a140.038,140.038,0,0,0-23.293,6.884l.035,27.594a116.3,116.3,0,0,0-26.982,18.56l-25.729-9.927a141.916,141.916,0,0,0-14.816,19.264l16.237,22.289a115.175,115.175,0,0,0-10.946,30.879l-26.63,7.087a142.411,142.411,0,0,0-.894,15.868c0,2.832.094,5.641.259,8.432l26.22,8.483a115.194,115.194,0,0,0,9.286,31.417l-17.388,21.4A141.671,141.671,0,0,0,940.038,311l26.225-8.557a116.517,116.517,0,0,0,25.961,19.954l-1.493,27.553a140.367,140.367,0,0,0,22.893,8.116l16.194-22.349a116.605,116.605,0,0,0,32.738.858l14.993,23.174a140.183,140.183,0,0,0,23.292-6.884l-.033-27.594a116.345,116.345,0,0,0,26.981-18.56l25.727,9.927a141.745,141.745,0,0,0,14.819-19.264L1152.1,275.082a115.262,115.262,0,0,0,10.945-30.879Zm-140.446,39.568a55.437,55.437,0,1,1,55.436-55.438A55.437,55.437,0,0,1,1049.227,276.684Z" transform="translate(-907.114 -82.42)" fill="#e6f1ff"/>
          <g id="Grupo_151711-2" data-name="Grupo 151711" transform="translate(214.878 105.247)">
            <g id="Grupo_151710-2" data-name="Grupo 151710">
              <path id="Trazado_204398-2" data-name="Trazado 204398" d="M1014.6,230.478a2.074,2.074,0,0,1-1.593-3.4,93.774,93.774,0,0,0,16.525-90.332,2.072,2.072,0,0,1,3.918-1.351,97.925,97.925,0,0,1-17.256,94.334A2.065,2.065,0,0,1,1014.6,230.478Z" transform="translate(-1012.524 -133.999)" fill="#e6f1ff"/>
            </g>
          </g>
          <g id="Grupo_151713-2" data-name="Grupo 151713" transform="translate(173.904 46.438)">
            <g id="Grupo_151712-2" data-name="Grupo 151712">
              <path id="Trazado_204399-2" data-name="Trazado 204399" d="M1027.592,129.8a2.067,2.067,0,0,1-1.421-.563,93.041,93.041,0,0,0-32.233-19.86,2.072,2.072,0,1,1,1.413-3.9,97.19,97.19,0,0,1,33.661,20.739,2.071,2.071,0,0,1-1.419,3.579Z" transform="translate(-992.572 -105.361)" fill="#e6f1ff"/>
            </g>
          </g>
          <g id="Grupo_151715-2" data-name="Grupo 151715" transform="translate(117.767 40.726)">
            <g id="Grupo_151714-2" data-name="Grupo 151714">
              <path id="Trazado_204400-2" data-name="Trazado 204400" d="M967.306,109.63a2.072,2.072,0,0,1-.5-4.08,98.074,98.074,0,0,1,24-2.969,2.072,2.072,0,1,1,0,4.144,94.047,94.047,0,0,0-22.987,2.842A2.086,2.086,0,0,1,967.306,109.63Z" transform="translate(-965.235 -102.58)" fill="#e6f1ff"/>
            </g>
          </g>
        </g>
        <g id="Grupo_154647-2" data-name="Grupo 154647" transform="matrix(0.946, 0.326, -0.326, 0.946, 247.898, -85.331)">
          <path id="Trazado_204401-2" data-name="Trazado 204401" d="M195.176,106.921a98.574,98.574,0,0,0,.618-10.991c0-1.961-.064-3.906-.179-5.84l-18.162-5.875a79.8,79.8,0,0,0-6.432-21.762l12.044-14.818a98.162,98.162,0,0,0-9.541-13.868l-18.164,5.927a80.715,80.715,0,0,0-17.983-13.823l1.033-19.084a97.21,97.21,0,0,0-15.855-5.621L111.34,16.646a80.793,80.793,0,0,0-22.675-.6L78.279,0A97.237,97.237,0,0,0,62.147,4.766l.023,19.115A80.513,80.513,0,0,0,43.482,36.736L25.661,29.859A98.39,98.39,0,0,0,15.4,43.2L26.645,58.641a79.825,79.825,0,0,0-7.582,21.388L.616,84.939A99.053,99.053,0,0,0,0,95.93c0,1.961.064,3.908.177,5.84l18.164,5.875a79.783,79.783,0,0,0,6.43,21.762L12.728,144.226a98.166,98.166,0,0,0,9.539,13.868l18.166-5.926a80.686,80.686,0,0,0,17.981,13.822L57.38,185.073a97.094,97.094,0,0,0,15.858,5.621l11.216-15.478a80.878,80.878,0,0,0,22.675.593l10.385,16.051a97.224,97.224,0,0,0,16.133-4.766l-.025-19.115a80.48,80.48,0,0,0,18.689-12.855L170.133,162a98.223,98.223,0,0,0,10.262-13.344l-11.245-15.439a79.82,79.82,0,0,0,7.582-21.388ZM97.9,134.327a38.4,38.4,0,1,1,38.4-38.4A38.4,38.4,0,0,1,97.9,134.327Z" transform="translate(0 0)" fill="#e6f1ff"/>
          <g id="Grupo_151718-2" data-name="Grupo 151718" transform="translate(148.195 72.261)">
            <g id="Grupo_151717-2" data-name="Grupo 151717" transform="translate(0 0)">
              <path id="Trazado_204402-2" data-name="Trazado 204402" d="M2.071,68.1A2.071,2.071,0,0,1,.48,64.7,64.289,64.289,0,0,0,15.3,23.669,64.1,64.1,0,0,0,11.813,2.748,2.072,2.072,0,1,1,15.731,1.4,68.28,68.28,0,0,1,19.44,23.669,68.447,68.447,0,0,1,3.665,67.353,2.071,2.071,0,0,1,2.071,68.1Z" fill="#e6f1ff"/>
            </g>
          </g>
          <g id="Grupo_151720-2" data-name="Grupo 151720" transform="translate(119.815 31.527)">
            <g id="Grupo_151719-2" data-name="Grupo 151719" transform="translate(0 0)">
              <path id="Trazado_204403-2" data-name="Trazado 204403" d="M24.893,18.2a2.054,2.054,0,0,1-1.419-.563A63.864,63.864,0,0,0,1.367,4.02,2.072,2.072,0,1,1,2.78.125a67.986,67.986,0,0,1,23.534,14.5A2.071,2.071,0,0,1,24.893,18.2Z" fill="#e6f1ff"/>
            </g>
          </g>
          <g id="Grupo_151722-2" data-name="Grupo 151722" transform="translate(80.932 27.571)">
            <g id="Grupo_151721-2" data-name="Grupo 151721" transform="translate(0 0)">
              <path id="Trazado_204404-2" data-name="Trazado 204404" d="M2.07,6.157a2.072,2.072,0,0,1-.5-4.08A68.584,68.584,0,0,1,18.347,0a2.072,2.072,0,0,1,0,4.144A64.453,64.453,0,0,0,2.58,6.095,2.168,2.168,0,0,1,2.07,6.157Z" fill="#e6f1ff"/>
            </g>
          </g>
        </g>
        <path id="Trazado_218042-2" data-name="Trazado 218042" d="M1153.584,245.622q0-1.608-.088-3.193L1167.1,231.5a72.461,72.461,0,0,0-4.943-15.634l-17.572-1.329a58.452,58.452,0,0,0-15.209-16.139l-.057-17.509a72.537,72.537,0,0,0-15.58-6.011l-12.007,12.925a58.361,58.361,0,0,0-21.6,1.692l-13.768-10.906a73.04,73.04,0,0,0-14.566,8.448l2.6,17.359a58.215,58.215,0,0,0-12.264,17.9l-17.133,3.97a72.993,72.993,0,0,0-2.53,16.515l15.089,8.723a57.746,57.746,0,0,0,6.454,21.32l-7.555,15.823a73.424,73.424,0,0,0,11.1,12.079l16.181-6.337a57.786,57.786,0,0,0,21.331,8.465l7.625,15.7c.909.033,1.821.055,2.737.055a73.422,73.422,0,0,0,13.379-1.226l5.143-16.632a58.049,58.049,0,0,0,20.075-11.654l17.006,3.822a73.24,73.24,0,0,0,9.058-13.379l-9.855-14.478A58.08,58.08,0,0,0,1153.584,245.622Zm-58.791,25.622a24.494,24.494,0,1,1,24.493-24.495A24.495,24.495,0,0,1,1094.793,271.244Z" transform="translate(-432.078 -214.01)" fill="#e6f1ff"/>
      </g>
    </g>
  </g>
</svg>
