<svg xmlns="http://www.w3.org/2000/svg" width="33.707" height="33.987" viewBox="0 0 33.707 33.987">
  <g id="Grupo_156927" data-name="Grupo 156927" transform="translate(-45.868 -446.637)">
    <g id="Grupo_151759" data-name="Grupo 151759">
      <circle id="Elipse_5358" data-name="Elipse 5358" cx="2.186" cy="2.186" r="2.186" transform="translate(45.924 446.637)" fill="#ff7d00"/>
      <circle id="Elipse_5359" data-name="Elipse 5359" cx="2.186" cy="2.186" r="2.186" transform="translate(45.868 454.251)" fill="#ff7d00"/>
      <circle id="Elipse_5360" data-name="Elipse 5360" cx="2.186" cy="2.186" r="2.186" transform="translate(45.868 461.584)" fill="#ff7d00"/>
      <circle id="Elipse_5361" data-name="Elipse 5361" cx="2.186" cy="2.186" r="2.186" transform="translate(45.868 468.918)" fill="#ff7d00"/>
      <circle id="Elipse_5362" data-name="Elipse 5362" cx="2.186" cy="2.186" r="2.186" transform="translate(45.868 476.252)" fill="#ff7d00"/>
      <circle id="Elipse_5363" data-name="Elipse 5363" cx="2.186" cy="2.186" r="2.186" transform="translate(53.202 446.917)" fill="#ff7d00"/>
      <circle id="Elipse_5364" data-name="Elipse 5364" cx="2.186" cy="2.186" r="2.186" transform="translate(53.202 454.251)" fill="#ff7d00"/>
      <circle id="Elipse_5365" data-name="Elipse 5365" cx="2.186" cy="2.186" r="2.186" transform="translate(53.202 461.584)" fill="#ff7d00"/>
      <circle id="Elipse_5366" data-name="Elipse 5366" cx="2.186" cy="2.186" r="2.186" transform="translate(53.202 468.918)" fill="#ff7d00"/>
      <circle id="Elipse_5367" data-name="Elipse 5367" cx="2.186" cy="2.186" r="2.186" transform="translate(53.202 476.252)" fill="#ff7d00"/>
      <circle id="Elipse_5368" data-name="Elipse 5368" cx="2.186" cy="2.186" r="2.186" transform="translate(45.868 446.917)" fill="#ff7d00"/>
      <circle id="Elipse_5369" data-name="Elipse 5369" cx="2.186" cy="2.186" r="2.186" transform="translate(60.535 454.251)" fill="#ff7d00"/>
      <circle id="Elipse_5370" data-name="Elipse 5370" cx="2.186" cy="2.186" r="2.186" transform="translate(60.535 461.584)" fill="#ff7d00"/>
      <circle id="Elipse_5371" data-name="Elipse 5371" cx="2.186" cy="2.186" r="2.186" transform="translate(60.535 468.918)" fill="#ff7d00"/>
      <circle id="Elipse_5372" data-name="Elipse 5372" cx="2.186" cy="2.186" r="2.186" transform="translate(60.535 476.252)" fill="#ff7d00"/>
      <circle id="Elipse_5373" data-name="Elipse 5373" cx="2.186" cy="2.186" r="2.186" transform="translate(67.869 446.917)" fill="#ff7d00"/>
      <circle id="Elipse_5374" data-name="Elipse 5374" cx="2.186" cy="2.186" r="2.186" transform="translate(67.869 454.251)" fill="#ff7d00"/>
      <circle id="Elipse_5375" data-name="Elipse 5375" cx="2.186" cy="2.186" r="2.186" transform="translate(67.869 461.584)" fill="#ff7d00"/>
      <circle id="Elipse_5376" data-name="Elipse 5376" cx="2.186" cy="2.186" r="2.186" transform="translate(67.869 468.918)" fill="#ff7d00"/>
      <circle id="Elipse_5377" data-name="Elipse 5377" cx="2.186" cy="2.186" r="2.186" transform="translate(67.869 476.252)" fill="#ff7d00"/>
      <circle id="Elipse_5378" data-name="Elipse 5378" cx="2.186" cy="2.186" r="2.186" transform="translate(60.535 446.917)" fill="#ff7d00"/>
      <circle id="Elipse_5379" data-name="Elipse 5379" cx="2.186" cy="2.186" r="2.186" transform="translate(75.202 446.917)" fill="#ff7d00"/>
      <circle id="Elipse_5380" data-name="Elipse 5380" cx="2.186" cy="2.186" r="2.186" transform="translate(75.202 454.251)" fill="#ff7d00"/>
      <circle id="Elipse_5381" data-name="Elipse 5381" cx="2.186" cy="2.186" r="2.186" transform="translate(75.202 461.584)" fill="#ff7d00"/>
      <circle id="Elipse_5382" data-name="Elipse 5382" cx="2.186" cy="2.186" r="2.186" transform="translate(75.202 476.252)" fill="#ff7d00"/>
      <circle id="Elipse_5383" data-name="Elipse 5383" cx="2.186" cy="2.186" r="2.186" transform="translate(75.202 468.918)" fill="#ff7d00"/>
    </g>
  </g>
</svg>
