<svg id="Grupo_157181" data-name="Grupo 157181" xmlns="http://www.w3.org/2000/svg" xmlns:xlink="http://www.w3.org/1999/xlink" width="220.745" height="204.016" viewBox="0 0 220.745 204.016">
  <defs>
    <clipPath id="clip-path">
      <rect id="Rectángulo_46997" data-name="Rectángulo 46997" width="220.745" height="204.016" fill="none"/>
    </clipPath>
  </defs>
  <g id="Grupo_156939" data-name="Grupo 156939" transform="translate(0 0)" clip-path="url(#clip-path)">
    <path id="Trazado_222563" data-name="Trazado 222563" d="M50.274,78.558A39.279,39.279,0,1,0,50.274,0Z" transform="translate(130.289 -0.001)" fill="#002541"/>
    <path id="Trazado_222564" data-name="Trazado 222564" d="M78.615,78.558A39.279,39.279,0,0,1,78.615,0Z" transform="translate(101.947 -0.001)" fill="#004592"/>
    <path id="Trazado_222565" data-name="Trazado 222565" d="M79.268,61.564V22A40.191,40.191,0,0,0,39.086,61.564Z" transform="translate(101.294 57.022)" fill="#004592"/>
    <path id="Trazado_222566" data-name="Trazado 222566" d="M90.456,61.564A40.191,40.191,0,0,0,50.274,22V61.564Z" transform="translate(130.289 57.022)" fill="#002541"/>
    <path id="Trazado_222567" data-name="Trazado 222567" d="M86.331,66.822V59.983l16.841-9.622L86.331,40.736V33.9A11.071,11.071,0,0,0,75.258,22.825H39.087A11.071,11.071,0,0,0,28.018,33.9V66.822A11.071,11.071,0,0,0,39.087,77.895H75.258A11.071,11.071,0,0,0,86.331,66.822" transform="translate(72.611 59.152)" fill="#1490bd"/>
    <path id="Trazado_222568" data-name="Trazado 222568" d="M11.188,94.469a39.279,39.279,0,0,0,0-78.558Z" transform="translate(28.994 41.234)" fill="#f99c1d"/>
    <path id="Trazado_222569" data-name="Trazado 222569" d="M39.532,94.469a39.279,39.279,0,1,1,0-78.558Z" transform="translate(0.65 41.234)" fill="#fdc00e"/>
    <path id="Trazado_222570" data-name="Trazado 222570" d="M40.182,77.475V37.914A40.191,40.191,0,0,0,0,77.475Z" transform="translate(0 98.256)" fill="#fdc00e"/>
    <path id="Trazado_222571" data-name="Trazado 222571" d="M51.37,77.475A40.191,40.191,0,0,0,11.188,37.914V77.475Z" transform="translate(28.994 98.256)" fill="#f99c1d"/>
    <path id="Trazado_222572" data-name="Trazado 222572" d="M43.759,48.565h-7.93L34.6,25.834H44.987ZM34.7,56.977a4.426,4.426,0,0,1,1.3-3.4,5.334,5.334,0,0,1,3.775-1.214,5.152,5.152,0,0,1,3.71,1.214,4.485,4.485,0,0,1,1.261,3.4,4.375,4.375,0,0,1-1.307,3.376,5.19,5.19,0,0,1-3.663,1.214,5.373,5.373,0,0,1-3.728-1.214A4.311,4.311,0,0,1,34.7,56.977" transform="translate(89.679 66.95)" fill="#fff"/>
    <path id="Trazado_222573" data-name="Trazado 222573" d="M35.105,50.714V60.49L11.024,74.246,35.105,88v9.78A15.825,15.825,0,0,0,50.93,113.606h54.064a15.831,15.831,0,0,0,15.832-15.828V50.714a15.831,15.831,0,0,0-15.832-15.828H50.93A15.825,15.825,0,0,0,35.105,50.714" transform="translate(28.569 90.409)" fill="#96e0f4"/>
    <path id="Trazado_222574" data-name="Trazado 222574" d="M34.489,68.9V66.285a9.7,9.7,0,0,1,1.218-5.032,12.748,12.748,0,0,1,4.317-4,16.251,16.251,0,0,0,3.541-2.794A4.238,4.238,0,0,0,44.646,51.6a2.29,2.29,0,0,0-1.156-2.022,5.487,5.487,0,0,0-3.01-.747q-4.59,0-10.732,3.254l-4.227-8.271a31.478,31.478,0,0,1,15.81-4.317q6.777,0,10.642,2.981a9.7,9.7,0,0,1,3.865,8.117,11.589,11.589,0,0,1-1.72,6.371,17.527,17.527,0,0,1-5.488,5.093,21.1,21.1,0,0,0-4,3.024,3.4,3.4,0,0,0-.808,2.266V68.9ZM33.182,79.541a5.619,5.619,0,0,1,1.627-4.317A6.778,6.778,0,0,1,39.6,73.7a6.542,6.542,0,0,1,4.665,1.537,5.628,5.628,0,0,1,1.627,4.3A5.476,5.476,0,0,1,44.2,83.829a6.63,6.63,0,0,1-4.6,1.519,6.866,6.866,0,0,1-4.716-1.5,5.439,5.439,0,0,1-1.7-4.3" transform="translate(66.139 102.353)" fill="#002541"/>
  </g>
</svg>
