<svg id="Grupo_157180" data-name="Grupo 157180" xmlns="http://www.w3.org/2000/svg" xmlns:xlink="http://www.w3.org/1999/xlink" width="167.115" height="162.715" viewBox="0 0 167.115 162.715">
  <defs>
    <clipPath id="clip-path">
      <rect id="Rectángulo_46996" data-name="Rectángulo 46996" width="167.115" height="162.715" fill="none"/>
    </clipPath>
  </defs>
  <rect id="Rectángulo_46972" data-name="Rectángulo 46972" width="139.084" height="89.375" transform="translate(14.013 11.083)" fill="#1490bd"/>
  <rect id="Rectángulo_46973" data-name="Rectángulo 46973" width="69.6" height="89.375" transform="translate(83.497 11.083)" fill="#00609a"/>
  <rect id="Rectángulo_46974" data-name="Rectángulo 46974" width="113.561" height="66.763" transform="translate(26.776 22.389)" fill="#fff"/>
  <rect id="Rectángulo_46975" data-name="Rectángulo 46975" width="56.837" height="66.763" transform="translate(83.499 22.389)" fill="#96e0f4"/>
  <path id="Trazado_222558" data-name="Trazado 222558" d="M14.013,37.852,0,60.737H167.113L153.1,37.852Z" transform="translate(0 62.605)" fill="#96e0f4"/>
  <rect id="Rectángulo_46976" data-name="Rectángulo 46976" width="167.115" height="12.174" transform="translate(0 123.343)" fill="#1490bd"/>
  <rect id="Rectángulo_46977" data-name="Rectángulo 46977" width="77.546" height="89.152" transform="translate(44.725 0)" fill="#fdc00e"/>
  <rect id="Rectángulo_46978" data-name="Rectángulo 46978" width="83.613" height="12.174" transform="translate(83.499 123.343)" fill="#00609a"/>
  <path id="Trazado_222559" data-name="Trazado 222559" d="M31.462,37.852V60.737h83.613L101.06,37.852Z" transform="translate(52.038 62.605)" fill="#4fc2d9"/>
  <rect id="Rectángulo_46979" data-name="Rectángulo 46979" width="38.772" height="89.152" transform="translate(83.499 0)" fill="#f99c1d"/>
  <rect id="Rectángulo_46980" data-name="Rectángulo 46980" width="61.312" height="25.223" transform="translate(52.726 11.471)" fill="#fce5ac"/>
  <rect id="Rectángulo_46981" data-name="Rectángulo 46981" width="30.656" height="25.223" transform="translate(83.382 11.471)" fill="#fcdc97"/>
  <rect id="Rectángulo_46982" data-name="Rectángulo 46982" width="61.312" height="25.223" transform="translate(52.726 43.159)" fill="#fce5ac"/>
  <rect id="Rectángulo_46983" data-name="Rectángulo 46983" width="30.656" height="25.223" transform="translate(83.382 43.159)" fill="#fcdc97"/>
  <rect id="Rectángulo_46984" data-name="Rectángulo 46984" width="61.312" height="14.305" transform="translate(52.726 74.847)" fill="#fce5ac"/>
  <rect id="Rectángulo_46985" data-name="Rectángulo 46985" width="30.656" height="14.305" transform="translate(83.382 74.847)" fill="#fcdc97"/>
  <rect id="Rectángulo_46986" data-name="Rectángulo 46986" width="30.829" height="2.601" transform="translate(77.254 16.925)" fill="#fff"/>
  <rect id="Rectángulo_46987" data-name="Rectángulo 46987" width="30.829" height="2.601" transform="translate(77.254 22.782)" fill="#fff"/>
  <rect id="Rectángulo_46988" data-name="Rectángulo 46988" width="30.829" height="2.601" transform="translate(77.254 28.637)" fill="#fff"/>
  <rect id="Rectángulo_46989" data-name="Rectángulo 46989" width="30.829" height="2.601" transform="translate(77.254 48.517)" fill="#fff"/>
  <rect id="Rectángulo_46990" data-name="Rectángulo 46990" width="30.829" height="2.604" transform="translate(77.254 54.372)" fill="#fff"/>
  <rect id="Rectángulo_46991" data-name="Rectángulo 46991" width="30.829" height="2.601" transform="translate(77.254 60.229)" fill="#fff"/>
  <rect id="Rectángulo_46992" data-name="Rectángulo 46992" width="30.829" height="2.601" transform="translate(77.254 80.11)" fill="#fff"/>
  <rect id="Rectángulo_46993" data-name="Rectángulo 46993" width="14.316" height="14.313" transform="translate(57.981 16.925)" fill="#fff"/>
  <rect id="Rectángulo_46994" data-name="Rectángulo 46994" width="14.316" height="14.313" transform="translate(57.981 48.613)" fill="#fff"/>
  <rect id="Rectángulo_46995" data-name="Rectángulo 46995" width="14.316" height="8.745" transform="translate(57.981 80.304)" fill="#fff"/>
  <g id="Grupo_156937" data-name="Grupo 156937" transform="translate(0 0)">
    <g id="Grupo_156936" data-name="Grupo 156936" clip-path="url(#clip-path)">
      <path id="Trazado_222560" data-name="Trazado 222560" d="M9.6,72.591A1.868,1.868,0,0,1,8.191,69.5L27.539,47.211a1.868,1.868,0,0,1,2.821,2.45L11.013,71.946a1.857,1.857,0,0,1-1.409.645" transform="translate(12.791 77.021)" fill="#fdc00e"/>
      <path id="Trazado_222561" data-name="Trazado 222561" d="M5.021,76.408h0a5.03,5.03,0,0,1-.5-7.1l13.7-16.141a5.03,5.03,0,1,1,7.6,6.6l-13.7,16.141a5.03,5.03,0,0,1-7.1.5" transform="translate(5.438 85.075)" fill="#002541"/>
      <path id="Trazado_222562" data-name="Trazado 222562" d="M56.84,37.385A27.944,27.944,0,1,0,59.629,76.8,27.947,27.947,0,0,0,56.84,37.385m-30.2,34.8a18.136,18.136,0,1,1,25.584-1.81,18.139,18.139,0,0,1-25.584,1.81" transform="translate(17.496 50.517)" fill="#004592"/>
    </g>
  </g>
</svg>
