<svg xmlns="http://www.w3.org/2000/svg" width="111.34" height="161.197" viewBox="0 0 111.34 161.197">
  <g id="Grupo_157183" data-name="Grupo 157183" transform="translate(-5 -554.999)">
    <g id="Grupo_157193" data-name="Grupo 157193" transform="translate(5 555)">
      <path id="Trazado_222453" data-name="Trazado 222453" d="M19.14,87.366a42.774,42.774,0,0,0,0-85.547Z" transform="translate(36.53 3.471)" fill="#fcdc97"/>
      <path id="Trazado_222454" data-name="Trazado 222454" d="M47.208,87.366a42.774,42.774,0,0,1,0-85.547Z" transform="translate(8.463 3.471)" fill="#fce5ac"/>
      <rect id="Rect치ngulo_46915" data-name="Rect치ngulo 46915" width="15.276" height="31.186" transform="translate(40.394 80.469)" fill="#fce5ac"/>
      <rect id="Rect치ngulo_46916" data-name="Rect치ngulo 46916" width="15.276" height="31.186" transform="translate(55.67 80.469)" fill="#fcdc97"/>
      <path id="Trazado_222455" data-name="Trazado 222455" d="M65.372,0H29.044A24.609,24.609,0,0,0,4.434,24.61V48.064S25.094,35.936,31.01,27.335C44.831,42.471,89.981,48.064,89.981,48.064V24.61A24.609,24.609,0,0,0,65.372,0" transform="translate(8.463 -0.001)" fill="#002541"/>
      <path id="Trazado_222456" data-name="Trazado 222456" d="M55.67,97.114H0V64.936a31.359,31.359,0,0,1,31.36-31.36H55.67Z" transform="translate(0 64.082)" fill="#1490bd"/>
      <path id="Trazado_222457" data-name="Trazado 222457" d="M19.14,97.114H74.81V64.936a31.359,31.359,0,0,0-31.36-31.36H19.14Z" transform="translate(36.53 64.082)" fill="#00609a"/>
      <path id="Trazado_222458" data-name="Trazado 222458" d="M13.888,32.288,29.164,89.9V36.037Z" transform="translate(26.506 61.623)" fill="#fff"/>
      <path id="Trazado_222459" data-name="Trazado 222459" d="M19.14,36.036V89.9L34.415,32.287Z" transform="translate(36.529 61.622)" fill="#96e0f4"/>
      <path id="Trazado_222460" data-name="Trazado 222460" d="M23.826,36.2,16.514,70.824l7.638,11.614Z" transform="translate(31.518 69.085)" fill="#fdc00e"/>
      <path id="Trazado_222461" data-name="Trazado 222461" d="M19.028,36.2l8.449,33.888L19.354,82.438Z" transform="translate(36.316 69.085)" fill="#f99c1d"/>
      <path id="Trazado_222462" data-name="Trazado 222462" d="M26.592,48.826H21.47a5.062,5.062,0,0,1-5.064-5.064V38.64a5.064,5.064,0,0,1,5.064-5.064h5.122a5.066,5.066,0,0,1,5.064,5.064v5.122a5.064,5.064,0,0,1-5.064,5.064" transform="translate(31.312 64.082)" fill="#fdc00e"/>
      <path id="Trazado_222463" data-name="Trazado 222463" d="M21.588,33.576h-2.56v15.25h2.56a5.066,5.066,0,0,0,5.064-5.064V38.64a5.064,5.064,0,0,0-5.064-5.064" transform="translate(36.316 64.082)" fill="#f99c1d"/>
      <path id="Trazado_222464" data-name="Trazado 222464" d="M41.678,89.9,26.4,32.288,7.331,37.674Z" transform="translate(13.991 61.623)" fill="#004592"/>
      <path id="Trazado_222465" data-name="Trazado 222465" d="M19.14,89.9,34.415,32.288l19.072,5.387Z" transform="translate(36.529 61.623)" fill="#002541"/>
      <path id="Trazado_222466" data-name="Trazado 222466" d="M38.121,60.857H34.555V48.123a2.469,2.469,0,0,1,2.469-2.469h1.1Z" transform="translate(65.951 87.133)" fill="#fdc00e"/>
      <path id="Trazado_222468" data-name="Trazado 222468" d="M35.781,60.857h3.566V48.123a2.468,2.468,0,0,0-2.466-2.469h-1.1Z" transform="translate(68.291 87.133)" fill="#f99c1d"/>
    </g>
  </g>
</svg>
