<svg id="Grupo_157182" data-name="Grupo 157182" xmlns="http://www.w3.org/2000/svg" xmlns:xlink="http://www.w3.org/1999/xlink" width="135.247" height="163.534" viewBox="0 0 135.247 163.534">
  <defs>
    <clipPath id="clip-path">
      <rect id="Rectángulo_46914" data-name="Rectángulo 46914" width="135.245" height="163.534" fill="none"/>
    </clipPath>
  </defs>
  <path id="Trazado_222441" data-name="Trazado 222441" d="M7.816,0V153.5h92.452l20.911-20.911V0Z" transform="translate(14.069 0.001)" fill="#96e0f4"/>
  <path id="Trazado_222442" data-name="Trazado 222442" d="M40.834,47.351V68.262L61.742,47.351Z" transform="translate(73.503 85.235)" fill="#1490bd"/>
  <rect id="Rectángulo_46900" data-name="Rectángulo 46900" width="31.685" height="31.685" transform="translate(35.967 14.787)" fill="#f99c1d"/>
  <rect id="Rectángulo_46901" data-name="Rectángulo 46901" width="15.843" height="31.685" transform="translate(35.967 14.787)" fill="#fdc00e"/>
  <g id="Grupo_156902" data-name="Grupo 156902" transform="translate(0 0)">
    <g id="Grupo_156901" data-name="Grupo 156901" clip-path="url(#clip-path)">
      <path id="Trazado_222443" data-name="Trazado 222443" d="M18.5,22.377a7.749,7.749,0,1,0,0-15.5Z" transform="translate(33.306 12.383)" fill="#002541"/>
      <path id="Trazado_222444" data-name="Trazado 222444" d="M23.484,22.377a7.749,7.749,0,0,1,0-15.5Z" transform="translate(28.326 12.383)" fill="#004592"/>
      <path id="Trazado_222445" data-name="Trazado 222445" d="M23.6,20.251v-7.8a7.929,7.929,0,0,0-7.927,7.8Z" transform="translate(28.21 22.406)" fill="#004592"/>
      <path id="Trazado_222446" data-name="Trazado 222446" d="M26.43,20.251a7.929,7.929,0,0,0-7.927-7.8v7.8Z" transform="translate(33.306 22.406)" fill="#002541"/>
      <rect id="Rectángulo_46902" data-name="Rectángulo 46902" width="37.249" height="2.951" transform="translate(85.673 17.134)" fill="#1490bd"/>
      <rect id="Rectángulo_46903" data-name="Rectángulo 46903" width="37.249" height="2.951" transform="translate(85.673 24.878)" fill="#1490bd"/>
      <rect id="Rectángulo_46904" data-name="Rectángulo 46904" width="37.249" height="2.951" transform="translate(85.673 32.621)" fill="#1490bd"/>
      <rect id="Rectángulo_46905" data-name="Rectángulo 46905" width="37.249" height="2.951" transform="translate(85.673 40.366)" fill="#1490bd"/>
      <rect id="Rectángulo_46906" data-name="Rectángulo 46906" width="87.426" height="2.951" transform="translate(35.967 58.437)" fill="#1490bd"/>
      <rect id="Rectángulo_46907" data-name="Rectángulo 46907" width="87.426" height="2.951" transform="translate(35.967 66.179)" fill="#1490bd"/>
      <rect id="Rectángulo_46908" data-name="Rectángulo 46908" width="87.426" height="2.951" transform="translate(35.967 73.924)" fill="#1490bd"/>
      <rect id="Rectángulo_46909" data-name="Rectángulo 46909" width="87.426" height="2.951" transform="translate(35.967 81.666)" fill="#1490bd"/>
      <rect id="Rectángulo_46910" data-name="Rectángulo 46910" width="87.513" height="2.951" transform="translate(35.88 94.082)" fill="#1490bd"/>
      <rect id="Rectángulo_46911" data-name="Rectángulo 46911" width="87.513" height="2.951" transform="translate(35.88 101.827)" fill="#1490bd"/>
      <rect id="Rectángulo_46912" data-name="Rectángulo 46912" width="87.513" height="2.951" transform="translate(35.88 109.569)" fill="#1490bd"/>
      <rect id="Rectángulo_46913" data-name="Rectángulo 46913" width="87.513" height="2.951" transform="translate(35.88 117.314)" fill="#1490bd"/>
      <path id="Trazado_222447" data-name="Trazado 222447" d="M30.88,7.595A1.476,1.476,0,1,1,29.4,6.119,1.476,1.476,0,0,1,30.88,7.595" transform="translate(50.274 11.015)" fill="#004592"/>
      <path id="Trazado_222448" data-name="Trazado 222448" d="M30.88,10.361A1.476,1.476,0,1,1,29.4,8.885a1.476,1.476,0,0,1,1.476,1.476" transform="translate(50.274 15.994)" fill="#004592"/>
      <path id="Trazado_222449" data-name="Trazado 222449" d="M30.88,13.126A1.476,1.476,0,1,1,29.4,11.65a1.476,1.476,0,0,1,1.476,1.476" transform="translate(50.274 20.971)" fill="#004592"/>
      <path id="Trazado_222450" data-name="Trazado 222450" d="M30.88,15.892A1.476,1.476,0,1,1,29.4,14.416a1.476,1.476,0,0,1,1.476,1.476" transform="translate(50.274 25.95)" fill="#004592"/>
      <path id="Trazado_222451" data-name="Trazado 222451" d="M30.89,37.419l9.545,19.343,21.345,3.1L46.336,74.918l3.646,21.258L30.89,86.138,11.8,96.176l3.646-21.258L0,59.862l21.345-3.1Z" transform="translate(0 67.358)" fill="#fdc00e"/>
      <path id="Trazado_222452" data-name="Trazado 222452" d="M41.922,59.862l-21.345-3.1L11.032,37.42V86.138L30.123,96.176,26.477,74.918Z" transform="translate(19.858 67.358)" fill="#f99c1d"/>
    </g>
  </g>
</svg>
