<svg id="Grupo_157054" data-name="Grupo 157054" xmlns="http://www.w3.org/2000/svg" xmlns:xlink="http://www.w3.org/1999/xlink" width="347.435" height="293.847" viewBox="0 0 347.435 293.847">
  <defs>
    <clipPath id="clip-path">
      <rect id="Rectángulo_47089" data-name="Rectángulo 47089" width="347.435" height="293.847" fill="none"/>
    </clipPath>
  </defs>
  <g id="Grupo_157053" data-name="Grupo 157053" clip-path="url(#clip-path)">
    <path id="Trazado_223161" data-name="Trazado 223161" d="M174.741,87.4c8.051-.538,8.214-29.3,8.214-29.3l-1.249-1.742s-4.751-2.046-8.5,6.737c-2,4.689-5.855,9.862-6.317,16.041a10.982,10.982,0,0,0,1.747,6.288c1.177,2.022,2.591,2.211,6.109,1.975" transform="translate(135.248 45.509)" fill="#8bdae6"/>
    <path id="Trazado_223162" data-name="Trazado 223162" d="M173.409,120.46s-1.745,1.9-4.077,4.17c-2.156,2.1-2.824,2.71-4.827,4.664-1.17,1.141-.206,2.191,2.022,2.1a40,40,0,0,0,8.877-1.921,44.944,44.944,0,0,0,6.645-3.464,4.4,4.4,0,0,0,1.974-2.495v-3.509Z" transform="translate(132.932 97.272)" fill="#723f3f"/>
    <path id="Trazado_223163" data-name="Trazado 223163" d="M184.834,123.154s-.4,3.6-.654,8.115.391,8.508,1.773,9,5.314.435,7.552-5.839a24.943,24.943,0,0,0,.9-12.357Z" transform="translate(149.243 98.948)" fill="#723f3f"/>
    <path id="Trazado_223164" data-name="Trazado 223164" d="M201.906,98.018c.826-12.873-6.272-19.641-6.272-19.641.565-4.338-19.559,1.733-19.559,1.733s-4.307,23.323-6.129,35.6c-2.069,13.957-1.164,38.874-1.164,38.874s.263,3.034,5.461,3.013c3.99-.014,7.278-3.261,7.278-3.261l.415-29.088,4.621-22.943s.791,21.41,3.721,27.587c5.357,11.3,5.357,31.215,5.357,31.215s6.748,2.408,11.37.1,3.713-4.892,3.713-4.892-1.168-15.444-7.108-28.813c-.5-10.15-2.082-23.573-1.7-29.486" transform="translate(136.645 62.261)" fill="#5e2e2e"/>
    <path id="Trazado_223165" data-name="Trazado 223165" d="M171.39,102.945a21,21,0,0,0,16.563,5.993,23.14,23.14,0,0,0,11.08-4.62c-.608-4.3-1.039-8.716-.717-11.2,1.146-8.808,2.861-23.045,2.549-25.375-.52-3.9-9.355-8.12-9.355-8.12s-6.27-4.852-12.764-2.3c0,0-6.945,5.611-7.773,13.537-.411,3.936.791,17.2.827,25.889.005,1.468-.168,3.741-.411,6.194" transform="translate(138.511 45.861)" fill="#c8eef3"/>
    <path id="Trazado_223166" data-name="Trazado 223166" d="M176.639,59.488a16.881,16.881,0,0,0-2.468,5.432,14.686,14.686,0,0,0,1.481,9.726,73.748,73.748,0,0,1,5.354-5.542,46.461,46.461,0,0,0,4.881-5.044Z" transform="translate(140.944 48.217)" fill="#8bdae6"/>
    <path id="Trazado_223167" data-name="Trazado 223167" d="M175.993,59.983a26.386,26.386,0,0,0-1.392,6.2,12.165,12.165,0,0,0,.7,5.45s5.595-5.287,7.443-7.11c1.03-1.014-1.941-1.935-4.1-2.881a9.6,9.6,0,0,1-2.647-1.655" transform="translate(141.481 48.618)" fill="#f3e0fc"/>
    <path id="Trazado_223168" data-name="Trazado 223168" d="M176.785,59.482l-.418,6.107a16.388,16.388,0,0,0,2.866,2.953c2.205-.688,7.327-5.441,7.327-5.441l-1.706-9.482Z" transform="translate(142.952 43.46)" fill="#ffaa94"/>
    <path id="Trazado_223169" data-name="Trazado 223169" d="M188.353,49.216c-2.3-2.928-8.9-5.394-13.2.972-4.512,6.675-.25,17.588,3.7,16.952,2.212-.357,7.193-2.374,9.377-5.939,2.457-4.01,1.9-9.712.119-11.986" transform="translate(140.399 37.443)" fill="#ffd0ca"/>
    <path id="Trazado_223170" data-name="Trazado 223170" d="M178.431,57.778l.181,5.645-4.023,1.642s-.094-5.982,3.842-7.287" transform="translate(141.511 46.831)" fill="#fff"/>
    <path id="Trazado_223171" data-name="Trazado 223171" d="M185.6,57a7.915,7.915,0,0,1-3.616,4.5c-1.479.835-5.171,2.549-5.171,2.549l1.514,4.541s9.174-4.423,10.546-7.09c.552-1.077-.983-3.625-3.273-4.5" transform="translate(143.312 46.204)" fill="#fff"/>
    <path id="Trazado_223172" data-name="Trazado 223172" d="M173.7,69.556l-.511,7.688v.007l4.883,2.823.511-7.695Z" transform="translate(140.38 56.377)" fill="#fff"/>
    <path id="Trazado_223173" data-name="Trazado 223173" d="M173.678,69.952l-.056.864,4.15,2.4.056-.864Z" transform="translate(140.727 56.698)" fill="#c33856"/>
    <path id="Trazado_223174" data-name="Trazado 223174" d="M174.62,71.321l-.362,5.048,2.511,1.448.362-5.046Z" transform="translate(141.243 57.808)" fill="#dfdfea"/>
    <path id="Trazado_223175" data-name="Trazado 223175" d="M180.353,70.018c2.04.865,3.034,1.2,4.926,1.968l1.894.769v5.7l-8.738-2.3Z" transform="translate(144.629 56.752)" fill="#ffd0ca"/>
    <path id="Trazado_223176" data-name="Trazado 223176" d="M172.4,67.371a51.607,51.607,0,0,1,10.266,2.073,20.651,20.651,0,0,1,7,3.63,15.772,15.772,0,0,1-1.926,4.463c-1.05,1.24-15.958,2.145-18.458.565S167,68.5,172.4,67.371" transform="translate(135.957 54.607)" fill="#8bdae6"/>
    <path id="Trazado_223177" data-name="Trazado 223177" d="M179.24,69.519a3.273,3.273,0,0,0-1.977,3.1,14.112,14.112,0,0,0,.252,3.942l3.245-.221s.815-2.937,1.2-4.018a2.873,2.873,0,0,1,.717-1.311Z" transform="translate(143.656 56.348)" fill="#fff"/>
    <path id="Trazado_223178" data-name="Trazado 223178" d="M195.731,82.338s-14.158-10.125-18.167-12.366a31.426,31.426,0,0,0-5.872-2.765,5.886,5.886,0,0,0-1.383,3.7c-.065,2.334,1.952,5.571,4.738,8.39,2.839,2.872,10.523,8.537,14.345,9.053,3.217.435,6.339-6.015,6.339-6.015" transform="translate(138.041 54.474)" fill="#8bdae6"/>
    <path id="Trazado_223179" data-name="Trazado 223179" d="M182.22,93.3c2.964.331,6.9-.918,9.534-5.8a29.754,29.754,0,0,0,3.773-12.953c.556-7.744.465-11.761-3.268-13.3-2.04.549-5.415,3.78-6.98,10.248-.992,4.1-4.984,16.13-4.984,16.13-.945,2.661-1.193,5.328,1.925,5.676" transform="translate(145.626 49.646)" fill="#8bdae6"/>
    <path id="Trazado_223180" data-name="Trazado 223180" d="M176.847,69.142a13.3,13.3,0,0,0-3.091.625,5.359,5.359,0,0,0-2.962,2.768s-1.573-2.144-.232-4.161A3.217,3.217,0,0,1,174,67a7.283,7.283,0,0,1,2.844,2.14" transform="translate(137.808 54.234)" fill="#fff"/>
    <path id="Trazado_223181" data-name="Trazado 223181" d="M190.821,66.286a3.228,3.228,0,0,1-1.195-2.77,4.238,4.238,0,0,0,.549-4.38c-.549-1.023-2.69.438-2.69.438s-3.382-4.224-5.975-5.245c-1.847,2.616-3.348,4.045-5.31,4.573s-4.608-1.372-4.608-1.372,3.036.025,3.034-.876a33.967,33.967,0,0,1-4.606-3.183s2.839.317,4.764-4.4c.976-2.392,2.908-5.846,9.359-5.394,3.482.244,6.1,4.51,6.1,4.51S191.7,46.944,194,49.865c2.442,3.114,1.313,7.957-.534,10.584a19.8,19.8,0,0,0-2.64,5.837" transform="translate(137.808 35.37)" fill="#5e2e2e"/>
    <path id="Trazado_223182" data-name="Trazado 223182" d="M116.017,31.034s-2.256,4.394-4.295,9.652a35.8,35.8,0,0,0-2.035,7.5,58.431,58.431,0,0,0-.7,6.35l4.238,2.877a58.415,58.415,0,0,0,4.09-11.249c.931-3.5,6.263-11.426,6.263-11.426Z" transform="translate(88.335 25.154)" fill="#f9b4af"/>
    <path id="Trazado_223183" data-name="Trazado 223183" d="M111.187,37.809a11.917,11.917,0,0,0,5.415,4.418c3.485,1.3,5.716,2.12,5.716,2.12a81.855,81.855,0,0,0,6.226-13.673c1.85-5.039-4.729-7.794-8.318-4.878-4.7,3.826-9.04,12.013-9.04,12.013" transform="translate(90.121 19.944)" fill="#f79826"/>
    <path id="Trazado_223184" data-name="Trazado 223184" d="M115.3,91.087c2.294-2.236,4.01-4.1,4.01-4.1l10.441-.444v3.453a4.328,4.328,0,0,1-1.941,2.453,44.373,44.373,0,0,1-6.538,3.409,39.416,39.416,0,0,1-8.734,1.888c-2.193.085-3.139-.947-1.988-2.069,1.97-1.923,2.627-2.518,4.749-4.588" transform="translate(89.208 70.145)" fill="#723f3f"/>
    <path id="Trazado_223185" data-name="Trazado 223185" d="M126.657,90.446l9.418-1.061a24.54,24.54,0,0,1-.889,12.16c-2.2,6.172-6.071,6.234-7.429,5.745s-1.988-4.414-1.744-8.861.643-7.983.643-7.983" transform="translate(102.097 72.45)" fill="#723f3f"/>
    <path id="Trazado_223186" data-name="Trazado 223186" d="M124.976,44.676c-4.336,1.289-8.339,2.848-8.339,2.848s-2.745,20.267-3.587,32.454c-.956,13.849,2.162,41.157,2.162,41.157s.491,2.957,5.587,2.537c3.913-.322,6.889-3.759,6.889-3.759l-2.145-31.5,4.477-19.528c-.659-11.1-4.161-13.123-5.044-24.207" transform="translate(91.483 36.212)" fill="#5e2e2e"/>
    <path id="Trazado_223187" data-name="Trazado 223187" d="M144.255,123.072s-2.671-20.164-8.515-33.317c-.489-9.987,3.239-21.435.965-31.335-2.839-12.37-7.291-12.029-7.291-12.029.272-2.078-4.289-1.725-9.036-.818.009,8.285.062,16.57.007,24.853l.1-.489s.672,16.458,3.216,25.422c3.359,11.835,5.716,32.43,5.716,32.43s6.639,2.37,11.187.1,3.654-4.812,3.654-4.812" transform="translate(97.571 36.356)" fill="#5e2e2e"/>
    <path id="Trazado_223188" data-name="Trazado 223188" d="M122.5,27.086a14.054,14.054,0,0,1,3.072-1.421l8.743,2.024s8.452,2.58,10.452,9.16a57.848,57.848,0,0,1-.429,9.042c-.306.19-2.292-.129-2.437.293-2.658,7.736-1.124,17.781-.569,25.558-13.123,5.756-22.981,2.857-26.615-.855,0-13.646-4.309-32.8,7.782-43.8" transform="translate(92.378 20.802)" fill="#fab234"/>
    <path id="Trazado_223189" data-name="Trazado 223189" d="M121.092,26.778s-.391.69-2.028,4.62-2.488,6.225.556,7.434,5.844-1.89,9.2-5.14,3.672-5.52,3.672-5.52a16.444,16.444,0,0,0-5.2-2.432c-2.881-.708-6.2,1.037-6.2,1.037" transform="translate(95.307 20.727)" fill="#f79826"/>
    <path id="Trazado_223190" data-name="Trazado 223190" d="M121.451,28.46l7.939-5.767,1.333,7.407a36.422,36.422,0,0,1-3.646,5.1c-1.492,1.68-6.165,5.319-8.042,4.036-2.187-1.5,2.008-8.392,2.008-8.392Z" transform="translate(95.969 18.394)" fill="#f9b4af"/>
    <path id="Trazado_223191" data-name="Trazado 223191" d="M131.651,18.361c1.754,2.238,2.3,7.845-.118,11.792-2.147,3.507-7.048,5.491-9.227,5.843-3.887.626-8.08-10.11-3.643-16.679,4.231-6.263,10.727-3.837,12.987-.956" transform="translate(94.637 12.473)" fill="#ffd0ca"/>
    <path id="Trazado_223192" data-name="Trazado 223192" d="M128.675,14.422a7.876,7.876,0,0,1,5.113,3.395c3.961.844,3.556,6.547,2.573,8.7-1.9,4.162-4.068,4.448-4.068,4.448s.567-2.27.065-3.259c-.427-.846-1.776-.99-2.231.511a3.473,3.473,0,0,1-1.1.109l.454-3a5.374,5.374,0,0,1-4.879-.34,4.915,4.915,0,0,0-5.582.208,5.893,5.893,0,0,1-.393-3.06c-1.543-1.079-3.005-2.048-2.783-2.781a4.469,4.469,0,0,0,3.686-.348,8.769,8.769,0,0,1-2.012-2.3c2.707.348,8.549-2.716,11.157-2.29" transform="translate(93.878 11.657)" fill="#5e2e2e"/>
    <path id="Trazado_223193" data-name="Trazado 223193" d="M108.084,43.507a5.5,5.5,0,0,0,.3,4.065c.713,1.506,2.589,3.646,4.552,3.534,2.245-.129,1.048-2.022-.741-3.8s-4.108-3.795-4.108-3.795" transform="translate(87.4 35.264)" fill="#f9b4af"/>
    <path id="Trazado_223194" data-name="Trazado 223194" d="M29.457,123.524l-14.215,8.207V119.011l14.215-8.205Z" transform="translate(12.354 89.812)" fill="#15616d"/>
    <path id="Trazado_223195" data-name="Trazado 223195" d="M13.7,114.444v12.719l2.8,1.619V116.061Z" transform="translate(11.1 92.761)" fill="#d6afdb"/>
    <path id="Trazado_223196" data-name="Trazado 223196" d="M82.719,93.055,68.5,101.262V88.541l14.215-8.205Z" transform="translate(55.526 65.115)" fill="#15616d"/>
    <path id="Trazado_223197" data-name="Trazado 223197" d="M66.958,83.975V96.694l2.8,1.619V85.592Z" transform="translate(54.272 68.065)" fill="#d6afdb"/>
    <path id="Trazado_223198" data-name="Trazado 223198" d="M146.706,15.163l-7.088-4.032-.007.036a3.353,3.353,0,0,0-3.422.253L5.3,86.989C2.386,88.673,0,93.232,0,97.119V201.658c0,2.216.791,3.722,2,4.324L1.963,206l6.943,3.934-.44-6.1L136.189,130.1c2.917-1.684,5.3-6.243,5.3-10.13V20.539Z" transform="translate(0 8.761)" fill="#15616d"/>
    <path id="Trazado_223199" data-name="Trazado 223199" d="M140.151,132.358,9.263,207.926c-2.915,1.682-5.3-.121-5.3-4.009V99.379c0-3.887,2.386-8.446,5.3-10.13L140.151,13.681c2.917-1.682,5.3.119,5.3,4.009V122.228c0,3.887-2.384,8.446-5.3,10.13" transform="translate(3.211 10.578)" fill="#f7e7cf"/>
    <path id="Trazado_223200" data-name="Trazado 223200" d="M138.816,117.672,6.494,194.067V92.851l132.321-76.4Z" transform="translate(5.264 13.338)" fill="#8bdae6"/>
    <path id="Trazado_223201" data-name="Trazado 223201" d="M59.07,95.407l-16.849,9.728c-.871.5-1.584-.036-1.584-1.2a3.813,3.813,0,0,1,1.584-3.029L59.07,91.179c.873-.5,1.586.036,1.586,1.2a3.809,3.809,0,0,1-1.586,3.029" transform="translate(32.938 73.751)" fill="#fff"/>
    <path id="Trazado_223202" data-name="Trazado 223202" d="M131.975,20.663,9.036,91.612v91.559l122.939-70.95Z" transform="translate(7.324 16.748)" fill="#c8eef3"/>
    <path id="Trazado_223203" data-name="Trazado 223203" d="M248.626,139.306l-8.68-.384v.795L148.732,87.054c-3.9-2.251-9.849-2.5-13.224-.549L15.518,155.782v-1.423H6.84v8.678h.013c.107,1.434,1.173,2.919,3.2,4.085l96.668,55.813c3.9,2.249,9.848,2.495,13.224.547L246.349,150.5a4.151,4.151,0,0,0,2.278-2.9Z" transform="translate(5.544 69.051)" fill="#15616d"/>
    <path id="Trazado_223204" data-name="Trazado 223204" d="M246.357,146.092l-126.41,72.983c-3.375,1.948-9.324,1.7-13.222-.549l-96.67-55.812c-3.9-2.251-4.324-5.685-.949-7.635L135.516,82.1c3.375-1.948,9.324-1.7,13.222.549l96.67,55.812c3.9,2.25,4.324,5.687.949,7.635" transform="translate(5.536 65.477)" fill="#f7e7cf"/>
    <path id="Trazado_223205" data-name="Trazado 223205" d="M201.677,120.817,76.4,193.144l-63.568-36.7L138.111,84.118Z" transform="translate(10.403 68.18)" fill="#e1deda"/>
    <path id="Trazado_223206" data-name="Trazado 223206" d="M143.714,134.22,99.387,159.814,75.67,146.121,120,120.527Z" transform="translate(61.334 97.692)" fill="#aac6ca"/>
    <path id="Trazado_223207" data-name="Trazado 223207" d="M15.861,126.245l8.745-5.048,6.288,3.63-8.745,5.048Z" transform="translate(12.856 98.234)" fill="#c8eef3"/>
    <path id="Trazado_223208" data-name="Trazado 223208" d="M20.909,129.159l8.743-5.048,6.29,3.63L27.2,132.789Z" transform="translate(16.948 100.597)" fill="#c8eef3"/>
    <path id="Trazado_223209" data-name="Trazado 223209" d="M25.958,132.865l11.8-6.815,6.288,3.63-11.8,6.815Z" transform="translate(21.04 102.168)" fill="#c8eef3"/>
    <path id="Trazado_223210" data-name="Trazado 223210" d="M88.4,95.237l5.7-3.293,15.428,8.908-5.7,3.293Z" transform="translate(71.652 74.524)" fill="#c8eef3"/>
    <path id="Trazado_223211" data-name="Trazado 223211" d="M31.006,135.78l11.8-6.815L49.1,132.6l-11.8,6.815Z" transform="translate(25.132 104.531)" fill="#c8eef3"/>
    <path id="Trazado_223212" data-name="Trazado 223212" d="M36.054,139.677l15.605-9.009,6.288,3.63-15.605,9.009Z" transform="translate(29.223 105.911)" fill="#c8eef3"/>
    <path id="Trazado_223213" data-name="Trazado 223213" d="M88.882,111.165l23.3-13.45,6.288,3.63L95.17,114.8Z" transform="translate(72.042 79.201)" fill="#c8eef3"/>
    <path id="Trazado_223214" data-name="Trazado 223214" d="M41.1,140.818l8.743-5.048,6.29,3.63-8.745,5.048Z" transform="translate(33.315 110.047)" fill="#c8eef3"/>
    <path id="Trazado_223215" data-name="Trazado 223215" d="M21.9,122.758l8.745-5.048,6.288,3.63-8.745,5.048Z" transform="translate(17.751 95.408)" fill="#c8eef3"/>
    <path id="Trazado_223216" data-name="Trazado 223216" d="M26.948,125.673l8.745-5.048,6.288,3.63L33.236,129.3Z" transform="translate(21.843 97.771)" fill="#c8eef3"/>
    <path id="Trazado_223217" data-name="Trazado 223217" d="M28,119.235l8.745-5.048,6.288,3.63-8.745,5.048Z" transform="translate(22.696 92.553)" fill="#c8eef3"/>
    <path id="Trazado_223218" data-name="Trazado 223218" d="M33.05,122.15l8.745-5.048,6.288,3.63-8.745,5.048Z" transform="translate(26.788 94.916)" fill="#c8eef3"/>
    <path id="Trazado_223219" data-name="Trazado 223219" d="M34.041,115.748l8.745-5.048,6.288,3.63-8.745,5.048Z" transform="translate(27.591 89.727)" fill="#c8eef3"/>
    <path id="Trazado_223220" data-name="Trazado 223220" d="M39.089,118.663l8.743-5.048,6.29,3.63-8.745,5.048Z" transform="translate(31.683 92.089)" fill="#c8eef3"/>
    <path id="Trazado_223221" data-name="Trazado 223221" d="M40.126,112.235l8.743-5.048,6.29,3.63-8.745,5.048Z" transform="translate(32.523 86.879)" fill="#c8eef3"/>
    <path id="Trazado_223222" data-name="Trazado 223222" d="M45.174,115.15l8.743-5.048,6.29,3.63-8.745,5.048Z" transform="translate(36.615 89.242)" fill="#c8eef3"/>
    <path id="Trazado_223223" data-name="Trazado 223223" d="M46.165,108.748l8.743-5.048,6.29,3.63-8.745,5.048Z" transform="translate(37.418 84.053)" fill="#c8eef3"/>
    <path id="Trazado_223224" data-name="Trazado 223224" d="M51.213,111.663l8.743-5.048,6.29,3.63L57.5,115.293Z" transform="translate(41.51 86.416)" fill="#c8eef3"/>
    <path id="Trazado_223225" data-name="Trazado 223225" d="M52.266,105.226l8.745-5.048,6.288,3.63-8.745,5.048Z" transform="translate(42.364 81.198)" fill="#c8eef3"/>
    <path id="Trazado_223226" data-name="Trazado 223226" d="M57.315,108.14l8.743-5.048,6.29,3.63L63.6,111.771Z" transform="translate(46.456 83.56)" fill="#c8eef3"/>
    <path id="Trazado_223227" data-name="Trazado 223227" d="M33.843,127.521l8.743-5.048,6.29,3.63-8.745,5.048Z" transform="translate(27.431 99.269)" fill="#c8eef3"/>
    <path id="Trazado_223228" data-name="Trazado 223228" d="M38.891,130.436l8.745-5.048,6.288,3.63-8.745,5.048Z" transform="translate(31.523 101.632)" fill="#c8eef3"/>
    <path id="Trazado_223229" data-name="Trazado 223229" d="M39.944,124l8.745-5.048,6.288,3.63-8.745,5.048Z" transform="translate(32.376 96.414)" fill="#c8eef3"/>
    <path id="Trazado_223230" data-name="Trazado 223230" d="M44.993,126.913l8.745-5.048,6.288,3.63-8.745,5.048Z" transform="translate(36.468 98.777)" fill="#c8eef3"/>
    <path id="Trazado_223231" data-name="Trazado 223231" d="M45.983,120.512l8.745-5.048,6.288,3.63-8.745,5.048Z" transform="translate(37.271 93.588)" fill="#c8eef3"/>
    <path id="Trazado_223232" data-name="Trazado 223232" d="M51.032,123.427l8.743-5.048,6.29,3.63-8.745,5.048Z" transform="translate(41.363 95.951)" fill="#c8eef3"/>
    <path id="Trazado_223233" data-name="Trazado 223233" d="M52.068,117l8.743-5.048,6.29,3.63-8.745,5.048Z" transform="translate(42.203 90.74)" fill="#c8eef3"/>
    <path id="Trazado_223234" data-name="Trazado 223234" d="M57.117,119.914l8.743-5.048,6.29,3.63L63.4,123.544Z" transform="translate(46.295 93.103)" fill="#c8eef3"/>
    <path id="Trazado_223235" data-name="Trazado 223235" d="M58.108,113.512l8.743-5.048,6.29,3.63L64.4,117.142Z" transform="translate(47.098 87.914)" fill="#c8eef3"/>
    <path id="Trazado_223236" data-name="Trazado 223236" d="M63.156,116.427l8.745-5.048,6.288,3.63-8.745,5.048Z" transform="translate(51.19 90.277)" fill="#c8eef3"/>
    <path id="Trazado_223237" data-name="Trazado 223237" d="M64.209,109.989l8.743-5.048,6.29,3.63L70.5,113.619Z" transform="translate(52.044 85.059)" fill="#c8eef3"/>
    <path id="Trazado_223238" data-name="Trazado 223238" d="M69.257,112.9,78,107.856l6.288,3.63-8.745,5.048Z" transform="translate(56.136 87.422)" fill="#c8eef3"/>
    <path id="Trazado_223239" data-name="Trazado 223239" d="M70.269,106.491l8.743-5.048,6.29,3.63-8.745,5.048Z" transform="translate(56.956 82.223)" fill="#c8eef3"/>
    <path id="Trazado_223240" data-name="Trazado 223240" d="M75.317,109.406l8.745-5.048,6.288,3.63-8.745,5.048Z" transform="translate(61.047 84.586)" fill="#c8eef3"/>
    <path id="Trazado_223241" data-name="Trazado 223241" d="M46.341,131.964l8.745-5.048,6.288,3.63-8.745,5.048Z" transform="translate(37.561 102.871)" fill="#c8eef3"/>
    <path id="Trazado_223242" data-name="Trazado 223242" d="M52.443,128.442l8.745-5.048,6.288,3.63-8.745,5.048Z" transform="translate(42.507 100.015)" fill="#c8eef3"/>
    <path id="Trazado_223243" data-name="Trazado 223243" d="M58.482,124.955l8.743-5.048,6.29,3.63-8.745,5.048Z" transform="translate(47.402 97.189)" fill="#c8eef3"/>
    <path id="Trazado_223244" data-name="Trazado 223244" d="M64.567,121.442l8.743-5.048,6.29,3.63-8.745,5.048Z" transform="translate(52.334 94.342)" fill="#c8eef3"/>
    <path id="Trazado_223245" data-name="Trazado 223245" d="M70.606,117.955l8.743-5.048,6.29,3.63-8.745,5.048Z" transform="translate(57.229 91.515)" fill="#c8eef3"/>
    <path id="Trazado_223246" data-name="Trazado 223246" d="M76.708,114.432l8.745-5.048,6.288,3.63L83,118.062Z" transform="translate(62.174 88.66)" fill="#c8eef3"/>
    <path id="Trazado_223247" data-name="Trazado 223247" d="M82.767,110.934l8.743-5.048,6.29,3.63-8.745,5.048Z" transform="translate(67.086 85.824)" fill="#c8eef3"/>
    <path id="Trazado_223248" data-name="Trazado 223248" d="M76.37,102.968l8.745-5.048,6.288,3.63L82.658,106.6Z" transform="translate(61.901 79.368)" fill="#c8eef3"/>
    <path id="Trazado_223249" data-name="Trazado 223249" d="M81.419,105.883l8.745-5.048,6.288,3.63-8.745,5.048Z" transform="translate(65.993 81.731)" fill="#c8eef3"/>
    <path id="Trazado_223250" data-name="Trazado 223250" d="M82.41,99.481l8.743-5.048,6.29,3.63L88.7,103.111Z" transform="translate(66.796 76.542)" fill="#c8eef3"/>
    <path id="Trazado_223251" data-name="Trazado 223251" d="M87.458,102.4,96.2,97.348l6.29,3.63-8.745,5.048Z" transform="translate(70.888 78.904)" fill="#c8eef3"/>
    <path id="Trazado_223252" data-name="Trazado 223252" d="M58.306,101.739l8.745-5.048,6.288,3.63-8.745,5.048Z" transform="translate(47.259 78.372)" fill="#c8eef3"/>
    <path id="Trazado_223253" data-name="Trazado 223253" d="M63.354,104.654,72.1,99.606l6.29,3.63-8.745,5.048Z" transform="translate(51.351 80.734)" fill="#c8eef3"/>
    <path id="Trazado_223254" data-name="Trazado 223254" d="M64.484,98.172l8.745-5.048,6.288,3.63L70.772,101.8Z" transform="translate(52.266 75.481)" fill="#c8eef3"/>
    <path id="Trazado_223255" data-name="Trazado 223255" d="M69.532,101.087l8.743-5.048,6.29,3.63-8.745,5.048Z" transform="translate(56.358 77.843)" fill="#c8eef3"/>
    <path id="Trazado_223256" data-name="Trazado 223256" d="M70.523,94.685l8.745-5.048,6.288,3.63-8.745,5.048Z" transform="translate(57.161 72.655)" fill="#c8eef3"/>
    <path id="Trazado_223257" data-name="Trazado 223257" d="M75.571,97.6l8.745-5.048,6.288,3.63-8.745,5.048Z" transform="translate(61.253 75.017)" fill="#c8eef3"/>
    <path id="Trazado_223258" data-name="Trazado 223258" d="M76.624,91.163l8.743-5.048,6.29,3.63-8.745,5.048Z" transform="translate(62.107 69.799)" fill="#c8eef3"/>
    <path id="Trazado_223259" data-name="Trazado 223259" d="M81.673,94.077l8.743-5.048,6.29,3.63-8.745,5.048Z" transform="translate(66.199 72.162)" fill="#c8eef3"/>
    <path id="Trazado_223260" data-name="Trazado 223260" d="M47.142,137.331l8.745-5.048,6.288,3.63-8.745,5.048Z" transform="translate(38.21 107.221)" fill="#c8eef3"/>
    <path id="Trazado_223261" data-name="Trazado 223261" d="M53.243,133.809l8.745-5.048,6.288,3.63-8.745,5.048Z" transform="translate(43.156 104.365)" fill="#c8eef3"/>
    <path id="Trazado_223262" data-name="Trazado 223262" d="M84.9,115.534l8.745-5.048,6.288,3.63-8.745,5.048Z" transform="translate(68.812 89.553)" fill="#c8eef3"/>
    <path id="Trazado_223263" data-name="Trazado 223263" d="M90.936,112.047,99.679,107l6.29,3.63-8.745,5.048Z" transform="translate(73.707 86.727)" fill="#c8eef3"/>
    <path id="Trazado_223264" data-name="Trazado 223264" d="M97.037,108.525l8.743-5.05,6.29,3.632-8.745,5.048Z" transform="translate(78.652 83.871)" fill="#c8eef3"/>
    <path id="Trazado_223265" data-name="Trazado 223265" d="M103.012,104.539l6.67-3.851,6.288,3.63-6.67,3.851Z" transform="translate(83.495 81.611)" fill="#c8eef3"/>
    <path id="Trazado_223266" data-name="Trazado 223266" d="M59.345,139.436l44.143-25.487,6.288,3.632L65.633,143.066Z" transform="translate(48.101 92.36)" fill="#c8eef3"/>
    <path id="Trazado_223267" data-name="Trazado 223267" d="M23.962,140.088l-12.437-7.181v-4l12.437,7.179Z" transform="translate(9.342 104.482)" fill="#aac6ca"/>
    <path id="Trazado_223268" data-name="Trazado 223268" d="M31.909,144.682,19.472,137.5v-4l12.437,7.181Z" transform="translate(15.783 108.205)" fill="#aac6ca"/>
    <path id="Trazado_223269" data-name="Trazado 223269" d="M92.836,36.757l-2.272-1.3-.013-.007-.033-.018-.007.005a.718.718,0,0,0-.769.036L12.211,80.235a2.767,2.767,0,0,0-1.157,2.211v80.725a1.107,1.107,0,0,0,.3.846l-.005.011.022.013a.529.529,0,0,0,.081.047l2.39,1.38,1.463-2.725-.588-.143,75.023-43.315a2.77,2.77,0,0,0,1.157-2.211V37.713l.779.643Z" transform="translate(8.96 28.645)" fill="#15616d"/>
    <path id="Trazado_223270" data-name="Trazado 223270" d="M92.215,117.828a2.77,2.77,0,0,1-1.157,2.211L13.526,164.8c-.639.368-1.157-.024-1.157-.874V83.2a2.767,2.767,0,0,1,1.157-2.211L91.059,36.227c.639-.369,1.157.024,1.157.874Z" transform="translate(10.026 29.251)" fill="#8bdae6"/>
    <path id="Trazado_223271" data-name="Trazado 223271" d="M88.93,113.014l-75.307,43.48V84.663L88.93,41.185Z" transform="translate(11.041 33.382)" fill="#fff"/>
    <path id="Trazado_223272" data-name="Trazado 223272" d="M56.691,41.544,53.64,43.305V39.237l3.051-1.76Z" transform="translate(43.477 30.377)" fill="#ff5097"/>
    <path id="Trazado_223273" data-name="Trazado 223273" d="M54.064,43.061l-3.051,1.762V40.755l3.051-1.762Z" transform="translate(41.348 31.605)" fill="#7b78ef"/>
    <path id="Trazado_223274" data-name="Trazado 223274" d="M27.486,60.9a1.282,1.282,0,0,1,.777.241,1.642,1.642,0,0,1,.523.717A3.1,3.1,0,0,1,28.978,63a5.32,5.32,0,0,1-.176,1.334,6.416,6.416,0,0,1-.5,1.3,1.753,1.753,0,0,1,.483.726,3.154,3.154,0,0,1,.177,1.123v3.226l-1.519.876V68.362a.885.885,0,0,0-.259-.722.534.534,0,0,0-.645.013l-1.506.869V72.98l-1.543.889V62.943l1.53-.884,1.508-.871a1.932,1.932,0,0,1,.952-.293M27.2,64.9a2.209,2.209,0,0,0,.27-1.028.8.8,0,0,0-.27-.7.576.576,0,0,0-.655.033l-1.506.871v2.435l1.506-.871A1.772,1.772,0,0,0,27.2,64.9" transform="translate(19.044 49.358)" fill="#15616d"/>
    <path id="Trazado_223275" data-name="Trazado 223275" d="M28.709,69.187l3.38-1.952v2.026L27.8,71.738l-.607.351V61.159L28.7,60.29l3.391-1.959v2.026l-3.38,1.95v2.435l2.73-1.577v2.012l-2.73,1.575Z" transform="translate(22.038 47.279)" fill="#15616d"/>
    <path id="Trazado_223276" data-name="Trazado 223276" d="M34.18,61.906a1.262,1.262,0,0,1,.769.253,1.639,1.639,0,0,1,.518.728,3.179,3.179,0,0,1,.186,1.155,5.117,5.117,0,0,1-.192,1.371,6.825,6.825,0,0,1-.523,1.331,5.746,5.746,0,0,1-.775,1.137,3.828,3.828,0,0,1-.952.8L30.47,70.262V68.238l2.741-1.582a1.773,1.773,0,0,0,.655-.73,2.188,2.188,0,0,0,.27-1.023.828.828,0,0,0-.27-.708.565.565,0,0,0-.655.025l-.286.165a2.006,2.006,0,0,1-.954.3,1.191,1.191,0,0,1-.773-.241,1.614,1.614,0,0,1-.52-.728,3.176,3.176,0,0,1-.186-1.157,5.2,5.2,0,0,1,.194-1.378,6.668,6.668,0,0,1,.521-1.336,5.888,5.888,0,0,1,.771-1.133,3.764,3.764,0,0,1,.947-.795l2.707-1.562v2.022L32.925,59.94a1.732,1.732,0,0,0-.65.728,2.179,2.179,0,0,0-.264,1.016.843.843,0,0,0,.264.713.549.549,0,0,0,.65-.02l.308-.179a1.9,1.9,0,0,1,.947-.291" transform="translate(24.697 45.678)" fill="#15616d"/>
    <path id="Trazado_223277" data-name="Trazado 223277" d="M39.427,54.239v7.289a5.88,5.88,0,0,1-.214,1.541,7.391,7.391,0,0,1-.583,1.5,6.613,6.613,0,0,1-.871,1.28,4.2,4.2,0,0,1-1.061.9,2.175,2.175,0,0,1-1.063.328,1.4,1.4,0,0,1-.869-.275,1.836,1.836,0,0,1-.583-.824,3.5,3.5,0,0,1-.215-1.289V57.389l1.519-.876V63.8a1.6,1.6,0,0,0,.094.578.819.819,0,0,0,.259.364.6.6,0,0,0,.386.12.95.95,0,0,0,.473-.147,1.871,1.871,0,0,0,.478-.409,2.924,2.924,0,0,0,.393-.578,3.408,3.408,0,0,0,.263-.672,2.653,2.653,0,0,0,.1-.7V55.1Z" transform="translate(27.532 43.963)" fill="#15616d"/>
    <path id="Trazado_223278" data-name="Trazado 223278" d="M43.417,52.407l1.517-.874V62.459l-1.517.876V56.47l-1.532,4.465-1.209.7-1.508-2.68V65.79l-1.519.876V55.736l1.51-.871,2.133,3.815Z" transform="translate(30.516 41.769)" fill="#ff5097"/>
    <path id="Trazado_223279" data-name="Trazado 223279" d="M43.858,60.441l3.38-1.952v2.026l-4.293,2.477-.607.351V52.413l1.508-.869,3.391-1.959v2.026l-3.38,1.95V56l2.73-1.577V56.43l-2.73,1.575Z" transform="translate(34.317 40.19)" fill="#ff5097"/>
    <path id="Trazado_223280" data-name="Trazado 223280" d="M47.568,65.268,16.087,83.444v45.778l31.482-18.176Z" transform="translate(13.039 52.902)" fill="#e1deda"/>
    <path id="Trazado_223281" data-name="Trazado 223281" d="M29.972,99.868a42.751,42.751,0,0,0,7.642-6.73s-4.329-.985-4.329-2.906V84.694l-4.535,2.66-4.535,2.578V95.47c0,1.921-4.329,7.9-4.329,7.9a18.978,18.978,0,0,0,7.642-2.1,3.118,3.118,0,0,0,.661-.29c.19-.11.375-.226.561-.34s.371-.2.559-.308a4.434,4.434,0,0,0,.663-.473" transform="translate(16.118 68.648)" fill="#d1bae2"/>
    <path id="Trazado_223282" data-name="Trazado 223282" d="M33.64,81.448c0,5.419-2.77,13.708-6.188,15.681s-6.188-3.116-6.188-8.535,2.77-11.412,6.188-13.385,6.188.82,6.188,6.239" transform="translate(17.234 60.446)" fill="#dfc8ed"/>
    <path id="Trazado_223283" data-name="Trazado 223283" d="M28.068,78.189s2.573-2.044,2.515,1.421-3.433,5.9-3.433,5.9Z" transform="translate(22.006 62.89)" fill="#dfc8ed"/>
    <path id="Trazado_223284" data-name="Trazado 223284" d="M22.9,81.321a4.314,4.314,0,0,0-2.515,4.325c.056,3.4,3.433,1.934,3.433,1.934Z" transform="translate(16.518 65.914)" fill="#dfc8ed"/>
    <path id="Trazado_223285" data-name="Trazado 223285" d="M33.09,80.412c-.534,1.664-1.416,4.22-1.9,4.579-.349.261-1.97-.757-3.63.2-1.763,1.019-3.57,4.016-3.942,4.168-.482.2-1.363-1.342-1.9-2.39l-.333.194c.148,1.371.427,3.77.788,5.848.541,3.114,1.961,4.744,5.171,2.605a1.3,1.3,0,0,1,.116-.069c3.21-1.566,4.63-4.834,5.171-8.573.36-2.495.641-5.22.788-6.759Z" transform="translate(17.337 65.021)"/>
    <path id="Trazado_223286" data-name="Trazado 223286" d="M28.033,84.437c-.221-.286-1.577-1.133-2.22-.811l0-.007-.016.013-.014,0,0,.011a13.032,13.032,0,0,0-2.22,3.375,1.364,1.364,0,0,0,2.118,1.329l.235-.136c1.5-.865,2.345-3.487,2.12-3.777" transform="translate(19.066 67.724)" fill="#dfc8ed"/>
    <path id="Trazado_223287" data-name="Trazado 223287" d="M33,72.287c-.6-.141-2.853.38-5.144,1.689a22.067,22.067,0,0,0-5.5,4.454,7.693,7.693,0,0,0-1.381,4.682,19.7,19.7,0,0,0,.63,5.977c1.048-1.82,1.314-5.372,1.716-5.919.829-1.126,2.135-.664,3.751-1.191a9.2,9.2,0,0,0,1.345-.809c1.555-1.338,2.808-3.194,3.614-3.029.4.083.668,3.328,1.718,3.936a29.806,29.806,0,0,0,.628-6.7c0-1.722-.369-2.85-1.381-3.087" transform="translate(17.004 58.573)"/>
    <path id="Trazado_223288" data-name="Trazado 223288" d="M44.388,88.748c-.73.038-1.53.092-2.241.174-3.378.389-4.807-.241-4.807-.241-.025-.014-4.514,6.073-5.767,7.771-1.251-.252-5.741-1.157-5.765-1.112A40.652,40.652,0,0,1,21,101.132c-.713.739-1.512,1.608-2.243,2.413a9.522,9.522,0,0,0-2.363,6v.375l14.848-8.573.659-.38L46.75,92.4v-.373c0-2.048-.934-3.348-2.363-3.275" transform="translate(13.289 71.879)" fill="#0ab1cb"/>
    <path id="Trazado_223289" data-name="Trazado 223289" d="M39.16,83.4l.865,1.838,1.934-.742-1.4,2.627.33,2.377-1.729-.214-1.729,2.211.33-2.759-1.4-1.01,1.934-1.492Z" transform="translate(29.472 67.595)" fill="#dfc8ed"/>
    <path id="Trazado_223290" data-name="Trazado 223290" d="M42.724,81.307l.865,1.838,1.934-.742-1.4,2.627.33,2.377-1.729-.214L40.995,89.4l.33-2.759-1.4-1.01,1.934-1.492Z" transform="translate(32.36 65.903)" fill="#a991c1"/>
    <path id="Trazado_223291" data-name="Trazado 223291" d="M46.287,79.22l.865,1.838,1.934-.742-1.4,2.627.33,2.377-1.729-.214-1.729,2.211.33-2.759-1.4-1.01,1.934-1.492Z" transform="translate(35.249 64.21)" fill="#a991c1"/>
    <path id="Trazado_223292" data-name="Trazado 223292" d="M49.851,77.168l.865,1.838,1.934-.742-1.4,2.627.33,2.377-1.729-.214-1.729,2.211.33-2.759-1.4-1.01L48.985,80Z" transform="translate(38.137 62.547)" fill="#a991c1"/>
    <path id="Trazado_223293" data-name="Trazado 223293" d="M53.414,75.08l.865,1.838,1.934-.742-1.4,2.627.33,2.377-1.729-.214-1.729,2.211.33-2.759-1.4-1.01,1.934-1.492Z" transform="translate(41.025 60.855)" fill="#a991c1"/>
    <path id="Trazado_223294" data-name="Trazado 223294" d="M68.671,53.48,36.016,72.333v2.942L68.671,56.422Z" transform="translate(29.192 43.347)" fill="#a991c1"/>
    <path id="Trazado_223295" data-name="Trazado 223295" d="M68.671,56.878,36.016,75.731v2.94L68.671,59.82Z" transform="translate(29.192 46.102)" fill="#a991c1"/>
    <path id="Trazado_223296" data-name="Trazado 223296" d="M68.671,60.277,36.016,79.13v2.94L68.671,63.219Z" transform="translate(29.192 48.857)" fill="#dfc8ed"/>
    <path id="Trazado_223297" data-name="Trazado 223297" d="M68.671,63.676,36.016,82.529v2.94L68.671,66.618Z" transform="translate(29.192 51.611)" fill="#dfc8ed"/>
    <path id="Trazado_223298" data-name="Trazado 223298" d="M68.671,67.01,36.016,85.863V88.8L68.671,69.952Z" transform="translate(29.192 54.314)" fill="#dfc8ed"/>
    <path id="Trazado_223299" data-name="Trazado 223299" d="M43.927,80.993v2.942L62.259,73.35V70.408Z" transform="translate(35.604 57.068)" fill="#dfc8ed"/>
    <path id="Trazado_223300" data-name="Trazado 223300" d="M119.446,1.416l-2.274-1.3-.011-.007-.033-.018-.007.005a.718.718,0,0,0-.769.036L38.821,44.894a2.769,2.769,0,0,0-1.159,2.211V127.83a1.107,1.107,0,0,0,.3.846l-.005.011.022.013a.527.527,0,0,0,.081.047l2.39,1.38,1.463-2.725-.588-.143,75.023-43.315a2.773,2.773,0,0,0,1.157-2.211V2.372l.779.643Z" transform="translate(30.526 0)" fill="#15616d"/>
    <path id="Trazado_223301" data-name="Trazado 223301" d="M118.825,82.487a2.77,2.77,0,0,1-1.157,2.211L40.135,129.461c-.639.368-1.157-.024-1.157-.876V47.861a2.767,2.767,0,0,1,1.157-2.211L117.668.886c.639-.369,1.157.024,1.157.874Z" transform="translate(31.593 0.606)" fill="#8bdae6"/>
    <path id="Trazado_223302" data-name="Trazado 223302" d="M115.54,77.674,40.232,121.152V49.323L115.54,5.844Z" transform="translate(32.61 4.737)" fill="#fff"/>
    <path id="Trazado_223303" data-name="Trazado 223303" d="M83.3,6.2,80.25,7.966V3.9L83.3,2.136Z" transform="translate(65.046 1.731)" fill="#15616d"/>
    <path id="Trazado_223304" data-name="Trazado 223304" d="M80.674,7.72,77.623,9.481V5.413l3.051-1.76Z" transform="translate(62.916 2.961)" fill="#7b78ef"/>
    <path id="Trazado_223305" data-name="Trazado 223305" d="M54.1,25.554a1.282,1.282,0,0,1,.777.241,1.642,1.642,0,0,1,.523.717,3.1,3.1,0,0,1,.192,1.15A5.344,5.344,0,0,1,55.413,29a6.442,6.442,0,0,1-.5,1.3,1.735,1.735,0,0,1,.483.726,3.154,3.154,0,0,1,.177,1.123v3.226l-1.519.876V33.021A.885.885,0,0,0,53.8,32.3a.534.534,0,0,0-.645.013l-1.506.869v4.459l-1.543.889V27.6l1.53-.884,1.508-.871a1.932,1.932,0,0,1,.952-.293m-.286,4.009a2.209,2.209,0,0,0,.27-1.028.8.8,0,0,0-.27-.7.573.573,0,0,0-.655.034l-1.506.869V31.17l1.506-.871a1.761,1.761,0,0,0,.655-.737" transform="translate(40.613 20.712)" fill="#15616d"/>
    <path id="Trazado_223306" data-name="Trazado 223306" d="M55.319,33.846l3.38-1.952V33.92L54.406,36.4l-.607.349V25.818l1.508-.869L58.7,22.99v2.026l-3.38,1.95V29.4l2.73-1.577v2.011l-2.73,1.575Z" transform="translate(43.607 18.634)" fill="#15616d"/>
    <path id="Trazado_223307" data-name="Trazado 223307" d="M60.79,26.565a1.262,1.262,0,0,1,.769.253,1.639,1.639,0,0,1,.518.728,3.179,3.179,0,0,1,.186,1.155,5.117,5.117,0,0,1-.192,1.371,6.718,6.718,0,0,1-.525,1.331,5.662,5.662,0,0,1-.773,1.137,3.828,3.828,0,0,1-.952.8L57.08,34.921V32.9l2.741-1.582a1.785,1.785,0,0,0,.655-.73,2.188,2.188,0,0,0,.27-1.023.828.828,0,0,0-.27-.708.565.565,0,0,0-.655.025l-.286.165a1.986,1.986,0,0,1-.954.3,1.2,1.2,0,0,1-.775-.241,1.615,1.615,0,0,1-.518-.728,3.176,3.176,0,0,1-.186-1.157,5.2,5.2,0,0,1,.194-1.378,6.669,6.669,0,0,1,.521-1.336,5.889,5.889,0,0,1,.771-1.133,3.764,3.764,0,0,1,.947-.795l2.707-1.562v2.022L59.535,24.6a1.721,1.721,0,0,0-.65.728,2.179,2.179,0,0,0-.264,1.016.843.843,0,0,0,.264.713.549.549,0,0,0,.65-.02l.308-.179a1.9,1.9,0,0,1,.947-.291" transform="translate(46.265 17.033)" fill="#15616d"/>
    <path id="Trazado_223308" data-name="Trazado 223308" d="M66.037,18.9v7.289a5.8,5.8,0,0,1-.214,1.541,7.391,7.391,0,0,1-.583,1.5,6.614,6.614,0,0,1-.871,1.28,4.2,4.2,0,0,1-1.061.9,2.175,2.175,0,0,1-1.063.328,1.4,1.4,0,0,1-.869-.275,1.85,1.85,0,0,1-.583-.824,3.5,3.5,0,0,1-.215-1.289V22.048l1.519-.876v7.291a1.6,1.6,0,0,0,.094.578.819.819,0,0,0,.259.364.6.6,0,0,0,.386.119.95.95,0,0,0,.473-.147,1.871,1.871,0,0,0,.478-.409,2.924,2.924,0,0,0,.393-.578,3.408,3.408,0,0,0,.263-.672,2.653,2.653,0,0,0,.1-.7V19.762Z" transform="translate(49.101 15.318)" fill="#15616d"/>
    <path id="Trazado_223309" data-name="Trazado 223309" d="M70.027,17.066l1.517-.874V27.118l-1.517.876V21.129L68.5,25.594l-1.209.7-1.508-2.68V30.45l-1.519.876V20.4l1.508-.871L67.9,23.34Z" transform="translate(52.084 13.124)" fill="#15616d"/>
    <path id="Trazado_223310" data-name="Trazado 223310" d="M70.468,25.1l3.38-1.952v2.026l-4.293,2.477L68.949,28V17.072l1.508-.869,3.391-1.959V16.27l-3.38,1.95v2.435l2.73-1.577V21.09l-2.73,1.575Z" transform="translate(55.885 11.545)" fill="#15616d"/>
    <path id="Trazado_223311" data-name="Trazado 223311" d="M74.252,29.912,42.741,48.1V93.922L74.252,75.73Z" transform="translate(34.643 24.245)" fill="#e1deda"/>
    <path id="Trazado_223312" data-name="Trazado 223312" d="M49.82,48.734l-1.78,3.826a37.417,37.417,0,0,1,.473,5.707c-.181,2.028-1.894,3.558-1.894,4.941,0,1.943,1.849,1.1,1.8,2.566-.042,1.383-.61,1.926-2.3,4.934-1.287,2.294-.632,6.5-.632,6.5L56.4,70.9s.451-28.029,0-27.77-6.583,5.6-6.583,5.6" transform="translate(36.737 34.96)"/>
    <path id="Trazado_223313" data-name="Trazado 223313" d="M58.227,41.964l1.78,1.771a49.861,49.861,0,0,0-.473,6.252c.181,1.82,1.894,1.371,1.894,2.754,0,1.943-1.849,3.232-1.8,4.648.043,1.336.61,1.222,2.3,2.279,1.287.808.632,5.768.632,5.768l-10.912,6.3s-.451-27.509,0-27.768,6.583-2,6.583-2" transform="translate(41.697 34.013)"/>
    <path id="Trazado_223314" data-name="Trazado 223314" d="M70.522,52.953c-1.385.063-4.184.342-4.184.342l-8.14,4.7-.655.378-8.138,4.7s-2.8,2.953-4.186,4.49c-1.629,1.809-1.744,6.918-1.744,6.918l14.068-8.122.655-.378,14.068-8.122s-.112-4.979-1.744-4.9" transform="translate(35.237 42.92)" fill="#0ab1cb"/>
    <path id="Trazado_223315" data-name="Trazado 223315" d="M58.7,52.891c0-.979-.033-1.977-.074-2.868l-6.753,3.9c-.042.938-.072,1.972-.072,2.953,0,2.861-5.051,8.571-5.051,8.571s1.99,2.6,6.962.583a21.458,21.458,0,0,0,3.08-1.778,22.738,22.738,0,0,0,6.96-8.62s-5.05.119-5.05-2.741" transform="translate(37.891 40.545)" fill="#d1bae2"/>
    <path id="Trazado_223316" data-name="Trazado 223316" d="M60.059,47.722c0,5.211-2.665,13.183-5.951,15.08s-5.951-3-5.951-8.207,2.663-10.975,5.951-12.873,5.951.788,5.951,6" transform="translate(39.033 33.323)" fill="#dfc8ed"/>
    <path id="Trazado_223317" data-name="Trazado 223317" d="M64.219,44.2c-.127-2.042-.474-3.961-1.517-5.026-1.008-1.032-2.7-1.734-4.512,1.41-2-1.838-4.863-1.644-8.289,3.2C46.033,49.243,46.2,57.75,48.03,61.1c1.325-5.613,5.9-9.158,8.472-13.816a3.825,3.825,0,0,0,1.421,1.581,8.7,8.7,0,0,0,2.29.882c1.231.364,2.584,2.3,1.952,5.8,2.06-3.594,2.169-9.489,2.055-11.347" transform="translate(37.918 31.042)"/>
    <path id="Trazado_223318" data-name="Trazado 223318" d="M65.77,48.054l.865,1.838,1.934-.742-1.4,2.627.33,2.377L65.77,53.94l-1.729,2.211.33-2.759-1.4-1.01L64.9,50.89Z" transform="translate(51.04 38.95)" fill="#a991c1"/>
    <path id="Trazado_223319" data-name="Trazado 223319" d="M69.333,45.967,70.2,47.8l1.934-.742-1.4,2.627.33,2.377-1.729-.214L67.6,54.063l.33-2.759-1.4-1.01L68.468,48.8Z" transform="translate(53.929 37.258)" fill="#a991c1"/>
    <path id="Trazado_223320" data-name="Trazado 223320" d="M72.9,43.879l.865,1.838,1.934-.742L74.3,47.6l.33,2.377L72.9,49.765l-1.729,2.211.33-2.759-1.4-1.01,1.934-1.492Z" transform="translate(56.817 35.566)" fill="#a991c1"/>
    <path id="Trazado_223321" data-name="Trazado 223321" d="M76.46,41.827l.865,1.838,1.934-.742-1.4,2.627.33,2.377-1.729-.214-1.729,2.211.33-2.759-1.4-1.01L75.6,44.663Z" transform="translate(59.705 33.902)" fill="#a991c1"/>
    <path id="Trazado_223322" data-name="Trazado 223322" d="M80.024,39.74l.865,1.838,1.934-.742-1.4,2.627.33,2.377-1.729-.214-1.729,2.211.33-2.759-1.4-1.01,1.934-1.492Z" transform="translate(62.594 32.21)" fill="#a991c1"/>
    <path id="Trazado_223323" data-name="Trazado 223323" d="M95.28,18.139,62.627,36.992v2.94L95.28,21.081Z" transform="translate(50.761 14.702)" fill="#a991c1"/>
    <path id="Trazado_223324" data-name="Trazado 223324" d="M95.28,21.538,62.627,40.391v2.94L95.28,24.48Z" transform="translate(50.761 17.457)" fill="#a991c1"/>
    <path id="Trazado_223325" data-name="Trazado 223325" d="M95.28,24.936,62.627,43.789v2.94L95.28,27.878Z" transform="translate(50.761 20.212)" fill="#dfc8ed"/>
    <path id="Trazado_223326" data-name="Trazado 223326" d="M95.28,28.335,62.627,47.188v2.94L95.28,31.277Z" transform="translate(50.761 22.966)" fill="#dfc8ed"/>
    <path id="Trazado_223327" data-name="Trazado 223327" d="M95.28,31.669,62.627,50.522v2.94L95.28,34.611Z" transform="translate(50.761 25.669)" fill="#dfc8ed"/>
    <path id="Trazado_223328" data-name="Trazado 223328" d="M70.537,45.652v2.942L88.868,38.01V35.068Z" transform="translate(57.173 28.424)" fill="#dfc8ed"/>
    <path id="Trazado_223329" data-name="Trazado 223329" d="M150.98,10.834l-2.272-1.3-.011-.007-.034-.018-.007.005a.718.718,0,0,0-.769.036L70.355,54.312A2.767,2.767,0,0,0,69.2,56.523v80.725a1.107,1.107,0,0,0,.3.846l-.005.011.022.013a.527.527,0,0,0,.081.047l2.39,1.38,1.463-2.725-.588-.143L147.886,93.36a2.77,2.77,0,0,0,1.157-2.211V11.79l.779.643Z" transform="translate(56.088 7.633)" fill="#15616d"/>
    <path id="Trazado_223330" data-name="Trazado 223330" d="M150.359,91.9a2.77,2.77,0,0,1-1.157,2.211L71.67,138.878c-.639.369-1.157-.024-1.157-.874V57.278a2.77,2.77,0,0,1,1.157-2.211L149.2,10.3c.639-.369,1.157.024,1.157.874Z" transform="translate(57.153 8.239)" fill="#8bdae6"/>
    <path id="Trazado_223331" data-name="Trazado 223331" d="M147.074,87.091,71.766,130.569V58.74l75.307-43.478Z" transform="translate(58.169 12.37)" fill="#fff"/>
    <path id="Trazado_223332" data-name="Trazado 223332" d="M114.835,15.621l-3.051,1.762V13.315l3.051-1.762Z" transform="translate(90.605 9.364)" fill="#15616d"/>
    <path id="Trazado_223333" data-name="Trazado 223333" d="M112.208,17.137,109.158,18.9V14.83l3.051-1.76Z" transform="translate(88.476 10.594)" fill="#7b78ef"/>
    <path id="Trazado_223334" data-name="Trazado 223334" d="M85.63,34.971a1.282,1.282,0,0,1,.777.241,1.642,1.642,0,0,1,.523.717,3.1,3.1,0,0,1,.192,1.15,5.344,5.344,0,0,1-.176,1.336,6.334,6.334,0,0,1-.5,1.3,1.752,1.752,0,0,1,.483.726,3.154,3.154,0,0,1,.177,1.123v3.226l-1.519.876V42.438a.885.885,0,0,0-.259-.722.534.534,0,0,0-.645.013l-1.5.869v4.459l-1.544.889V37.019l1.53-.884,1.508-.871a1.932,1.932,0,0,1,.952-.293m-.284,4.009a2.228,2.228,0,0,0,.268-1.028.809.809,0,0,0-.268-.7.576.576,0,0,0-.657.034l-1.5.869v2.435l1.5-.871a1.776,1.776,0,0,0,.657-.737" transform="translate(66.172 28.345)" fill="#15616d"/>
    <path id="Trazado_223335" data-name="Trazado 223335" d="M86.853,43.263l3.38-1.952v2.026L85.94,45.814l-.607.349V35.235l1.508-.869,3.391-1.959v2.026l-3.38,1.95v2.435l2.73-1.577v2.011l-2.73,1.575Z" transform="translate(69.166 26.267)" fill="#15616d"/>
    <path id="Trazado_223336" data-name="Trazado 223336" d="M92.324,35.982a1.262,1.262,0,0,1,.769.253,1.639,1.639,0,0,1,.518.728,3.179,3.179,0,0,1,.186,1.155,5.117,5.117,0,0,1-.192,1.371,6.717,6.717,0,0,1-.525,1.331,5.662,5.662,0,0,1-.773,1.137,3.828,3.828,0,0,1-.952.8l-2.741,1.582V42.314l2.741-1.582a1.8,1.8,0,0,0,.655-.73,2.185,2.185,0,0,0,.268-1.023.827.827,0,0,0-.268-.708.565.565,0,0,0-.655.025l-.286.165a1.986,1.986,0,0,1-.954.3,1.2,1.2,0,0,1-.775-.241,1.615,1.615,0,0,1-.518-.728,3.176,3.176,0,0,1-.186-1.157,5.2,5.2,0,0,1,.194-1.378,6.668,6.668,0,0,1,.521-1.336,5.807,5.807,0,0,1,.771-1.133,3.764,3.764,0,0,1,.947-.795l2.707-1.562v2.022l-2.707,1.562a1.721,1.721,0,0,0-.65.728,2.158,2.158,0,0,0-.264,1.016.838.838,0,0,0,.264.713.549.549,0,0,0,.65-.02l.306-.179a1.908,1.908,0,0,1,.949-.291" transform="translate(71.825 24.665)" fill="#15616d"/>
    <path id="Trazado_223337" data-name="Trazado 223337" d="M97.571,28.315V35.6a5.88,5.88,0,0,1-.214,1.541,7.391,7.391,0,0,1-.583,1.5,6.613,6.613,0,0,1-.871,1.28,4.2,4.2,0,0,1-1.061.9,2.175,2.175,0,0,1-1.063.328,1.4,1.4,0,0,1-.869-.275,1.85,1.85,0,0,1-.583-.824,3.5,3.5,0,0,1-.215-1.289V31.465l1.519-.876V37.88a1.6,1.6,0,0,0,.094.578.819.819,0,0,0,.259.364.6.6,0,0,0,.386.119.95.95,0,0,0,.473-.147,1.871,1.871,0,0,0,.478-.409,2.924,2.924,0,0,0,.393-.578,3.407,3.407,0,0,0,.263-.672,2.653,2.653,0,0,0,.1-.7V29.179Z" transform="translate(74.66 22.95)" fill="#15616d"/>
    <path id="Trazado_223338" data-name="Trazado 223338" d="M101.561,26.483l1.517-.874V36.535l-1.517.876V30.546l-1.532,4.465-1.209.7-1.508-2.68v6.837l-1.519.876V29.813l1.508-.871,2.135,3.815Z" transform="translate(77.644 20.757)" fill="#15616d"/>
    <path id="Trazado_223339" data-name="Trazado 223339" d="M102,34.517l3.38-1.952v2.026l-4.293,2.477-.607.349V26.489l1.508-.869,3.391-1.959v2.026L102,27.637v2.435l2.73-1.577v2.011L102,32.082Z" transform="translate(81.445 19.178)" fill="#15616d"/>
    <path id="Trazado_223340" data-name="Trazado 223340" d="M105.733,39.33,74.222,57.522v45.817l31.511-18.192Z" transform="translate(60.16 31.878)" fill="#e1deda"/>
    <path id="Trazado_223341" data-name="Trazado 223341" d="M88.176,76.394c4.38-2.995,9.676-9.855,9.676-9.855a40.025,40.025,0,0,1-4.508-.777c-1.383-.4-2.044-3.549-2.044-5.558v-4L87.58,58.35l-.009,0L83.852,60.5v4c0,2.01-.661,5.919-2.044,7.919S77.3,78.405,77.3,78.405a19.482,19.482,0,0,0,9.675-1.318,1.857,1.857,0,0,0,.357-.158c.08-.047.163-.107.244-.156s.163-.081.244-.127a2.871,2.871,0,0,0,.355-.253" transform="translate(62.655 45.553)" fill="#d1bae2"/>
    <path id="Trazado_223342" data-name="Trazado 223342" d="M91.593,54.259c0,5.211-2.665,13.183-5.951,15.08s-5.951-3-5.951-8.207,2.663-10.975,5.951-12.873,5.951.788,5.951,6" transform="translate(64.593 38.622)" fill="#dfc8ed"/>
    <path id="Trazado_223343" data-name="Trazado 223343" d="M86.235,51.125s2.475-1.966,2.419,1.367-3.3,5.671-3.3,5.671Z" transform="translate(69.182 40.972)" fill="#dfc8ed"/>
    <path id="Trazado_223344" data-name="Trazado 223344" d="M81.26,54.137A4.15,4.15,0,0,0,78.841,58.3c.054,3.268,3.3,1.859,3.3,1.859Z" transform="translate(63.903 43.88)" fill="#dfc8ed"/>
    <path id="Trazado_223345" data-name="Trazado 223345" d="M80.379,63.222l3.009-5.928s1.932-.447,5.18-.974c3.373-.549,3.713,1.66,3.713,1.66s3.84-9.94-.641-12.3c-3.161-1.66-7.211-.17-10.22,7.164-3.726,3.38-2.8,10.561-1.041,10.373" transform="translate(63.903 36.532)"/>
    <path id="Trazado_223346" data-name="Trazado 223346" d="M105.432,64.111c-.181-1.756-.842-2.7-2.345-2.556s-5.716.357-5.716.357c-1.414,5.258-6.08,8.589-7.394,9.438-1.313.666-5.98,2.725-7.392-.9,0,0-4.213,4.655-5.718,6.245a8.384,8.384,0,0,0-2.345,5.263c-.179,1.964-.3,3.38-.3,3.38l15.4-8.89.713-.413,15.4-8.89s-.12-1.276-.3-3.033" transform="translate(60.16 49.88)" fill="#0ab1cb"/>
    <path id="Trazado_223347" data-name="Trazado 223347" d="M97.3,57.472l.865,1.838,1.934-.742-1.4,2.627.33,2.377L97.3,63.358l-1.729,2.211.33-2.759-1.4-1.01,1.934-1.492Z" transform="translate(76.6 46.583)" fill="#dfc8ed"/>
    <path id="Trazado_223348" data-name="Trazado 223348" d="M100.868,55.384l.865,1.838,1.934-.742-1.4,2.627.33,2.377-1.729-.214-1.729,2.211.33-2.759-1.4-1.01L100,58.219Z" transform="translate(79.488 44.891)" fill="#a991c1"/>
    <path id="Trazado_223349" data-name="Trazado 223349" d="M104.431,53.3l.865,1.838,1.934-.742-1.4,2.627.33,2.377-1.729-.214L102.7,61.393l.33-2.759-1.4-1.01,1.934-1.492Z" transform="translate(82.377 43.199)" fill="#a991c1"/>
    <path id="Trazado_223350" data-name="Trazado 223350" d="M107.995,51.245l.865,1.838,1.934-.742-1.4,2.627.33,2.377-1.729-.214-1.729,2.211.33-2.759-1.4-1.01,1.934-1.492Z" transform="translate(85.265 41.536)" fill="#a991c1"/>
    <path id="Trazado_223351" data-name="Trazado 223351" d="M111.558,49.157l.865,1.838,1.934-.742-1.4,2.627.33,2.377-1.729-.214-1.729,2.211.33-2.759-1.4-1.01,1.934-1.492Z" transform="translate(88.153 39.843)" fill="#a991c1"/>
    <path id="Trazado_223352" data-name="Trazado 223352" d="M126.815,27.556,94.16,46.41v2.94L126.815,30.5Z" transform="translate(76.32 22.335)" fill="#a991c1"/>
    <path id="Trazado_223353" data-name="Trazado 223353" d="M126.815,30.955,94.16,49.808v2.94L126.815,33.9Z" transform="translate(76.32 25.09)" fill="#a991c1"/>
    <path id="Trazado_223354" data-name="Trazado 223354" d="M126.815,34.354,94.16,53.207v2.94L126.815,37.3Z" transform="translate(76.32 27.845)" fill="#dfc8ed"/>
    <path id="Trazado_223355" data-name="Trazado 223355" d="M126.815,37.752,94.16,56.605v2.94l32.655-18.851Z" transform="translate(76.32 30.6)" fill="#dfc8ed"/>
    <path id="Trazado_223356" data-name="Trazado 223356" d="M126.815,41.087,94.16,59.94v2.942l32.655-18.853Z" transform="translate(76.32 33.302)" fill="#dfc8ed"/>
    <path id="Trazado_223357" data-name="Trazado 223357" d="M102.071,55.069v2.942L120.4,47.427V44.485Z" transform="translate(82.732 36.057)" fill="#dfc8ed"/>
    <path id="Trazado_223358" data-name="Trazado 223358" d="M159.73,77.245c.992.264,8.339-.083,11.024,6.962a168.934,168.934,0,0,1,5.837,17.428c.894,3.759-.4,7.695-5.837,12.706s-7.91,6.17-7.91,6.17-5.625-5.276-6.5-12.256,3.382-31.011,3.382-31.011" transform="translate(126.63 62.61)" fill="#c8eef3"/>
    <path id="Trazado_223359" data-name="Trazado 223359" d="M156.257,102.236l19.324,11.157.105-16.612L156.362,85.625Z" transform="translate(126.652 69.402)" fill="#ea4e98"/>
    <path id="Trazado_223360" data-name="Trazado 223360" d="M155.345,102.744,174.669,113.9l.105-16.612L155.45,86.133Z" transform="translate(125.913 69.814)" fill="#9abbc0"/>
    <path id="Trazado_223361" data-name="Trazado 223361" d="M166.123,92.707l1.651-.92-.105,16.612-1.651.92Z" transform="translate(134.564 74.397)" fill="#9abbc0"/>
    <path id="Trazado_223362" data-name="Trazado 223362" d="M176.426,96.782l-1.651.92L155.345,86.433l1.756-.807Z" transform="translate(125.913 69.402)" fill="#9abbc0"/>
    <path id="Trazado_223363" data-name="Trazado 223363" d="M156.61,87.194l.013-1.97L175.947,96.38l-.105,16.612-1.36-.784.092-14.644Z" transform="translate(126.939 69.077)" fill="#f3e0fc"/>
    <path id="Trazado_223364" data-name="Trazado 223364" d="M142.73,144.627c1.356-.849,10.148,1.6,10.148,1.6l9.48,3.181-.726,7.139a6.116,6.116,0,0,1-8.042.458c-2.785-1.876-8.167-4.291-10.19-7.206-1.468-2.117-2.026-4.32-.67-5.167" transform="translate(115.061 117.08)" fill="#723f3f"/>
    <path id="Trazado_223365" data-name="Trazado 223365" d="M155.681,136.982c1.356-.847,10.148,1.6,10.148,1.6l9.48,3.181-.726,7.139a6.116,6.116,0,0,1-8.042.458c-2.785-1.876-8.167-4.291-10.19-7.206-1.468-2.117-2.026-4.318-.67-5.167" transform="translate(125.559 110.884)" fill="#723f3f"/>
    <path id="Trazado_223366" data-name="Trazado 223366" d="M174.586,100.826s4.36,4.275,5.037,13.255c.3,4.043-1.854,21.285-1.854,21.285s3.319,8.915,4.141,14.66c.976,6.822.735,20.146.735,20.146-.561,1.776-2.41,3.458-6.1,3.185-3.8-.281-6.474-5.149-6.474-5.149s-1.314-11.048-2.549-18.368c-.7-4.166-1.5-6.927-1.9-10.391-.158-3.985-.563-13.673-.563-13.673s-4.557,18.116-6,23.655c2.812,9.228.313,34.344.051,36.343-5.627,4.436-9.094.241-11.419-3.393.136-5.584-.753-15.433-.961-23.24-.165-6.156-.063-8.734-.165-10.8-.2-4.021,1.635-16.112,2.562-25.367,1.079-10.789,1.3-18.594,1.3-18.594Z" transform="translate(118.787 81.723)" fill="#5e2e2e"/>
    <path id="Trazado_223367" data-name="Trazado 223367" d="M150.733,92.594c-1.908,5.911-.2,15.2-.328,18.533-.217,5.843-2.719,12.031-1.709,15.645,2,2,7.289,4.472,13.342,3.891,4.928-.473,10.606-3.19,13.456-8.042.036-.947-2.567-5.837-2-8.875,1.349-7.26,2.419-13.081,2.6-19.145.127-4.235.016-6.442-1.765-12.246-.786-2.569-3.722-3.831-7.181-3.934-2.585.246-4.079,5.01-10.552,5.01-4.543,2.58-4.057,3.576-5.861,9.165" transform="translate(120.33 63.562)" fill="#8bdae6"/>
    <path id="Trazado_223368" data-name="Trazado 223368" d="M154.8,85.78a36.222,36.222,0,0,0,9.2-3.033l-1.034-5.774-8.059,1.9s.989,4.117,0,6.654c-.033.085-.069.165-.1.25" transform="translate(125.475 62.39)" fill="#f9b4af"/>
    <path id="Trazado_223369" data-name="Trazado 223369" d="M168.634,72.389c-1.655-3.511-7.794-7.555-13.65-2.084-3.578,3.344-3.8,8.723-3.474,12.08.284,2.942,2.386,5.674,4.275,6.006,2.3.406,6.887-.724,9.938-3.84,3.433-3.507,4.2-9.433,2.911-12.161" transform="translate(122.719 54.814)" fill="#ffd0ca"/>
    <path id="Trazado_223370" data-name="Trazado 223370" d="M169.338,72.553c-.972-4.512-3.139-7.19-8.557-5.969-1.838.415-2.89.951-4.15,1.186a3.22,3.22,0,0,1-2.995-1.186c-.212,1.468-.453,2.126.518,3.031a8.353,8.353,0,0,1-2.692.416,10,10,0,0,0,5.4,6.426,33.01,33.01,0,0,0,1.5,3.6c.916-.558,1.921-.579,2.39.5.63,1.45-.25,2.489-1.51,4.007-.938,4.282,5.088,6.873,5.088,6.873a67.642,67.642,0,0,1,5.343-7.074c2.562-2.815,3.445-8.982-.337-11.81" transform="translate(122.766 53.73)" fill="#f79826"/>
    <path id="Trazado_223371" data-name="Trazado 223371" d="M159.547,81.021a36.764,36.764,0,0,1-6.6,2.307s5.211,2.544,8.484,1.18c1.727-.721,4.434-2.2,5.059-3,.846-1.085-.99-2.96-.99-2.96a48.921,48.921,0,0,0-5.957,2.477" transform="translate(123.972 63.663)" fill="#c8eef3"/>
    <path id="Trazado_223372" data-name="Trazado 223372" d="M138.318,75.807s-6.06-3.588-8.98-5.614-5.893-3.779-6.018-2.486c-.091.943,1.581,1.742,2.189,2.265s1.065,1.027,1.423,1.3c-.556,1.53-1.749,5.638.965,7.068a58.864,58.864,0,0,0,7.041,2.875Z" transform="translate(99.952 54.52)" fill="#ffd0ca"/>
    <path id="Trazado_223373" data-name="Trazado 223373" d="M172.724,90.93c-2.4-2.585-8.089-4.481-12.5-6.364-3.252-1.389-10.5-5.3-15.819-8.2-4.081-2.225-9.158-4.126-10.061-4.539-1-.456-2.585-.826-4.251,1.926-1.133,1.868-1.575,4.144,0,5.549,1.916,1.713,5.77,3.983,10.633,8.109,2.089,1.773,11.56,7.979,15.94,11.109s10.805,12.114,13.664,10.1c2.345-1.649,3.889-5.634,4.324-9.552.395-3.567-.058-6.132-1.928-8.142" transform="translate(104.615 57.96)" fill="#c8eef3"/>
    <path id="Trazado_223374" data-name="Trazado 223374" d="M143.552,29.774c-1.593.626-4.314,4.157-5.578,8.028-1.037,3.181-.045,5.5-.846,9.956a16.978,16.978,0,0,0-.04,5.767s-10.016.427-12.484.009-4.114-2.176-5.987-4.11c-2.024-2.089-4.818-2.944-6.3-1.827-1.275.96-.6,3.355.263,4.671,1.738,2.658,1.586,3.217,3.228,4.926a7.024,7.024,0,0,0,5.555,1.745,24.592,24.592,0,0,1,5.491.474c1.675.3,9.379,2.069,12.433,2.055,2.627-.013,3.418-1.867,4.412-3.292,2.149-3.078,2.216-11.6,3.431-17.611s-.48-8.035-3.578-10.793" transform="translate(90.464 24.133)" fill="#ffd0ca"/>
    <path id="Trazado_223375" data-name="Trazado 223375" d="M132.078,29.36s-2.093.717-4.407,5.886-2.707,12.607-2.707,12.607a13.414,13.414,0,0,0,6.344,2.363c3.661.246,3.9-.521,4.923-1.5,0,0,1.586-9.933,1.463-12.842-.167-3.989-5.616-6.514-5.616-6.514" transform="translate(101.288 23.797)" fill="#f79826"/>
  </g>
</svg>
