<svg id="Grupo_157647" data-name="Grupo 157647" xmlns="http://www.w3.org/2000/svg" xmlns:xlink="http://www.w3.org/1999/xlink" width="372.133" height="408.73" viewBox="0 0 372.133 408.73">
  <defs>
    <clipPath id="clip-path">
      <rect id="Rectángulo_47453" data-name="Rectángulo 47453" width="372.133" height="408.73" fill="none"/>
    </clipPath>
    <clipPath id="clip-path-3">
      <rect id="Rectángulo_47435" data-name="Rectángulo 47435" width="56.874" height="43.207" fill="none"/>
    </clipPath>
    <clipPath id="clip-path-4">
      <rect id="Rectángulo_47436" data-name="Rectángulo 47436" width="56.874" height="43.206" fill="none"/>
    </clipPath>
  </defs>
  <g id="Grupo_157646" data-name="Grupo 157646" clip-path="url(#clip-path)">
    <g id="Grupo_157645" data-name="Grupo 157645">
      <g id="Grupo_157644" data-name="Grupo 157644" clip-path="url(#clip-path)">
        <path id="Trazado_225404" data-name="Trazado 225404" d="M27.207,274.7a1.165,1.165,0,0,1-.536-.13L1.517,261.5a2.817,2.817,0,0,1-.054-4.97L26.42,242.87a.489.489,0,0,0,0-.855L1.767,228.3a2.819,2.819,0,0,1-.082-4.877l34.69-20.84a8.414,8.414,0,0,1,8.469-.1L64.122,213.4a1.165,1.165,0,0,1-1.148,2.028L43.7,204.5a6.073,6.073,0,0,0-6.121.078L2.886,225.418a.487.487,0,0,0,.013.844l24.655,13.716a2.818,2.818,0,0,1-.016,4.933L2.582,258.571a.489.489,0,0,0,.01.862l25.153,13.074a1.165,1.165,0,0,1-.538,2.2" transform="translate(0 33.144)" fill="#5793ce"/>
        <rect id="Rectángulo_47433" data-name="Rectángulo 47433" width="6.244" height="13.474" transform="translate(18.303 306.042) rotate(-60.169)" fill="#5793ce"/>
        <path id="Trazado_225405" data-name="Trazado 225405" d="M15.157,262.15a4.88,4.88,0,0,1,2.2-3.83c1.217-.707,2.207-.14,2.212,1.268a4.883,4.883,0,0,1-2.2,3.83c-1.217.707-2.207.14-2.212-1.268" transform="translate(2.495 42.464)" fill="#5793ce"/>
        <rect id="Rectángulo_47434" data-name="Rectángulo 47434" width="10.118" height="21.133" transform="translate(26.986 313.254) rotate(-60.168)" fill="#5793ce"/>
        <path id="Trazado_225406" data-name="Trazado 225406" d="M27.767,263.27,23.811,261a8.079,8.079,0,0,0-3.106,5.416l3.956,2.269a8.077,8.077,0,0,0,3.106-5.416" transform="translate(3.408 42.955)" fill="#396caa"/>
        <path id="Trazado_225407" data-name="Trazado 225407" d="M22.267,267.945a7.9,7.9,0,0,1,3.559-6.206c1.973-1.147,3.575-.227,3.582,2.054A7.9,7.9,0,0,1,25.85,270c-1.974,1.147-3.578.227-3.583-2.054" transform="translate(3.665 42.995)" fill="#5793ce"/>
        <path id="Trazado_225408" data-name="Trazado 225408" d="M18.384,260.529a.631.631,0,0,1,0-1.2,2.291,2.291,0,0,1,2.072-.006.631.631,0,0,1,0,1.2,2.291,2.291,0,0,1-2.072.006" transform="translate(2.955 42.64)" fill="#d4ecff"/>
        <path id="Trazado_225409" data-name="Trazado 225409" d="M100.18,200.322,38.469,165.134c-2.257-1.3-1.974-3.579.632-5.085l35.507-20.5c2.606-1.5,6.548-1.669,8.805-.366l61.711,35.189c2.257,1.3,1.973,3.579-.632,5.083l-35.507,20.5c-2.606,1.5-6.548,1.668-8.805.365" transform="translate(6.08 22.762)" fill="#b2d3ea"/>
        <path id="Trazado_225410" data-name="Trazado 225410" d="M151.19,182.577h0V38.51L93.916,23.519l-10.55-6.091c-2.421-1.4-6.65-1.223-9.446.391L64.078,23.5,33.53,23.485l9.045,139.078a2.739,2.739,0,0,0,1.622,2.531l57.155,43.127c2.421,1.4,6.651,1.223,9.446-.391l38.091-21.992c1.613-.932,2.391-2.137,2.3-3.26" transform="translate(5.518 2.713)" fill="#396caa"/>
        <path id="Trazado_225411" data-name="Trazado 225411" d="M78.984,16.491a10.9,10.9,0,0,0-5.064,1.328L64.079,23.5l-30.548-.017V167.94a2.736,2.736,0,0,0,1.621,2.531l66.2,37.749a8.549,8.549,0,0,0,4.383.936L106.421,63.8Z" transform="translate(5.517 2.714)" fill="#d4ecff"/>
        <path id="Trazado_225412" data-name="Trazado 225412" d="M92.29,202.074a10.765,10.765,0,0,0,7.55-.086V55.637H92.29Z" transform="translate(15.189 9.157)" fill="#5793ce"/>
        <path id="Trazado_225413" data-name="Trazado 225413" d="M101.355,66.529,35.153,28.78c-2.421-1.4-2.117-3.84.679-5.454L73.922,1.336c2.8-1.615,7.025-1.79,9.446-.392l66.2,37.749c2.421,1.4,2.117,3.84-.679,5.454L110.8,66.138c-2.8,1.614-7.025,1.789-9.446.391" transform="translate(5.516 0)" fill="#d4ecff"/>
        <path id="Trazado_225414" data-name="Trazado 225414" d="M148.891,37.929,110.8,59.921c-2.795,1.614-7.024,1.789-9.445.391l-66.2-37.749a3.647,3.647,0,0,1-1.209-1.071c-.832,1.338-.454,2.79,1.209,3.75l66.2,37.749c2.421,1.4,6.65,1.223,9.445-.391l38.091-21.992c2.172-1.254,2.832-3,1.887-4.38a5.294,5.294,0,0,1-1.887,1.7" transform="translate(5.517 3.537)" fill="#fafdff"/>
        <path id="Trazado_225415" data-name="Trazado 225415" d="M99.713,49.5,55.637,23.954c-1.132-.653-.99-1.8.318-2.552L73.78,11.111a4.912,4.912,0,0,1,4.42-.183l44.076,25.55c1.132.653.99,1.8-.318,2.552L104.134,49.321a4.915,4.915,0,0,1-4.421.183" transform="translate(9.031 1.726)" fill="#173d7a"/>
        <path id="Trazado_225416" data-name="Trazado 225416" d="M73.32,23.508l-2.554-1.473c-.157-.091-.137-.249.044-.353l2.465-1.424a.681.681,0,0,1,.611-.026l2.554,1.476c.157.09.137.248-.043.353l-2.467,1.423a.674.674,0,0,1-.611.024" transform="translate(11.629 3.32)" fill="#d4ecff"/>
        <path id="Trazado_225417" data-name="Trazado 225417" d="M80.647,27.721l-2.554-1.474c-.157-.091-.137-.249.044-.353L80.6,24.469a.678.678,0,0,1,.611-.026l2.554,1.474c.157.091.137.249-.043.354L81.258,27.7a.677.677,0,0,1-.611.026" transform="translate(12.835 4.013)" fill="#d4ecff"/>
        <path id="Trazado_225418" data-name="Trazado 225418" d="M87.974,31.934,85.42,30.459c-.157-.091-.139-.249.043-.353l2.467-1.424a.677.677,0,0,1,.611-.026l2.553,1.474c.157.091.139.249-.042.354l-2.468,1.423a.675.675,0,0,1-.61.026" transform="translate(14.041 4.706)" fill="#d4ecff"/>
        <path id="Trazado_225419" data-name="Trazado 225419" d="M95.3,36.147l-2.554-1.474c-.157-.091-.137-.249.044-.353L95.256,32.9a.681.681,0,0,1,.611-.026l2.554,1.474c.157.091.137.249-.043.354l-2.467,1.423a.677.677,0,0,1-.611.026" transform="translate(15.247 5.4)" fill="#d4ecff"/>
        <path id="Trazado_225420" data-name="Trazado 225420" d="M55.637,23.954l.052.03a3.206,3.206,0,0,1,.266-.183l17.824-10.29a4.915,4.915,0,0,1,4.421-.184l44.022,25.519c1.045-.748,1.1-1.765.052-2.37L78.2,10.928a4.911,4.911,0,0,0-4.421.183L55.955,21.4c-1.309.755-1.451,1.9-.318,2.552" transform="translate(9.031 1.726)" fill="#5793ce"/>
        <path id="Trazado_225421" data-name="Trazado 225421" d="M106.626,85.936l25.059-14.348a6.118,6.118,0,0,0,2.554-4.88V57.747c0-1.88-1.144-2.744-2.554-1.93L106.626,70.165a6.115,6.115,0,0,0-2.554,4.878V84c0,1.881,1.144,2.745,2.554,1.931" transform="translate(17.128 9.136)" fill="#173d7a"/>
        <path id="Trazado_225422" data-name="Trazado 225422" d="M132.836,55.542a2.5,2.5,0,0,1,.641,1.864v8.961a6.113,6.113,0,0,1-2.553,4.878L105.864,85.6a1.845,1.845,0,0,1-1.241.27,1.523,1.523,0,0,0,1.913.065L131.6,71.583A6.115,6.115,0,0,0,134.15,66.7V57.742c0-1.276-.533-2.067-1.314-2.2" transform="translate(17.219 9.141)" fill="#fff"/>
        <path id="Trazado_225423" data-name="Trazado 225423" d="M112.816,74.031l2.3-1.328a1.332,1.332,0,0,0,.557-1.063V69.185c0-.41-.249-.6-.557-.42l-2.3,1.326a1.333,1.333,0,0,0-.557,1.063V73.61c0,.41.249.6.557.42" transform="translate(18.475 11.306)" fill="#396caa"/>
        <path id="Trazado_225424" data-name="Trazado 225424" d="M119.417,70.22l2.3-1.328a1.332,1.332,0,0,0,.557-1.063V65.374c0-.41-.249-.6-.557-.42l-2.3,1.326a1.333,1.333,0,0,0-.557,1.063V69.8c0,.41.249.6.557.42" transform="translate(19.562 10.679)" fill="#fff"/>
        <path id="Trazado_225425" data-name="Trazado 225425" d="M106.626,141.543,131.685,127.2a6.118,6.118,0,0,0,2.554-4.88v-8.961c0-1.88-1.144-2.745-2.554-1.93l-25.059,14.348a6.115,6.115,0,0,0-2.554,4.878v8.961c0,1.881,1.144,2.745,2.554,1.931" transform="translate(17.128 18.288)" fill="#173d7a"/>
        <path id="Trazado_225426" data-name="Trazado 225426" d="M132.836,111.148a2.5,2.5,0,0,1,.641,1.864v8.961a6.113,6.113,0,0,1-2.553,4.878L105.864,141.2a1.845,1.845,0,0,1-1.241.27,1.523,1.523,0,0,0,1.913.065L131.6,127.189a6.115,6.115,0,0,0,2.554-4.878v-8.961c0-1.278-.533-2.068-1.314-2.2" transform="translate(17.219 18.293)" fill="#fff"/>
        <path id="Trazado_225427" data-name="Trazado 225427" d="M112.816,129.637l2.3-1.328a1.332,1.332,0,0,0,.557-1.063v-2.455c0-.41-.249-.6-.557-.42l-2.3,1.326a1.333,1.333,0,0,0-.557,1.063v2.456c0,.41.249.6.557.42" transform="translate(18.475 20.458)" fill="#396caa"/>
        <path id="Trazado_225428" data-name="Trazado 225428" d="M119.417,125.827l2.3-1.328a1.332,1.332,0,0,0,.557-1.063v-2.455c0-.41-.249-.6-.557-.42l-2.3,1.326a1.333,1.333,0,0,0-.557,1.063v2.456c0,.41.249.6.557.42" transform="translate(19.562 19.831)" fill="#fff"/>
        <path id="Trazado_225429" data-name="Trazado 225429" d="M106.626,169.346,131.685,155a6.118,6.118,0,0,0,2.554-4.88v-8.961c0-1.88-1.144-2.744-2.554-1.93l-25.059,14.348a6.115,6.115,0,0,0-2.554,4.878v8.961c0,1.881,1.144,2.745,2.554,1.931" transform="translate(17.128 22.863)" fill="#173d7a"/>
        <path id="Trazado_225430" data-name="Trazado 225430" d="M132.836,138.952a2.5,2.5,0,0,1,.641,1.864v8.961a6.113,6.113,0,0,1-2.553,4.878l-25.059,14.349a1.845,1.845,0,0,1-1.241.27,1.523,1.523,0,0,0,1.913.065L131.6,154.993a6.115,6.115,0,0,0,2.554-4.878v-8.963c0-1.276-.533-2.067-1.314-2.2" transform="translate(17.219 22.869)" fill="#fff"/>
        <path id="Trazado_225431" data-name="Trazado 225431" d="M112.816,157.441l2.3-1.328a1.332,1.332,0,0,0,.557-1.063v-2.455c0-.41-.249-.6-.557-.422l-2.3,1.328a1.333,1.333,0,0,0-.557,1.063v2.456c0,.41.249.6.557.42" transform="translate(18.475 25.034)" fill="#396caa"/>
        <path id="Trazado_225432" data-name="Trazado 225432" d="M119.417,153.63l2.3-1.328a1.332,1.332,0,0,0,.557-1.063v-2.455c0-.41-.249-.6-.557-.422l-2.3,1.328a1.333,1.333,0,0,0-.557,1.063v2.456c0,.41.249.6.557.42" transform="translate(19.562 24.406)" fill="#fff"/>
        <path id="Trazado_225433" data-name="Trazado 225433" d="M106.626,113.739l25.059-14.348a6.117,6.117,0,0,0,2.554-4.878V85.55c0-1.88-1.144-2.744-2.554-1.93L106.626,97.968a6.115,6.115,0,0,0-2.554,4.878v8.961c0,1.881,1.144,2.745,2.554,1.931" transform="translate(17.128 13.712)" fill="#173d7a"/>
        <path id="Trazado_225434" data-name="Trazado 225434" d="M132.836,83.345a2.5,2.5,0,0,1,.641,1.864v8.961a6.113,6.113,0,0,1-2.553,4.878L105.864,113.4a1.845,1.845,0,0,1-1.241.27,1.523,1.523,0,0,0,1.913.065L131.6,99.386a6.115,6.115,0,0,0,2.554-4.878V85.546c0-1.278-.533-2.068-1.314-2.2" transform="translate(17.219 13.717)" fill="#fff"/>
        <path id="Trazado_225435" data-name="Trazado 225435" d="M112.816,101.834l2.3-1.328a1.332,1.332,0,0,0,.557-1.063V96.988c0-.41-.249-.6-.557-.422l-2.3,1.328a1.333,1.333,0,0,0-.557,1.063v2.456c0,.41.249.6.557.42" transform="translate(18.475 15.882)" fill="#396caa"/>
        <path id="Trazado_225436" data-name="Trazado 225436" d="M119.417,98.023l2.3-1.328a1.332,1.332,0,0,0,.557-1.063V93.177c0-.41-.249-.6-.557-.42l-2.3,1.326a1.333,1.333,0,0,0-.557,1.063V97.6c0,.41.249.6.557.42" transform="translate(19.562 15.255)" fill="#fff"/>
        <path id="Trazado_225437" data-name="Trazado 225437" d="M96.13,80.957,38.314,47.577A5.61,5.61,0,0,1,35.971,43.1V32.076c0-1.726,1.049-2.519,2.343-1.771L96.13,63.684a5.616,5.616,0,0,1,2.342,4.478V79.186c0,1.725-1.049,2.518-2.342,1.771" transform="translate(5.92 4.941)" fill="#5793ce"/>
        <g id="Grupo_157625" data-name="Grupo 157625" transform="translate(44.705 38.968)" opacity="0.4">
          <g id="Grupo_157624" data-name="Grupo 157624">
            <g id="Grupo_157623" data-name="Grupo 157623" clip-path="url(#clip-path-3)">
              <path id="Trazado_225438" data-name="Trazado 225438" d="M94.071,76.525l-54.5-31.463a2.844,2.844,0,0,1-1.188-2.27V34.5c0-.876.532-1.278,1.188-.9l54.5,31.463A2.85,2.85,0,0,1,95.26,67.34v8.287c0,.875-.532,1.279-1.189.9" transform="translate(-38.387 -33.461)" fill="#d4ecff"/>
            </g>
          </g>
        </g>
        <path id="Trazado_225439" data-name="Trazado 225439" d="M50.473,46.573l-8.133-4.7a2.766,2.766,0,0,1-1.154-2.206c0-.85.517-1.24,1.154-.872l8.133,4.7A2.766,2.766,0,0,1,51.627,45.7c0,.849-.517,1.24-1.154.872" transform="translate(6.778 6.363)" fill="#d4ecff"/>
        <path id="Trazado_225440" data-name="Trazado 225440" d="M55.488,47.921c0,.85-.6,1.195-1.333.77a2.947,2.947,0,0,1-1.332-2.309c0-.85.6-1.194,1.332-.769a2.943,2.943,0,0,1,1.333,2.308" transform="translate(8.693 7.477)" fill="#173d7a"/>
        <path id="Trazado_225441" data-name="Trazado 225441" d="M59.526,50.253c0,.85-.6,1.195-1.333.77a2.947,2.947,0,0,1-1.332-2.309c0-.85.6-1.194,1.332-.769a2.943,2.943,0,0,1,1.333,2.308" transform="translate(9.358 7.861)" fill="#173d7a"/>
        <path id="Trazado_225442" data-name="Trazado 225442" d="M63.564,52.584c0,.85-.6,1.195-1.333.77A2.947,2.947,0,0,1,60.9,51.044c0-.85.6-1.195,1.332-.769a2.946,2.946,0,0,1,1.333,2.308" transform="translate(10.023 8.244)" fill="#d4ecff"/>
        <path id="Trazado_225443" data-name="Trazado 225443" d="M67.6,54.915c0,.85-.6,1.195-1.335.77a2.949,2.949,0,0,1-1.331-2.309c0-.849.6-1.194,1.331-.769A2.944,2.944,0,0,1,67.6,54.915" transform="translate(10.687 8.628)" fill="#173d7a"/>
        <path id="Trazado_225444" data-name="Trazado 225444" d="M84.726,67.4l-2.739-1.582a1.772,1.772,0,0,1-.741-1.416v-2.9c0-.546.331-.8.741-.56l2.739,1.581a1.775,1.775,0,0,1,.741,1.415v2.9c0,.545-.332.8-.741.56" transform="translate(13.371 10.016)" fill="#173d7a"/>
        <path id="Trazado_225445" data-name="Trazado 225445" d="M96.13,97.65,38.314,64.27a5.61,5.61,0,0,1-2.343-4.477V48.769c0-1.726,1.049-2.519,2.343-1.771L96.13,80.377a5.616,5.616,0,0,1,2.342,4.478V95.879c0,1.726-1.049,2.519-2.342,1.771" transform="translate(5.92 7.689)" fill="#5793ce"/>
        <g id="Grupo_157628" data-name="Grupo 157628" transform="translate(44.705 58.409)" opacity="0.4">
          <g id="Grupo_157627" data-name="Grupo 157627">
            <g id="Grupo_157626" data-name="Grupo 157626" clip-path="url(#clip-path-4)">
              <path id="Trazado_225446" data-name="Trazado 225446" d="M94.071,93.219l-54.5-31.463a2.848,2.848,0,0,1-1.188-2.271V51.2c0-.876.532-1.278,1.188-.9l54.5,31.463a2.848,2.848,0,0,1,1.189,2.272V92.32c0,.876-.532,1.279-1.189.9" transform="translate(-38.387 -50.155)" fill="#d4ecff"/>
            </g>
          </g>
        </g>
        <path id="Trazado_225447" data-name="Trazado 225447" d="M50.473,63.266l-8.133-4.7a2.766,2.766,0,0,1-1.154-2.206c0-.85.517-1.24,1.154-.872l8.133,4.7a2.766,2.766,0,0,1,1.154,2.206c0,.85-.517,1.24-1.154.872" transform="translate(6.778 9.11)" fill="#d4ecff"/>
        <path id="Trazado_225448" data-name="Trazado 225448" d="M55.488,64.615c0,.85-.6,1.195-1.333.77a2.947,2.947,0,0,1-1.332-2.309c0-.85.6-1.194,1.332-.77a2.947,2.947,0,0,1,1.333,2.309" transform="translate(8.693 10.224)" fill="#fff"/>
        <path id="Trazado_225449" data-name="Trazado 225449" d="M59.526,66.946c0,.85-.6,1.195-1.333.77a2.947,2.947,0,0,1-1.332-2.309c0-.85.6-1.194,1.332-.769a2.943,2.943,0,0,1,1.333,2.308" transform="translate(9.358 10.608)" fill="#173d7a"/>
        <path id="Trazado_225450" data-name="Trazado 225450" d="M63.564,69.277c0,.85-.6,1.195-1.333.77A2.947,2.947,0,0,1,60.9,67.737c0-.85.6-1.195,1.332-.769a2.946,2.946,0,0,1,1.333,2.308" transform="translate(10.023 10.992)" fill="#d4ecff"/>
        <path id="Trazado_225451" data-name="Trazado 225451" d="M67.6,71.608c0,.85-.6,1.195-1.335.77a2.949,2.949,0,0,1-1.331-2.309c0-.85.6-1.194,1.331-.769A2.944,2.944,0,0,1,67.6,71.608" transform="translate(10.687 11.375)" fill="#173d7a"/>
        <path id="Trazado_225452" data-name="Trazado 225452" d="M84.726,84.095l-2.739-1.582a1.772,1.772,0,0,1-.741-1.416V78.2c0-.546.331-.8.741-.56l2.739,1.581a1.775,1.775,0,0,1,.741,1.415v2.9c0,.545-.332.8-.741.56" transform="translate(13.371 12.763)" fill="#173d7a"/>
        <path id="Trazado_225453" data-name="Trazado 225453" d="M96.13,114.343,38.314,80.963a5.61,5.61,0,0,1-2.343-4.477V65.462c0-1.726,1.049-2.519,2.343-1.771L96.13,97.07a5.616,5.616,0,0,1,2.342,4.478v11.024c0,1.726-1.049,2.519-2.342,1.771" transform="translate(5.92 10.436)" fill="#5793ce"/>
        <g id="Grupo_157631" data-name="Grupo 157631" transform="translate(44.705 77.85)" opacity="0.4">
          <g id="Grupo_157630" data-name="Grupo 157630">
            <g id="Grupo_157629" data-name="Grupo 157629" clip-path="url(#clip-path-4)">
              <path id="Trazado_225454" data-name="Trazado 225454" d="M94.071,109.912l-54.5-31.463a2.848,2.848,0,0,1-1.188-2.271V67.889c0-.876.532-1.278,1.188-.9l54.5,31.463a2.848,2.848,0,0,1,1.189,2.272v8.287c0,.876-.532,1.279-1.189.9" transform="translate(-38.387 -66.848)" fill="#d4ecff"/>
            </g>
          </g>
        </g>
        <path id="Trazado_225455" data-name="Trazado 225455" d="M50.473,79.959l-8.133-4.7a2.766,2.766,0,0,1-1.154-2.206c0-.85.517-1.24,1.154-.872l8.133,4.7a2.766,2.766,0,0,1,1.154,2.206c0,.85-.517,1.24-1.154.872" transform="translate(6.778 11.857)" fill="#d4ecff"/>
        <path id="Trazado_225456" data-name="Trazado 225456" d="M55.488,81.308c0,.85-.6,1.195-1.333.77a2.947,2.947,0,0,1-1.332-2.309c0-.85.6-1.194,1.332-.77a2.947,2.947,0,0,1,1.333,2.309" transform="translate(8.693 12.972)" fill="#fff"/>
        <path id="Trazado_225457" data-name="Trazado 225457" d="M59.526,83.639c0,.85-.6,1.195-1.333.77A2.947,2.947,0,0,1,56.86,82.1c0-.85.6-1.195,1.332-.77a2.947,2.947,0,0,1,1.333,2.309" transform="translate(9.358 13.355)" fill="#173d7a"/>
        <path id="Trazado_225458" data-name="Trazado 225458" d="M63.564,85.97c0,.85-.6,1.195-1.333.77A2.947,2.947,0,0,1,60.9,84.43c0-.85.6-1.194,1.332-.769a2.944,2.944,0,0,1,1.333,2.308" transform="translate(10.023 13.739)" fill="#d4ecff"/>
        <path id="Trazado_225459" data-name="Trazado 225459" d="M67.6,88.3c0,.85-.6,1.195-1.335.77a2.949,2.949,0,0,1-1.331-2.309c0-.85.6-1.194,1.331-.77A2.946,2.946,0,0,1,67.6,88.3" transform="translate(10.687 14.123)" fill="#173d7a"/>
        <path id="Trazado_225460" data-name="Trazado 225460" d="M84.726,100.788l-2.739-1.582a1.772,1.772,0,0,1-.741-1.416v-2.9c0-.546.331-.8.741-.56l2.739,1.581a1.775,1.775,0,0,1,.741,1.415v2.9c0,.546-.332.8-.741.56" transform="translate(13.371 15.511)" fill="#173d7a"/>
        <path id="Trazado_225461" data-name="Trazado 225461" d="M96.13,131.036,38.314,97.657a5.614,5.614,0,0,1-2.343-4.478V82.155c0-1.726,1.049-2.519,2.343-1.771L96.13,113.763a5.616,5.616,0,0,1,2.342,4.478v11.024c0,1.726-1.049,2.519-2.342,1.771" transform="translate(5.92 13.183)" fill="#5793ce"/>
        <g id="Grupo_157634" data-name="Grupo 157634" transform="translate(44.705 97.29)" opacity="0.4">
          <g id="Grupo_157633" data-name="Grupo 157633">
            <g id="Grupo_157632" data-name="Grupo 157632" clip-path="url(#clip-path-3)">
              <path id="Trazado_225462" data-name="Trazado 225462" d="M94.071,126.6l-54.5-31.463a2.848,2.848,0,0,1-1.188-2.271V84.582c0-.876.532-1.278,1.188-.9l54.5,31.463a2.848,2.848,0,0,1,1.189,2.272v8.287c0,.876-.532,1.279-1.189.9" transform="translate(-38.387 -83.541)" fill="#d4ecff"/>
            </g>
          </g>
        </g>
        <path id="Trazado_225463" data-name="Trazado 225463" d="M50.473,96.653l-8.133-4.7a2.766,2.766,0,0,1-1.154-2.206c0-.85.517-1.24,1.154-.872l8.133,4.7a2.766,2.766,0,0,1,1.154,2.206c0,.85-.517,1.24-1.154.872" transform="translate(6.778 14.605)" fill="#d4ecff"/>
        <path id="Trazado_225464" data-name="Trazado 225464" d="M55.488,98c0,.85-.6,1.195-1.333.77a2.947,2.947,0,0,1-1.332-2.309c0-.85.6-1.195,1.332-.769A2.943,2.943,0,0,1,55.488,98" transform="translate(8.693 15.719)" fill="#173d7a"/>
        <path id="Trazado_225465" data-name="Trazado 225465" d="M59.526,100.332c0,.85-.6,1.195-1.333.77a2.947,2.947,0,0,1-1.332-2.309c0-.849.6-1.194,1.332-.769a2.941,2.941,0,0,1,1.333,2.308" transform="translate(9.358 16.103)" fill="#173d7a"/>
        <path id="Trazado_225466" data-name="Trazado 225466" d="M63.564,102.663c0,.851-.6,1.195-1.333.771a2.951,2.951,0,0,1-1.332-2.309c0-.85.6-1.194,1.332-.77a2.944,2.944,0,0,1,1.333,2.308" transform="translate(10.023 16.486)" fill="#d4ecff"/>
        <path id="Trazado_225467" data-name="Trazado 225467" d="M67.6,104.995c0,.85-.6,1.195-1.335.77a2.949,2.949,0,0,1-1.331-2.309c0-.85.6-1.194,1.331-.769a2.942,2.942,0,0,1,1.335,2.308" transform="translate(10.687 16.87)" fill="#173d7a"/>
        <path id="Trazado_225468" data-name="Trazado 225468" d="M84.726,117.481,81.987,115.9a1.772,1.772,0,0,1-.741-1.416v-2.9c0-.546.331-.8.741-.56l2.739,1.581a1.775,1.775,0,0,1,.741,1.415v2.9c0,.546-.332.8-.741.56" transform="translate(13.371 18.258)" fill="#d4ecff"/>
        <path id="Trazado_225469" data-name="Trazado 225469" d="M96.13,147.729l-57.816-33.38a5.608,5.608,0,0,1-2.343-4.475V98.849c0-1.727,1.049-2.52,2.343-1.771L96.13,130.457a5.616,5.616,0,0,1,2.342,4.477v11.024c0,1.727-1.049,2.519-2.342,1.771" transform="translate(5.92 15.931)" fill="#5793ce"/>
        <g id="Grupo_157637" data-name="Grupo 157637" transform="translate(44.705 116.73)" opacity="0.4">
          <g id="Grupo_157636" data-name="Grupo 157636">
            <g id="Grupo_157635" data-name="Grupo 157635" clip-path="url(#clip-path-3)">
              <path id="Trazado_225470" data-name="Trazado 225470" d="M94.071,143.3l-54.5-31.463a2.848,2.848,0,0,1-1.188-2.271v-8.288c0-.876.532-1.278,1.188-.9l54.5,31.463a2.848,2.848,0,0,1,1.189,2.271V142.4c0,.876-.532,1.278-1.189.9" transform="translate(-38.387 -100.234)" fill="#d4ecff"/>
            </g>
          </g>
        </g>
        <path id="Trazado_225471" data-name="Trazado 225471" d="M50.473,113.346l-8.133-4.7a2.766,2.766,0,0,1-1.154-2.206c0-.85.517-1.24,1.154-.872l8.133,4.7a2.766,2.766,0,0,1,1.154,2.206c0,.85-.517,1.24-1.154.872" transform="translate(6.778 17.352)" fill="#d4ecff"/>
        <path id="Trazado_225472" data-name="Trazado 225472" d="M55.488,114.694c0,.85-.6,1.195-1.333.77a2.947,2.947,0,0,1-1.332-2.309c0-.849.6-1.194,1.332-.769a2.943,2.943,0,0,1,1.333,2.308" transform="translate(8.693 18.466)" fill="#173d7a"/>
        <path id="Trazado_225473" data-name="Trazado 225473" d="M59.526,117.025c0,.85-.6,1.195-1.333.77a2.947,2.947,0,0,1-1.332-2.309c0-.85.6-1.194,1.332-.769a2.943,2.943,0,0,1,1.333,2.308" transform="translate(9.358 18.85)" fill="#fff"/>
        <path id="Trazado_225474" data-name="Trazado 225474" d="M63.564,119.357c0,.85-.6,1.195-1.333.77a2.947,2.947,0,0,1-1.332-2.309c0-.85.6-1.194,1.332-.769a2.946,2.946,0,0,1,1.333,2.308" transform="translate(10.023 19.234)" fill="#d4ecff"/>
        <path id="Trazado_225475" data-name="Trazado 225475" d="M67.6,121.688c0,.85-.6,1.195-1.335.77a2.949,2.949,0,0,1-1.331-2.309c0-.85.6-1.194,1.331-.769a2.944,2.944,0,0,1,1.335,2.308" transform="translate(10.687 19.617)" fill="#fff"/>
        <path id="Trazado_225476" data-name="Trazado 225476" d="M84.726,134.174l-2.739-1.581a1.772,1.772,0,0,1-.741-1.416v-2.9c0-.546.331-.8.741-.56l2.739,1.581a1.775,1.775,0,0,1,.741,1.415v2.9c0,.546-.332.8-.741.56" transform="translate(13.371 21.005)" fill="#d4ecff"/>
        <path id="Trazado_225477" data-name="Trazado 225477" d="M96.13,164.423l-57.816-33.38a5.61,5.61,0,0,1-2.343-4.477V115.542c0-1.726,1.049-2.519,2.343-1.771L96.13,147.15a5.616,5.616,0,0,1,2.342,4.478v11.024c0,1.726-1.049,2.519-2.342,1.771" transform="translate(5.92 18.678)" fill="#5793ce"/>
        <g id="Grupo_157640" data-name="Grupo 157640" transform="translate(44.705 136.171)" opacity="0.4">
          <g id="Grupo_157639" data-name="Grupo 157639">
            <g id="Grupo_157638" data-name="Grupo 157638" clip-path="url(#clip-path-3)">
              <path id="Trazado_225478" data-name="Trazado 225478" d="M94.071,159.991l-54.5-31.463a2.846,2.846,0,0,1-1.188-2.271v-8.288c0-.876.532-1.278,1.188-.9l54.5,31.463A2.848,2.848,0,0,1,95.26,150.8v8.287c0,.876-.532,1.279-1.189.9" transform="translate(-38.387 -116.927)" fill="#d4ecff"/>
            </g>
          </g>
        </g>
        <path id="Trazado_225479" data-name="Trazado 225479" d="M50.473,130.039l-8.133-4.7a2.766,2.766,0,0,1-1.154-2.206c0-.85.517-1.24,1.154-.872l8.133,4.7a2.766,2.766,0,0,1,1.154,2.206c0,.849-.517,1.24-1.154.872" transform="translate(6.778 20.1)" fill="#d4ecff"/>
        <path id="Trazado_225480" data-name="Trazado 225480" d="M55.488,131.387c0,.85-.6,1.195-1.333.77a2.947,2.947,0,0,1-1.332-2.309c0-.85.6-1.194,1.332-.769a2.941,2.941,0,0,1,1.333,2.308" transform="translate(8.693 21.214)" fill="#173d7a"/>
        <path id="Trazado_225481" data-name="Trazado 225481" d="M59.526,133.719c0,.85-.6,1.195-1.333.77a2.947,2.947,0,0,1-1.332-2.309c0-.85.6-1.194,1.332-.769a2.941,2.941,0,0,1,1.333,2.308" transform="translate(9.358 21.597)" fill="#173d7a"/>
        <path id="Trazado_225482" data-name="Trazado 225482" d="M63.564,136.05c0,.85-.6,1.195-1.333.77A2.947,2.947,0,0,1,60.9,134.51c0-.85.6-1.195,1.332-.769a2.944,2.944,0,0,1,1.333,2.308" transform="translate(10.023 21.981)" fill="#d4ecff"/>
        <path id="Trazado_225483" data-name="Trazado 225483" d="M67.6,138.381c0,.85-.6,1.195-1.335.77a2.949,2.949,0,0,1-1.331-2.309c0-.85.6-1.195,1.331-.769a2.944,2.944,0,0,1,1.335,2.308" transform="translate(10.687 22.365)" fill="#173d7a"/>
        <path id="Trazado_225484" data-name="Trazado 225484" d="M84.726,150.867l-2.739-1.581a1.772,1.772,0,0,1-.741-1.416v-2.9c0-.546.331-.8.741-.56l2.739,1.582a1.775,1.775,0,0,1,.741,1.415v2.9c0,.546-.332.8-.741.56" transform="translate(13.371 23.752)" fill="#173d7a"/>
        <path id="Trazado_225485" data-name="Trazado 225485" d="M96.13,181.116l-57.816-33.38a5.61,5.61,0,0,1-2.343-4.477V132.235c0-1.726,1.049-2.519,2.343-1.771L96.13,163.843a5.616,5.616,0,0,1,2.342,4.478v11.024c0,1.725-1.049,2.518-2.342,1.771" transform="translate(5.92 21.425)" fill="#5793ce"/>
        <g id="Grupo_157643" data-name="Grupo 157643" transform="translate(44.705 155.611)" opacity="0.4">
          <g id="Grupo_157642" data-name="Grupo 157642">
            <g id="Grupo_157641" data-name="Grupo 157641" clip-path="url(#clip-path-3)">
              <path id="Trazado_225486" data-name="Trazado 225486" d="M94.071,176.685l-54.5-31.463a2.848,2.848,0,0,1-1.188-2.271v-8.288c0-.876.532-1.278,1.188-.9l54.5,31.463A2.848,2.848,0,0,1,95.26,167.5v8.287c0,.876-.532,1.279-1.189.9" transform="translate(-38.387 -133.62)" fill="#d4ecff"/>
            </g>
          </g>
        </g>
        <path id="Trazado_225487" data-name="Trazado 225487" d="M50.473,146.732l-8.133-4.7a2.766,2.766,0,0,1-1.154-2.206c0-.85.517-1.24,1.154-.872l8.133,4.7a2.766,2.766,0,0,1,1.154,2.206c0,.85-.517,1.24-1.154.872" transform="translate(6.778 22.847)" fill="#d4ecff"/>
        <path id="Trazado_225488" data-name="Trazado 225488" d="M57.1,149.3c0,1.606-1.127,2.257-2.518,1.453a5.565,5.565,0,0,1-2.518-4.36c0-1.606,1.127-2.257,2.518-1.455A5.567,5.567,0,0,1,57.1,149.3" transform="translate(8.568 23.797)" fill="#fff"/>
        <path id="Trazado_225489" data-name="Trazado 225489" d="M65.128,153.878c0,.85-.6,1.195-1.333.77a2.947,2.947,0,0,1-1.332-2.309c0-.85.6-1.194,1.332-.769a2.941,2.941,0,0,1,1.333,2.308" transform="translate(10.28 24.915)" fill="#173d7a"/>
        <path id="Trazado_225490" data-name="Trazado 225490" d="M69.165,156.209c0,.85-.6,1.195-1.333.77a2.947,2.947,0,0,1-1.332-2.309c0-.85.6-1.194,1.332-.769a2.941,2.941,0,0,1,1.333,2.308" transform="translate(10.944 25.299)" fill="#d4ecff"/>
        <path id="Trazado_225491" data-name="Trazado 225491" d="M73.2,158.54c0,.851-.6,1.195-1.333.771A2.951,2.951,0,0,1,70.537,157c0-.85.6-1.2,1.332-.77A2.941,2.941,0,0,1,73.2,158.54" transform="translate(11.609 25.682)" fill="#173d7a"/>
        <path id="Trazado_225492" data-name="Trazado 225492" d="M84.726,167.56l-2.739-1.582a1.772,1.772,0,0,1-.741-1.416v-2.9c0-.546.331-.8.741-.56l2.739,1.581a1.775,1.775,0,0,1,.741,1.415V167c0,.546-.332.8-.741.56" transform="translate(13.371 26.5)" fill="#d4ecff"/>
        <path id="Trazado_225493" data-name="Trazado 225493" d="M93.884,227.264a1.156,1.156,0,0,1-.574-.153L27.585,189.76a2.548,2.548,0,0,1-.037-4.409l28.2-16.639a3.294,3.294,0,0,0,1.613-2.824V147.549a1.165,1.165,0,1,1,2.329,0v18.339a5.635,5.635,0,0,1-2.758,4.83l-28.2,16.639a.22.22,0,0,0,0,.38L94.46,225.087a1.164,1.164,0,0,1-.576,2.177" transform="translate(4.328 24.092)" fill="#5793ce"/>
        <rect id="Rectángulo_47442" data-name="Rectángulo 47442" width="6.244" height="13.474" transform="translate(74.004 240.111) rotate(-60.169)" fill="#5793ce"/>
        <path id="Trazado_225494" data-name="Trazado 225494" d="M62.987,205.537a4.883,4.883,0,0,1,2.2-3.83c1.217-.707,2.207-.14,2.212,1.268a4.883,4.883,0,0,1-2.2,3.83c-1.217.707-2.207.14-2.212-1.268" transform="translate(10.366 33.147)" fill="#5793ce"/>
        <rect id="Rectángulo_47443" data-name="Rectángulo 47443" width="10.118" height="21.133" transform="translate(82.687 247.323) rotate(-60.168)" fill="#5793ce"/>
        <path id="Trazado_225495" data-name="Trazado 225495" d="M75.6,206.657l-3.956-2.269a8.079,8.079,0,0,0-3.106,5.416l3.956,2.269a8.077,8.077,0,0,0,3.106-5.416" transform="translate(11.279 33.638)" fill="#396caa"/>
        <path id="Trazado_225496" data-name="Trazado 225496" d="M70.1,211.332a7.9,7.9,0,0,1,3.559-6.206c1.972-1.147,3.576-.227,3.583,2.054a7.906,7.906,0,0,1-3.559,6.206c-1.973,1.147-3.576.227-3.583-2.054" transform="translate(11.536 33.678)" fill="#5793ce"/>
        <path id="Trazado_225497" data-name="Trazado 225497" d="M66.214,203.915a.631.631,0,0,1,0-1.2,2.291,2.291,0,0,1,2.072-.006.631.631,0,0,1,0,1.2,2.291,2.291,0,0,1-2.072.006" transform="translate(10.827 33.322)" fill="#d4ecff"/>
        <rect id="Rectángulo_47444" data-name="Rectángulo 47444" width="6.244" height="13.474" transform="translate(59.791 248.7) rotate(-60.169)" fill="#5793ce"/>
        <path id="Trazado_225498" data-name="Trazado 225498" d="M50.783,212.912a4.875,4.875,0,0,1,2.2-3.829c1.218-.708,2.207-.141,2.213,1.267a4.887,4.887,0,0,1-2.2,3.83c-1.217.708-2.208.141-2.21-1.268" transform="translate(8.358 34.361)" fill="#5793ce"/>
        <rect id="Rectángulo_47445" data-name="Rectángulo 47445" width="10.118" height="21.133" transform="translate(68.474 255.912) rotate(-60.168)" fill="#5793ce"/>
        <path id="Trazado_225499" data-name="Trazado 225499" d="M63.392,214.033l-3.956-2.269a8.079,8.079,0,0,0-3.106,5.416l3.956,2.269a8.077,8.077,0,0,0,3.106-5.416" transform="translate(9.271 34.852)" fill="#396caa"/>
        <path id="Trazado_225500" data-name="Trazado 225500" d="M57.892,218.708a7.9,7.9,0,0,1,3.559-6.206c1.973-1.147,3.576-.227,3.583,2.054a7.906,7.906,0,0,1-3.559,6.206c-1.973,1.147-3.576.227-3.583-2.054" transform="translate(9.528 34.892)" fill="#5793ce"/>
        <path id="Trazado_225501" data-name="Trazado 225501" d="M54.009,211.291a.631.631,0,0,1,0-1.2,2.291,2.291,0,0,1,2.072-.006.631.631,0,0,1,0,1.2,2.291,2.291,0,0,1-2.072.006" transform="translate(8.818 34.536)" fill="#d4ecff"/>
        <path id="Trazado_225502" data-name="Trazado 225502" d="M256.575,133.308a1.214,1.214,0,0,1-.263-.029,1.166,1.166,0,0,1-.873-1.4L266.8,82.571a1.165,1.165,0,0,1,2.271.523l-11.358,49.312a1.165,1.165,0,0,1-1.134.9" transform="translate(42.035 13.441)" fill="#5793ce"/>
        <path id="Trazado_225503" data-name="Trazado 225503" d="M243.612,130.321a1.215,1.215,0,0,1-.263-.029,1.166,1.166,0,0,1-.873-1.4l11.358-49.309a1.165,1.165,0,0,1,2.271.523l-11.358,49.311a1.165,1.165,0,0,1-1.134.9" transform="translate(39.901 12.949)" fill="#5793ce"/>
        <path id="Trazado_225504" data-name="Trazado 225504" d="M230.648,127.336a1.215,1.215,0,0,1-.263-.029,1.165,1.165,0,0,1-.873-1.4L240.869,76.6a1.165,1.165,0,0,1,2.271.523l-11.358,49.312a1.165,1.165,0,0,1-1.134.9" transform="translate(37.768 12.458)" fill="#5793ce"/>
        <rect id="Rectángulo_47446" data-name="Rectángulo 47446" width="13.474" height="6.244" transform="translate(270.968 113.975) rotate(-76.814)" fill="#5793ce"/>
        <path id="Trazado_225505" data-name="Trazado 225505" d="M237.576,100.491a4.879,4.879,0,0,1-4.3-1.007A1.345,1.345,0,0,1,233.859,97a4.878,4.878,0,0,1,4.3,1.007,1.345,1.345,0,0,1-.581,2.482" transform="translate(38.289 15.94)" fill="#5793ce"/>
        <rect id="Rectángulo_47447" data-name="Rectángulo 47447" width="21.132" height="10.118" transform="matrix(0.228, -0.974, 0.974, 0.228, 271.618, 102.705)" fill="#5793ce"/>
        <path id="Trazado_225506" data-name="Trazado 225506" d="M235.027,88.472l-1.04,4.439a8.074,8.074,0,0,0,6.079,1.425l1.04-4.438a8.075,8.075,0,0,0-6.079-1.427" transform="translate(38.509 14.541)" fill="#396caa"/>
        <path id="Trazado_225507" data-name="Trazado 225507" d="M241.177,92.443a7.907,7.907,0,0,1-6.965-1.633c-1.663-1.562-1.241-3.362.942-4.021a7.9,7.9,0,0,1,6.965,1.633c1.664,1.561,1.241,3.362-.942,4.021" transform="translate(38.379 14.244)" fill="#5793ce"/>
        <path id="Trazado_225508" data-name="Trazado 225508" d="M235.036,97.616a.631.631,0,0,1-1.145.346,2.286,2.286,0,0,1-.6-1.983.631.631,0,0,1,1.145-.346,2.294,2.294,0,0,1,.6,1.983" transform="translate(38.388 15.697)" fill="#d4ecff"/>
        <rect id="Rectángulo_47448" data-name="Rectángulo 47448" width="13.473" height="6.244" transform="translate(284.965 122.308) rotate(-76.804)" fill="#5793ce"/>
        <path id="Trazado_225509" data-name="Trazado 225509" d="M249.6,107.648a4.879,4.879,0,0,1-4.3-1.007,1.345,1.345,0,0,1,.581-2.482,4.881,4.881,0,0,1,4.3,1.007,1.346,1.346,0,0,1-.582,2.482" transform="translate(40.268 17.118)" fill="#5793ce"/>
        <rect id="Rectángulo_47449" data-name="Rectángulo 47449" width="21.132" height="10.118" transform="translate(285.617 111.04) rotate(-76.807)" fill="#5793ce"/>
        <path id="Trazado_225510" data-name="Trazado 225510" d="M247.047,95.63l-1.041,4.439a8.081,8.081,0,0,0,6.079,1.425l1.041-4.441a8.079,8.079,0,0,0-6.079-1.424" transform="translate(40.487 15.719)" fill="#396caa"/>
        <path id="Trazado_225511" data-name="Trazado 225511" d="M253.2,99.6a7.907,7.907,0,0,1-6.965-1.633c-1.663-1.562-1.241-3.362.942-4.021a7.9,7.9,0,0,1,6.965,1.633c1.664,1.561,1.241,3.362-.942,4.021" transform="translate(40.357 15.422)" fill="#5793ce"/>
        <path id="Trazado_225512" data-name="Trazado 225512" d="M247.055,104.773a.631.631,0,0,1-1.145.346,2.289,2.289,0,0,1-.6-1.983.631.631,0,0,1,1.145-.346,2.294,2.294,0,0,1,.6,1.983" transform="translate(40.366 16.874)" fill="#d4ecff"/>
        <rect id="Rectángulo_47450" data-name="Rectángulo 47450" width="13.474" height="6.244" transform="translate(299.121 130.581) rotate(-76.814)" fill="#5793ce"/>
        <path id="Trazado_225513" data-name="Trazado 225513" d="M261.75,114.751a4.879,4.879,0,0,1-4.3-1.007,1.345,1.345,0,0,1,.581-2.482,4.878,4.878,0,0,1,4.3,1.007,1.345,1.345,0,0,1-.581,2.482" transform="translate(42.268 18.287)" fill="#5793ce"/>
        <rect id="Rectángulo_47451" data-name="Rectángulo 47451" width="21.132" height="10.118" transform="translate(299.772 119.312) rotate(-76.807)" fill="#5793ce"/>
        <path id="Trazado_225514" data-name="Trazado 225514" d="M259.2,102.732l-1.04,4.439a8.073,8.073,0,0,0,6.079,1.425l1.04-4.439a8.075,8.075,0,0,0-6.079-1.425" transform="translate(42.488 16.887)" fill="#396caa"/>
        <path id="Trazado_225515" data-name="Trazado 225515" d="M265.351,106.7a7.907,7.907,0,0,1-6.965-1.633c-1.663-1.562-1.241-3.362.942-4.021a7.9,7.9,0,0,1,6.965,1.633c1.663,1.561,1.241,3.361-.942,4.021" transform="translate(42.358 16.591)" fill="#5793ce"/>
        <path id="Trazado_225516" data-name="Trazado 225516" d="M259.21,111.876a.631.631,0,0,1-1.145.346,2.286,2.286,0,0,1-.6-1.983.631.631,0,0,1,1.145-.346,2.294,2.294,0,0,1,.6,1.983" transform="translate(42.367 18.043)" fill="#d4ecff"/>
        <path id="Trazado_225517" data-name="Trazado 225517" d="M196.321,332.706,61.064,254.615c-3.827-2.209-3.347-6.067,1.071-8.618l92.1-53.156c4.418-2.55,11.1-2.828,14.929-.618l135.257,78.09c3.826,2.209,3.346,6.067-1.073,8.619l-92.1,53.156c-4.418,2.55-11.1,2.828-14.928.618" transform="translate(9.625 31.39)" fill="#b2d3ea"/>
        <path id="Trazado_225518" data-name="Trazado 225518" d="M319.9,151.434,184.647,73.343a5.464,5.464,0,0,0-4.584-.561l.009-.014-.246.092-.061.023-4.888,1.87,4.387,2.147c-.02.082-.044.156-.063.239L157.171,177.425c-1.1,5.018,1.106,10.877,4.932,13.086l132,76.212-.47,5.594,5.342-2.071a7.506,7.506,0,0,0,3.826-5.441l22.032-100.284c1.1-5.019-1.106-10.878-4.932-13.088" transform="translate(25.82 11.933)" fill="#173d7a"/>
        <path id="Trazado_225519" data-name="Trazado 225519" d="M318.8,151.434,183.545,73.343a5.464,5.464,0,0,0-4.584-.561l.009-.014-.246.092-.061.023-4.888,1.87,4.387,2.147c-.02.082-.044.156-.063.239l-14.52,66.093,66.18,51.561,93.314-37.97a10.5,10.5,0,0,0-4.273-5.39" transform="translate(26.922 11.933)" fill="#396caa"/>
        <path id="Trazado_225520" data-name="Trazado 225520" d="M293.925,155.594l10.295-4.383c.19-3.988-1.46-8.107-4.172-10.31l-16.3,6.856Z" transform="translate(46.699 23.189)" fill="#274f89"/>
        <path id="Trazado_225521" data-name="Trazado 225521" d="M290.128,271.52,154.871,193.429c-3.827-2.208-6.034-8.068-4.932-13.086L171.971,80.058c1.1-5.019,5.1-7.3,8.924-5.088l135.257,78.091c3.827,2.209,6.035,8.068,4.932,13.088L299.052,266.433c-1.1,5.018-5.1,7.3-8.924,5.087" transform="translate(24.63 12.2)" fill="#d4ecff"/>
        <path id="Trazado_225522" data-name="Trazado 225522" d="M286.409,263.02,159.2,189.614c-3.5-2.023-5.522-7.385-4.514-11.977L174.851,85.87c1.009-4.593,4.664-6.677,8.166-4.656L310.223,154.62c3.5,2.022,5.522,7.383,4.514,11.977l-20.161,91.769c-1.009,4.592-4.664,6.677-8.166,4.655" transform="translate(25.416 13.239)" fill="#fff"/>
        <path id="Trazado_225523" data-name="Trazado 225523" d="M286.409,263.02,159.2,189.614c-3.5-2.023-5.522-7.385-4.514-11.977L174.851,85.87c1.009-4.593,4.664-6.677,8.166-4.656L310.223,154.62c3.5,2.022,5.522,7.383,4.514,11.977l-20.161,91.769c-1.009,4.592-4.664,6.677-8.166,4.655" transform="translate(25.416 13.239)" fill="#fff"/>
        <path id="Trazado_225524" data-name="Trazado 225524" d="M307,256.838,288.51,254.4,169.163,185.491c-3.827-2.209-10.51-1.932-14.929.618L69.665,234.918l-11.18-1.477v6.343H58.5c-.073,1.466.762,2.876,2.567,3.919L196.32,321.8c3.826,2.209,10.509,1.932,14.928-.62l92.1-53.156c2.485-1.435,3.724-3.283,3.652-5.019Z" transform="translate(9.625 30.282)" fill="#173d7a"/>
        <path id="Trazado_225525" data-name="Trazado 225525" d="M217.325,209.849l-8.479-4.9H115.623L69.665,231.469l-11.179-1.477v6.343h.01c-.073,1.466.762,2.876,2.567,3.919L196.32,318.347a14,14,0,0,0,7.7,1.443Z" transform="translate(9.626 33.731)" fill="#396caa"/>
        <path id="Trazado_225526" data-name="Trazado 225526" d="M63.447,227.11l-4.961-.655V232.8h.01c-.073,1.466.762,2.876,2.567,3.919l2.384,1.377Z" transform="translate(9.626 37.27)" fill="#5793ce"/>
        <path id="Trazado_225527" data-name="Trazado 225527" d="M178.011,304.976a17.324,17.324,0,0,0,12.683-.787v-14.15H178.011Z" transform="translate(29.297 47.734)" fill="#274f89"/>
        <path id="Trazado_225528" data-name="Trazado 225528" d="M196.321,316.945,61.064,238.854c-3.827-2.209-3.347-6.067,1.071-8.618l92.1-53.156c4.418-2.55,11.1-2.828,14.929-.618l135.257,78.09c3.826,2.209,3.346,6.067-1.073,8.619l-92.1,53.156c-4.418,2.55-11.1,2.828-14.928.618" transform="translate(9.625 28.796)" fill="#d4ecff"/>
        <path id="Trazado_225529" data-name="Trazado 225529" d="M303.347,252.52l-92.1,53.156c-4.418,2.55-11.1,2.828-14.928.62L61.063,228.2a5.031,5.031,0,0,1-2.379-2.6c-.6,1.81.164,3.639,2.379,4.919l135.257,78.09c3.826,2.209,10.509,1.932,14.928-.618l92.1-53.156c2.97-1.715,4.151-4.019,3.451-6.017a7.2,7.2,0,0,1-3.451,3.7" transform="translate(9.626 37.13)" fill="#fff"/>
        <path id="Trazado_225530" data-name="Trazado 225530" d="M111.008,208.911l-6.12-3.533c-.491-.283-.43-.779.137-1.106l7.224-4.17a2.13,2.13,0,0,1,1.917-.08l6.12,3.533c.491.284.43.779-.137,1.108l-7.224,4.17a2.13,2.13,0,0,1-1.917.079" transform="translate(17.208 32.888)" fill="#173d7a"/>
        <path id="Trazado_225531" data-name="Trazado 225531" d="M119.123,213.6,113,210.063c-.491-.284-.43-.779.137-1.106l7.224-4.17a2.13,2.13,0,0,1,1.917-.08l6.12,3.533c.491.284.43.779-.137,1.108l-7.224,4.17a2.13,2.13,0,0,1-1.917.079" transform="translate(18.543 33.659)" fill="#173d7a"/>
        <path id="Trazado_225532" data-name="Trazado 225532" d="M127.238,218.281l-6.12-3.533c-.491-.284-.43-.779.137-1.106l7.224-4.17a2.13,2.13,0,0,1,1.917-.08l6.12,3.533c.491.284.43.779-.137,1.108l-7.224,4.17a2.13,2.13,0,0,1-1.917.079" transform="translate(19.879 34.43)" fill="#173d7a"/>
        <path id="Trazado_225533" data-name="Trazado 225533" d="M138.462,214.318l-6.12-3.533c-.491-.284-.43-.779.137-1.106l6.064-3.5a2.134,2.134,0,0,1,1.917-.079l6.12,3.533c.491.284.43.779-.137,1.108l-6.064,3.5a2.13,2.13,0,0,1-1.917.079" transform="translate(21.726 33.888)" fill="#173d7a"/>
        <path id="Trazado_225534" data-name="Trazado 225534" d="M146.577,219l-6.12-3.533c-.491-.283-.43-.779.137-1.106l6.064-3.5a2.13,2.13,0,0,1,1.917-.08l6.12,3.533c.491.284.43.779-.137,1.108l-6.064,3.5a2.13,2.13,0,0,1-1.917.079" transform="translate(23.062 34.659)" fill="#173d7a"/>
        <path id="Trazado_225535" data-name="Trazado 225535" d="M154.693,223.689l-6.12-3.533c-.491-.283-.43-.779.137-1.106l6.064-3.5a2.13,2.13,0,0,1,1.917-.08l6.12,3.533c.491.284.43.779-.137,1.107l-6.064,3.5a2.13,2.13,0,0,1-1.917.079" transform="translate(24.397 35.43)" fill="#173d7a"/>
        <path id="Trazado_225536" data-name="Trazado 225536" d="M162.808,228.374l-6.12-3.533c-.491-.284-.43-.779.137-1.106l6.064-3.5a2.13,2.13,0,0,1,1.917-.08l6.12,3.533c.491.284.43.779-.137,1.108l-6.064,3.5a2.13,2.13,0,0,1-1.917.079" transform="translate(25.733 36.201)" fill="#173d7a"/>
        <path id="Trazado_225537" data-name="Trazado 225537" d="M170.923,233.059l-6.12-3.533c-.491-.283-.43-.779.137-1.106l6.064-3.5a2.13,2.13,0,0,1,1.917-.08l6.12,3.533c.491.284.43.779-.137,1.108l-6.064,3.5a2.13,2.13,0,0,1-1.917.079" transform="translate(27.069 36.972)" fill="#173d7a"/>
        <path id="Trazado_225538" data-name="Trazado 225538" d="M179.038,237.745l-6.12-3.533c-.491-.284-.43-.779.137-1.106l6.064-3.5a2.13,2.13,0,0,1,1.917-.08l6.12,3.533c.491.284.43.779-.137,1.108l-6.064,3.5a2.13,2.13,0,0,1-1.917.079" transform="translate(28.404 37.743)" fill="#173d7a"/>
        <path id="Trazado_225539" data-name="Trazado 225539" d="M187.154,242.43l-6.12-3.533c-.491-.284-.43-.779.137-1.106l6.064-3.5a2.13,2.13,0,0,1,1.917-.08l6.12,3.533c.491.284.43.779-.137,1.108l-6.064,3.5a2.13,2.13,0,0,1-1.917.079" transform="translate(29.74 38.514)" fill="#173d7a"/>
        <path id="Trazado_225540" data-name="Trazado 225540" d="M195.269,247.115l-6.12-3.533c-.491-.283-.43-.779.137-1.106l6.064-3.5a2.13,2.13,0,0,1,1.917-.08l6.12,3.533c.491.284.43.779-.137,1.108l-6.064,3.5a2.13,2.13,0,0,1-1.917.079" transform="translate(31.075 39.286)" fill="#173d7a"/>
        <path id="Trazado_225541" data-name="Trazado 225541" d="M203.384,251.8l-6.12-3.533c-.491-.284-.43-.779.137-1.106l6.064-3.5a2.13,2.13,0,0,1,1.917-.08l6.12,3.533c.491.284.43.779-.137,1.108l-6.064,3.5a2.13,2.13,0,0,1-1.917.079" transform="translate(32.411 40.057)" fill="#173d7a"/>
        <path id="Trazado_225542" data-name="Trazado 225542" d="M211.5,256.486l-6.12-3.533c-.491-.283-.43-.779.137-1.106l6.064-3.5a2.13,2.13,0,0,1,1.917-.08l6.12,3.533c.491.284.43.779-.137,1.108l-6.064,3.5a2.13,2.13,0,0,1-1.917.079" transform="translate(33.746 40.828)" fill="#173d7a"/>
        <path id="Trazado_225543" data-name="Trazado 225543" d="M150.419,212.1l-6.12-3.533c-.491-.284-.43-.779.137-1.106l6.064-3.5a2.134,2.134,0,0,1,1.917-.079l6.12,3.533c.491.284.43.779-.137,1.108l-6.064,3.5a2.13,2.13,0,0,1-1.917.079" transform="translate(23.694 33.523)" fill="#396caa"/>
        <path id="Trazado_225544" data-name="Trazado 225544" d="M142.183,207.344l-6.12-3.533c-.491-.284-.43-.779.137-1.106l6.064-3.5a2.134,2.134,0,0,1,1.917-.08l6.12,3.533c.491.284.43.779-.137,1.107l-6.064,3.5a2.13,2.13,0,0,1-1.917.079" transform="translate(22.338 32.74)" fill="#396caa"/>
        <path id="Trazado_225545" data-name="Trazado 225545" d="M134.931,203.157l-13.181-7.609c-.491-.284-.43-.779.137-1.108l6.064-3.5a2.13,2.13,0,0,1,1.917-.079l13.181,7.609c.491.284.43.779-.137,1.107l-6.064,3.5a2.13,2.13,0,0,1-1.917.079" transform="translate(19.983 31.38)" fill="#173d7a"/>
        <path id="Trazado_225546" data-name="Trazado 225546" d="M140.347,197.162l-10.7-6.176c-.491-.283-.43-.779.137-1.106l6.064-3.5a2.13,2.13,0,0,1,1.917-.08l10.7,6.176c.491.284.43.779-.137,1.108l-6.064,3.5a2.13,2.13,0,0,1-1.917.079" transform="translate(21.283 30.629)" fill="#173d7a"/>
        <path id="Trazado_225547" data-name="Trazado 225547" d="M158.535,216.785l-6.12-3.533c-.491-.284-.43-.779.137-1.106l6.064-3.5a2.13,2.13,0,0,1,1.917-.08l6.12,3.533c.491.284.43.779-.137,1.108l-6.064,3.5a2.13,2.13,0,0,1-1.917.079" transform="translate(25.03 34.294)" fill="#396caa"/>
        <path id="Trazado_225548" data-name="Trazado 225548" d="M166.65,221.47l-6.12-3.533c-.491-.283-.43-.779.137-1.106l6.064-3.5a2.13,2.13,0,0,1,1.917-.08l6.12,3.533c.491.284.43.779-.137,1.108l-6.064,3.5a2.13,2.13,0,0,1-1.917.079" transform="translate(26.365 35.065)" fill="#173d7a"/>
        <path id="Trazado_225549" data-name="Trazado 225549" d="M174.765,226.156l-6.12-3.533c-.491-.284-.43-.779.137-1.106l6.064-3.5a2.13,2.13,0,0,1,1.917-.08l6.12,3.533c.491.284.43.779-.137,1.108l-6.064,3.5a2.13,2.13,0,0,1-1.917.079" transform="translate(27.701 35.836)" fill="#173d7a"/>
        <path id="Trazado_225550" data-name="Trazado 225550" d="M182.88,230.841l-6.12-3.533c-.491-.283-.43-.779.137-1.106l6.064-3.5a2.13,2.13,0,0,1,1.917-.08l6.12,3.533c.491.284.43.779-.137,1.108l-6.064,3.5a2.13,2.13,0,0,1-1.917.079" transform="translate(29.036 36.607)" fill="#173d7a"/>
        <path id="Trazado_225551" data-name="Trazado 225551" d="M191,235.526l-6.12-3.533c-.491-.283-.43-.779.137-1.106l6.064-3.5a2.13,2.13,0,0,1,1.917-.08l6.12,3.533c.491.284.43.779-.137,1.108l-6.064,3.5a2.13,2.13,0,0,1-1.917.079" transform="translate(30.372 37.378)" fill="#173d7a"/>
        <path id="Trazado_225552" data-name="Trazado 225552" d="M199.111,240.212l-6.12-3.533c-.491-.284-.43-.779.137-1.106l6.064-3.5a2.13,2.13,0,0,1,1.917-.08l6.12,3.533c.491.284.43.779-.137,1.108l-6.064,3.5a2.13,2.13,0,0,1-1.917.079" transform="translate(31.708 38.149)" fill="#173d7a"/>
        <path id="Trazado_225553" data-name="Trazado 225553" d="M207.226,244.9l-6.12-3.533c-.491-.283-.43-.779.137-1.106l6.064-3.5a2.13,2.13,0,0,1,1.917-.08l6.12,3.533c.491.284.43.779-.137,1.108l-6.064,3.5a2.13,2.13,0,0,1-1.917.079" transform="translate(33.043 38.92)" fill="#173d7a"/>
        <path id="Trazado_225554" data-name="Trazado 225554" d="M215.341,249.582l-6.12-3.533c-.491-.284-.43-.779.137-1.106l6.064-3.5a2.134,2.134,0,0,1,1.917-.079l6.12,3.533c.491.284.43.779-.137,1.108l-6.064,3.5a2.13,2.13,0,0,1-1.917.079" transform="translate(34.379 39.691)" fill="#173d7a"/>
        <path id="Trazado_225555" data-name="Trazado 225555" d="M223.457,254.268l-6.12-3.533c-.491-.284-.43-.779.137-1.106l6.064-3.5a2.13,2.13,0,0,1,1.917-.08l6.12,3.533c.491.284.43.779-.137,1.108l-6.064,3.5a2.13,2.13,0,0,1-1.917.079" transform="translate(35.714 40.463)" fill="#173d7a"/>
        <path id="Trazado_225556" data-name="Trazado 225556" d="M238.906,263.187l-13.353-7.709c-.491-.283-.43-.779.137-1.106l6.064-3.5a2.13,2.13,0,0,1,1.917-.08l13.353,7.709c.491.284.43.779-.137,1.108l-6.064,3.5a2.13,2.13,0,0,1-1.917.079" transform="translate(37.067 41.243)" fill="#173d7a"/>
        <path id="Trazado_225557" data-name="Trazado 225557" d="M254.411,253.9l-11.271-6.507c-.491-.284-.43-.78.137-1.108l6.064-3.5a2.13,2.13,0,0,1,1.917-.079l11.271,6.507c.491.284.43.779-.137,1.108l-6.064,3.5a2.13,2.13,0,0,1-1.917.079" transform="translate(39.961 39.912)" fill="#173d7a"/>
        <path id="Trazado_225558" data-name="Trazado 225558" d="M172.746,215.868l-6.12-3.533c-.491-.284-.43-.779.137-1.106l6.064-3.5a2.134,2.134,0,0,1,1.917-.079l6.12,3.533c.491.284.43.779-.137,1.108l-6.064,3.5a2.13,2.13,0,0,1-1.917.079" transform="translate(27.369 34.143)" fill="#173d7a"/>
        <path id="Trazado_225559" data-name="Trazado 225559" d="M164.429,211.066l-6.12-3.533c-.491-.284-.43-.779.137-1.106l6.064-3.5a2.134,2.134,0,0,1,1.917-.08l6.12,3.533c.491.284.43.779-.137,1.107l-6.064,3.5a2.13,2.13,0,0,1-1.917.079" transform="translate(26 33.353)" fill="#173d7a"/>
        <path id="Trazado_225560" data-name="Trazado 225560" d="M156.112,206.265l-6.12-3.533c-.491-.284-.43-.779.137-1.106l6.064-3.5a2.134,2.134,0,0,1,1.917-.079l6.12,3.533c.491.284.43.779-.137,1.108l-6.064,3.5a2.13,2.13,0,0,1-1.917.079" transform="translate(24.631 32.562)" fill="#396caa"/>
        <path id="Trazado_225561" data-name="Trazado 225561" d="M147.795,201.463l-6.12-3.533c-.491-.284-.43-.779.137-1.106l6.064-3.5a2.134,2.134,0,0,1,1.917-.079l6.12,3.533c.491.284.43.779-.137,1.108l-6.064,3.5a2.13,2.13,0,0,1-1.917.079" transform="translate(23.262 31.772)" fill="#173d7a"/>
        <path id="Trazado_225562" data-name="Trazado 225562" d="M180.861,220.554l-6.12-3.533c-.491-.284-.43-.779.137-1.106l6.064-3.5a2.13,2.13,0,0,1,1.917-.08l6.12,3.533c.491.284.43.779-.137,1.108l-6.064,3.5a2.13,2.13,0,0,1-1.917.079" transform="translate(28.704 34.914)" fill="#173d7a"/>
        <path id="Trazado_225563" data-name="Trazado 225563" d="M188.977,225.239l-6.12-3.533c-.491-.283-.43-.779.137-1.106l6.064-3.5a2.13,2.13,0,0,1,1.917-.08l6.12,3.533c.491.284.43.779-.137,1.108l-6.064,3.5a2.13,2.13,0,0,1-1.917.079" transform="translate(30.04 35.685)" fill="#173d7a"/>
        <path id="Trazado_225564" data-name="Trazado 225564" d="M197.092,229.924l-6.12-3.533c-.491-.284-.43-.779.137-1.106l6.064-3.5a2.13,2.13,0,0,1,1.917-.08l6.12,3.533c.491.284.43.779-.137,1.107l-6.064,3.5a2.13,2.13,0,0,1-1.917.079" transform="translate(31.375 36.456)" fill="#173d7a"/>
        <path id="Trazado_225565" data-name="Trazado 225565" d="M205.207,234.61l-6.12-3.533c-.491-.283-.43-.779.137-1.106l6.064-3.5a2.13,2.13,0,0,1,1.917-.08l6.12,3.533c.491.284.43.779-.137,1.108l-6.064,3.5a2.13,2.13,0,0,1-1.917.079" transform="translate(32.711 37.227)" fill="#173d7a"/>
        <path id="Trazado_225566" data-name="Trazado 225566" d="M213.322,239.295l-6.12-3.533c-.491-.284-.43-.779.137-1.106l6.064-3.5a2.13,2.13,0,0,1,1.917-.08l6.12,3.533c.491.284.43.779-.137,1.108l-6.064,3.5a2.13,2.13,0,0,1-1.917.079" transform="translate(34.046 37.998)" fill="#173d7a"/>
        <path id="Trazado_225567" data-name="Trazado 225567" d="M221.438,243.98l-6.12-3.533c-.491-.284-.43-.779.137-1.106l6.064-3.5a2.13,2.13,0,0,1,1.917-.08l6.12,3.533c.491.284.43.779-.137,1.107l-6.064,3.5a2.13,2.13,0,0,1-1.917.079" transform="translate(35.382 38.77)" fill="#173d7a"/>
        <path id="Trazado_225568" data-name="Trazado 225568" d="M229.553,248.666l-6.12-3.533c-.491-.283-.43-.779.137-1.106l6.064-3.5a2.13,2.13,0,0,1,1.917-.08l6.12,3.533c.491.284.43.779-.137,1.108l-6.064,3.5a2.13,2.13,0,0,1-1.917.079" transform="translate(36.718 39.541)" fill="#173d7a"/>
        <path id="Trazado_225569" data-name="Trazado 225569" d="M237.668,253.351l-6.12-3.533c-.491-.284-.43-.779.137-1.106l6.064-3.5a2.13,2.13,0,0,1,1.917-.08l6.12,3.533c.491.284.43.779-.137,1.108l-6.064,3.5a2.13,2.13,0,0,1-1.917.079" transform="translate(38.053 40.312)" fill="#173d7a"/>
        <path id="Trazado_225570" data-name="Trazado 225570" d="M245.783,258.036l-6.12-3.533c-.491-.283-.43-.779.137-1.106l6.064-3.5a2.13,2.13,0,0,1,1.917-.08l6.12,3.533c.491.284.43.779-.137,1.107l-6.064,3.5a2.13,2.13,0,0,1-1.917.079" transform="translate(39.389 41.083)" fill="#173d7a"/>
        <path id="Trazado_225571" data-name="Trazado 225571" d="M168.473,204.279l-6.12-3.533c-.491-.284-.43-.779.137-1.106l6.064-3.5a2.13,2.13,0,0,1,1.917-.08l6.12,3.533c.491.284.43.779-.137,1.108l-6.064,3.5a2.13,2.13,0,0,1-1.917.079" transform="translate(26.665 32.236)" fill="#173d7a"/>
        <path id="Trazado_225572" data-name="Trazado 225572" d="M160.4,199.617l-6.12-3.533c-.491-.283-.43-.779.137-1.106l6.064-3.5a2.13,2.13,0,0,1,1.917-.08l6.12,3.533c.491.284.43.779-.137,1.108l-6.064,3.5a2.13,2.13,0,0,1-1.917.079" transform="translate(25.336 31.468)" fill="#173d7a"/>
        <path id="Trazado_225573" data-name="Trazado 225573" d="M152.323,194.955l-6.12-3.533c-.491-.283-.43-.779.137-1.106l6.064-3.5a2.13,2.13,0,0,1,1.917-.08l6.12,3.533c.491.284.43.779-.137,1.108l-6.064,3.5a2.13,2.13,0,0,1-1.917.079" transform="translate(24.007 30.701)" fill="#173d7a"/>
        <path id="Trazado_225574" data-name="Trazado 225574" d="M144.248,190.293l-6.12-3.533c-.491-.284-.43-.779.137-1.106l6.064-3.5a2.13,2.13,0,0,1,1.917-.08l6.12,3.533c.491.284.43.779-.137,1.108l-6.064,3.5a2.13,2.13,0,0,1-1.917.079" transform="translate(22.678 29.934)" fill="#173d7a"/>
        <path id="Trazado_225575" data-name="Trazado 225575" d="M152.552,185.168l-6.12-3.533c-.491-.284-.43-.779.137-1.106l2.005-1.158a2.13,2.13,0,0,1,1.917-.079l6.12,3.533c.491.283.43.779-.139,1.106l-2,1.158a2.13,2.13,0,0,1-1.917.079" transform="translate(24.045 29.476)" fill="#173d7a"/>
        <path id="Trazado_225576" data-name="Trazado 225576" d="M163.09,191.252l-6.12-3.533c-.491-.284-.43-.779.137-1.106l2-1.158a2.132,2.132,0,0,1,1.918-.079l6.12,3.533c.491.283.43.779-.139,1.106l-2,1.158a2.13,2.13,0,0,1-1.917.079" transform="translate(25.779 30.477)" fill="#173d7a"/>
        <path id="Trazado_225577" data-name="Trazado 225577" d="M171.131,195.895l-6.12-3.533c-.491-.284-.43-.779.137-1.106l2.005-1.158a2.13,2.13,0,0,1,1.917-.079l6.12,3.533c.491.283.43.779-.139,1.106l-2,1.158a2.13,2.13,0,0,1-1.917.079" transform="translate(27.103 31.241)" fill="#173d7a"/>
        <path id="Trazado_225578" data-name="Trazado 225578" d="M179.172,200.538,173.052,197c-.491-.284-.43-.779.137-1.106l2-1.158a2.13,2.13,0,0,1,1.917-.079l6.121,3.533c.49.283.43.779-.139,1.106l-2,1.158a2.13,2.13,0,0,1-1.917.079" transform="translate(28.426 32.006)" fill="#173d7a"/>
        <path id="Trazado_225579" data-name="Trazado 225579" d="M187.213,205.18l-6.12-3.533c-.491-.284-.43-.779.137-1.106l2-1.158a2.132,2.132,0,0,1,1.918-.079l6.119,3.533c.491.283.43.779-.137,1.106l-2,1.158a2.13,2.13,0,0,1-1.917.079" transform="translate(29.749 32.77)" fill="#173d7a"/>
        <path id="Trazado_225580" data-name="Trazado 225580" d="M232.106,231.1l-6.12-3.533c-.491-.284-.43-.779.137-1.106l2-1.158a2.132,2.132,0,0,1,1.918-.079l6.119,3.533c.493.283.431.779-.137,1.106l-2,1.158a2.13,2.13,0,0,1-1.917.079" transform="translate(37.138 37.035)" fill="#173d7a"/>
        <path id="Trazado_225581" data-name="Trazado 225581" d="M240.147,235.742l-6.12-3.533c-.491-.284-.43-.779.137-1.106l2-1.158a2.132,2.132,0,0,1,1.918-.079l6.12,3.533c.491.283.43.779-.139,1.106l-2,1.158a2.13,2.13,0,0,1-1.917.079" transform="translate(38.461 37.799)" fill="#173d7a"/>
        <path id="Trazado_225582" data-name="Trazado 225582" d="M248.189,240.384l-6.12-3.533c-.491-.284-.43-.779.137-1.106l2.005-1.158a2.13,2.13,0,0,1,1.917-.079l6.12,3.533c.491.283.43.779-.139,1.106l-2,1.158a2.13,2.13,0,0,1-1.917.079" transform="translate(39.785 38.563)" fill="#173d7a"/>
        <path id="Trazado_225583" data-name="Trazado 225583" d="M256.23,245.027l-6.12-3.533c-.491-.283-.43-.779.137-1.106l2-1.158a2.132,2.132,0,0,1,1.918-.079l6.12,3.533c.49.283.429.779-.139,1.106l-2,1.158a2.13,2.13,0,0,1-1.917.079" transform="translate(41.108 39.328)" fill="#173d7a"/>
        <path id="Trazado_225584" data-name="Trazado 225584" d="M176.588,208.965l-6.12-3.533c-.491-.283-.43-.779.137-1.106l6.064-3.5a2.13,2.13,0,0,1,1.917-.08l6.12,3.533c.491.284.43.779-.137,1.107l-6.064,3.5a2.13,2.13,0,0,1-1.917.079" transform="translate(28.001 33.007)" fill="#173d7a"/>
        <path id="Trazado_225585" data-name="Trazado 225585" d="M184.7,213.65l-6.121-3.533c-.49-.283-.43-.779.137-1.106l6.064-3.5a2.13,2.13,0,0,1,1.917-.08l6.12,3.533c.491.284.431.779-.136,1.108l-6.064,3.5a2.13,2.13,0,0,1-1.917.079" transform="translate(29.336 33.778)" fill="#173d7a"/>
        <path id="Trazado_225586" data-name="Trazado 225586" d="M192.819,218.335,186.7,214.8c-.491-.284-.43-.779.137-1.106l6.064-3.5a2.13,2.13,0,0,1,1.917-.08l6.12,3.533c.491.284.43.779-.137,1.108l-6.064,3.5a2.13,2.13,0,0,1-1.917.079" transform="translate(30.672 34.549)" fill="#173d7a"/>
        <path id="Trazado_225587" data-name="Trazado 225587" d="M200.934,223.021l-6.12-3.533c-.491-.283-.43-.779.137-1.106l6.064-3.5a2.13,2.13,0,0,1,1.917-.08l6.12,3.533c.491.284.43.779-.137,1.107l-6.064,3.5a2.13,2.13,0,0,1-1.917.079" transform="translate(32.008 35.32)" fill="#173d7a"/>
        <path id="Trazado_225588" data-name="Trazado 225588" d="M209.049,227.706l-6.12-3.533c-.491-.284-.43-.779.137-1.106l6.064-3.5a2.13,2.13,0,0,1,1.917-.08l6.12,3.533c.491.284.43.779-.137,1.107l-6.064,3.5a2.13,2.13,0,0,1-1.917.079" transform="translate(33.343 36.091)" fill="#173d7a"/>
        <path id="Trazado_225589" data-name="Trazado 225589" d="M217.165,232.391l-6.121-3.533c-.49-.284-.43-.779.137-1.106l6.064-3.5a2.13,2.13,0,0,1,1.917-.08l6.12,3.533c.491.284.43.779-.137,1.108l-6.064,3.5a2.128,2.128,0,0,1-1.916.079" transform="translate(34.679 36.862)" fill="#173d7a"/>
        <path id="Trazado_225590" data-name="Trazado 225590" d="M225.28,237.077l-6.12-3.533c-.491-.283-.43-.779.137-1.106l6.064-3.5a2.13,2.13,0,0,1,1.917-.08l6.12,3.533c.491.284.43.779-.137,1.108L227.2,237a2.13,2.13,0,0,1-1.917.079" transform="translate(36.015 37.633)" fill="#173d7a"/>
        <path id="Trazado_225591" data-name="Trazado 225591" d="M233.395,241.762l-6.12-3.533c-.491-.284-.43-.779.137-1.106l6.064-3.5a2.13,2.13,0,0,1,1.917-.08l6.12,3.533c.491.284.43.779-.137,1.107l-6.064,3.5a2.13,2.13,0,0,1-1.917.079" transform="translate(37.35 38.404)" fill="#173d7a"/>
        <path id="Trazado_225592" data-name="Trazado 225592" d="M241.51,246.447l-6.12-3.533c-.491-.283-.43-.779.137-1.106l6.064-3.5a2.13,2.13,0,0,1,1.917-.08l6.12,3.533c.491.284.43.779-.137,1.108l-6.064,3.5a2.13,2.13,0,0,1-1.917.079" transform="translate(38.686 39.176)" fill="#173d7a"/>
        <path id="Trazado_225593" data-name="Trazado 225593" d="M131.874,210.514l-18.023-10.406c-.491-.284-.43-.779.137-1.108l6.064-3.5a2.13,2.13,0,0,1,1.917-.079l18.023,10.406c.491.284.43.779-.137,1.108l-6.064,3.5a2.13,2.13,0,0,1-1.917.079" transform="translate(18.683 32.131)" fill="#173d7a"/>
        <path id="Trazado_225594" data-name="Trazado 225594" d="M231.572,268.075,213.549,257.67c-.491-.284-.43-.779.137-1.108l6.064-3.5a2.13,2.13,0,0,1,1.917-.079l18.023,10.406c.491.284.43.779-.137,1.108l-6.064,3.5a2.13,2.13,0,0,1-1.917.079" transform="translate(35.091 41.604)" fill="#173d7a"/>
        <path id="Trazado_225595" data-name="Trazado 225595" d="M197.436,258.81l-6.12-3.533c-.491-.284-.43-.779.137-1.106L198.677,250a2.134,2.134,0,0,1,1.917-.079l6.12,3.533c.491.284.43.779-.137,1.108l-7.224,4.17a2.13,2.13,0,0,1-1.917.079" transform="translate(31.432 41.1)" fill="#173d7a"/>
        <path id="Trazado_225596" data-name="Trazado 225596" d="M139.021,225.085l-9.787-5.651c-.491-.284-.43-.779.137-1.106l7.224-4.172a2.134,2.134,0,0,1,1.917-.079l9.787,5.651c.491.284.43.779-.137,1.108l-7.224,4.17a2.13,2.13,0,0,1-1.917.079" transform="translate(21.215 35.201)" fill="#173d7a"/>
        <path id="Trazado_225597" data-name="Trazado 225597" d="M190.135,254.595l-9.787-5.651c-.491-.284-.43-.779.137-1.108l7.224-4.17a2.134,2.134,0,0,1,1.917-.079l9.787,5.651c.491.284.43.779-.137,1.108l-7.224,4.17a2.13,2.13,0,0,1-1.917.079" transform="translate(29.627 40.058)" fill="#173d7a"/>
        <path id="Trazado_225598" data-name="Trazado 225598" d="M150.729,231.845l-9.787-5.651c-.491-.284-.43-.779.137-1.108l7.224-4.17a2.134,2.134,0,0,1,1.917-.079l9.787,5.651c.491.284.43.779-.137,1.108l-7.224,4.17a2.13,2.13,0,0,1-1.917.079" transform="translate(23.141 36.314)" fill="#173d7a"/>
        <path id="Trazado_225599" data-name="Trazado 225599" d="M150.23,220.843l42.553,24.568a.583.583,0,0,1,0,1.1l-7.366,4.252a2.112,2.112,0,0,1-1.912,0L140.952,226.2Z" transform="translate(23.198 36.346)" fill="#173d7a"/>
        <path id="Trazado_225600" data-name="Trazado 225600" d="M219.9,266.044l6.817,3.936c.4.232.352.638-.113.907l-2.956,1.7a1.743,1.743,0,0,1-1.571.065l-6.817-3.935c-.4-.233-.352-.639.113-.907l2.956-1.706a1.743,1.743,0,0,1,1.571-.065" transform="translate(35.383 43.759)" fill="#173d7a"/>
        <path id="Trazado_225601" data-name="Trazado 225601" d="M211.716,261.32l6.817,3.936c.4.232.352.638-.113.907l-2.956,1.706a1.746,1.746,0,0,1-1.571.064L207.077,264c-.4-.233-.353-.639.112-.907l2.956-1.706a1.743,1.743,0,0,1,1.571-.065" transform="translate(34.036 42.982)" fill="#173d7a"/>
        <path id="Trazado_225602" data-name="Trazado 225602" d="M203.6,256.634l6.817,3.936c.4.232.352.638-.113.907l-2.956,1.7a1.743,1.743,0,0,1-1.571.065l-6.817-3.935c-.4-.233-.352-.639.113-.907l2.956-1.706a1.743,1.743,0,0,1,1.571-.065" transform="translate(32.7 42.211)" fill="#173d7a"/>
        <path id="Trazado_225603" data-name="Trazado 225603" d="M216.2,258.732l6.817,3.936c.4.232.352.638-.113.906l-2.956,1.706a1.743,1.743,0,0,1-1.571.065l-6.816-3.935c-.4-.233-.353-.639.112-.907l2.956-1.706a1.743,1.743,0,0,1,1.571-.065" transform="translate(34.773 42.556)" fill="#173d7a"/>
        <path id="Trazado_225604" data-name="Trazado 225604" d="M206.193,116.367l-9.044-5.222a2.586,2.586,0,0,1-1.1-2.677,1.258,1.258,0,0,1,1.934-.925l9.044,5.222a2.586,2.586,0,0,1,1.1,2.679,1.258,1.258,0,0,1-1.934.924" transform="translate(32.256 17.666)" fill="#d4ecff"/>
        <path id="Trazado_225605" data-name="Trazado 225605" d="M225.3,127.4l-13.336-7.7a2.586,2.586,0,0,1-1.1-2.679,1.258,1.258,0,0,1,1.934-.924l13.336,7.7a2.586,2.586,0,0,1,1.1,2.679,1.258,1.258,0,0,1-1.934.924" transform="translate(34.694 19.074)" fill="#d4ecff"/>
        <path id="Trazado_225606" data-name="Trazado 225606" d="M192.657,152.615l-9.044-5.222a2.584,2.584,0,0,1-1.1-2.676,1.258,1.258,0,0,1,1.934-.926l9.044,5.223a2.585,2.585,0,0,1,1.1,2.677,1.258,1.258,0,0,1-1.934.924" transform="translate(30.028 23.632)" fill="#d4ecff"/>
        <path id="Trazado_225607" data-name="Trazado 225607" d="M209.752,162.486l-13.336-7.7a2.586,2.586,0,0,1-1.1-2.679,1.258,1.258,0,0,1,1.934-.924l13.336,7.7a2.586,2.586,0,0,1,1.1,2.679,1.258,1.258,0,0,1-1.934.924" transform="translate(32.135 24.848)" fill="#d4ecff"/>
        <path id="Trazado_225608" data-name="Trazado 225608" d="M182.805,110.207l-5.649-3.262a2.587,2.587,0,0,1-1.1-2.679,1.259,1.259,0,0,1,1.936-.924l5.649,3.262a2.587,2.587,0,0,1,1.1,2.679,1.259,1.259,0,0,1-1.936.924" transform="translate(28.965 16.975)" fill="#d4ecff"/>
        <path id="Trazado_225609" data-name="Trazado 225609" d="M199.4,127.131l-17.261-9.966a2.585,2.585,0,0,1-1.1-2.677,1.259,1.259,0,0,1,1.936-.925l17.261,9.966a2.587,2.587,0,0,1,1.1,2.679,1.259,1.259,0,0,1-1.936.924" transform="translate(29.785 18.657)" fill="#d4ecff"/>
        <path id="Trazado_225610" data-name="Trazado 225610" d="M184.793,133.388l-5.649-3.262a2.587,2.587,0,0,1-1.1-2.679,1.259,1.259,0,0,1,1.936-.924l5.649,3.262a2.584,2.584,0,0,1,1.1,2.679,1.258,1.258,0,0,1-1.934.924" transform="translate(29.292 20.79)" fill="#d4ecff"/>
        <path id="Trazado_225611" data-name="Trazado 225611" d="M212.5,178.758l-15.089-8.712a2.587,2.587,0,0,1-1.1-2.679,1.259,1.259,0,0,1,1.936-.924l15.089,8.712a2.586,2.586,0,0,1,1.1,2.679,1.258,1.258,0,0,1-1.934.924" transform="translate(32.298 27.36)" fill="#d4ecff"/>
        <path id="Trazado_225612" data-name="Trazado 225612" d="M179.778,145.18l-3.626-2.094a2.588,2.588,0,0,1-1.1-2.679,1.259,1.259,0,0,1,1.936-.924l3.626,2.094a2.589,2.589,0,0,1,1.1,2.679,1.259,1.259,0,0,1-1.936.924" transform="translate(28.8 22.923)" fill="#d4ecff"/>
        <path id="Trazado_225613" data-name="Trazado 225613" d="M177.664,158.647l-4.5-2.6a2.585,2.585,0,0,1-1.1-2.677,1.259,1.259,0,0,1,1.936-.925l4.5,2.6a2.586,2.586,0,0,1,1.1,2.679,1.258,1.258,0,0,1-1.934.924" transform="translate(28.308 25.056)" fill="#d4ecff"/>
        <path id="Trazado_225614" data-name="Trazado 225614" d="M193.75,167.934l-11.873-6.856a2.584,2.584,0,0,1-1.1-2.677,1.259,1.259,0,0,1,1.936-.924l11.873,6.855a2.586,2.586,0,0,1,1.1,2.679,1.258,1.258,0,0,1-1.934.924" transform="translate(29.742 25.884)" fill="#d4ecff"/>
        <path id="Trazado_225615" data-name="Trazado 225615" d="M180.2,167.456l-8.538-4.928a2.588,2.588,0,0,1-1.1-2.679,1.258,1.258,0,0,1,1.934-.924l8.538,4.928a2.586,2.586,0,0,1,1.1,2.679,1.258,1.258,0,0,1-1.934.924" transform="translate(28.062 26.122)" fill="#d4ecff"/>
        <path id="Trazado_225616" data-name="Trazado 225616" d="M222.257,184.425l-5.483-3.165a2.588,2.588,0,0,1-1.1-2.679,1.258,1.258,0,0,1,1.934-.924l5.483,3.165a2.587,2.587,0,0,1,1.1,2.679,1.259,1.259,0,0,1-1.936.924" transform="translate(35.486 29.205)" fill="#d4ecff"/>
        <path id="Trazado_225617" data-name="Trazado 225617" d="M204.173,144.576l-15.089-8.712a2.586,2.586,0,0,1-1.1-2.679,1.259,1.259,0,0,1,1.936-.924L205,140.974a2.586,2.586,0,0,1,1.1,2.679,1.258,1.258,0,0,1-1.934.924" transform="translate(30.928 21.734)" fill="#d4ecff"/>
        <path id="Trazado_225618" data-name="Trazado 225618" d="M206.94,138.829l-26.3-15.184a2.586,2.586,0,0,1-1.1-2.679,1.258,1.258,0,0,1,1.934-.924l26.3,15.184a2.586,2.586,0,0,1,1.1,2.679,1.258,1.258,0,0,1-1.934.924" transform="translate(29.539 19.723)" fill="#d4ecff"/>
        <path id="Trazado_225619" data-name="Trazado 225619" d="M192.738,145.318l-15.089-8.712a2.586,2.586,0,0,1-1.1-2.679A1.259,1.259,0,0,1,178.48,133l15.089,8.712a2.586,2.586,0,0,1,1.1,2.679,1.258,1.258,0,0,1-1.934.924" transform="translate(29.046 21.856)" fill="#d4ecff"/>
        <path id="Trazado_225620" data-name="Trazado 225620" d="M212.644,149.466l-5.483-3.164a2.588,2.588,0,0,1-1.1-2.679,1.257,1.257,0,0,1,1.934-.924l5.483,3.165a2.585,2.585,0,0,1,1.1,2.677,1.258,1.258,0,0,1-1.934.924" transform="translate(33.904 23.452)" fill="#d4ecff"/>
        <path id="Trazado_225621" data-name="Trazado 225621" d="M262.927,149.122l-32.466-18.745a2.586,2.586,0,0,1-1.1-2.679,1.258,1.258,0,0,1,1.934-.924l32.467,18.745a2.584,2.584,0,0,1,1.1,2.679,1.258,1.258,0,0,1-1.934.924" transform="translate(37.738 20.831)" fill="#d4ecff"/>
        <path id="Trazado_225622" data-name="Trazado 225622" d="M192.8,160.04l-18.139-10.473a2.586,2.586,0,0,1-1.1-2.677,1.259,1.259,0,0,1,1.936-.925l18.138,10.473a2.586,2.586,0,0,1,1.1,2.679,1.258,1.258,0,0,1-1.934.924" transform="translate(28.554 23.989)" fill="#d4ecff"/>
        <path id="Trazado_225623" data-name="Trazado 225623" d="M191.986,108.164l-13.336-7.7a2.586,2.586,0,0,1-1.1-2.679,1.258,1.258,0,0,1,1.934-.924l13.336,7.7a2.586,2.586,0,0,1,1.1,2.679,1.258,1.258,0,0,1-1.934.924" transform="translate(29.211 15.908)" fill="#d4ecff"/>
        <path id="Trazado_225624" data-name="Trazado 225624" d="M179.138,174.186l-15.445-8.917a2.589,2.589,0,0,1-1.1-2.679,1.259,1.259,0,0,1,1.936-.924l15.445,8.917a2.589,2.589,0,0,1,1.1,2.679,1.259,1.259,0,0,1-1.936.924" transform="translate(26.75 26.574)" fill="#d4ecff"/>
        <path id="Trazado_225625" data-name="Trazado 225625" d="M267.984,201.616l-9.044-5.222a2.586,2.586,0,0,1-1.1-2.677,1.258,1.258,0,0,1,1.934-.925l9.044,5.222a2.586,2.586,0,0,1,1.1,2.679,1.258,1.258,0,0,1-1.934.924" transform="translate(42.425 31.696)" fill="#d4ecff"/>
        <path id="Trazado_225626" data-name="Trazado 225626" d="M274.725,176.131l-17.261-9.966a2.585,2.585,0,0,1-1.1-2.677,1.258,1.258,0,0,1,1.936-.924l17.261,9.965a2.586,2.586,0,0,1,1.1,2.679,1.258,1.258,0,0,1-1.934.924" transform="translate(42.182 26.721)" fill="#d4ecff"/>
        <path id="Trazado_225627" data-name="Trazado 225627" d="M260.121,182.388l-5.649-3.262a2.587,2.587,0,0,1-1.1-2.679,1.259,1.259,0,0,1,1.936-.924l5.649,3.262a2.586,2.586,0,0,1,1.1,2.679,1.258,1.258,0,0,1-1.934.924" transform="translate(41.69 28.854)" fill="#d4ecff"/>
        <path id="Trazado_225628" data-name="Trazado 225628" d="M255.106,194.181l-3.626-2.094a2.585,2.585,0,0,1-1.1-2.679,1.258,1.258,0,0,1,1.934-.924l3.626,2.094a2.589,2.589,0,0,1,1.1,2.679,1.259,1.259,0,0,1-1.936.924" transform="translate(41.198 30.987)" fill="#d4ecff"/>
        <path id="Trazado_225629" data-name="Trazado 225629" d="M279.5,193.577l-15.089-8.712a2.587,2.587,0,0,1-1.1-2.679,1.259,1.259,0,0,1,1.936-.924l15.089,8.712a2.589,2.589,0,0,1,1.1,2.679,1.259,1.259,0,0,1-1.936.924" transform="translate(43.326 29.799)" fill="#d4ecff"/>
        <path id="Trazado_225630" data-name="Trazado 225630" d="M282.268,187.831l-26.3-15.184a2.586,2.586,0,0,1-1.1-2.679,1.258,1.258,0,0,1,1.934-.924l26.3,15.184a2.586,2.586,0,0,1,1.1,2.679,1.257,1.257,0,0,1-1.933.924" transform="translate(41.936 27.788)" fill="#d4ecff"/>
        <path id="Trazado_225631" data-name="Trazado 225631" d="M268.065,194.319l-15.089-8.712a2.586,2.586,0,0,1-1.1-2.679,1.259,1.259,0,0,1,1.936-.924l15.089,8.712A2.587,2.587,0,0,1,270,193.4a1.259,1.259,0,0,1-1.936.924" transform="translate(41.444 29.921)" fill="#d4ecff"/>
        <path id="Trazado_225632" data-name="Trazado 225632" d="M268.123,209.04l-18.139-10.473a2.585,2.585,0,0,1-1.1-2.677,1.258,1.258,0,0,1,1.934-.925l18.139,10.474a2.585,2.585,0,0,1,1.1,2.677,1.258,1.258,0,0,1-1.934.924" transform="translate(40.951 32.054)" fill="#d4ecff"/>
        <path id="Trazado_225633" data-name="Trazado 225633" d="M300.256,117.485l14.252-5.669-3.2-20.968-6.919,6.13Z" transform="translate(49.416 14.952)" fill="#5793ce"/>
        <path id="Trazado_225634" data-name="Trazado 225634" d="M218.352,31.723l34.431-13.76s-6.342,13.732-6.354,13.76-18.385,4.255-18.385,4.255Z" transform="translate(35.936 2.956)" fill="#5793ce"/>
        <path id="Trazado_225635" data-name="Trazado 225635" d="M323.5,90.2a15.175,15.175,0,0,0-5.58-1.918c1.9-12.673-3.574-26.048-14.081-32.118A22.913,22.913,0,0,0,294,53.067c4.117-15.361-2.243-32.817-15.2-40.3a23.875,23.875,0,0,0-20.54-1.979l.006-.012-.317.127c-.167.064-.332.13-.5.2l-10.789,4.244,4.3,3.7c-5.833,1.839-10.878,6.557-13.543,13.53-4.913,12.86.127,28.5,11.257,34.929l66.16,55.769c8.358,4.828,13.431,2.812,17.121-6.844s-.1-21.4-8.453-26.229" transform="translate(38.764 1.534)" fill="#5793ce"/>
        <path id="Trazado_225636" data-name="Trazado 225636" d="M239.739,26.91l37.113-14.827a23.713,23.713,0,0,0-19.289-1.3l.006-.012-.317.127c-.167.064-.332.129-.5.2l-10.789,4.244,4.3,3.7a20.592,20.592,0,0,0-10.531,7.868" transform="translate(39.456 1.534)" fill="#5793ce"/>
        <path id="Trazado_225637" data-name="Trazado 225637" d="M287.582,76.112l24.507-9.774a29.527,29.527,0,0,0-12.9-16.692,23.877,23.877,0,0,0-2.475-1.245L262.955,61.883Z" transform="translate(43.277 7.966)" fill="#5793ce"/>
        <path id="Trazado_225638" data-name="Trazado 225638" d="M251.55,16.8l10.517,6.077L280.32,15.61a29.014,29.014,0,0,0-4.161-2.934,25.765,25.765,0,0,0-7.137-2.83Z" transform="translate(41.4 1.62)" fill="#d4ecff"/>
        <path id="Trazado_225639" data-name="Trazado 225639" d="M306.248,60.3l-17.64,7.022,5.2,7.311,15.136-6.019a33.989,33.989,0,0,0-2.7-8.315" transform="translate(47.499 9.924)" fill="#d4ecff"/>
        <path id="Trazado_225640" data-name="Trazado 225640" d="M316.566,94.18a15.175,15.175,0,0,0-5.579-1.918c1.9-12.673-3.716-26.131-14.223-32.2a22.2,22.2,0,0,0-9.7-3.012c4.117-15.36-2.243-32.817-15.2-40.3-13.939-8.052-30.225-1.524-36.378,14.581q-.313.819-.58,1.651c-10.635-4.731-22.393.6-27.008,12.681-4.913,12.86.127,28.5,11.256,34.928l84.058,48.565c8.358,4.828,18.123.914,21.813-8.743s-.1-21.4-8.453-26.229" transform="translate(33.905 2.188)" fill="#d4ecff"/>
        <path id="Trazado_225641" data-name="Trazado 225641" d="M312.258,93.346a15.154,15.154,0,0,0-5.579-1.918c1.9-12.673-3.716-26.131-14.223-32.2a22.2,22.2,0,0,0-9.7-3.012c4.117-15.361-2.243-32.817-15.2-40.3a23.731,23.731,0,0,0-24.829.114,23.755,23.755,0,0,1,23.094.856c12.961,7.488,19.32,24.945,15.2,40.3a22.2,22.2,0,0,1,9.7,3.012c10.507,6.071,16.122,19.529,14.222,32.2a15.168,15.168,0,0,1,5.58,1.918c8.358,4.828,12.142,16.572,8.454,26.229a17.332,17.332,0,0,1-6.569,8.435,16.832,16.832,0,0,0,8.3-9.405c3.689-9.658-.1-21.4-8.453-26.229" transform="translate(39.947 2.051)" fill="#fff"/>
        <path id="Trazado_225642" data-name="Trazado 225642" d="M233.1,30.571c.157-.483.328-.964.507-1.442a18.712,18.712,0,0,0-16.69,1.7,18.771,18.771,0,0,1,16.183-.26" transform="translate(35.701 4.594)" fill="#fff"/>
        <path id="Trazado_225643" data-name="Trazado 225643" d="M224.633,34.9a11.038,11.038,0,0,0-4.432.9c-3.338,1.457-6.224,4.834-7.917,9.269-4.317,11.3.3,25.618,10.076,31.267l84.058,48.565c2.641,1.526,5.376,1.912,7.5,1.061s4.013-3.091,5.179-6.143c3.116-8.154-.215-18.489-7.273-22.566a10.9,10.9,0,0,0-4-1.4l-3.412-.46.439-2.925c1.753-11.688-3.644-24.022-12.831-29.33a17.691,17.691,0,0,0-7.733-2.457l-4.23-.274.95-3.548c3.776-14.086-2.328-30.354-13.895-37.037-5.378-3.107-11.045-3.735-15.951-1.769s-8.917,6.473-11.292,12.688c-.184.482-.353.968-.512,1.456l-2.266,6.963L230.5,36.215a14.482,14.482,0,0,0-5.866-1.319" transform="translate(34.67 2.784)" fill="#396caa"/>
        <path id="Trazado_225644" data-name="Trazado 225644" d="M258.029,79.15l2.9-1.166-2.252-1.733Z" transform="translate(42.466 12.549)" fill="#5793ce"/>
        <path id="Trazado_225645" data-name="Trazado 225645" d="M256.786,51.96l2.812-1.14L259.4,52Z" transform="translate(42.262 8.364)" fill="#5793ce"/>
        <path id="Trazado_225646" data-name="Trazado 225646" d="M266.029,73.218l2.935-1.183-4.28-4.308Z" transform="translate(43.561 11.147)" fill="#5793ce"/>
        <path id="Trazado_225647" data-name="Trazado 225647" d="M261.56,80.651l-11.217-6.476a1.818,1.818,0,0,1-.766-1.849l2.688-12.731,13.279,7.668-2.688,12.731a.844.844,0,0,1-1.3.658" transform="translate(41.07 9.808)" fill="#5793ce"/>
        <path id="Trazado_225648" data-name="Trazado 225648" d="M261.371,50.846l-15.158,7.642c-.644.325-.43,1.534.352,1.984l12.374,7.144,12.374,7.145c.78.451,1.4-.275,1.021-1.191l-8.988-21.583c-.388-.933-1.319-1.47-1.974-1.14" transform="translate(40.459 8.352)" fill="#5793ce"/>
        <path id="Trazado_225649" data-name="Trazado 225649" d="M259.035,81.671l-11.217-6.476a1.817,1.817,0,0,1-.766-1.849l2.688-12.731,13.279,7.668-2.687,12.731a.846.846,0,0,1-1.3.658" transform="translate(40.654 9.976)" fill="#d4ecff"/>
        <path id="Trazado_225650" data-name="Trazado 225650" d="M258.846,51.866l-15.158,7.642c-.644.325-.43,1.534.352,1.984l12.374,7.144,12.374,7.145c.78.451,1.4-.275,1.021-1.191L260.82,53.006c-.388-.933-1.319-1.471-1.974-1.14" transform="translate(40.043 8.52)" fill="#d4ecff"/>
        <path id="Trazado_225651" data-name="Trazado 225651" d="M13.337,300.463,58.185,274.7c3.537-2.032,9.707-1.763,13.78.6l91.973,53.358c4.074,2.364,4.509,5.928.972,7.96L120.063,362.38c-3.537,2.032-9.707,1.764-13.78-.6L14.309,308.422c-4.074-2.363-4.509-5.927-.972-7.959" transform="translate(1.801 44.985)" fill="#b2d3ea"/>
        <path id="Trazado_225652" data-name="Trazado 225652" d="M122.363,355.847l45.925-26.386c2.01-1.155,3.021-2.7,3.073-4.317h0l.038-7.906-1.476,2.543a11.056,11.056,0,0,0-2.881-2.32L74.563,263.808c-5.241-3.04-13.176-3.385-17.725-.772L10.912,289.423a8.107,8.107,0,0,0-1.282.9l-1.761-2.257L7.831,295.5l0,0c-.065,2.047,1.4,4.224,4.324,5.921l92.482,53.653c5.239,3.04,13.175,3.385,17.724.772" transform="translate(1.289 43.001)" fill="#396caa"/>
        <path id="Trazado_225653" data-name="Trazado 225653" d="M10.94,284.378l45.925-26.386c4.549-2.614,12.484-2.269,17.724.771l92.482,53.654c5.241,3.04,5.8,7.622,1.252,10.237L122.4,349.04c-4.549,2.613-12.484,2.269-17.725-.772L12.191,294.615c-5.239-3.04-5.8-7.623-1.251-10.237" transform="translate(1.294 42.171)" fill="#d4ecff"/>
        <path id="Trazado_225654" data-name="Trazado 225654" d="M168.32,317.951,122.4,344.338c-4.549,2.613-12.484,2.267-17.724-.772L12.19,289.911c-2.539-1.472-3.968-3.306-4.261-5.1-.366,2.2,1.078,4.611,4.261,6.458l92.482,53.653c5.239,3.04,13.175,3.385,17.724.772L168.32,319.3c2.345-1.347,3.323-3.219,3.009-5.132a5.557,5.557,0,0,1-3.009,3.779" transform="translate(1.296 46.873)" fill="#fff"/>
        <path id="Trazado_225655" data-name="Trazado 225655" d="M13.337,285.147,58.185,259.38c3.537-2.032,9.707-1.763,13.78.6l91.973,53.358c4.074,2.364,4.509,5.928.972,7.96l-44.848,25.766c-3.537,2.032-9.707,1.764-13.78-.6L14.309,293.106c-4.074-2.363-4.509-5.927-.972-7.959" transform="translate(1.801 42.464)" fill="#fff"/>
        <path id="Trazado_225656" data-name="Trazado 225656" d="M77.446,290.962l-16.6-9.586c-.615-.355-.538-.976.172-1.386a2.67,2.67,0,0,1,2.4-.1l16.6,9.586c.616.355.539.976-.172,1.387a2.671,2.671,0,0,1-2.4.1" transform="translate(9.945 46.025)" fill="#b2d3ea"/>
        <path id="Trazado_225657" data-name="Trazado 225657" d="M62.425,287.3,56.5,283.883c-.616-.355-.539-.976.172-1.387a2.671,2.671,0,0,1,2.4-.1L65,285.816c.616.355.539.976-.172,1.387a2.671,2.671,0,0,1-2.4.1" transform="translate(9.231 46.437)" fill="#b2d3ea"/>
        <path id="Trazado_225658" data-name="Trazado 225658" d="M70.959,292.229l-5.922-3.419c-.616-.355-.539-.976.172-1.387a2.671,2.671,0,0,1,2.4-.1l5.922,3.419c.616.355.539.976-.172,1.387a2.671,2.671,0,0,1-2.4.1" transform="translate(10.635 47.248)" fill="#396caa"/>
        <path id="Trazado_225659" data-name="Trazado 225659" d="M89.65,303.021,73.57,293.737c-.615-.355-.538-.976.172-1.387a2.673,2.673,0,0,1,2.4-.1l16.079,9.284c.616.355.539.976-.172,1.387a2.671,2.671,0,0,1-2.4.1" transform="translate(12.04 48.059)" fill="#b2d3ea"/>
        <path id="Trazado_225660" data-name="Trazado 225660" d="M72.9,298.365,52.16,286.389c-.615-.355-.538-.976.172-1.386a2.67,2.67,0,0,1,2.4-.1l20.742,11.977c.616.355.539.976-.172,1.387a2.67,2.67,0,0,1-2.4.1" transform="translate(8.516 46.85)" fill="#b2d3ea"/>
        <path id="Trazado_225661" data-name="Trazado 225661" d="M98.565,318.2,47.819,288.9c-.616-.355-.538-.976.172-1.387a2.667,2.667,0,0,1,2.4-.1l50.747,29.3c.616.355.539.976-.172,1.387a2.671,2.671,0,0,1-2.4.1" transform="translate(7.802 47.262)" fill="#396caa"/>
        <path id="Trazado_225662" data-name="Trazado 225662" d="M108.235,308.737l-29.2-16.858c-.616-.355-.539-.976.172-1.387a2.671,2.671,0,0,1,2.4-.1l29.2,16.858c.616.355.539.976-.172,1.387a2.671,2.671,0,0,1-2.4.1" transform="translate(12.939 47.753)" fill="#b2d3ea"/>
        <path id="Trazado_225663" data-name="Trazado 225663" d="M74.048,330.4l-4.271-2.463a1.843,1.843,0,0,1-.769-1.471c0-.566.344-.827.769-.581l4.271,2.463a1.844,1.844,0,0,1,.77,1.471c0,.566-.345.827-.77.581" transform="translate(11.357 53.618)" fill="#d4ecff"/>
        <path id="Trazado_225664" data-name="Trazado 225664" d="M79.817,333.74l-4.271-2.463a1.843,1.843,0,0,1-.769-1.471c0-.566.344-.827.769-.581l4.271,2.463a1.844,1.844,0,0,1,.77,1.471c0,.566-.345.827-.77.581" transform="translate(12.307 54.168)" fill="#d4ecff"/>
      </g>
    </g>
  </g>
</svg>
