<svg id="Grupo_157056" data-name="Grupo 157056" xmlns="http://www.w3.org/2000/svg" xmlns:xlink="http://www.w3.org/1999/xlink" width="362.51" height="378.199" viewBox="0 0 362.51 378.199">
  <defs>
    <clipPath id="clip-path">
      <rect id="Rect치ngulo_47091" data-name="Rect치ngulo 47091" width="362.51" height="378.199" fill="#15616d"/>
    </clipPath>
  </defs>
  <g id="Grupo_157055" data-name="Grupo 157055" clip-path="url(#clip-path)">
    <path id="Trazado_223376" data-name="Trazado 223376" d="M124.3,40.893s-.651,26.342-.651,32.268.824,18.311-9.605,22.712-25.192,10.166-25.192,10.166l13.984,9s14.1-6.134,21.352-10.6c10.194-6.286,9.128-23.459,9.128-34.375a235.786,235.786,0,0,0-1.86-25.142Z" transform="translate(186.534 85.85)" fill="#5e2e2e"/>
    <path id="Trazado_223377" data-name="Trazado 223377" d="M92.633,122.848h0a5.6,5.6,0,0,1-5.582-5.582V65.757a5.582,5.582,0,1,1,11.164,0v51.509a5.6,5.6,0,0,1-5.582,5.582" transform="translate(182.753 126.33)" fill="#723f3f"/>
    <path id="Trazado_223378" data-name="Trazado 223378" d="M148.089,75.5c0,10.374-15.81,18.785-35.314,18.785S77.457,85.871,77.457,75.5,93.27,56.712,112.774,56.712s35.314,8.412,35.314,18.785" transform="translate(162.612 119.06)" fill="#dfc8ed"/>
    <rect id="Rect치ngulo_47090" data-name="Rect치ngulo 47090" width="70.632" height="4.088" transform="translate(240.069 191.012)" fill="#dfc8ed"/>
    <path id="Trazado_223379" data-name="Trazado 223379" d="M148.089,74.353c0,10.374-15.81,18.785-35.314,18.785S77.457,84.727,77.457,74.353,93.27,55.568,112.774,55.568s35.314,8.412,35.314,18.785" transform="translate(162.612 116.659)" fill="#fff"/>
    <path id="Trazado_223380" data-name="Trazado 223380" d="M145.29,73.1c0,9.884-15.063,17.9-33.647,17.9S78,82.98,78,73.1s15.063-17.9,33.647-17.9,33.647,8.015,33.647,17.9" transform="translate(163.744 115.88)" fill="#723f3f"/>
    <path id="Trazado_223381" data-name="Trazado 223381" d="M79.78,57.262,78,68.758h67.294l-1.785-11.5Z" transform="translate(163.742 120.215)" fill="#723f3f"/>
    <path id="Trazado_223382" data-name="Trazado 223382" d="M143.075,69.825c0,9.5-14.477,17.2-32.327,17.2s-32.327-7.7-32.327-17.2,14.471-17.2,32.327-17.2,32.327,7.7,32.327,17.2" transform="translate(164.638 110.491)" fill="#7c4a4a"/>
    <path id="Trazado_223383" data-name="Trazado 223383" d="M84.537,91.755c0,3.462-2.1,7.482-4.7,8.982s-4.7-.093-4.7-3.555,2.1-7.482,4.7-8.982,4.7.093,4.7,3.555" transform="translate(157.741 183.984)" fill="#723f3f"/>
    <path id="Trazado_223384" data-name="Trazado 223384" d="M85.207,89.833,81.581,87.7l-5.917,13.151,3.778,2.176Z" transform="translate(158.849 184.123)" fill="#723f3f"/>
    <path id="Trazado_223385" data-name="Trazado 223385" d="M85.762,92.463c0,3.462-2.1,7.482-4.7,8.982s-4.7-.093-4.7-3.555,2.1-7.482,4.7-8.982,4.7.093,4.7,3.555" transform="translate(160.313 185.471)" fill="#5e2e2e"/>
    <path id="Trazado_223386" data-name="Trazado 223386" d="M76.133,121.293h0a3.913,3.913,0,0,1,1.432-5.346l74.271-42.868a3.914,3.914,0,1,1,3.914,6.778L81.479,122.725a3.913,3.913,0,0,1-5.346-1.432" transform="translate(158.729 152.317)" fill="#723f3f"/>
    <path id="Trazado_223387" data-name="Trazado 223387" d="M151.835,122.725,77.565,79.857a3.914,3.914,0,1,1,3.915-6.778l74.271,42.864a3.915,3.915,0,0,1-3.914,6.781" transform="translate(158.729 152.317)" fill="#723f3f"/>
    <path id="Trazado_223388" data-name="Trazado 223388" d="M108.03,77.914c0,3.462-2.1,7.482-4.7,8.982s-4.7-.093-4.7-3.555,2.1-7.482,4.7-8.982,4.7.093,4.7,3.555" transform="translate(207.062 154.927)" fill="#723f3f"/>
    <path id="Trazado_223389" data-name="Trazado 223389" d="M108.7,75.991l-3.626-2.129L99.158,87.009l3.778,2.179Z" transform="translate(208.171 155.065)" fill="#723f3f"/>
    <path id="Trazado_223390" data-name="Trazado 223390" d="M109.256,78.622c0,3.462-2.1,7.482-4.7,8.982s-4.7-.093-4.7-3.555,2.1-7.482,4.7-8.982,4.7.093,4.7,3.555" transform="translate(209.636 156.413)" fill="#5e2e2e"/>
    <path id="Trazado_223391" data-name="Trazado 223391" d="M106.556,92.109c0,3.462-2.1,7.482-4.7,8.982s-4.7-.093-4.7-3.555,2.1-7.482,4.7-8.982,4.7.093,4.7,3.555" transform="translate(203.959 184.728)" fill="#723f3f"/>
    <path id="Trazado_223392" data-name="Trazado 223392" d="M107.223,90.187,103.6,88.058,97.68,101.205l3.778,2.179Z" transform="translate(205.069 184.867)" fill="#723f3f"/>
    <path id="Trazado_223393" data-name="Trazado 223393" d="M107.778,92.817c0,3.462-2.1,7.482-4.7,8.982s-4.7-.093-4.7-3.555,2.1-7.482,4.7-8.982,4.7.093,4.7,3.555" transform="translate(206.533 186.214)" fill="#5e2e2e"/>
    <path id="Trazado_223394" data-name="Trazado 223394" d="M83.582,78.7c0,3.462-2.1,7.482-4.7,8.982s-4.7-.093-4.7-3.555,2.1-7.482,4.7-8.982,4.7.093,4.7,3.555" transform="translate(155.728 156.581)" fill="#723f3f"/>
    <path id="Trazado_223395" data-name="Trazado 223395" d="M84.25,76.779,80.62,74.65,74.707,87.8l3.778,2.176Z" transform="translate(156.838 156.719)" fill="#723f3f"/>
    <path id="Trazado_223396" data-name="Trazado 223396" d="M84.81,79.41c0,3.462-2.108,7.485-4.7,8.982s-4.7-.093-4.7-3.552,2.108-7.485,4.7-8.985,4.7.093,4.7,3.555" transform="translate(158.3 158.067)" fill="#5e2e2e"/>
    <path id="Trazado_223397" data-name="Trazado 223397" d="M142.391,132.77,96.712,106.264s-4.252-31.239-2.947-48.44c1.525-20.1,1.692-44.591,28.08-29.3,23.524,13.637,23.31,21.088,21.321,44.609-2.263,26.732-.775,59.632-.775,59.632" transform="translate(196.325 49.839)" fill="#5e2e2e"/>
    <path id="Trazado_223398" data-name="Trazado 223398" d="M104.581,23.836s-7.628,2.889-10.188,5.824c-3.164,3.629,9.853,6.986,10.188,7.094s0-12.918,0-12.918" transform="translate(197.128 50.041)" fill="#5e2e2e"/>
    <path id="Trazado_223399" data-name="Trazado 223399" d="M116,63.841l-5.573,3.186-4.345-7.163,4.99-3.292Z" transform="translate(222.714 118.768)" fill="#5e2e2e"/>
    <path id="Trazado_223400" data-name="Trazado 223400" d="M140.593,133.8,94.915,107.291s-4.255-31.239-2.948-48.44c1.525-20.1,1.692-44.591,28.08-29.3,23.524,13.637,23.31,21.088,21.321,44.609-2.262,26.732-.775,59.632-.775,59.632" transform="translate(192.55 51.995)" fill="#723f3f"/>
    <path id="Trazado_223401" data-name="Trazado 223401" d="M93.771,49.5l38.163,22.034v2.421L94.177,52.15c-.13-.88-.263-1.767-.406-2.653" transform="translate(196.861 103.913)" fill="#5e2e2e"/>
    <path id="Trazado_223402" data-name="Trazado 223402" d="M93.391,47.2l39.337,22.712v2.421L93.84,49.876c-.149-.893-.3-1.785-.449-2.681" transform="translate(196.064 99.08)" fill="#5e2e2e"/>
    <path id="Trazado_223403" data-name="Trazado 223403" d="M93,44.711l40.537,23.407v2.421L93.391,47.355c-.139-.88-.267-1.76-.387-2.644" transform="translate(195.251 93.866)" fill="#5e2e2e"/>
    <path id="Trazado_223404" data-name="Trazado 223404" d="M133.995,66.351v2.421L93.12,45.173l-.332-2.613Z" transform="translate(194.798 89.35)" fill="#5e2e2e"/>
    <path id="Trazado_223405" data-name="Trazado 223405" d="M92.66,41.436c-.006-.347,0-.691-.006-1.035l41.622,24.03v2.421L92.924,42.973Z" transform="translate(194.516 84.817)" fill="#5e2e2e"/>
    <path id="Trazado_223406" data-name="Trazado 223406" d="M92.9,38.2l41.287,23.837V64.46L92.7,40.5c.056-.769.118-1.537.2-2.3" transform="translate(194.604 80.201)" fill="#5e2e2e"/>
    <path id="Trazado_223407" data-name="Trazado 223407" d="M122.092,25.49c-.443-.36-12.32,9.775-17.034,17.741s-10.69,19.486-10.69,19.486-7.057-9.168-10.68-13.693A49.319,49.319,0,0,0,76.81,41.9a19.164,19.164,0,0,1-3.257,3.254,10.73,10.73,0,0,0-2.641,2.824S79.441,67.54,85.414,74.6s10.054,6.23,14.037,3.815C102.9,76.323,113.7,63.324,113.7,63.324s18.193-29.869,8.39-37.834" transform="translate(148.872 53.494)" fill="#8bdae6"/>
    <path id="Trazado_223408" data-name="Trazado 223408" d="M91.046,40.4a63.113,63.113,0,0,0-4.888-6.22c-1.99-2.042-2.535-1.782-8.688-2.907s-6.881-3.84-10.68-4.928-3.8,4.166,1.81,9.233,11.585,5.067,13.575,6.967a15.288,15.288,0,0,1,2.972,3.933s4.993-1.435,5.9-6.078" transform="translate(134.636 54.999)" fill="#ffd0ca"/>
    <path id="Trazado_223409" data-name="Trazado 223409" d="M87.089,59.781s-1.813,3-3.905,5.728-5.694,6.633-5.5,10.587c.276,5.477.626,11.034,1.494,17.828.815,6.41,1.156,32.888.79,41.321-.149,3.4-6.329,6.326-11.338,9.577-3.905,2.529,2.731,6.8,1.494,8.564-2.073,2.954,6.363-.663,9.053-1.928s14.477-6.22,12.729-12.968,1.364-22.48,2.941-34.087a115.085,115.085,0,0,0,1.258-20.109c-.062-4.206,13.91-16.225,14.493-17.574,1.457-3.372-23.512-6.94-23.512-6.94" transform="translate(141.469 125.503)" fill="#ff9f8c"/>
    <path id="Trazado_223410" data-name="Trazado 223410" d="M83.681,78.436a16.191,16.191,0,0,0-4.342,13.913,92.714,92.714,0,0,1,1.937,16.982c.031,6.459,1.237,31.3.871,39.734s-2.325,14.043-2.895,17.6c-1.075,6.695,1.227,23.146,6.087,18.931s3.642-6.843,6.326-8.108,3.434-16.96,1.686-23.707,3.512-22.585,4.559-34.254c1.1-12.32-1.974-25.836.381-28.657,4.754-5.694,14.7-10.637,15.035-16.408.422-7.181-6.738-19.012-13.839-15.788-2.365,1.075-6.955,10.885-15.807,19.759" transform="translate(165.835 122.042)" fill="#ffd0ca"/>
    <path id="Trazado_223411" data-name="Trazado 223411" d="M141.692,52.1s9.286,18.587,2.963,30c-5.216,9.416-32.041,30.306-32.041,30.306s-4.138-8.576-16.077-11.2a106.209,106.209,0,0,1,7.668-12.738c-4.742,4.506-6.6,8.539-13.842,13.888-6.4-9.806-18.193-10.618-18.193-10.618l32.271-43.862S119.618,64.8,141.692,52.1" transform="translate(151.513 100.506)" fill="#5e2e2e"/>
    <path id="Trazado_223412" data-name="Trazado 223412" d="M130.234,48.684c-.456-2.278-3.366-6.174-6.791-9.218a18.177,18.177,0,0,0-5.34-3.555s-7.655,5.52-10.355,7.432A66.231,66.231,0,0,0,100.4,50.38l-.062-.012a56.333,56.333,0,0,1,3.834-14.3c.917-2.173,0-8.709,0-8.709s-1.02-.307-2.5-.645c-2.365,2.374-7.1,8.762-9.621,11.381-2.439,2.526-11.806,10.327-9.7,18.971a70.619,70.619,0,0,0,2.634,8.012c1.336,3.592,1.878,10.457,1.509,14.087-.422,4.169-4.742,16.414-4.742,16.414s8.024,9.156,18.3,10.048c16.179,1.407,24.181-2.873,24.181-2.873s-5.288-24.1-1.764-30.749c2.876-5.43,10.653-8.9,7.77-23.323" transform="translate(171.625 56.087)" fill="#c8eef3"/>
    <path id="Trazado_223413" data-name="Trazado 223413" d="M96.971,21.942s3.722,2.253,6.664,16.43c2.91,14.037,2.737,14.273,2.737,14.273s-3.9-3.512-6.258-5.579c-2.405-2.111-4.2-1.243-7.215-4.612-4.547-5.077,4.073-20.512,4.073-20.512" transform="translate(192.248 46.065)" fill="#5e2e2e"/>
    <path id="Trazado_223414" data-name="Trazado 223414" d="M93.727,37.048s.859,5-3.961,11.021c-1.181,1.661-5.808,10.944-1.884,13.64,4.9,3.366,11.145-3.357,13.538-5.424,2.895-2.5,11.672-7.463,11.672-7.463s-4.99-6.224-6.081-11.083a66.094,66.094,0,0,1-1.085-15.178Z" transform="translate(181.244 47.364)" fill="#ffd0ca"/>
    <path id="Trazado_223415" data-name="Trazado 223415" d="M106.71,20.331c-5.074-3.865-17.1-5.1-21.482,7.315-4.6,13.027,7.184,29.292,13.467,26.531,3.518-1.55,10.913-7.048,13-13.9,2.343-7.717-1.038-16.938-4.981-19.941" transform="translate(176.741 37.073)" fill="#ffd0ca"/>
    <path id="Trazado_223416" data-name="Trazado 223416" d="M97.9,33.21s8.8,10.178,18.156,12.466c4.407-9.94,5.269-12.68,3.171-18.974-2.442-7.315-9.974-7.1-9.974-7.1s-7.624-8.508-18.4-.759c-15.652,11.254-3.67,24.55-3.67,24.55S87.728,36.818,97.9,33.21" transform="translate(173.826 32.711)" fill="#5e2e2e"/>
    <path id="Trazado_223417" data-name="Trazado 223417" d="M90.985,26.753A12.166,12.166,0,0,1,93.167,24.4c.97-.747,2.82-.967,3.35,1.857a4.733,4.733,0,0,1-2.352,5.3Z" transform="translate(191.012 50.201)" fill="#ffd0ca"/>
    <path id="Trazado_223418" data-name="Trazado 223418" d="M113.339,31.528l2.7,2.427s-5.207,4.5-10.107,9.224S94.172,54.634,87.9,50.592C83.219,47.577,86.024,41.524,87,39s5.449-9.661,5.449-9.661l2,.614s-4.432,6.688-5.483,12.326c-.905,4.838,1.119,6.5,5.312,5.415,4.894-1.265,8.424-5.477,10.959-8.278,1.9-2.1,8.1-7.891,8.1-7.891" transform="translate(179.023 61.602)" fill="#8bdae6"/>
    <path id="Trazado_223419" data-name="Trazado 223419" d="M73.576,91.506a35.373,35.373,0,0,0-7.587,6.478c-2.789,3.49.676,9.252,8.207,8.117,3.976-.6,8.994-5.412,11.136-7,3-2.225,8.257-4.754,10.615-6.778s.905-7.147.905-7.147a11.034,11.034,0,0,1-3.71,5.136,46.551,46.551,0,0,1-9.205,5.443c-4.671,1.633-7.95,2.789-9.763.589-1.72-2.083-.6-4.838-.6-4.838" transform="translate(136.522 178.819)"/>
    <path id="Trazado_223420" data-name="Trazado 223420" d="M80.648,102.141s-.087,5.749,1.754,8.331,6.909,3.741,9.168-1.835a48.281,48.281,0,0,0,2.966-13.244,46.421,46.421,0,0,0-.161-6.4s2.309,1.733,1.432,5.669.236,9.735.04,12.7c-.462,7.057-2.29,12.267-7.367,14.545-4.082,1.832-10.067.49-9.974-6.351a51.423,51.423,0,0,1,2.142-13.417" transform="translate(164.814 186.83)"/>
    <path id="Trazado_223421" data-name="Trazado 223421" d="M18.236,152.152l-4.813-2.78V46.444l4.813,2.777Z" transform="translate(28.179 97.504)" fill="#dfc8ed"/>
    <path id="Trazado_223422" data-name="Trazado 223422" d="M19.343,46.521l-4.367,2.542V151.993l4.367-2.532Z" transform="translate(31.44 97.665)" fill="#b89fce"/>
    <path id="Trazado_223423" data-name="Trazado 223423" d="M89.522,193.628l-4.813-2.78V87.917l4.813,2.78Z" transform="translate(177.836 184.572)" fill="#15616d"/>
    <path id="Trazado_223424" data-name="Trazado 223424" d="M90.629,87.994l-4.367,2.541V193.466l4.367-2.532Z" transform="translate(181.097 184.734)" fill="#15616d"/>
    <path id="Trazado_223425" data-name="Trazado 223425" d="M118.813,176.649,114,173.869V70.941l4.813,2.777Z" transform="translate(239.329 148.933)" fill="#15616d"/>
    <path id="Trazado_223426" data-name="Trazado 223426" d="M119.92,71.018l-4.367,2.541V176.487l4.367-2.529Z" transform="translate(242.59 149.094)" fill="#15616d"/>
    <path id="Trazado_223427" data-name="Trazado 223427" d="M13.422,47.782V58.571L239.259,189.16V178.371Z" transform="translate(28.178 100.313)" fill="#15616d"/>
    <path id="Trazado_223428" data-name="Trazado 223428" d="M181.361,72.33,86.287,126.836v10.789l95.074-54.506Z" transform="translate(181.15 151.849)" fill="#15616d"/>
    <path id="Trazado_223429" data-name="Trazado 223429" d="M239.258,182.454,13.422,51.487V46.348L239.258,177.316Z" transform="translate(28.178 97.302)" fill="#723f3f"/>
    <path id="Trazado_223430" data-name="Trazado 223430" d="M86.287,125.9l94.962-55.061.112,5.359-95.074,54.84Z" transform="translate(181.149 148.718)" fill="#5e2e2e"/>
    <path id="Trazado_223431" data-name="Trazado 223431" d="M108.462,28.735,13.422,83.324,239.259,214.292l94.962-55.061Z" transform="translate(28.179 60.325)" fill="#844f4f"/>
    <path id="Trazado_223432" data-name="Trazado 223432" d="M150.507,67.647h-3.276v.133l-25.461-14.7c-2.486-1.435-6.865-1.255-9.735.4L58.477,84.4H55.746v3.508a2.919,2.919,0,0,0,1.664,2.325L84.474,105.86c2.483,1.435,6.865,1.255,9.732-.4l53.926-31.133c1.565-.9,2.34-2.064,2.343-3.171h.031Z" transform="translate(117.032 109.402)" fill="#5e2e2e"/>
    <path id="Trazado_223433" data-name="Trazado 223433" d="M121.775,52.051l27.061,15.624c2.486,1.435,2.173,3.964-.7,5.619L94.216,104.428c-2.87,1.658-7.253,1.838-9.735.406L57.417,89.21c-2.483-1.435-2.17-3.964.7-5.622L112.04,52.454c2.87-1.655,7.249-1.838,9.735-.4" transform="translate(117.023 107.244)" fill="#723f3f"/>
    <path id="Trazado_223434" data-name="Trazado 223434" d="M114.5,51.782l30.033,17.341-57.7,33.312L56.8,85.1Z" transform="translate(119.252 108.709)" fill="#fff"/>
    <path id="Trazado_223435" data-name="Trazado 223435" d="M76.412,63.662l7.4,4.274L71.54,75.021l-7.4-4.274Z" transform="translate(134.651 133.65)" fill="#dfc8ed"/>
    <path id="Trazado_223436" data-name="Trazado 223436" d="M79.292,55.053l7.4,4.274L74.42,66.413l-7.4-4.274Z" transform="translate(140.698 115.578)" fill="#dfc8ed"/>
    <path id="Trazado_223437" data-name="Trazado 223437" d="M69.516,69.708l1.674-.967L59.8,62.164l-1.674.967Z" transform="translate(122.022 130.505)" fill="#dfc8ed"/>
    <path id="Trazado_223438" data-name="Trazado 223438" d="M70.577,69.1l1.674-.967L60.858,61.551l-1.674.967Z" transform="translate(124.25 129.219)" fill="#dfc8ed"/>
    <path id="Trazado_223439" data-name="Trazado 223439" d="M71.638,68.482l1.674-.967-11.39-6.577-1.677.967Z" transform="translate(126.477 127.933)" fill="#dfc8ed"/>
    <path id="Trazado_223440" data-name="Trazado 223440" d="M72.7,67.87l1.674-.967L62.98,60.326l-1.674.967Z" transform="translate(128.705 126.647)" fill="#dfc8ed"/>
    <path id="Trazado_223441" data-name="Trazado 223441" d="M88.733,75.53l1.674-.967L64.363,59.528l-1.674.967Z" transform="translate(131.608 124.971)" fill="#dfc8ed"/>
    <path id="Trazado_223442" data-name="Trazado 223442" d="M89.794,74.917l1.674-.967L65.424,58.915l-1.674.967Z" transform="translate(133.836 123.685)" fill="#dfc8ed"/>
    <path id="Trazado_223443" data-name="Trazado 223443" d="M90.855,74.3l1.674-.967L66.485,58.3l-1.674.967Z" transform="translate(136.063 122.399)" fill="#dfc8ed"/>
    <path id="Trazado_223444" data-name="Trazado 223444" d="M91.916,73.692l1.674-.967L67.546,57.69l-1.674.967Z" transform="translate(138.291 121.113)" fill="#dfc8ed"/>
    <path id="Trazado_223445" data-name="Trazado 223445" d="M97.628,70.394l1.674-.967L73.258,54.392l-1.674.967Z" transform="translate(150.283 114.189)" fill="#dfc8ed"/>
    <path id="Trazado_223446" data-name="Trazado 223446" d="M98.689,69.781l1.674-.967L74.322,53.779l-1.677.967Z" transform="translate(152.51 112.903)" fill="#dfc8ed"/>
    <path id="Trazado_223447" data-name="Trazado 223447" d="M99.75,69.169l1.674-.967L75.38,53.167l-1.674.967Z" transform="translate(154.738 111.617)" fill="#dfc8ed"/>
    <path id="Trazado_223448" data-name="Trazado 223448" d="M100.812,68.556l1.674-.967L76.441,52.554l-1.674.967Z" transform="translate(156.965 110.331)" fill="#dfc8ed"/>
    <path id="Trazado_223449" data-name="Trazado 223449" d="M70.033,59.6,87.1,69.451l1.674-.964L71.706,58.632Z" transform="translate(147.026 123.09)" fill="#dfc8ed"/>
    <path id="Trazado_223450" data-name="Trazado 223450" d="M71.094,58.986l17.068,9.853,1.674-.967L72.768,58.019Z" transform="translate(149.253 121.804)" fill="#dfc8ed"/>
    <path id="Trazado_223451" data-name="Trazado 223451" d="M72.155,58.373l17.068,9.853,1.674-.967L73.829,57.406Z" transform="translate(151.481 120.518)" fill="#dfc8ed"/>
    <path id="Trazado_223452" data-name="Trazado 223452" d="M73.216,57.761l17.068,9.853,1.674-.967L74.89,56.794Z" transform="translate(153.709 119.232)" fill="#dfc8ed"/>
    <path id="Trazado_223453" data-name="Trazado 223453" d="M100.443,54.78C97.5,56.85,93.618,57.142,88.4,59.2s-8.421,5.588-11.44,8.173S74.47,71.2,75.357,71.2s4.64-1.835,6.406-3.406l1.767-1.568s4.525,4.262,7.5,4.974,5.907-3.22,7.284-4.187,8.87-4.909,8.87-4.909-2.715-10.163-6.744-7.324" transform="translate(156.747 113.953)" fill="#ffd0ca"/>
    <path id="Trazado_223454" data-name="Trazado 223454" d="M127.618,32.7c-10.978,7.6-14.6,42.217-15.9,45.951-2.82,3.257-7.959,6.772-13.836,11.108-5.064,3.738-15.512,11.09-15.512,11.09s3.846.26,5.43,2.988a17.735,17.735,0,0,1,2.018,5.064s15.55-7.792,24-12.909C121.872,91.113,125.058,86.8,126.632,79s8.7-24.457,7.277-34.236S127.618,32.7,127.618,32.7" transform="translate(172.933 68.641)" fill="#8bdae6"/>
    <path id="Trazado_223455" data-name="Trazado 223455" d="M134.688,64.947l30.033,17.341L107.02,115.6,76.987,98.262Z" transform="translate(161.625 136.349)" fill="#fbf5ff"/>
    <path id="Trazado_223456" data-name="Trazado 223456" d="M96.6,76.827,104,81.1,91.723,88.186l-7.4-4.274Z" transform="translate(177.024 161.29)" fill="#dfc8ed"/>
    <path id="Trazado_223457" data-name="Trazado 223457" d="M99.476,68.219l7.4,4.274L94.6,79.578,87.2,75.3Z" transform="translate(183.072 143.217)" fill="#dfc8ed"/>
    <path id="Trazado_223458" data-name="Trazado 223458" d="M89.7,82.873l1.674-.967-11.39-6.577-1.677.967Z" transform="translate(164.396 158.145)" fill="#dfc8ed"/>
    <path id="Trazado_223459" data-name="Trazado 223459" d="M90.761,82.26l1.674-.967L81.041,74.716l-1.674.967Z" transform="translate(166.623 156.858)" fill="#dfc8ed"/>
    <path id="Trazado_223460" data-name="Trazado 223460" d="M91.822,81.648l1.674-.967L82.1,74.1l-1.674.967Z" transform="translate(168.851 155.572)" fill="#dfc8ed"/>
    <path id="Trazado_223461" data-name="Trazado 223461" d="M92.883,81.035l1.674-.967L83.164,73.491l-1.674.967Z" transform="translate(171.079 154.286)" fill="#dfc8ed"/>
    <path id="Trazado_223462" data-name="Trazado 223462" d="M108.917,88.7l1.674-.967L84.546,72.693l-1.674.967Z" transform="translate(173.982 152.611)" fill="#dfc8ed"/>
    <path id="Trazado_223463" data-name="Trazado 223463" d="M109.978,88.083l1.674-.967L85.607,72.08l-1.674.967Z" transform="translate(176.209 151.324)" fill="#dfc8ed"/>
    <path id="Trazado_223464" data-name="Trazado 223464" d="M111.039,87.47l1.674-.967L86.669,71.468l-1.674.967Z" transform="translate(178.437 150.038)" fill="#dfc8ed"/>
    <path id="Trazado_223465" data-name="Trazado 223465" d="M112.1,86.857l1.674-.967L87.73,70.855l-1.674.967Z" transform="translate(180.665 148.752)" fill="#dfc8ed"/>
    <path id="Trazado_223466" data-name="Trazado 223466" d="M117.812,83.559l1.674-.967L93.442,67.557l-1.674.967Z" transform="translate(192.656 141.829)" fill="#dfc8ed"/>
    <path id="Trazado_223467" data-name="Trazado 223467" d="M118.873,82.947l1.674-.967L94.5,66.945l-1.674.967Z" transform="translate(194.884 140.543)" fill="#dfc8ed"/>
    <path id="Trazado_223468" data-name="Trazado 223468" d="M119.934,82.334l1.674-.967L95.564,66.332,93.89,67.3Z" transform="translate(197.111 139.257)" fill="#dfc8ed"/>
    <path id="Trazado_223469" data-name="Trazado 223469" d="M121,81.722l1.674-.967L96.628,65.72l-1.677.967Z" transform="translate(199.339 137.97)" fill="#dfc8ed"/>
    <path id="Trazado_223470" data-name="Trazado 223470" d="M90.217,72.764l17.068,9.853,1.674-.967L91.89,71.8Z" transform="translate(189.399 150.729)" fill="#dfc8ed"/>
    <path id="Trazado_223471" data-name="Trazado 223471" d="M91.278,72.151,108.346,82l1.674-.967L92.951,71.184Z" transform="translate(191.627 149.443)" fill="#dfc8ed"/>
    <path id="Trazado_223472" data-name="Trazado 223472" d="M92.339,71.539l17.068,9.853,1.674-.967L94.012,70.572Z" transform="translate(193.855 148.157)" fill="#dfc8ed"/>
    <path id="Trazado_223473" data-name="Trazado 223473" d="M93.4,70.926l17.068,9.853,1.674-.964L95.074,69.959Z" transform="translate(196.082 146.871)" fill="#dfc8ed"/>
    <path id="Trazado_223474" data-name="Trazado 223474" d="M134.277,60.133,164.31,77.474l-57.7,33.312L76.576,93.448Z" transform="translate(160.762 126.243)" fill="#fff"/>
    <path id="Trazado_223475" data-name="Trazado 223475" d="M96.184,72.013l7.4,4.274L91.312,83.373l-7.4-4.274Z" transform="translate(176.16 151.184)" fill="#dfc8ed"/>
    <path id="Trazado_223476" data-name="Trazado 223476" d="M99.065,63.405l7.4,4.274L94.192,74.764l-7.4-4.274Z" transform="translate(182.208 133.111)" fill="#dfc8ed"/>
    <path id="Trazado_223477" data-name="Trazado 223477" d="M89.289,78.059l1.674-.967-11.39-6.577-1.677.967Z" transform="translate(163.532 148.039)" fill="#dfc8ed"/>
    <path id="Trazado_223478" data-name="Trazado 223478" d="M90.35,77.447l1.674-.967L80.633,69.9l-1.677.967Z" transform="translate(165.76 146.753)" fill="#dfc8ed"/>
    <path id="Trazado_223479" data-name="Trazado 223479" d="M91.411,76.834l1.674-.967L81.691,69.29l-1.674.967Z" transform="translate(167.987 145.467)" fill="#dfc8ed"/>
    <path id="Trazado_223480" data-name="Trazado 223480" d="M92.472,76.221l1.674-.967-11.39-6.577-1.677.967Z" transform="translate(170.215 144.18)" fill="#dfc8ed"/>
    <path id="Trazado_223481" data-name="Trazado 223481" d="M108.505,83.881l1.674-.967L84.135,67.879l-1.674.967Z" transform="translate(173.118 142.505)" fill="#dfc8ed"/>
    <path id="Trazado_223482" data-name="Trazado 223482" d="M109.566,83.269l1.674-.967L85.2,67.267l-1.674.967Z" transform="translate(175.345 141.218)" fill="#dfc8ed"/>
    <path id="Trazado_223483" data-name="Trazado 223483" d="M110.628,82.656l1.674-.967L86.26,66.654l-1.677.967Z" transform="translate(177.573 139.932)" fill="#dfc8ed"/>
    <path id="Trazado_223484" data-name="Trazado 223484" d="M111.689,82.044l1.674-.967L87.318,66.041l-1.674.967Z" transform="translate(179.801 138.646)" fill="#dfc8ed"/>
    <path id="Trazado_223485" data-name="Trazado 223485" d="M117.4,78.746l1.674-.967L93.03,62.743l-1.674.967Z" transform="translate(191.792 131.723)" fill="#dfc8ed"/>
    <path id="Trazado_223486" data-name="Trazado 223486" d="M118.462,78.133l1.674-.967L94.091,62.131l-1.674.967Z" transform="translate(194.02 130.437)" fill="#dfc8ed"/>
    <path id="Trazado_223487" data-name="Trazado 223487" d="M119.523,77.52l1.674-.967L95.152,61.518l-1.674.967Z" transform="translate(196.247 129.151)" fill="#dfc8ed"/>
    <path id="Trazado_223488" data-name="Trazado 223488" d="M120.584,76.908l1.674-.967L96.216,60.906l-1.677.967Z" transform="translate(198.475 127.864)" fill="#dfc8ed"/>
    <path id="Trazado_223489" data-name="Trazado 223489" d="M89.805,67.95,106.873,77.8l1.674-.967L91.479,66.983Z" transform="translate(188.536 140.623)" fill="#dfc8ed"/>
    <path id="Trazado_223490" data-name="Trazado 223490" d="M90.866,67.337l17.068,9.853,1.674-.964L92.54,66.37Z" transform="translate(190.763 139.337)" fill="#dfc8ed"/>
    <path id="Trazado_223491" data-name="Trazado 223491" d="M91.927,66.725,109,76.578l1.674-.967L93.6,65.758Z" transform="translate(192.991 138.051)" fill="#dfc8ed"/>
    <path id="Trazado_223492" data-name="Trazado 223492" d="M92.988,66.112l17.068,9.853L111.73,75,94.662,65.145Z" transform="translate(195.218 136.765)" fill="#dfc8ed"/>
    <path id="Trazado_223493" data-name="Trazado 223493" d="M62.6,65.11S51.09,58.8,47.944,56.6c-2.272-1.593-1.562-2.957-.167-7.494s4.441-12.847,4.441-12.847l-2.8-.449s-3.27,10.017-4.432,13.851-1.664,6.546,1.832,8.746c4.748,3,15.788,9.385,15.788,9.385Z" transform="translate(92.607 75.175)" fill="#fff"/>
    <path id="Trazado_223494" data-name="Trazado 223494" d="M64.437,62.727c-2.56-1.571-5.4-2.529-6.279-5.942-.852-3.323.917-6.763,2.16-9.819,1.7-4.2,1.819-8.22,3.809-12.3-9.3.927-18.568,7.879-19.222,8.709-.7.883-5.849,20-6.546,22.489s.009,3.97,4.3,6.54,12.717,6.5,12.717,6.5L74.51,68.089c-3.062-1.819-6.955-3.45-10.073-5.362" transform="translate(80.037 72.781)" fill="#fff"/>
    <path id="Trazado_223495" data-name="Trazado 223495" d="M56.3,68.93S44.559,62.3,41.487,60.373c-2.349-1.478-1.41-3.121-.015-7.659S45.913,39.87,45.913,39.87l-2.808-.452s-3.267,10.017-4.429,13.851-1.959,6.812,1.537,9.019C44.962,65.282,56.3,71.611,56.3,71.611Z" transform="translate(79.116 82.754)" fill="#b89fce"/>
    <path id="Trazado_223496" data-name="Trazado 223496" d="M43.69,56.662v2.681l19.8-11.4V45.262Z" transform="translate(91.722 95.023)" fill="#dfc8ed"/>
    <path id="Trazado_223497" data-name="Trazado 223497" d="M101.34,17.557,98.457,15.89l-.025.015a4.91,4.91,0,0,0-5.269-.217L32.794,50.541a4.982,4.982,0,0,0-2.489,4.314v51.3a4.926,4.926,0,0,0,2.458,4.29l0,.019,3.341,1.934,2.058-2.154L98.144,75.615a4.98,4.98,0,0,0,2.492-4.311V20a4.945,4.945,0,0,0-.642-2.424Z" transform="translate(63.622 31.54)" fill="#5e2e2e"/>
    <path id="Trazado_223498" data-name="Trazado 223498" d="M31.345,55.471v51.3a4.983,4.983,0,0,0,7.473,4.314L99.184,76.234a4.982,4.982,0,0,0,2.492-4.314v-51.3A4.981,4.981,0,0,0,94.2,16.3L33.834,51.157a4.982,4.982,0,0,0-2.489,4.314" transform="translate(65.805 32.812)" fill="#723f3f"/>
    <path id="Trazado_223499" data-name="Trazado 223499" d="M31.735,54.749v50.2c0,3.7,4.007,5.353,7.215,3.5L97.244,74.8a4.808,4.808,0,0,0,2.405-4.166V20.147c0-3.7-4.007-5.071-7.215-3.217L34.14,50.583a4.812,4.812,0,0,0-2.405,4.166" transform="translate(66.624 33.816)" fill="#84575a"/>
    <path id="Trazado_223500" data-name="Trazado 223500" d="M49.207,40.514,44,43.477c-.632.36-1.178.164-1.215-.434A2.143,2.143,0,0,1,43.867,41.3l5.2-2.963c.632-.36,1.181-.164,1.218.437a2.142,2.142,0,0,1-1.082,1.742" transform="translate(89.819 80.102)" fill="#fff"/>
    <path id="Trazado_223501" data-name="Trazado 223501" d="M96.668,16.669V66.495l-64.48,37.267V53.936Z" transform="translate(67.577 34.995)" fill="#7b78ef"/>
    <path id="Trazado_223502" data-name="Trazado 223502" d="M84.639,20.279V62.734l-49.832,28.8V49.081Z" transform="translate(73.073 42.573)" fill="#fff"/>
    <path id="Trazado_223503" data-name="Trazado 223503" d="M84.639,21.578V25.52l-49.832,28.8V50.38Z" transform="translate(73.073 45.3)" fill="#ff5097"/>
    <path id="Trazado_223504" data-name="Trazado 223504" d="M40.6,40.973l28.552-16.5v2.3L40.6,43.27Z" transform="translate(85.234 51.376)" fill="#dfc8ed"/>
    <path id="Trazado_223505" data-name="Trazado 223505" d="M40.6,42.41l28.552-16.5v2.3L40.6,44.706Z" transform="translate(85.234 54.392)" fill="#dfc8ed"/>
    <path id="Trazado_223506" data-name="Trazado 223506" d="M40.6,43.846l28.552-16.5v2.3L40.6,46.143Z" transform="translate(85.234 57.408)" fill="#dfc8ed"/>
    <path id="Trazado_223507" data-name="Trazado 223507" d="M35.388,38.1l13.705-7.922V57.651L35.388,65.573Z" transform="translate(74.293 63.356)" fill="#dfc8ed"/>
    <path id="Trazado_223508" data-name="Trazado 223508" d="M40.6,45.243l28.552-16.5v2.3L40.6,47.54Z" transform="translate(85.234 60.34)" fill="#dfc8ed"/>
    <path id="Trazado_223509" data-name="Trazado 223509" d="M40.6,46.68l28.552-16.5v2.3L40.6,48.976Z" transform="translate(85.234 63.356)" fill="#dfc8ed"/>
    <path id="Trazado_223510" data-name="Trazado 223510" d="M40.6,48.164l28.552-16.5v2.3L40.6,50.46Z" transform="translate(85.234 66.472)" fill="#dfc8ed"/>
    <path id="Trazado_223511" data-name="Trazado 223511" d="M48.059,42.082V54.228L34.14,62.705V50.326Z" transform="translate(71.672 88.346)" fill="#f9c852"/>
    <path id="Trazado_223512" data-name="Trazado 223512" d="M65.288,15.873V29.43L53.529,36.593V22.837Z" transform="translate(112.378 33.324)" fill="#fab234"/>
    <path id="Trazado_223513" data-name="Trazado 223513" d="M105.408,63.916,67.93,42.224l-13.876,8L91.6,71.909Z" transform="translate(113.481 88.643)" fill="#fff"/>
    <path id="Trazado_223514" data-name="Trazado 223514" d="M66.169,59.181l13.8-8.015V49.223l-13.8,7.993Z" transform="translate(138.914 103.337)" fill="#b89fce"/>
    <path id="Trazado_223515" data-name="Trazado 223515" d="M91.6,66.491v1.965l-37.546-21.8V44.8Z" transform="translate(113.482 94.061)" fill="#dfc8ed"/>
    <path id="Trazado_223516" data-name="Trazado 223516" d="M65.077,56.582l-.7-.406L78.2,48.189l.71.4Z" transform="translate(135.144 101.167)" fill="#dfc8ed"/>
    <path id="Trazado_223517" data-name="Trazado 223517" d="M63.313,55.563l-.7-.406,13.826-7.987.71.4Z" transform="translate(131.44 99.027)" fill="#dfc8ed"/>
    <path id="Trazado_223518" data-name="Trazado 223518" d="M61.552,54.543l-.7-.406L74.674,46.15l.71.4Z" transform="translate(127.744 96.887)" fill="#dfc8ed"/>
    <path id="Trazado_223519" data-name="Trazado 223519" d="M59.8,53.527l-.7-.406,13.826-7.987.71.4Z" transform="translate(124.073 94.752)" fill="#dfc8ed"/>
    <path id="Trazado_223520" data-name="Trazado 223520" d="M95.194,64.685l.7-.406L58.358,42.593l-.71.4Z" transform="translate(121.026 89.419)" fill="#dfc8ed"/>
    <path id="Trazado_223521" data-name="Trazado 223521" d="M94.352,65.239l.694-.4L57.466,43.116l-.713.412Z" transform="translate(119.147 90.516)" fill="#dfc8ed"/>
    <path id="Trazado_223522" data-name="Trazado 223522" d="M93.4,65.734l.7-.406L56.567,43.636l-.716.406Z" transform="translate(117.253 91.608)" fill="#dfc8ed"/>
    <path id="Trazado_223523" data-name="Trazado 223523" d="M92.525,66.313l.759-.372L55.624,44.174l-.7.406Z" transform="translate(115.299 92.738)" fill="#dfc8ed"/>
    <path id="Trazado_223524" data-name="Trazado 223524" d="M58.085,52.529l-.7-.406,13.826-7.987.71.4Z" transform="translate(120.466 92.658)" fill="#dfc8ed"/>
    <path id="Trazado_223525" data-name="Trazado 223525" d="M56.386,51.55l-.7-.406,13.826-7.987.71.4Z" transform="translate(116.899 90.602)" fill="#dfc8ed"/>
    <path id="Trazado_223526" data-name="Trazado 223526" d="M59.316,46.967c-2.647-1.528-5.849-1.358-9.025.471L15.233,67.68C9.32,71.092,4.686,79.82,4.686,87.55V166.9H11V87.55c0-5.5,3.385-12.088,7.389-14.4L53.449,52.908a4.369,4.369,0,0,1,1.971-.651,1.438,1.438,0,0,1,.738.18c.7.4,1.522,1.829,1.522,4.516v82.025A38.5,38.5,0,0,1,64,136.511V56.953c0-4.63-1.708-8.269-4.68-9.986" transform="translate(9.838 96.429)" fill="#15616d"/>
    <path id="Trazado_223527" data-name="Trazado 223527" d="M61.114,50.71,55.526,47.8c-1.537-.766-3.468-.682-5.6.545L14.872,68.591C9.919,71.451,5.9,79.122,5.9,85.724V114.39l5.433,2.895L58.9,83.8v-27.8Z" transform="translate(12.391 99.321)" fill="#9abbc0"/>
    <path id="Trazado_223528" data-name="Trazado 223528" d="M60.648,84.754V56.088c0-6.6-4.014-9.639-8.967-6.778L16.622,69.549C11.669,72.409,7.655,80.08,7.655,86.682v28.669Z" transform="translate(16.071 101.259)" fill="#aac6ca"/>
    <path id="Trazado_223529" data-name="Trazado 223529" d="M90.5,108.145c-1.032-7.29-5.436-14.508-10.711-17.555L46.99,71.655c-2.9-1.674-5.889-1.993-8.424-.893-2.551,1.1-4.383,3.53-5.151,6.831L23.178,121.345l-1.891,8.4a1.01,1.01,0,0,0-.121.347c.012.961,1.4,1.723,3.106,1.7s3.078-.812,3.065-1.773L39.366,78.982A3.626,3.626,0,0,1,41,76.37a3.487,3.487,0,0,1,2.938.576l32.8,18.937c3.636,2.1,6.955,7.739,7.714,13.117l8.356,62.79c.012.958,1.4,1.72,3.106,1.7s3.078-.812,3.065-1.773Z" transform="translate(44.436 147.207)" fill="#15616d"/>
    <path id="Trazado_223530" data-name="Trazado 223530" d="M118.637,95.994c-1.795-2.166-4.246.676-5.542,2.554l-38.969-22.5c-3.918-2.263-10.823-1.977-15.348.635L11.693,103.869c-1.429-1.906-3.8-4.37-5.291-2.176-2.356,3.456-2.29,8.613.394,11.142a12.117,12.117,0,0,0,1.534,1.2l42.734,24.674c3.918,2.259,10.826,1.974,15.348-.638l49.345-28.49a10.366,10.366,0,0,0,3.583-3.484,8.97,8.97,0,0,0-.7-10.1" transform="translate(9.879 156.451)" fill="#9abbc0"/>
    <path id="Trazado_223531" data-name="Trazado 223531" d="M50.4,136.7,7.666,112.031c-3.918-2.259-3.422-6.248,1.1-8.861L58.115,74.68c4.522-2.61,11.427-2.9,15.348-.635L116.2,98.719c3.918,2.259,3.422,6.248-1.1,8.861l-49.345,28.49c-4.525,2.61-11.431,2.9-15.348.635" transform="translate(10.546 152.245)" fill="#aac6ca"/>
    <path id="Trazado_223532" data-name="Trazado 223532" d="M69.336,120.159C68.3,112.869,63.9,105.65,58.625,102.6l-32.8-18.934c-2.9-1.674-5.889-1.993-8.424-.893-2.551,1.1-4.383,3.53-5.151,6.831L2.012,133.359l-1.891,8.4a1.01,1.01,0,0,0-.121.347c.012.961,1.4,1.723,3.106,1.7s3.078-.815,3.065-1.773L18.2,91a3.619,3.619,0,0,1,1.63-2.613,3.488,3.488,0,0,1,2.938.576l32.8,18.934c3.636,2.1,6.955,7.742,7.714,13.12l8.356,62.79c.012.958,1.4,1.72,3.106,1.7s3.078-.812,3.068-1.773Z" transform="translate(0 172.429)" fill="#15616d"/>
    <path id="Trazado_223533" data-name="Trazado 223533" d="M64.456,112.823c3.893,3.8,5.1,4.888,8.712,8.415,2.111,2.058.372,3.952-3.648,3.8A72.243,72.243,0,0,1,53.5,121.57a81.422,81.422,0,0,1-11.992-6.251,7.951,7.951,0,0,1-3.561-4.5v-6.332L57.1,105.3s3.149,3.425,7.355,7.525" transform="translate(79.665 219.356)" fill="#723f3f"/>
    <path id="Trazado_223534" data-name="Trazado 223534" d="M53.584,122.557c3.893,3.8,5.1,4.888,8.712,8.415,2.108,2.058.372,3.952-3.651,3.8A72.255,72.255,0,0,1,42.628,131.3a81.417,81.417,0,0,1-11.992-6.251,7.952,7.952,0,0,1-3.561-4.5V109.375l19.151,5.656s3.152,3.425,7.358,7.525" transform="translate(56.841 229.62)" fill="#723f3f"/>
    <path id="Trazado_223535" data-name="Trazado 223535" d="M14.4,85.526,52.666,70.81a108.507,108.507,0,0,0,17.8,13c6.732,4.063,25.272,14.964,31.211,19.157,3.657,2.585,5.3,8.164,6.726,20.726,2.352,20.744,4.079,49.568,4.079,49.568s-4.138,5.793-13.52,5.759a36.431,36.431,0,0,1-12.584-2.266l-1.46-52.882L55.356,105.219s16,11.551,18.553,21.314c2.049,7.845,2.737,13.857,3.047,23.648.669,21.085.89,43.729.89,43.729s-1.389,6.992-10.77,6.955c-7.2-.028-13.135-5.886-13.135-5.886l-1.9-57.168S24.985,118.525,17.9,110.367c-7.941-9.134-3.5-24.842-3.5-24.842" transform="translate(27.63 148.657)" fill="#5e2e2e"/>
    <path id="Trazado_223536" data-name="Trazado 223536" d="M23.761,49.389s4.652-6.425,11.911.477c5.2,4.94,13.042,18.234,14.638,23.54.883,2.935,3.769-2.352,3.769,2.712,0,3.319,1.327,2.991,2.163,4.308,2.185,3.44-.812,15.856-7.841,17.6C44.7,98,34.507,91.894,30.487,83.8c-6.871-13.842-6.726-34.406-6.726-34.406" transform="translate(49.883 97.978)" fill="#f79826"/>
    <path id="Trazado_223537" data-name="Trazado 223537" d="M53.446,48.2a5.429,5.429,0,0,0-2.486,2.334l-19.709.363S15.231,54.2,11.459,66.605c-.276,3.9,5.129,16.8,5.405,17.6,5.009,14.589,1.667,36.508.617,51.171,17.973,12.937,43.54,1.491,51.664-8.5-4.2-28.7,7.1-57.937-15.7-78.684" transform="translate(24.035 101.186)" fill="#fab234"/>
    <path id="Trazado_223538" data-name="Trazado 223538" d="M35.766,55.41,20.8,44.537,17.632,62.126a27.789,27.789,0,0,0,7.528,5.991c3.75,1.965,7.606,1.457,11.7,2.734,1.717-3.078,0-6.822,0-6.822Z" transform="translate(37.016 93.5)" fill="#f9b4af"/>
    <path id="Trazado_223539" data-name="Trazado 223539" d="M27.472,47.96a62.164,62.164,0,0,1,4.888,4.913c1.574,1.922,1.513,4.2,2.582,6.05s1.416,2.424,1.416,2.424-2.538.344-3.347-.694-1.5-1.615-2.424-1.153-1.615,2.91-2.077,4.166a9.039,9.039,0,0,1-2.3,2.768l-2.774-3.614s2.024-2.628,1.243-4.472-1.013-8.309-1.013-8.309Z" transform="translate(49.197 100.686)" fill="#fff"/>
    <path id="Trazado_223540" data-name="Trazado 223540" d="M20.016,42.094c-3.31,4.218-4.336,14.793.223,22.235,4.048,6.614,13.29,10.355,17.394,11.015C44.963,76.529,52.87,56.28,44.5,43.9c-7.981-11.809-20.227-7.234-24.488-1.8" transform="translate(36.045 76.609)" fill="#ffd0ca"/>
    <path id="Trazado_223541" data-name="Trazado 223541" d="M31.023,35.459a14.85,14.85,0,0,0-9.639,6.4c-7.473,1.59-6.707,12.348-4.854,16.411,3.58,7.848,7.671,8.387,7.671,8.387s-1.066-4.28-.124-6.143c.809-1.593,3.35-1.869,4.209.964a6.463,6.463,0,0,0,2.077.2L29.5,56.023a10.132,10.132,0,0,0,9.205-.642c4.534-2.622,8.948-1.1,10.526.394a11.157,11.157,0,0,0,.741-5.768c2.9-2.036,5.663-3.862,5.244-5.247a8.421,8.421,0,0,1-6.949-.654,16.648,16.648,0,0,0,3.794-4.327c-5.1.654-16.123-5.123-21.039-4.321" transform="translate(32.081 74.281)" fill="#5e2e2e"/>
    <path id="Trazado_223542" data-name="Trazado 223542" d="M21.275,47.313s-1.3,2.557,2.5,6.493c2.278,2.362,9.376,4.6,11.344,5.768a18.955,18.955,0,0,1,3.725,3.459,10.4,10.4,0,0,1,1.144,2.941l.431,1.816a12.73,12.73,0,0,0-3.84-2.287c-2.151-.753-1.86,1.3-2.613,3.577-.623,1.884-3.118,1.931-3.118,1.931a20.571,20.571,0,0,0-.753-3.973c-1.218-2.015-7.129-3.013-9.466-4.947-3.121-2.582-4.711-7-3.608-9.456s2.876-5.362,4.259-5.322" transform="translate(34.991 99.328)" fill="#fff"/>
    <path id="Trazado_223543" data-name="Trazado 223543" d="M21.464,51.945c3.955,2.067,9.019,10.538,9.611,14.186a96.83,96.83,0,0,1,.964,13.1c.406,3.292,2.027,6.918.744,11.579a9.958,9.958,0,0,0-.152,4.875c1.736,5.315,3.344,6.453,2.554,9.574a8.03,8.03,0,0,1,2.913,1.8c1.122.986.778,6.385.778,6.385s-12.928,11.114-15.767,9.682c-12.069-6.075-12.36-31.834-12.853-37.3-.849-9.438-.58-18.677,1.469-25.272,1.237-3.983,7.315-9.884,9.738-8.616" transform="translate(20.582 108.684)" fill="#f79826"/>
    <path id="Trazado_223544" data-name="Trazado 223544" d="M25.97,71.536c3.775,3.019,15.9,19.16,19.182,22.675s8.285,4.039,12.438,9.441c3.109,4.042,7.838,10.442,7.16,14.046s-5.951,2.455-10.665,0c-4.959-2.579-10.888-8.353-13.817-13.154-1.358-2.232-10.823-9.571-16.972-14.48-7.132-5.7-8.805-8.874-8.805-8.874s2.027-8.9,11.48-9.655" transform="translate(30.42 150.182)" fill="#ffd0ca"/>
    <path id="Trazado_223545" data-name="Trazado 223545" d="M32.19,77.8a12.009,12.009,0,0,0-2.325-4.841c-1.717-1.925-2.762-1.888-2.762-1.888a11.141,11.141,0,0,0-8.427,3.663c-3.983,4.094-4.581,7.906-4.581,7.906a11.4,11.4,0,0,0,3.288,4.423,4.349,4.349,0,0,0,2.966.93s-1.671-2.356,3.093-7.16S32.19,77.8,32.19,77.8" transform="translate(29.593 149.177)" fill="#f3e0fc"/>
    <path id="Trazado_223546" data-name="Trazado 223546" d="M39.73,82.31c3.688-4.609,9.146-10.665,13.52-16.51s6.419-7.029,8.982-12.044c3.378-6.608,5.458-9.363,5.963-6.974.511,2.424-.462,3.453-1.128,5.635a33.385,33.385,0,0,1-2.046,4.807s3.76,2.662,5.027,5.325-.707,5.244-3.062,7.091-5.821.893-7.178,2.442c-2.659,3.034-5.033,12.769-10.346,19.724s-7.668,7.519-10.752,9.09c-3.546,1.813-5.421.046-6.679-1.77-.756-1.091.006-2.752.127-4.445.325-4.516,6.087-10.519,7.572-12.373" transform="translate(66.551 96.429)" fill="#f9b4af"/>
    <path id="Trazado_223547" data-name="Trazado 223547" d="M38.435,57.592l2.111.629a13.006,13.006,0,0,0-3.236,8.8c-.056,3.084,3.236,9.05,3.236,9.05s-2.52,3.084-5.284,2.47-4.2-3.121-4.1-7.959,2.991-10.975,7.271-12.993" transform="translate(65.413 120.908)" fill="#f3e0fc"/>
    <path id="Trazado_223548" data-name="Trazado 223548" d="M68.418,9.828l1.221-.635L65.362,6.657h0l-.012-.009C61.079,3.865,54.623,4.246,47.4,8.415c-12.856,7.423-23.276,24.033-23.276,37.1,0,6.075,2.272,10.287,5.976,12.339L25.672,75.879l3.775,2.176,6.831-18.767A23.775,23.775,0,0,0,47.4,55.739c12.853-7.42,23.276-24.03,23.276-37.1a16.172,16.172,0,0,0-2.259-8.812" transform="translate(50.648 10.207)" fill="#9abbc0"/>
    <path id="Trazado_223549" data-name="Trazado 223549" d="M48.617,9.118c-12.853,7.423-23.276,24.033-23.276,37.1,0,6.078,2.275,10.29,5.979,12.342L26.891,76.582l9.342-16.641c3.589.226,7.826-.868,12.385-3.5,12.856-7.42,23.276-24.033,23.276-37.1S61.474,1.7,48.617,9.118" transform="translate(53.2 11.679)" fill="#aac6ca"/>
    <path id="Trazado_223550" data-name="Trazado 223550" d="M101.112,36.732c5.1-7.287,8.353-15.68,8.353-22.973a16.992,16.992,0,0,0-1.76-8.006l.325-1.726-4.609-2.675-.025.015c-4.259-2.3-10.38-1.776-17.208,2.166-12.853,7.423-23.276,24.033-23.276,37.1,0,5.926,2.16,10.085,5.7,12.193l4.1,2.383,1.358-.843c3.533.158,7.671-.942,12.115-3.508A44.83,44.83,0,0,0,96.5,42.429l8.362,5.241,3.772,2.179Z" transform="translate(132.076 -0.001)" fill="#9abbc0"/>
    <path id="Trazado_223551" data-name="Trazado 223551" d="M102.329,37.448c5.1-7.287,8.353-15.68,8.353-22.973,0-13.07-10.42-17.648-23.276-10.225S64.129,28.283,64.129,41.35,74.552,59,87.405,51.575a44.831,44.831,0,0,0,10.315-8.43l8.362,5.241Z" transform="translate(134.631 1.459)" fill="#aac6ca"/>
  </g>
</svg>
